<?xml version="1.0" encoding="utf-8"?>
<!-- Generator: Adobe Illustrator 21.1.0, SVG Export Plug-In . SVG Version: 6.00 Build 0)  -->
<svg version="1.1" id="Layer_1" xmlns="http://www.w3.org/2000/svg" xmlns:xlink="http://www.w3.org/1999/xlink" x="0px" y="0px"
	 viewBox="0 0 621.4 801.4" style="enable-background:new 0 0 621.4 801.4;" xml:space="preserve">
<style type="text/css">
	.st0{fill:#FFFFFF;}
	.st1{fill:#FFFFFF;stroke:#FFFFFF;stroke-width:0.25;stroke-miterlimit:10;}
	.st2{stroke:#000000;stroke-width:0.25;stroke-miterlimit:10;}
	.st3{fill:#1F8AC9;}
	.st4{fill:#000101;stroke:#000101;stroke-width:0.25;stroke-miterlimit:10;}
	.st5{opacity:0.75;fill:#FFFFFF;}
	.st6{fill:#9A453E;}
	.st7{fill:#5D2318;}
	.st8{fill:#5D2318;stroke:#5D2318;stroke-width:0.25;stroke-miterlimit:10;}
	.st9{fill:#9A453E;stroke:#9A453E;stroke-width:0.25;stroke-miterlimit:10;}
	.st10{fill:#933A28;}
	.st11{fill:#29326B;stroke:#29326B;stroke-width:0.25;stroke-miterlimit:10;}
	.st12{fill:#FFFFFF;fill-opacity:0.27;}
	.st13{fill:#5D2217;}
	.st14{fill:#99443E;}
	.st15{stroke:#000000;stroke-width:0.5;stroke-miterlimit:10;}
	.st16{fill:#473181;stroke:#473181;stroke-width:0.5;stroke-miterlimit:10;}
	.st17{fill:#090E31;}
	.st18{fill:#442033;}
	.st19{fill:#473181;}
	.st20{fill:#BDA677;}
	.st21{fill:#FFFFFF;stroke:#FFFFFF;stroke-miterlimit:10;}
	.st22{fill:#2C3471;}
	.st23{fill:#2C3471;stroke:#2C3471;stroke-width:0.25;stroke-miterlimit:10;}
	.st24{fill:#00B4EC;}
	.st25{opacity:0.15;}
	.st26{fill:#21283A;stroke:#21283A;stroke-width:0.25;stroke-miterlimit:10;}
	.st27{clip-path:url(#SVGID_2_);}
	.st28{opacity:0.12;}
	.st29{fill:#0C2537;}
	.st30{opacity:0.8;}
	.st31{fill:#737273;}
	.st32{opacity:0.85;fill:#FFFFFF;}
	.st33{fill:#B9DCE8;}
</style>
<g>
	<path class="st1" d="M403.6,139.7h1.2v8.4h4v1h-5.3V139.7z"/>
	<path class="st1" d="M413.9,149.1l-0.1-0.9h0c-0.4,0.5-1.1,1-2.1,1c-1.4,0-2.1-1-2.1-1.9c0-1.6,1.5-2.5,4.1-2.5v-0.1
		c0-0.6-0.2-1.6-1.5-1.6c-0.6,0-1.3,0.2-1.8,0.5l-0.3-0.8c0.6-0.4,1.4-0.6,2.2-0.6c2.1,0,2.6,1.4,2.6,2.8v2.5c0,0.6,0,1.2,0.1,1.6
		H413.9z M413.7,145.6c-1.3,0-2.9,0.2-2.9,1.5c0,0.8,0.5,1.2,1.2,1.2c0.9,0,1.4-0.6,1.6-1.1c0-0.1,0.1-0.3,0.1-0.4V145.6z"/>
	<path class="st1" d="M422.7,139.2v8.2c0,0.6,0,1.3,0.1,1.8h-1.1l-0.1-1.2h0c-0.4,0.8-1.2,1.3-2.3,1.3c-1.6,0-2.9-1.4-2.9-3.4
		c0-2.3,1.4-3.6,3-3.6c1,0,1.7,0.5,2,1h0v-4H422.7z M421.5,145.1c0-0.2,0-0.4-0.1-0.5c-0.2-0.8-0.9-1.4-1.8-1.4c-1.3,0-2,1.1-2,2.6
		c0,1.4,0.7,2.5,2,2.5c0.8,0,1.6-0.5,1.8-1.5c0-0.2,0.1-0.3,0.1-0.5V145.1z"/>
	<path class="st1" d="M425.2,142.3l1.5,4c0.2,0.4,0.3,1,0.4,1.4h0c0.1-0.4,0.3-0.9,0.4-1.4l1.3-4h1.3l-1.8,4.8
		c-0.9,2.3-1.5,3.5-2.3,4.2c-0.6,0.5-1.2,0.7-1.5,0.8l-0.3-1c0.3-0.1,0.7-0.3,1.1-0.6c0.3-0.3,0.8-0.7,1-1.4
		c0.1-0.1,0.1-0.2,0.1-0.3c0-0.1,0-0.2-0.1-0.3l-2.5-6.2H425.2z"/>
	<path class="st1" d="M434.2,147.6c0.5,0.3,1.3,0.6,2.2,0.6c1.2,0,2-0.7,2-1.6c0-0.9-0.5-1.4-1.8-1.9c-1.5-0.5-2.5-1.3-2.5-2.7
		c0-1.5,1.2-2.6,3.1-2.6c1,0,1.7,0.2,2.1,0.5l-0.3,1c-0.3-0.2-0.9-0.4-1.8-0.4c-1.3,0-1.8,0.8-1.8,1.4c0,0.9,0.6,1.3,1.9,1.8
		c1.6,0.6,2.4,1.4,2.4,2.8c0,1.5-1.1,2.7-3.3,2.7c-0.9,0-1.9-0.3-2.4-0.6L434.2,147.6z"/>
	<path class="st1" d="M441.2,139.2h1.2v4.2h0c0.2-0.4,0.5-0.7,0.9-0.9c0.4-0.2,0.8-0.4,1.3-0.4c0.9,0,2.4,0.6,2.4,2.9v4h-1.2v-3.9
		c0-1.1-0.4-2-1.6-2c-0.8,0-1.4,0.6-1.7,1.2c-0.1,0.2-0.1,0.4-0.1,0.6v4.1h-1.2V139.2z"/>
	<path class="st1" d="M454.7,147.2c0,0.7,0,1.3,0.1,1.8h-1.1l-0.1-1.1h0c-0.3,0.5-1,1.3-2.2,1.3c-1.1,0-2.3-0.6-2.3-3v-4h1.2v3.8
		c0,1.3,0.4,2.2,1.5,2.2c0.8,0,1.4-0.6,1.6-1.1c0.1-0.2,0.1-0.4,0.1-0.6v-4.2h1.2V147.2z"/>
	<path class="st1" d="M462.6,142.3c0,0.5-0.1,1-0.1,1.9v3.9c0,1.6-0.3,2.5-1,3.1c-0.7,0.6-1.6,0.8-2.5,0.8c-0.8,0-1.7-0.2-2.3-0.6
		l0.3-0.9c0.4,0.3,1.1,0.5,2,0.5c1.3,0,2.2-0.7,2.2-2.4v-0.8h0c-0.4,0.6-1.1,1.1-2.2,1.1c-1.7,0-2.9-1.4-2.9-3.3
		c0-2.3,1.5-3.6,3.1-3.6c1.2,0,1.8,0.6,2.1,1.2h0l0.1-1H462.6z M461.3,145c0-0.2,0-0.4-0.1-0.6c-0.2-0.7-0.8-1.3-1.7-1.3
		c-1.2,0-2,1-2,2.6c0,1.3,0.7,2.4,2,2.4c0.8,0,1.4-0.5,1.7-1.3c0.1-0.2,0.1-0.4,0.1-0.7V145z"/>
	<path class="st1" d="M468.9,140.4c0,0.4-0.3,0.8-0.8,0.8c-0.4,0-0.7-0.3-0.7-0.8c0-0.4,0.3-0.8,0.8-0.8
		C468.6,139.6,468.9,140,468.9,140.4z M467.5,149.1v-6.8h1.2v6.8H467.5z"/>
	<path class="st1" d="M470.6,147.8c0.4,0.2,1,0.5,1.6,0.5c0.9,0,1.3-0.4,1.3-1c0-0.6-0.3-0.9-1.3-1.2c-1.2-0.4-1.8-1.1-1.8-1.9
		c0-1.1,0.9-2,2.3-2c0.7,0,1.3,0.2,1.7,0.4l-0.3,0.9c-0.3-0.2-0.8-0.4-1.4-0.4c-0.7,0-1.1,0.4-1.1,0.9c0,0.6,0.4,0.8,1.3,1.1
		c1.2,0.4,1.8,1,1.8,2c0,1.2-0.9,2-2.5,2c-0.7,0-1.4-0.2-1.9-0.5L470.6,147.8z"/>
	<path class="st1" d="M483.1,149.1l-0.1-0.9h0c-0.4,0.5-1.1,1-2.1,1c-1.4,0-2.1-1-2.1-1.9c0-1.6,1.5-2.5,4.1-2.5v-0.1
		c0-0.6-0.2-1.6-1.5-1.6c-0.6,0-1.3,0.2-1.8,0.5l-0.3-0.8c0.6-0.4,1.4-0.6,2.2-0.6c2.1,0,2.6,1.4,2.6,2.8v2.5c0,0.6,0,1.2,0.1,1.6
		H483.1z M482.9,145.6c-1.3,0-2.9,0.2-2.9,1.5c0,0.8,0.5,1.2,1.2,1.2c0.9,0,1.4-0.6,1.6-1.1c0-0.1,0.1-0.3,0.1-0.4V145.6z"/>
	<path class="st1" d="M489,144.2c0-0.7,0-1.3-0.1-1.8h1.1l0.1,1.1h0c0.3-0.6,1.1-1.3,2.2-1.3c0.9,0,2.4,0.6,2.4,2.9v4h-1.2v-3.9
		c0-1.1-0.4-2-1.6-2c-0.8,0-1.4,0.6-1.7,1.3c-0.1,0.2-0.1,0.4-0.1,0.6v4.1H489V144.2z"/>
	<path class="st1" d="M502.9,145.7c0,2.5-1.7,3.6-3.4,3.6c-1.8,0-3.2-1.3-3.2-3.5c0-2.3,1.5-3.6,3.4-3.6
		C501.6,142.2,502.9,143.6,502.9,145.7z M497.5,145.7c0,1.5,0.9,2.6,2.1,2.6c1.2,0,2.1-1.1,2.1-2.6c0-1.1-0.6-2.6-2-2.6
		S497.5,144.4,497.5,145.7z"/>
	<path class="st1" d="M504.5,144.2c0-0.7,0-1.3-0.1-1.8h1.1l0.1,1.1h0c0.3-0.6,1.1-1.3,2.2-1.3c0.9,0,2.4,0.6,2.4,2.9v4H509v-3.9
		c0-1.1-0.4-2-1.6-2c-0.8,0-1.4,0.6-1.7,1.3c-0.1,0.2-0.1,0.4-0.1,0.6v4.1h-1.2V144.2z"/>
	<path class="st1" d="M515.1,144.9v0.9h-3.5v-0.9H515.1z"/>
	<path class="st1" d="M516.5,149.1c0-0.5,0.1-1.1,0.1-1.8v-8.2h1.2v4.3h0c0.4-0.8,1.2-1.2,2.3-1.2c1.7,0,2.9,1.4,2.9,3.5
		c0,2.4-1.5,3.6-3,3.6c-1,0-1.8-0.4-2.3-1.3h0l-0.1,1.1H516.5z M517.8,146.4c0,0.2,0,0.3,0.1,0.4c0.2,0.9,1,1.4,1.8,1.4
		c1.3,0,2.1-1.1,2.1-2.6c0-1.4-0.7-2.5-2-2.5c-0.8,0-1.6,0.6-1.9,1.5c0,0.1-0.1,0.3-0.1,0.5V146.4z"/>
	<path class="st1" d="M525.9,140.4c0,0.4-0.3,0.8-0.8,0.8c-0.4,0-0.7-0.3-0.7-0.8c0-0.4,0.3-0.8,0.8-0.8
		C525.6,139.6,525.9,140,525.9,140.4z M524.5,149.1v-6.8h1.2v6.8H524.5z"/>
	<path class="st1" d="M527.8,144.2c0-0.7,0-1.3-0.1-1.8h1.1l0.1,1.1h0c0.3-0.6,1.1-1.3,2.2-1.3c0.9,0,2.4,0.6,2.4,2.9v4h-1.2v-3.9
		c0-1.1-0.4-2-1.6-2c-0.8,0-1.4,0.6-1.7,1.3c-0.1,0.2-0.1,0.4-0.1,0.6v4.1h-1.2V144.2z"/>
	<path class="st1" d="M539.3,149.1l-0.1-0.9h0c-0.4,0.5-1.1,1-2.1,1c-1.4,0-2.1-1-2.1-1.9c0-1.6,1.5-2.5,4.1-2.5v-0.1
		c0-0.6-0.2-1.6-1.5-1.6c-0.6,0-1.3,0.2-1.8,0.5l-0.3-0.8c0.6-0.4,1.4-0.6,2.2-0.6c2.1,0,2.6,1.4,2.6,2.8v2.5c0,0.6,0,1.2,0.1,1.6
		H539.3z M539.1,145.6c-1.3,0-2.9,0.2-2.9,1.5c0,0.8,0.5,1.2,1.2,1.2c0.9,0,1.4-0.6,1.6-1.1c0-0.1,0.1-0.3,0.1-0.4V145.6z"/>
	<path class="st1" d="M542.3,144.4c0-0.8,0-1.5-0.1-2.1h1.1l0,1.3h0.1c0.3-0.9,1-1.5,1.9-1.5c0.1,0,0.2,0,0.3,0v1.2
		c-0.1,0-0.3,0-0.4,0c-0.9,0-1.5,0.7-1.7,1.6c0,0.2-0.1,0.4-0.1,0.6v3.6h-1.2V144.4z"/>
	<path class="st1" d="M547.7,142.3l1.5,4c0.2,0.4,0.3,1,0.4,1.4h0c0.1-0.4,0.3-0.9,0.4-1.4l1.3-4h1.3l-1.8,4.8
		c-0.9,2.3-1.5,3.5-2.3,4.2c-0.6,0.5-1.2,0.7-1.5,0.8l-0.3-1c0.3-0.1,0.7-0.3,1.1-0.6c0.3-0.3,0.8-0.7,1-1.4
		c0.1-0.1,0.1-0.2,0.1-0.3c0-0.1,0-0.2-0.1-0.3l-2.5-6.2H547.7z"/>
	<path class="st1" d="M408.1,156v8.2c0,0.6,0,1.3,0.1,1.8H407l-0.1-1.2h0c-0.4,0.8-1.2,1.3-2.3,1.3c-1.6,0-2.9-1.4-2.9-3.4
		c0-2.3,1.4-3.6,3-3.6c1,0,1.7,0.5,2,1h0v-4H408.1z M406.8,161.9c0-0.2,0-0.4-0.1-0.5c-0.2-0.8-0.9-1.4-1.8-1.4c-1.3,0-2,1.1-2,2.6
		c0,1.4,0.7,2.5,2,2.5c0.8,0,1.6-0.5,1.8-1.5c0-0.2,0.1-0.3,0.1-0.5V161.9z"/>
	<path class="st1" d="M410.1,161.2c0-0.8,0-1.5-0.1-2.1h1.1l0,1.3h0.1c0.3-0.9,1-1.5,1.9-1.5c0.1,0,0.2,0,0.3,0v1.2
		c-0.1,0-0.3,0-0.4,0c-0.9,0-1.5,0.7-1.7,1.6c0,0.2-0.1,0.4-0.1,0.6v3.6h-1.2V161.2z"/>
	<path class="st1" d="M418.4,165.9l-0.1-0.9h0c-0.4,0.5-1.1,1-2.1,1c-1.4,0-2.1-1-2.1-1.9c0-1.6,1.5-2.5,4.1-2.5v-0.1
		c0-0.6-0.2-1.6-1.5-1.6c-0.6,0-1.3,0.2-1.8,0.5l-0.3-0.8c0.6-0.4,1.4-0.6,2.2-0.6c2.1,0,2.6,1.4,2.6,2.8v2.5c0,0.6,0,1.2,0.1,1.6
		H418.4z M418.2,162.4c-1.3,0-2.9,0.2-2.9,1.5c0,0.8,0.5,1.2,1.2,1.2c0.9,0,1.4-0.6,1.6-1.1c0-0.1,0.1-0.3,0.1-0.4V162.4z"/>
	<path class="st1" d="M427.2,159.1c0,0.5-0.1,1-0.1,1.9v3.9c0,1.6-0.3,2.5-1,3.1c-0.7,0.6-1.6,0.8-2.5,0.8c-0.8,0-1.7-0.2-2.3-0.6
		l0.3-0.9c0.4,0.3,1.1,0.5,2,0.5c1.3,0,2.2-0.7,2.2-2.4v-0.8h0c-0.4,0.6-1.1,1.1-2.2,1.1c-1.7,0-2.9-1.4-2.9-3.3
		c0-2.3,1.5-3.6,3.1-3.6c1.2,0,1.8,0.6,2.1,1.2h0l0.1-1H427.2z M425.9,161.8c0-0.2,0-0.4-0.1-0.6c-0.2-0.7-0.8-1.3-1.7-1.3
		c-1.2,0-2,1-2,2.6c0,1.3,0.7,2.4,2,2.4c0.8,0,1.4-0.5,1.7-1.3c0.1-0.2,0.1-0.4,0.1-0.7V161.8z"/>
	<path class="st1" d="M432.2,161.3c0-0.9,0-1.6-0.1-2.2h1.1l0.1,1.2h0c0.5-0.8,1.3-1.3,2.4-1.3c1.6,0,2.9,1.4,2.9,3.4
		c0,2.4-1.5,3.6-3.1,3.6c-0.9,0-1.7-0.4-2.1-1.1h0v3.7h-1.2V161.3z M433.4,163.1c0,0.2,0,0.4,0.1,0.5c0.2,0.9,1,1.4,1.8,1.4
		c1.3,0,2.1-1.1,2.1-2.6c0-1.4-0.7-2.5-2-2.5c-0.8,0-1.6,0.6-1.9,1.5c0,0.2-0.1,0.3-0.1,0.5V163.1z"/>
	<path class="st1" d="M440.8,162.7c0,1.7,1.1,2.4,2.3,2.4c0.9,0,1.4-0.2,1.9-0.4l0.2,0.9c-0.4,0.2-1.2,0.4-2.3,0.4
		c-2.1,0-3.3-1.4-3.3-3.4s1.2-3.7,3.2-3.7c2.2,0,2.8,1.9,2.8,3.2c0,0.3,0,0.4,0,0.6H440.8z M444.4,161.8c0-0.8-0.3-2-1.7-2
		c-1.2,0-1.8,1.1-1.9,2H444.4z"/>
	<path class="st1" d="M447.1,161.2c0-0.8,0-1.5-0.1-2.1h1.1l0,1.3h0.1c0.3-0.9,1-1.5,1.9-1.5c0.1,0,0.2,0,0.3,0v1.2
		c-0.1,0-0.3,0-0.4,0c-0.9,0-1.5,0.7-1.7,1.6c0,0.2-0.1,0.4-0.1,0.6v3.6h-1.2V161.2z"/>
	<path class="st1" d="M452.3,165.9v-5.8h-1v-0.9h1v-0.3c0-1,0.2-1.8,0.8-2.4c0.5-0.4,1.1-0.6,1.7-0.6c0.4,0,0.8,0.1,1.1,0.2l-0.2,1
		c-0.2-0.1-0.4-0.2-0.8-0.2c-1,0-1.3,0.9-1.3,2v0.4h1.6v0.9h-1.6v5.8H452.3z"/>
	<path class="st1" d="M462.2,162.5c0,2.5-1.7,3.6-3.4,3.6c-1.8,0-3.2-1.3-3.2-3.5c0-2.3,1.5-3.6,3.4-3.6
		C460.9,159,462.2,160.4,462.2,162.5z M456.8,162.5c0,1.5,0.9,2.6,2.1,2.6c1.2,0,2.1-1.1,2.1-2.6c0-1.1-0.6-2.6-2-2.6
		S456.8,161.2,456.8,162.5z"/>
	<path class="st1" d="M463.7,161.2c0-0.8,0-1.5-0.1-2.1h1.1l0,1.3h0.1c0.3-0.9,1-1.5,1.9-1.5c0.1,0,0.2,0,0.3,0v1.2
		c-0.1,0-0.3,0-0.4,0c-0.9,0-1.5,0.7-1.7,1.6c0,0.2-0.1,0.4-0.1,0.6v3.6h-1.2V161.2z"/>
	<path class="st1" d="M468.4,161c0-0.7,0-1.3-0.1-1.8h1.1l0.1,1.1h0c0.4-0.6,1-1.2,2.1-1.2c0.9,0,1.6,0.6,1.9,1.4h0
		c0.2-0.4,0.5-0.7,0.8-0.9c0.4-0.3,0.9-0.5,1.5-0.5c0.9,0,2.2,0.6,2.2,2.9v4h-1.2v-3.8c0-1.3-0.5-2.1-1.5-2.1
		c-0.7,0-1.2,0.5-1.5,1.1c-0.1,0.2-0.1,0.4-0.1,0.6v4.2h-1.2v-4.1c0-1.1-0.5-1.9-1.4-1.9c-0.8,0-1.3,0.6-1.5,1.2
		c-0.1,0.2-0.1,0.4-0.1,0.6v4.1h-1.2V161z"/>
	<path class="st1" d="M480.7,162.7c0,1.7,1.1,2.4,2.3,2.4c0.9,0,1.4-0.2,1.9-0.4l0.2,0.9c-0.4,0.2-1.2,0.4-2.3,0.4
		c-2.1,0-3.3-1.4-3.3-3.4s1.2-3.7,3.2-3.7c2.2,0,2.8,1.9,2.8,3.2c0,0.3,0,0.4,0,0.6H480.7z M484.3,161.8c0-0.8-0.3-2-1.7-2
		c-1.2,0-1.8,1.1-1.9,2H484.3z"/>
	<path class="st1" d="M487,161.2c0-0.8,0-1.5-0.1-2.1h1.1l0,1.3h0.1c0.3-0.9,1-1.5,1.9-1.5c0.1,0,0.2,0,0.3,0v1.2
		c-0.1,0-0.3,0-0.4,0c-0.9,0-1.5,0.7-1.7,1.6c0,0.2-0.1,0.4-0.1,0.6v3.6H487V161.2z"/>
	<path class="st1" d="M490.1,167.6c0.3-0.8,0.7-2.3,0.8-3.3l1.4-0.1c-0.3,1.2-0.9,2.7-1.3,3.4L490.1,167.6z"/>
	<path class="st1" d="M496.7,161.3c0-0.9,0-1.6-0.1-2.2h1.1l0.1,1.2h0c0.5-0.8,1.3-1.3,2.4-1.3c1.6,0,2.9,1.4,2.9,3.4
		c0,2.4-1.5,3.6-3.1,3.6c-0.9,0-1.7-0.4-2.1-1.1h0v3.7h-1.2V161.3z M498,163.1c0,0.2,0,0.4,0.1,0.5c0.2,0.9,1,1.4,1.8,1.4
		c1.3,0,2.1-1.1,2.1-2.6c0-1.4-0.7-2.5-2-2.5c-0.8,0-1.6,0.6-1.9,1.5c0,0.2-0.1,0.3-0.1,0.5V163.1z"/>
	<path class="st1" d="M504.7,161.2c0-0.8,0-1.5-0.1-2.1h1.1l0,1.3h0.1c0.3-0.9,1-1.5,1.9-1.5c0.1,0,0.2,0,0.3,0v1.2
		c-0.1,0-0.3,0-0.4,0c-0.9,0-1.5,0.7-1.7,1.6c0,0.2-0.1,0.4-0.1,0.6v3.6h-1.2V161.2z"/>
	<path class="st1" d="M515.3,162.5c0,2.5-1.7,3.6-3.4,3.6c-1.8,0-3.2-1.3-3.2-3.5c0-2.3,1.5-3.6,3.4-3.6
		C514,159,515.3,160.4,515.3,162.5z M509.9,162.5c0,1.5,0.9,2.6,2.1,2.6c1.2,0,2.1-1.1,2.1-2.6c0-1.1-0.6-2.6-2-2.6
		C510.5,159.9,509.9,161.2,509.9,162.5z"/>
	<path class="st1" d="M522.5,164c0,0.7,0,1.3,0.1,1.8h-1.1l-0.1-1.1h0c-0.3,0.5-1,1.3-2.2,1.3c-1.1,0-2.3-0.6-2.3-3v-4h1.2v3.8
		c0,1.3,0.4,2.2,1.5,2.2c0.8,0,1.4-0.6,1.6-1.1c0.1-0.2,0.1-0.4,0.1-0.6v-4.2h1.2V164z"/>
	<path class="st1" d="M530.4,156v8.2c0,0.6,0,1.3,0.1,1.8h-1.1l-0.1-1.2h0c-0.4,0.8-1.2,1.3-2.3,1.3c-1.6,0-2.9-1.4-2.9-3.4
		c0-2.3,1.4-3.6,3-3.6c1,0,1.7,0.5,2,1h0v-4H530.4z M529.2,161.9c0-0.2,0-0.4-0.1-0.5c-0.2-0.8-0.9-1.4-1.8-1.4c-1.3,0-2,1.1-2,2.6
		c0,1.4,0.7,2.5,2,2.5c0.8,0,1.6-0.5,1.8-1.5c0-0.2,0.1-0.3,0.1-0.5V161.9z"/>
	<path class="st1" d="M535.5,165.9v-5.8h-1v-0.9h1v-0.3c0-1,0.2-1.8,0.8-2.4c0.5-0.4,1.1-0.6,1.7-0.6c0.4,0,0.8,0.1,1.1,0.2l-0.2,1
		c-0.2-0.1-0.4-0.2-0.8-0.2c-1,0-1.3,0.9-1.3,2v0.4h1.6v0.9h-1.6v5.8H535.5z"/>
	<path class="st1" d="M545.2,164c0,0.7,0,1.3,0.1,1.8h-1.1l-0.1-1.1h0c-0.3,0.5-1,1.3-2.2,1.3c-1.1,0-2.3-0.6-2.3-3v-4h1.2v3.8
		c0,1.3,0.4,2.2,1.5,2.2c0.8,0,1.4-0.6,1.6-1.1c0.1-0.2,0.1-0.4,0.1-0.6v-4.2h1.2V164z"/>
	<path class="st1" d="M547.2,156h1.2v9.9h-1.2V156z"/>
	<path class="st1" d="M550.5,156h1.2v9.9h-1.2V156z"/>
	<path class="st1" d="M409.9,182.7c0-0.5,0.1-1.1,0.1-1.8v-8.2h1.2v4.3h0c0.4-0.8,1.2-1.2,2.3-1.2c1.7,0,2.9,1.4,2.9,3.5
		c0,2.4-1.5,3.6-3,3.6c-1,0-1.8-0.4-2.3-1.3h0l-0.1,1.1H409.9z M411.2,180c0,0.2,0,0.3,0.1,0.4c0.2,0.9,1,1.4,1.8,1.4
		c1.3,0,2.1-1.1,2.1-2.6c0-1.4-0.7-2.5-2-2.5c-0.8,0-1.6,0.6-1.9,1.5c0,0.1-0.1,0.3-0.1,0.5V180z"/>
	<path class="st1" d="M417.9,172.8h1.2v9.9h-1.2V172.8z"/>
	<path class="st1" d="M427.4,179.3c0,2.5-1.7,3.6-3.4,3.6c-1.8,0-3.2-1.3-3.2-3.5c0-2.3,1.5-3.6,3.4-3.6
		C426,175.8,427.4,177.2,427.4,179.3z M422,179.3c0,1.5,0.9,2.6,2.1,2.6c1.2,0,2.1-1.1,2.1-2.6c0-1.1-0.6-2.6-2-2.6
		S422,178,422,179.3z"/>
	<path class="st1" d="M435,179.3c0,2.5-1.7,3.6-3.4,3.6c-1.8,0-3.2-1.3-3.2-3.5c0-2.3,1.5-3.6,3.4-3.6
		C433.7,175.8,435,177.2,435,179.3z M429.7,179.3c0,1.5,0.9,2.6,2.1,2.6c1.2,0,2.1-1.1,2.1-2.6c0-1.1-0.6-2.6-2-2.6
		S429.7,178,429.7,179.3z"/>
	<path class="st1" d="M442.4,172.8v8.2c0,0.6,0,1.3,0.1,1.8h-1.1l-0.1-1.2h0c-0.4,0.8-1.2,1.3-2.3,1.3c-1.6,0-2.9-1.4-2.9-3.4
		c0-2.3,1.4-3.6,3-3.6c1,0,1.7,0.5,2,1h0v-4H442.4z M441.2,178.7c0-0.2,0-0.4-0.1-0.5c-0.2-0.8-0.9-1.4-1.8-1.4c-1.3,0-2,1.1-2,2.6
		c0,1.4,0.7,2.5,2,2.5c0.8,0,1.6-0.5,1.8-1.5c0-0.2,0.1-0.3,0.1-0.5V178.7z"/>
	<path class="st1" d="M448.7,173.3v9.4h-1.2v-9.4H448.7z"/>
	<path class="st1" d="M450.9,177.8c0-0.7,0-1.3-0.1-1.8h1.1l0.1,1.1h0c0.3-0.6,1.1-1.3,2.2-1.3c0.9,0,2.4,0.6,2.4,2.9v4h-1.2v-3.9
		c0-1.1-0.4-2-1.6-2c-0.8,0-1.4,0.6-1.7,1.3c-0.1,0.2-0.1,0.4-0.1,0.6v4.1h-1.2V177.8z"/>
	<path class="st1" d="M464.6,172.8v8.2c0,0.6,0,1.3,0.1,1.8h-1.1l-0.1-1.2h0c-0.4,0.8-1.2,1.3-2.3,1.3c-1.6,0-2.9-1.4-2.9-3.4
		c0-2.3,1.4-3.6,3-3.6c1,0,1.7,0.5,2,1h0v-4H464.6z M463.3,178.7c0-0.2,0-0.4-0.1-0.5c-0.2-0.8-0.9-1.4-1.8-1.4c-1.3,0-2,1.1-2,2.6
		c0,1.4,0.7,2.5,2,2.5c0.8,0,1.6-0.5,1.8-1.5c0-0.2,0.1-0.3,0.1-0.5V178.7z"/>
	<path class="st1" d="M468,174c0,0.4-0.3,0.8-0.8,0.8c-0.4,0-0.7-0.3-0.7-0.8c0-0.4,0.3-0.8,0.8-0.8C467.7,173.2,468,173.6,468,174z
		 M466.6,182.7v-6.8h1.2v6.8H466.6z"/>
	<path class="st1" d="M475.7,175.9c0,0.5-0.1,1-0.1,1.9v3.9c0,1.6-0.3,2.5-1,3.1c-0.7,0.6-1.6,0.8-2.5,0.8c-0.8,0-1.7-0.2-2.3-0.6
		l0.3-0.9c0.4,0.3,1.1,0.5,2,0.5c1.3,0,2.2-0.7,2.2-2.4v-0.8h0c-0.4,0.6-1.1,1.1-2.2,1.1c-1.7,0-2.9-1.4-2.9-3.3
		c0-2.3,1.5-3.6,3.1-3.6c1.2,0,1.8,0.6,2.1,1.2h0l0.1-1H475.7z M474.4,178.6c0-0.2,0-0.4-0.1-0.6c-0.2-0.7-0.8-1.3-1.7-1.3
		c-1.2,0-2,1-2,2.6c0,1.3,0.7,2.4,2,2.4c0.8,0,1.4-0.5,1.7-1.3c0.1-0.2,0.1-0.4,0.1-0.7V178.6z"/>
	<path class="st1" d="M478.4,179.5c0,1.7,1.1,2.4,2.3,2.4c0.9,0,1.4-0.2,1.9-0.4l0.2,0.9c-0.4,0.2-1.2,0.4-2.3,0.4
		c-2.1,0-3.3-1.4-3.3-3.4c0-2,1.2-3.7,3.2-3.7c2.2,0,2.8,1.9,2.8,3.2c0,0.3,0,0.4,0,0.6H478.4z M482,178.6c0-0.8-0.3-2-1.7-2
		c-1.2,0-1.8,1.1-1.9,2H482z"/>
	<path class="st1" d="M484.7,177.8c0-0.7,0-1.3-0.1-1.8h1.1l0.1,1.1h0c0.3-0.6,1.1-1.3,2.2-1.3c0.9,0,2.4,0.6,2.4,2.9v4h-1.2v-3.9
		c0-1.1-0.4-2-1.6-2c-0.8,0-1.4,0.6-1.7,1.3c-0.1,0.2-0.1,0.4-0.1,0.6v4.1h-1.2V177.8z"/>
	<path class="st1" d="M498.6,179.3c0,2.5-1.7,3.6-3.4,3.6c-1.8,0-3.2-1.3-3.2-3.5c0-2.3,1.5-3.6,3.4-3.6
		C497.3,175.8,498.6,177.2,498.6,179.3z M493.2,179.3c0,1.5,0.9,2.6,2.1,2.6c1.2,0,2.1-1.1,2.1-2.6c0-1.1-0.6-2.6-2-2.6
		S493.2,178,493.2,179.3z"/>
	<path class="st1" d="M505.8,180.8c0,0.7,0,1.3,0.1,1.8h-1.1l-0.1-1.1h0c-0.3,0.5-1,1.3-2.2,1.3c-1.1,0-2.3-0.6-2.3-3v-4h1.2v3.8
		c0,1.3,0.4,2.2,1.5,2.2c0.8,0,1.4-0.6,1.6-1.1c0.1-0.2,0.1-0.4,0.1-0.6v-4.2h1.2V180.8z"/>
	<path class="st1" d="M507.7,181.4c0.4,0.2,1,0.5,1.6,0.5c0.9,0,1.3-0.4,1.3-1c0-0.6-0.3-0.9-1.3-1.2c-1.2-0.4-1.8-1.1-1.8-1.9
		c0-1.1,0.9-2,2.3-2c0.7,0,1.3,0.2,1.7,0.4l-0.3,0.9c-0.3-0.2-0.8-0.4-1.4-0.4c-0.7,0-1.1,0.4-1.1,0.9c0,0.6,0.4,0.8,1.3,1.1
		c1.2,0.4,1.8,1,1.8,2c0,1.2-0.9,2-2.5,2c-0.7,0-1.4-0.2-1.9-0.5L507.7,181.4z"/>
	<path class="st1" d="M516.4,182.7v-9.4h1.3l3,4.8c0.7,1.1,1.2,2.1,1.7,3.1l0,0c-0.1-1.3-0.1-2.4-0.1-3.9v-3.9h1.1v9.4h-1.2l-3-4.8
		c-0.7-1.1-1.3-2.1-1.8-3.2l0,0c0.1,1.2,0.1,2.3,0.1,3.9v4H516.4z"/>
	<path class="st1" d="M529.4,182.7l-0.1-0.9h0c-0.4,0.5-1.1,1-2.1,1c-1.4,0-2.1-1-2.1-1.9c0-1.6,1.5-2.5,4.1-2.5v-0.1
		c0-0.6-0.2-1.6-1.5-1.6c-0.6,0-1.3,0.2-1.8,0.5l-0.3-0.8c0.6-0.4,1.4-0.6,2.2-0.6c2.1,0,2.6,1.4,2.6,2.8v2.5c0,0.6,0,1.2,0.1,1.6
		H529.4z M529.2,179.2c-1.3,0-2.9,0.2-2.9,1.5c0,0.8,0.5,1.2,1.2,1.2c0.9,0,1.4-0.6,1.6-1.1c0-0.1,0.1-0.3,0.1-0.4V179.2z"/>
	<path class="st1" d="M533.8,174v1.9h1.8v0.9h-1.8v3.7c0,0.8,0.2,1.3,0.9,1.3c0.3,0,0.6,0,0.7-0.1l0.1,0.9c-0.2,0.1-0.6,0.2-1.1,0.2
		c-0.6,0-1-0.2-1.3-0.5c-0.4-0.4-0.5-1-0.5-1.8v-3.7h-1.1v-0.9h1.1v-1.6L533.8,174z"/>
	<path class="st1" d="M538.3,174c0,0.4-0.3,0.8-0.8,0.8c-0.4,0-0.7-0.3-0.7-0.8c0-0.4,0.3-0.8,0.8-0.8
		C538,173.2,538.3,173.6,538.3,174z M536.9,182.7v-6.8h1.2v6.8H536.9z"/>
	<path class="st1" d="M540.7,175.9l1.3,3.8c0.2,0.6,0.4,1.2,0.5,1.7h0c0.2-0.6,0.3-1.1,0.6-1.7l1.3-3.8h1.3l-2.7,6.8H542l-2.6-6.8
		H540.7z"/>
	<path class="st1" d="M547.5,179.5c0,1.7,1.1,2.4,2.3,2.4c0.9,0,1.4-0.2,1.9-0.4l0.2,0.9c-0.4,0.2-1.2,0.4-2.3,0.4
		c-2.1,0-3.3-1.4-3.3-3.4c0-2,1.2-3.7,3.2-3.7c2.2,0,2.8,1.9,2.8,3.2c0,0.3,0,0.4,0,0.6H547.5z M551.1,178.6c0-0.8-0.3-2-1.7-2
		c-1.2,0-1.8,1.1-1.9,2H551.1z"/>
	<path class="st1" d="M398.1,196.5l-1,3h-1.3l3.2-9.4h1.5l3.2,9.4h-1.3l-1-3H398.1z M401.2,195.6l-0.9-2.7c-0.2-0.6-0.4-1.2-0.5-1.7
		h0c-0.1,0.6-0.3,1.1-0.5,1.7l-0.9,2.7H401.2z"/>
	<path class="st1" d="M405,194.6c0-0.7,0-1.3-0.1-1.8h1.1l0.1,1.1h0c0.4-0.6,1-1.2,2.1-1.2c0.9,0,1.6,0.6,1.9,1.4h0
		c0.2-0.4,0.5-0.7,0.8-0.9c0.4-0.3,0.9-0.5,1.5-0.5c0.9,0,2.2,0.6,2.2,2.9v4h-1.2v-3.8c0-1.3-0.5-2.1-1.5-2.1
		c-0.7,0-1.2,0.5-1.5,1.1c-0.1,0.2-0.1,0.4-0.1,0.6v4.2h-1.2v-4.1c0-1.1-0.5-1.9-1.4-1.9c-0.8,0-1.3,0.6-1.5,1.2
		c-0.1,0.2-0.1,0.4-0.1,0.6v4.1H405V194.6z"/>
	<path class="st1" d="M417.4,196.3c0,1.7,1.1,2.4,2.3,2.4c0.9,0,1.4-0.2,1.9-0.4l0.2,0.9c-0.4,0.2-1.2,0.4-2.3,0.4
		c-2.1,0-3.3-1.4-3.3-3.4c0-2,1.2-3.7,3.2-3.7c2.2,0,2.8,1.9,2.8,3.2c0,0.3,0,0.4,0,0.6H417.4z M421,195.4c0-0.8-0.3-2-1.7-2
		c-1.2,0-1.8,1.1-1.9,2H421z"/>
	<path class="st1" d="M423.7,194.8c0-0.8,0-1.5-0.1-2.1h1.1l0,1.3h0.1c0.3-0.9,1-1.5,1.9-1.5c0.1,0,0.2,0,0.3,0v1.2
		c-0.1,0-0.3,0-0.4,0c-0.9,0-1.5,0.7-1.7,1.6c0,0.2-0.1,0.4-0.1,0.6v3.6h-1.2V194.8z"/>
	<path class="st1" d="M429.7,190.8c0,0.4-0.3,0.8-0.8,0.8c-0.4,0-0.7-0.3-0.7-0.8c0-0.4,0.3-0.8,0.8-0.8
		C429.4,190,429.7,190.4,429.7,190.8z M428.4,199.5v-6.8h1.2v6.8H428.4z"/>
	<path class="st1" d="M436.5,199.2c-0.3,0.2-1,0.4-1.9,0.4c-2,0-3.4-1.4-3.4-3.5c0-2.1,1.4-3.6,3.6-3.6c0.7,0,1.4,0.2,1.7,0.4
		l-0.3,1c-0.3-0.2-0.8-0.3-1.4-0.3c-1.6,0-2.4,1.1-2.4,2.6c0,1.6,1,2.5,2.4,2.5c0.7,0,1.2-0.2,1.5-0.3L436.5,199.2z"/>
	<path class="st1" d="M441.7,199.5l-0.1-0.9h0c-0.4,0.5-1.1,1-2.1,1c-1.4,0-2.1-1-2.1-1.9c0-1.6,1.5-2.5,4.1-2.5V195
		c0-0.6-0.2-1.6-1.5-1.6c-0.6,0-1.3,0.2-1.8,0.5l-0.3-0.8c0.6-0.4,1.4-0.6,2.2-0.6c2.1,0,2.6,1.4,2.6,2.8v2.5c0,0.6,0,1.2,0.1,1.6
		H441.7z M441.5,196c-1.3,0-2.9,0.2-2.9,1.5c0,0.8,0.5,1.2,1.2,1.2c0.9,0,1.4-0.6,1.6-1.1c0-0.1,0.1-0.3,0.1-0.4V196z"/>
	<path class="st1" d="M444.7,194.6c0-0.7,0-1.3-0.1-1.8h1.1l0.1,1.1h0c0.3-0.6,1.1-1.3,2.2-1.3c0.9,0,2.4,0.6,2.4,2.9v4h-1.2v-3.9
		c0-1.1-0.4-2-1.6-2c-0.8,0-1.4,0.6-1.7,1.3c-0.1,0.2-0.1,0.4-0.1,0.6v4.1h-1.2V194.6z"/>
	<path class="st1" d="M451.6,201.2c0.3-0.8,0.7-2.3,0.8-3.3l1.4-0.1c-0.3,1.2-0.9,2.7-1.3,3.4L451.6,201.2z"/>
	<path class="st1" d="M458.2,199.5c0-0.5,0.1-1.1,0.1-1.8v-8.2h1.2v4.3h0c0.4-0.8,1.2-1.2,2.3-1.2c1.7,0,2.9,1.4,2.9,3.5
		c0,2.4-1.5,3.6-3,3.6c-1,0-1.8-0.4-2.3-1.3h0l-0.1,1.1H458.2z M459.5,196.8c0,0.2,0,0.3,0.1,0.4c0.2,0.9,1,1.4,1.8,1.4
		c1.3,0,2.1-1.1,2.1-2.6c0-1.4-0.7-2.5-2-2.5c-0.8,0-1.6,0.6-1.9,1.5c0,0.1-0.1,0.3-0.1,0.5V196.8z"/>
	<path class="st1" d="M472.4,196.1c0,2.5-1.7,3.6-3.4,3.6c-1.8,0-3.2-1.3-3.2-3.5c0-2.3,1.5-3.6,3.4-3.6
		C471.1,192.6,472.4,194,472.4,196.1z M467,196.1c0,1.5,0.9,2.6,2.1,2.6c1.2,0,2.1-1.1,2.1-2.6c0-1.1-0.6-2.6-2-2.6
		S467,194.8,467,196.1z"/>
	<path class="st1" d="M473.9,194.8c0-0.8,0-1.5-0.1-2.1h1.1l0,1.3h0.1c0.3-0.9,1-1.5,1.9-1.5c0.1,0,0.2,0,0.3,0v1.2
		c-0.1,0-0.3,0-0.4,0c-0.9,0-1.5,0.7-1.7,1.6c0,0.2-0.1,0.4-0.1,0.6v3.6h-1.2V194.8z"/>
	<path class="st1" d="M478.6,194.6c0-0.7,0-1.3-0.1-1.8h1.1l0.1,1.1h0c0.3-0.6,1.1-1.3,2.2-1.3c0.9,0,2.4,0.6,2.4,2.9v4h-1.2v-3.9
		c0-1.1-0.4-2-1.6-2c-0.8,0-1.4,0.6-1.7,1.3c-0.1,0.2-0.1,0.4-0.1,0.6v4.1h-1.2V194.6z"/>
	<path class="st1" d="M495.4,196.1c0,2.5-1.7,3.6-3.4,3.6c-1.8,0-3.2-1.3-3.2-3.5c0-2.3,1.5-3.6,3.4-3.6
		C494.1,192.6,495.4,194,495.4,196.1z M490.1,196.1c0,1.5,0.9,2.6,2.1,2.6c1.2,0,2.1-1.1,2.1-2.6c0-1.1-0.6-2.6-2-2.6
		S490.1,194.8,490.1,196.1z"/>
	<path class="st1" d="M497.1,199.5v-5.8h-1v-0.9h1v-0.3c0-1,0.2-1.8,0.8-2.4c0.5-0.4,1.1-0.6,1.7-0.6c0.4,0,0.8,0.1,1.1,0.2l-0.2,1
		c-0.2-0.1-0.4-0.2-0.8-0.2c-1,0-1.3,0.9-1.3,2v0.4h1.6v0.9h-1.6v5.8H497.1z"/>
	<path class="st1" d="M505.5,190.8v1.9h1.8v0.9h-1.8v3.7c0,0.8,0.2,1.3,0.9,1.3c0.3,0,0.6,0,0.7-0.1l0.1,0.9
		c-0.2,0.1-0.6,0.2-1.1,0.2c-0.6,0-1-0.2-1.3-0.5c-0.4-0.4-0.5-1-0.5-1.8v-3.7h-1.1v-0.9h1.1v-1.6L505.5,190.8z"/>
	<path class="st1" d="M508.7,189.6h1.2v4.2h0c0.2-0.4,0.5-0.7,0.9-0.9c0.4-0.2,0.8-0.4,1.3-0.4c0.9,0,2.4,0.6,2.4,2.9v4h-1.2v-3.9
		c0-1.1-0.4-2-1.6-2c-0.8,0-1.4,0.6-1.7,1.2c-0.1,0.2-0.1,0.4-0.1,0.6v4.1h-1.2V189.6z"/>
	<path class="st1" d="M517.1,196.3c0,1.7,1.1,2.4,2.3,2.4c0.9,0,1.4-0.2,1.9-0.4l0.2,0.9c-0.4,0.2-1.2,0.4-2.3,0.4
		c-2.1,0-3.3-1.4-3.3-3.4c0-2,1.2-3.7,3.2-3.7c2.2,0,2.8,1.9,2.8,3.2c0,0.3,0,0.4,0,0.6H517.1z M520.8,195.4c0-0.8-0.3-2-1.7-2
		c-1.2,0-1.8,1.1-1.9,2H520.8z"/>
	<path class="st1" d="M526.5,190.2c0.7-0.1,1.6-0.2,2.6-0.2c1.8,0,3,0.4,3.8,1.2c0.8,0.8,1.3,1.9,1.3,3.4c0,1.5-0.5,2.8-1.4,3.7
		c-0.9,0.9-2.3,1.4-4.2,1.4c-0.9,0-1.6,0-2.2-0.1V190.2z M527.7,198.5c0.3,0.1,0.8,0.1,1.2,0.1c2.6,0,4-1.5,4-4
		c0-2.2-1.2-3.6-3.8-3.6c-0.6,0-1.1,0.1-1.4,0.1V198.5z"/>
	<path class="st1" d="M537.1,190.8c0,0.4-0.3,0.8-0.8,0.8c-0.4,0-0.7-0.3-0.7-0.8c0-0.4,0.3-0.8,0.8-0.8
		C536.8,190,537.1,190.4,537.1,190.8z M535.8,199.5v-6.8h1.2v6.8H535.8z"/>
	<path class="st1" d="M539,194.6c0-0.7,0-1.3-0.1-1.8h1.1l0.1,1.1h0c0.3-0.6,1.1-1.3,2.2-1.3c0.9,0,2.4,0.6,2.4,2.9v4h-1.2v-3.9
		c0-1.1-0.4-2-1.6-2c-0.8,0-1.4,0.6-1.7,1.3c-0.1,0.2-0.1,0.4-0.1,0.6v4.1H539V194.6z"/>
	<path class="st1" d="M547.5,196.3c0,1.7,1.1,2.4,2.3,2.4c0.9,0,1.4-0.2,1.9-0.4l0.2,0.9c-0.4,0.2-1.2,0.4-2.3,0.4
		c-2.1,0-3.3-1.4-3.3-3.4c0-2,1.2-3.7,3.2-3.7c2.2,0,2.8,1.9,2.8,3.2c0,0.3,0,0.4,0,0.6H547.5z M551.1,195.4c0-0.8-0.3-2-1.7-2
		c-1.2,0-1.8,1.1-1.9,2H551.1z M551.4,189.8l-1.7,2h-0.9l1.2-2H551.4z"/>
	<path class="st1" d="M395.5,206.6c-1,1.4-1.8,3.2-1.8,5.7c0,2.5,0.8,4.3,1.8,5.7h-1c-0.9-1.2-1.8-3-1.8-5.7c0-2.8,1-4.6,1.8-5.7
		H395.5z"/>
	<path class="st1" d="M396.8,216.3v-9.4h1.3l3,4.8c0.7,1.1,1.2,2.1,1.7,3.1l0,0c-0.1-1.3-0.1-2.4-0.1-3.9v-3.9h1.1v9.4h-1.2l-3-4.8
		c-0.7-1.1-1.3-2.1-1.8-3.2l0,0c0.1,1.2,0.1,2.3,0.1,3.9v4H396.8z"/>
	<path class="st1" d="M409.8,216.3l-0.1-0.9h0c-0.4,0.5-1.1,1-2.1,1c-1.4,0-2.1-1-2.1-1.9c0-1.6,1.5-2.5,4.1-2.5v-0.1
		c0-0.6-0.2-1.6-1.5-1.6c-0.6,0-1.3,0.2-1.8,0.5L406,210c0.6-0.4,1.4-0.6,2.2-0.6c2.1,0,2.6,1.4,2.6,2.8v2.5c0,0.6,0,1.2,0.1,1.6
		H409.8z M409.6,212.8c-1.3,0-2.9,0.2-2.9,1.5c0,0.8,0.5,1.2,1.2,1.2c0.9,0,1.4-0.6,1.6-1.1c0-0.1,0.1-0.3,0.1-0.4V212.8z"/>
	<path class="st1" d="M413.1,209.5l1.3,3.8c0.2,0.6,0.4,1.2,0.5,1.7h0c0.2-0.6,0.3-1.1,0.6-1.7l1.3-3.8h1.3l-2.7,6.8h-1.2l-2.6-6.8
		H413.1z"/>
	<path class="st1" d="M423.1,216.3l-0.1-0.9h0c-0.4,0.5-1.1,1-2.1,1c-1.4,0-2.1-1-2.1-1.9c0-1.6,1.5-2.5,4.1-2.5v-0.1
		c0-0.6-0.2-1.6-1.5-1.6c-0.6,0-1.3,0.2-1.8,0.5l-0.3-0.8c0.6-0.4,1.4-0.6,2.2-0.6c2.1,0,2.6,1.4,2.6,2.8v2.5c0,0.6,0,1.2,0.1,1.6
		H423.1z M422.9,212.8c-1.3,0-2.9,0.2-2.9,1.5c0,0.8,0.5,1.2,1.2,1.2c0.9,0,1.4-0.6,1.6-1.1c0-0.1,0.1-0.3,0.1-0.4V212.8z"/>
	<path class="st1" d="M424.4,218.3c0.6,0,1-0.2,1.3-0.5c0.3-0.4,0.5-0.9,0.5-2.5v-5.7h1.2v6.1c0,1.3-0.2,2.2-0.8,2.8
		c-0.5,0.5-1.4,0.8-2.1,0.8L424.4,218.3z M427.6,207.6c0,0.4-0.3,0.8-0.8,0.8c-0.5,0-0.8-0.4-0.8-0.8c0-0.4,0.3-0.8,0.8-0.8
		C427.3,206.8,427.6,207.2,427.6,207.6z"/>
	<path class="st1" d="M435.6,212.9c0,2.5-1.7,3.6-3.4,3.6c-1.8,0-3.2-1.3-3.2-3.5c0-2.3,1.5-3.6,3.4-3.6
		C434.3,209.4,435.6,210.8,435.6,212.9z M430.2,212.9c0,1.5,0.9,2.6,2.1,2.6c1.2,0,2.1-1.1,2.1-2.6c0-1.1-0.6-2.6-2-2.6
		S430.2,211.6,430.2,212.9z"/>
	<path class="st1" d="M436.4,218c1-1.4,1.8-3.2,1.8-5.7c0-2.5-0.8-4.3-1.8-5.7h1c0.9,1.1,1.8,2.9,1.8,5.7c0,2.7-0.9,4.5-1.8,5.7
		H436.4z"/>
	<path class="st1" d="M441.1,216.3v-9.4h1.3l3,4.8c0.7,1.1,1.2,2.1,1.7,3.1l0,0c-0.1-1.3-0.1-2.4-0.1-3.9v-3.9h1.1v9.4H447l-3-4.8
		c-0.7-1.1-1.3-2.1-1.8-3.2l0,0c0.1,1.2,0.1,2.3,0.1,3.9v4H441.1z"/>
	<path class="st1" d="M454.1,216.3l-0.1-0.9h0c-0.4,0.5-1.1,1-2.1,1c-1.4,0-2.1-1-2.1-1.9c0-1.6,1.5-2.5,4.1-2.5v-0.1
		c0-0.6-0.2-1.6-1.5-1.6c-0.6,0-1.3,0.2-1.8,0.5l-0.3-0.8c0.6-0.4,1.4-0.6,2.2-0.6c2.1,0,2.6,1.4,2.6,2.8v2.5c0,0.6,0,1.2,0.1,1.6
		H454.1z M453.9,212.8c-1.3,0-2.9,0.2-2.9,1.5c0,0.8,0.5,1.2,1.2,1.2c0.9,0,1.4-0.6,1.6-1.1c0-0.1,0.1-0.3,0.1-0.4V212.8z"/>
	<path class="st1" d="M458.5,207.6v1.9h1.8v0.9h-1.8v3.7c0,0.8,0.2,1.3,0.9,1.3c0.3,0,0.6,0,0.7-0.1l0.1,0.9
		c-0.2,0.1-0.6,0.2-1.1,0.2c-0.6,0-1-0.2-1.3-0.5c-0.4-0.4-0.5-1-0.5-1.8v-3.7h-1.1v-0.9h1.1v-1.6L458.5,207.6z"/>
	<path class="st1" d="M463,207.6c0,0.4-0.3,0.8-0.8,0.8c-0.4,0-0.7-0.3-0.7-0.8c0-0.4,0.3-0.8,0.8-0.8
		C462.7,206.8,463,207.2,463,207.6z M461.6,216.3v-6.8h1.2v6.8H461.6z"/>
	<path class="st1" d="M471,212.9c0,2.5-1.7,3.6-3.4,3.6c-1.8,0-3.2-1.3-3.2-3.5c0-2.3,1.5-3.6,3.4-3.6
		C469.7,209.4,471,210.8,471,212.9z M465.7,212.9c0,1.5,0.9,2.6,2.1,2.6c1.2,0,2.1-1.1,2.1-2.6c0-1.1-0.6-2.6-2-2.6
		S465.7,211.6,465.7,212.9z"/>
	<path class="st1" d="M472.6,211.4c0-0.7,0-1.3-0.1-1.8h1.1l0.1,1.1h0c0.3-0.6,1.1-1.3,2.2-1.3c0.9,0,2.4,0.6,2.4,2.9v4h-1.2v-3.9
		c0-1.1-0.4-2-1.6-2c-0.8,0-1.4,0.6-1.7,1.3c-0.1,0.2-0.1,0.4-0.1,0.6v4.1h-1.2V211.4z"/>
	<path class="st1" d="M479.6,218c0.3-0.8,0.7-2.3,0.8-3.3l1.4-0.1c-0.3,1.2-0.9,2.7-1.3,3.4L479.6,218z"/>
	<path class="st1" d="M492.1,209.5c0,0.5-0.1,1-0.1,1.9v3.9c0,1.6-0.3,2.5-1,3.1c-0.7,0.6-1.6,0.8-2.5,0.8c-0.8,0-1.7-0.2-2.3-0.6
		l0.3-0.9c0.4,0.3,1.1,0.5,2,0.5c1.3,0,2.2-0.7,2.2-2.4v-0.8h0c-0.4,0.6-1.1,1.1-2.2,1.1c-1.7,0-2.9-1.4-2.9-3.3
		c0-2.3,1.5-3.6,3.1-3.6c1.2,0,1.8,0.6,2.1,1.2h0l0.1-1H492.1z M490.8,212.2c0-0.2,0-0.4-0.1-0.6c-0.2-0.7-0.8-1.3-1.7-1.3
		c-1.2,0-2,1-2,2.6c0,1.3,0.7,2.4,2,2.4c0.8,0,1.4-0.5,1.7-1.3c0.1-0.2,0.1-0.4,0.1-0.7V212.2z"/>
	<path class="st1" d="M494,211.6c0-0.8,0-1.5-0.1-2.1h1.1l0,1.3h0.1c0.3-0.9,1-1.5,1.9-1.5c0.1,0,0.2,0,0.3,0v1.2
		c-0.1,0-0.3,0-0.4,0c-0.9,0-1.5,0.7-1.7,1.6c0,0.2-0.1,0.4-0.1,0.6v3.6H494V211.6z"/>
	<path class="st1" d="M504.5,212.9c0,2.5-1.7,3.6-3.4,3.6c-1.8,0-3.2-1.3-3.2-3.5c0-2.3,1.5-3.6,3.4-3.6
		C503.2,209.4,504.5,210.8,504.5,212.9z M499.2,212.9c0,1.5,0.9,2.6,2.1,2.6c1.2,0,2.1-1.1,2.1-2.6c0-1.1-0.6-2.6-2-2.6
		S499.2,211.6,499.2,212.9z"/>
	<path class="st1" d="M506.5,209.5l0.9,3.4c0.2,0.8,0.4,1.5,0.5,2.2h0c0.2-0.7,0.4-1.4,0.6-2.1l1.1-3.5h1l1.1,3.4
		c0.3,0.8,0.4,1.5,0.6,2.2h0c0.1-0.7,0.3-1.4,0.5-2.2l1-3.4h1.2l-2.2,6.8h-1.1l-1-3.2c-0.2-0.8-0.4-1.4-0.6-2.2h0
		c-0.2,0.8-0.4,1.5-0.6,2.2l-1.1,3.2h-1.1l-2-6.8H506.5z"/>
	<path class="st1" d="M517.7,207.6c0,0.4-0.3,0.8-0.8,0.8c-0.4,0-0.7-0.3-0.7-0.8c0-0.4,0.3-0.8,0.8-0.8
		C517.4,206.8,517.7,207.2,517.7,207.6z M516.3,216.3v-6.8h1.2v6.8H516.3z"/>
	<path class="st1" d="M519.6,211.4c0-0.7,0-1.3-0.1-1.8h1.1l0.1,1.1h0c0.3-0.6,1.1-1.3,2.2-1.3c0.9,0,2.4,0.6,2.4,2.9v4h-1.2v-3.9
		c0-1.1-0.4-2-1.6-2c-0.8,0-1.4,0.6-1.7,1.3c-0.1,0.2-0.1,0.4-0.1,0.6v4.1h-1.2V211.4z"/>
	<path class="st1" d="M533.2,209.5c0,0.5-0.1,1-0.1,1.9v3.9c0,1.6-0.3,2.5-1,3.1c-0.7,0.6-1.6,0.8-2.5,0.8c-0.8,0-1.7-0.2-2.3-0.6
		l0.3-0.9c0.4,0.3,1.1,0.5,2,0.5c1.3,0,2.2-0.7,2.2-2.4v-0.8h0c-0.4,0.6-1.1,1.1-2.2,1.1c-1.7,0-2.9-1.4-2.9-3.3
		c0-2.3,1.5-3.6,3.1-3.6c1.2,0,1.8,0.6,2.1,1.2h0l0.1-1H533.2z M531.9,212.2c0-0.2,0-0.4-0.1-0.6c-0.2-0.7-0.8-1.3-1.7-1.3
		c-1.2,0-2,1-2,2.6c0,1.3,0.7,2.4,2,2.4c0.8,0,1.4-0.5,1.7-1.3c0.1-0.2,0.1-0.4,0.1-0.7V212.2z"/>
	<path class="st1" d="M543.8,214.4c0,0.7,0,1.3,0.1,1.8h-1.1l-0.1-1.1h0c-0.3,0.5-1,1.3-2.2,1.3c-1.1,0-2.3-0.6-2.3-3v-4h1.2v3.8
		c0,1.3,0.4,2.2,1.5,2.2c0.8,0,1.4-0.6,1.6-1.1c0.1-0.2,0.1-0.4,0.1-0.6v-4.2h1.2V214.4z"/>
	<path class="st1" d="M545.9,211.7c0-0.9,0-1.6-0.1-2.2h1.1l0.1,1.2h0c0.5-0.8,1.3-1.3,2.4-1.3c1.6,0,2.9,1.4,2.9,3.4
		c0,2.4-1.5,3.6-3.1,3.6c-0.9,0-1.7-0.4-2.1-1.1h0v3.7h-1.2V211.7z M547.1,213.5c0,0.2,0,0.4,0.1,0.5c0.2,0.9,1,1.4,1.8,1.4
		c1.3,0,2.1-1.1,2.1-2.6c0-1.4-0.7-2.5-2-2.5c-0.8,0-1.6,0.6-1.9,1.5c0,0.2-0.1,0.3-0.1,0.5V213.5z"/>
	<path class="st1" d="M406.6,224.4c0,0.4-0.3,0.8-0.8,0.8c-0.4,0-0.7-0.3-0.7-0.8c0-0.4,0.3-0.8,0.8-0.8
		C406.3,223.6,406.6,224,406.6,224.4z M405.2,233.1v-6.8h1.2v6.8H405.2z"/>
	<path class="st1" d="M408.5,228.2c0-0.7,0-1.3-0.1-1.8h1.1l0.1,1.1h0c0.3-0.6,1.1-1.3,2.2-1.3c0.9,0,2.4,0.6,2.4,2.9v4H413v-3.9
		c0-1.1-0.4-2-1.6-2c-0.8,0-1.4,0.6-1.7,1.3c-0.1,0.2-0.1,0.4-0.1,0.6v4.1h-1.2V228.2z"/>
	<path class="st1" d="M420.7,224.4v1.9h1.8v0.9h-1.8v3.7c0,0.8,0.2,1.3,0.9,1.3c0.3,0,0.6,0,0.7-0.1l0.1,0.9
		c-0.2,0.1-0.6,0.2-1.1,0.2c-0.6,0-1-0.2-1.3-0.5c-0.4-0.4-0.5-1-0.5-1.8v-3.7h-1.1v-0.9h1.1v-1.6L420.7,224.4z"/>
	<path class="st1" d="M423.9,223.2h1.2v4.2h0c0.2-0.4,0.5-0.7,0.9-0.9c0.4-0.2,0.8-0.4,1.3-0.4c0.9,0,2.4,0.6,2.4,2.9v4h-1.2v-3.9
		c0-1.1-0.4-2-1.6-2c-0.8,0-1.4,0.6-1.7,1.2c-0.1,0.2-0.1,0.4-0.1,0.6v4.1h-1.2V223.2z"/>
	<path class="st1" d="M432.3,229.9c0,1.7,1.1,2.4,2.3,2.4c0.9,0,1.4-0.2,1.9-0.4l0.2,0.9c-0.4,0.2-1.2,0.4-2.3,0.4
		c-2.1,0-3.3-1.4-3.3-3.4s1.2-3.7,3.2-3.7c2.2,0,2.8,1.9,2.8,3.2c0,0.3,0,0.4,0,0.6H432.3z M435.9,229c0-0.8-0.3-2-1.7-2
		c-1.2,0-1.8,1.1-1.9,2H435.9z"/>
	<path class="st1" d="M441.8,233.1v-5.8h-1v-0.9h1V226c0-1,0.2-1.8,0.8-2.4c0.5-0.4,1.1-0.6,1.7-0.6c0.4,0,0.8,0.1,1.1,0.2l-0.2,1
		c-0.2-0.1-0.4-0.2-0.8-0.2c-1,0-1.3,0.9-1.3,2v0.4h1.6v0.9H443v5.8H441.8z"/>
	<path class="st1" d="M451.7,229.7c0,2.5-1.7,3.6-3.4,3.6c-1.8,0-3.2-1.3-3.2-3.5c0-2.3,1.5-3.6,3.4-3.6
		C450.4,226.2,451.7,227.6,451.7,229.7z M446.3,229.7c0,1.5,0.9,2.6,2.1,2.6c1.2,0,2.1-1.1,2.1-2.6c0-1.1-0.6-2.6-2-2.6
		S446.3,228.4,446.3,229.7z"/>
	<path class="st1" d="M458.9,231.2c0,0.7,0,1.3,0.1,1.8h-1.1l-0.1-1.1h0c-0.3,0.5-1,1.3-2.2,1.3c-1.1,0-2.3-0.6-2.3-3v-4h1.2v3.8
		c0,1.3,0.4,2.2,1.5,2.2c0.8,0,1.4-0.6,1.6-1.1c0.1-0.2,0.1-0.4,0.1-0.6v-4.2h1.2V231.2z"/>
	<path class="st1" d="M460.9,228.4c0-0.8,0-1.5-0.1-2.1h1.1l0,1.3h0.1c0.3-0.9,1-1.5,1.9-1.5c0.1,0,0.2,0,0.3,0v1.2
		c-0.1,0-0.3,0-0.4,0c-0.9,0-1.5,0.7-1.7,1.6c0,0.2-0.1,0.4-0.1,0.6v3.6h-1.2V228.4z"/>
	<path class="st1" d="M473.3,232.8c-0.3,0.2-1,0.4-1.9,0.4c-2,0-3.4-1.4-3.4-3.5c0-2.1,1.4-3.6,3.6-3.6c0.7,0,1.4,0.2,1.7,0.4
		l-0.3,1c-0.3-0.2-0.8-0.3-1.4-0.3c-1.6,0-2.4,1.1-2.4,2.6c0,1.6,1,2.5,2.4,2.5c0.7,0,1.2-0.2,1.5-0.3L473.3,232.8z"/>
	<path class="st1" d="M480.8,229.7c0,2.5-1.7,3.6-3.4,3.6c-1.8,0-3.2-1.3-3.2-3.5c0-2.3,1.5-3.6,3.4-3.6
		C479.5,226.2,480.8,227.6,480.8,229.7z M475.4,229.7c0,1.5,0.9,2.6,2.1,2.6c1.2,0,2.1-1.1,2.1-2.6c0-1.1-0.6-2.6-2-2.6
		S475.4,228.4,475.4,229.7z"/>
	<path class="st1" d="M482.4,228.4c0-0.8,0-1.5-0.1-2.1h1.1l0,1.3h0.1c0.3-0.9,1-1.5,1.9-1.5c0.1,0,0.2,0,0.3,0v1.2
		c-0.1,0-0.3,0-0.4,0c-0.9,0-1.5,0.7-1.7,1.6c0,0.2-0.1,0.4-0.1,0.6v3.6h-1.2V228.4z"/>
	<path class="st1" d="M487,228.2c0-0.7,0-1.3-0.1-1.8h1.1l0.1,1.1h0c0.3-0.6,1.1-1.3,2.2-1.3c0.9,0,2.4,0.6,2.4,2.9v4h-1.2v-3.9
		c0-1.1-0.4-2-1.6-2c-0.8,0-1.4,0.6-1.7,1.3c-0.1,0.2-0.1,0.4-0.1,0.6v4.1H487V228.2z"/>
	<path class="st1" d="M495.4,229.9c0,1.7,1.1,2.4,2.3,2.4c0.9,0,1.4-0.2,1.9-0.4l0.2,0.9c-0.4,0.2-1.2,0.4-2.3,0.4
		c-2.1,0-3.3-1.4-3.3-3.4s1.2-3.7,3.2-3.7c2.2,0,2.8,1.9,2.8,3.2c0,0.3,0,0.4,0,0.6H495.4z M499.1,229c0-0.8-0.3-2-1.7-2
		c-1.2,0-1.8,1.1-1.9,2H499.1z"/>
	<path class="st1" d="M501.8,228.4c0-0.8,0-1.5-0.1-2.1h1.1l0,1.3h0.1c0.3-0.9,1-1.5,1.9-1.5c0.1,0,0.2,0,0.3,0v1.2
		c-0.1,0-0.3,0-0.4,0c-0.9,0-1.5,0.7-1.7,1.6c0,0.2-0.1,0.4-0.1,0.6v3.6h-1.2V228.4z"/>
	<path class="st1" d="M506.2,231.8c0.4,0.2,1,0.5,1.6,0.5c0.9,0,1.3-0.4,1.3-1c0-0.6-0.3-0.9-1.3-1.2c-1.2-0.4-1.8-1.1-1.8-1.9
		c0-1.1,0.9-2,2.3-2c0.7,0,1.3,0.2,1.7,0.4l-0.3,0.9c-0.3-0.2-0.8-0.4-1.4-0.4c-0.7,0-1.1,0.4-1.1,0.9c0,0.6,0.4,0.8,1.3,1.1
		c1.2,0.4,1.8,1,1.8,2c0,1.2-0.9,2-2.5,2c-0.7,0-1.4-0.2-1.9-0.5L506.2,231.8z"/>
	<path class="st1" d="M518.6,233.1l-0.1-0.9h0c-0.4,0.5-1.1,1-2.1,1c-1.4,0-2.1-1-2.1-1.9c0-1.6,1.5-2.5,4.1-2.5v-0.1
		c0-0.6-0.2-1.6-1.5-1.6c-0.6,0-1.3,0.2-1.8,0.5l-0.3-0.8c0.6-0.4,1.4-0.6,2.2-0.6c2.1,0,2.6,1.4,2.6,2.8v2.5c0,0.6,0,1.2,0.1,1.6
		H518.6z M518.4,229.6c-1.3,0-2.9,0.2-2.9,1.5c0,0.8,0.5,1.2,1.2,1.2c0.9,0,1.4-0.6,1.6-1.1c0-0.1,0.1-0.3,0.1-0.4V229.6z"/>
	<path class="st1" d="M521.6,228.4c0-0.8,0-1.5-0.1-2.1h1.1l0,1.3h0.1c0.3-0.9,1-1.5,1.9-1.5c0.1,0,0.2,0,0.3,0v1.2
		c-0.1,0-0.3,0-0.4,0c-0.9,0-1.5,0.7-1.7,1.6c0,0.2-0.1,0.4-0.1,0.6v3.6h-1.2V228.4z"/>
	<path class="st1" d="M526.7,229.9c0,1.7,1.1,2.4,2.3,2.4c0.9,0,1.4-0.2,1.9-0.4l0.2,0.9c-0.4,0.2-1.2,0.4-2.3,0.4
		c-2.1,0-3.3-1.4-3.3-3.4s1.2-3.7,3.2-3.7c2.2,0,2.8,1.9,2.8,3.2c0,0.3,0,0.4,0,0.6H526.7z M530.3,229c0-0.8-0.3-2-1.7-2
		c-1.2,0-1.8,1.1-1.9,2H530.3z"/>
	<path class="st1" d="M536.8,233.1l-0.1-0.9h0c-0.4,0.5-1.1,1-2.1,1c-1.4,0-2.1-1-2.1-1.9c0-1.6,1.5-2.5,4.1-2.5v-0.1
		c0-0.6-0.2-1.6-1.5-1.6c-0.6,0-1.3,0.2-1.8,0.5l-0.3-0.8c0.6-0.4,1.4-0.6,2.2-0.6c2.1,0,2.6,1.4,2.6,2.8v2.5c0,0.6,0,1.2,0.1,1.6
		H536.8z M536.6,229.6c-1.3,0-2.9,0.2-2.9,1.5c0,0.8,0.5,1.2,1.2,1.2c0.9,0,1.4-0.6,1.6-1.1c0-0.1,0.1-0.3,0.1-0.4V229.6z"/>
	<path class="st1" d="M544.1,224.4c0,0.4-0.3,0.8-0.8,0.8c-0.4,0-0.7-0.3-0.7-0.8c0-0.4,0.3-0.8,0.8-0.8
		C543.9,223.6,544.1,224,544.1,224.4z M542.8,233.1v-6.8h1.2v6.8H542.8z"/>
	<path class="st1" d="M546.1,228.2c0-0.7,0-1.3-0.1-1.8h1.1l0.1,1.1h0c0.3-0.6,1.1-1.3,2.2-1.3c0.9,0,2.4,0.6,2.4,2.9v4h-1.2v-3.9
		c0-1.1-0.4-2-1.6-2c-0.8,0-1.4,0.6-1.7,1.3c-0.1,0.2-0.1,0.4-0.1,0.6v4.1h-1.2V228.2z"/>
	<path class="st1" d="M393.7,249.9v-9.4h1.3l3,4.8c0.7,1.1,1.2,2.1,1.7,3.1l0,0c-0.1-1.3-0.1-2.4-0.1-3.9v-4h1.1v9.4h-1.2l-3-4.8
		c-0.7-1.1-1.3-2.1-1.8-3.2l0,0c0.1,1.2,0.1,2.3,0.1,3.9v4H393.7z"/>
	<path class="st1" d="M403.5,246.7c0,1.7,1.1,2.4,2.3,2.4c0.9,0,1.4-0.2,1.9-0.4l0.2,0.9c-0.4,0.2-1.2,0.4-2.3,0.4
		c-2.1,0-3.3-1.4-3.3-3.4s1.2-3.7,3.2-3.7c2.2,0,2.8,1.9,2.8,3.2c0,0.3,0,0.4,0,0.6H403.5z M407.2,245.8c0-0.8-0.3-2-1.7-2
		c-1.2,0-1.8,1.1-1.9,2H407.2z"/>
	<path class="st1" d="M410.4,243.1l0.9,3.4c0.2,0.8,0.4,1.5,0.5,2.2h0c0.2-0.7,0.4-1.4,0.6-2.1l1.1-3.5h1l1.1,3.4
		c0.3,0.8,0.4,1.5,0.6,2.2h0c0.1-0.7,0.3-1.4,0.5-2.2l1-3.4h1.2l-2.2,6.8h-1.1l-1-3.2c-0.2-0.8-0.4-1.4-0.6-2.2h0
		c-0.2,0.8-0.4,1.5-0.6,2.2l-1.1,3.2h-1.1l-2-6.8H410.4z"/>
	<path class="st1" d="M431.1,245.8c-0.1-1.3-0.2-2.9-0.1-4.1h0c-0.3,1.1-0.7,2.3-1.2,3.6l-1.7,4.6h-0.9l-1.5-4.5
		c-0.4-1.3-0.8-2.5-1.1-3.7h0c0,1.2-0.1,2.8-0.2,4.2l-0.3,4h-1.2l0.7-9.4h1.6l1.6,4.6c0.4,1.2,0.7,2.2,1,3.2h0c0.2-1,0.6-2,1-3.2
		l1.7-4.6h1.6l0.6,9.4h-1.2L431.1,245.8z"/>
	<path class="st1" d="M435.2,246.7c0,1.7,1.1,2.4,2.3,2.4c0.9,0,1.4-0.2,1.9-0.4l0.2,0.9c-0.4,0.2-1.2,0.4-2.3,0.4
		c-2.1,0-3.3-1.4-3.3-3.4s1.2-3.7,3.2-3.7c2.2,0,2.8,1.9,2.8,3.2c0,0.3,0,0.4,0,0.6H435.2z M438.8,245.8c0-0.8-0.3-2-1.7-2
		c-1.2,0-1.8,1.1-1.9,2H438.8z"/>
	<path class="st1" d="M442,243.1l1,1.5c0.3,0.4,0.5,0.7,0.7,1.1h0c0.2-0.4,0.4-0.8,0.7-1.1l1-1.4h1.3l-2.3,3.3l2.4,3.5h-1.4l-1-1.5
		c-0.3-0.4-0.5-0.8-0.7-1.2h0c-0.2,0.4-0.5,0.8-0.7,1.2l-1,1.5h-1.4l2.4-3.5l-2.3-3.3H442z"/>
	<path class="st1" d="M449.3,241.2c0,0.4-0.3,0.8-0.8,0.8c-0.4,0-0.7-0.3-0.7-0.8c0-0.4,0.3-0.8,0.8-0.8
		C449,240.4,449.3,240.8,449.3,241.2z M447.9,249.9v-6.8h1.2v6.8H447.9z"/>
	<path class="st1" d="M456,249.6c-0.3,0.2-1,0.4-1.9,0.4c-2,0-3.4-1.4-3.4-3.5c0-2.1,1.4-3.6,3.6-3.6c0.7,0,1.4,0.2,1.7,0.4l-0.3,1
		c-0.3-0.2-0.8-0.3-1.4-0.3c-1.6,0-2.4,1.1-2.4,2.6c0,1.6,1,2.5,2.4,2.5c0.7,0,1.2-0.2,1.5-0.3L456,249.6z"/>
	<path class="st1" d="M463.5,246.5c0,2.5-1.7,3.6-3.4,3.6c-1.8,0-3.2-1.3-3.2-3.5c0-2.3,1.5-3.6,3.4-3.6
		C462.2,243,463.5,244.4,463.5,246.5z M458.1,246.5c0,1.5,0.9,2.6,2.1,2.6c1.2,0,2.1-1.1,2.1-2.6c0-1.1-0.6-2.6-2-2.6
		S458.1,245.2,458.1,246.5z"/>
	<path class="st1" d="M464.4,249.2c0-0.5,0.3-0.9,0.8-0.9c0.5,0,0.8,0.4,0.8,0.9c0,0.5-0.3,0.9-0.8,0.9
		C464.8,250.1,464.4,249.7,464.4,249.2z"/>
	<path class="st1" d="M470.6,240.6c0.6-0.1,1.5-0.2,2.3-0.2c1.3,0,2.1,0.2,2.7,0.8c0.5,0.4,0.7,1.1,0.7,1.8c0,1.2-0.8,2.1-1.8,2.4v0
		c0.7,0.3,1.2,0.9,1.4,1.9c0.3,1.3,0.5,2.2,0.7,2.6h-1.3c-0.2-0.3-0.4-1.1-0.6-2.3c-0.3-1.3-0.8-1.8-1.9-1.8h-1.1v4.1h-1.2V240.6z
		 M471.9,244.9h1.2c1.3,0,2.1-0.7,2.1-1.8c0-1.2-0.9-1.8-2.2-1.8c-0.6,0-1,0.1-1.2,0.1V244.9z"/>
	<path class="st1" d="M478.9,246.7c0,1.7,1.1,2.4,2.3,2.4c0.9,0,1.4-0.2,1.9-0.4l0.2,0.9c-0.4,0.2-1.2,0.4-2.3,0.4
		c-2.1,0-3.3-1.4-3.3-3.4s1.2-3.7,3.2-3.7c2.2,0,2.8,1.9,2.8,3.2c0,0.3,0,0.4,0,0.6H478.9z M482.5,245.8c0-0.8-0.3-2-1.7-2
		c-1.2,0-1.8,1.1-1.9,2H482.5z"/>
	<path class="st1" d="M490,249.6c-0.3,0.2-1,0.4-1.9,0.4c-2,0-3.4-1.4-3.4-3.5c0-2.1,1.4-3.6,3.6-3.6c0.7,0,1.4,0.2,1.7,0.4l-0.3,1
		c-0.3-0.2-0.8-0.3-1.4-0.3c-1.6,0-2.4,1.1-2.4,2.6c0,1.6,1,2.5,2.4,2.5c0.7,0,1.2-0.2,1.5-0.3L490,249.6z"/>
	<path class="st1" d="M492.1,246.7c0,1.7,1.1,2.4,2.3,2.4c0.9,0,1.4-0.2,1.9-0.4l0.2,0.9c-0.4,0.2-1.2,0.4-2.3,0.4
		c-2.1,0-3.3-1.4-3.3-3.4s1.2-3.7,3.2-3.7c2.2,0,2.8,1.9,2.8,3.2c0,0.3,0,0.4,0,0.6H492.1z M495.7,245.8c0-0.8-0.3-2-1.7-2
		c-1.2,0-1.8,1.1-1.9,2H495.7z"/>
	<path class="st1" d="M498.4,245c0-0.7,0-1.3-0.1-1.8h1.1l0.1,1.1h0c0.3-0.6,1.1-1.3,2.2-1.3c0.9,0,2.4,0.6,2.4,2.9v4H503V246
		c0-1.1-0.4-2-1.6-2c-0.8,0-1.4,0.6-1.7,1.3c-0.1,0.2-0.1,0.4-0.1,0.6v4.1h-1.2V245z"/>
	<path class="st1" d="M507.6,241.2v1.9h1.8v0.9h-1.8v3.7c0,0.8,0.2,1.3,0.9,1.3c0.3,0,0.6,0,0.7-0.1l0.1,0.9
		c-0.2,0.1-0.6,0.2-1.1,0.2c-0.6,0-1-0.2-1.3-0.5c-0.4-0.4-0.5-1-0.5-1.8v-3.7h-1.1v-0.9h1.1v-1.6L507.6,241.2z"/>
	<path class="st1" d="M510.8,240h1.2v9.9h-1.2V240z"/>
	<path class="st1" d="M514.5,243.1l1.5,4c0.2,0.4,0.3,1,0.4,1.4h0c0.1-0.4,0.3-0.9,0.4-1.4l1.3-4h1.3l-1.8,4.8
		c-0.9,2.3-1.5,3.5-2.3,4.2c-0.6,0.5-1.2,0.7-1.5,0.8l-0.3-1c0.3-0.1,0.7-0.3,1.1-0.6c0.3-0.3,0.8-0.7,1-1.4
		c0.1-0.1,0.1-0.2,0.1-0.3c0-0.1,0-0.2-0.1-0.3l-2.5-6.2H514.5z"/>
	<path class="st1" d="M519.3,251.6c0.3-0.8,0.7-2.3,0.8-3.3l1.4-0.1c-0.3,1.2-0.9,2.7-1.3,3.4L519.3,251.6z"/>
	<path class="st1" d="M526,240.5h1.2v8.4h4v1H526V240.5z"/>
	<path class="st1" d="M536.3,249.9l-0.1-0.9h0c-0.4,0.5-1.1,1-2.1,1c-1.4,0-2.1-1-2.1-1.9c0-1.6,1.5-2.5,4.1-2.5v-0.1
		c0-0.6-0.2-1.6-1.5-1.6c-0.6,0-1.3,0.2-1.8,0.5l-0.3-0.8c0.6-0.4,1.4-0.6,2.2-0.6c2.1,0,2.6,1.4,2.6,2.8v2.5c0,0.6,0,1.2,0.1,1.6
		H536.3z M536.2,246.4c-1.3,0-2.9,0.2-2.9,1.5c0,0.8,0.5,1.2,1.2,1.2c0.9,0,1.4-0.6,1.6-1.1c0-0.1,0.1-0.3,0.1-0.4V246.4z"/>
	<path class="st1" d="M545.2,240v8.2c0,0.6,0,1.3,0.1,1.8h-1.1l-0.1-1.2h0c-0.4,0.8-1.2,1.3-2.3,1.3c-1.6,0-2.9-1.4-2.9-3.4
		c0-2.3,1.4-3.6,3-3.6c1,0,1.7,0.5,2,1h0v-4H545.2z M544,245.9c0-0.2,0-0.4-0.1-0.5c-0.2-0.8-0.9-1.4-1.8-1.4c-1.3,0-2,1.1-2,2.6
		c0,1.4,0.7,2.5,2,2.5c0.8,0,1.6-0.5,1.8-1.5c0-0.2,0.1-0.3,0.1-0.5V245.9z"/>
	<path class="st1" d="M547.7,243.1l1.5,4c0.2,0.4,0.3,1,0.4,1.4h0c0.1-0.4,0.3-0.9,0.4-1.4l1.3-4h1.3l-1.8,4.8
		c-0.9,2.3-1.5,3.5-2.3,4.2c-0.6,0.5-1.2,0.7-1.5,0.8l-0.3-1c0.3-0.1,0.7-0.3,1.1-0.6c0.3-0.3,0.8-0.7,1-1.4
		c0.1-0.1,0.1-0.2,0.1-0.3c0-0.1,0-0.2-0.1-0.3l-2.5-6.2H547.7z"/>
	<path class="st1" d="M409.8,265.2c0.5,0.3,1.3,0.6,2.2,0.6c1.2,0,2-0.7,2-1.6c0-0.9-0.5-1.4-1.8-1.9c-1.5-0.5-2.5-1.3-2.5-2.7
		c0-1.5,1.2-2.6,3.1-2.6c1,0,1.7,0.2,2.1,0.5l-0.3,1c-0.3-0.2-0.9-0.4-1.8-0.4c-1.3,0-1.8,0.8-1.8,1.4c0,0.9,0.6,1.3,1.9,1.8
		c1.6,0.6,2.4,1.4,2.4,2.8c0,1.5-1.1,2.7-3.3,2.7c-0.9,0-1.9-0.3-2.4-0.6L409.8,265.2z"/>
	<path class="st1" d="M416.8,256.8h1.2v4.2h0c0.2-0.4,0.5-0.7,0.9-0.9c0.4-0.2,0.8-0.4,1.3-0.4c0.9,0,2.4,0.6,2.4,2.9v4h-1.2v-3.9
		c0-1.1-0.4-2-1.6-2c-0.8,0-1.4,0.6-1.7,1.2c-0.1,0.2-0.1,0.4-0.1,0.6v4.1h-1.2V256.8z"/>
	<path class="st1" d="M430.3,264.8c0,0.7,0,1.3,0.1,1.8h-1.1l-0.1-1.1h0c-0.3,0.5-1,1.3-2.2,1.3c-1.1,0-2.3-0.6-2.3-3v-4h1.2v3.8
		c0,1.3,0.4,2.2,1.5,2.2c0.8,0,1.4-0.6,1.6-1.1c0.1-0.2,0.1-0.4,0.1-0.6v-4.2h1.2V264.8z"/>
	<path class="st1" d="M438.1,259.9c0,0.5-0.1,1-0.1,1.9v3.9c0,1.6-0.3,2.5-1,3.1c-0.7,0.6-1.6,0.8-2.5,0.8c-0.8,0-1.7-0.2-2.3-0.6
		l0.3-0.9c0.4,0.3,1.1,0.5,2,0.5c1.3,0,2.2-0.7,2.2-2.4v-0.8h0c-0.4,0.6-1.1,1.1-2.2,1.1c-1.7,0-2.9-1.4-2.9-3.3
		c0-2.3,1.5-3.6,3.1-3.6c1.2,0,1.8,0.6,2.1,1.2h0l0.1-1H438.1z M436.9,262.6c0-0.2,0-0.4-0.1-0.6c-0.2-0.7-0.8-1.3-1.7-1.3
		c-1.2,0-2,1-2,2.6c0,1.3,0.7,2.4,2,2.4c0.8,0,1.4-0.5,1.7-1.3c0.1-0.2,0.1-0.4,0.1-0.7V262.6z"/>
	<path class="st1" d="M443.6,259.9l0.9,3.4c0.2,0.8,0.4,1.5,0.5,2.2h0c0.2-0.7,0.4-1.4,0.6-2.1l1.1-3.5h1l1.1,3.4
		c0.3,0.8,0.4,1.5,0.6,2.2h0c0.1-0.7,0.3-1.4,0.5-2.2l1-3.4h1.2l-2.2,6.8h-1.1l-1-3.2c-0.2-0.8-0.4-1.4-0.6-2.2h0
		c-0.2,0.8-0.4,1.5-0.6,2.2l-1.1,3.2h-1.1l-2-6.8H443.6z"/>
	<path class="st1" d="M457.1,266.7l-0.1-0.9h0c-0.4,0.5-1.1,1-2.1,1c-1.4,0-2.1-1-2.1-1.9c0-1.6,1.5-2.5,4.1-2.5v-0.1
		c0-0.6-0.2-1.6-1.5-1.6c-0.6,0-1.3,0.2-1.8,0.5l-0.3-0.8c0.6-0.4,1.4-0.6,2.2-0.6c2.1,0,2.6,1.4,2.6,2.8v2.5c0,0.6,0,1.2,0.1,1.6
		H457.1z M456.9,263.2c-1.3,0-2.9,0.2-2.9,1.5c0,0.8,0.5,1.2,1.2,1.2c0.9,0,1.4-0.6,1.6-1.1c0-0.1,0.1-0.3,0.1-0.4V263.2z"/>
	<path class="st1" d="M459.9,265.4c0.4,0.2,1,0.5,1.6,0.5c0.9,0,1.3-0.4,1.3-1c0-0.6-0.3-0.9-1.3-1.2c-1.2-0.4-1.8-1.1-1.8-1.9
		c0-1.1,0.9-2,2.3-2c0.7,0,1.3,0.2,1.7,0.4l-0.3,0.9c-0.3-0.2-0.8-0.4-1.4-0.4c-0.7,0-1.1,0.4-1.1,0.9c0,0.6,0.4,0.8,1.3,1.1
		c1.2,0.4,1.8,1,1.8,2c0,1.2-0.9,2-2.5,2c-0.7,0-1.4-0.2-1.9-0.5L459.9,265.4z"/>
	<path class="st1" d="M468.7,266.7v-5.8h-1v-0.9h1v-0.3c0-1,0.2-1.8,0.8-2.4c0.5-0.4,1.1-0.6,1.7-0.6c0.4,0,0.8,0.1,1.1,0.2l-0.2,1
		c-0.2-0.1-0.4-0.2-0.8-0.2c-1,0-1.3,0.9-1.3,2v0.4h1.6v0.9H470v5.8H468.7z"/>
	<path class="st1" d="M473.2,263.5c0,1.7,1.1,2.4,2.3,2.4c0.9,0,1.4-0.2,1.9-0.4l0.2,0.9c-0.4,0.2-1.2,0.4-2.3,0.4
		c-2.1,0-3.3-1.4-3.3-3.4c0-2,1.2-3.7,3.2-3.7c2.2,0,2.8,1.9,2.8,3.2c0,0.3,0,0.4,0,0.6H473.2z M476.8,262.6c0-0.8-0.3-2-1.7-2
		c-1.2,0-1.8,1.1-1.9,2H476.8z"/>
	<path class="st1" d="M483.3,266.7l-0.1-0.9h0c-0.4,0.5-1.1,1-2.1,1c-1.4,0-2.1-1-2.1-1.9c0-1.6,1.5-2.5,4.1-2.5v-0.1
		c0-0.6-0.2-1.6-1.5-1.6c-0.6,0-1.3,0.2-1.8,0.5l-0.3-0.8c0.6-0.4,1.4-0.6,2.2-0.6c2.1,0,2.6,1.4,2.6,2.8v2.5c0,0.6,0,1.2,0.1,1.6
		H483.3z M483.1,263.2c-1.3,0-2.9,0.2-2.9,1.5c0,0.8,0.5,1.2,1.2,1.2c0.9,0,1.4-0.6,1.6-1.1c0-0.1,0.1-0.3,0.1-0.4V263.2z"/>
	<path class="st1" d="M487.7,258v1.9h1.8v0.9h-1.8v3.7c0,0.8,0.2,1.3,0.9,1.3c0.3,0,0.6,0,0.7-0.1l0.1,0.9c-0.2,0.1-0.6,0.2-1.1,0.2
		c-0.6,0-1-0.2-1.3-0.5c-0.4-0.4-0.5-1-0.5-1.8v-3.7h-1.1v-0.9h1.1v-1.6L487.7,258z"/>
	<path class="st1" d="M496.5,264.8c0,0.7,0,1.3,0.1,1.8h-1.1l-0.1-1.1h0c-0.3,0.5-1,1.3-2.2,1.3c-1.1,0-2.3-0.6-2.3-3v-4h1.2v3.8
		c0,1.3,0.4,2.2,1.5,2.2c0.8,0,1.4-0.6,1.6-1.1c0.1-0.2,0.1-0.4,0.1-0.6v-4.2h1.2V264.8z"/>
	<path class="st1" d="M498.6,262c0-0.8,0-1.5-0.1-2.1h1.1l0,1.3h0.1c0.3-0.9,1-1.5,1.9-1.5c0.1,0,0.2,0,0.3,0v1.2
		c-0.1,0-0.3,0-0.4,0c-0.9,0-1.5,0.7-1.7,1.6c0,0.2-0.1,0.4-0.1,0.6v3.6h-1.2V262z"/>
	<path class="st1" d="M503.7,263.5c0,1.7,1.1,2.4,2.3,2.4c0.9,0,1.4-0.2,1.9-0.4l0.2,0.9c-0.4,0.2-1.2,0.4-2.3,0.4
		c-2.1,0-3.3-1.4-3.3-3.4c0-2,1.2-3.7,3.2-3.7c2.2,0,2.8,1.9,2.8,3.2c0,0.3,0,0.4,0,0.6H503.7z M507.3,262.6c0-0.8-0.3-2-1.7-2
		c-1.2,0-1.8,1.1-1.9,2H507.3z"/>
	<path class="st1" d="M515.9,256.8v8.2c0,0.6,0,1.3,0.1,1.8h-1.1l-0.1-1.2h0c-0.4,0.8-1.2,1.3-2.3,1.3c-1.6,0-2.9-1.4-2.9-3.4
		c0-2.3,1.4-3.6,3-3.6c1,0,1.7,0.5,2,1h0v-4H515.9z M514.6,262.7c0-0.2,0-0.4-0.1-0.5c-0.2-0.8-0.9-1.4-1.8-1.4c-1.3,0-2,1.1-2,2.6
		c0,1.4,0.7,2.5,2,2.5c0.8,0,1.6-0.5,1.8-1.5c0-0.2,0.1-0.3,0.1-0.5V262.7z"/>
	<path class="st1" d="M527,263.3c0,2.5-1.7,3.6-3.4,3.6c-1.8,0-3.2-1.3-3.2-3.5c0-2.3,1.5-3.6,3.4-3.6
		C525.7,259.8,527,261.2,527,263.3z M521.6,263.3c0,1.5,0.9,2.6,2.1,2.6c1.2,0,2.1-1.1,2.1-2.6c0-1.1-0.6-2.6-2-2.6
		S521.6,262,521.6,263.3z"/>
	<path class="st1" d="M528.6,261.8c0-0.7,0-1.3-0.1-1.8h1.1l0.1,1.1h0c0.3-0.6,1.1-1.3,2.2-1.3c0.9,0,2.4,0.6,2.4,2.9v4h-1.2v-3.9
		c0-1.1-0.4-2-1.6-2c-0.8,0-1.4,0.6-1.7,1.3c-0.1,0.2-0.1,0.4-0.1,0.6v4.1h-1.2V261.8z"/>
	<path class="st1" d="M543.1,266.7l-0.1-0.9h0c-0.4,0.5-1.1,1-2.1,1c-1.4,0-2.1-1-2.1-1.9c0-1.6,1.5-2.5,4.1-2.5v-0.1
		c0-0.6-0.2-1.6-1.5-1.6c-0.6,0-1.3,0.2-1.8,0.5l-0.3-0.8c0.6-0.4,1.4-0.6,2.2-0.6c2.1,0,2.6,1.4,2.6,2.8v2.5c0,0.6,0,1.2,0.1,1.6
		H543.1z M542.9,263.2c-1.3,0-2.9,0.2-2.9,1.5c0,0.8,0.5,1.2,1.2,1.2c0.9,0,1.4-0.6,1.6-1.1c0-0.1,0.1-0.3,0.1-0.4V263.2z"/>
	<path class="st1" d="M546.1,261.8c0-0.7,0-1.3-0.1-1.8h1.1l0.1,1.1h0c0.3-0.6,1.1-1.3,2.2-1.3c0.9,0,2.4,0.6,2.4,2.9v4h-1.2v-3.9
		c0-1.1-0.4-2-1.6-2c-0.8,0-1.4,0.6-1.7,1.3c-0.1,0.2-0.1,0.4-0.1,0.6v4.1h-1.2V261.8z"/>
	<path class="st1" d="M411.2,274.1v3.9h4.6v-3.9h1.2v9.4h-1.2v-4.4h-4.6v4.4h-1.2v-9.4H411.2z"/>
	<path class="st1" d="M419.1,274.2c0.5-0.1,1.4-0.2,2.2-0.2c1.2,0,2,0.2,2.6,0.7c0.5,0.4,0.8,0.9,0.8,1.7c0,0.9-0.6,1.7-1.6,2.1v0
		c0.9,0.2,1.9,1,1.9,2.4c0,0.8-0.3,1.4-0.8,1.9c-0.7,0.6-1.7,0.9-3.3,0.9c-0.8,0-1.5-0.1-1.9-0.1V274.2z M420.3,278h1.1
		c1.3,0,2-0.7,2-1.6c0-1.1-0.8-1.5-2.1-1.5c-0.6,0-0.9,0-1.1,0.1V278z M420.3,282.6c0.2,0,0.6,0.1,1,0.1c1.3,0,2.4-0.5,2.4-1.8
		c0-1.3-1.1-1.8-2.4-1.8h-1V282.6z"/>
	<path class="st1" d="M434.7,278.7c0,3.2-2,5-4.4,5c-2.5,0-4.2-1.9-4.2-4.8c0-3,1.9-5,4.4-5C433.1,273.9,434.7,275.9,434.7,278.7z
		 M427.4,278.8c0,2,1.1,3.8,3,3.8c1.9,0,3-1.8,3-3.9c0-1.9-1-3.8-3-3.8C428.4,274.9,427.4,276.8,427.4,278.8z"/>
	<path class="st1" d="M439.1,282.2c0.4,0.2,1,0.5,1.6,0.5c0.9,0,1.3-0.4,1.3-1c0-0.6-0.3-0.9-1.3-1.2c-1.2-0.4-1.8-1.1-1.8-1.9
		c0-1.1,0.9-2,2.3-2c0.7,0,1.3,0.2,1.7,0.4l-0.3,0.9c-0.3-0.2-0.8-0.4-1.4-0.4c-0.7,0-1.1,0.4-1.1,0.9c0,0.6,0.4,0.8,1.3,1.1
		c1.2,0.4,1.8,1,1.8,2c0,1.2-0.9,2-2.5,2c-0.7,0-1.4-0.2-1.9-0.5L439.1,282.2z"/>
	<path class="st1" d="M444.8,278.9c0-0.9,0-1.6-0.1-2.2h1.1l0.1,1.2h0c0.5-0.8,1.3-1.3,2.4-1.3c1.6,0,2.9,1.4,2.9,3.4
		c0,2.4-1.5,3.6-3.1,3.6c-0.9,0-1.7-0.4-2.1-1.1h0v3.7h-1.2V278.9z M446,280.7c0,0.2,0,0.4,0.1,0.5c0.2,0.9,1,1.4,1.8,1.4
		c1.3,0,2.1-1.1,2.1-2.6c0-1.4-0.7-2.5-2-2.5c-0.8,0-1.6,0.6-1.9,1.5c0,0.2-0.1,0.3-0.1,0.5V280.7z"/>
	<path class="st1" d="M453.4,280.3c0,1.7,1.1,2.4,2.3,2.4c0.9,0,1.4-0.2,1.9-0.4l0.2,0.9c-0.4,0.2-1.2,0.4-2.3,0.4
		c-2.1,0-3.3-1.4-3.3-3.4c0-2,1.2-3.7,3.2-3.7c2.2,0,2.8,1.9,2.8,3.2c0,0.3,0,0.4,0,0.6H453.4z M457,279.4c0-0.8-0.3-2-1.7-2
		c-1.2,0-1.8,1.1-1.9,2H457z"/>
	<path class="st1" d="M464.6,283.2c-0.3,0.2-1,0.4-1.9,0.4c-2,0-3.4-1.4-3.4-3.5c0-2.1,1.4-3.6,3.6-3.6c0.7,0,1.4,0.2,1.7,0.4
		l-0.3,1c-0.3-0.2-0.8-0.3-1.4-0.3c-1.6,0-2.4,1.1-2.4,2.6c0,1.6,1,2.5,2.4,2.5c0.7,0,1.2-0.2,1.5-0.3L464.6,283.2z"/>
	<path class="st1" d="M467.4,274.8c0,0.4-0.3,0.8-0.8,0.8c-0.4,0-0.7-0.3-0.7-0.8c0-0.4,0.3-0.8,0.8-0.8
		C467.1,274,467.4,274.4,467.4,274.8z M466,283.5v-6.8h1.2v6.8H466z"/>
	<path class="st1" d="M473.1,283.5l-0.1-0.9h0c-0.4,0.5-1.1,1-2.1,1c-1.4,0-2.1-1-2.1-1.9c0-1.6,1.5-2.5,4.1-2.5V279
		c0-0.6-0.2-1.6-1.5-1.6c-0.6,0-1.3,0.2-1.8,0.5l-0.3-0.8c0.6-0.4,1.4-0.6,2.2-0.6c2.1,0,2.6,1.4,2.6,2.8v2.5c0,0.6,0,1.2,0.1,1.6
		H473.1z M472.9,280c-1.3,0-2.9,0.2-2.9,1.5c0,0.8,0.5,1.2,1.2,1.2c0.9,0,1.4-0.6,1.6-1.1c0-0.1,0.1-0.3,0.1-0.4V280z"/>
	<path class="st1" d="M476.1,273.6h1.2v9.9h-1.2V273.6z"/>
	<path class="st1" d="M480.6,277.3c0.3-1.2,0.9-2.7,1.3-3.3l0.8-0.1c-0.3,0.8-0.7,2.3-0.8,3.3L480.6,277.3z M482.7,277.3
		c0.3-1.2,0.9-2.7,1.3-3.3l0.8-0.1c-0.3,0.8-0.7,2.3-0.8,3.3L482.7,277.3z"/>
	<path class="st1" d="M488.1,283.5l-2.4-9.4h1.3l1.1,4.8c0.3,1.2,0.5,2.4,0.7,3.3h0c0.2-0.9,0.4-2.1,0.8-3.3l1.3-4.8h1.3l1.1,4.8
		c0.3,1.1,0.5,2.2,0.7,3.2h0c0.2-1,0.5-2.1,0.8-3.3l1.2-4.8h1.2l-2.7,9.4h-1.3l-1.2-4.9c-0.3-1.2-0.5-2.1-0.6-3.1h0
		c-0.2,0.9-0.4,1.9-0.7,3.1l-1.3,4.9H488.1z"/>
	<path class="st1" d="M498.6,280.3c0,1.7,1.1,2.4,2.3,2.4c0.9,0,1.4-0.2,1.9-0.4l0.2,0.9c-0.4,0.2-1.2,0.4-2.3,0.4
		c-2.1,0-3.3-1.4-3.3-3.4c0-2,1.2-3.7,3.2-3.7c2.2,0,2.8,1.9,2.8,3.2c0,0.3,0,0.4,0,0.6H498.6z M502.2,279.4c0-0.8-0.3-2-1.7-2
		c-1.2,0-1.8,1.1-1.9,2H502.2z"/>
	<path class="st1" d="M506.1,273.9c-0.3,1.2-0.9,2.7-1.3,3.3l-0.8,0.1c0.3-0.8,0.7-2.3,0.8-3.3L506.1,273.9z"/>
	<path class="st1" d="M506.9,278.8c0-0.8,0-1.5-0.1-2.1h1.1l0,1.3h0.1c0.3-0.9,1-1.5,1.9-1.5c0.1,0,0.2,0,0.3,0v1.2
		c-0.1,0-0.3,0-0.4,0c-0.9,0-1.5,0.7-1.7,1.6c0,0.2-0.1,0.4-0.1,0.6v3.6h-1.2V278.8z"/>
	<path class="st1" d="M512,280.3c0,1.7,1.1,2.4,2.3,2.4c0.9,0,1.4-0.2,1.9-0.4l0.2,0.9c-0.4,0.2-1.2,0.4-2.3,0.4
		c-2.1,0-3.3-1.4-3.3-3.4c0-2,1.2-3.7,3.2-3.7c2.2,0,2.8,1.9,2.8,3.2c0,0.3,0,0.4,0,0.6H512z M515.6,279.4c0-0.8-0.3-2-1.7-2
		c-1.2,0-1.8,1.1-1.9,2H515.6z"/>
	<path class="st1" d="M522.6,274.1v3.9h4.6v-3.9h1.2v9.4h-1.2v-4.4h-4.6v4.4h-1.2v-9.4H522.6z"/>
	<path class="st1" d="M531.1,280.3c0,1.7,1.1,2.4,2.3,2.4c0.9,0,1.4-0.2,1.9-0.4l0.2,0.9c-0.4,0.2-1.2,0.4-2.3,0.4
		c-2.1,0-3.3-1.4-3.3-3.4c0-2,1.2-3.7,3.2-3.7c2.2,0,2.8,1.9,2.8,3.2c0,0.3,0,0.4,0,0.6H531.1z M534.8,279.4c0-0.8-0.3-2-1.7-2
		c-1.2,0-1.8,1.1-1.9,2H534.8z"/>
	<path class="st1" d="M537.5,278.8c0-0.8,0-1.5-0.1-2.1h1.1l0,1.3h0.1c0.3-0.9,1-1.5,1.9-1.5c0.1,0,0.2,0,0.3,0v1.2
		c-0.1,0-0.3,0-0.4,0c-0.9,0-1.5,0.7-1.7,1.6c0,0.2-0.1,0.4-0.1,0.6v3.6h-1.2V278.8z"/>
	<path class="st1" d="M542.6,280.3c0,1.7,1.1,2.4,2.3,2.4c0.9,0,1.4-0.2,1.9-0.4l0.2,0.9c-0.4,0.2-1.2,0.4-2.3,0.4
		c-2.1,0-3.3-1.4-3.3-3.4c0-2,1.2-3.7,3.2-3.7c2.2,0,2.8,1.9,2.8,3.2c0,0.3,0,0.4,0,0.6H542.6z M546.2,279.4c0-0.8-0.3-2-1.7-2
		c-1.2,0-1.8,1.1-1.9,2H546.2z"/>
	<path class="st1" d="M548,285.2c0.3-0.8,0.7-2.3,0.8-3.3l1.4-0.1c-0.3,1.2-0.9,2.7-1.3,3.4L548,285.2z"/>
	<path class="st1" d="M551.6,273.9c-0.3,1.2-0.9,2.7-1.3,3.3l-0.8,0.1c0.3-0.8,0.7-2.3,0.8-3.3L551.6,273.9z M553.7,273.9
		c-0.3,1.2-0.9,2.7-1.3,3.3l-0.8,0.1c0.3-0.8,0.7-2.3,0.8-3.3L553.7,273.9z"/>
	<path class="st1" d="M395,300.3v-5.8h-1v-0.9h1v-0.3c0-1,0.2-1.8,0.8-2.4c0.5-0.4,1.1-0.6,1.7-0.6c0.4,0,0.8,0.1,1.1,0.2l-0.2,1
		c-0.2-0.1-0.4-0.2-0.8-0.2c-1,0-1.3,0.9-1.3,2v0.4h1.6v0.9h-1.6v5.8H395z"/>
	<path class="st1" d="M399.5,297.1c0,1.7,1.1,2.4,2.3,2.4c0.9,0,1.4-0.2,1.9-0.4l0.2,0.9c-0.4,0.2-1.2,0.4-2.3,0.4
		c-2.1,0-3.3-1.4-3.3-3.4c0-2,1.2-3.7,3.2-3.7c2.2,0,2.8,1.9,2.8,3.2c0,0.3,0,0.4,0,0.6H399.5z M403.1,296.2c0-0.8-0.3-2-1.7-2
		c-1.2,0-1.8,1.1-1.9,2H403.1z"/>
	<path class="st1" d="M409.6,300.3l-0.1-0.9h0c-0.4,0.5-1.1,1-2.1,1c-1.4,0-2.1-1-2.1-1.9c0-1.6,1.5-2.5,4.1-2.5v-0.1
		c0-0.6-0.2-1.6-1.5-1.6c-0.6,0-1.3,0.2-1.8,0.5l-0.3-0.8c0.6-0.4,1.4-0.6,2.2-0.6c2.1,0,2.6,1.4,2.6,2.8v2.5c0,0.6,0,1.2,0.1,1.6
		H409.6z M409.4,296.8c-1.3,0-2.9,0.2-2.9,1.5c0,0.8,0.5,1.2,1.2,1.2c0.9,0,1.4-0.6,1.6-1.1c0-0.1,0.1-0.3,0.1-0.4V296.8z"/>
	<path class="st1" d="M414,291.6v1.9h1.8v0.9H414v3.7c0,0.8,0.2,1.3,0.9,1.3c0.3,0,0.6,0,0.7-0.1l0.1,0.9c-0.2,0.1-0.6,0.2-1.1,0.2
		c-0.6,0-1-0.2-1.3-0.5c-0.4-0.4-0.5-1-0.5-1.8v-3.7h-1.1v-0.9h1.1v-1.6L414,291.6z"/>
	<path class="st1" d="M422.8,298.4c0,0.7,0,1.3,0.1,1.8h-1.1l-0.1-1.1h0c-0.3,0.5-1,1.3-2.2,1.3c-1.1,0-2.3-0.6-2.3-3v-4h1.2v3.8
		c0,1.3,0.4,2.2,1.5,2.2c0.8,0,1.4-0.6,1.6-1.1c0.1-0.2,0.1-0.4,0.1-0.6v-4.2h1.2V298.4z"/>
	<path class="st1" d="M424.9,295.6c0-0.8,0-1.5-0.1-2.1h1.1l0,1.3h0.1c0.3-0.9,1-1.5,1.9-1.5c0.1,0,0.2,0,0.3,0v1.2
		c-0.1,0-0.3,0-0.4,0c-0.9,0-1.5,0.7-1.7,1.6c0,0.2-0.1,0.4-0.1,0.6v3.6h-1.2V295.6z"/>
	<path class="st1" d="M430.9,291.6c0,0.4-0.3,0.8-0.8,0.8c-0.4,0-0.7-0.3-0.7-0.8c0-0.4,0.3-0.8,0.8-0.8
		C430.6,290.8,430.9,291.2,430.9,291.6z M429.5,300.3v-6.8h1.2v6.8H429.5z"/>
	<path class="st1" d="M432.8,295.4c0-0.7,0-1.3-0.1-1.8h1.1l0.1,1.1h0c0.3-0.6,1.1-1.3,2.2-1.3c0.9,0,2.4,0.6,2.4,2.9v4h-1.2v-3.9
		c0-1.1-0.4-2-1.6-2c-0.8,0-1.4,0.6-1.7,1.3c-0.1,0.2-0.1,0.4-0.1,0.6v4.1h-1.2V295.4z"/>
	<path class="st1" d="M446.4,293.5c0,0.5-0.1,1-0.1,1.9v3.9c0,1.6-0.3,2.5-1,3.1c-0.7,0.6-1.6,0.8-2.5,0.8c-0.8,0-1.7-0.2-2.3-0.6
		l0.3-0.9c0.4,0.3,1.1,0.5,2,0.5c1.3,0,2.2-0.7,2.2-2.4v-0.8h0c-0.4,0.6-1.1,1.1-2.2,1.1c-1.7,0-2.9-1.4-2.9-3.3
		c0-2.3,1.5-3.6,3.1-3.6c1.2,0,1.8,0.6,2.1,1.2h0l0.1-1H446.4z M445.1,296.2c0-0.2,0-0.4-0.1-0.6c-0.2-0.7-0.8-1.3-1.7-1.3
		c-1.2,0-2,1-2,2.6c0,1.3,0.7,2.4,2,2.4c0.8,0,1.4-0.5,1.7-1.3c0.1-0.2,0.1-0.4,0.1-0.7V296.2z"/>
	<path class="st1" d="M451.4,291c0.7-0.1,1.6-0.2,2.6-0.2c1.8,0,3,0.4,3.8,1.2c0.8,0.8,1.3,1.9,1.3,3.4c0,1.5-0.5,2.8-1.4,3.7
		c-0.9,0.9-2.3,1.4-4.2,1.4c-0.9,0-1.6,0-2.2-0.1V291z M452.6,299.3c0.3,0.1,0.8,0.1,1.2,0.1c2.6,0,4-1.5,4-4c0-2.2-1.2-3.6-3.8-3.6
		c-0.6,0-1.1,0.1-1.4,0.1V299.3z"/>
	<path class="st1" d="M460.7,295.6c0-0.8,0-1.5-0.1-2.1h1.1l0,1.3h0.1c0.3-0.9,1-1.5,1.9-1.5c0.1,0,0.2,0,0.3,0v1.2
		c-0.1,0-0.3,0-0.4,0c-0.9,0-1.5,0.7-1.7,1.6c0,0.2-0.1,0.4-0.1,0.6v3.6h-1.2V295.6z"/>
	<path class="st1" d="M468.9,300.3l-0.1-0.9h0c-0.4,0.5-1.1,1-2.1,1c-1.4,0-2.1-1-2.1-1.9c0-1.6,1.5-2.5,4.1-2.5v-0.1
		c0-0.6-0.2-1.6-1.5-1.6c-0.6,0-1.3,0.2-1.8,0.5l-0.3-0.8c0.6-0.4,1.4-0.6,2.2-0.6c2.1,0,2.6,1.4,2.6,2.8v2.5c0,0.6,0,1.2,0.1,1.6
		H468.9z M468.8,296.8c-1.3,0-2.9,0.2-2.9,1.5c0,0.8,0.5,1.2,1.2,1.2c0.9,0,1.4-0.6,1.6-1.1c0-0.1,0.1-0.3,0.1-0.4V296.8z"/>
	<path class="st1" d="M477.8,293.5c0,0.5-0.1,1-0.1,1.9v3.9c0,1.6-0.3,2.5-1,3.1c-0.7,0.6-1.6,0.8-2.5,0.8c-0.8,0-1.7-0.2-2.3-0.6
		l0.3-0.9c0.4,0.3,1.1,0.5,2,0.5c1.3,0,2.2-0.7,2.2-2.4v-0.8h0c-0.4,0.6-1.1,1.1-2.2,1.1c-1.7,0-2.9-1.4-2.9-3.3
		c0-2.3,1.5-3.6,3.1-3.6c1.2,0,1.8,0.6,2.1,1.2h0l0.1-1H477.8z M476.5,296.2c0-0.2,0-0.4-0.1-0.6c-0.2-0.7-0.8-1.3-1.7-1.3
		c-1.2,0-2,1-2,2.6c0,1.3,0.7,2.4,2,2.4c0.8,0,1.4-0.5,1.7-1.3c0.1-0.2,0.1-0.4,0.1-0.7V296.2z"/>
	<path class="st1" d="M482.8,291c0.6-0.1,1.5-0.2,2.3-0.2c1.3,0,2.1,0.2,2.7,0.8c0.5,0.4,0.7,1.1,0.7,1.8c0,1.2-0.8,2.1-1.8,2.4v0
		c0.7,0.3,1.2,0.9,1.4,1.9c0.3,1.3,0.5,2.2,0.7,2.6h-1.3c-0.2-0.3-0.4-1.1-0.6-2.3c-0.3-1.3-0.8-1.8-1.9-1.8H484v4.1h-1.2V291z
		 M484,295.3h1.2c1.3,0,2.1-0.7,2.1-1.8c0-1.2-0.9-1.8-2.2-1.8c-0.6,0-1,0.1-1.2,0.1V295.3z"/>
	<path class="st1" d="M494.2,300.3l-0.1-0.9h0c-0.4,0.5-1.1,1-2.1,1c-1.4,0-2.1-1-2.1-1.9c0-1.6,1.5-2.5,4.1-2.5v-0.1
		c0-0.6-0.2-1.6-1.5-1.6c-0.6,0-1.3,0.2-1.8,0.5l-0.3-0.8c0.6-0.4,1.4-0.6,2.2-0.6c2.1,0,2.6,1.4,2.6,2.8v2.5c0,0.6,0,1.2,0.1,1.6
		H494.2z M494,296.8c-1.3,0-2.9,0.2-2.9,1.5c0,0.8,0.5,1.2,1.2,1.2c0.9,0,1.4-0.6,1.6-1.1c0-0.1,0.1-0.3,0.1-0.4V296.8z"/>
	<path class="st1" d="M502,300c-0.3,0.2-1,0.4-1.9,0.4c-2,0-3.4-1.4-3.4-3.5c0-2.1,1.4-3.6,3.6-3.6c0.7,0,1.4,0.2,1.7,0.4l-0.3,1
		c-0.3-0.2-0.8-0.3-1.4-0.3c-1.6,0-2.4,1.1-2.4,2.6c0,1.6,1,2.5,2.4,2.5c0.7,0,1.2-0.2,1.5-0.3L502,300z"/>
	<path class="st1" d="M504,297.1c0,1.7,1.1,2.4,2.3,2.4c0.9,0,1.4-0.2,1.9-0.4l0.2,0.9c-0.4,0.2-1.2,0.4-2.3,0.4
		c-2.1,0-3.3-1.4-3.3-3.4c0-2,1.2-3.7,3.2-3.7c2.2,0,2.8,1.9,2.8,3.2c0,0.3,0,0.4,0,0.6H504z M507.7,296.2c0-0.8-0.3-2-1.7-2
		c-1.2,0-1.8,1.1-1.9,2H507.7z"/>
	<path class="st1" d="M517.1,300.3l-0.1-0.9h0c-0.4,0.5-1.1,1-2.1,1c-1.4,0-2.1-1-2.1-1.9c0-1.6,1.5-2.5,4.1-2.5v-0.1
		c0-0.6-0.2-1.6-1.5-1.6c-0.6,0-1.3,0.2-1.8,0.5l-0.3-0.8c0.6-0.4,1.4-0.6,2.2-0.6c2.1,0,2.6,1.4,2.6,2.8v2.5c0,0.6,0,1.2,0.1,1.6
		H517.1z M516.9,296.8c-1.3,0-2.9,0.2-2.9,1.5c0,0.8,0.5,1.2,1.2,1.2c0.9,0,1.4-0.6,1.6-1.1c0-0.1,0.1-0.3,0.1-0.4V296.8z"/>
	<path class="st1" d="M520.1,290.4h1.2v9.9h-1.2V290.4z"/>
	<path class="st1" d="M529.1,298.4c0,0.7,0,1.3,0.1,1.8H528l-0.1-1.1h0c-0.3,0.5-1,1.3-2.2,1.3c-1.1,0-2.3-0.6-2.3-3v-4h1.2v3.8
		c0,1.3,0.4,2.2,1.5,2.2c0.8,0,1.4-0.6,1.6-1.1c0.1-0.2,0.1-0.4,0.1-0.6v-4.2h1.2V298.4z"/>
	<path class="st1" d="M531.1,295.4c0-0.7,0-1.3-0.1-1.8h1.1l0.1,1.1h0c0.4-0.6,1-1.2,2.1-1.2c0.9,0,1.6,0.6,1.9,1.4h0
		c0.2-0.4,0.5-0.7,0.8-0.9c0.4-0.3,0.9-0.5,1.5-0.5c0.9,0,2.2,0.6,2.2,2.9v4h-1.2v-3.8c0-1.3-0.5-2.1-1.5-2.1
		c-0.7,0-1.2,0.5-1.5,1.1c-0.1,0.2-0.1,0.4-0.1,0.6v4.2h-1.2v-4.1c0-1.1-0.5-1.9-1.4-1.9c-0.8,0-1.3,0.6-1.5,1.2
		c-0.1,0.2-0.1,0.4-0.1,0.6v4.1h-1.2V295.4z"/>
	<path class="st1" d="M542.8,295.4c0-0.7,0-1.3-0.1-1.8h1.1l0.1,1.1h0c0.3-0.6,1.1-1.3,2.2-1.3c0.9,0,2.4,0.6,2.4,2.9v4h-1.2v-3.9
		c0-1.1-0.4-2-1.6-2c-0.8,0-1.4,0.6-1.7,1.3c-0.1,0.2-0.1,0.4-0.1,0.6v4.1h-1.2V295.4z"/>
	<path class="st1" d="M551.9,291.6c0,0.4-0.3,0.8-0.8,0.8c-0.4,0-0.7-0.3-0.7-0.8c0-0.4,0.3-0.8,0.8-0.8
		C551.6,290.8,551.9,291.2,551.9,291.6z M550.5,300.3v-6.8h1.2v6.8H550.5z"/>
	<path class="st1" d="M431.7,307.8c0.5-0.1,1.4-0.2,2.2-0.2c1.2,0,2,0.2,2.6,0.7c0.5,0.4,0.8,0.9,0.8,1.7c0,0.9-0.6,1.7-1.6,2.1v0
		c0.9,0.2,1.9,1,1.9,2.4c0,0.8-0.3,1.4-0.8,1.9c-0.7,0.6-1.7,0.9-3.3,0.9c-0.8,0-1.5-0.1-1.9-0.1V307.8z M433,311.6h1.1
		c1.3,0,2-0.7,2-1.6c0-1.1-0.8-1.5-2.1-1.5c-0.6,0-0.9,0-1.1,0.1V311.6z M433,316.2c0.2,0,0.6,0.1,1,0.1c1.3,0,2.4-0.5,2.4-1.8
		c0-1.3-1.1-1.8-2.4-1.8h-1V316.2z"/>
	<path class="st1" d="M445.5,313.7c0,2.5-1.7,3.6-3.4,3.6c-1.8,0-3.2-1.3-3.2-3.5c0-2.3,1.5-3.6,3.4-3.6
		C444.2,310.2,445.5,311.6,445.5,313.7z M440.1,313.7c0,1.5,0.9,2.6,2.1,2.6c1.2,0,2.1-1.1,2.1-2.6c0-1.1-0.6-2.6-2-2.6
		S440.1,312.4,440.1,313.7z"/>
	<path class="st1" d="M447,317.1c0-0.5,0.1-1.1,0.1-1.8v-8.2h1.2v4.3h0c0.4-0.8,1.2-1.2,2.3-1.2c1.7,0,2.9,1.4,2.9,3.5
		c0,2.4-1.5,3.6-3,3.6c-1,0-1.8-0.4-2.3-1.3h0l-0.1,1.1H447z M448.3,314.4c0,0.2,0,0.3,0.1,0.4c0.2,0.9,1,1.4,1.8,1.4
		c1.3,0,2.1-1.1,2.1-2.6c0-1.4-0.7-2.5-2-2.5c-0.8,0-1.6,0.6-1.9,1.5c0,0.1-0.1,0.3-0.1,0.5V314.4z"/>
	<path class="st1" d="M459.5,308.4v1.9h1.8v0.9h-1.8v3.7c0,0.8,0.2,1.3,0.9,1.3c0.3,0,0.6,0,0.7-0.1l0.1,0.9
		c-0.2,0.1-0.6,0.2-1.1,0.2c-0.6,0-1-0.2-1.3-0.5c-0.4-0.4-0.5-1-0.5-1.8v-3.7h-1.1v-0.9h1.1v-1.6L459.5,308.4z"/>
	<path class="st1" d="M462.6,307.2h1.2v4.2h0c0.2-0.4,0.5-0.7,0.9-0.9c0.4-0.2,0.8-0.4,1.3-0.4c0.9,0,2.4,0.6,2.4,2.9v4h-1.2v-3.9
		c0-1.1-0.4-2-1.6-2c-0.8,0-1.4,0.6-1.7,1.2c-0.1,0.2-0.1,0.4-0.1,0.6v4.1h-1.2V307.2z"/>
	<path class="st1" d="M471.1,313.9c0,1.7,1.1,2.4,2.3,2.4c0.9,0,1.4-0.2,1.9-0.4l0.2,0.9c-0.4,0.2-1.2,0.4-2.3,0.4
		c-2.1,0-3.3-1.4-3.3-3.4s1.2-3.7,3.2-3.7c2.2,0,2.8,1.9,2.8,3.2c0,0.3,0,0.4,0,0.6H471.1z M474.7,313c0-0.8-0.3-2-1.7-2
		c-1.2,0-1.8,1.1-1.9,2H474.7z"/>
	<path class="st1" d="M480.4,307.8c0.7-0.1,1.6-0.2,2.6-0.2c1.8,0,3,0.4,3.8,1.2c0.8,0.8,1.3,1.9,1.3,3.4c0,1.5-0.5,2.8-1.4,3.7
		c-0.9,0.9-2.3,1.4-4.2,1.4c-0.9,0-1.6,0-2.2-0.1V307.8z M481.6,316.1c0.3,0.1,0.8,0.1,1.2,0.1c2.6,0,4-1.5,4-4
		c0-2.2-1.2-3.6-3.8-3.6c-0.6,0-1.1,0.1-1.4,0.1V316.1z"/>
	<path class="st1" d="M489.7,312.4c0-0.8,0-1.5-0.1-2.1h1.1l0,1.3h0.1c0.3-0.9,1-1.5,1.9-1.5c0.1,0,0.2,0,0.3,0v1.2
		c-0.1,0-0.3,0-0.4,0c-0.9,0-1.5,0.7-1.7,1.6c0,0.2-0.1,0.4-0.1,0.6v3.6h-1.2V312.4z"/>
	<path class="st1" d="M497.9,317.1l-0.1-0.9h0c-0.4,0.5-1.1,1-2.1,1c-1.4,0-2.1-1-2.1-1.9c0-1.6,1.5-2.5,4.1-2.5v-0.1
		c0-0.6-0.2-1.6-1.5-1.6c-0.6,0-1.3,0.2-1.8,0.5l-0.3-0.8c0.6-0.4,1.4-0.6,2.2-0.6c2.1,0,2.6,1.4,2.6,2.8v2.5c0,0.6,0,1.2,0.1,1.6
		H497.9z M497.8,313.6c-1.3,0-2.9,0.2-2.9,1.5c0,0.8,0.5,1.2,1.2,1.2c0.9,0,1.4-0.6,1.6-1.1c0-0.1,0.1-0.3,0.1-0.4V313.6z"/>
	<path class="st1" d="M506.8,310.3c0,0.5-0.1,1-0.1,1.9v3.9c0,1.6-0.3,2.5-1,3.1c-0.7,0.6-1.6,0.8-2.5,0.8c-0.8,0-1.7-0.2-2.3-0.6
		l0.3-0.9c0.4,0.3,1.1,0.5,2,0.5c1.3,0,2.2-0.7,2.2-2.4v-0.8h0c-0.4,0.6-1.1,1.1-2.2,1.1c-1.7,0-2.9-1.4-2.9-3.3
		c0-2.3,1.5-3.6,3.1-3.6c1.2,0,1.8,0.6,2.1,1.2h0l0.1-1H506.8z M505.5,313c0-0.2,0-0.4-0.1-0.6c-0.2-0.7-0.8-1.3-1.7-1.3
		c-1.2,0-2,1-2,2.6c0,1.3,0.7,2.4,2,2.4c0.8,0,1.4-0.5,1.7-1.3c0.1-0.2,0.1-0.4,0.1-0.7V313z"/>
	<path class="st1" d="M519.6,318.5c-1.3-0.3-2.5-0.7-3.6-1.1c-0.2-0.1-0.4-0.1-0.6-0.1c-2.2-0.1-4.2-1.7-4.2-4.8c0-3,1.8-5,4.4-5
		c2.6,0,4.2,2,4.2,4.8c0,2.4-1.1,4-2.7,4.5v0.1c0.9,0.2,2,0.5,2.8,0.6L519.6,318.5z M518.5,312.3c0-1.9-1-3.8-3-3.8
		c-2.1,0-3.1,1.9-3.1,4c0,2,1.1,3.8,3,3.8C517.5,316.3,518.5,314.5,518.5,312.3z"/>
	<path class="st1" d="M527.1,315.2c0,0.7,0,1.3,0.1,1.8H526L526,316h0c-0.3,0.5-1,1.3-2.2,1.3c-1.1,0-2.3-0.6-2.3-3v-4h1.2v3.8
		c0,1.3,0.4,2.2,1.5,2.2c0.8,0,1.4-0.6,1.6-1.1c0.1-0.2,0.1-0.4,0.1-0.6v-4.2h1.2V315.2z"/>
	<path class="st1" d="M529.8,313.9c0,1.7,1.1,2.4,2.3,2.4c0.9,0,1.4-0.2,1.9-0.4l0.2,0.9c-0.4,0.2-1.2,0.4-2.3,0.4
		c-2.1,0-3.3-1.4-3.3-3.4s1.2-3.7,3.2-3.7c2.2,0,2.8,1.9,2.8,3.2c0,0.3,0,0.4,0,0.6H529.8z M533.4,313c0-0.8-0.3-2-1.7-2
		c-1.2,0-1.8,1.1-1.9,2H533.4z"/>
	<path class="st1" d="M536.8,313.9c0,1.7,1.1,2.4,2.3,2.4c0.9,0,1.4-0.2,1.9-0.4l0.2,0.9c-0.4,0.2-1.2,0.4-2.3,0.4
		c-2.1,0-3.3-1.4-3.3-3.4s1.2-3.7,3.2-3.7c2.2,0,2.8,1.9,2.8,3.2c0,0.3,0,0.4,0,0.6H536.8z M540.4,313c0-0.8-0.3-2-1.7-2
		c-1.2,0-1.8,1.1-1.9,2H540.4z"/>
	<path class="st1" d="M543.2,312.2c0-0.7,0-1.3-0.1-1.8h1.1l0.1,1.1h0c0.3-0.6,1.1-1.3,2.2-1.3c0.9,0,2.4,0.6,2.4,2.9v4h-1.2v-3.9
		c0-1.1-0.4-2-1.6-2c-0.8,0-1.4,0.6-1.7,1.3c-0.1,0.2-0.1,0.4-0.1,0.6v4.1h-1.2V312.2z"/>
	<path class="st1" d="M550.1,318.8c0.3-0.8,0.7-2.3,0.8-3.3l1.4-0.1c-0.3,1.2-0.9,2.7-1.3,3.4L550.1,318.8z"/>
	<path class="st1" d="M428.8,332.4c0.5,0.3,1.3,0.6,2.2,0.6c1.2,0,2-0.7,2-1.6c0-0.9-0.5-1.4-1.8-1.9c-1.5-0.5-2.5-1.3-2.5-2.7
		c0-1.5,1.2-2.6,3.1-2.6c1,0,1.7,0.2,2.1,0.5l-0.3,1c-0.3-0.2-0.9-0.4-1.8-0.4c-1.3,0-1.8,0.8-1.8,1.4c0,0.9,0.6,1.3,1.9,1.8
		c1.6,0.6,2.4,1.4,2.4,2.8c0,1.5-1.1,2.7-3.3,2.7c-0.9,0-1.9-0.3-2.4-0.6L428.8,332.4z"/>
	<path class="st1" d="M435.9,324h1.2v4.2h0c0.2-0.4,0.5-0.7,0.9-0.9c0.4-0.2,0.8-0.4,1.3-0.4c0.9,0,2.4,0.6,2.4,2.9v4h-1.2V330
		c0-1.1-0.4-2-1.6-2c-0.8,0-1.4,0.6-1.7,1.2c-0.1,0.2-0.1,0.4-0.1,0.6v4.1h-1.2V324z"/>
	<path class="st1" d="M447.4,333.9l-0.1-0.9h0c-0.4,0.5-1.1,1-2.1,1c-1.4,0-2.1-1-2.1-1.9c0-1.6,1.5-2.5,4.1-2.5v-0.1
		c0-0.6-0.2-1.6-1.5-1.6c-0.6,0-1.3,0.2-1.8,0.5l-0.3-0.8c0.6-0.4,1.4-0.6,2.2-0.6c2.1,0,2.6,1.4,2.6,2.8v2.5c0,0.6,0,1.2,0.1,1.6
		H447.4z M447.2,330.4c-1.3,0-2.9,0.2-2.9,1.5c0,0.8,0.5,1.2,1.2,1.2c0.9,0,1.4-0.6,1.6-1.1c0-0.1,0.1-0.3,0.1-0.4V330.4z"/>
	<path class="st1" d="M450.4,329c0-0.7,0-1.3-0.1-1.8h1.1l0.1,1.1h0c0.3-0.6,1.1-1.3,2.2-1.3c0.9,0,2.4,0.6,2.4,2.9v4h-1.2V330
		c0-1.1-0.4-2-1.6-2c-0.8,0-1.4,0.6-1.7,1.3c-0.1,0.2-0.1,0.4-0.1,0.6v4.1h-1.2V329z"/>
	<path class="st1" d="M464,327.1c0,0.5-0.1,1-0.1,1.9v3.9c0,1.6-0.3,2.5-1,3.1c-0.7,0.6-1.6,0.8-2.5,0.8c-0.8,0-1.7-0.2-2.3-0.6
		l0.3-0.9c0.4,0.3,1.1,0.5,2,0.5c1.3,0,2.2-0.7,2.2-2.4v-0.8h0c-0.4,0.6-1.1,1.1-2.2,1.1c-1.7,0-2.9-1.4-2.9-3.3
		c0-2.3,1.5-3.6,3.1-3.6c1.2,0,1.8,0.6,2.1,1.2h0l0.1-1H464z M462.7,329.8c0-0.2,0-0.4-0.1-0.6c-0.2-0.7-0.8-1.3-1.7-1.3
		c-1.2,0-2,1-2,2.6c0,1.3,0.7,2.4,2,2.4c0.8,0,1.4-0.5,1.7-1.3c0.1-0.2,0.1-0.4,0.1-0.7V329.8z"/>
	<path class="st1" d="M466.7,330.7c0,1.7,1.1,2.4,2.3,2.4c0.9,0,1.4-0.2,1.9-0.4l0.2,0.9c-0.4,0.2-1.2,0.4-2.3,0.4
		c-2.1,0-3.3-1.4-3.3-3.4s1.2-3.7,3.2-3.7c2.2,0,2.8,1.9,2.8,3.2c0,0.3,0,0.4,0,0.6H466.7z M470.3,329.8c0-0.8-0.3-2-1.7-2
		c-1.2,0-1.8,1.1-1.9,2H470.3z"/>
	<path class="st1" d="M473,324h1.2v9.9H473V324z"/>
	<path class="st1" d="M480.1,333.9L480,333h0c-0.4,0.5-1.1,1-2.1,1c-1.4,0-2.1-1-2.1-1.9c0-1.6,1.5-2.5,4.1-2.5v-0.1
		c0-0.6-0.2-1.6-1.5-1.6c-0.6,0-1.3,0.2-1.8,0.5l-0.3-0.8c0.6-0.4,1.4-0.6,2.2-0.6c2.1,0,2.6,1.4,2.6,2.8v2.5c0,0.6,0,1.2,0.1,1.6
		H480.1z M479.9,330.4c-1.3,0-2.9,0.2-2.9,1.5c0,0.8,0.5,1.2,1.2,1.2c0.9,0,1.4-0.6,1.6-1.1c0-0.1,0.1-0.3,0.1-0.4V330.4z"/>
	<path class="st1" d="M489.8,333.9l-0.1-0.9h0c-0.4,0.5-1.1,1-2.1,1c-1.4,0-2.1-1-2.1-1.9c0-1.6,1.5-2.5,4.1-2.5v-0.1
		c0-0.6-0.2-1.6-1.5-1.6c-0.6,0-1.3,0.2-1.8,0.5l-0.3-0.8c0.6-0.4,1.4-0.6,2.2-0.6c2.1,0,2.6,1.4,2.6,2.8v2.5c0,0.6,0,1.2,0.1,1.6
		H489.8z M489.6,330.4c-1.3,0-2.9,0.2-2.9,1.5c0,0.8,0.5,1.2,1.2,1.2c0.9,0,1.4-0.6,1.6-1.1c0-0.1,0.1-0.3,0.1-0.4V330.4z"/>
	<path class="st1" d="M492.8,329c0-0.7,0-1.3-0.1-1.8h1.1l0.1,1.1h0c0.3-0.6,1.1-1.3,2.2-1.3c0.9,0,2.4,0.6,2.4,2.9v4h-1.2V330
		c0-1.1-0.4-2-1.6-2c-0.8,0-1.4,0.6-1.7,1.3c-0.1,0.2-0.1,0.4-0.1,0.6v4.1h-1.2V329z"/>
	<path class="st1" d="M506.4,324v8.2c0,0.6,0,1.3,0.1,1.8h-1.1l-0.1-1.2h0c-0.4,0.8-1.2,1.3-2.3,1.3c-1.6,0-2.9-1.4-2.9-3.4
		c0-2.3,1.4-3.6,3-3.6c1,0,1.7,0.5,2,1h0v-4H506.4z M505.2,329.9c0-0.2,0-0.4-0.1-0.5c-0.2-0.8-0.9-1.4-1.8-1.4c-1.3,0-2,1.1-2,2.6
		c0,1.4,0.7,2.5,2,2.5c0.8,0,1.6-0.5,1.8-1.5c0-0.2,0.1-0.3,0.1-0.5V329.9z"/>
	<path class="st1" d="M516.3,329.5h-3.7v3.4h4.1v1h-5.3v-9.4h5.1v1h-3.9v3h3.7V329.5z"/>
	<path class="st1" d="M523.9,332c0,0.7,0,1.3,0.1,1.8h-1.1l-0.1-1.1h0c-0.3,0.5-1,1.3-2.2,1.3c-1.1,0-2.3-0.6-2.3-3v-4h1.2v3.8
		c0,1.3,0.4,2.2,1.5,2.2c0.8,0,1.4-0.6,1.6-1.1c0.1-0.2,0.1-0.4,0.1-0.6v-4.2h1.2V332z"/>
	<path class="st1" d="M525.9,329.2c0-0.8,0-1.5-0.1-2.1h1.1l0,1.3h0.1c0.3-0.9,1-1.5,1.9-1.5c0.1,0,0.2,0,0.3,0v1.2
		c-0.1,0-0.3,0-0.4,0c-0.9,0-1.5,0.7-1.7,1.6c0,0.2-0.1,0.4-0.1,0.6v3.6h-1.2V329.2z"/>
	<path class="st1" d="M531,330.7c0,1.7,1.1,2.4,2.3,2.4c0.9,0,1.4-0.2,1.9-0.4l0.2,0.9c-0.4,0.2-1.2,0.4-2.3,0.4
		c-2.1,0-3.3-1.4-3.3-3.4s1.2-3.7,3.2-3.7c2.2,0,2.8,1.9,2.8,3.2c0,0.3,0,0.4,0,0.6H531z M534.6,329.8c0-0.8-0.3-2-1.7-2
		c-1.2,0-1.8,1.1-1.9,2H534.6z"/>
	<path class="st1" d="M538.6,330.2L538.6,330.2c0.2-0.2,0.4-0.5,0.6-0.8l2-2.3h1.5l-2.6,2.8l3,4h-1.5l-2.3-3.2l-0.6,0.7v2.5h-1.2
		V324h1.2V330.2z"/>
	<path class="st1" d="M547.9,333.9l-0.1-0.9h0c-0.4,0.5-1.1,1-2.1,1c-1.4,0-2.1-1-2.1-1.9c0-1.6,1.5-2.5,4.1-2.5v-0.1
		c0-0.6-0.2-1.6-1.5-1.6c-0.6,0-1.3,0.2-1.8,0.5l-0.3-0.8c0.6-0.4,1.4-0.6,2.2-0.6c2.1,0,2.6,1.4,2.6,2.8v2.5c0,0.6,0,1.2,0.1,1.6
		H547.9z M547.7,330.4c-1.3,0-2.9,0.2-2.9,1.5c0,0.8,0.5,1.2,1.2,1.2c0.9,0,1.4-0.6,1.6-1.1c0-0.1,0.1-0.3,0.1-0.4V330.4z"/>
	<path class="st1" d="M550.6,333.2c0-0.5,0.3-0.9,0.8-0.9c0.5,0,0.8,0.4,0.8,0.9c0,0.5-0.3,0.9-0.8,0.9
		C551,334.1,550.6,333.7,550.6,333.2z"/>
	<path class="st1" d="M419.4,342.3h-2.9v-1h7v1h-2.9v8.4h-1.2V342.3z"/>
	<path class="st1" d="M424.5,340.8h1.2v4.2h0c0.2-0.4,0.5-0.7,0.9-0.9c0.4-0.2,0.8-0.4,1.3-0.4c0.9,0,2.4,0.6,2.4,2.9v4H429v-3.9
		c0-1.1-0.4-2-1.6-2c-0.8,0-1.4,0.6-1.7,1.2c-0.1,0.2-0.1,0.4-0.1,0.6v4.1h-1.2V340.8z"/>
	<path class="st1" d="M432.9,347.5c0,1.7,1.1,2.4,2.3,2.4c0.9,0,1.4-0.2,1.9-0.4l0.2,0.9c-0.4,0.2-1.2,0.4-2.3,0.4
		c-2.1,0-3.3-1.4-3.3-3.4c0-2,1.2-3.7,3.2-3.7c2.2,0,2.8,1.9,2.8,3.2c0,0.3,0,0.4,0,0.6H432.9z M436.5,346.6c0-0.8-0.3-2-1.7-2
		c-1.2,0-1.8,1.1-1.9,2H436.5z"/>
	<path class="st1" d="M442,349.4c0.4,0.2,1,0.5,1.6,0.5c0.9,0,1.3-0.4,1.3-1c0-0.6-0.3-0.9-1.3-1.2c-1.2-0.4-1.8-1.1-1.8-1.9
		c0-1.1,0.9-2,2.3-2c0.7,0,1.3,0.2,1.7,0.4l-0.3,0.9c-0.3-0.2-0.8-0.4-1.4-0.4c-0.7,0-1.1,0.4-1.1,0.9c0,0.6,0.4,0.8,1.3,1.1
		c1.2,0.4,1.8,1,1.8,2c0,1.2-0.9,2-2.5,2c-0.7,0-1.4-0.2-1.9-0.5L442,349.4z"/>
	<path class="st1" d="M448.4,347.5c0,1.7,1.1,2.4,2.3,2.4c0.9,0,1.4-0.2,1.9-0.4l0.2,0.9c-0.4,0.2-1.2,0.4-2.3,0.4
		c-2.1,0-3.3-1.4-3.3-3.4c0-2,1.2-3.7,3.2-3.7c2.2,0,2.8,1.9,2.8,3.2c0,0.3,0,0.4,0,0.6H448.4z M452.1,346.6c0-0.8-0.3-2-1.7-2
		c-1.2,0-1.8,1.1-1.9,2H452.1z"/>
	<path class="st1" d="M454.8,346c0-0.8,0-1.5-0.1-2.1h1.1l0,1.3h0.1c0.3-0.9,1-1.5,1.9-1.5c0.1,0,0.2,0,0.3,0v1.2
		c-0.1,0-0.3,0-0.4,0c-0.9,0-1.5,0.7-1.7,1.6c0,0.2-0.1,0.4-0.1,0.6v3.6h-1.2V346z"/>
	<path class="st1" d="M460.8,342c0,0.4-0.3,0.8-0.8,0.8c-0.4,0-0.7-0.3-0.7-0.8c0-0.4,0.3-0.8,0.8-0.8
		C460.5,341.2,460.8,341.6,460.8,342z M459.4,350.7v-6.8h1.2v6.8H459.4z"/>
	<path class="st1" d="M463.4,347.5c0,1.7,1.1,2.4,2.3,2.4c0.9,0,1.4-0.2,1.9-0.4l0.2,0.9c-0.4,0.2-1.2,0.4-2.3,0.4
		c-2.1,0-3.3-1.4-3.3-3.4c0-2,1.2-3.7,3.2-3.7c2.2,0,2.8,1.9,2.8,3.2c0,0.3,0,0.4,0,0.6H463.4z M467,346.6c0-0.8-0.3-2-1.7-2
		c-1.2,0-1.8,1.1-1.9,2H467z"/>
	<path class="st1" d="M469.5,349.4c0.4,0.2,1,0.5,1.6,0.5c0.9,0,1.3-0.4,1.3-1c0-0.6-0.3-0.9-1.3-1.2c-1.2-0.4-1.8-1.1-1.8-1.9
		c0-1.1,0.9-2,2.3-2c0.7,0,1.3,0.2,1.7,0.4l-0.3,0.9c-0.3-0.2-0.8-0.4-1.4-0.4c-0.7,0-1.1,0.4-1.1,0.9c0,0.6,0.4,0.8,1.3,1.1
		c1.2,0.4,1.8,1,1.8,2c0,1.2-0.9,2-2.5,2c-0.7,0-1.4-0.2-1.9-0.5L469.5,349.4z"/>
	<path class="st1" d="M478.3,350.7v-5.8h-1v-0.9h1v-0.3c0-1,0.2-1.8,0.8-2.4c0.5-0.4,1.1-0.6,1.7-0.6c0.4,0,0.8,0.1,1.1,0.2l-0.2,1
		c-0.2-0.1-0.4-0.2-0.8-0.2c-1,0-1.3,0.9-1.3,2v0.4h1.6v0.9h-1.6v5.8H478.3z"/>
	<path class="st1" d="M488.3,347.3c0,2.5-1.7,3.6-3.4,3.6c-1.8,0-3.2-1.3-3.2-3.5c0-2.3,1.5-3.6,3.4-3.6
		C486.9,343.8,488.3,345.2,488.3,347.3z M482.9,347.3c0,1.5,0.9,2.6,2.1,2.6c1.2,0,2.1-1.1,2.1-2.6c0-1.1-0.6-2.6-2-2.6
		S482.9,346,482.9,347.3z"/>
	<path class="st1" d="M489.8,340.8h1.2v9.9h-1.2V340.8z"/>
	<path class="st1" d="M493.1,340.8h1.2v9.9h-1.2V340.8z"/>
	<path class="st1" d="M502.5,347.3c0,2.5-1.7,3.6-3.4,3.6c-1.8,0-3.2-1.3-3.2-3.5c0-2.3,1.5-3.6,3.4-3.6
		C501.2,343.8,502.5,345.2,502.5,347.3z M497.2,347.3c0,1.5,0.9,2.6,2.1,2.6c1.2,0,2.1-1.1,2.1-2.6c0-1.1-0.6-2.6-2-2.6
		S497.2,346,497.2,347.3z"/>
	<path class="st1" d="M504.5,343.9l0.9,3.4c0.2,0.8,0.4,1.5,0.5,2.2h0c0.2-0.7,0.4-1.4,0.6-2.1l1.1-3.5h1l1.1,3.4
		c0.3,0.8,0.4,1.5,0.6,2.2h0c0.1-0.7,0.3-1.4,0.5-2.2l1-3.4h1.2l-2.2,6.8h-1.1l-1-3.2c-0.2-0.8-0.4-1.4-0.6-2.2h0
		c-0.2,0.8-0.4,1.5-0.6,2.2l-1.1,3.2h-1.1l-2-6.8H504.5z"/>
	<path class="st1" d="M514,349.4c0.4,0.2,1,0.5,1.6,0.5c0.9,0,1.3-0.4,1.3-1c0-0.6-0.3-0.9-1.3-1.2c-1.2-0.4-1.8-1.1-1.8-1.9
		c0-1.1,0.9-2,2.3-2c0.7,0,1.3,0.2,1.7,0.4l-0.3,0.9c-0.3-0.2-0.8-0.4-1.4-0.4c-0.7,0-1.1,0.4-1.1,0.9c0,0.6,0.4,0.8,1.3,1.1
		c1.2,0.4,1.8,1,1.8,2c0,1.2-0.9,2-2.5,2c-0.7,0-1.4-0.2-1.9-0.5L514,349.4z"/>
	<path class="st1" d="M524.2,342v1.9h1.8v0.9h-1.8v3.7c0,0.8,0.2,1.3,0.9,1.3c0.3,0,0.6,0,0.7-0.1l0.1,0.9c-0.2,0.1-0.6,0.2-1.1,0.2
		c-0.6,0-1-0.2-1.3-0.5c-0.4-0.4-0.5-1-0.5-1.8v-3.7H522v-0.9h1.1v-1.6L524.2,342z"/>
	<path class="st1" d="M527.4,340.8h1.2v4.2h0c0.2-0.4,0.5-0.7,0.9-0.9c0.4-0.2,0.8-0.4,1.3-0.4c0.9,0,2.4,0.6,2.4,2.9v4h-1.2v-3.9
		c0-1.1-0.4-2-1.6-2c-0.8,0-1.4,0.6-1.7,1.2c-0.1,0.2-0.1,0.4-0.1,0.6v4.1h-1.2V340.8z"/>
	<path class="st1" d="M535.8,347.5c0,1.7,1.1,2.4,2.3,2.4c0.9,0,1.4-0.2,1.9-0.4l0.2,0.9c-0.4,0.2-1.2,0.4-2.3,0.4
		c-2.1,0-3.3-1.4-3.3-3.4c0-2,1.2-3.7,3.2-3.7c2.2,0,2.8,1.9,2.8,3.2c0,0.3,0,0.4,0,0.6H535.8z M539.4,346.6c0-0.8-0.3-2-1.7-2
		c-1.2,0-1.8,1.1-1.9,2H539.4z"/>
	<path class="st1" d="M542.1,345.8c0-0.7,0-1.3-0.1-1.8h1.1l0.1,1.1h0c0.4-0.6,1-1.2,2.1-1.2c0.9,0,1.6,0.6,1.9,1.4h0
		c0.2-0.4,0.5-0.7,0.8-0.9c0.4-0.3,0.9-0.5,1.5-0.5c0.9,0,2.2,0.6,2.2,2.9v4h-1.2v-3.8c0-1.3-0.5-2.1-1.5-2.1
		c-0.7,0-1.2,0.5-1.5,1.1c-0.1,0.2-0.1,0.4-0.1,0.6v4.2h-1.2v-4.1c0-1.1-0.5-1.9-1.4-1.9c-0.8,0-1.3,0.6-1.5,1.2
		c-0.1,0.2-0.1,0.4-0.1,0.6v4.1h-1.2V345.8z"/>
	<path class="st1" d="M412.4,360.7c0,0.5-0.1,1-0.1,1.9v3.9c0,1.6-0.3,2.5-1,3.1c-0.7,0.6-1.6,0.8-2.5,0.8c-0.8,0-1.7-0.2-2.3-0.6
		l0.3-0.9c0.4,0.3,1.1,0.5,2,0.5c1.3,0,2.2-0.7,2.2-2.4v-0.8h0c-0.4,0.6-1.1,1.1-2.2,1.1c-1.7,0-2.9-1.4-2.9-3.3
		c0-2.3,1.5-3.6,3.1-3.6c1.2,0,1.8,0.6,2.1,1.2h0l0.1-1H412.4z M411.2,363.4c0-0.2,0-0.4-0.1-0.6c-0.2-0.7-0.8-1.3-1.7-1.3
		c-1.2,0-2,1-2,2.6c0,1.3,0.7,2.4,2,2.4c0.8,0,1.4-0.5,1.7-1.3c0.1-0.2,0.1-0.4,0.1-0.7V363.4z"/>
	<path class="st1" d="M420.5,364.1c0,2.5-1.7,3.6-3.4,3.6c-1.8,0-3.2-1.3-3.2-3.5c0-2.3,1.5-3.6,3.4-3.6
		C419.2,360.6,420.5,362,420.5,364.1z M415.2,364.1c0,1.5,0.9,2.6,2.1,2.6c1.2,0,2.1-1.1,2.1-2.6c0-1.1-0.6-2.6-2-2.6
		S415.2,362.8,415.2,364.1z"/>
	<path class="st1" d="M423.5,358.8c0,0.4-0.3,0.8-0.8,0.8c-0.4,0-0.7-0.3-0.7-0.8c0-0.4,0.3-0.8,0.8-0.8
		C423.2,358,423.5,358.4,423.5,358.8z M422.1,367.5v-6.8h1.2v6.8H422.1z"/>
	<path class="st1" d="M425.4,362.6c0-0.7,0-1.3-0.1-1.8h1.1l0.1,1.1h0c0.3-0.6,1.1-1.3,2.2-1.3c0.9,0,2.4,0.6,2.4,2.9v4h-1.2v-3.9
		c0-1.1-0.4-2-1.6-2c-0.8,0-1.4,0.6-1.7,1.3c-0.1,0.2-0.1,0.4-0.1,0.6v4.1h-1.2V362.6z"/>
	<path class="st1" d="M439,360.7c0,0.5-0.1,1-0.1,1.9v3.9c0,1.6-0.3,2.5-1,3.1c-0.7,0.6-1.6,0.8-2.5,0.8c-0.8,0-1.7-0.2-2.3-0.6
		l0.3-0.9c0.4,0.3,1.1,0.5,2,0.5c1.3,0,2.2-0.7,2.2-2.4v-0.8h0c-0.4,0.6-1.1,1.1-2.2,1.1c-1.7,0-2.9-1.4-2.9-3.3
		c0-2.3,1.5-3.6,3.1-3.6c1.2,0,1.8,0.6,2.1,1.2h0l0.1-1H439z M437.7,363.4c0-0.2,0-0.4-0.1-0.6c-0.2-0.7-0.8-1.3-1.7-1.3
		c-1.2,0-2,1-2,2.6c0,1.3,0.7,2.4,2,2.4c0.8,0,1.4-0.5,1.7-1.3c0.1-0.2,0.1-0.4,0.1-0.7V363.4z"/>
	<path class="st1" d="M445.4,358.8v1.9h1.8v0.9h-1.8v3.7c0,0.8,0.2,1.3,0.9,1.3c0.3,0,0.6,0,0.7-0.1l0.1,0.9
		c-0.2,0.1-0.6,0.2-1.1,0.2c-0.6,0-1-0.2-1.3-0.5c-0.4-0.4-0.5-1-0.5-1.8v-3.7h-1.1v-0.9h1.1v-1.6L445.4,358.8z"/>
	<path class="st1" d="M454.6,364.1c0,2.5-1.7,3.6-3.4,3.6c-1.8,0-3.2-1.3-3.2-3.5c0-2.3,1.5-3.6,3.4-3.6
		C453.3,360.6,454.6,362,454.6,364.1z M449.2,364.1c0,1.5,0.9,2.6,2.1,2.6c1.2,0,2.1-1.1,2.1-2.6c0-1.1-0.6-2.6-2-2.6
		S449.2,362.8,449.2,364.1z"/>
	<path class="st1" d="M459,366.2c0.4,0.2,1,0.5,1.6,0.5c0.9,0,1.3-0.4,1.3-1c0-0.6-0.3-0.9-1.3-1.2c-1.2-0.4-1.8-1.1-1.8-1.9
		c0-1.1,0.9-2,2.3-2c0.7,0,1.3,0.2,1.7,0.4l-0.3,0.9c-0.3-0.2-0.8-0.4-1.4-0.4c-0.7,0-1.1,0.4-1.1,0.9c0,0.6,0.4,0.8,1.3,1.1
		c1.2,0.4,1.8,1,1.8,2c0,1.2-0.9,2-2.5,2c-0.7,0-1.4-0.2-1.9-0.5L459,366.2z"/>
	<path class="st1" d="M464.7,362.6c0-0.7,0-1.3-0.1-1.8h1.1l0.1,1.1h0c0.4-0.6,1-1.2,2.1-1.2c0.9,0,1.6,0.6,1.9,1.4h0
		c0.2-0.4,0.5-0.7,0.8-0.9c0.4-0.3,0.9-0.5,1.5-0.5c0.9,0,2.2,0.6,2.2,2.9v4h-1.2v-3.8c0-1.3-0.5-2.1-1.5-2.1
		c-0.7,0-1.2,0.5-1.5,1.1c-0.1,0.2-0.1,0.4-0.1,0.6v4.2h-1.2v-4.1c0-1.1-0.5-1.9-1.4-1.9c-0.8,0-1.3,0.6-1.5,1.2
		c-0.1,0.2-0.1,0.4-0.1,0.6v4.1h-1.2V362.6z"/>
	<path class="st1" d="M480.1,367.5l-0.1-0.9h0c-0.4,0.5-1.1,1-2.1,1c-1.4,0-2.1-1-2.1-1.9c0-1.6,1.5-2.5,4.1-2.5V363
		c0-0.6-0.2-1.6-1.5-1.6c-0.6,0-1.3,0.2-1.8,0.5l-0.3-0.8c0.6-0.4,1.4-0.6,2.2-0.6c2.1,0,2.6,1.4,2.6,2.8v2.5c0,0.6,0,1.2,0.1,1.6
		H480.1z M479.9,364c-1.3,0-2.9,0.2-2.9,1.5c0,0.8,0.5,1.2,1.2,1.2c0.9,0,1.4-0.6,1.6-1.1c0-0.1,0.1-0.3,0.1-0.4V364z"/>
	<path class="st1" d="M483.1,357.6h1.2v9.9h-1.2V357.6z"/>
	<path class="st1" d="M486.4,357.6h1.2v9.9h-1.2V357.6z"/>
	<path class="st1" d="M494.2,358.8v1.9h1.8v0.9h-1.8v3.7c0,0.8,0.2,1.3,0.9,1.3c0.3,0,0.6,0,0.7-0.1l0.1,0.9
		c-0.2,0.1-0.6,0.2-1.1,0.2c-0.6,0-1-0.2-1.3-0.5c-0.4-0.4-0.5-1-0.5-1.8v-3.7h-1.1v-0.9h1.1v-1.6L494.2,358.8z"/>
	<path class="st1" d="M503.4,364.1c0,2.5-1.7,3.6-3.4,3.6c-1.8,0-3.2-1.3-3.2-3.5c0-2.3,1.5-3.6,3.4-3.6
		C502.1,360.6,503.4,362,503.4,364.1z M498,364.1c0,1.5,0.9,2.6,2.1,2.6c1.2,0,2.1-1.1,2.1-2.6c0-1.1-0.6-2.6-2-2.6
		S498,362.8,498,364.1z"/>
	<path class="st1" d="M505.3,360.7l0.9,3.4c0.2,0.8,0.4,1.5,0.5,2.2h0c0.2-0.7,0.4-1.4,0.6-2.1l1.1-3.5h1l1.1,3.4
		c0.3,0.8,0.4,1.5,0.6,2.2h0c0.1-0.7,0.3-1.4,0.5-2.2l1-3.4h1.2l-2.2,6.8h-1.1l-1-3.2c-0.2-0.8-0.4-1.4-0.6-2.2h0
		c-0.2,0.8-0.4,1.5-0.6,2.2l-1.1,3.2h-1.1l-2-6.8H505.3z"/>
	<path class="st1" d="M515.1,362.6c0-0.7,0-1.3-0.1-1.8h1.1l0.1,1.1h0c0.3-0.6,1.1-1.3,2.2-1.3c0.9,0,2.4,0.6,2.4,2.9v4h-1.2v-3.9
		c0-1.1-0.4-2-1.6-2c-0.8,0-1.4,0.6-1.7,1.3c-0.1,0.2-0.1,0.4-0.1,0.6v4.1h-1.2V362.6z"/>
	<path class="st1" d="M522.7,366.2c0.4,0.2,1,0.5,1.6,0.5c0.9,0,1.3-0.4,1.3-1c0-0.6-0.3-0.9-1.3-1.2c-1.2-0.4-1.8-1.1-1.8-1.9
		c0-1.1,0.9-2,2.3-2c0.7,0,1.3,0.2,1.7,0.4l-0.3,0.9c-0.3-0.2-0.8-0.4-1.4-0.4c-0.7,0-1.1,0.4-1.1,0.9c0,0.6,0.4,0.8,1.3,1.1
		c1.2,0.4,1.8,1,1.8,2c0,1.2-0.9,2-2.5,2c-0.7,0-1.4-0.2-1.9-0.5L522.7,366.2z"/>
	<path class="st1" d="M535.2,367.5l-0.1-0.9h0c-0.4,0.5-1.1,1-2.1,1c-1.4,0-2.1-1-2.1-1.9c0-1.6,1.5-2.5,4.1-2.5V363
		c0-0.6-0.2-1.6-1.5-1.6c-0.6,0-1.3,0.2-1.8,0.5l-0.3-0.8c0.6-0.4,1.4-0.6,2.2-0.6c2.1,0,2.6,1.4,2.6,2.8v2.5c0,0.6,0,1.2,0.1,1.6
		H535.2z M535,364c-1.3,0-2.9,0.2-2.9,1.5c0,0.8,0.5,1.2,1.2,1.2c0.9,0,1.4-0.6,1.6-1.1c0-0.1,0.1-0.3,0.1-0.4V364z"/>
	<path class="st1" d="M538.2,362.6c0-0.7,0-1.3-0.1-1.8h1.1l0.1,1.1h0c0.3-0.6,1.1-1.3,2.2-1.3c0.9,0,2.4,0.6,2.4,2.9v4h-1.2v-3.9
		c0-1.1-0.4-2-1.6-2c-0.8,0-1.4,0.6-1.7,1.3c-0.1,0.2-0.1,0.4-0.1,0.6v4.1h-1.2V362.6z"/>
	<path class="st1" d="M551.8,357.6v8.2c0,0.6,0,1.3,0.1,1.8h-1.1l-0.1-1.2h0c-0.4,0.8-1.2,1.3-2.3,1.3c-1.6,0-2.9-1.4-2.9-3.4
		c0-2.3,1.4-3.6,3-3.6c1,0,1.7,0.5,2,1h0v-4H551.8z M550.5,363.5c0-0.2,0-0.4-0.1-0.5c-0.2-0.8-0.9-1.4-1.8-1.4c-1.3,0-2,1.1-2,2.6
		c0,1.4,0.7,2.5,2,2.5c0.8,0,1.6-0.5,1.8-1.5c0-0.2,0.1-0.3,0.1-0.5V363.5z"/>
	<path class="st1" d="M406.9,381.1c0,1.7,1.1,2.4,2.3,2.4c0.9,0,1.4-0.2,1.9-0.4l0.2,0.9c-0.4,0.2-1.2,0.4-2.3,0.4
		c-2.1,0-3.3-1.4-3.3-3.4s1.2-3.7,3.2-3.7c2.2,0,2.8,1.9,2.8,3.2c0,0.3,0,0.4,0,0.6H406.9z M410.6,380.2c0-0.8-0.3-2-1.7-2
		c-1.2,0-1.8,1.1-1.9,2H410.6z"/>
	<path class="st1" d="M413.3,379.4c0-0.7,0-1.3-0.1-1.8h1.1l0.1,1.1h0c0.4-0.6,1-1.2,2.1-1.2c0.9,0,1.6,0.6,1.9,1.4h0
		c0.2-0.4,0.5-0.7,0.8-0.9c0.4-0.3,0.9-0.5,1.5-0.5c0.9,0,2.2,0.6,2.2,2.9v4h-1.2v-3.8c0-1.3-0.5-2.1-1.5-2.1
		c-0.7,0-1.2,0.5-1.5,1.1c-0.1,0.2-0.1,0.4-0.1,0.6v4.2h-1.2v-4.1c0-1.1-0.5-1.9-1.4-1.9c-0.8,0-1.3,0.6-1.5,1.2
		c-0.1,0.2-0.1,0.4-0.1,0.6v4.1h-1.2V379.4z"/>
	<path class="st1" d="M424.9,379.7c0-0.9,0-1.6-0.1-2.2h1.1l0.1,1.2h0c0.5-0.8,1.3-1.3,2.4-1.3c1.6,0,2.9,1.4,2.9,3.4
		c0,2.4-1.5,3.6-3.1,3.6c-0.9,0-1.7-0.4-2.1-1.1h0v3.7h-1.2V379.7z M426.2,381.5c0,0.2,0,0.4,0.1,0.5c0.2,0.9,1,1.4,1.8,1.4
		c1.3,0,2.1-1.1,2.1-2.6c0-1.4-0.7-2.5-2-2.5c-0.8,0-1.6,0.6-1.9,1.5c0,0.2-0.1,0.3-0.1,0.5V381.5z"/>
	<path class="st1" d="M439,380.9c0,2.5-1.7,3.6-3.4,3.6c-1.8,0-3.2-1.3-3.2-3.5c0-2.3,1.5-3.6,3.4-3.6
		C437.7,377.4,439,378.8,439,380.9z M433.7,380.9c0,1.5,0.9,2.6,2.1,2.6c1.2,0,2.1-1.1,2.1-2.6c0-1.1-0.6-2.6-2-2.6
		S433.7,379.6,433.7,380.9z"/>
	<path class="st1" d="M441,377.5l0.9,3.4c0.2,0.8,0.4,1.5,0.5,2.2h0c0.2-0.7,0.4-1.4,0.6-2.1l1.1-3.5h1l1.1,3.4
		c0.3,0.8,0.4,1.5,0.6,2.2h0c0.1-0.7,0.3-1.4,0.5-2.2l1-3.4h1.2l-2.2,6.8h-1.1l-1-3.2c-0.2-0.8-0.4-1.4-0.6-2.2h0
		c-0.2,0.8-0.4,1.5-0.6,2.2l-1.1,3.2h-1.1l-2-6.8H441z"/>
	<path class="st1" d="M451.3,381.1c0,1.7,1.1,2.4,2.3,2.4c0.9,0,1.4-0.2,1.9-0.4l0.2,0.9c-0.4,0.2-1.2,0.4-2.3,0.4
		c-2.1,0-3.3-1.4-3.3-3.4s1.2-3.7,3.2-3.7c2.2,0,2.8,1.9,2.8,3.2c0,0.3,0,0.4,0,0.6H451.3z M455,380.2c0-0.8-0.3-2-1.7-2
		c-1.2,0-1.8,1.1-1.9,2H455z"/>
	<path class="st1" d="M457.7,379.6c0-0.8,0-1.5-0.1-2.1h1.1l0,1.3h0.1c0.3-0.9,1-1.5,1.9-1.5c0.1,0,0.2,0,0.3,0v1.2
		c-0.1,0-0.3,0-0.4,0c-0.9,0-1.5,0.7-1.7,1.6c0,0.2-0.1,0.4-0.1,0.6v3.6h-1.2V379.6z"/>
	<path class="st1" d="M463.7,375.6c0,0.4-0.3,0.8-0.8,0.8c-0.4,0-0.7-0.3-0.7-0.8c0-0.4,0.3-0.8,0.8-0.8
		C463.4,374.8,463.7,375.2,463.7,375.6z M462.3,384.3v-6.8h1.2v6.8H462.3z"/>
	<path class="st1" d="M465.6,379.4c0-0.7,0-1.3-0.1-1.8h1.1l0.1,1.1h0c0.3-0.6,1.1-1.3,2.2-1.3c0.9,0,2.4,0.6,2.4,2.9v4h-1.2v-3.9
		c0-1.1-0.4-2-1.6-2c-0.8,0-1.4,0.6-1.7,1.3c-0.1,0.2-0.1,0.4-0.1,0.6v4.1h-1.2V379.4z"/>
	<path class="st1" d="M479.2,377.5c0,0.5-0.1,1-0.1,1.9v3.9c0,1.6-0.3,2.5-1,3.1c-0.7,0.6-1.6,0.8-2.5,0.8c-0.8,0-1.7-0.2-2.3-0.6
		l0.3-0.9c0.4,0.3,1.1,0.5,2,0.5c1.3,0,2.2-0.7,2.2-2.4v-0.8h0c-0.4,0.6-1.1,1.1-2.2,1.1c-1.7,0-2.9-1.4-2.9-3.3
		c0-2.3,1.5-3.6,3.1-3.6c1.2,0,1.8,0.6,2.1,1.2h0l0.1-1H479.2z M477.9,380.2c0-0.2,0-0.4-0.1-0.6c-0.2-0.7-0.8-1.3-1.7-1.3
		c-1.2,0-2,1-2,2.6c0,1.3,0.7,2.4,2,2.4c0.8,0,1.4-0.5,1.7-1.3c0.1-0.2,0.1-0.4,0.1-0.7V380.2z"/>
	<path class="st1" d="M484.8,381.1c0,1.7,1.1,2.4,2.3,2.4c0.9,0,1.4-0.2,1.9-0.4l0.2,0.9c-0.4,0.2-1.2,0.4-2.3,0.4
		c-2.1,0-3.3-1.4-3.3-3.4s1.2-3.7,3.2-3.7c2.2,0,2.8,1.9,2.8,3.2c0,0.3,0,0.4,0,0.6H484.8z M488.4,380.2c0-0.8-0.3-2-1.7-2
		c-1.2,0-1.8,1.1-1.9,2H488.4z"/>
	<path class="st1" d="M491.6,377.5l1.3,3.8c0.2,0.6,0.4,1.2,0.5,1.7h0c0.2-0.6,0.3-1.1,0.6-1.7l1.3-3.8h1.3l-2.7,6.8h-1.2l-2.6-6.8
		H491.6z"/>
	<path class="st1" d="M498.4,381.1c0,1.7,1.1,2.4,2.3,2.4c0.9,0,1.4-0.2,1.9-0.4l0.2,0.9c-0.4,0.2-1.2,0.4-2.3,0.4
		c-2.1,0-3.3-1.4-3.3-3.4s1.2-3.7,3.2-3.7c2.2,0,2.8,1.9,2.8,3.2c0,0.3,0,0.4,0,0.6H498.4z M502.1,380.2c0-0.8-0.3-2-1.7-2
		c-1.2,0-1.8,1.1-1.9,2H502.1z"/>
	<path class="st1" d="M504.8,379.6c0-0.8,0-1.5-0.1-2.1h1.1l0,1.3h0.1c0.3-0.9,1-1.5,1.9-1.5c0.1,0,0.2,0,0.3,0v1.2
		c-0.1,0-0.3,0-0.4,0c-0.9,0-1.5,0.7-1.7,1.6c0,0.2-0.1,0.4-0.1,0.6v3.6h-1.2V379.6z"/>
	<path class="st1" d="M510.1,377.5l1.5,4c0.2,0.4,0.3,1,0.4,1.4h0c0.1-0.4,0.3-0.9,0.4-1.4l1.3-4h1.3l-1.8,4.8
		c-0.9,2.3-1.5,3.5-2.3,4.2c-0.6,0.5-1.2,0.7-1.5,0.8l-0.3-1c0.3-0.1,0.7-0.3,1.1-0.6c0.3-0.3,0.8-0.7,1-1.4
		c0.1-0.1,0.1-0.2,0.1-0.3c0-0.1,0-0.2-0.1-0.3l-2.5-6.2H510.1z"/>
	<path class="st1" d="M522.3,380.9c0,2.5-1.7,3.6-3.4,3.6c-1.8,0-3.2-1.3-3.2-3.5c0-2.3,1.5-3.6,3.4-3.6
		C521,377.4,522.3,378.8,522.3,380.9z M516.9,380.9c0,1.5,0.9,2.6,2.1,2.6c1.2,0,2.1-1.1,2.1-2.6c0-1.1-0.6-2.6-2-2.6
		S516.9,379.6,516.9,380.9z"/>
	<path class="st1" d="M523.8,379.4c0-0.7,0-1.3-0.1-1.8h1.1l0.1,1.1h0c0.3-0.6,1.1-1.3,2.2-1.3c0.9,0,2.4,0.6,2.4,2.9v4h-1.2v-3.9
		c0-1.1-0.4-2-1.6-2c-0.8,0-1.4,0.6-1.7,1.3c-0.1,0.2-0.1,0.4-0.1,0.6v4.1h-1.2V379.4z"/>
	<path class="st1" d="M532.3,381.1c0,1.7,1.1,2.4,2.3,2.4c0.9,0,1.4-0.2,1.9-0.4l0.2,0.9c-0.4,0.2-1.2,0.4-2.3,0.4
		c-2.1,0-3.3-1.4-3.3-3.4s1.2-3.7,3.2-3.7c2.2,0,2.8,1.9,2.8,3.2c0,0.3,0,0.4,0,0.6H532.3z M535.9,380.2c0-0.8-0.3-2-1.7-2
		c-1.2,0-1.8,1.1-1.9,2H535.9z"/>
	<path class="st1" d="M543.1,375.6v1.9h1.8v0.9h-1.8v3.7c0,0.8,0.2,1.3,0.9,1.3c0.3,0,0.6,0,0.7-0.1l0.1,0.9
		c-0.2,0.1-0.6,0.2-1.1,0.2c-0.6,0-1-0.2-1.3-0.5c-0.4-0.4-0.5-1-0.5-1.8v-3.7h-1.1v-0.9h1.1v-1.6L543.1,375.6z"/>
	<path class="st1" d="M552.3,380.9c0,2.5-1.7,3.6-3.4,3.6c-1.8,0-3.2-1.3-3.2-3.5c0-2.3,1.5-3.6,3.4-3.6
		C551,377.4,552.3,378.8,552.3,380.9z M546.9,380.9c0,1.5,0.9,2.6,2.1,2.6c1.2,0,2.1-1.1,2.1-2.6c0-1.1-0.6-2.6-2-2.6
		S546.9,379.6,546.9,380.9z"/>
	<path class="st1" d="M438.4,392.4v1.9h1.8v0.9h-1.8v3.7c0,0.8,0.2,1.3,0.9,1.3c0.3,0,0.6,0,0.7-0.1l0.1,0.9
		c-0.2,0.1-0.6,0.2-1.1,0.2c-0.6,0-1-0.2-1.3-0.5c-0.4-0.4-0.5-1-0.5-1.8v-3.7h-1.1v-0.9h1.1v-1.6L438.4,392.4z"/>
	<path class="st1" d="M441.5,391.2h1.2v4.2h0c0.2-0.4,0.5-0.7,0.9-0.9c0.4-0.2,0.8-0.4,1.3-0.4c0.9,0,2.4,0.6,2.4,2.9v4h-1.2v-3.9
		c0-1.1-0.4-2-1.6-2c-0.8,0-1.4,0.6-1.7,1.2c-0.1,0.2-0.1,0.4-0.1,0.6v4.1h-1.2V391.2z"/>
	<path class="st1" d="M450,397.9c0,1.7,1.1,2.4,2.3,2.4c0.9,0,1.4-0.2,1.9-0.4l0.2,0.9c-0.4,0.2-1.2,0.4-2.3,0.4
		c-2.1,0-3.3-1.4-3.3-3.4s1.2-3.7,3.2-3.7c2.2,0,2.8,1.9,2.8,3.2c0,0.3,0,0.4,0,0.6H450z M453.6,397c0-0.8-0.3-2-1.7-2
		c-1.2,0-1.8,1.1-1.9,2H453.6z"/>
	<path class="st1" d="M463,401.1l-0.1-0.9h0c-0.4,0.5-1.1,1-2.1,1c-1.4,0-2.1-1-2.1-1.9c0-1.6,1.5-2.5,4.1-2.5v-0.1
		c0-0.6-0.2-1.6-1.5-1.6c-0.6,0-1.3,0.2-1.8,0.5l-0.3-0.8c0.6-0.4,1.4-0.6,2.2-0.6c2.1,0,2.6,1.4,2.6,2.8v2.5c0,0.6,0,1.2,0.1,1.6
		H463z M462.9,397.6c-1.3,0-2.9,0.2-2.9,1.5c0,0.8,0.5,1.2,1.2,1.2c0.9,0,1.4-0.6,1.6-1.1c0-0.1,0.1-0.3,0.1-0.4V397.6z"/>
	<path class="st1" d="M466,396.4c0-0.8,0-1.5-0.1-2.1h1.1l0,1.3h0.1c0.3-0.9,1-1.5,1.9-1.5c0.1,0,0.2,0,0.3,0v1.2
		c-0.1,0-0.3,0-0.4,0c-0.9,0-1.5,0.7-1.7,1.6c0,0.2-0.1,0.4-0.1,0.6v3.6H466V396.4z"/>
	<path class="st1" d="M472.4,392.4v1.9h1.8v0.9h-1.8v3.7c0,0.8,0.2,1.3,0.9,1.3c0.3,0,0.6,0,0.7-0.1l0.1,0.9
		c-0.2,0.1-0.6,0.2-1.1,0.2c-0.6,0-1-0.2-1.3-0.5c-0.4-0.4-0.5-1-0.5-1.8v-3.7h-1.1v-0.9h1.1v-1.6L472.4,392.4z"/>
	<path class="st1" d="M478.7,401.1v-5.8h-1v-0.9h1V394c0-1,0.2-1.8,0.8-2.4c0.5-0.4,1.1-0.6,1.7-0.6c0.4,0,0.8,0.1,1.1,0.2l-0.2,1
		c-0.2-0.1-0.4-0.2-0.8-0.2c-1,0-1.3,0.9-1.3,2v0.4h1.6v0.9h-1.6v5.8H478.7z"/>
	<path class="st1" d="M488.6,397.7c0,2.5-1.7,3.6-3.4,3.6c-1.8,0-3.2-1.3-3.2-3.5c0-2.3,1.5-3.6,3.4-3.6
		C487.3,394.2,488.6,395.6,488.6,397.7z M483.2,397.7c0,1.5,0.9,2.6,2.1,2.6c1.2,0,2.1-1.1,2.1-2.6c0-1.1-0.6-2.6-2-2.6
		S483.2,396.4,483.2,397.7z"/>
	<path class="st1" d="M490.1,396.4c0-0.8,0-1.5-0.1-2.1h1.1l0,1.3h0.1c0.3-0.9,1-1.5,1.9-1.5c0.1,0,0.2,0,0.3,0v1.2
		c-0.1,0-0.3,0-0.4,0c-0.9,0-1.5,0.7-1.7,1.6c0,0.2-0.1,0.4-0.1,0.6v3.6h-1.2V396.4z"/>
	<path class="st1" d="M494.8,396.2c0-0.7,0-1.3-0.1-1.8h1.1l0.1,1.1h0c0.4-0.6,1-1.2,2.1-1.2c0.9,0,1.6,0.6,1.9,1.4h0
		c0.2-0.4,0.5-0.7,0.8-0.9c0.4-0.3,0.9-0.5,1.5-0.5c0.9,0,2.2,0.6,2.2,2.9v4h-1.2v-3.8c0-1.3-0.5-2.1-1.5-2.1
		c-0.7,0-1.2,0.5-1.5,1.1c-0.1,0.2-0.1,0.4-0.1,0.6v4.2H499V397c0-1.1-0.5-1.9-1.4-1.9c-0.8,0-1.3,0.6-1.5,1.2
		c-0.1,0.2-0.1,0.4-0.1,0.6v4.1h-1.2V396.2z"/>
	<path class="st1" d="M515.6,397.7c0,2.5-1.7,3.6-3.4,3.6c-1.8,0-3.3-1.3-3.3-3.5c0-2.3,1.5-3.6,3.4-3.6
		C514.2,394.2,515.6,395.6,515.6,397.7z M510.2,397.7c0,1.5,0.9,2.6,2.1,2.6c1.2,0,2.1-1.1,2.1-2.6c0-1.1-0.6-2.6-2-2.6
		C510.8,395.1,510.2,396.4,510.2,397.7z"/>
	<path class="st1" d="M517.2,401.1v-5.8h-1v-0.9h1V394c0-1,0.2-1.8,0.8-2.4c0.5-0.4,1.1-0.6,1.7-0.6c0.4,0,0.8,0.1,1.1,0.2l-0.2,1
		c-0.2-0.1-0.4-0.2-0.8-0.2c-1,0-1.3,0.9-1.3,2v0.4h1.6v0.9h-1.6v5.8H517.2z"/>
	<path class="st1" d="M530,391.2v8.2c0,0.6,0,1.3,0.1,1.8H529l-0.1-1.2h0c-0.4,0.8-1.2,1.3-2.3,1.3c-1.6,0-2.9-1.4-2.9-3.4
		c0-2.3,1.4-3.6,3-3.6c1,0,1.7,0.5,2,1h0v-4H530z M528.8,397.1c0-0.2,0-0.4-0.1-0.5c-0.2-0.8-0.9-1.4-1.8-1.4c-1.3,0-2,1.1-2,2.6
		c0,1.4,0.7,2.5,2,2.5c0.8,0,1.6-0.5,1.8-1.5c0-0.2,0.1-0.3,0.1-0.5V397.1z"/>
	<path class="st1" d="M532.1,396.4c0-0.8,0-1.5-0.1-2.1h1.1l0,1.3h0.1c0.3-0.9,1-1.5,1.9-1.5c0.1,0,0.2,0,0.3,0v1.2
		c-0.1,0-0.3,0-0.4,0c-0.9,0-1.5,0.7-1.7,1.6c0,0.2-0.1,0.4-0.1,0.6v3.6h-1.2V396.4z"/>
	<path class="st1" d="M540.3,401.1l-0.1-0.9h0c-0.4,0.5-1.1,1-2.1,1c-1.4,0-2.1-1-2.1-1.9c0-1.6,1.5-2.5,4.1-2.5v-0.1
		c0-0.6-0.2-1.6-1.5-1.6c-0.6,0-1.3,0.2-1.8,0.5l-0.3-0.8c0.6-0.4,1.4-0.6,2.2-0.6c2.1,0,2.6,1.4,2.6,2.8v2.5c0,0.6,0,1.2,0.1,1.6
		H540.3z M540.1,397.6c-1.3,0-2.9,0.2-2.9,1.5c0,0.8,0.5,1.2,1.2,1.2c0.9,0,1.4-0.6,1.6-1.1c0-0.1,0.1-0.3,0.1-0.4V397.6z"/>
	<path class="st1" d="M549.1,394.3c0,0.5-0.1,1-0.1,1.9v3.9c0,1.6-0.3,2.5-1,3.1c-0.7,0.6-1.6,0.8-2.5,0.8c-0.8,0-1.7-0.2-2.3-0.6
		l0.3-0.9c0.4,0.3,1.1,0.5,2,0.5c1.3,0,2.2-0.7,2.2-2.4v-0.8h0c-0.4,0.6-1.1,1.1-2.2,1.1c-1.7,0-2.9-1.4-2.9-3.3
		c0-2.3,1.5-3.6,3.1-3.6c1.2,0,1.8,0.6,2.1,1.2h0l0.1-1H549.1z M547.9,397c0-0.2,0-0.4-0.1-0.6c-0.2-0.7-0.8-1.3-1.7-1.3
		c-1.2,0-2,1-2,2.6c0,1.3,0.7,2.4,2,2.4c0.8,0,1.4-0.5,1.7-1.3c0.1-0.2,0.1-0.4,0.1-0.7V397z"/>
	<path class="st1" d="M550.6,400.4c0-0.5,0.3-0.9,0.8-0.9c0.5,0,0.8,0.4,0.8,0.9c0,0.5-0.3,0.9-0.8,0.9
		C551,401.3,550.6,400.9,550.6,400.4z"/>
</g>
<g>
	<path class="st6" d="M40.4,759.8v-0.7l0.9-0.9c2.2-2.1,3.1-3.1,3.1-4.4c0-0.9-0.4-1.7-1.7-1.7c-0.8,0-1.4,0.4-1.8,0.7l-0.4-0.8
		c0.6-0.5,1.4-0.9,2.4-0.9c1.8,0,2.6,1.2,2.6,2.5c0,1.6-1.1,2.8-2.9,4.5l-0.7,0.6v0h3.8v0.9H40.4z"/>
	<path class="st6" d="M49.6,752.4L49.6,752.4l-1.5,0.8l-0.2-0.9l1.8-1h1v8.5h-1.1V752.4z"/>
</g>
<g>
	<path class="st33" d="M83.9,132.5c0-7.3,6.1-16.6,16.6-16.6c1.3,0,2.7,0.1,4.2,0.4c0.9-5.6-2.8-58.7,13-58.7c0.6,0,1.2,0.1,1.8,0.2
		c3.5,0.8,8.5,6.4,8.6,12c0,2-1,5.5-1.8,6.4c-0.3,0.3-0.9,0.4-1.4,0.4c-0.6,0-1.3-0.2-1.8-0.6c-0.4-0.3-0.5-0.5-0.5-1.1
		c0-0.6,0.2-1.6,0.6-3.4c0.1-0.4,0.1-0.8,0.1-1.2c0-3.3-2-8.9-4.5-8.9c-3.5,0-8,11.4-8.6,57.4c2.6,1.1,10.3,3.8,18.4,3.8
		c4.9,0,10-0.9,14.4-3.7l0.3-0.1c0.3,0,0.4,0.3,0.4,0.8c0,2.3-3.3,9.6-11,10l-2,0.1c-12.5,0-21.2-6-21.2-6
		c-0.3,4.3-4.2,14.1-11.7,16.6c-2.1,0.7-4,1-5.6,1C86.5,141.2,83.9,137.3,83.9,132.5z M104.4,121.2c0,0-1.4-0.4-3.3-0.4
		c-3.6,0-9.1,1.5-11.7,10.1c-0.3,1.1-0.4,1.9-0.4,2.6c0,1.6,0.8,2.2,1.9,2.2C94.6,135.7,103.1,128.3,104.4,121.2z"/>
	<path class="st33" d="M143.4,116.4c-0.4-1.4-0.5-3.4-0.5-5.5c0-3,0.3-6.2,0.3-8.3c-0.7,1.8-5.2,16.1-10.7,17.1
		c-0.6,0.1-1.3,0.2-1.8,0.2c-4.2,0-5.9-3.2-5.9-7.5c0-8.4,6.7-21,14.1-21c1.8,0,3.7,0.8,5.5,2.6c0-0.2,0.3-1.1,0.6-2.1
		c0.6-2.1,1.9-3,3-3c0.9,0,1.8,0.6,2,1.4c0,0.3-2.4,13.2-2.4,21.2c0,3.4,0.4,5.9,1.7,6h0.3c4.8,0,9.5-10.8,12.2-16.6
		c0.1-0.1,0.1-0.1,0.2-0.1c0.3,0,0.8,0.6,0.8,1.1l-0.1,0.3c-1.6,3.2-5.2,14.6-10.6,17.5c-0.6,0.4-2,0.8-3.3,0.8
		C146.7,120.4,144.2,119.5,143.4,116.4z M143.2,96.5c0,0-2-2.1-4.2-2.1c-3.7,0-8.8,11.6-8.8,17.5c0,1.4,0.3,2.5,0.9,3
		c0.3,0.2,0.5,0.3,0.8,0.3C135.7,115.2,143.2,96.5,143.2,96.5z"/>
	<path class="st33" d="M182.2,115.7c-2-4-2.6-16.1-2.6-16.1s-4.9,8.6-5.3,9.2c-1.6,2.8-4.9,7-8.3,7c-1.2,0-2.4-0.5-3.5-1.8
		c-0.9-1.1-1.9-3.9-1.9-7.5c0-4.7,1.6-10.5,6.4-15.3c2.1-2,4.3-2.8,6.4-2.8c2.5,0,4.6,1.1,5.7,2.8c0-0.1,0.1-0.8,0.1-1.8
		c1.2-31.7,11.1-42.5,18.6-42.5c2.3,0,4.3,0.9,5.9,2.6s2.3,4.2,2.3,7.1c0,9.6-8.2,23.7-21.7,28.8c0,0-0.1,2.6-0.1,6.4
		c0,8.1,0.4,21.2,3.2,22.9c0.2,0.1,0.4,0.2,0.7,0.2c3,0,7.9-10.5,8.9-12.6c0.5-1.1,1.1-1.6,1.4-1.6c0.3,0,0.4,0.2,0.4,0.6
		c0,0.2-0.1,0.5-0.2,0.8c-4,12.2-8.8,16.4-12.3,16.4C184.6,118.6,183.1,117.4,182.2,115.7z M168.1,110.8c1.2-0.8,5.7-6.2,11-16.6
		c0-0.4-1.3-2-3.5-2c-1.4,0-3.3,0.7-5.5,3c-2.8,3.3-4.2,8.7-4.2,12.3c0,2,0.5,3.5,1.4,3.5C167.6,111,167.9,111,168.1,110.8z
		 M202.6,58.2c0-4-1.5-6.7-4.1-6.7c-0.5,0-1.1,0.1-1.6,0.3c-7.6,2.9-12,25.8-12.5,31.4C197.3,77.6,202.6,65.7,202.6,58.2z"/>
	<path class="st33" d="M184.6,149.6c0-3,0.6-6.3,1.9-10c5-14.4,25-28.6,25-28.6l0.1-4.8c0-1.2-0.1-2.2-0.1-2.3h-0.1
		c-0.4,0-2.1,4.8-4,7.5c-0.9,1.4-2,1.9-3.1,1.9c-1.4,0-3.1-0.9-4.7-1.6c-2.3-2.3-3.4-16.4-3.4-19v-0.4c0.1-0.6,2.6-1.4,3.7-1.4
		c0.3,0,0.4,0.1,0.5,0.2c0.6,0.9,1.7,17,2.6,18.5c0.4,0.6,0.7,0.9,1,0.9c0.2,0,0.4-0.2,0.7-0.6c1.3-2,7.1-11.8,7.4-14.2
		c0.1-1,0.2-2.1,0.3-2.3c0.1-0.5,3.3-2.5,4.3-2.5c0.2,0,0.3,0.1,0.3,0.3c0.1,1,0.1,2.2,0.1,3.5c0,4.6-0.3,10.5-0.3,13.6
		c0.5,0,8.3-5.7,10.7-7.9c0.1-0.1,0.3-0.2,0.6-0.2c0.4,0,0.9,0.2,0.9,0.8c0,0.2-0.1,0.5-0.3,0.8c-1.3,2.3-11.8,9.5-11.8,9.5l0.1,3.9
		c0,6-0.3,18.1-2.1,28.6c-2.4,13.8-10.7,20.1-18,20.1C190.2,163.8,184.6,158.8,184.6,149.6z M208.9,146.9c2.8-12.2,2.5-27,2.6-32.3
		c-0.1,0-16.9,11.4-21.3,23.7c-1.4,3.9-2,7.2-2,10c0,7.1,3.8,10.3,8.3,10.3C201.6,158.5,207.2,154.4,208.9,146.9z"/>
	<path class="st33" d="M256.8,134.6l-0.1-0.8c0-9.3,12.7-21.7,20-25.2c0.3-0.1,0.4-0.1,0.4-0.6l-0.1-0.7
		c-0.4-3.6-13.5-24.6-13.5-38.6c0-5.5,2-9.8,7.4-11.8c1.1-0.4,2.1-0.6,3.1-0.6c6.2,0,9.4,7.4,9.4,13.2c0,3.4-1.1,6.3-3.3,7
		c-0.4,0.1-0.9,0.2-1.3,0.2c-0.7,0-1.2-0.2-1.2-0.6c0-11.7-2.1-16.6-4.1-16.6c-1.8,0-3.5,3.9-3.5,10.3c0,3.1,0.4,6.8,1.4,11
		c1.3,5.1,11.3,25.5,11.3,25.5c1.4,0,10.6-5.5,13.3-5.5c0.3,0,0.5,0.1,0.6,0.2c0.2,0.3,0.3,0.6,0.3,0.9c0,0.5-0.3,1.1-0.6,1.1
		c-0.9,0.2-11.7,5.5-11.7,5.5c-0.7,0-0.9,0.4-0.9,1.2c0,1.5,0.9,4.5,0.9,8.6l-0.1,1.4c-0.8,15.8-11,25.8-18.8,25.8
		C261.2,145.7,257.4,142.3,256.8,134.6z M279.1,116.2c0-1.6-0.1-3-0.5-4c0,0-16.6,11.1-16.6,21.5c0,1.5,0.3,3,1.1,4.4
		c1.4,1.2,2.7,1.7,4,1.7C274,139.9,279.1,124.9,279.1,116.2z"/>
	<path class="st33" d="M311,115.8c0-0.3,0-0.7,0.1-1.1c0.7-4.5,2-12.2,2-16.8c0-1.4-0.1-2.5-0.4-3.1c-0.4-1-0.9-1.4-1.6-1.4
		c-3.8,0-11.5,16.7-11.5,16.8c-0.5,0.8-0.5,4.2-0.6,5.4c-0.1-0.1-0.1-0.1-0.2-0.1c-0.3,0-0.7,0.1-1.2,0.1c-1.3,0-2.9-0.8-3.2-6.4
		c-0.1-2.1-0.1-4.2-0.1-6.3c0-19.5,4.3-40.4,16.6-51.3c3.6-3.3,6.7-4.6,9.3-4.6c4.9,0,7.7,4.7,7.7,10.2v0.9
		c-1.1,20.2-26.8,30.7-28.4,32c-0.3,0.3-1.1,11-1.1,15.6c0,1.2,0.1,2,0.2,2c0.3,0,8.4-17.1,14.6-17.1c1.3,0,2.4,0.7,3.4,2.2
		c0.6,0.9,0.8,2.2,0.8,3.8c0,5.3-2.5,13.5-2.5,18.3c0,1.7,0.3,3,1.1,3.5l0.2,0.1c1.3,0,5.2-7.4,8.8-16c0.1-0.3,0.3-0.3,0.5-0.3
		c0.4,0,0.8,0.4,0.9,0.6c0,0.4-5.7,14.6-7.6,16.8c-1.2,1.4-2.5,2-3.7,2C312.9,121.1,311,118.8,311,115.8z M324.1,62.3
		c0.3-0.9,0.4-2.2,0.4-3.5c0-3.6-1.1-7.6-4.9-7.6c-0.8,0-1.5,0.2-2.5,0.5c-4,1.4-14,14.1-17,35.3C300.2,86.9,320.7,76.1,324.1,62.3z
		"/>
	<path class="st33" d="M340.6,119.2c-2.9-0.9-2-10.8-2.5-11.5H338c-0.5,0-2.3,10.6-8.2,10.6c-0.3,0-0.6,0-0.9-0.1
		c-3.8-0.7-4.5-6-4.5-11.7c0-3.1,0.3-6.4,0.3-8.9c0-1.1,1.7-2.2,3.2-2.2c0.6,0,1.2,0.1,1.6,0.6c0.1,0.2,0.2,0.8,0.2,1.6
		c0,2.6-0.5,7.9-0.5,12.1c0,2.5,0.2,4.6,0.8,5.4c0.1,0.2,0.3,0.3,0.6,0.3c2.3,0,7.4-11.8,7.7-14.2c0.1-1.5,0.3-4,0.9-4.9
		c1-1.3,2.4-1.6,3.4-1.6c0.8,0,1.4,0.2,1.4,0.2s-1.5,9.1-1.5,15.7c0,2.6,0.3,4.9,0.9,5.9c0.3,0.4,0.6,0.6,1.1,0.6
		c3.7,0,11.5-13.9,13.4-16.6c0.6,0.2,1,0.5,1,0.9c0,0.1,0,0.3-0.1,0.4c-0.3,0.3-8,14.2-11.5,17.4c-1,0.9-2,1.2-3,1.2
		C342.8,120.3,341.4,119.5,340.6,119.2z"/>
	<path class="st33" d="M354.4,160.3c-2.8-2.1-4-5.4-4-9.3c0-10.6,9.4-25.8,21.5-33.1c0.8-11.8,0.9-14.3,1-14.3l-0.1,1.4l0.2-2.8
		c0,0-4.1,10.6-8.8,12.6c-0.3,0.1-0.9,0.3-1.6,0.3c-2.5,0-6.7-1.4-6.7-7.6c0-1.3,0.2-3,0.7-4.9c1.9-7.5,7.2-11,11.8-11
		c2.3,0,4.3,0.8,5.7,2.5c0.2,0.3,0.4,0.3,0.6,0.3c0.6,0,1.3-0.9,2-0.9c0.2,0,0.4,0.1,0.6,0.4c0.2,0.3,0.3,1.3,0.3,2.8
		c0,5-1,15-1,17.8c0,0.4,0,0.7,0.1,0.8c0.5,0,6-5,10.5-13.4c0.6-1.1,1.1-1.5,1.4-1.5s0.6,0.6,0.6,1.1l-0.1,0.5
		c-1.7,4.4-6.1,11.8-12.7,16.9c-0.8,18.9-2.5,31.2-6.7,37.4c-3,4.5-6.4,6.2-9.6,6.2C358.1,162.4,356,161.5,354.4,160.3z
		 M371.7,122.4V122c-10.9,6.7-16.7,20.8-16.7,29.2c0,3.2,0.9,5.6,2.6,6.4c0.9,0.4,1.7,0.6,2.5,0.6
		C370.5,158.2,371.7,126.1,371.7,122.4z M373,97.7c-0.6-1.5-2-2.3-3.7-2.3c-3.2,0-7.4,3-8.1,9.5c-0.1,1.1-0.2,2.1-0.2,3
		c0,2.5,0.6,3.5,1.4,3.5C365.6,111.2,373,97.7,373,97.7z"/>
</g>
</svg>
