<?xml version="1.0" encoding="utf-8"?>
<!-- Generator: Adobe Illustrator 21.1.0, SVG Export Plug-In . SVG Version: 6.00 Build 0)  -->
<svg version="1.1" id="Layer_1" xmlns="http://www.w3.org/2000/svg" xmlns:xlink="http://www.w3.org/1999/xlink" x="0px" y="0px"
	 viewBox="0 0 621.4 801.4" style="enable-background:new 0 0 621.4 801.4;" xml:space="preserve">
<style type="text/css">
	.st0{fill:#FFFFFF;}
	.st1{fill:#FFFFFF;stroke:#FFFFFF;stroke-width:0.25;stroke-miterlimit:10;}
	.st2{stroke:#000000;stroke-width:0.25;stroke-miterlimit:10;}
	.st3{fill:#1F8AC9;}
	.st4{fill:#000101;stroke:#000101;stroke-width:0.25;stroke-miterlimit:10;}
	.st5{opacity:0.75;fill:#FFFFFF;}
	.st6{fill:#9A453E;}
	.st7{fill:#5D2318;}
	.st8{fill:#5D2318;stroke:#5D2318;stroke-width:0.25;stroke-miterlimit:10;}
	.st9{fill:#9A453E;stroke:#9A453E;stroke-width:0.25;stroke-miterlimit:10;}
	.st10{fill:#933A28;}
	.st11{fill:#29326B;stroke:#29326B;stroke-width:0.25;stroke-miterlimit:10;}
	.st12{fill:#FFFFFF;fill-opacity:0.27;}
	.st13{fill:#5D2217;}
	.st14{fill:#99443E;}
	.st15{stroke:#000000;stroke-width:0.5;stroke-miterlimit:10;}
	.st16{fill:#473181;stroke:#473181;stroke-width:0.5;stroke-miterlimit:10;}
	.st17{fill:#090E31;}
	.st18{fill:#442033;}
	.st19{fill:#473181;}
	.st20{fill:#BDA677;}
	.st21{fill:#FFFFFF;stroke:#FFFFFF;stroke-miterlimit:10;}
	.st22{fill:#2C3471;}
	.st23{fill:#2C3471;stroke:#2C3471;stroke-width:0.25;stroke-miterlimit:10;}
	.st24{fill:#00B4EC;}
	.st25{opacity:0.15;}
	.st26{fill:#21283A;stroke:#21283A;stroke-width:0.25;stroke-miterlimit:10;}
	.st27{clip-path:url(#SVGID_2_);}
	.st28{opacity:0.12;}
	.st29{fill:#0C2537;}
	.st30{opacity:0.8;}
	.st31{fill:#737273;}
	.st32{opacity:0.85;fill:#FFFFFF;}
	.st33{fill:#B9DCE8;}
</style>
<!--
<g>
	<path class="st6" d="M38.7,759.1c0.2,0,0.5,0,0.9,0c0.7-0.1,1.3-0.4,1.8-0.8c0.6-0.5,1-1.2,1.1-2.2h0c-0.5,0.6-1.1,0.9-2,0.9
		c-1.5,0-2.5-1.1-2.5-2.6c0-1.6,1.2-3,2.9-3s2.8,1.4,2.8,3.6c0,1.9-0.6,3.2-1.5,4c-0.7,0.6-1.5,1-2.5,1.1c-0.4,0.1-0.8,0.1-1.1,0.1
		V759.1z M39.2,754.2c0,1.1,0.6,1.8,1.6,1.8c0.8,0,1.4-0.4,1.7-0.9c0.1-0.1,0.1-0.2,0.1-0.4c0-1.4-0.5-2.5-1.7-2.5
		C39.8,752.2,39.2,753,39.2,754.2z"/>
</g>
-->
<g>
	<path class="st0" d="M97.1,576.5l-9,59.8H75.6l-9-59.8h11.2l4,35.1H82l4-35.1H97.1z"/>
	<path class="st0" d="M130.7,624.9c0,8.4-4.4,12.6-13.3,12.6c-8.9,0-13.3-4.2-13.3-12.6V592c0-5.2,0.9-9,2.7-11.4
		c2-2.8,5.6-4.1,10.6-4.1s8.6,1.4,10.6,4.1c1.8,2.5,2.7,6.3,2.7,11.4v24H115v7.2c0,2.8,0.9,4.1,2.8,4.1c1.9,0,2.8-1.4,2.8-4.1v-2.5
		h10.1V624.9z M120.6,607.2v-16.3c0-2.9-0.9-4.4-2.8-4.4c-1.9,0-2.8,1.5-2.8,4.4v16.3H120.6z"/>
	<path class="st0" d="M144.7,636.2h-10.4v-59.8h10.4v1.6c1.1-1.1,2.4-1.6,3.9-1.6c8.1,0,12.1,4.3,12.1,12.9v46.9h-11v-46.1
		c0-2.4-0.8-3.6-2.5-3.6c-1.7,0-2.6,1.2-2.6,3.6V636.2z"/>
	<path class="st0" d="M191.2,624.3c0,5-0.9,8.7-2.8,11c-2.1,2.5-5.6,3.8-10.5,3.8c-5,0-8.4-0.9-10.3-2.8c-1.9-1.9-2.8-5.3-2.8-10.3
		h10.5c0,2.5,0.9,3.8,2.6,3.8s2.6-1.3,2.6-3.9v-3c-1.1,0.8-2.4,1.2-4,1.2c-8.1,0-12.1-4.3-12.1-12.9v-21.9c0-8.6,4-12.9,12.1-12.9
		c1.4,0,2.8,0.5,4,1.6v-1.6h10.8V624.3z M180.4,610.4v-20.2c0-2.4-0.9-3.6-2.6-3.6c-1.7,0-2.6,1.2-2.6,3.6v20.2
		c0,2.4,0.9,3.6,2.6,3.6C179.6,614,180.4,612.8,180.4,610.4z"/>
	<path class="st0" d="M221.5,624.9c0,8.4-4.4,12.6-13.3,12.6c-8.9,0-13.3-4.2-13.3-12.6V592c0-5.2,0.9-9,2.7-11.4
		c2-2.8,5.6-4.1,10.6-4.1s8.6,1.4,10.6,4.1c1.8,2.5,2.7,6.3,2.7,11.4v24h-15.7v7.2c0,2.8,0.9,4.1,2.8,4.1c1.9,0,2.8-1.4,2.8-4.1
		v-2.5h10.1V624.9z M211.4,607.2v-16.3c0-2.9-0.9-4.4-2.8-4.4c-1.9,0-2.8,1.5-2.8,4.4v16.3H211.4z"/>
	<path class="st0" d="M252,636.2h-10.8v-3.1c-1.5,2.9-3.9,4.4-7.1,4.4c-6,0-9-4.4-9-13.3v-2.7c0-5.5,1.4-9.3,4.1-11.5
		c0.8-0.6,3.4-1.7,7.7-3.3c2.8-1,4.2-2.8,4.2-5.3v-11.2c0-2.4-0.9-3.6-2.6-3.6s-2.6,1.2-2.6,3.6v14.4H226v-15.2
		c0-8.6,4.4-12.9,13.1-12.9c8.6,0,12.9,4.3,12.9,12.9V636.2z M241.2,624.4V614c-2.4,1.9-3.6,3-3.8,3.2c-0.9,1.1-1.3,2.9-1.3,5.1v1.2
		c0,2.6,1,3.9,3.1,3.9C240.5,627.4,241.2,626.4,241.2,624.4z"/>
	<path class="st0" d="M266,636.2h-10.4v-59.8H266v1.6c1.1-1.1,2.4-1.6,3.9-1.6c8.1,0,12.1,4.3,12.1,12.9v46.9h-11v-46.1
		c0-2.4-0.8-3.6-2.5-3.6c-1.7,0-2.6,1.2-2.6,3.6V636.2z"/>
	<path class="st0" d="M311.6,624.6c0,8.6-4.4,12.9-13,12.9c-8.6,0-13-4.3-13-12.9v-35.3c0-8.6,4.3-12.9,13-12.9
		c8.7,0,13,4.3,13,12.9v17.9h-9.9v-17.1c0-2.4-0.9-3.6-2.6-3.6s-2.6,1.2-2.6,3.6v33.7c0,2.4,0.9,3.6,2.6,3.6s2.6-1.2,2.6-3.6v-3.1
		h9.9V624.6z"/>
	<path class="st0" d="M341.9,624.9c0,8.4-4.4,12.6-13.3,12.6c-8.9,0-13.3-4.2-13.3-12.6V592c0-5.2,0.9-9,2.7-11.4
		c2-2.8,5.6-4.1,10.6-4.1s8.6,1.4,10.6,4.1c1.8,2.5,2.7,6.3,2.7,11.4v24h-15.7v7.2c0,2.8,0.9,4.1,2.8,4.1c1.9,0,2.8-1.4,2.8-4.1
		v-2.5h10.1V624.9z M331.8,607.2v-16.3c0-2.9-0.9-4.4-2.8-4.4c-1.9,0-2.8,1.5-2.8,4.4v16.3H331.8z"/>
	<path class="st0" d="M370,636.2v-48.1h-8.3v-11.7h27.7v11.7h-8.3v48.1H370z"/>
	<path class="st0" d="M420,636.2h-10.8v-3.1c-1.5,2.9-3.9,4.4-7.1,4.4c-6,0-9-4.4-9-13.3v-2.7c0-5.5,1.4-9.3,4.1-11.5
		c0.8-0.6,3.4-1.7,7.7-3.3c2.8-1,4.2-2.8,4.2-5.3v-11.2c0-2.4-0.9-3.6-2.6-3.6s-2.6,1.2-2.6,3.6v14.4H394v-15.2
		c0-8.6,4.4-12.9,13.1-12.9c8.6,0,12.9,4.3,12.9,12.9V636.2z M409.2,624.4V614c-2.4,1.9-3.6,3-3.8,3.2c-0.9,1.1-1.3,2.9-1.3,5.1v1.2
		c0,2.6,1,3.9,3.1,3.9C408.5,627.4,409.2,626.4,409.2,624.4z"/>
	<path class="st0" d="M439.2,636.2v-46.1c0-2.4-0.8-3.6-2.5-3.6c-1.7,0-2.6,1.2-2.6,3.6v46.1h-10.4v-59.8H434v1.6
		c1.1-1.1,2.4-1.6,3.9-1.6c6.2,0,10.1,2.5,11.5,7.6l0.4-0.9c1.8-4.4,4.5-6.7,8.1-6.7c5.3,0,8,3.7,8,11.2v48.6h-11V591
		c0-3-0.7-4.5-2-4.5c-1.8,0-2.7,1.8-2.7,5.4v44.3H439.2z"/>
	<path class="st0" d="M479.8,636.2h-10.4v-59.8h10.4v2.3c1-0.8,2.3-1.2,3.9-1.2c8.1,0,12.1,4.3,12.1,12.9v21.9
		c0,8.6-4.1,12.9-12.1,12.9c-1.4,0-2.7-0.5-3.9-1.6V636.2z M479.8,611.5c0,2.4,0.8,3.6,2.5,3.6c1.7,0,2.5-1.2,2.5-3.6v-20.2
		c0-2.4-0.9-3.6-2.6-3.6c-1.7,0-2.5,1-2.5,3.1V611.5z"/>
	<path class="st0" d="M526.3,623.5c0,9.3-4.5,13.9-13.4,13.9c-8.9,0-13.4-4.6-13.4-13.9v-33.1c0-9.3,4.5-13.9,13.4-13.9
		c8.9,0,13.4,4.7,13.4,13.9V623.5z M515.3,623.4v-32.9c0-2.6-0.8-4-2.4-4c-1.6,0-2.4,1.3-2.4,4v32.9c0,2.6,0.8,4,2.4,4
		C514.5,627.4,515.3,626.1,515.3,623.4z"/>
	<path class="st0" d="M540.3,636.2h-10.4v-59.8h10.4v1.6c1.1-1.1,2.4-1.6,3.9-1.6c8.1,0,12.1,4.3,12.1,12.9v46.9h-11v-46.1
		c0-2.4-0.8-3.6-2.5-3.6c-1.7,0-2.6,1.2-2.6,3.6V636.2z"/>
</g>
<!--
<g>
	<g>
		<path class="st1" d="M46.5,662.1c0.6-0.1,1.5-0.2,2.3-0.2c1.3,0,2.1,0.2,2.7,0.8c0.5,0.4,0.7,1.1,0.7,1.8c0,1.2-0.8,2.1-1.8,2.4v0
			c0.7,0.3,1.2,0.9,1.4,1.9c0.3,1.3,0.5,2.2,0.7,2.6h-1.3c-0.2-0.3-0.4-1.1-0.6-2.3c-0.3-1.3-0.8-1.8-1.9-1.8h-1.1v4.1h-1.2V662.1z
			 M47.7,666.4h1.2c1.3,0,2.1-0.7,2.1-1.8c0-1.2-0.9-1.8-2.2-1.8c-0.6,0-1,0.1-1.2,0.1V666.4z"/>
		<path class="st1" d="M57.9,671.4l-0.1-0.9h0c-0.4,0.5-1.1,1-2.1,1c-1.4,0-2.1-1-2.1-1.9c0-1.6,1.5-2.5,4.1-2.5V667
			c0-0.6-0.2-1.6-1.5-1.6c-0.6,0-1.3,0.2-1.8,0.5l-0.3-0.8c0.6-0.4,1.4-0.6,2.2-0.6c2.1,0,2.6,1.4,2.6,2.8v2.5c0,0.6,0,1.2,0.1,1.6
			H57.9z M57.7,668c-1.3,0-2.9,0.2-2.9,1.5c0,0.8,0.5,1.2,1.2,1.2c0.9,0,1.4-0.6,1.6-1.1c0-0.1,0.1-0.3,0.1-0.4V668z"/>
		<path class="st1" d="M66.5,669.6c0,0.7,0,1.3,0.1,1.8h-1.1l-0.1-1.1h0c-0.3,0.5-1,1.3-2.2,1.3c-1.1,0-2.3-0.6-2.3-3v-4h1.2v3.8
			c0,1.3,0.4,2.2,1.5,2.2c0.8,0,1.4-0.6,1.6-1.1c0.1-0.2,0.1-0.4,0.1-0.6v-4.2h1.2V669.6z"/>
		<path class="st1" d="M73.4,671.2c-0.3,0.2-1,0.4-1.9,0.4c-2,0-3.4-1.4-3.4-3.5c0-2.1,1.4-3.6,3.6-3.6c0.7,0,1.4,0.2,1.7,0.4
			l-0.3,1c-0.3-0.2-0.8-0.3-1.4-0.3c-1.6,0-2.4,1.1-2.4,2.6c0,1.6,1,2.5,2.4,2.5c0.7,0,1.2-0.2,1.5-0.3L73.4,671.2z"/>
		<path class="st1" d="M80.9,668c0,2.5-1.7,3.6-3.4,3.6c-1.8,0-3.2-1.3-3.2-3.5c0-2.3,1.5-3.6,3.4-3.6
			C79.6,664.5,80.9,665.9,80.9,668z M75.5,668c0,1.5,0.9,2.6,2.1,2.6c1.2,0,2.1-1.1,2.1-2.6c0-1.1-0.6-2.6-2-2.6
			S75.5,666.8,75.5,668z"/>
		<path class="st1" d="M88.1,669.6c0,0.7,0,1.3,0.1,1.8h-1.1l-0.1-1.1h0c-0.3,0.5-1,1.3-2.2,1.3c-1.1,0-2.3-0.6-2.3-3v-4h1.2v3.8
			c0,1.3,0.4,2.2,1.5,2.2c0.8,0,1.4-0.6,1.6-1.1c0.1-0.2,0.1-0.4,0.1-0.6v-4.2h1.2V669.6z"/>
		<path class="st1" d="M90,670.2c0.4,0.2,1,0.5,1.6,0.5c0.9,0,1.3-0.4,1.3-1c0-0.6-0.3-0.9-1.3-1.2c-1.2-0.4-1.8-1.1-1.8-1.9
			c0-1.1,0.9-2,2.3-2c0.7,0,1.3,0.2,1.7,0.4l-0.3,0.9c-0.3-0.2-0.8-0.4-1.4-0.4c-0.7,0-1.1,0.4-1.1,0.9c0,0.6,0.4,0.8,1.3,1.1
			c1.2,0.4,1.8,1,1.8,2c0,1.2-0.9,2-2.5,2c-0.7,0-1.4-0.2-1.9-0.5L90,670.2z"/>
		<path class="st1" d="M100.2,662.7v1.9h1.8v0.9h-1.8v3.7c0,0.8,0.2,1.3,0.9,1.3c0.3,0,0.6,0,0.7-0.1l0.1,0.9
			c-0.2,0.1-0.6,0.2-1.1,0.2c-0.6,0-1-0.2-1.3-0.5c-0.4-0.4-0.5-1-0.5-1.8v-3.7h-1.1v-0.9H99V663L100.2,662.7z"/>
		<path class="st1" d="M103.3,666.8c0-0.8,0-1.5-0.1-2.1h1.1l0,1.3h0.1c0.3-0.9,1-1.5,1.9-1.5c0.1,0,0.2,0,0.3,0v1.2
			c-0.1,0-0.3,0-0.4,0c-0.9,0-1.5,0.7-1.7,1.6c0,0.2-0.1,0.4-0.1,0.6v3.6h-1.2V666.8z"/>
		<path class="st1" d="M111.6,671.4l-0.1-0.9h0c-0.4,0.5-1.1,1-2.1,1c-1.4,0-2.1-1-2.1-1.9c0-1.6,1.5-2.5,4.1-2.5V667
			c0-0.6-0.2-1.6-1.5-1.6c-0.6,0-1.3,0.2-1.8,0.5l-0.3-0.8c0.6-0.4,1.4-0.6,2.2-0.6c2.1,0,2.6,1.4,2.6,2.8v2.5c0,0.6,0,1.2,0.1,1.6
			H111.6z M111.4,668c-1.3,0-2.9,0.2-2.9,1.5c0,0.8,0.5,1.2,1.2,1.2c0.9,0,1.4-0.6,1.6-1.1c0-0.1,0.1-0.3,0.1-0.4V668z"/>
		<path class="st1" d="M114.4,670.2c0.4,0.2,1,0.5,1.6,0.5c0.9,0,1.3-0.4,1.3-1c0-0.6-0.3-0.9-1.3-1.2c-1.2-0.4-1.8-1.1-1.8-1.9
			c0-1.1,0.9-2,2.3-2c0.7,0,1.3,0.2,1.7,0.4l-0.3,0.9c-0.3-0.2-0.8-0.4-1.4-0.4c-0.7,0-1.1,0.4-1.1,0.9c0,0.6,0.4,0.8,1.3,1.1
			c1.2,0.4,1.8,1,1.8,2c0,1.2-0.9,2-2.5,2c-0.7,0-1.4-0.2-1.9-0.5L114.4,670.2z"/>
		<path class="st1" d="M120.1,661.5h1.2v4.2h0c0.2-0.4,0.5-0.7,0.9-0.9c0.4-0.2,0.8-0.4,1.3-0.4c0.9,0,2.4,0.6,2.4,2.9v4h-1.2v-3.9
			c0-1.1-0.4-2-1.6-2c-0.8,0-1.4,0.6-1.7,1.2c-0.1,0.2-0.1,0.4-0.1,0.6v4.1h-1.2V661.5z"/>
		<path class="st1" d="M136.7,664.6c0,0.5-0.1,1-0.1,1.9v3.9c0,1.6-0.3,2.5-1,3.1c-0.7,0.6-1.6,0.8-2.5,0.8c-0.8,0-1.7-0.2-2.3-0.6
			l0.3-0.9c0.4,0.3,1.1,0.5,2,0.5c1.3,0,2.2-0.7,2.2-2.4v-0.8h0c-0.4,0.6-1.1,1.1-2.2,1.1c-1.7,0-2.9-1.4-2.9-3.3
			c0-2.3,1.5-3.6,3.1-3.6c1.2,0,1.8,0.6,2.1,1.2h0l0.1-1H136.7z M135.4,667.3c0-0.2,0-0.4-0.1-0.6c-0.2-0.7-0.8-1.3-1.7-1.3
			c-1.2,0-2,1-2,2.6c0,1.3,0.7,2.4,2,2.4c0.8,0,1.4-0.5,1.7-1.3c0.1-0.2,0.1-0.4,0.1-0.7V667.3z"/>
		<path class="st1" d="M138.7,661.5h1.2v9.9h-1.2V661.5z"/>
		<path class="st1" d="M145.7,671.4l-0.1-0.9h0c-0.4,0.5-1.1,1-2.1,1c-1.4,0-2.1-1-2.1-1.9c0-1.6,1.5-2.5,4.1-2.5V667
			c0-0.6-0.2-1.6-1.5-1.6c-0.6,0-1.3,0.2-1.8,0.5l-0.3-0.8c0.6-0.4,1.4-0.6,2.2-0.6c2.1,0,2.6,1.4,2.6,2.8v2.5c0,0.6,0,1.2,0.1,1.6
			H145.7z M145.6,668c-1.3,0-2.9,0.2-2.9,1.5c0,0.8,0.5,1.2,1.2,1.2c0.9,0,1.4-0.6,1.6-1.1c0-0.1,0.1-0.3,0.1-0.4V668z"/>
		<path class="st1" d="M148.7,666.5c0-0.7,0-1.3-0.1-1.8h1.1l0.1,1.1h0c0.4-0.6,1-1.2,2.1-1.2c0.9,0,1.6,0.6,1.9,1.4h0
			c0.2-0.4,0.5-0.7,0.8-0.9c0.4-0.3,0.9-0.5,1.5-0.5c0.9,0,2.2,0.6,2.2,2.9v4h-1.2v-3.8c0-1.3-0.5-2.1-1.5-2.1
			c-0.7,0-1.2,0.5-1.5,1.1c-0.1,0.2-0.1,0.4-0.1,0.6v4.2H153v-4.1c0-1.1-0.5-1.9-1.4-1.9c-0.8,0-1.3,0.6-1.5,1.2
			c-0.1,0.2-0.1,0.4-0.1,0.6v4.1h-1.2V666.5z"/>
		<path class="st1" d="M163.3,671.4c0-0.5,0.1-1.1,0.1-1.8v-8.2h1.2v4.3h0c0.4-0.8,1.2-1.2,2.3-1.2c1.7,0,2.9,1.4,2.9,3.5
			c0,2.4-1.5,3.6-3,3.6c-1,0-1.8-0.4-2.3-1.3h0l-0.1,1.1H163.3z M164.6,668.7c0,0.2,0,0.3,0.1,0.4c0.2,0.9,1,1.4,1.8,1.4
			c1.3,0,2.1-1.1,2.1-2.6c0-1.4-0.7-2.5-2-2.5c-0.8,0-1.6,0.6-1.9,1.5c0,0.1-0.1,0.3-0.1,0.5V668.7z"/>
		<path class="st1" d="M175.1,671.4l-0.1-0.9h0c-0.4,0.5-1.1,1-2.1,1c-1.4,0-2.1-1-2.1-1.9c0-1.6,1.5-2.5,4.1-2.5V667
			c0-0.6-0.2-1.6-1.5-1.6c-0.6,0-1.3,0.2-1.8,0.5l-0.3-0.8c0.6-0.4,1.4-0.6,2.2-0.6c2.1,0,2.6,1.4,2.6,2.8v2.5c0,0.6,0,1.2,0.1,1.6
			H175.1z M174.9,668c-1.3,0-2.9,0.2-2.9,1.5c0,0.8,0.5,1.2,1.2,1.2c0.9,0,1.4-0.6,1.6-1.1c0-0.1,0.1-0.3,0.1-0.4V668z"/>
		<path class="st1" d="M178.1,666.5c0-0.7,0-1.3-0.1-1.8h1.1l0.1,1.1h0c0.3-0.6,1.1-1.3,2.2-1.3c0.9,0,2.4,0.6,2.4,2.9v4h-1.2v-3.9
			c0-1.1-0.4-2-1.6-2c-0.8,0-1.4,0.6-1.7,1.3c-0.1,0.2-0.1,0.4-0.1,0.6v4.1h-1.2V666.5z"/>
		<path class="st1" d="M191.7,661.5v8.2c0,0.6,0,1.3,0.1,1.8h-1.1l-0.1-1.2h0c-0.4,0.8-1.2,1.3-2.3,1.3c-1.6,0-2.9-1.4-2.9-3.4
			c0-2.3,1.4-3.6,3-3.6c1,0,1.7,0.5,2,1h0v-4H191.7z M190.5,667.4c0-0.2,0-0.4-0.1-0.5c-0.2-0.8-0.9-1.4-1.8-1.4c-1.3,0-2,1.1-2,2.6
			c0,1.4,0.7,2.5,2,2.5c0.8,0,1.6-0.5,1.8-1.5c0-0.2,0.1-0.3,0.1-0.5V667.4z"/>
		<path class="st1" d="M198.3,671.4l-3.1-9.4h1.3l1.5,4.7c0.4,1.3,0.8,2.4,1,3.5h0c0.3-1.1,0.7-2.3,1.1-3.5l1.6-4.7h1.3l-3.4,9.4
			H198.3z"/>
		<path class="st1" d="M204.3,668.3c0,1.7,1.1,2.4,2.3,2.4c0.9,0,1.4-0.2,1.9-0.4l0.2,0.9c-0.4,0.2-1.2,0.4-2.3,0.4
			c-2.1,0-3.3-1.4-3.3-3.4s1.2-3.7,3.2-3.7c2.2,0,2.8,1.9,2.8,3.2c0,0.3,0,0.4,0,0.6H204.3z M207.9,667.4c0-0.8-0.3-2-1.7-2
			c-1.2,0-1.8,1.1-1.9,2H207.9z"/>
		<path class="st1" d="M210.6,666.5c0-0.7,0-1.3-0.1-1.8h1.1l0.1,1.1h0c0.3-0.6,1.1-1.3,2.2-1.3c0.9,0,2.4,0.6,2.4,2.9v4h-1.2v-3.9
			c0-1.1-0.4-2-1.6-2c-0.8,0-1.4,0.6-1.7,1.3c-0.1,0.2-0.1,0.4-0.1,0.6v4.1h-1.2V666.5z"/>
		<path class="st1" d="M224.2,664.6c0,0.5-0.1,1-0.1,1.9v3.9c0,1.6-0.3,2.5-1,3.1c-0.7,0.6-1.6,0.8-2.5,0.8c-0.8,0-1.7-0.2-2.3-0.6
			l0.3-0.9c0.4,0.3,1.1,0.5,2,0.5c1.3,0,2.2-0.7,2.2-2.4v-0.8h0c-0.4,0.6-1.1,1.1-2.2,1.1c-1.7,0-2.9-1.4-2.9-3.3
			c0-2.3,1.5-3.6,3.1-3.6c1.2,0,1.8,0.6,2.1,1.2h0l0.1-1H224.2z M222.9,667.3c0-0.2,0-0.4-0.1-0.6c-0.2-0.7-0.8-1.3-1.7-1.3
			c-1.2,0-2,1-2,2.6c0,1.3,0.7,2.4,2,2.4c0.8,0,1.4-0.5,1.7-1.3c0.1-0.2,0.1-0.4,0.1-0.7V667.3z"/>
		<path class="st1" d="M226.9,668.3c0,1.7,1.1,2.4,2.3,2.4c0.9,0,1.4-0.2,1.9-0.4l0.2,0.9c-0.4,0.2-1.2,0.4-2.3,0.4
			c-2.1,0-3.3-1.4-3.3-3.4s1.2-3.7,3.2-3.7c2.2,0,2.8,1.9,2.8,3.2c0,0.3,0,0.4,0,0.6H226.9z M230.5,667.4c0-0.8-0.3-2-1.7-2
			c-1.2,0-1.8,1.1-1.9,2H230.5z"/>
		<path class="st1" d="M236.9,671.4l-0.1-0.9h0c-0.4,0.5-1.1,1-2.1,1c-1.4,0-2.1-1-2.1-1.9c0-1.6,1.5-2.5,4.1-2.5V667
			c0-0.6-0.2-1.6-1.5-1.6c-0.6,0-1.3,0.2-1.8,0.5l-0.3-0.8c0.6-0.4,1.4-0.6,2.2-0.6c2.1,0,2.6,1.4,2.6,2.8v2.5c0,0.6,0,1.2,0.1,1.6
			H236.9z M236.8,668c-1.3,0-2.9,0.2-2.9,1.5c0,0.8,0.5,1.2,1.2,1.2c0.9,0,1.4-0.6,1.6-1.1c0-0.1,0.1-0.3,0.1-0.4V668z"/>
		<path class="st1" d="M239.9,666.5c0-0.7,0-1.3-0.1-1.8h1.1l0.1,1.1h0c0.3-0.6,1.1-1.3,2.2-1.3c0.9,0,2.4,0.6,2.4,2.9v4h-1.2v-3.9
			c0-1.1-0.4-2-1.6-2c-0.8,0-1.4,0.6-1.7,1.3c-0.1,0.2-0.1,0.4-0.1,0.6v4.1h-1.2V666.5z"/>
		<path class="st1" d="M252.5,671.2c-0.3,0.2-1,0.4-1.9,0.4c-2,0-3.4-1.4-3.4-3.5c0-2.1,1.4-3.6,3.6-3.6c0.7,0,1.4,0.2,1.7,0.4
			l-0.3,1c-0.3-0.2-0.8-0.3-1.4-0.3c-1.6,0-2.4,1.1-2.4,2.6c0,1.6,1,2.5,2.4,2.5c0.7,0,1.2-0.2,1.5-0.3L252.5,671.2z"/>
		<path class="st1" d="M254.6,668.3c0,1.7,1.1,2.4,2.3,2.4c0.9,0,1.4-0.2,1.9-0.4l0.2,0.9c-0.4,0.2-1.2,0.4-2.3,0.4
			c-2.1,0-3.3-1.4-3.3-3.4s1.2-3.7,3.2-3.7c2.2,0,2.8,1.9,2.8,3.2c0,0.3,0,0.4,0,0.6H254.6z M258.2,667.4c0-0.8-0.3-2-1.7-2
			c-1.2,0-1.8,1.1-1.9,2H258.2z"/>
		<path class="st1" d="M265.1,663h-2.9v-1h7v1h-2.9v8.4h-1.2V663z"/>
		<path class="st1" d="M273.1,671.4l-0.1-0.9h0c-0.4,0.5-1.1,1-2.1,1c-1.4,0-2.1-1-2.1-1.9c0-1.6,1.5-2.5,4.1-2.5V667
			c0-0.6-0.2-1.6-1.5-1.6c-0.6,0-1.3,0.2-1.8,0.5l-0.3-0.8c0.6-0.4,1.4-0.6,2.2-0.6c2.1,0,2.6,1.4,2.6,2.8v2.5c0,0.6,0,1.2,0.1,1.6
			H273.1z M272.9,668c-1.3,0-2.9,0.2-2.9,1.5c0,0.8,0.5,1.2,1.2,1.2c0.9,0,1.4-0.6,1.6-1.1c0-0.1,0.1-0.3,0.1-0.4V668z"/>
		<path class="st1" d="M276.1,666.5c0-0.7,0-1.3-0.1-1.8h1.1l0.1,1.1h0c0.4-0.6,1-1.2,2.1-1.2c0.9,0,1.6,0.6,1.9,1.4h0
			c0.2-0.4,0.5-0.7,0.8-0.9c0.4-0.3,0.9-0.5,1.5-0.5c0.9,0,2.2,0.6,2.2,2.9v4h-1.2v-3.8c0-1.3-0.5-2.1-1.5-2.1
			c-0.7,0-1.2,0.5-1.5,1.1c-0.1,0.2-0.1,0.4-0.1,0.6v4.2h-1.2v-4.1c0-1.1-0.5-1.9-1.4-1.9c-0.8,0-1.3,0.6-1.5,1.2
			c-0.1,0.2-0.1,0.4-0.1,0.6v4.1h-1.2V666.5z"/>
		<path class="st1" d="M287.8,666.9c0-0.9,0-1.6-0.1-2.2h1.1l0.1,1.2h0c0.5-0.8,1.3-1.3,2.4-1.3c1.6,0,2.9,1.4,2.9,3.4
			c0,2.4-1.5,3.6-3.1,3.6c-0.9,0-1.7-0.4-2.1-1.1h0v3.7h-1.2V666.9z M289,668.7c0,0.2,0,0.4,0.1,0.5c0.2,0.9,1,1.4,1.8,1.4
			c1.3,0,2.1-1.1,2.1-2.6c0-1.4-0.7-2.5-2-2.5c-0.8,0-1.6,0.6-1.9,1.5c0,0.2-0.1,0.3-0.1,0.5V668.7z"/>
		<path class="st1" d="M301.9,668c0,2.5-1.7,3.6-3.4,3.6c-1.8,0-3.2-1.3-3.2-3.5c0-2.3,1.5-3.6,3.4-3.6
			C300.6,664.5,301.9,665.9,301.9,668z M296.5,668c0,1.5,0.9,2.6,2.1,2.6c1.2,0,2.1-1.1,2.1-2.6c0-1.1-0.6-2.6-2-2.6
			S296.5,666.8,296.5,668z"/>
		<path class="st1" d="M303.4,666.5c0-0.7,0-1.3-0.1-1.8h1.1l0.1,1.1h0c0.3-0.6,1.1-1.3,2.2-1.3c0.9,0,2.4,0.6,2.4,2.9v4H308v-3.9
			c0-1.1-0.4-2-1.6-2c-0.8,0-1.4,0.6-1.7,1.3c-0.1,0.2-0.1,0.4-0.1,0.6v4.1h-1.2V666.5z"/>
		<path class="st1" d="M314.2,661.5h1.2v4.2h0c0.2-0.4,0.5-0.7,0.9-0.9c0.4-0.2,0.8-0.4,1.3-0.4c0.9,0,2.4,0.6,2.4,2.9v4h-1.2v-3.9
			c0-1.1-0.4-2-1.6-2c-0.8,0-1.4,0.6-1.7,1.2c-0.1,0.2-0.1,0.4-0.1,0.6v4.1h-1.2V661.5z"/>
		<path class="st1" d="M325.7,671.4l-0.1-0.9h0c-0.4,0.5-1.1,1-2.1,1c-1.4,0-2.1-1-2.1-1.9c0-1.6,1.5-2.5,4.1-2.5V667
			c0-0.6-0.2-1.6-1.5-1.6c-0.6,0-1.3,0.2-1.8,0.5l-0.3-0.8c0.6-0.4,1.4-0.6,2.2-0.6c2.1,0,2.6,1.4,2.6,2.8v2.5c0,0.6,0,1.2,0.1,1.6
			H325.7z M325.5,668c-1.3,0-2.9,0.2-2.9,1.5c0,0.8,0.5,1.2,1.2,1.2c0.9,0,1.4-0.6,1.6-1.1c0-0.1,0.1-0.3,0.1-0.4V668z"/>
		<path class="st1" d="M328.5,670.2c0.4,0.2,1,0.5,1.6,0.5c0.9,0,1.3-0.4,1.3-1c0-0.6-0.3-0.9-1.3-1.2c-1.2-0.4-1.8-1.1-1.8-1.9
			c0-1.1,0.9-2,2.3-2c0.7,0,1.3,0.2,1.7,0.4l-0.3,0.9c-0.3-0.2-0.8-0.4-1.4-0.4c-0.7,0-1.1,0.4-1.1,0.9c0,0.6,0.4,0.8,1.3,1.1
			c1.2,0.4,1.8,1,1.8,2c0,1.2-0.9,2-2.5,2c-0.7,0-1.4-0.2-1.9-0.5L328.5,670.2z"/>
		<path class="st1" d="M337.2,671.4c0-0.5,0.1-1.1,0.1-1.8v-8.2h1.2v4.3h0c0.4-0.8,1.2-1.2,2.3-1.2c1.7,0,2.9,1.4,2.9,3.5
			c0,2.4-1.5,3.6-3,3.6c-1,0-1.8-0.4-2.3-1.3h0l-0.1,1.1H337.2z M338.4,668.7c0,0.2,0,0.3,0.1,0.4c0.2,0.9,1,1.4,1.8,1.4
			c1.3,0,2.1-1.1,2.1-2.6c0-1.4-0.7-2.5-2-2.5c-0.8,0-1.6,0.6-1.9,1.5c0,0.1-0.1,0.3-0.1,0.5V668.7z"/>
		<path class="st1" d="M345.9,668.3c0,1.7,1.1,2.4,2.3,2.4c0.9,0,1.4-0.2,1.9-0.4l0.2,0.9c-0.4,0.2-1.2,0.4-2.3,0.4
			c-2.1,0-3.3-1.4-3.3-3.4s1.2-3.7,3.2-3.7c2.2,0,2.8,1.9,2.8,3.2c0,0.3,0,0.4,0,0.6H345.9z M349.5,667.4c0-0.8-0.3-2-1.7-2
			c-1.2,0-1.8,1.1-1.9,2H349.5z"/>
		<path class="st1" d="M352.9,668.3c0,1.7,1.1,2.4,2.3,2.4c0.9,0,1.4-0.2,1.9-0.4l0.2,0.9c-0.4,0.2-1.2,0.4-2.3,0.4
			c-2.1,0-3.3-1.4-3.3-3.4s1.2-3.7,3.2-3.7c2.2,0,2.8,1.9,2.8,3.2c0,0.3,0,0.4,0,0.6H352.9z M356.5,667.4c0-0.8-0.3-2-1.7-2
			c-1.2,0-1.8,1.1-1.9,2H356.5z"/>
		<path class="st1" d="M359.2,666.5c0-0.7,0-1.3-0.1-1.8h1.1l0.1,1.1h0c0.3-0.6,1.1-1.3,2.2-1.3c0.9,0,2.4,0.6,2.4,2.9v4h-1.2v-3.9
			c0-1.1-0.4-2-1.6-2c-0.8,0-1.4,0.6-1.7,1.3c-0.1,0.2-0.1,0.4-0.1,0.6v4.1h-1.2V666.5z"/>
		<path class="st1" d="M374.6,670.4L374.6,670.4c-0.4,0.7-1.1,1.2-2.2,1.2c-1.6,0-2.9-1.4-2.9-3.4c0-2.5,1.6-3.7,3.1-3.7
			c1.1,0,1.8,0.5,2.1,1.2h0l0-1h1.2c0,0.6,0,1.2,0,1.9v7.7h-1.2V670.4z M374.6,667.4c0-0.2,0-0.4-0.1-0.5c-0.2-0.8-0.8-1.4-1.8-1.4
			c-1.3,0-2,1.1-2,2.6c0,1.3,0.6,2.5,2,2.5c0.8,0,1.5-0.5,1.8-1.3c0.1-0.2,0.1-0.4,0.1-0.6V667.4z"/>
		<path class="st1" d="M383.5,669.6c0,0.7,0,1.3,0.1,1.8h-1.1l-0.1-1.1h0c-0.3,0.5-1,1.3-2.2,1.3c-1.1,0-2.3-0.6-2.3-3v-4h1.2v3.8
			c0,1.3,0.4,2.2,1.5,2.2c0.8,0,1.4-0.6,1.6-1.1c0.1-0.2,0.1-0.4,0.1-0.6v-4.2h1.2V669.6z"/>
		<path class="st1" d="M386.2,668.3c0,1.7,1.1,2.4,2.3,2.4c0.9,0,1.4-0.2,1.9-0.4l0.2,0.9c-0.4,0.2-1.2,0.4-2.3,0.4
			c-2.1,0-3.3-1.4-3.3-3.4s1.2-3.7,3.2-3.7c2.2,0,2.8,1.9,2.8,3.2c0,0.3,0,0.4,0,0.6H386.2z M389.8,667.4c0-0.8-0.3-2-1.7-2
			c-1.2,0-1.8,1.1-1.9,2H389.8z"/>
		<path class="st1" d="M393.2,668.3c0,1.7,1.1,2.4,2.3,2.4c0.9,0,1.4-0.2,1.9-0.4l0.2,0.9c-0.4,0.2-1.2,0.4-2.3,0.4
			c-2.1,0-3.3-1.4-3.3-3.4s1.2-3.7,3.2-3.7c2.2,0,2.8,1.9,2.8,3.2c0,0.3,0,0.4,0,0.6H393.2z M396.8,667.4c0-0.8-0.3-2-1.7-2
			c-1.2,0-1.8,1.1-1.9,2H396.8z"/>
		<path class="st1" d="M399.6,666.8c0-0.8,0-1.5-0.1-2.1h1.1l0,1.3h0.1c0.3-0.9,1-1.5,1.9-1.5c0.1,0,0.2,0,0.3,0v1.2
			c-0.1,0-0.3,0-0.4,0c-0.9,0-1.5,0.7-1.7,1.6c0,0.2-0.1,0.4-0.1,0.6v3.6h-1.2V666.8z"/>
		<path class="st1" d="M405.6,662.7c0,0.4-0.3,0.8-0.8,0.8c-0.4,0-0.7-0.3-0.7-0.8c0-0.4,0.3-0.8,0.8-0.8
			C405.3,662,405.6,662.3,405.6,662.7z M404.2,671.4v-6.8h1.2v6.8H404.2z"/>
		<path class="st1" d="M407.5,666.5c0-0.7,0-1.3-0.1-1.8h1.1l0.1,1.1h0c0.3-0.6,1.1-1.3,2.2-1.3c0.9,0,2.4,0.6,2.4,2.9v4H412v-3.9
			c0-1.1-0.4-2-1.6-2c-0.8,0-1.4,0.6-1.7,1.3c-0.1,0.2-0.1,0.4-0.1,0.6v4.1h-1.2V666.5z"/>
		<path class="st1" d="M421.1,664.6c0,0.5-0.1,1-0.1,1.9v3.9c0,1.6-0.3,2.5-1,3.1c-0.7,0.6-1.6,0.8-2.5,0.8c-0.8,0-1.7-0.2-2.3-0.6
			l0.3-0.9c0.4,0.3,1.1,0.5,2,0.5c1.3,0,2.2-0.7,2.2-2.4v-0.8h0c-0.4,0.6-1.1,1.1-2.2,1.1c-1.7,0-2.9-1.4-2.9-3.3
			c0-2.3,1.5-3.6,3.1-3.6c1.2,0,1.8,0.6,2.1,1.2h0l0.1-1H421.1z M419.8,667.3c0-0.2,0-0.4-0.1-0.6c-0.2-0.7-0.8-1.3-1.7-1.3
			c-1.2,0-2,1-2,2.6c0,1.3,0.7,2.4,2,2.4c0.8,0,1.4-0.5,1.7-1.3c0.1-0.2,0.1-0.4,0.1-0.7V667.3z"/>
		<path class="st1" d="M427.5,662.7v1.9h1.8v0.9h-1.8v3.7c0,0.8,0.2,1.3,0.9,1.3c0.3,0,0.6,0,0.7-0.1l0.1,0.9
			c-0.2,0.1-0.6,0.2-1.1,0.2c-0.6,0-1-0.2-1.3-0.5c-0.4-0.4-0.5-1-0.5-1.8v-3.7h-1.1v-0.9h1.1V663L427.5,662.7z"/>
		<path class="st1" d="M430.7,661.5h1.2v4.2h0c0.2-0.4,0.5-0.7,0.9-0.9c0.4-0.2,0.8-0.4,1.3-0.4c0.9,0,2.4,0.6,2.4,2.9v4h-1.2v-3.9
			c0-1.1-0.4-2-1.6-2c-0.8,0-1.4,0.6-1.7,1.2c-0.1,0.2-0.1,0.4-0.1,0.6v4.1h-1.2V661.5z"/>
		<path class="st1" d="M439.1,668.3c0,1.7,1.1,2.4,2.3,2.4c0.9,0,1.4-0.2,1.9-0.4l0.2,0.9c-0.4,0.2-1.2,0.4-2.3,0.4
			c-2.1,0-3.3-1.4-3.3-3.4s1.2-3.7,3.2-3.7c2.2,0,2.8,1.9,2.8,3.2c0,0.3,0,0.4,0,0.6H439.1z M442.7,667.4c0-0.8-0.3-2-1.7-2
			c-1.2,0-1.8,1.1-1.9,2H442.7z"/>
		<path class="st1" d="M449.7,662v5.6c0,2.1,0.9,3,2.2,3c1.4,0,2.3-0.9,2.3-3V662h1.2v5.5c0,2.9-1.5,4.1-3.6,4.1
			c-1.9,0-3.4-1.1-3.4-4V662H449.7z"/>
		<path class="st1" d="M459,662.7v1.9h1.8v0.9H459v3.7c0,0.8,0.2,1.3,0.9,1.3c0.3,0,0.6,0,0.7-0.1l0.1,0.9c-0.2,0.1-0.6,0.2-1.1,0.2
			c-0.6,0-1-0.2-1.3-0.5c-0.4-0.4-0.5-1-0.5-1.8v-3.7h-1.1v-0.9h1.1V663L459,662.7z"/>
		<path class="st1" d="M465.9,671.4l-0.1-0.9h0c-0.4,0.5-1.1,1-2.1,1c-1.4,0-2.1-1-2.1-1.9c0-1.6,1.5-2.5,4.1-2.5V667
			c0-0.6-0.2-1.6-1.5-1.6c-0.6,0-1.3,0.2-1.8,0.5l-0.3-0.8c0.6-0.4,1.4-0.6,2.2-0.6c2.1,0,2.6,1.4,2.6,2.8v2.5c0,0.6,0,1.2,0.1,1.6
			H465.9z M465.7,668c-1.3,0-2.9,0.2-2.9,1.5c0,0.8,0.5,1.2,1.2,1.2c0.9,0,1.4-0.6,1.6-1.1c0-0.1,0.1-0.3,0.1-0.4V668z"/>
		<path class="st1" d="M468.9,661.5h1.2v4.2h0c0.2-0.4,0.5-0.7,0.9-0.9c0.4-0.2,0.8-0.4,1.3-0.4c0.9,0,2.4,0.6,2.4,2.9v4h-1.2v-3.9
			c0-1.1-0.4-2-1.6-2c-0.8,0-1.4,0.6-1.7,1.2c-0.1,0.2-0.1,0.4-0.1,0.6v4.1h-1.2V661.5z"/>
		<path class="st1" d="M479.5,670.2c0.4,0.2,1,0.5,1.6,0.5c0.9,0,1.3-0.4,1.3-1c0-0.6-0.3-0.9-1.3-1.2c-1.2-0.4-1.8-1.1-1.8-1.9
			c0-1.1,0.9-2,2.3-2c0.7,0,1.3,0.2,1.7,0.4l-0.3,0.9c-0.3-0.2-0.8-0.4-1.4-0.4c-0.7,0-1.1,0.4-1.1,0.9c0,0.6,0.4,0.8,1.3,1.1
			c1.2,0.4,1.8,1,1.8,2c0,1.2-0.9,2-2.5,2c-0.7,0-1.4-0.2-1.9-0.5L479.5,670.2z"/>
		<path class="st1" d="M490,671.2c-0.3,0.2-1,0.4-1.9,0.4c-2,0-3.4-1.4-3.4-3.5c0-2.1,1.4-3.6,3.6-3.6c0.7,0,1.4,0.2,1.7,0.4l-0.3,1
			c-0.3-0.2-0.8-0.3-1.4-0.3c-1.6,0-2.4,1.1-2.4,2.6c0,1.6,1,2.5,2.4,2.5c0.7,0,1.2-0.2,1.5-0.3L490,671.2z"/>
		<path class="st1" d="M492.1,668.3c0,1.7,1.1,2.4,2.3,2.4c0.9,0,1.4-0.2,1.9-0.4l0.2,0.9c-0.4,0.2-1.2,0.4-2.3,0.4
			c-2.1,0-3.3-1.4-3.3-3.4s1.2-3.7,3.2-3.7c2.2,0,2.8,1.9,2.8,3.2c0,0.3,0,0.4,0,0.6H492.1z M495.7,667.4c0-0.8-0.3-2-1.7-2
			c-1.2,0-1.8,1.1-1.9,2H495.7z"/>
		<path class="st1" d="M498.4,666.5c0-0.7,0-1.3-0.1-1.8h1.1l0.1,1.1h0c0.3-0.6,1.1-1.3,2.2-1.3c0.9,0,2.4,0.6,2.4,2.9v4h-1.2v-3.9
			c0-1.1-0.4-2-1.6-2c-0.8,0-1.4,0.6-1.7,1.3c-0.1,0.2-0.1,0.4-0.1,0.6v4.1h-1.2V666.5z"/>
		<path class="st1" d="M506.9,668.3c0,1.7,1.1,2.4,2.3,2.4c0.9,0,1.4-0.2,1.9-0.4l0.2,0.9c-0.4,0.2-1.2,0.4-2.3,0.4
			c-2.1,0-3.3-1.4-3.3-3.4s1.2-3.7,3.2-3.7c2.2,0,2.8,1.9,2.8,3.2c0,0.3,0,0.4,0,0.6H506.9z M510.5,667.4c0-0.8-0.3-2-1.7-2
			c-1.2,0-1.8,1.1-1.9,2H510.5z"/>
		<path class="st1" d="M516,670.2c0.4,0.2,1,0.5,1.6,0.5c0.9,0,1.3-0.4,1.3-1c0-0.6-0.3-0.9-1.3-1.2c-1.2-0.4-1.8-1.1-1.8-1.9
			c0-1.1,0.9-2,2.3-2c0.7,0,1.3,0.2,1.7,0.4l-0.3,0.9c-0.3-0.2-0.8-0.4-1.4-0.4c-0.7,0-1.1,0.4-1.1,0.9c0,0.6,0.4,0.8,1.3,1.1
			c1.2,0.4,1.8,1,1.8,2c0,1.2-0.9,2-2.5,2c-0.7,0-1.4-0.2-1.9-0.5L516,670.2z"/>
		<path class="st1" d="M523.1,662.7c0,0.4-0.3,0.8-0.8,0.8c-0.4,0-0.7-0.3-0.7-0.8c0-0.4,0.3-0.8,0.8-0.8
			C522.8,662,523.1,662.3,523.1,662.7z M521.7,671.4v-6.8h1.2v6.8H521.7z"/>
		<path class="st1" d="M525,666.5c0-0.7,0-1.3-0.1-1.8h1.1l0.1,1.1h0c0.3-0.6,1.1-1.3,2.2-1.3c0.9,0,2.4,0.6,2.4,2.9v4h-1.2v-3.9
			c0-1.1-0.4-2-1.6-2c-0.8,0-1.4,0.6-1.7,1.3c-0.1,0.2-0.1,0.4-0.1,0.6v4.1H525V666.5z"/>
		<path class="st1" d="M537.6,671.2c-0.3,0.2-1,0.4-1.9,0.4c-2,0-3.4-1.4-3.4-3.5c0-2.1,1.4-3.6,3.6-3.6c0.7,0,1.4,0.2,1.7,0.4
			l-0.3,1c-0.3-0.2-0.8-0.3-1.4-0.3c-1.6,0-2.4,1.1-2.4,2.6c0,1.6,1,2.5,2.4,2.5c0.7,0,1.2-0.2,1.5-0.3L537.6,671.2z"/>
		<path class="st1" d="M539.6,668.3c0,1.7,1.1,2.4,2.3,2.4c0.9,0,1.4-0.2,1.9-0.4l0.2,0.9c-0.4,0.2-1.2,0.4-2.3,0.4
			c-2.1,0-3.3-1.4-3.3-3.4s1.2-3.7,3.2-3.7c2.2,0,2.8,1.9,2.8,3.2c0,0.3,0,0.4,0,0.6H539.6z M543.2,667.4c0-0.8-0.3-2-1.7-2
			c-1.2,0-1.8,1.1-1.9,2H543.2z"/>
		<path class="st1" d="M548.5,671.4v-0.8l1-0.9c2.3-2.2,3.4-3.4,3.4-4.8c0-0.9-0.4-1.8-1.8-1.8c-0.8,0-1.5,0.4-1.9,0.8l-0.4-0.9
			c0.6-0.5,1.5-0.9,2.6-0.9c2,0,2.8,1.3,2.8,2.6c0,1.7-1.2,3-3.1,4.9l-0.7,0.7v0h4.1v1H548.5z"/>
		<path class="st1" d="M561.7,666.8c0,3.1-1.1,4.8-3.2,4.8c-1.8,0-3-1.7-3-4.7c0-3.1,1.3-4.7,3.2-4.7
			C560.7,662.2,561.7,663.9,561.7,666.8z M556.8,666.9c0,2.4,0.7,3.7,1.8,3.7c1.3,0,1.9-1.5,1.9-3.8c0-2.2-0.6-3.7-1.8-3.7
			C557.6,663.1,556.8,664.4,556.8,666.9z"/>
		<path class="st1" d="M565.6,663.5L565.6,663.5l-1.6,0.9l-0.2-0.9l2-1.1h1v9.1h-1.2V663.5z"/>
		<path class="st1" d="M570.4,670c0.3,0.2,1.2,0.6,2,0.6c1.6,0,2.1-1,2.1-1.8c0-1.3-1.2-1.8-2.4-1.8h-0.7v-0.9h0.7
			c0.9,0,2-0.5,2-1.5c0-0.7-0.5-1.4-1.6-1.4c-0.7,0-1.4,0.3-1.8,0.6l-0.3-0.9c0.5-0.4,1.4-0.7,2.4-0.7c1.8,0,2.6,1.1,2.6,2.2
			c0,0.9-0.6,1.7-1.7,2.1v0c1.1,0.2,2,1.1,2,2.3c0,1.5-1.1,2.7-3.3,2.7c-1,0-1.9-0.3-2.4-0.6L570.4,670z"/>
		<path class="st1" d="M577.3,670.7c0-0.5,0.3-0.9,0.8-0.9c0.5,0,0.8,0.4,0.8,0.9c0,0.5-0.3,0.9-0.8,0.9
			C577.7,671.6,577.3,671.2,577.3,670.7z"/>
		<path class="st1" d="M51.6,678.8h5.1v1h-3.9v3.1h3.6v1h-3.6v4.3h-1.2V678.8z"/>
		<path class="st1" d="M58.6,685.1c0,1.7,1.1,2.4,2.3,2.4c0.9,0,1.4-0.2,1.9-0.4l0.2,0.9c-0.4,0.2-1.2,0.4-2.3,0.4
			c-2.1,0-3.3-1.4-3.3-3.4s1.2-3.7,3.2-3.7c2.2,0,2.8,1.9,2.8,3.2c0,0.3,0,0.4,0,0.6H58.6z M62.2,684.2c0-0.8-0.3-2-1.7-2
			c-1.2,0-1.8,1.1-1.9,2H62.2z"/>
		<path class="st1" d="M68.7,688.2l-0.1-0.9h0c-0.4,0.5-1.1,1-2.1,1c-1.4,0-2.1-1-2.1-1.9c0-1.6,1.5-2.5,4.1-2.5v-0.1
			c0-0.6-0.2-1.6-1.5-1.6c-0.6,0-1.3,0.2-1.8,0.5l-0.3-0.8c0.6-0.4,1.4-0.6,2.2-0.6c2.1,0,2.6,1.4,2.6,2.8v2.5c0,0.6,0,1.2,0.1,1.6
			H68.7z M68.5,684.8c-1.3,0-2.9,0.2-2.9,1.5c0,0.8,0.5,1.2,1.2,1.2c0.9,0,1.4-0.6,1.6-1.1c0-0.1,0.1-0.3,0.1-0.4V684.8z"/>
		<path class="st1" d="M73.1,679.5v1.9h1.8v0.9h-1.8v3.7c0,0.8,0.2,1.3,0.9,1.3c0.3,0,0.6,0,0.7-0.1l0.1,0.9
			c-0.2,0.1-0.6,0.2-1.1,0.2c-0.6,0-1-0.2-1.3-0.5c-0.4-0.4-0.5-1-0.5-1.8v-3.7h-1.1v-0.9h1.1v-1.6L73.1,679.5z"/>
		<path class="st1" d="M81.9,686.4c0,0.7,0,1.3,0.1,1.8h-1.1l-0.1-1.1h0c-0.3,0.5-1,1.3-2.2,1.3c-1.1,0-2.3-0.6-2.3-3v-4h1.2v3.8
			c0,1.3,0.4,2.2,1.5,2.2c0.8,0,1.4-0.6,1.6-1.1c0.1-0.2,0.1-0.4,0.1-0.6v-4.2h1.2V686.4z"/>
		<path class="st1" d="M84,683.6c0-0.8,0-1.5-0.1-2.1H85l0,1.3h0.1c0.3-0.9,1-1.5,1.9-1.5c0.1,0,0.2,0,0.3,0v1.2c-0.1,0-0.3,0-0.4,0
			c-0.9,0-1.5,0.7-1.7,1.6c0,0.2-0.1,0.4-0.1,0.6v3.6H84V683.6z"/>
		<path class="st1" d="M90,679.5c0,0.4-0.3,0.8-0.8,0.8c-0.4,0-0.7-0.3-0.7-0.8c0-0.4,0.3-0.8,0.8-0.8C89.7,678.8,90,679.1,90,679.5
			z M88.6,688.2v-6.8h1.2v6.8H88.6z"/>
		<path class="st1" d="M91.9,683.3c0-0.7,0-1.3-0.1-1.8h1.1l0.1,1.1h0c0.3-0.6,1.1-1.3,2.2-1.3c0.9,0,2.4,0.6,2.4,2.9v4h-1.2v-3.9
			c0-1.1-0.4-2-1.6-2c-0.8,0-1.4,0.6-1.7,1.3c-0.1,0.2-0.1,0.4-0.1,0.6v4.1h-1.2V683.3z"/>
		<path class="st1" d="M105.5,681.4c0,0.5-0.1,1-0.1,1.9v3.9c0,1.6-0.3,2.5-1,3.1c-0.7,0.6-1.6,0.8-2.5,0.8c-0.8,0-1.7-0.2-2.3-0.6
			l0.3-0.9c0.4,0.3,1.1,0.5,2,0.5c1.3,0,2.2-0.7,2.2-2.4v-0.8h0c-0.4,0.6-1.1,1.1-2.2,1.1c-1.7,0-2.9-1.4-2.9-3.3
			c0-2.3,1.5-3.6,3.1-3.6c1.2,0,1.8,0.6,2.1,1.2h0l0.1-1H105.5z M104.2,684.1c0-0.2,0-0.4-0.1-0.6c-0.2-0.7-0.8-1.3-1.7-1.3
			c-1.2,0-2,1-2,2.6c0,1.3,0.7,2.4,2,2.4c0.8,0,1.4-0.5,1.7-1.3c0.1-0.2,0.1-0.4,0.1-0.7V684.1z"/>
		<path class="st1" d="M110.3,686.7c0.5,0.3,1.3,0.6,2.2,0.6c1.2,0,2-0.7,2-1.6c0-0.9-0.5-1.4-1.8-1.9c-1.5-0.5-2.5-1.3-2.5-2.7
			c0-1.5,1.2-2.6,3.1-2.6c1,0,1.7,0.2,2.1,0.5l-0.3,1c-0.3-0.2-0.9-0.4-1.8-0.4c-1.3,0-1.8,0.8-1.8,1.4c0,0.9,0.6,1.3,1.9,1.8
			c1.6,0.6,2.4,1.4,2.4,2.8c0,1.5-1.1,2.7-3.3,2.7c-0.9,0-1.9-0.3-2.4-0.6L110.3,686.7z"/>
		<path class="st1" d="M117.4,683.3c0-0.7,0-1.3-0.1-1.8h1.1l0.1,1.1h0c0.3-0.6,1.1-1.3,2.2-1.3c0.9,0,2.4,0.6,2.4,2.9v4h-1.2v-3.9
			c0-1.1-0.4-2-1.6-2c-0.8,0-1.4,0.6-1.7,1.3c-0.1,0.2-0.1,0.4-0.1,0.6v4.1h-1.2V683.3z"/>
		<path class="st1" d="M131.3,684.8c0,2.5-1.7,3.6-3.4,3.6c-1.8,0-3.2-1.3-3.2-3.5c0-2.3,1.5-3.6,3.4-3.6
			C129.9,681.3,131.3,682.7,131.3,684.8z M125.9,684.8c0,1.5,0.9,2.6,2.1,2.6c1.2,0,2.1-1.1,2.1-2.6c0-1.1-0.6-2.6-2-2.6
			S125.9,683.6,125.9,684.8z"/>
		<path class="st1" d="M133.2,681.4l0.9,3.4c0.2,0.8,0.4,1.5,0.5,2.2h0c0.2-0.7,0.4-1.4,0.6-2.1l1.1-3.5h1l1.1,3.4
			c0.3,0.8,0.4,1.5,0.6,2.2h0c0.1-0.7,0.3-1.4,0.5-2.2l1-3.4h1.2l-2.2,6.8h-1.1l-1-3.2c-0.2-0.8-0.4-1.4-0.6-2.2h0
			c-0.2,0.8-0.4,1.5-0.6,2.2l-1.1,3.2H134l-2-6.8H133.2z"/>
		<path class="st1" d="M152.1,684.8c0,2.5-1.7,3.6-3.4,3.6c-1.8,0-3.2-1.3-3.2-3.5c0-2.3,1.5-3.6,3.4-3.6
			C150.8,681.3,152.1,682.7,152.1,684.8z M146.7,684.8c0,1.5,0.9,2.6,2.1,2.6c1.2,0,2.1-1.1,2.1-2.6c0-1.1-0.6-2.6-2-2.6
			S146.7,683.6,146.7,684.8z"/>
		<path class="st1" d="M153.7,683.3c0-0.7,0-1.3-0.1-1.8h1.1l0.1,1.1h0c0.3-0.6,1.1-1.3,2.2-1.3c0.9,0,2.4,0.6,2.4,2.9v4h-1.2v-3.9
			c0-1.1-0.4-2-1.6-2c-0.8,0-1.4,0.6-1.7,1.3c-0.1,0.2-0.1,0.4-0.1,0.6v4.1h-1.2V683.3z"/>
		<path class="st1" d="M170.2,681.4c0,0.5-0.1,1-0.1,1.9v3.9c0,1.6-0.3,2.5-1,3.1c-0.7,0.6-1.6,0.8-2.5,0.8c-0.8,0-1.7-0.2-2.3-0.6
			l0.3-0.9c0.4,0.3,1.1,0.5,2,0.5c1.3,0,2.2-0.7,2.2-2.4v-0.8h0c-0.4,0.6-1.1,1.1-2.2,1.1c-1.7,0-2.9-1.4-2.9-3.3
			c0-2.3,1.5-3.6,3.1-3.6c1.2,0,1.8,0.6,2.1,1.2h0l0.1-1H170.2z M169,684.1c0-0.2,0-0.4-0.1-0.6c-0.2-0.7-0.8-1.3-1.7-1.3
			c-1.2,0-2,1-2,2.6c0,1.3,0.7,2.4,2,2.4c0.8,0,1.4-0.5,1.7-1.3c0.1-0.2,0.1-0.4,0.1-0.7V684.1z"/>
		<path class="st1" d="M177.9,686.4c0,0.7,0,1.3,0.1,1.8h-1.1l-0.1-1.1h0c-0.3,0.5-1,1.3-2.2,1.3c-1.1,0-2.3-0.6-2.3-3v-4h1.2v3.8
			c0,1.3,0.4,2.2,1.5,2.2c0.8,0,1.4-0.6,1.6-1.1c0.1-0.2,0.1-0.4,0.1-0.6v-4.2h1.2V686.4z"/>
		<path class="st1" d="M181.3,679.5c0,0.4-0.3,0.8-0.8,0.8c-0.4,0-0.7-0.3-0.7-0.8c0-0.4,0.3-0.8,0.8-0.8
			C181,678.8,181.3,679.1,181.3,679.5z M179.9,688.2v-6.8h1.2v6.8H179.9z"/>
		<path class="st1" d="M184.7,679.5v1.9h1.8v0.9h-1.8v3.7c0,0.8,0.2,1.3,0.9,1.3c0.3,0,0.6,0,0.7-0.1l0.1,0.9
			c-0.2,0.1-0.6,0.2-1.1,0.2c-0.6,0-1-0.2-1.3-0.5c-0.4-0.4-0.5-1-0.5-1.8v-3.7h-1.1v-0.9h1.1v-1.6L184.7,679.5z"/>
		<path class="st1" d="M191.6,688.2l-0.1-0.9h0c-0.4,0.5-1.1,1-2.1,1c-1.4,0-2.1-1-2.1-1.9c0-1.6,1.5-2.5,4.1-2.5v-0.1
			c0-0.6-0.2-1.6-1.5-1.6c-0.6,0-1.3,0.2-1.8,0.5l-0.3-0.8c0.6-0.4,1.4-0.6,2.2-0.6c2.1,0,2.6,1.4,2.6,2.8v2.5c0,0.6,0,1.2,0.1,1.6
			H191.6z M191.4,684.8c-1.3,0-2.9,0.2-2.9,1.5c0,0.8,0.5,1.2,1.2,1.2c0.9,0,1.4-0.6,1.6-1.1c0-0.1,0.1-0.3,0.1-0.4V684.8z"/>
		<path class="st1" d="M194.6,683.6c0-0.8,0-1.5-0.1-2.1h1.1l0,1.3h0.1c0.3-0.9,1-1.5,1.9-1.5c0.1,0,0.2,0,0.3,0v1.2
			c-0.1,0-0.3,0-0.4,0c-0.9,0-1.5,0.7-1.7,1.6c0,0.2-0.1,0.4-0.1,0.6v3.6h-1.2V683.6z"/>
		<path class="st1" d="M197.6,689.9c0.3-0.8,0.7-2.3,0.8-3.3l1.4-0.1c-0.3,1.2-0.9,2.7-1.3,3.4L197.6,689.9z"/>
		<path class="st1" d="M204.2,686.7c0.5,0.3,1.3,0.6,2.2,0.6c1.2,0,2-0.7,2-1.6c0-0.9-0.5-1.4-1.8-1.9c-1.5-0.5-2.5-1.3-2.5-2.7
			c0-1.5,1.2-2.6,3.1-2.6c1,0,1.7,0.2,2.1,0.5l-0.3,1c-0.3-0.2-0.9-0.4-1.8-0.4c-1.3,0-1.8,0.8-1.8,1.4c0,0.9,0.6,1.3,1.9,1.8
			c1.6,0.6,2.4,1.4,2.4,2.8c0,1.5-1.1,2.7-3.3,2.7c-0.9,0-1.9-0.3-2.4-0.6L204.2,686.7z"/>
		<path class="st1" d="M215.9,687.2L215.9,687.2c-0.4,0.7-1.1,1.2-2.2,1.2c-1.6,0-2.9-1.4-2.9-3.4c0-2.5,1.6-3.7,3.1-3.7
			c1.1,0,1.8,0.5,2.1,1.2h0l0-1h1.2c0,0.6,0,1.2,0,1.9v7.7h-1.2V687.2z M215.9,684.2c0-0.2,0-0.4-0.1-0.5c-0.2-0.8-0.8-1.4-1.8-1.4
			c-1.3,0-2,1.1-2,2.6c0,1.3,0.6,2.5,2,2.5c0.8,0,1.5-0.5,1.8-1.3c0.1-0.2,0.1-0.4,0.1-0.6V684.2z"/>
		<path class="st1" d="M224.8,686.4c0,0.7,0,1.3,0.1,1.8h-1.1l-0.1-1.1h0c-0.3,0.5-1,1.3-2.2,1.3c-1.1,0-2.3-0.6-2.3-3v-4h1.2v3.8
			c0,1.3,0.4,2.2,1.5,2.2c0.8,0,1.4-0.6,1.6-1.1c0.1-0.2,0.1-0.4,0.1-0.6v-4.2h1.2V686.4z"/>
		<path class="st1" d="M228.3,679.5c0,0.4-0.3,0.8-0.8,0.8c-0.4,0-0.7-0.3-0.7-0.8c0-0.4,0.3-0.8,0.8-0.8
			C228,678.8,228.3,679.1,228.3,679.5z M226.9,688.2v-6.8h1.2v6.8H226.9z"/>
		<path class="st1" d="M236,678.3v8.2c0,0.6,0,1.3,0.1,1.8H235l-0.1-1.2h0c-0.4,0.8-1.2,1.3-2.3,1.3c-1.6,0-2.9-1.4-2.9-3.4
			c0-2.3,1.4-3.6,3-3.6c1,0,1.7,0.5,2,1h0v-4H236z M234.8,684.2c0-0.2,0-0.4-0.1-0.5c-0.2-0.8-0.9-1.4-1.8-1.4c-1.3,0-2,1.1-2,2.6
			c0,1.4,0.7,2.5,2,2.5c0.8,0,1.6-0.5,1.8-1.5c0-0.2,0.1-0.3,0.1-0.5V684.2z"/>
		<path class="st1" d="M247.2,684.8c0,2.5-1.7,3.6-3.4,3.6c-1.8,0-3.2-1.3-3.2-3.5c0-2.3,1.5-3.6,3.4-3.6
			C245.8,681.3,247.2,682.7,247.2,684.8z M241.8,684.8c0,1.5,0.9,2.6,2.1,2.6c1.2,0,2.1-1.1,2.1-2.6c0-1.1-0.6-2.6-2-2.6
			S241.8,683.6,241.8,684.8z"/>
		<path class="st1" d="M248.7,683.3c0-0.7,0-1.3-0.1-1.8h1.1l0.1,1.1h0c0.3-0.6,1.1-1.3,2.2-1.3c0.9,0,2.4,0.6,2.4,2.9v4h-1.2v-3.9
			c0-1.1-0.4-2-1.6-2c-0.8,0-1.4,0.6-1.7,1.3c-0.1,0.2-0.1,0.4-0.1,0.6v4.1h-1.2V683.3z"/>
		<path class="st1" d="M259.4,688.2c0-0.5,0.1-1.1,0.1-1.8v-8.2h1.2v4.3h0c0.4-0.8,1.2-1.2,2.3-1.2c1.7,0,2.9,1.4,2.9,3.5
			c0,2.4-1.5,3.6-3,3.6c-1,0-1.8-0.4-2.3-1.3h0l-0.1,1.1H259.4z M260.7,685.5c0,0.2,0,0.3,0.1,0.4c0.2,0.9,1,1.4,1.8,1.4
			c1.3,0,2.1-1.1,2.1-2.6c0-1.4-0.7-2.5-2-2.5c-0.8,0-1.6,0.6-1.9,1.5c0,0.1-0.1,0.3-0.1,0.5V685.5z"/>
		<path class="st1" d="M271.2,688.2l-0.1-0.9h0c-0.4,0.5-1.1,1-2.1,1c-1.4,0-2.1-1-2.1-1.9c0-1.6,1.5-2.5,4.1-2.5v-0.1
			c0-0.6-0.2-1.6-1.5-1.6c-0.6,0-1.3,0.2-1.8,0.5l-0.3-0.8c0.6-0.4,1.4-0.6,2.2-0.6c2.1,0,2.6,1.4,2.6,2.8v2.5c0,0.6,0,1.2,0.1,1.6
			H271.2z M271,684.8c-1.3,0-2.9,0.2-2.9,1.5c0,0.8,0.5,1.2,1.2,1.2c0.9,0,1.4-0.6,1.6-1.1c0-0.1,0.1-0.3,0.1-0.4V684.8z"/>
		<path class="st1" d="M274,687c0.4,0.2,1,0.5,1.6,0.5c0.9,0,1.3-0.4,1.3-1c0-0.6-0.3-0.9-1.3-1.2c-1.2-0.4-1.8-1.1-1.8-1.9
			c0-1.1,0.9-2,2.3-2c0.7,0,1.3,0.2,1.7,0.4l-0.3,0.9c-0.3-0.2-0.8-0.4-1.4-0.4c-0.7,0-1.1,0.4-1.1,0.9c0,0.6,0.4,0.8,1.3,1.1
			c1.2,0.4,1.8,1,1.8,2c0,1.2-0.9,2-2.5,2c-0.7,0-1.4-0.2-1.9-0.5L274,687z"/>
		<path class="st1" d="M279.5,687c0.4,0.2,1,0.5,1.6,0.5c0.9,0,1.3-0.4,1.3-1c0-0.6-0.3-0.9-1.3-1.2c-1.2-0.4-1.8-1.1-1.8-1.9
			c0-1.1,0.9-2,2.3-2c0.7,0,1.3,0.2,1.7,0.4l-0.3,0.9c-0.3-0.2-0.8-0.4-1.4-0.4c-0.7,0-1.1,0.4-1.1,0.9c0,0.6,0.4,0.8,1.3,1.1
			c1.2,0.4,1.8,1,1.8,2c0,1.2-0.9,2-2.5,2c-0.7,0-1.4-0.2-1.9-0.5L279.5,687z"/>
		<path class="st1" d="M284.3,689.9c0.3-0.8,0.7-2.3,0.8-3.3l1.4-0.1c-0.3,1.2-0.9,2.7-1.3,3.4L284.3,689.9z"/>
		<path class="st1" d="M294.7,688.2l-0.1-0.9h0c-0.4,0.5-1.1,1-2.1,1c-1.4,0-2.1-1-2.1-1.9c0-1.6,1.5-2.5,4.1-2.5v-0.1
			c0-0.6-0.2-1.6-1.5-1.6c-0.6,0-1.3,0.2-1.8,0.5l-0.3-0.8c0.6-0.4,1.4-0.6,2.2-0.6c2.1,0,2.6,1.4,2.6,2.8v2.5c0,0.6,0,1.2,0.1,1.6
			H294.7z M294.5,684.8c-1.3,0-2.9,0.2-2.9,1.5c0,0.8,0.5,1.2,1.2,1.2c0.9,0,1.4-0.6,1.6-1.1c0-0.1,0.1-0.3,0.1-0.4V684.8z"/>
		<path class="st1" d="M297.7,683.3c0-0.7,0-1.3-0.1-1.8h1.1l0.1,1.1h0c0.3-0.6,1.1-1.3,2.2-1.3c0.9,0,2.4,0.6,2.4,2.9v4h-1.2v-3.9
			c0-1.1-0.4-2-1.6-2c-0.8,0-1.4,0.6-1.7,1.3c-0.1,0.2-0.1,0.4-0.1,0.6v4.1h-1.2V683.3z"/>
		<path class="st1" d="M311.3,678.3v8.2c0,0.6,0,1.3,0.1,1.8h-1.1l-0.1-1.2h0c-0.4,0.8-1.2,1.3-2.3,1.3c-1.6,0-2.9-1.4-2.9-3.4
			c0-2.3,1.4-3.6,3-3.6c1,0,1.7,0.5,2,1h0v-4H311.3z M310.1,684.2c0-0.2,0-0.4-0.1-0.5c-0.2-0.8-0.9-1.4-1.8-1.4c-1.3,0-2,1.1-2,2.6
			c0,1.4,0.7,2.5,2,2.5c0.8,0,1.6-0.5,1.8-1.5c0-0.2,0.1-0.3,0.1-0.5V684.2z"/>
		<path class="st1" d="M316.3,683.3c0-0.7,0-1.3-0.1-1.8h1.1l0.1,1.1h0c0.3-0.6,1.1-1.3,2.2-1.3c0.9,0,2.4,0.6,2.4,2.9v4h-1.2v-3.9
			c0-1.1-0.4-2-1.6-2c-0.8,0-1.4,0.6-1.7,1.3c-0.1,0.2-0.1,0.4-0.1,0.6v4.1h-1.2V683.3z"/>
		<path class="st1" d="M324.8,685.1c0,1.7,1.1,2.4,2.3,2.4c0.9,0,1.4-0.2,1.9-0.4l0.2,0.9c-0.4,0.2-1.2,0.4-2.3,0.4
			c-2.1,0-3.3-1.4-3.3-3.4s1.2-3.7,3.2-3.7c2.2,0,2.8,1.9,2.8,3.2c0,0.3,0,0.4,0,0.6H324.8z M328.4,684.2c0-0.8-0.3-2-1.7-2
			c-1.2,0-1.8,1.1-1.9,2H328.4z"/>
		<path class="st1" d="M331.6,681.4l0.9,3.4c0.2,0.8,0.4,1.5,0.5,2.2h0c0.2-0.7,0.4-1.4,0.6-2.1l1.1-3.5h1l1.1,3.4
			c0.3,0.8,0.4,1.5,0.6,2.2h0c0.1-0.7,0.3-1.4,0.5-2.2l1-3.4h1.2l-2.2,6.8h-1.1l-1-3.2c-0.2-0.8-0.4-1.4-0.6-2.2h0
			c-0.2,0.8-0.4,1.5-0.6,2.2l-1.1,3.2h-1.1l-2-6.8H331.6z"/>
		<path class="st1" d="M344.4,683.3c0-0.7,0-1.3-0.1-1.8h1.1l0.1,1.1h0c0.4-0.6,1-1.2,2.1-1.2c0.9,0,1.6,0.6,1.9,1.4h0
			c0.2-0.4,0.5-0.7,0.8-0.9c0.4-0.3,0.9-0.5,1.5-0.5c0.9,0,2.2,0.6,2.2,2.9v4h-1.2v-3.8c0-1.3-0.5-2.1-1.5-2.1
			c-0.7,0-1.2,0.5-1.5,1.1c-0.1,0.2-0.1,0.4-0.1,0.6v4.2h-1.2v-4.1c0-1.1-0.5-1.9-1.4-1.9c-0.8,0-1.3,0.6-1.5,1.2
			c-0.1,0.2-0.1,0.4-0.1,0.6v4.1h-1.2V683.3z"/>
		<path class="st1" d="M356.8,685.1c0,1.7,1.1,2.4,2.3,2.4c0.9,0,1.4-0.2,1.9-0.4l0.2,0.9c-0.4,0.2-1.2,0.4-2.3,0.4
			c-2.1,0-3.3-1.4-3.3-3.4s1.2-3.7,3.2-3.7c2.2,0,2.8,1.9,2.8,3.2c0,0.3,0,0.4,0,0.6H356.8z M360.4,684.2c0-0.8-0.3-2-1.7-2
			c-1.2,0-1.8,1.1-1.9,2H360.4z"/>
		<path class="st1" d="M363.1,683.3c0-0.7,0-1.3-0.1-1.8h1.1l0.1,1.1h0c0.4-0.6,1-1.2,2.1-1.2c0.9,0,1.6,0.6,1.9,1.4h0
			c0.2-0.4,0.5-0.7,0.8-0.9c0.4-0.3,0.9-0.5,1.5-0.5c0.9,0,2.2,0.6,2.2,2.9v4h-1.2v-3.8c0-1.3-0.5-2.1-1.5-2.1
			c-0.7,0-1.2,0.5-1.5,1.1c-0.1,0.2-0.1,0.4-0.1,0.6v4.2h-1.2v-4.1c0-1.1-0.5-1.9-1.4-1.9c-0.8,0-1.3,0.6-1.5,1.2
			c-0.1,0.2-0.1,0.4-0.1,0.6v4.1h-1.2V683.3z"/>
		<path class="st1" d="M374.7,688.2c0-0.5,0.1-1.1,0.1-1.8v-8.2h1.2v4.3h0c0.4-0.8,1.2-1.2,2.3-1.2c1.7,0,2.9,1.4,2.9,3.5
			c0,2.4-1.5,3.6-3,3.6c-1,0-1.8-0.4-2.3-1.3h0l-0.1,1.1H374.7z M376,685.5c0,0.2,0,0.3,0.1,0.4c0.2,0.9,1,1.4,1.8,1.4
			c1.3,0,2.1-1.1,2.1-2.6c0-1.4-0.7-2.5-2-2.5c-0.8,0-1.6,0.6-1.9,1.5c0,0.1-0.1,0.3-0.1,0.5V685.5z"/>
		<path class="st1" d="M383.4,685.1c0,1.7,1.1,2.4,2.3,2.4c0.9,0,1.4-0.2,1.9-0.4l0.2,0.9c-0.4,0.2-1.2,0.4-2.3,0.4
			c-2.1,0-3.3-1.4-3.3-3.4s1.2-3.7,3.2-3.7c2.2,0,2.8,1.9,2.8,3.2c0,0.3,0,0.4,0,0.6H383.4z M387,684.2c0-0.8-0.3-2-1.7-2
			c-1.2,0-1.8,1.1-1.9,2H387z"/>
		<path class="st1" d="M389.7,683.6c0-0.8,0-1.5-0.1-2.1h1.1l0,1.3h0.1c0.3-0.9,1-1.5,1.9-1.5c0.1,0,0.2,0,0.3,0v1.2
			c-0.1,0-0.3,0-0.4,0c-0.9,0-1.5,0.7-1.7,1.6c0,0.2-0.1,0.4-0.1,0.6v3.6h-1.2V683.6z"/>
		<path class="st1" d="M394.2,687c0.4,0.2,1,0.5,1.6,0.5c0.9,0,1.3-0.4,1.3-1c0-0.6-0.3-0.9-1.3-1.2c-1.2-0.4-1.8-1.1-1.8-1.9
			c0-1.1,0.9-2,2.3-2c0.7,0,1.3,0.2,1.7,0.4l-0.3,0.9c-0.3-0.2-0.8-0.4-1.4-0.4c-0.7,0-1.1,0.4-1.1,0.9c0,0.6,0.4,0.8,1.3,1.1
			c1.2,0.4,1.8,1,1.8,2c0,1.2-0.9,2-2.5,2c-0.7,0-1.4-0.2-1.9-0.5L394.2,687z"/>
		<path class="st1" d="M402.7,686.7c0.5,0.3,1.3,0.6,2.2,0.6c1.2,0,2-0.7,2-1.6c0-0.9-0.5-1.4-1.8-1.9c-1.5-0.5-2.5-1.3-2.5-2.7
			c0-1.5,1.2-2.6,3.1-2.6c1,0,1.7,0.2,2.1,0.5l-0.3,1c-0.3-0.2-0.9-0.4-1.8-0.4c-1.3,0-1.8,0.8-1.8,1.4c0,0.9,0.6,1.3,1.9,1.8
			c1.6,0.6,2.4,1.4,2.4,2.8c0,1.5-1.1,2.7-3.3,2.7c-0.9,0-1.9-0.3-2.4-0.6L402.7,686.7z"/>
		<path class="st1" d="M416,684.8c0,2.5-1.7,3.6-3.4,3.6c-1.8,0-3.2-1.3-3.2-3.5c0-2.3,1.5-3.6,3.4-3.6
			C414.6,681.3,416,682.7,416,684.8z M410.6,684.8c0,1.5,0.9,2.6,2.1,2.6c1.2,0,2.1-1.1,2.1-2.6c0-1.1-0.6-2.6-2-2.6
			S410.6,683.6,410.6,684.8z"/>
		<path class="st1" d="M417.6,688.2v-5.8h-1v-0.9h1v-0.4c0-1.8,1.1-3,3-3c0.6,0,1.4,0.2,1.7,0.4l-0.4,0.9c-0.3-0.2-0.8-0.4-1.4-0.4
			c-1.3,0-1.7,0.9-1.7,2v0.3h3.9v6.8h-1.2v-5.8h-2.7v5.8H417.6z"/>
		<path class="st1" d="M428.6,688.2l-0.1-0.9h0c-0.4,0.5-1.1,1-2.1,1c-1.4,0-2.1-1-2.1-1.9c0-1.6,1.5-2.5,4.1-2.5v-0.1
			c0-0.6-0.2-1.6-1.5-1.6c-0.6,0-1.3,0.2-1.8,0.5l-0.3-0.8c0.6-0.4,1.4-0.6,2.2-0.6c2.1,0,2.6,1.4,2.6,2.8v2.5c0,0.6,0,1.2,0.1,1.6
			H428.6z M428.4,684.8c-1.3,0-2.9,0.2-2.9,1.5c0,0.8,0.5,1.2,1.2,1.2c0.9,0,1.4-0.6,1.6-1.1c0-0.1,0.1-0.3,0.1-0.4V684.8z"/>
		<path class="st1" d="M434.4,686.7c0.5,0.3,1.3,0.6,2.2,0.6c1.2,0,2-0.7,2-1.6c0-0.9-0.5-1.4-1.8-1.9c-1.5-0.5-2.5-1.3-2.5-2.7
			c0-1.5,1.2-2.6,3.1-2.6c1,0,1.7,0.2,2.1,0.5l-0.3,1c-0.3-0.2-0.9-0.4-1.8-0.4c-1.3,0-1.8,0.8-1.8,1.4c0,0.9,0.6,1.3,1.9,1.8
			c1.6,0.6,2.4,1.4,2.4,2.8c0,1.5-1.1,2.7-3.3,2.7c-0.9,0-1.9-0.3-2.4-0.6L434.4,686.7z"/>
		<path class="st1" d="M446.4,688c-0.3,0.2-1,0.4-1.9,0.4c-2,0-3.4-1.4-3.4-3.5c0-2.1,1.4-3.6,3.6-3.6c0.7,0,1.4,0.2,1.7,0.4l-0.3,1
			c-0.3-0.2-0.8-0.3-1.4-0.3c-1.6,0-2.4,1.1-2.4,2.6c0,1.6,1,2.5,2.4,2.5c0.7,0,1.2-0.2,1.5-0.3L446.4,688z"/>
		<path class="st1" d="M453.9,684.8c0,2.5-1.7,3.6-3.4,3.6c-1.8,0-3.2-1.3-3.2-3.5c0-2.3,1.5-3.6,3.4-3.6
			C452.5,681.3,453.9,682.7,453.9,684.8z M448.5,684.8c0,1.5,0.9,2.6,2.1,2.6c1.2,0,2.1-1.1,2.1-2.6c0-1.1-0.6-2.6-2-2.6
			S448.5,683.6,448.5,684.8z"/>
		<path class="st1" d="M456.9,679.5v1.9h1.8v0.9h-1.8v3.7c0,0.8,0.2,1.3,0.9,1.3c0.3,0,0.6,0,0.7-0.1l0.1,0.9
			c-0.2,0.1-0.6,0.2-1.1,0.2c-0.6,0-1-0.2-1.3-0.5c-0.4-0.4-0.5-1-0.5-1.8v-3.7h-1.1v-0.9h1.1v-1.6L456.9,679.5z"/>
		<path class="st1" d="M461.5,679.5v1.9h1.8v0.9h-1.8v3.7c0,0.8,0.2,1.3,0.9,1.3c0.3,0,0.6,0,0.7-0.1l0.1,0.9
			c-0.2,0.1-0.6,0.2-1.1,0.2c-0.6,0-1-0.2-1.3-0.5c-0.4-0.4-0.5-1-0.5-1.8v-3.7h-1.1v-0.9h1.1v-1.6L461.5,679.5z"/>
		<path class="st1" d="M473.8,684.8c0,2.5-1.7,3.6-3.4,3.6c-1.8,0-3.2-1.3-3.2-3.5c0-2.3,1.5-3.6,3.4-3.6
			C472.5,681.3,473.8,682.7,473.8,684.8z M468.4,684.8c0,1.5,0.9,2.6,2.1,2.6c1.2,0,2.1-1.1,2.1-2.6c0-1.1-0.6-2.6-2-2.6
			S468.4,683.6,468.4,684.8z"/>
		<path class="st1" d="M475.3,683.3c0-0.7,0-1.3-0.1-1.8h1.1l0.1,1.1h0c0.3-0.6,1.1-1.3,2.2-1.3c0.9,0,2.4,0.6,2.4,2.9v4h-1.2v-3.9
			c0-1.1-0.4-2-1.6-2c-0.8,0-1.4,0.6-1.7,1.3c-0.1,0.2-0.1,0.4-0.1,0.6v4.1h-1.2V683.3z"/>
		<path class="st1" d="M491.9,681.4c0,0.5-0.1,1-0.1,1.9v3.9c0,1.6-0.3,2.5-1,3.1c-0.7,0.6-1.6,0.8-2.5,0.8c-0.8,0-1.7-0.2-2.3-0.6
			l0.3-0.9c0.4,0.3,1.1,0.5,2,0.5c1.3,0,2.2-0.7,2.2-2.4v-0.8h0c-0.4,0.6-1.1,1.1-2.2,1.1c-1.7,0-2.9-1.4-2.9-3.3
			c0-2.3,1.5-3.6,3.1-3.6c1.2,0,1.8,0.6,2.1,1.2h0l0.1-1H491.9z M490.6,684.1c0-0.2,0-0.4-0.1-0.6c-0.2-0.7-0.8-1.3-1.7-1.3
			c-1.2,0-2,1-2,2.6c0,1.3,0.7,2.4,2,2.4c0.8,0,1.4-0.5,1.7-1.3c0.1-0.2,0.1-0.4,0.1-0.7V684.1z"/>
		<path class="st1" d="M499.6,686.4c0,0.7,0,1.3,0.1,1.8h-1.1l-0.1-1.1h0c-0.3,0.5-1,1.3-2.2,1.3c-1.1,0-2.3-0.6-2.3-3v-4h1.2v3.8
			c0,1.3,0.4,2.2,1.5,2.2c0.8,0,1.4-0.6,1.6-1.1c0.1-0.2,0.1-0.4,0.1-0.6v-4.2h1.2V686.4z"/>
		<path class="st1" d="M503,679.5c0,0.4-0.3,0.8-0.8,0.8c-0.4,0-0.7-0.3-0.7-0.8c0-0.4,0.3-0.8,0.8-0.8
			C502.7,678.8,503,679.1,503,679.5z M501.6,688.2v-6.8h1.2v6.8H501.6z"/>
		<path class="st1" d="M506.4,679.5v1.9h1.8v0.9h-1.8v3.7c0,0.8,0.2,1.3,0.9,1.3c0.3,0,0.6,0,0.7-0.1l0.1,0.9
			c-0.2,0.1-0.6,0.2-1.1,0.2c-0.6,0-1-0.2-1.3-0.5c-0.4-0.4-0.5-1-0.5-1.8v-3.7h-1.1v-0.9h1.1v-1.6L506.4,679.5z"/>
		<path class="st1" d="M513.3,688.2l-0.1-0.9h0c-0.4,0.5-1.1,1-2.1,1c-1.4,0-2.1-1-2.1-1.9c0-1.6,1.5-2.5,4.1-2.5v-0.1
			c0-0.6-0.2-1.6-1.5-1.6c-0.6,0-1.3,0.2-1.8,0.5l-0.3-0.8c0.6-0.4,1.4-0.6,2.2-0.6c2.1,0,2.6,1.4,2.6,2.8v2.5c0,0.6,0,1.2,0.1,1.6
			H513.3z M513.1,684.8c-1.3,0-2.9,0.2-2.9,1.5c0,0.8,0.5,1.2,1.2,1.2c0.9,0,1.4-0.6,1.6-1.1c0-0.1,0.1-0.3,0.1-0.4V684.8z"/>
		<path class="st1" d="M516.3,683.6c0-0.8,0-1.5-0.1-2.1h1.1l0,1.3h0.1c0.3-0.9,1-1.5,1.9-1.5c0.1,0,0.2,0,0.3,0v1.2
			c-0.1,0-0.3,0-0.4,0c-0.9,0-1.5,0.7-1.7,1.6c0,0.2-0.1,0.4-0.1,0.6v3.6h-1.2V683.6z"/>
		<path class="st1" d="M519.3,689.9c0.3-0.8,0.7-2.3,0.8-3.3l1.4-0.1c-0.3,1.2-0.9,2.7-1.3,3.4L519.3,689.9z"/>
		<path class="st1" d="M529.7,688.2l-0.1-0.9h0c-0.4,0.5-1.1,1-2.1,1c-1.4,0-2.1-1-2.1-1.9c0-1.6,1.5-2.5,4.1-2.5v-0.1
			c0-0.6-0.2-1.6-1.5-1.6c-0.6,0-1.3,0.2-1.8,0.5l-0.3-0.8c0.6-0.4,1.4-0.6,2.2-0.6c2.1,0,2.6,1.4,2.6,2.8v2.5c0,0.6,0,1.2,0.1,1.6
			H529.7z M529.5,684.8c-1.3,0-2.9,0.2-2.9,1.5c0,0.8,0.5,1.2,1.2,1.2c0.9,0,1.4-0.6,1.6-1.1c0-0.1,0.1-0.3,0.1-0.4V684.8z"/>
		<path class="st1" d="M532.7,683.3c0-0.7,0-1.3-0.1-1.8h1.1l0.1,1.1h0c0.3-0.6,1.1-1.3,2.2-1.3c0.9,0,2.4,0.6,2.4,2.9v4h-1.2v-3.9
			c0-1.1-0.4-2-1.6-2c-0.8,0-1.4,0.6-1.7,1.3c-0.1,0.2-0.1,0.4-0.1,0.6v4.1h-1.2V683.3z"/>
		<path class="st1" d="M546.3,678.3v8.2c0,0.6,0,1.3,0.1,1.8h-1.1l-0.1-1.2h0c-0.4,0.8-1.2,1.3-2.3,1.3c-1.6,0-2.9-1.4-2.9-3.4
			c0-2.3,1.4-3.6,3-3.6c1,0,1.7,0.5,2,1h0v-4H546.3z M545.1,684.2c0-0.2,0-0.4-0.1-0.5c-0.2-0.8-0.9-1.4-1.8-1.4c-1.3,0-2,1.1-2,2.6
			c0,1.4,0.7,2.5,2,2.5c0.8,0,1.6-0.5,1.8-1.5c0-0.2,0.1-0.3,0.1-0.5V684.2z"/>
		<path class="st1" d="M559.3,684.1c-0.1-1.3-0.2-2.9-0.1-4.1h0c-0.3,1.1-0.7,2.3-1.2,3.6l-1.7,4.6h-0.9l-1.5-4.5
			c-0.4-1.3-0.8-2.5-1.1-3.7h0c0,1.2-0.1,2.8-0.2,4.2l-0.3,4h-1.2l0.7-9.4h1.6l1.6,4.6c0.4,1.2,0.7,2.2,1,3.2h0c0.2-1,0.6-2,1-3.2
			l1.7-4.6h1.6l0.6,9.4h-1.2L559.3,684.1z"/>
		<path class="st1" d="M566.4,688.2l-0.1-0.9h0c-0.4,0.5-1.1,1-2.1,1c-1.4,0-2.1-1-2.1-1.9c0-1.6,1.5-2.5,4.1-2.5v-0.1
			c0-0.6-0.2-1.6-1.5-1.6c-0.6,0-1.3,0.2-1.8,0.5l-0.3-0.8c0.6-0.4,1.4-0.6,2.2-0.6c2.1,0,2.6,1.4,2.6,2.8v2.5c0,0.6,0,1.2,0.1,1.6
			H566.4z M566.3,684.8c-1.3,0-2.9,0.2-2.9,1.5c0,0.8,0.5,1.2,1.2,1.2c0.9,0,1.4-0.6,1.6-1.1c0-0.1,0.1-0.3,0.1-0.4V684.8z"/>
		<path class="st1" d="M568.7,687.5l3.1-4c0.3-0.4,0.6-0.7,0.9-1.1v0h-3.7v-1h5.2l0,0.8l-3,3.9c-0.3,0.4-0.6,0.7-0.9,1.1v0h4v1h-5.5
			V687.5z"/>
		<path class="st1" d="M49.3,704.6c-0.5,0.2-1.6,0.5-2.9,0.5c-1.4,0-2.6-0.4-3.5-1.2c-0.8-0.8-1.3-2-1.3-3.5c0-2.8,1.9-4.9,5.1-4.9
			c1.1,0,1.9,0.2,2.4,0.4l-0.3,1c-0.5-0.2-1.1-0.4-2.1-0.4c-2.3,0-3.8,1.4-3.8,3.8c0,2.4,1.4,3.8,3.6,3.8c0.8,0,1.3-0.1,1.6-0.3V701
			h-1.9v-1h3.1V704.6z"/>
		<path class="st1" d="M51.1,700.4c0-0.8,0-1.5-0.1-2.1h1.1l0,1.3h0.1c0.3-0.9,1-1.5,1.9-1.5c0.1,0,0.2,0,0.3,0v1.2
			c-0.1,0-0.3,0-0.4,0c-0.9,0-1.5,0.7-1.7,1.6c0,0.2-0.1,0.4-0.1,0.6v3.6h-1.2V700.4z"/>
		<path class="st1" d="M57.1,696.3c0,0.4-0.3,0.8-0.8,0.8c-0.4,0-0.7-0.3-0.7-0.8c0-0.4,0.3-0.8,0.8-0.8
			C56.8,695.6,57.1,695.9,57.1,696.3z M55.8,705v-6.8H57v6.8H55.8z"/>
		<path class="st1" d="M59,700.1c0-0.7,0-1.3-0.1-1.8h1.1l0.1,1.1h0c0.4-0.6,1-1.2,2.1-1.2c0.9,0,1.6,0.6,1.9,1.4h0
			c0.2-0.4,0.5-0.7,0.8-0.9c0.4-0.3,0.9-0.5,1.5-0.5c0.9,0,2.2,0.6,2.2,2.9v4h-1.2v-3.8c0-1.3-0.5-2.1-1.5-2.1
			c-0.7,0-1.2,0.5-1.5,1.1c-0.1,0.2-0.1,0.4-0.1,0.6v4.2h-1.2V701c0-1.1-0.5-1.9-1.4-1.9c-0.8,0-1.3,0.6-1.5,1.2
			c-0.1,0.2-0.1,0.4-0.1,0.6v4.1H59V700.1z"/>
		<path class="st1" d="M71.4,701.9c0,1.7,1.1,2.4,2.3,2.4c0.9,0,1.4-0.2,1.9-0.4l0.2,0.9c-0.4,0.2-1.2,0.4-2.3,0.4
			c-2.1,0-3.3-1.4-3.3-3.4c0-2,1.2-3.7,3.2-3.7c2.2,0,2.8,1.9,2.8,3.2c0,0.3,0,0.4,0,0.6H71.4z M75,701c0-0.8-0.3-2-1.7-2
			c-1.2,0-1.8,1.1-1.9,2H75z"/>
		<path class="st1" d="M77.6,703.8c0.4,0.2,1,0.5,1.6,0.5c0.9,0,1.3-0.4,1.3-1c0-0.6-0.3-0.9-1.3-1.2c-1.2-0.4-1.8-1.1-1.8-1.9
			c0-1.1,0.9-2,2.3-2c0.7,0,1.3,0.2,1.7,0.4l-0.3,0.9c-0.3-0.2-0.8-0.4-1.4-0.4c-0.7,0-1.1,0.4-1.1,0.9c0,0.6,0.4,0.8,1.3,1.1
			c1.2,0.4,1.8,1,1.8,2c0,1.2-0.9,2-2.5,2c-0.7,0-1.4-0.2-1.9-0.5L77.6,703.8z"/>
		<path class="st1" d="M92.1,698.2c0,0.5-0.1,1-0.1,1.9v3.9c0,1.6-0.3,2.5-1,3.1c-0.7,0.6-1.6,0.8-2.5,0.8c-0.8,0-1.7-0.2-2.3-0.6
			l0.3-0.9c0.4,0.3,1.1,0.5,2,0.5c1.3,0,2.2-0.7,2.2-2.4v-0.8h0c-0.4,0.6-1.1,1.1-2.2,1.1c-1.7,0-2.9-1.4-2.9-3.3
			c0-2.3,1.5-3.6,3.1-3.6c1.2,0,1.8,0.6,2.1,1.2h0l0.1-1H92.1z M90.8,700.9c0-0.2,0-0.4-0.1-0.6c-0.2-0.7-0.8-1.3-1.7-1.3
			c-1.2,0-2,1-2,2.6c0,1.3,0.7,2.4,2,2.4c0.8,0,1.4-0.5,1.7-1.3c0.1-0.2,0.1-0.4,0.1-0.7V700.9z"/>
		<path class="st1" d="M94.7,701.9c0,1.7,1.1,2.4,2.3,2.4c0.9,0,1.4-0.2,1.9-0.4l0.2,0.9c-0.4,0.2-1.2,0.4-2.3,0.4
			c-2.1,0-3.3-1.4-3.3-3.4c0-2,1.2-3.7,3.2-3.7c2.2,0,2.8,1.9,2.8,3.2c0,0.3,0,0.4,0,0.6H94.7z M98.4,701c0-0.8-0.3-2-1.7-2
			c-1.2,0-1.8,1.1-1.9,2H98.4z"/>
		<path class="st1" d="M102.6,696.3v1.9h1.8v0.9h-1.8v3.7c0,0.8,0.2,1.3,0.9,1.3c0.3,0,0.6,0,0.7-0.1l0.1,0.9
			c-0.2,0.1-0.6,0.2-1.1,0.2c-0.6,0-1-0.2-1.3-0.5c-0.4-0.4-0.5-1-0.5-1.8v-3.7h-1.1v-0.9h1.1v-1.6L102.6,696.3z"/>
		<path class="st1" d="M107.2,696.3v1.9h1.8v0.9h-1.8v3.7c0,0.8,0.2,1.3,0.9,1.3c0.3,0,0.6,0,0.7-0.1l0.1,0.9
			c-0.2,0.1-0.6,0.2-1.1,0.2c-0.6,0-1-0.2-1.3-0.5c-0.4-0.4-0.5-1-0.5-1.8v-3.7h-1.1v-0.9h1.1v-1.6L107.2,696.3z"/>
		<path class="st1" d="M111.7,696.3c0,0.4-0.3,0.8-0.8,0.8c-0.4,0-0.7-0.3-0.7-0.8c0-0.4,0.3-0.8,0.8-0.8
			C111.4,695.6,111.7,695.9,111.7,696.3z M110.3,705v-6.8h1.2v6.8H110.3z"/>
		<path class="st1" d="M113.6,700.1c0-0.7,0-1.3-0.1-1.8h1.1l0.1,1.1h0c0.3-0.6,1.1-1.3,2.2-1.3c0.9,0,2.4,0.6,2.4,2.9v4h-1.2v-3.9
			c0-1.1-0.4-2-1.6-2c-0.8,0-1.4,0.6-1.7,1.3c-0.1,0.2-0.1,0.4-0.1,0.6v4.1h-1.2V700.1z"/>
		<path class="st1" d="M122.2,695.4l-0.2,3.4h-0.8l-0.2-3.4H122.2z"/>
		<path class="st1" d="M126.9,700.4c0-0.8,0-1.5-0.1-2.1h1.1l0,1.3h0.1c0.3-0.9,1-1.5,1.9-1.5c0.1,0,0.2,0,0.3,0v1.2
			c-0.1,0-0.3,0-0.4,0c-0.9,0-1.5,0.7-1.7,1.6c0,0.2-0.1,0.4-0.1,0.6v3.6h-1.2V700.4z"/>
		<path class="st1" d="M137.5,701.6c0,2.5-1.7,3.6-3.4,3.6c-1.8,0-3.2-1.3-3.2-3.5c0-2.3,1.5-3.6,3.4-3.6
			C136.1,698.1,137.5,699.5,137.5,701.6z M132.1,701.6c0,1.5,0.9,2.6,2.1,2.6c1.2,0,2.1-1.1,2.1-2.6c0-1.1-0.6-2.6-2-2.6
			S132.1,700.4,132.1,701.6z"/>
		<path class="st1" d="M139.4,698.2l0.9,3.4c0.2,0.8,0.4,1.5,0.5,2.2h0c0.2-0.7,0.4-1.4,0.6-2.1l1.1-3.5h1l1.1,3.4
			c0.3,0.8,0.4,1.5,0.6,2.2h0c0.1-0.7,0.3-1.4,0.5-2.2l1-3.4h1.2l-2.2,6.8h-1.1l-1-3.2c-0.2-0.8-0.4-1.4-0.6-2.2h0
			c-0.2,0.8-0.4,1.5-0.6,2.2l-1.1,3.2h-1.1l-2-6.8H139.4z"/>
		<path class="st1" d="M154.9,695.1v8.2c0,0.6,0,1.3,0.1,1.8h-1.1l-0.1-1.2h0c-0.4,0.8-1.2,1.3-2.3,1.3c-1.6,0-2.9-1.4-2.9-3.4
			c0-2.3,1.4-3.6,3-3.6c1,0,1.7,0.5,2,1h0v-4H154.9z M153.7,701c0-0.2,0-0.4-0.1-0.5c-0.2-0.8-0.9-1.4-1.8-1.4c-1.3,0-2,1.1-2,2.6
			c0,1.4,0.7,2.5,2,2.5c0.8,0,1.6-0.5,1.8-1.5c0-0.2,0.1-0.3,0.1-0.5V701z"/>
		<path class="st1" d="M157.4,698.2l1.5,4c0.2,0.4,0.3,1,0.4,1.4h0c0.1-0.4,0.3-0.9,0.4-1.4l1.3-4h1.3l-1.8,4.8
			c-0.9,2.3-1.5,3.5-2.3,4.2c-0.6,0.5-1.2,0.7-1.5,0.8l-0.3-1c0.3-0.1,0.7-0.3,1.1-0.6c0.3-0.3,0.8-0.7,1-1.4
			c0.1-0.1,0.1-0.2,0.1-0.3c0-0.1,0-0.2-0.1-0.3l-2.5-6.2H157.4z"/>
		<path class="st1" d="M172.7,701.6c0,2.5-1.7,3.6-3.4,3.6c-1.8,0-3.2-1.3-3.2-3.5c0-2.3,1.5-3.6,3.4-3.6
			C171.4,698.1,172.7,699.5,172.7,701.6z M167.3,701.6c0,1.5,0.9,2.6,2.1,2.6c1.2,0,2.1-1.1,2.1-2.6c0-1.1-0.6-2.6-2-2.6
			S167.3,700.4,167.3,701.6z"/>
		<path class="st1" d="M174.2,700.1c0-0.7,0-1.3-0.1-1.8h1.1l0.1,1.1h0c0.3-0.6,1.1-1.3,2.2-1.3c0.9,0,2.4,0.6,2.4,2.9v4h-1.2v-3.9
			c0-1.1-0.4-2-1.6-2c-0.8,0-1.4,0.6-1.7,1.3c-0.1,0.2-0.1,0.4-0.1,0.6v4.1h-1.2V700.1z"/>
		<path class="st1" d="M186.4,696.3v1.9h1.8v0.9h-1.8v3.7c0,0.8,0.2,1.3,0.9,1.3c0.3,0,0.6,0,0.7-0.1l0.1,0.9
			c-0.2,0.1-0.6,0.2-1.1,0.2c-0.6,0-1-0.2-1.3-0.5c-0.4-0.4-0.5-1-0.5-1.8v-3.7h-1.1v-0.9h1.1v-1.6L186.4,696.3z"/>
		<path class="st1" d="M189.6,695.1h1.2v4.2h0c0.2-0.4,0.5-0.7,0.9-0.9c0.4-0.2,0.8-0.4,1.3-0.4c0.9,0,2.4,0.6,2.4,2.9v4h-1.2v-3.9
			c0-1.1-0.4-2-1.6-2c-0.8,0-1.4,0.6-1.7,1.2c-0.1,0.2-0.1,0.4-0.1,0.6v4.1h-1.2V695.1z"/>
		<path class="st1" d="M198.1,701.9c0,1.7,1.1,2.4,2.3,2.4c0.9,0,1.4-0.2,1.9-0.4l0.2,0.9c-0.4,0.2-1.2,0.4-2.3,0.4
			c-2.1,0-3.3-1.4-3.3-3.4c0-2,1.2-3.7,3.2-3.7c2.2,0,2.8,1.9,2.8,3.2c0,0.3,0,0.4,0,0.6H198.1z M201.7,701c0-0.8-0.3-2-1.7-2
			c-1.2,0-1.8,1.1-1.9,2H201.7z"/>
		<path class="st1" d="M213.2,695.1v8.2c0,0.6,0,1.3,0.1,1.8h-1.1l-0.1-1.2h0c-0.4,0.8-1.2,1.3-2.3,1.3c-1.6,0-2.9-1.4-2.9-3.4
			c0-2.3,1.4-3.6,3-3.6c1,0,1.7,0.5,2,1h0v-4H213.2z M212,701c0-0.2,0-0.4-0.1-0.5c-0.2-0.8-0.9-1.4-1.8-1.4c-1.3,0-2,1.1-2,2.6
			c0,1.4,0.7,2.5,2,2.5c0.8,0,1.6-0.5,1.8-1.5c0-0.2,0.1-0.3,0.1-0.5V701z"/>
		<path class="st1" d="M215.2,700.4c0-0.8,0-1.5-0.1-2.1h1.1l0,1.3h0.1c0.3-0.9,1-1.5,1.9-1.5c0.1,0,0.2,0,0.3,0v1.2
			c-0.1,0-0.3,0-0.4,0c-0.9,0-1.5,0.7-1.7,1.6c0,0.2-0.1,0.4-0.1,0.6v3.6h-1.2V700.4z"/>
		<path class="st1" d="M225.5,703.2c0,0.7,0,1.3,0.1,1.8h-1.1l-0.1-1.1h0c-0.3,0.5-1,1.3-2.2,1.3c-1.1,0-2.3-0.6-2.3-3v-4h1.2v3.8
			c0,1.3,0.4,2.2,1.5,2.2c0.8,0,1.4-0.6,1.6-1.1c0.1-0.2,0.1-0.4,0.1-0.6v-4.2h1.2V703.2z"/>
		<path class="st1" d="M227.5,700.1c0-0.7,0-1.3-0.1-1.8h1.1l0.1,1.1h0c0.4-0.6,1-1.2,2.1-1.2c0.9,0,1.6,0.6,1.9,1.4h0
			c0.2-0.4,0.5-0.7,0.8-0.9c0.4-0.3,0.9-0.5,1.5-0.5c0.9,0,2.2,0.6,2.2,2.9v4H236v-3.8c0-1.3-0.5-2.1-1.5-2.1
			c-0.7,0-1.2,0.5-1.5,1.1c-0.1,0.2-0.1,0.4-0.1,0.6v4.2h-1.2V701c0-1.1-0.5-1.9-1.4-1.9c-0.8,0-1.3,0.6-1.5,1.2
			c-0.1,0.2-0.1,0.4-0.1,0.6v4.1h-1.2V700.1z"/>
		<path class="st1" d="M239,703.8c0.4,0.2,1,0.5,1.6,0.5c0.9,0,1.3-0.4,1.3-1c0-0.6-0.3-0.9-1.3-1.2c-1.2-0.4-1.8-1.1-1.8-1.9
			c0-1.1,0.9-2,2.3-2c0.7,0,1.3,0.2,1.7,0.4l-0.3,0.9c-0.3-0.2-0.8-0.4-1.4-0.4c-0.7,0-1.1,0.4-1.1,0.9c0,0.6,0.4,0.8,1.3,1.1
			c1.2,0.4,1.8,1,1.8,2c0,1.2-0.9,2-2.5,2c-0.7,0-1.4-0.2-1.9-0.5L239,703.8z"/>
		<path class="st1" d="M244.3,704.3c0-0.5,0.3-0.9,0.8-0.9c0.5,0,0.8,0.4,0.8,0.9c0,0.5-0.3,0.9-0.8,0.9
			C244.6,705.2,244.3,704.8,244.3,704.3z"/>
		<path class="st1" d="M250.5,695.6h1.2v8.4h4v1h-5.3V695.6z"/>
		<path class="st1" d="M263,701.6c0,2.5-1.7,3.6-3.4,3.6c-1.8,0-3.2-1.3-3.2-3.5c0-2.3,1.5-3.6,3.4-3.6
			C261.7,698.1,263,699.5,263,701.6z M257.6,701.6c0,1.5,0.9,2.6,2.1,2.6c1.2,0,2.1-1.1,2.1-2.6c0-1.1-0.6-2.6-2-2.6
			S257.6,700.4,257.6,701.6z"/>
		<path class="st1" d="M270.2,703.2c0,0.7,0,1.3,0.1,1.8h-1.1l-0.1-1.1h0c-0.3,0.5-1,1.3-2.2,1.3c-1.1,0-2.3-0.6-2.3-3v-4h1.2v3.8
			c0,1.3,0.4,2.2,1.5,2.2c0.8,0,1.4-0.6,1.6-1.1c0.1-0.2,0.1-0.4,0.1-0.6v-4.2h1.2V703.2z"/>
		<path class="st1" d="M278.1,695.1v8.2c0,0.6,0,1.3,0.1,1.8h-1.1l-0.1-1.2h0c-0.4,0.8-1.2,1.3-2.3,1.3c-1.6,0-2.9-1.4-2.9-3.4
			c0-2.3,1.4-3.6,3-3.6c1,0,1.7,0.5,2,1h0v-4H278.1z M276.9,701c0-0.2,0-0.4-0.1-0.5c-0.2-0.8-0.9-1.4-1.8-1.4c-1.3,0-2,1.1-2,2.6
			c0,1.4,0.7,2.5,2,2.5c0.8,0,1.6-0.5,1.8-1.5c0-0.2,0.1-0.3,0.1-0.5V701z"/>
		<path class="st1" d="M279.2,706.7c0.3-0.8,0.7-2.3,0.8-3.3l1.4-0.1c-0.3,1.2-0.9,2.7-1.3,3.4L279.2,706.7z"/>
		<path class="st1" d="M285.9,700.5c0-0.9,0-1.6-0.1-2.2h1.1l0.1,1.2h0c0.5-0.8,1.3-1.3,2.4-1.3c1.6,0,2.9,1.4,2.9,3.4
			c0,2.4-1.5,3.6-3.1,3.6c-0.9,0-1.7-0.4-2.1-1.1h0v3.7h-1.2V700.5z M287.1,702.3c0,0.2,0,0.4,0.1,0.5c0.2,0.9,1,1.4,1.8,1.4
			c1.3,0,2.1-1.1,2.1-2.6c0-1.4-0.7-2.5-2-2.5c-0.8,0-1.6,0.6-1.9,1.5c0,0.2-0.1,0.3-0.1,0.5V702.3z"/>
		<path class="st1" d="M293.9,700.4c0-0.8,0-1.5-0.1-2.1h1.1l0,1.3h0.1c0.3-0.9,1-1.5,1.9-1.5c0.1,0,0.2,0,0.3,0v1.2
			c-0.1,0-0.3,0-0.4,0c-0.9,0-1.5,0.7-1.7,1.6c0,0.2-0.1,0.4-0.1,0.6v3.6h-1.2V700.4z"/>
		<path class="st1" d="M304.4,701.6c0,2.5-1.7,3.6-3.4,3.6c-1.8,0-3.2-1.3-3.2-3.5c0-2.3,1.5-3.6,3.4-3.6
			C303.1,698.1,304.4,699.5,304.4,701.6z M299.1,701.6c0,1.5,0.9,2.6,2.1,2.6c1.2,0,2.1-1.1,2.1-2.6c0-1.1-0.6-2.6-2-2.6
			S299.1,700.4,299.1,701.6z"/>
		<path class="st1" d="M311.7,703.2c0,0.7,0,1.3,0.1,1.8h-1.1l-0.1-1.1h0c-0.3,0.5-1,1.3-2.2,1.3c-1.1,0-2.3-0.6-2.3-3v-4h1.2v3.8
			c0,1.3,0.4,2.2,1.5,2.2c0.8,0,1.4-0.6,1.6-1.1c0.1-0.2,0.1-0.4,0.1-0.6v-4.2h1.2V703.2z"/>
		<path class="st1" d="M319.6,695.1v8.2c0,0.6,0,1.3,0.1,1.8h-1.1l-0.1-1.2h0c-0.4,0.8-1.2,1.3-2.3,1.3c-1.6,0-2.9-1.4-2.9-3.4
			c0-2.3,1.4-3.6,3-3.6c1,0,1.7,0.5,2,1h0v-4H319.6z M318.3,701c0-0.2,0-0.4-0.1-0.5c-0.2-0.8-0.9-1.4-1.8-1.4c-1.3,0-2,1.1-2,2.6
			c0,1.4,0.7,2.5,2,2.5c0.8,0,1.6-0.5,1.8-1.5c0-0.2,0.1-0.3,0.1-0.5V701z"/>
		<path class="st1" d="M324.6,700.4c0-0.8,0-1.5-0.1-2.1h1.1l0,1.3h0.1c0.3-0.9,1-1.5,1.9-1.5c0.1,0,0.2,0,0.3,0v1.2
			c-0.1,0-0.3,0-0.4,0c-0.9,0-1.5,0.7-1.7,1.6c0,0.2-0.1,0.4-0.1,0.6v3.6h-1.2V700.4z"/>
		<path class="st1" d="M335.1,701.6c0,2.5-1.7,3.6-3.4,3.6c-1.8,0-3.2-1.3-3.2-3.5c0-2.3,1.5-3.6,3.4-3.6
			C333.8,698.1,335.1,699.5,335.1,701.6z M329.8,701.6c0,1.5,0.9,2.6,2.1,2.6c1.2,0,2.1-1.1,2.1-2.6c0-1.1-0.6-2.6-2-2.6
			S329.8,700.4,329.8,701.6z"/>
		<path class="st1" d="M341.5,704.8c-0.3,0.2-1,0.4-1.9,0.4c-2,0-3.4-1.4-3.4-3.5c0-2.1,1.4-3.6,3.6-3.6c0.7,0,1.4,0.2,1.7,0.4
			l-0.3,1c-0.3-0.2-0.8-0.3-1.4-0.3c-1.6,0-2.4,1.1-2.4,2.6c0,1.6,1,2.5,2.4,2.5c0.7,0,1.2-0.2,1.5-0.3L341.5,704.8z"/>
		<path class="st1" d="M344.2,701.3L344.2,701.3c0.2-0.2,0.4-0.5,0.6-0.8l2-2.3h1.5l-2.6,2.8l3,4h-1.5l-2.3-3.2l-0.6,0.7v2.5H343
			v-9.9h1.2V701.3z"/>
		<path class="st1" d="M352.6,705v-5.8h-1v-0.9h1v-0.3c0-1,0.2-1.8,0.8-2.4c0.5-0.4,1.1-0.6,1.7-0.6c0.4,0,0.8,0.1,1.1,0.2l-0.2,1
			c-0.2-0.1-0.4-0.2-0.8-0.2c-1,0-1.3,0.9-1.3,2v0.4h1.6v0.9h-1.6v5.8H352.6z"/>
		<path class="st1" d="M362.5,701.6c0,2.5-1.7,3.6-3.4,3.6c-1.8,0-3.2-1.3-3.2-3.5c0-2.3,1.5-3.6,3.4-3.6
			C361.2,698.1,362.5,699.5,362.5,701.6z M357.2,701.6c0,1.5,0.9,2.6,2.1,2.6c1.2,0,2.1-1.1,2.1-2.6c0-1.1-0.6-2.6-2-2.6
			S357.2,700.4,357.2,701.6z"/>
		<path class="st1" d="M364.1,700.4c0-0.8,0-1.5-0.1-2.1h1.1l0,1.3h0.1c0.3-0.9,1-1.5,1.9-1.5c0.1,0,0.2,0,0.3,0v1.2
			c-0.1,0-0.3,0-0.4,0c-0.9,0-1.5,0.7-1.7,1.6c0,0.2-0.1,0.4-0.1,0.6v3.6h-1.2V700.4z"/>
		<path class="st1" d="M371.5,703.8c0.4,0.2,1,0.5,1.6,0.5c0.9,0,1.3-0.4,1.3-1c0-0.6-0.3-0.9-1.3-1.2c-1.2-0.4-1.8-1.1-1.8-1.9
			c0-1.1,0.9-2,2.3-2c0.7,0,1.3,0.2,1.7,0.4l-0.3,0.9c-0.3-0.2-0.8-0.4-1.4-0.4c-0.7,0-1.1,0.4-1.1,0.9c0,0.6,0.4,0.8,1.3,1.1
			c1.2,0.4,1.8,1,1.8,2c0,1.2-0.9,2-2.5,2c-0.7,0-1.4-0.2-1.9-0.5L371.5,703.8z"/>
		<path class="st1" d="M377.2,695.1h1.2v4.2h0c0.2-0.4,0.5-0.7,0.9-0.9c0.4-0.2,0.8-0.4,1.3-0.4c0.9,0,2.4,0.6,2.4,2.9v4h-1.2v-3.9
			c0-1.1-0.4-2-1.6-2c-0.8,0-1.4,0.6-1.7,1.2c-0.1,0.2-0.1,0.4-0.1,0.6v4.1h-1.2V695.1z"/>
		<path class="st1" d="M388.7,705l-0.1-0.9h0c-0.4,0.5-1.1,1-2.1,1c-1.4,0-2.1-1-2.1-1.9c0-1.6,1.5-2.5,4.1-2.5v-0.1
			c0-0.6-0.2-1.6-1.5-1.6c-0.6,0-1.3,0.2-1.8,0.5l-0.3-0.8c0.6-0.4,1.4-0.6,2.2-0.6c2.1,0,2.6,1.4,2.6,2.8v2.5c0,0.6,0,1.2,0.1,1.6
			H388.7z M388.5,701.6c-1.3,0-2.9,0.2-2.9,1.5c0,0.8,0.5,1.2,1.2,1.2c0.9,0,1.4-0.6,1.6-1.1c0-0.1,0.1-0.3,0.1-0.4V701.6z"/>
		<path class="st1" d="M392.9,701.3L392.9,701.3c0.2-0.2,0.4-0.5,0.6-0.8l2-2.3h1.5l-2.6,2.8l3,4h-1.5l-2.3-3.2l-0.6,0.7v2.5h-1.2
			v-9.9h1.2V701.3z"/>
		<path class="st1" d="M399.9,696.3c0,0.4-0.3,0.8-0.8,0.8c-0.4,0-0.7-0.3-0.7-0.8c0-0.4,0.3-0.8,0.8-0.8
			C399.6,695.6,399.9,695.9,399.9,696.3z M398.5,705v-6.8h1.2v6.8H398.5z"/>
		<path class="st1" d="M401.8,700.1c0-0.7,0-1.3-0.1-1.8h1.1l0.1,1.1h0c0.3-0.6,1.1-1.3,2.2-1.3c0.9,0,2.4,0.6,2.4,2.9v4h-1.2v-3.9
			c0-1.1-0.4-2-1.6-2c-0.8,0-1.4,0.6-1.7,1.3c-0.1,0.2-0.1,0.4-0.1,0.6v4.1h-1.2V700.1z"/>
		<path class="st1" d="M415.4,698.2c0,0.5-0.1,1-0.1,1.9v3.9c0,1.6-0.3,2.5-1,3.1c-0.7,0.6-1.6,0.8-2.5,0.8c-0.8,0-1.7-0.2-2.3-0.6
			l0.3-0.9c0.4,0.3,1.1,0.5,2,0.5c1.3,0,2.2-0.7,2.2-2.4v-0.8h0c-0.4,0.6-1.1,1.1-2.2,1.1c-1.7,0-2.9-1.4-2.9-3.3
			c0-2.3,1.5-3.6,3.1-3.6c1.2,0,1.8,0.6,2.1,1.2h0l0.1-1H415.4z M414.1,700.9c0-0.2,0-0.4-0.1-0.6c-0.2-0.7-0.8-1.3-1.7-1.3
			c-1.2,0-2,1-2,2.6c0,1.3,0.7,2.4,2,2.4c0.8,0,1.4-0.5,1.7-1.3c0.1-0.2,0.1-0.4,0.1-0.7V700.9z"/>
		<path class="st1" d="M420.8,698.2l1.5,4c0.2,0.4,0.3,1,0.4,1.4h0c0.1-0.4,0.3-0.9,0.4-1.4l1.3-4h1.3l-1.8,4.8
			c-0.9,2.3-1.5,3.5-2.3,4.2c-0.6,0.5-1.2,0.7-1.5,0.8l-0.3-1c0.3-0.1,0.7-0.3,1.1-0.6c0.3-0.3,0.8-0.7,1-1.4
			c0.1-0.1,0.1-0.2,0.1-0.3c0-0.1,0-0.2-0.1-0.3l-2.5-6.2H420.8z"/>
		<path class="st1" d="M432.9,701.6c0,2.5-1.7,3.6-3.4,3.6c-1.8,0-3.2-1.3-3.2-3.5c0-2.3,1.5-3.6,3.4-3.6
			C431.6,698.1,432.9,699.5,432.9,701.6z M427.5,701.6c0,1.5,0.9,2.6,2.1,2.6c1.2,0,2.1-1.1,2.1-2.6c0-1.1-0.6-2.6-2-2.6
			S427.5,700.4,427.5,701.6z"/>
		<path class="st1" d="M440.1,703.2c0,0.7,0,1.3,0.1,1.8h-1.1l-0.1-1.1h0c-0.3,0.5-1,1.3-2.2,1.3c-1.1,0-2.3-0.6-2.3-3v-4h1.2v3.8
			c0,1.3,0.4,2.2,1.5,2.2c0.8,0,1.4-0.6,1.6-1.1c0.1-0.2,0.1-0.4,0.1-0.6v-4.2h1.2V703.2z"/>
		<path class="st1" d="M442.2,700.4c0-0.8,0-1.5-0.1-2.1h1.1l0,1.3h0.1c0.3-0.9,1-1.5,1.9-1.5c0.1,0,0.2,0,0.3,0v1.2
			c-0.1,0-0.3,0-0.4,0c-0.9,0-1.5,0.7-1.7,1.6c0,0.2-0.1,0.4-0.1,0.6v3.6h-1.2V700.4z"/>
		<path class="st1" d="M453.5,705l-0.1-0.9h0c-0.4,0.5-1.1,1-2.1,1c-1.4,0-2.1-1-2.1-1.9c0-1.6,1.5-2.5,4.1-2.5v-0.1
			c0-0.6-0.2-1.6-1.5-1.6c-0.6,0-1.3,0.2-1.8,0.5l-0.3-0.8c0.6-0.4,1.4-0.6,2.2-0.6c2.1,0,2.6,1.4,2.6,2.8v2.5c0,0.6,0,1.2,0.1,1.6
			H453.5z M453.3,701.6c-1.3,0-2.9,0.2-2.9,1.5c0,0.8,0.5,1.2,1.2,1.2c0.9,0,1.4-0.6,1.6-1.1c0-0.1,0.1-0.3,0.1-0.4V701.6z"/>
		<path class="st1" d="M456.3,703.8c0.4,0.2,1,0.5,1.6,0.5c0.9,0,1.3-0.4,1.3-1c0-0.6-0.3-0.9-1.3-1.2c-1.2-0.4-1.8-1.1-1.8-1.9
			c0-1.1,0.9-2,2.3-2c0.7,0,1.3,0.2,1.7,0.4l-0.3,0.9c-0.3-0.2-0.8-0.4-1.4-0.4c-0.7,0-1.1,0.4-1.1,0.9c0,0.6,0.4,0.8,1.3,1.1
			c1.2,0.4,1.8,1,1.8,2c0,1.2-0.9,2-2.5,2c-0.7,0-1.4-0.2-1.9-0.5L456.3,703.8z"/>
		<path class="st1" d="M461.9,703.8c0.4,0.2,1,0.5,1.6,0.5c0.9,0,1.3-0.4,1.3-1c0-0.6-0.3-0.9-1.3-1.2c-1.2-0.4-1.8-1.1-1.8-1.9
			c0-1.1,0.9-2,2.3-2c0.7,0,1.3,0.2,1.7,0.4l-0.3,0.9c-0.3-0.2-0.8-0.4-1.4-0.4c-0.7,0-1.1,0.4-1.1,0.9c0,0.6,0.4,0.8,1.3,1.1
			c1.2,0.4,1.8,1,1.8,2c0,1.2-0.9,2-2.5,2c-0.7,0-1.4-0.2-1.9-0.5L461.9,703.8z"/>
		<path class="st1" d="M476.7,701.6c0,2.5-1.7,3.6-3.4,3.6c-1.8,0-3.2-1.3-3.2-3.5c0-2.3,1.5-3.6,3.4-3.6
			C475.4,698.1,476.7,699.5,476.7,701.6z M471.3,701.6c0,1.5,0.9,2.6,2.1,2.6c1.2,0,2.1-1.1,2.1-2.6c0-1.1-0.6-2.6-2-2.6
			S471.3,700.4,471.3,701.6z"/>
		<path class="st1" d="M478.2,700.4c0-0.8,0-1.5-0.1-2.1h1.1l0,1.3h0.1c0.3-0.9,1-1.5,1.9-1.5c0.1,0,0.2,0,0.3,0v1.2
			c-0.1,0-0.3,0-0.4,0c-0.9,0-1.5,0.7-1.7,1.6c0,0.2-0.1,0.4-0.1,0.6v3.6h-1.2V700.4z"/>
		<path class="st1" d="M485.6,703.8c0.4,0.2,1,0.5,1.6,0.5c0.9,0,1.3-0.4,1.3-1c0-0.6-0.3-0.9-1.3-1.2c-1.2-0.4-1.8-1.1-1.8-1.9
			c0-1.1,0.9-2,2.3-2c0.7,0,1.3,0.2,1.7,0.4l-0.3,0.9c-0.3-0.2-0.8-0.4-1.4-0.4c-0.7,0-1.1,0.4-1.1,0.9c0,0.6,0.4,0.8,1.3,1.1
			c1.2,0.4,1.8,1,1.8,2c0,1.2-0.9,2-2.5,2c-0.7,0-1.4-0.2-1.9-0.5L485.6,703.8z"/>
		<path class="st1" d="M492,701.9c0,1.7,1.1,2.4,2.3,2.4c0.9,0,1.4-0.2,1.9-0.4l0.2,0.9c-0.4,0.2-1.2,0.4-2.3,0.4
			c-2.1,0-3.3-1.4-3.3-3.4c0-2,1.2-3.7,3.2-3.7c2.2,0,2.8,1.9,2.8,3.2c0,0.3,0,0.4,0,0.6H492z M495.6,701c0-0.8-0.3-2-1.7-2
			c-1.2,0-1.8,1.1-1.9,2H495.6z"/>
		<path class="st1" d="M499,701.9c0,1.7,1.1,2.4,2.3,2.4c0.9,0,1.4-0.2,1.9-0.4l0.2,0.9c-0.4,0.2-1.2,0.4-2.3,0.4
			c-2.1,0-3.3-1.4-3.3-3.4c0-2,1.2-3.7,3.2-3.7c2.2,0,2.8,1.9,2.8,3.2c0,0.3,0,0.4,0,0.6H499z M502.6,701c0-0.8-0.3-2-1.7-2
			c-1.2,0-1.8,1.1-1.9,2H502.6z"/>
		<path class="st1" d="M506.6,701.3L506.6,701.3c0.2-0.2,0.4-0.5,0.6-0.8l2-2.3h1.5L508,701l3,4h-1.5l-2.3-3.2l-0.6,0.7v2.5h-1.2
			v-9.9h1.2V701.3z"/>
		<path class="st1" d="M513.5,696.3c0,0.4-0.3,0.8-0.8,0.8c-0.4,0-0.7-0.3-0.7-0.8c0-0.4,0.3-0.8,0.8-0.8
			C513.2,695.6,513.5,695.9,513.5,696.3z M512.1,705v-6.8h1.2v6.8H512.1z"/>
		<path class="st1" d="M515.4,700.1c0-0.7,0-1.3-0.1-1.8h1.1l0.1,1.1h0c0.3-0.6,1.1-1.3,2.2-1.3c0.9,0,2.4,0.6,2.4,2.9v4H520v-3.9
			c0-1.1-0.4-2-1.6-2c-0.8,0-1.4,0.6-1.7,1.3c-0.1,0.2-0.1,0.4-0.1,0.6v4.1h-1.2V700.1z"/>
		<path class="st1" d="M529,698.2c0,0.5-0.1,1-0.1,1.9v3.9c0,1.6-0.3,2.5-1,3.1c-0.7,0.6-1.6,0.8-2.5,0.8c-0.8,0-1.7-0.2-2.3-0.6
			l0.3-0.9c0.4,0.3,1.1,0.5,2,0.5c1.3,0,2.2-0.7,2.2-2.4v-0.8h0c-0.4,0.6-1.1,1.1-2.2,1.1c-1.7,0-2.9-1.4-2.9-3.3
			c0-2.3,1.5-3.6,3.1-3.6c1.2,0,1.8,0.6,2.1,1.2h0l0.1-1H529z M527.8,700.9c0-0.2,0-0.4-0.1-0.6c-0.2-0.7-0.8-1.3-1.7-1.3
			c-1.2,0-2,1-2,2.6c0,1.3,0.7,2.4,2,2.4c0.8,0,1.4-0.5,1.7-1.3c0.1-0.2,0.1-0.4,0.1-0.7V700.9z"/>
		<path class="st1" d="M534,700.4c0-0.8,0-1.5-0.1-2.1h1.1l0,1.3h0.1c0.3-0.9,1-1.5,1.9-1.5c0.1,0,0.2,0,0.3,0v1.2
			c-0.1,0-0.3,0-0.4,0c-0.9,0-1.5,0.7-1.7,1.6c0,0.2-0.1,0.4-0.1,0.6v3.6H534V700.4z"/>
		<path class="st1" d="M539.1,701.9c0,1.7,1.1,2.4,2.3,2.4c0.9,0,1.4-0.2,1.9-0.4l0.2,0.9c-0.4,0.2-1.2,0.4-2.3,0.4
			c-2.1,0-3.3-1.4-3.3-3.4c0-2,1.2-3.7,3.2-3.7c2.2,0,2.8,1.9,2.8,3.2c0,0.3,0,0.4,0,0.6H539.1z M542.7,701c0-0.8-0.3-2-1.7-2
			c-1.2,0-1.8,1.1-1.9,2H542.7z"/>
		<path class="st1" d="M545.9,698.2l1.3,3.8c0.2,0.6,0.4,1.2,0.5,1.7h0c0.2-0.6,0.3-1.1,0.6-1.7l1.3-3.8h1.3l-2.7,6.8h-1.2l-2.6-6.8
			H545.9z"/>
		<path class="st1" d="M552.7,701.9c0,1.7,1.1,2.4,2.3,2.4c0.9,0,1.4-0.2,1.9-0.4l0.2,0.9c-0.4,0.2-1.2,0.4-2.3,0.4
			c-2.1,0-3.3-1.4-3.3-3.4c0-2,1.2-3.7,3.2-3.7c2.2,0,2.8,1.9,2.8,3.2c0,0.3,0,0.4,0,0.6H552.7z M556.3,701c0-0.8-0.3-2-1.7-2
			c-1.2,0-1.8,1.1-1.9,2H556.3z"/>
		<path class="st1" d="M559,700.1c0-0.7,0-1.3-0.1-1.8h1.1l0.1,1.1h0c0.3-0.6,1.1-1.3,2.2-1.3c0.9,0,2.4,0.6,2.4,2.9v4h-1.2v-3.9
			c0-1.1-0.4-2-1.6-2c-0.8,0-1.4,0.6-1.7,1.3c-0.1,0.2-0.1,0.4-0.1,0.6v4.1H559V700.1z"/>
		<path class="st1" d="M572.7,698.2c0,0.5-0.1,1-0.1,1.9v3.9c0,1.6-0.3,2.5-1,3.1c-0.7,0.6-1.6,0.8-2.5,0.8c-0.8,0-1.7-0.2-2.3-0.6
			l0.3-0.9c0.4,0.3,1.1,0.5,2,0.5c1.3,0,2.2-0.7,2.2-2.4v-0.8h0c-0.4,0.6-1.1,1.1-2.2,1.1c-1.7,0-2.9-1.4-2.9-3.3
			c0-2.3,1.5-3.6,3.1-3.6c1.2,0,1.8,0.6,2.1,1.2h0l0.1-1H572.7z M571.4,700.9c0-0.2,0-0.4-0.1-0.6c-0.2-0.7-0.8-1.3-1.7-1.3
			c-1.2,0-2,1-2,2.6c0,1.3,0.7,2.4,2,2.4c0.8,0,1.4-0.5,1.7-1.3c0.1-0.2,0.1-0.4,0.1-0.7V700.9z"/>
		<path class="st1" d="M575.3,701.9c0,1.7,1.1,2.4,2.3,2.4c0.9,0,1.4-0.2,1.9-0.4l0.2,0.9c-0.4,0.2-1.2,0.4-2.3,0.4
			c-2.1,0-3.3-1.4-3.3-3.4c0-2,1.2-3.7,3.2-3.7c2.2,0,2.8,1.9,2.8,3.2c0,0.3,0,0.4,0,0.6H575.3z M578.9,701c0-0.8-0.3-2-1.7-2
			c-1.2,0-1.8,1.1-1.9,2H578.9z"/>
		<path class="st1" d="M581.4,704.3c0-0.5,0.4-0.9,0.8-0.9c0.5,0,0.8,0.4,0.8,0.9c0,0.5-0.3,0.9-0.8,0.9
			C581.8,705.2,581.4,704.8,581.4,704.3z M581.8,702.3l-0.2-6.7h1.3l-0.2,6.7H581.8z"/>
	</g>
</g>
-->
</svg>
