<?xml version="1.0" encoding="utf-8"?>
<!-- Generator: Adobe Illustrator 21.1.0, SVG Export Plug-In . SVG Version: 6.00 Build 0)  -->
<svg version="1.1" id="Layer_1" xmlns="http://www.w3.org/2000/svg" xmlns:xlink="http://www.w3.org/1999/xlink" x="0px" y="0px"
	 viewBox="0 0 621.4 801.4" style="enable-background:new 0 0 621.4 801.4;" xml:space="preserve">
<style type="text/css">
	.st0{fill:#FFFFFF;}
	.st1{fill:#FFFFFF;stroke:#FFFFFF;stroke-width:0.25;stroke-miterlimit:10;}
	.st2{stroke:#000000;stroke-width:0.25;stroke-miterlimit:10;}
	.st3{fill:#1F8AC9;}
	.st4{fill:#000101;stroke:#000101;stroke-width:0.25;stroke-miterlimit:10;}
	.st5{opacity:0.75;fill:#FFFFFF;}
	.st6{fill:#9A453E;}
	.st7{fill:#5D2318;}
	.st8{fill:#5D2318;stroke:#5D2318;stroke-width:0.25;stroke-miterlimit:10;}
	.st9{fill:#9A453E;stroke:#9A453E;stroke-width:0.25;stroke-miterlimit:10;}
	.st10{fill:#933A28;}
	.st11{fill:#29326B;stroke:#29326B;stroke-width:0.25;stroke-miterlimit:10;}
	.st12{fill:#FFFFFF;fill-opacity:0.27;}
	.st13{fill:#5D2217;}
	.st14{fill:#99443E;}
	.st15{stroke:#000000;stroke-width:0.5;stroke-miterlimit:10;}
	.st16{fill:#473181;stroke:#473181;stroke-width:0.5;stroke-miterlimit:10;}
	.st17{fill:#090E31;}
	.st18{fill:#442033;}
	.st19{fill:#473181;}
	.st20{fill:#BDA677;}
	.st21{fill:#FFFFFF;stroke:#FFFFFF;stroke-miterlimit:10;}
	.st22{fill:#2C3471;}
	.st23{fill:#2C3471;stroke:#2C3471;stroke-width:0.25;stroke-miterlimit:10;}
	.st24{fill:#00B4EC;}
	.st25{opacity:0.15;}
	.st26{fill:#21283A;stroke:#21283A;stroke-width:0.25;stroke-miterlimit:10;}
	.st27{clip-path:url(#SVGID_2_);}
	.st28{opacity:0.12;}
	.st29{fill:#0C2537;}
	.st30{opacity:0.8;}
	.st31{fill:#737273;}
	.st32{opacity:0.85;fill:#FFFFFF;}
	.st33{fill:#B9DCE8;}
</style>
<g>
	<path class="st6" d="M39.6,752.1L39.6,752.1l-1.5,0.8l-0.2-0.9l1.8-1h1v8.5h-1.1V752.1z"/>
	<path class="st6" d="M48.8,751.9h-3.2l-0.3,2.2c0.2,0,0.4-0.1,0.7-0.1c0.6,0,1.3,0.1,1.8,0.5c0.7,0.4,1.2,1.1,1.2,2.2
		c0,1.7-1.3,2.9-3.1,2.9c-0.9,0-1.7-0.3-2.1-0.5l0.3-0.9c0.4,0.2,1,0.5,1.8,0.5c1.1,0,2-0.7,2-1.8c0-1.1-0.7-1.9-2.4-1.9
		c-0.5,0-0.9,0.1-1.2,0.1l0.5-4.1h4V751.9z"/>
</g>
<g class="st28">
	<path class="st29" d="M224.5,129.1c0.1,0.4,0.1,0.8,0.1,1.2c-0.1,0.4-0.1,0.7-0.1,1c-0.2,0.9-0.4,1.5-0.5,1.9l-0.3,0.6
		c0,0.2-0.1,0.4-0.2,0.5v0.2v-0.3c0-0.1,0-0.2,0.1-0.3c0.1-0.1,0.1-0.3,0.1-0.5c0.1-0.5,0.3-1.4,0.5-2.7V129
		c-0.2-0.9-0.4-1.5-0.6-1.9c-0.4-0.9-0.9-1.4-1.3-1.8c-0.2-0.3-0.5-0.6-0.8-0.8c-0.3-0.2-0.7-0.4-1.1-0.6c-1.4-0.6-3-1.1-5-1.4
		c-0.9-0.2-1.7-0.3-2.6-0.4c-0.9-0.1-1.8-0.1-2.8-0.2c-3.6-0.2-7-0.2-10.2,0c-1.8,0-3.6,0.1-5.4,0.2c-1.8,0.1-3.5,0.2-5.4,0.3
		l-10.6,1c-3.4,0.3-6.7,0.7-10,1c-3.3,0.4-6.6,0.8-10,1.2l-5,0.5l-2.4,0.3l-2.6,0.3c-1.6,0.2-3.2,0.4-4.9,0.5
		c-1.7,0.1-3.3,0.2-5,0.3c-2,0.1-4,0.2-6,0.2c-2,0-4-0.1-6-0.3c-1.1-0.1-2.1-0.2-3-0.2c-1-0.1-2-0.1-3-0.2c-1-0.2-1.9-0.4-2.9-0.6
		s-2-0.3-3-0.6c-2.8-0.6-5.1-1.3-7-2.1c-1-0.4-1.9-0.8-2.9-1.2c-1-0.4-1.9-0.8-2.7-1.4c-0.9-0.5-1.7-1.1-2.5-1.6
		c-0.8-0.5-1.6-1.2-2.5-1.9c-0.3-0.1-0.5-0.3-0.6-0.6c-0.1-0.1-0.2-0.2-0.3-0.2c-0.1-0.1-0.2-0.1-0.3-0.2l-0.6-0.6l-0.3-0.3
		l-0.3-0.3c-0.4-0.5-0.8-1-1.2-1.5c-0.4-0.5-0.8-1-1.2-1.5c-0.9-1.2-1.7-2.6-2.4-4.2c-0.2-0.4-0.4-0.9-0.6-1.4
		c-0.2-0.5-0.3-1-0.6-1.5c-0.4-1.1-0.7-2.3-1-3.7c-0.2-0.6-0.3-1.3-0.3-1.8c0-0.6-0.1-1.1-0.2-1.7c-0.1-0.5-0.2-1-0.2-1.5
		c0-0.5,0-0.9,0-1.2c0-0.9,0.1-1.5,0.2-2.1c0-0.5,0.1-1,0.2-1.3c-0.2-0.4-0.3-0.7-0.3-1c-5.8,14.9-6.2,24.3-1.4,28.2
		c0.3,0.2,0.6,0.5,1,0.8c0.5,0.6,0.6,1.2,0.2,1.6c-0.3,0.2-0.9,0.3-1.6,0.3c-0.7,0-1.6-0.2-2.6-0.5c-1-0.3-1.9-0.8-3-1.4
		c-1-0.6-1.9-1.4-2.6-2.4c-1.7-2.1-2.8-5.6-3.2-10.3c-0.4-4.7,0.4-10.5,2.6-17.4c-3.4-0.9-6.3-2.1-8.6-3.8c-2.3-1.7-3.9-3.1-4.9-4.2
		c-1.2-1.5-2.1-2.8-2.9-4c-0.6-1.1-1.1-2-1.4-2.9c-0.3-0.9-0.1-1.3,0.6-1.4c1.5-0.2,3.1,0.1,5,1c1.8,0.9,3.5,2.2,5,4
		c0.7,0.9,1.9,1.9,3.4,3c1.5,1.2,3.4,2,5.8,2.6c1.4-3.8,3.1-8.2,5.3-13c2.1-4.8,4.3-9.5,6.5-14.1c2.2-4.6,4.2-8.8,6.2-12.6
		s3.4-6.7,4.5-8.6c0.3-0.5,0.7-1,1.1-1.4c0.3-0.3,0.7-0.6,1.3-1c0.5-0.3,1.1-0.4,1.6-0.2c0.4,0.1,1.1,0.5,2.1,1
		c1,0.6,1.9,1.3,2.7,2.2c0.9,0.9,1.5,1.8,1.9,3c0.4,1.1,0.3,2.2-0.3,3.3c-0.6,1-1.8,3-3.4,6c-1.7,3-3.5,6.5-5.6,10.5
		c-2.1,3.9-4.2,8.2-6.4,12.6c-2.2,4.5-4.1,8.6-5.8,12.5c4.8-0.6,9-1.9,12.6-3.9c3.6-2,6.7-4,9.1-6.2c2.8-2.5,5.2-5.1,7.4-8
		c3.8-5.2,6.6-9.9,8.3-14c1.7-4.1,2.7-7.7,3-10.6c0.3-3,0.2-5.4-0.4-7.2c-0.6-1.8-1.2-3-1.8-3.7c-0.6-0.6-1.9-1.3-3.8-2
		c-1.9-0.7-4.3-1.1-7.3-1.4c-2.9-0.2-6.3,0-10.2,0.6c-3.9,0.6-8.1,2-12.7,4c-4.6,2-8.7,4.2-12.2,6.5c-3.6,2.3-6.6,4.6-9,7
		c-2.4,2.4-4.2,4.7-5.3,7c-1.1,2.2-1.5,4.3-1,6.2c0.2,1.3,0.9,2.2,2.2,2.8c1.2,0.6,2.5,1,3.8,1.2c1.5,0.2,3.2,0.2,5.1,0
		c0.3,0,0.7,0.1,1.1,0.2c0.9,0.2,1.4,0.4,1.8,0.6c0.4,0.3,1.1,1,1.9,2c0.9,1,1.3,2,1.4,3c0,1-0.6,1.6-1.8,2
		c-1.2,0.4-2.7,0.5-4.6,0.4c-1,0-2.2-0.1-3.8-0.3c-1.5-0.2-3.1-0.7-4.7-1.5c-1.6-0.8-3.1-1.9-4.6-3.3c-1.5-1.4-2.6-3.3-3.4-5.8
		c-0.9-2.3-0.9-4.9-0.2-7.7c0.7-2.8,1.9-5.5,3.8-8.3c1.8-2.8,4.1-5.5,7-8.1c2.8-2.6,6-4.9,9.5-7c3.6-2,7.5-3.8,11.5-5.2
		c4.1-1.4,8.1-2.5,12-3c3.9-0.6,7.7-0.7,11.3-0.3c3.6,0.4,6.7,1.3,9.5,2.8c2.7,1.5,5,3.3,7.1,5.5c2.1,2.2,3.7,4.7,4.7,7.7
		c1.1,2.9,1.5,6.2,1.2,9.9c-0.3,3.7-1.4,7.8-3.4,12.2c-2.2,4.9-5.2,9.5-8.8,13.8c-1.6,1.8-3.4,3.6-5.4,5.4c-2,1.8-4.2,3.5-6.7,5.1
		c-2.5,1.6-5.3,3-8.2,4.2c-3,1.2-6.2,2.1-9.8,2.7c1.3,4.9,2.9,9,4.9,12.2c2,3.3,4.1,5.9,6.2,7.8c2.2,2,4.4,3.4,6.6,4.4
		c2.2,1,4.3,1.6,6.2,1.9c1.9,0.3,3.4,0.5,4.5,0.4c1.1-0.1,1.7-0.1,1.8-0.1c0.2-0.1,0.5-0.2,1-0.2c0.4-0.1,0.8,0,1.1,0.1
		c0.3,0.1,0.5,0.3,0.6,0.7c0.1,0.4,0,0.9-0.3,1.5c-0.4,0.7-0.9,1.3-1.4,1.8c-1.1,1.1-2.8,1.8-5.1,2.1c-5,0.6-9.4,0.1-13.1-1.8
		c-3.7-1.8-7-4.2-9.7-7.2c-2.7-3-5-6.2-6.8-9.8c-1.8-3.5-3.3-6.7-4.3-9.4v1.1c0.1,0.5,0.2,1.3,0.2,2.4c0,0.1,0,0.2,0.1,0.4
		c0.1,0.2,0.1,0.3,0.1,0.6c0,0.2,0,0.4,0.1,0.5c0.1,0.1,0.1,0.2,0.1,0.3c0.1,1.3,0.4,2.6,0.8,4c0.2,0.6,0.4,1.3,0.6,1.8
		c0.2,0.6,0.4,1.1,0.6,1.7c0.2,0.5,0.5,1.1,0.7,1.7c0.3,0.6,0.6,1.1,1,1.7c0.2,0.4,0.4,0.7,0.5,0.8c0.2,0.4,0.4,0.7,0.6,0.8l0.5,1
		c0.2,0.1,0.3,0.2,0.4,0.3c0.1,0.1,0.2,0.3,0.4,0.5c1,1.1,2,2.1,3,3c1.1,0.9,2.2,1.7,3.5,2.6l1,0.5c0.4,0.2,0.7,0.4,1,0.6l0.5,0.2
		l0.5,0.3l1,0.5l1,0.3l0.5,0.3l0.5,0.2l1.1,0.5c0.2,0,0.5,0.1,1,0.3c4.9,1.7,10.2,2.7,15.8,3c1.4,0.2,2.7,0.3,4.1,0.3
		c1.3,0,2.7,0,4.1,0c1.4,0.1,2.7,0.1,4.1,0.1c1.3-0.1,2.7-0.1,4.1-0.2c1.7-0.1,3.4-0.2,5-0.4c1.7-0.2,3.4-0.3,5.2-0.6
		c1.7-0.2,3.4-0.4,5-0.6c1.7-0.2,3.4-0.4,5.2-0.6c3.9-0.4,7.9-0.8,11.8-1.2c3.9-0.4,7.8-0.7,11.8-1c2.2-0.2,4.5-0.4,6.8-0.5
		c2.3-0.1,4.6-0.2,7-0.3h6.9c1.2,0.1,2.3,0.2,3.4,0.2s2.3,0.1,3.4,0.3c0.9,0.1,1.5,0.2,1.9,0.3c0.4,0.1,0.9,0.2,1.4,0.3
		c0.3,0,0.5,0.1,0.6,0.2c0.3,0,0.6,0.1,0.8,0.2c0.1,0,0.2,0,0.3,0.1c0.1,0.1,0.3,0.1,0.5,0.1l1,0.5c0.1,0,0.2,0,0.2,0.1
		c0.1,0.1,0.2,0.1,0.4,0.1c0.1,0.1,0.2,0.2,0.3,0.2c0.1,0.1,0.2,0.2,0.2,0.2c0.1,0,0.1,0.1,0.2,0.2c0.3,0.1,0.9,0.5,1.8,1.1
		c0.2,0.2,0.3,0.4,0.4,0.5c0.1,0.1,0.2,0.3,0.4,0.5c0.2,0.2,0.3,0.4,0.3,0.5l0.3,0.6C224.3,127.3,224.5,128.2,224.5,129.1z"/>
	<path class="st29" d="M184.4,73.8c0.6,0.5,1,1.8,1,3.7c0,1.9-1,5.1-2.9,9.4c-0.9,1.9-2,4.3-3.4,7.1c-1.4,2.8-3,5.7-4.7,8.5
		c-1.7,2.8-3.5,5.4-5.3,7.8c-1.8,2.4-3.5,4.1-5,5c-0.4,0.3-0.9,0.6-1.3,0.8c-0.4,0.2-1,0.4-1.6,0.6s-1.4,0.1-2.2-0.1
		c-1-0.2-1.8-0.6-2.5-1c-0.7-0.5-1.3-1-1.7-1.5c-0.4-0.6-0.8-1.4-1.1-2.2c-0.5-1.5-0.8-3.2-0.9-5.1c-0.1-1.9,0-3.9,0.2-6.1
		c0.2-2.1,0.4-4.3,0.8-6.4c0.4-2.1,0.8-4.1,1.2-5.9c-2.1,3.4-4.1,6.2-5.8,8.2c-1.7,2.1-3.2,3.7-4.6,4.7c-1.3,1.1-2.6,1.8-3.7,2.1
		c-1.1,0.3-2.1,0.5-3,0.5c-1.1,0-2.1-0.2-3-0.7c-0.9-0.5-1.7-1-2.3-1.5c-0.7-0.6-1.4-1.4-2.1-2.4c-1.3-1.6-2-3.8-2.2-6.6
		c-0.2-2.8,0-5.8,0.6-8.8c0.5-3,1.3-6,2.4-8.9c1.1-2.9,2.2-5.2,3.4-7c1.2-1.8,2.5-3.5,3.8-5.1c1.4-1.6,3-3,4.7-4.1s3.7-1.9,5.9-2.5
		c2.2-0.5,4.7-0.7,7.4-0.5c1.9,0.2,3.5,0.6,4.8,1.1c1.3,0.5,2.3,1.2,3.2,2.1c0.9-1.9,1.7-3.6,2.6-5l0.2-0.2c0.2-0.2,0.4-0.4,0.6-0.5
		c0.5-0.2,1.3-0.4,2.3-0.6c1-0.2,2.2-0.1,3.4,0.1c1.6,0.4,2.6,1.3,3.1,2.5c0.5,1.2,0.5,2.3-0.1,3.3c-0.1,0.3-0.8,1.7-2,4.2
		c-1.2,2.5-2.6,5.5-4.2,9c-1.5,3.6-3.1,7.5-4.8,11.8c-1.7,4.3-3,8.3-4.1,12.2c-1.1,3.8-1.7,7.3-1.8,10.2s0.5,5,1.8,6.1
		c1.5-1.3,3.3-3.4,5.3-6.4c1.8-2.6,3.9-6.2,6.4-10.9c2.5-4.7,5.3-10.9,8.6-18.7c0.1-0.4,0.3-0.9,0.6-1.3
		C183.4,73.9,183.9,73.6,184.4,73.8z M139.2,99.9c0.5,0.1,1.4-0.5,2.6-1.8c1.2-1.3,2.5-2.9,3.8-4.8c1.4-1.9,2.9-4.1,4.4-6.4
		c1.5-2.3,3-4.6,4.3-6.7c1.3-2.1,2.5-4,3.4-5.7c1-1.7,1.7-2.8,2.1-3.4c0.3-1.5,0.5-3.1,0.6-4.7c0.1-1.7-0.1-3.1-0.5-4.3
		c-0.4-1.2-1-2.1-1.9-2.6c-0.9-0.5-2.1-0.3-3.6,0.4c-1.8,1-3.6,2.6-5.4,4.8c-1.8,2.2-3.5,4.7-5.1,7.4c-1.6,2.7-3,5.3-4.1,7.8
		c-1.1,2.6-1.9,4.7-2.3,6.4c-0.7,3.4-1.1,6.5-1.1,9.2C136.4,98.2,137.3,99.6,139.2,99.9z"/>
	<path class="st29" d="M308.5,56.3v0.8c0,0.2-0.1,0.9-0.3,1.9c0,0.9-0.3,2.1-0.8,3.7c-0.1,0.1-0.2,0.3-0.2,0.6l-0.3,0.6
		c-0.1,0.2-0.2,0.4-0.2,0.6c-0.1,0.2-0.1,0.3-0.2,0.6c-0.1,0.2-0.2,0.4-0.2,0.6c-0.1,0.2-0.1,0.4-0.2,0.6c-0.2,0.2-0.3,0.4-0.3,0.5
		c-0.2,0.2-0.3,0.4-0.3,0.6c-0.1,0.1-0.2,0.2-0.2,0.2c0,0.1-0.1,0.1-0.2,0.2l-0.3,0.6c-0.1,0.2-0.2,0.4-0.3,0.5
		c-0.1,0.1-0.2,0.3-0.3,0.5c-0.2,0.4-0.4,0.7-0.5,0.8c-0.2,0.2-0.3,0.4-0.4,0.5c-0.1,0.1-0.1,0.2-0.2,0.3c-0.6,1-0.9,1.3-0.8,1.1
		c0-0.1,0.2-0.5,0.6-1c0.4-0.6,0.8-1.4,1.4-2.5c0.4-0.6,0.7-1.2,1-1.6l0.5-1c0-0.2,0.1-0.5,0.3-1c0.5-1.2,1.1-2.8,1.6-4.8
		c0.3-1.8,0.4-3.6,0.3-5.3c0-0.6-0.1-1.1-0.2-1.4c0-0.3-0.1-0.5-0.2-0.6c0-0.3-0.1-0.6-0.2-0.8l-0.2-0.6v-0.3l-0.2-0.3l-0.3-0.6
		c0-0.2,0-0.3-0.1-0.4c-0.1-0.1-0.1-0.1-0.1-0.2c-0.4-0.9-0.9-1.7-1.4-2.4c-0.5-0.7-1.1-1.5-1.6-2.2c-0.6-0.6-1.3-1.2-1.9-1.8
		c-0.6-0.5-1.3-1-2.1-1.4h0.2c-1.5-1.1-3.1-2-4.8-2.7c-1.7-0.7-3.5-1.4-5.3-1.9c-0.9-0.2-1.8-0.4-2.7-0.6c-1-0.2-1.9-0.4-2.7-0.6
		c-1-0.2-1.9-0.3-2.8-0.4c-0.9-0.1-1.8-0.1-2.8-0.2c-0.9-0.1-1.7-0.2-2.6-0.2c-0.9-0.1-1.7-0.1-2.6-0.1h-0.6H272h-1.3H268
		c-0.9,0-1.7,0-2.6,0.1c-0.9,0.1-1.7,0.1-2.6,0.2c-0.6,0-1.5,0.1-2.6,0.3c-0.6,0-1.1,0.1-1.3,0.2l-1.3,0.2c-7,1-13.8,2.6-20.3,4.8
		c-0.5,0.2-1,0.4-1.4,0.6c-0.4,0.2-0.9,0.3-1.4,0.6l-2.9,1.1l-1.4,0.6c-0.2,0.1-0.5,0.2-0.7,0.3c-0.3,0.1-0.5,0.2-0.7,0.3l-2.7,1.3
		c-3.7,1.7-7.4,3.7-10.9,6.1c-0.3,0.2-0.6,0.4-1,0.6c-0.3,0.2-0.6,0.3-0.8,0.6c-0.2,0.1-0.3,0.2-0.4,0.2c-0.1,0.1-0.2,0.1-0.4,0.2
		c-0.3,0.3-0.6,0.5-0.8,0.6c-0.6,0.4-1.1,0.8-1.4,1.1c-0.1,0.1-0.2,0.2-0.3,0.2c-0.1,0.1-0.2,0.1-0.3,0.2l-0.3,0.3
		c-0.1,0-0.2,0-0.2,0.1c-0.1,0.1-0.1,0.1-0.2,0.1c-0.4,0.4-0.8,0.8-1.2,1.1c-0.4,0.3-0.8,0.6-1.2,1c-0.4,0.4-0.8,0.8-1.2,1.1
		c-0.4,0.3-0.7,0.6-1,1l-2.2,2.2c-0.2,0.2-0.4,0.4-0.5,0.6c-0.1,0.2-0.3,0.3-0.5,0.6l-0.6,0.6c-0.2,0.2-0.4,0.4-0.5,0.6
		c-0.2,0.2-0.4,0.4-0.6,0.6c-0.2,0.2-0.3,0.4-0.6,0.6c-0.1,0.1-0.2,0.2-0.2,0.3c-0.1,0.1-0.2,0.2-0.4,0.3c-0.1,0.2-0.2,0.3-0.2,0.4
		c-0.1,0.1-0.1,0.2-0.2,0.4c-0.2,0.2-0.4,0.5-0.6,0.7c-0.2,0.3-0.3,0.6-0.6,0.9c-0.2,0.2-0.4,0.5-0.6,0.8s-0.3,0.6-0.6,0.8
		c-0.2,0.2-0.3,0.4-0.4,0.6c-0.1,0.2-0.1,0.3-0.2,0.6l-0.6,1c-0.2,0.2-0.3,0.4-0.4,0.6c-0.1,0.2-0.1,0.3-0.2,0.6l-0.5,1
		c-0.2,0.2-0.3,0.5-0.4,0.7c-0.1,0.3-0.2,0.5-0.4,0.7c-0.1,0.2-0.2,0.5-0.3,0.7c-0.1,0.3-0.2,0.5-0.3,0.7l-0.5,1
		c0,0.1-0.1,0.4-0.3,0.8c-0.2,0.4-0.3,0.7-0.3,1l-0.5,1c-0.4,1.2-0.8,2.3-1,3.4c-0.3,1.1-0.5,2-0.7,2.6c0,0.4-0.1,0.7-0.2,1
		c-0.3,2.8-0.3,5.3,0,7.4c0.3,2.2,1.2,3.9,2.7,5c0.9,0.4,1.9-0.2,3.2-1.8c1.1-1.4,2.5-3.9,4.2-7.6c1.7-3.7,3.8-9.3,6.2-16.9
		c0.2-0.5,0.4-1,0.6-1.4c0.4-0.7,0.9-1.1,1.4-1c0.7,0.4,1.2,1.6,1.4,3.5s-0.6,5.1-2.2,9.6c-0.9,2.2-1.9,4.7-3.1,7.4
		c-1.2,2.7-2.6,5.1-4.1,7.3c-1.5,2.2-3,3.9-4.5,5.1c-1.5,1.2-2.9,1.5-4.2,0.9c-2.7-1.2-4.9-3.2-6.8-6.1c-1.9-2.9-2.9-6.7-3.1-11.4
		c-0.1-3.5,0.1-7.7,0.7-12.5c0.6-4.8,1.9-9.8,4.1-15c0-0.1,0.1-0.2,0.2-0.3c0.2-0.2,0.4-0.4,0.6-0.5c0.5-0.2,1.3-0.5,2.3-0.8
		c1-0.3,2.2-0.4,3.4-0.2c1.6,0.2,2.7,0.9,3.4,2.2c0.6,1.2,0.7,2.3,0.2,3.3c-0.2,0.4-0.8,1.9-1.8,4.3c-1,2.5-1.9,5.4-2.7,8.8
		c0.2-0.4,0.4-0.8,0.5-1.1c0.1-0.3,0.2-0.6,0.3-0.9c0.1-0.3,0.3-0.6,0.5-0.9c0.6-1.2,1.3-2.3,2-3.5c0.7-1.2,1.5-2.4,2.5-3.7
		c0.9-1.3,1.8-2.5,2.8-3.7c1-1.2,2.1-2.3,3.1-3.5l1-0.8l0.3-0.5c0.1-0.1,0.2-0.2,0.2-0.2c0.1,0,0.1-0.1,0.2-0.2l1.8-1.6
		c0-0.1,0.1-0.3,0.3-0.5l0.5-0.3l1-0.8c0.3-0.3,0.9-0.8,1.8-1.4c2.2-1.8,4.6-3.5,7-5c2.5-1.5,5-2.9,7.5-4.2l1.9-1l2.1-1l1.9-0.8
		l1.9-0.8c1.4-0.5,2.7-1,4.1-1.5c1.3-0.5,2.7-1,4.1-1.5c3.4-1.1,6.9-2,10.5-2.7c3.6-0.7,7.2-1.3,10.8-1.8l6.2-0.5
		c2-0.1,4.1-0.1,6.2,0c4.1,0.2,8.2,0.7,12.3,1.4c1.2,0.2,2.3,0.5,3.5,0.9c1.2,0.4,2.3,0.8,3.5,1.2c2.1,0.7,4.3,1.8,6.6,3.2
		c0.3,0.3,0.8,0.7,1.4,1.1c0.2,0.1,0.5,0.3,0.8,0.6l0.3,0.2l0.3,0.3l0.3,0.3l0.3,0.3l0.6,0.6c0.3,0.3,0.5,0.6,0.6,0.8
		c0.2,0,0.3,0.1,0.3,0.3l0.3,0.3c0.4,0.4,0.8,1,1.1,1.6l0.5,0.6c0,0.1,0,0.2,0.1,0.2c0.1,0.1,0.1,0.1,0.1,0.2l0.3,0.5
		c0,0.1,0.1,0.2,0.2,0.3l0.2,0.5c0.2,0.4,0.3,0.7,0.3,0.8c0.1,0.2,0.2,0.4,0.2,0.5c0,0.1,0.1,0.3,0.2,0.5l0.2,1
		c0.2,0.4,0.3,0.8,0.3,1.1c0,0.3,0.1,0.6,0.2,0.8v1.4V56.3z M193,57c-0.3-0.1-0.7-0.4-1.1-0.8c-0.9-0.9-1.5-2-1.9-3.4
		c-0.5-1.8-0.4-3.4,0.5-4.8c0.9-1.4,2-2,3.5-1.8c0.7,0,1.6,0.1,2.5,0.3c0.9,0.2,1.7,0.5,2.3,0.9c0.6,0.4,1.1,0.9,1.4,1.6
		c0.3,0.7,0.2,1.6-0.2,2.6c-0.9,2.1-1.9,3.7-3.2,4.6C195.4,57.3,194.2,57.5,193,57z"/>
	<path class="st29" d="M250.3,72.3c0.4,0.2,0.5,0.8,0.3,1.8c-0.1,0.4-0.3,0.9-0.5,1.4c-4.9,8.7-8.4,15.9-10.5,21.4
		c-2.1,5.5-3.5,9.5-4.4,11.9c-0.4,1.1-0.9,2-1.4,2.9c-0.5,0.7-1.1,1.4-1.8,1.9c-0.7,0.5-1.5,0.8-2.5,0.8c-2.9,0-4.9-1.3-6-3.8
		c-1.1-2.5-1.8-5.3-2-8.4c-0.2-3.5,0.1-7.5,0.8-12c0.9-5.8,2.1-11.5,3.7-17.4c1.6-5.8,3.4-11.5,5.4-17c-0.3,0.4-1.1,1.6-2.5,3.4
		c-1.3,1.9-2.9,4.4-4.8,7.5c-1.9,3.1-3.9,6.8-6,11c-2.1,4.2-4.2,8.8-6.2,13.9c-0.4,0.9-0.9,1.6-1.3,2.2c-0.5,0.5-1.1,1.1-1.8,1.6
		c-0.6,0.5-1.4,0.7-2.4,0.6c-1.2,0-2-0.3-2.6-1c-0.5-0.7-0.9-1.5-1.1-2.3c-0.3-1-0.5-2.1-0.5-3.4c-0.1-1.2-0.1-2.4-0.1-3.6
		c0.1-1.2,0.1-2.3,0.2-3.3c0.1-1.2,0.2-2.2,0.2-3.2c0.4-3.1,1-6,1.7-8.6c0.7-2.7,1.6-5.8,2.6-9.4l0.3-0.6c0.2-0.4,0.6-0.7,1.1-0.8
		c0.6-0.1,1.4-0.2,2.4-0.4c1-0.2,1.9-0.2,2.9-0.2s1.8,0.1,2.6,0.4c0.7,0.3,1.2,0.7,1.4,1.4v0.5c0,0.2-0.1,0.5-0.2,0.7
		c-0.1,0.3-0.2,0.6-0.3,0.9c-1.8,4.4-3.2,7.9-4.2,10.6c-1,2.7-1.8,5.7-2.3,9c0.5-1.1,1.3-2.7,2.3-4.8c1-2.1,2.2-4.5,3.5-7
		c1.3-2.5,2.8-5.1,4.4-7.8c1.6-2.7,3.2-5.1,4.9-7.3c1.7-2.2,3.3-3.9,4.9-5.2c1.6-1.3,3.1-1.9,4.5-1.8c1.6,0.1,2.9,0.7,3.8,1.8
		c0.9,0.9,1.4,2.2,1.5,4.2c0.2,1.9-0.5,4.6-1.8,8c-2.3,6.9-4.3,13.3-5.8,19.2c-0.6,2.6-1.2,5.1-1.7,7.7c-0.5,2.6-0.8,5-1,7.2
		c-0.2,2.2-0.2,4.2-0.1,6s0.6,3.1,1.4,4.1c1.3-4.7,2.9-9.2,4.9-13.6c2-4.4,3.6-7.9,4.9-10.7c2.1-4.4,4-7.2,5.6-8.5
		C248.4,72.8,249.5,72.2,250.3,72.3z"/>
	<path class="st29" d="M285.3,72.8c0.6,0.5,0.9,1.8,0.7,3.8c-0.2,2-1.4,5-3.6,9c-1,1.7-2.2,3.6-3.7,5.7c-1.5,2.1-3.1,4.2-4.9,6.2
		s-3.6,4.1-5.4,5.9c-1.9,1.9-3.7,3.3-5.4,4.4c-1.2,3.5-2.5,7.1-4,10.9c-1.5,3.7-3.1,7.4-4.8,10.9c-1.7,3.5-3.5,6.7-5.4,9.7
		c-1.9,2.9-3.8,5.3-5.9,7c-2.1,1.8-4.2,2.9-6.4,3.3c-2.2,0.4-4.4-0.2-6.6-1.8c-2-1.8-3.1-4.1-3.4-6.9c-0.2-2.3,0.5-5.4,2.2-9
		c1.7-3.7,5.1-8.1,10.5-13.4c1.8-2,4.2-4,7-6c2.9-2,5.5-3.6,7.8-4.9c1.1-3.3,2-6.3,2.8-9.1c0.8-2.8,1.5-5.2,2-7.2
		c-2.5,4.4-4.7,7.2-6.9,8.5c-2.1,1.1-3.9,1.1-5.4,0.2c-1.5-1-2.6-2.4-3.4-4.3c-0.5-1.1-0.9-2.5-1-4.2c-0.1-1.8-0.2-3.5-0.3-5.2
		c-0.1-1.9-0.1-4,0-6.2c0.3-2.8,0.7-5.7,1.1-8.7c0.4-3,1.1-6.4,1.9-10c0-0.2,0.1-0.4,0.2-0.6c0.2-0.4,0.5-0.7,1-0.8
		c0.6-0.1,1.4-0.2,2.4-0.4c1-0.2,1.9-0.2,2.9-0.2s1.8,0.1,2.6,0.4c0.7,0.3,1.2,0.7,1.4,1.4c0.1,0.1,0.2,0.3,0.2,0.5
		c0,0.2,0,0.5,0,0.7c0,0.3-0.1,0.6-0.2,0.9c-1.2,3.6-2.2,7.1-3.2,10.6c-1,3.4-1.7,6.7-2.2,9.9c-0.2,1.6-0.4,3.1-0.5,4.6
		c-0.1,1.3-0.1,2.6-0.1,4c0.1,1.4,0.3,2.6,0.7,3.5c0.7-0.6,1.5-1.5,2.4-2.7c0.7-1,1.6-2.2,2.6-3.8c1-1.6,2-3.5,3-5.8
		c0.9-1.7,1.7-3.7,2.6-5.8c0.9-2.2,1.8-4.3,2.7-6.5c0.9-2.1,1.7-4.2,2.5-6.2c0.7-2,1.4-3.7,1.9-5.1c0.2-0.7,0.4-1.5,0.6-2.2
		c0.2-0.7,0.3-1.4,0.6-2.2l0.2-0.2c0.2-0.2,0.4-0.4,0.6-0.5c0.5-0.2,1.3-0.5,2.2-0.7c1-0.3,2.1-0.3,3.4-0.1c1.7,0.2,2.9,0.9,3.5,2.2
		c0.6,1.2,0.7,2.3,0.3,3.3c-0.2,0.2-0.6,1.2-1.3,3c-0.6,1.8-1.4,3.9-2.4,6.6c-1,2.6-2,5.5-3,8.7c-1.1,3.2-2.1,6.4-3,9.6
		c-0.2,1-0.5,2-1,3.2c-0.3,1.1-0.7,2.3-1,3.8c-0.4,1.4-0.8,3-1.4,4.7c2.3-2.3,5-5.5,8-9.4c3-3.9,6-8.9,9-14.7
		c0.1-0.4,0.3-0.9,0.6-1.3C284.3,72.7,284.8,72.5,285.3,72.8z M233.3,144.7c1.7,0.9,3.4,0.6,5.1-0.9c1.7-1.4,3.4-3.6,5-6.6
		c1.6-2.9,3.2-6.4,4.7-10.3c1.5-3.9,3-8,4.2-12.2c-2.8,1.9-5.6,4.2-8.5,6.8c-2.9,2.6-5.2,5.3-6.9,8.1c-1.7,2.8-2.9,5.1-3.7,7
		c-0.7,1.9-1.2,3.4-1.3,4.5c-0.1,1.1,0,2,0.2,2.6C232.5,144.2,232.9,144.5,233.3,144.7z"/>
	<path class="st29" d="M397.8,21.8c5.4,3.1,9.9,7.1,13.4,12.2c1.5,2.1,2.8,4.6,4,7.3c1.2,2.7,2,5.7,2.4,9c0.4,3.3,0.4,7,0,11
		c-0.4,4-1.5,8.3-3.2,13c-3.4,9.4-7.9,17.7-13.6,25c-2.5,3.1-5.2,6.1-8.3,9c-3.1,2.9-6.6,5.4-10.6,7.5c-3.9,2.1-8.3,3.8-13.1,4.9
		c-4.8,1.1-10,1.5-15.7,1c-6.3-0.4-11.3-1.8-15-4.1c-3.7-2.3-6.6-4.8-8.6-7.6c-2-2.8-3.3-5.5-3.9-8.2c-0.6-2.7-1-4.8-1-6.3
		c0.1-1.9,0.3-3.6,0.5-5c0.2-1.2,0.5-2.2,0.8-3c0.3-0.9,0.7-1.1,1.3-0.6c1.2,0.7,2.2,2,3.1,3.8c0.9,1.8,1.4,3.9,1.4,6.2
		c0,1.2,0.2,2.7,0.7,4.6c0.5,1.9,1.5,3.9,3,5.9c1.5,2,3.7,3.9,6.6,5.6c2.8,1.7,6.6,2.9,11.3,3.7c3.6,0.5,7.4,0.5,11.3-0.2
		c3.9-0.6,7.8-2.3,11.8-5.1c4-2.8,8.1-6.9,12.2-12.3c4.1-5.4,8.3-12.7,12.6-21.8c3.9-8.4,6.2-15.7,6.6-21.8c0.5-6.1,0.2-11.1-0.9-15
		c-1.2-4.6-3.3-8.4-6.2-11.4c-1-0.7-2.4-1.5-4.3-2.2c-1.9-0.7-4.3-1.1-7.2-1.3s-6.2,0.1-10,0.7c-3.8,0.6-8,2-12.6,4
		c-4.6,2-8.7,4.2-12.2,6.6c-3.6,2.3-6.6,4.7-9,7.1c-2.4,2.4-4.2,4.7-5.3,7s-1.5,4.3-1,6.2c0.2,1.3,0.9,2.2,2.2,2.7
		c1.2,0.5,2.5,0.9,3.8,1.1c1.5,0.2,3.2,0.3,5.1,0.2c0.3,0.1,0.7,0.2,1.1,0.2c0.3,0.1,0.6,0.2,1,0.2c0.3,0,0.6,0.1,0.8,0.3
		c0.4,0.4,1.1,1.1,1.9,2.2c0.9,1,1.3,2,1.3,3c0.1,1-0.4,1.6-1.6,2c-1.2,0.4-2.7,0.5-4.6,0.4c-1,0-2.2-0.1-3.8-0.4
		c-1.5-0.3-3.1-0.8-4.7-1.5c-1.6-0.7-3.1-1.8-4.6-3.3c-1.5-1.4-2.6-3.3-3.4-5.7c-0.9-2.3-0.9-4.9-0.2-7.8c0.7-2.8,1.9-5.6,3.8-8.4
		c1.8-2.8,4.1-5.4,7-8c2.8-2.6,6-4.9,9.5-6.9c0.2-0.1,0.4-0.2,0.6-0.3c0.2-0.1,0.4-0.2,0.6-0.3c-0.5,0.2-1,0.4-1.5,0.6
		c-0.5,0.2-1,0.4-1.5,0.6c-2.2,1.1-4.4,2.2-6.6,3.4c-2.1,1.2-4.2,2.5-6.2,4c-1.8,1.4-3.5,2.8-5.2,4.3c-1.7,1.5-3.2,3.1-4.7,5
		c-2.8,3.4-4.9,7.4-6.2,12c0,0.2,0,0.4-0.1,0.5c-0.1,0.1-0.1,0.3-0.1,0.5l-0.3,1.1c-0.2,0.9-0.3,1.5-0.3,2.1c-0.1,0.3-0.2,0.7-0.2,1
		c0,0.4-0.1,0.7-0.2,1v1.1v0.3v0.2v0.6c0,1.4,0.2,2.8,0.5,4.2c0.3,1.5,0.8,2.8,1.4,4c0.6,1.5,1.5,2.9,2.5,4.1c1,1.2,2.1,2.4,3.3,3.4
		c2.7,2.1,5.4,3.9,8.3,5.3c3.5,1.7,7.1,2.9,10.7,3.7c0.2,0.1,0.4,0.2,0.5,0.2c0.1,0,0.3,0.1,0.5,0.2c0.3-1.7,0.7-3.5,1.2-5.3
		c0.5-1.8,1.1-3.7,2-5.6c1.4-3.4,3.2-7.3,5.4-11.5c2.2-4.3,4.5-8.5,6.9-12.7c2.4-4.2,4.7-8.2,6.9-11.8c2.2-3.7,4-6.6,5.4-8.9
		c0.4-0.6,0.9-1.2,1.3-1.6c0.9-0.9,1.8-1.2,2.9-1.1c0.4,0.1,1.1,0.5,2,1.1c0.9,0.6,1.8,1.4,2.6,2.2c0.8,0.9,1.3,1.8,1.6,3
		c0.3,1.1,0,2.2-0.7,3.3c-0.7,1.2-2,3.1-3.8,5.8c-1.8,2.7-3.8,5.9-6.1,9.4c-2.2,3.6-4.6,7.4-7,11.4c-2.4,4.1-4.5,8-6.3,11.8
		c-2,4.4-3.6,8.3-4.8,11.8c0.2,0.1,0.6,0.2,1.3,0.2c0.6,0.1,1.1,0.2,1.5,0.2c0.4,0,0.8,0,1.2,0c0.2,0,0.4,0,0.6,0.1
		c0.2,0.1,0.3,0.1,0.6,0.1h1.6c0.6,0,1.6,0,3-0.1c1.3-0.1,2.7-0.2,4.1-0.4c0.6-0.1,1.3-0.2,1.8-0.2c0.6-0.1,1.1-0.2,1.5-0.4
		c0.1,0,0.2,0,0.2-0.1c0.1-0.1,0.1-0.1,0.2-0.1c0.2,0,0.4-0.1,0.5-0.2h0.2c-0.2,0.2-0.5,0.4-1,0.5c-0.2,0.1-0.5,0.2-0.8,0.3
		c-0.3,0.1-0.7,0.2-1.3,0.3c-1.7,0.4-4.1,0.7-7.2,1c-1.3,0.1-2.6,0.1-4,0.1c-1.4-0.1-2.8-0.1-4.3-0.2c-2.3,8-2,13.3,1,16
		c0.4,0.2,0.7,0.5,1,0.8c0.4,0.6,0.4,1.2,0,1.6c-0.3,0.2-0.9,0.3-1.6,0.3c-0.7,0-1.6-0.1-2.5-0.4c-0.9-0.3-1.8-0.7-2.8-1.4
		c-1-0.6-1.8-1.5-2.6-2.6c-1.1-1.4-1.8-3.4-2.2-6.2c-0.4-2.7-0.2-5.9,0.6-9.7h-0.3c-2.8-0.6-5.7-1.5-8.8-2.7c-2.7-1-5.4-2.3-8.2-4
		c-2.6-1.7-4.7-3.6-6.4-5.6c-2-2.3-3.4-4.9-4.2-7.7c-0.4-1.3-0.7-2.7-1-4.2v-4.3l0.2-1.1l0.2-1.1V60l0.2-0.5
		c0.1-0.2,0.2-0.6,0.2-1.1c0.2-0.6,0.4-1.3,0.6-2c0.2-0.7,0.4-1.4,0.6-2.2c1.2-3.3,2.8-6.3,4.8-9c1.8-2.7,4.1-5.2,6.9-7.5
		c0.9-0.7,1.7-1.4,2.5-2.1c0.8-0.6,1.6-1.2,2.5-1.8c0.7-0.5,1.5-1,2.2-1.4c0.7-0.4,1.4-0.9,2.2-1.3c0.7-0.4,1.5-0.8,2.2-1.2
		c0.7-0.4,1.5-0.8,2.3-1.2c0.9-0.4,1.7-0.9,2.6-1.3c0.9-0.4,1.9-0.9,3-1.3c1.2-0.5,2.4-1.1,3.7-1.6c0.6-0.2,1.4-0.5,2.4-0.8
		s2-0.6,3-1c1.1-0.3,2-0.6,2.9-0.8c0.9-0.2,1.5-0.4,2.1-0.6c0.2,0,0.4-0.1,0.5-0.2c5.5-1.7,11-2.6,16.3-2.6
		C389.5,18.6,394.1,19.6,397.8,21.8z"/>
	<path class="st29" d="M472.5,73.8c0.6,0.5,1,1.8,1,3.7c0,1.9-1,5.1-2.9,9.4c-0.9,1.9-2,4.3-3.4,7.1c-1.4,2.8-3,5.7-4.7,8.5
		c-1.7,2.8-3.5,5.4-5.3,7.8c-1.8,2.4-3.5,4.1-5,5c-0.4,0.3-0.9,0.6-1.3,0.8c-0.4,0.2-1,0.4-1.6,0.6s-1.4,0.1-2.2-0.1
		c-1-0.2-1.8-0.6-2.5-1c-0.7-0.5-1.3-1-1.7-1.5c-0.4-0.6-0.8-1.4-1.1-2.2c-0.5-1.5-0.8-3.2-0.9-5.1c-0.1-1.9,0-3.9,0.2-6.1
		c0.2-2.1,0.4-4.3,0.8-6.4c0.4-2.1,0.8-4.1,1.2-5.9c-2.1,3.4-4.1,6.2-5.8,8.2c-1.7,2.1-3.2,3.7-4.6,4.7c-1.3,1.1-2.6,1.8-3.7,2.1
		c-1.1,0.3-2.1,0.5-3,0.5c-1.1,0-2.1-0.2-3-0.7c-0.9-0.5-1.7-1-2.3-1.5c-0.7-0.6-1.4-1.4-2.1-2.4c-1.3-1.6-2-3.8-2.2-6.6
		c-0.2-2.8,0-5.8,0.6-8.8c0.5-3,1.3-6,2.4-8.9c1.1-2.9,2.2-5.2,3.4-7c1.2-1.8,2.5-3.5,3.8-5.1c1.4-1.6,3-3,4.7-4.1s3.7-1.9,5.9-2.5
		c2.2-0.5,4.7-0.7,7.4-0.5c1.9,0.2,3.5,0.6,4.8,1.1c1.3,0.5,2.3,1.2,3.2,2.1c0.9-1.9,1.7-3.6,2.6-5l0.2-0.2c0.2-0.2,0.4-0.4,0.6-0.5
		c0.5-0.2,1.3-0.4,2.3-0.6c1-0.2,2.2-0.1,3.4,0.1c1.6,0.4,2.6,1.3,3.1,2.5c0.5,1.2,0.5,2.3-0.1,3.3c-0.1,0.3-0.8,1.7-2,4.2
		c-1.2,2.5-2.6,5.5-4.2,9c-1.5,3.6-3.1,7.5-4.8,11.8c-1.7,4.3-3,8.3-4.1,12.2c-1.1,3.8-1.7,7.3-1.8,10.2s0.5,5,1.8,6.1
		c1.5-1.3,3.3-3.4,5.3-6.4c1.8-2.6,3.9-6.2,6.4-10.9c2.5-4.7,5.3-10.9,8.6-18.7c0.1-0.4,0.3-0.9,0.6-1.3
		C471.6,73.9,472.1,73.6,472.5,73.8z M427.4,99.9c0.5,0.1,1.4-0.5,2.6-1.8c1.2-1.3,2.5-2.9,3.8-4.8c1.4-1.9,2.9-4.1,4.4-6.4
		c1.5-2.3,3-4.6,4.3-6.7c1.3-2.1,2.5-4,3.4-5.7c1-1.7,1.7-2.8,2.1-3.4c0.3-1.5,0.5-3.1,0.6-4.7c0.1-1.7-0.1-3.1-0.5-4.3
		c-0.4-1.2-1-2.1-1.9-2.6c-0.9-0.5-2.1-0.3-3.6,0.4c-1.8,1-3.6,2.6-5.4,4.8c-1.8,2.2-3.5,4.7-5.1,7.4c-1.6,2.7-3,5.3-4.1,7.8
		c-1.1,2.6-1.9,4.7-2.3,6.4c-0.7,3.4-1.1,6.5-1.1,9.2C424.5,98.2,425.5,99.6,427.4,99.9z"/>
	<path class="st29" d="M484.5,83.4c0.6-1.4,1.3-2.9,2-4.6c0.7-1.7,1.3-3.2,1.8-4.7c0.6-1.7,1.2-3.5,1.8-5.3c0.1-0.3,0.3-0.9,0.6-1.7
		c0.3-0.8,0.6-1.6,1.1-2.3c0.5-0.7,1-1.4,1.6-1.9c0.6-0.5,1.3-0.7,2-0.5c1.8,0.5,3.1,1.5,3.8,2.8c0.7,1.3,0.7,3.5,0,6.6
		c-0.9,2.8-1.5,5.4-2.1,7.8c-0.5,2.5-0.9,4.5-1.1,6.1c-0.5,3.6-0.9,6.8-1,9.6c-0.2,2.5-0.2,4.7,0.1,6.8c0.3,2.1,0.9,3.2,2,3.4
		c1-1,1.9-2.9,2.9-5.9c0.9-2.6,1.7-6.3,2.4-11.2c0.7-4.9,1.3-11.7,1.8-20.3c0-1.2,0.1-2,0.4-2.6c0.3-0.5,0.5-1,0.7-1.3
		c0.3-0.3,0.7-0.5,1.1-0.6c2.6-0.1,5.2-0.4,7.9-0.8c2.7-0.4,5.3-1.3,7.8-2.6c0.5-0.3,1-0.5,1.4-0.6c1.1-0.2,1.7-0.1,1.8,0.3
		c0.3,1.1,0.1,2.1-0.6,3.1c-0.7,1-1.6,1.9-2.7,2.7c-1.1,0.8-2.3,1.5-3.6,2.1c-1.3,0.6-2.2,1-2.9,1.2c-1.9,0.3-3.8,0.5-5.8,0.5
		c0.2,1.7,0.2,4-0.1,6.9c-0.3,2.9-1,6.6-2.2,11.2c-1.5,5.9-2.9,10.4-4.1,13.6c-1.2,3.2-2.3,5.5-3.1,7c-1.1,1.8-2,2.9-2.9,3.2
		c-2.5,0.9-4.3,0.5-5.7-1.1c-1.3-1.6-2.3-3.8-3-6.5c-0.6-2.7-1-5.7-1-9c-0.1-3.3,0-6.2,0.1-8.8c-3.8,7.7-7.1,12.3-9.9,13.8
		c-2.1,1.1-3.9,1.1-5.4,0.2c-1.5-1-2.6-2.4-3.2-4.3c-0.5-1.1-0.9-2.5-1-4.2c-0.1-1.8-0.2-3.5-0.2-5.2c0-1.9,0.1-4,0.2-6.2
		c0.2-2.8,0.6-5.7,1.2-8.7c0.6-3,1.3-6.4,2.2-10c0-0.2,0.1-0.4,0.2-0.6c0.2-0.4,0.5-0.7,1-0.8c0.6-0.1,1.4-0.2,2.4-0.4
		c1-0.2,1.9-0.2,2.9-0.2s1.8,0.1,2.6,0.4c0.7,0.3,1.2,0.7,1.4,1.4c0.1,0.1,0.2,0.3,0.2,0.5c0,0.2-0.1,0.7-0.3,1.6
		c-1.2,3.6-2.3,7.1-3.3,10.6c-1,3.4-1.8,6.7-2.3,9.9c-0.3,1.6-0.5,3.1-0.6,4.6c-0.1,1.3-0.2,2.6-0.2,4c0,1.4,0.2,2.6,0.6,3.5
		c0.7-0.6,1.6-1.5,2.6-2.7C480.4,91.1,482.3,87.9,484.5,83.4z"/>
	<path class="st29" d="M564.5,72.3c0.4,0.2,0.5,0.8,0.3,1.8c-0.1,0.4-0.3,0.9-0.5,1.4c-4.9,8.7-8.4,15.9-10.5,21.4
		c-2.1,5.5-3.5,9.5-4.4,11.9c-0.4,1.1-0.9,2-1.4,2.9c-0.5,0.7-1.1,1.4-1.8,1.9c-0.7,0.5-1.5,0.8-2.5,0.8c-2.9,0-4.9-1.3-6-3.8
		s-1.8-5.3-2-8.4c-0.2-3.5,0.1-7.5,0.8-12c0.9-5.8,2.1-11.5,3.7-17.4c1.6-5.8,3.4-11.5,5.4-17c-0.3,0.4-1.1,1.6-2.5,3.4
		c-1.3,1.9-2.9,4.4-4.8,7.5c-1.9,3.1-3.9,6.8-6,11c-2.1,4.2-4.2,8.8-6.2,13.9c-0.4,0.9-0.9,1.6-1.3,2.2c-0.5,0.5-1.1,1.1-1.8,1.6
		c-0.6,0.5-1.4,0.7-2.4,0.6c-1.2,0-2-0.3-2.6-1c-0.5-0.7-0.9-1.5-1.1-2.3c-0.3-1-0.5-2.1-0.5-3.4c-0.1-1.2-0.1-2.4-0.1-3.6
		c0.1-1.2,0.1-2.3,0.2-3.3c0.1-1.2,0.2-2.2,0.2-3.2c0.4-3.1,1-6,1.7-8.6c0.7-2.7,1.6-5.8,2.6-9.4l0.3-0.6c0.2-0.4,0.6-0.7,1.1-0.8
		c0.6-0.1,1.4-0.2,2.4-0.4c1-0.2,1.9-0.2,2.9-0.2s1.8,0.1,2.6,0.4c0.7,0.3,1.2,0.7,1.4,1.4v0.5c0,0.2-0.1,0.5-0.2,0.7
		c-0.1,0.3-0.2,0.6-0.3,0.9c-1.8,4.4-3.2,7.9-4.2,10.6c-1,2.7-1.8,5.7-2.3,9c0.5-1.1,1.3-2.7,2.3-4.8c1-2.1,2.2-4.5,3.5-7
		c1.3-2.5,2.8-5.1,4.4-7.8c1.6-2.7,3.2-5.1,4.9-7.3c1.7-2.2,3.3-3.9,4.9-5.2c1.6-1.3,3.1-1.9,4.5-1.8c1.6,0.1,2.9,0.7,3.8,1.8
		c0.9,0.9,1.4,2.2,1.5,4.2s-0.5,4.6-1.8,8c-2.3,6.9-4.3,13.3-5.8,19.2c-0.6,2.6-1.2,5.1-1.7,7.7c-0.5,2.6-0.8,5-1,7.2
		c-0.2,2.2-0.2,4.2-0.1,6c0.2,1.8,0.6,3.1,1.4,4.1c1.3-4.7,2.9-9.2,4.9-13.6c2-4.4,3.6-7.9,4.9-10.7c2.1-4.4,4-7.2,5.6-8.5
		C562.6,72.8,563.8,72.2,564.5,72.3z"/>
</g>
<g>
	<path class="st26" d="M141,99.9c0.6-0.1,1.5-0.2,2.3-0.2c1.3,0,2.1,0.2,2.7,0.8c0.5,0.4,0.7,1.1,0.7,1.8c0,1.2-0.8,2.1-1.8,2.4v0
		c0.7,0.3,1.2,0.9,1.4,1.9c0.3,1.3,0.5,2.2,0.7,2.6h-1.3c-0.2-0.3-0.4-1.1-0.6-2.3c-0.3-1.3-0.8-1.8-1.9-1.8h-1.1v4.1H141V99.9z
		 M142.2,104.2h1.2c1.3,0,2.1-0.7,2.1-1.8c0-1.2-0.9-1.8-2.2-1.8c-0.6,0-1,0.1-1.2,0.1V104.2z"/>
	<path class="st26" d="M152.4,109.2l-0.1-0.9h0c-0.4,0.5-1.1,1-2.1,1c-1.4,0-2.1-1-2.1-1.9c0-1.6,1.5-2.5,4.1-2.5v-0.1
		c0-0.6-0.2-1.6-1.5-1.6c-0.6,0-1.3,0.2-1.8,0.5l-0.3-0.8c0.6-0.4,1.4-0.6,2.2-0.6c2.1,0,2.6,1.4,2.6,2.8v2.5c0,0.6,0,1.2,0.1,1.6
		H152.4z M152.2,105.8c-1.3,0-2.9,0.2-2.9,1.5c0,0.8,0.5,1.2,1.2,1.2c0.9,0,1.4-0.6,1.6-1.1c0-0.1,0.1-0.3,0.1-0.4V105.8z"/>
	<path class="st26" d="M156.7,100.5c0,0.4-0.3,0.8-0.8,0.8c-0.4,0-0.7-0.3-0.7-0.8c0-0.4,0.3-0.8,0.8-0.8
		C156.4,99.8,156.7,100.1,156.7,100.5z M155.4,109.2v-6.8h1.2v6.8H155.4z"/>
	<path class="st26" d="M158.6,104.3c0-0.7,0-1.3-0.1-1.8h1.1l0.1,1.1h0c0.3-0.6,1.1-1.3,2.2-1.3c0.9,0,2.4,0.6,2.4,2.9v4h-1.2v-3.9
		c0-1.1-0.4-2-1.6-2c-0.8,0-1.4,0.6-1.7,1.3c-0.1,0.2-0.1,0.4-0.1,0.6v4.1h-1.2V104.3z"/>
	<path class="st26" d="M166.7,102.4l1.5,4c0.2,0.4,0.3,1,0.4,1.4h0c0.1-0.4,0.3-0.9,0.4-1.4l1.3-4h1.3l-1.8,4.8
		c-0.9,2.3-1.5,3.5-2.3,4.2c-0.6,0.5-1.2,0.7-1.5,0.8l-0.3-1c0.3-0.1,0.7-0.3,1.1-0.6c0.3-0.3,0.8-0.7,1-1.4
		c0.1-0.1,0.1-0.2,0.1-0.3c0-0.1,0-0.2-0.1-0.3l-2.5-6.2H166.7z"/>
	<path class="st26" d="M175.8,99.9c0.7-0.1,1.6-0.2,2.6-0.2c1.8,0,3,0.4,3.8,1.2c0.8,0.8,1.3,1.9,1.3,3.4c0,1.5-0.5,2.8-1.4,3.7
		c-0.9,0.9-2.3,1.4-4.2,1.4c-0.9,0-1.6,0-2.2-0.1V99.9z M177,108.3c0.3,0.1,0.8,0.1,1.2,0.1c2.6,0,4-1.5,4-4c0-2.2-1.2-3.6-3.8-3.6
		c-0.6,0-1.1,0.1-1.4,0.1V108.3z"/>
	<path class="st26" d="M188.9,109.2l-0.1-0.9h0c-0.4,0.5-1.1,1-2.1,1c-1.4,0-2.1-1-2.1-1.9c0-1.6,1.5-2.5,4.1-2.5v-0.1
		c0-0.6-0.2-1.6-1.5-1.6c-0.6,0-1.3,0.2-1.8,0.5l-0.3-0.8c0.6-0.4,1.4-0.6,2.2-0.6c2.1,0,2.6,1.4,2.6,2.8v2.5c0,0.6,0,1.2,0.1,1.6
		H188.9z M188.7,105.8c-1.3,0-2.9,0.2-2.9,1.5c0,0.8,0.5,1.2,1.2,1.2c0.9,0,1.4-0.6,1.6-1.1c0-0.1,0.1-0.3,0.1-0.4V105.8z"/>
	<path class="st26" d="M192.2,102.4l0.9,3.4c0.2,0.8,0.4,1.5,0.5,2.2h0c0.2-0.7,0.4-1.4,0.6-2.1l1.1-3.5h1l1.1,3.4
		c0.3,0.8,0.4,1.5,0.6,2.2h0c0.1-0.7,0.3-1.4,0.5-2.2l1-3.4h1.2l-2.2,6.8h-1.1l-1-3.2c-0.2-0.8-0.4-1.4-0.6-2.2h0
		c-0.2,0.8-0.4,1.5-0.6,2.2l-1.1,3.2H193l-2-6.8H192.2z"/>
	<path class="st26" d="M202,104.3c0-0.7,0-1.3-0.1-1.8h1.1l0.1,1.1h0c0.3-0.6,1.1-1.3,2.2-1.3c0.9,0,2.4,0.6,2.4,2.9v4h-1.2v-3.9
		c0-1.1-0.4-2-1.6-2c-0.8,0-1.4,0.6-1.7,1.3c-0.1,0.2-0.1,0.4-0.1,0.6v4.1H202V104.3z"/>
	<path class="st26" d="M214.2,100.5c0,0.4-0.3,0.8-0.8,0.8c-0.4,0-0.7-0.3-0.7-0.8c0-0.4,0.3-0.8,0.8-0.8
		C213.9,99.8,214.2,100.1,214.2,100.5z M212.8,109.2v-6.8h1.2v6.8H212.8z"/>
	<path class="st26" d="M215.9,108c0.4,0.2,1,0.5,1.6,0.5c0.9,0,1.3-0.4,1.3-1c0-0.6-0.3-0.9-1.3-1.2c-1.2-0.4-1.8-1.1-1.8-1.9
		c0-1.1,0.9-2,2.3-2c0.7,0,1.3,0.2,1.7,0.4l-0.3,0.9c-0.3-0.2-0.8-0.4-1.4-0.4c-0.7,0-1.1,0.4-1.1,0.9c0,0.6,0.4,0.8,1.3,1.1
		c1.2,0.4,1.8,1,1.8,2c0,1.2-0.9,2-2.5,2c-0.7,0-1.4-0.2-1.9-0.5L215.9,108z"/>
	<path class="st26" d="M228.3,109.2l-0.1-0.9h0c-0.4,0.5-1.1,1-2.1,1c-1.4,0-2.1-1-2.1-1.9c0-1.6,1.5-2.5,4.1-2.5v-0.1
		c0-0.6-0.2-1.6-1.5-1.6c-0.6,0-1.3,0.2-1.8,0.5l-0.3-0.8c0.6-0.4,1.4-0.6,2.2-0.6c2.1,0,2.6,1.4,2.6,2.8v2.5c0,0.6,0,1.2,0.1,1.6
		H228.3z M228.1,105.8c-1.3,0-2.9,0.2-2.9,1.5c0,0.8,0.5,1.2,1.2,1.2c0.9,0,1.4-0.6,1.6-1.1c0-0.1,0.1-0.3,0.1-0.4V105.8z"/>
	<path class="st26" d="M234.2,107.7c0.5,0.3,1.3,0.6,2.2,0.6c1.2,0,2-0.7,2-1.6c0-0.9-0.5-1.4-1.8-1.9c-1.5-0.5-2.5-1.3-2.5-2.7
		c0-1.5,1.2-2.6,3.1-2.6c1,0,1.7,0.2,2.1,0.5l-0.3,1c-0.3-0.2-0.9-0.4-1.8-0.4c-1.3,0-1.8,0.8-1.8,1.4c0,0.9,0.6,1.3,1.9,1.8
		c1.6,0.6,2.4,1.4,2.4,2.8c0,1.5-1.1,2.7-3.3,2.7c-0.9,0-1.9-0.3-2.4-0.6L234.2,107.7z"/>
	<path class="st26" d="M245,109.2l-0.1-0.9h0c-0.4,0.5-1.1,1-2.1,1c-1.4,0-2.1-1-2.1-1.9c0-1.6,1.5-2.5,4.1-2.5v-0.1
		c0-0.6-0.2-1.6-1.5-1.6c-0.6,0-1.3,0.2-1.8,0.5l-0.3-0.8c0.6-0.4,1.4-0.6,2.2-0.6c2.1,0,2.6,1.4,2.6,2.8v2.5c0,0.6,0,1.2,0.1,1.6
		H245z M244.8,105.8c-1.3,0-2.9,0.2-2.9,1.5c0,0.8,0.5,1.2,1.2,1.2c0.9,0,1.4-0.6,1.6-1.1c0-0.1,0.1-0.3,0.1-0.4V105.8z"/>
	<path class="st26" d="M248,99.3h1.2v9.9H248V99.3z"/>
	<path class="st26" d="M252.8,100.5v1.9h1.8v0.9h-1.8v3.7c0,0.8,0.2,1.3,0.9,1.3c0.3,0,0.6,0,0.7-0.1l0.1,0.9
		c-0.2,0.1-0.6,0.2-1.1,0.2c-0.6,0-1-0.2-1.3-0.5c-0.4-0.4-0.5-1-0.5-1.8v-3.7h-1.1v-0.9h1.1v-1.6L252.8,100.5z"/>
	<path class="st26" d="M258.9,99.8h1.2v8.4h4v1h-5.3V99.8z"/>
	<path class="st26" d="M269.2,109.2l-0.1-0.9h0c-0.4,0.5-1.1,1-2.1,1c-1.4,0-2.1-1-2.1-1.9c0-1.6,1.5-2.5,4.1-2.5v-0.1
		c0-0.6-0.2-1.6-1.5-1.6c-0.6,0-1.3,0.2-1.8,0.5l-0.3-0.8c0.6-0.4,1.4-0.6,2.2-0.6c2.1,0,2.6,1.4,2.6,2.8v2.5c0,0.6,0,1.2,0.1,1.6
		H269.2z M269.1,105.8c-1.3,0-2.9,0.2-2.9,1.5c0,0.8,0.5,1.2,1.2,1.2c0.9,0,1.4-0.6,1.6-1.1c0-0.1,0.1-0.3,0.1-0.4V105.8z"/>
	<path class="st26" d="M273.5,105.6L273.5,105.6c0.2-0.2,0.4-0.5,0.6-0.8l2-2.3h1.5l-2.6,2.8l3,4h-1.5l-2.3-3.2l-0.6,0.7v2.5h-1.2
		v-9.9h1.2V105.6z"/>
	<path class="st26" d="M279.5,106.1c0,1.7,1.1,2.4,2.3,2.4c0.9,0,1.4-0.2,1.9-0.4l0.2,0.9c-0.4,0.2-1.2,0.4-2.3,0.4
		c-2.1,0-3.3-1.4-3.3-3.4s1.2-3.7,3.2-3.7c2.2,0,2.8,1.9,2.8,3.2c0,0.3,0,0.4,0,0.6H279.5z M283.1,105.2c0-0.8-0.3-2-1.7-2
		c-1.2,0-1.8,1.1-1.9,2H283.1z"/>
	<path class="st26" d="M295.4,108.9c-0.4,0.2-1.3,0.4-2.5,0.4c-2.7,0-4.7-1.7-4.7-4.8c0-3,2-5,4.9-5c1.2,0,1.9,0.3,2.2,0.4l-0.3,1
		c-0.5-0.2-1.1-0.4-1.9-0.4c-2.2,0-3.7,1.4-3.7,3.9c0,2.3,1.3,3.8,3.6,3.8c0.7,0,1.5-0.2,2-0.4L295.4,108.9z"/>
	<path class="st26" d="M298.2,100.5c0,0.4-0.3,0.8-0.8,0.8c-0.4,0-0.7-0.3-0.7-0.8c0-0.4,0.3-0.8,0.8-0.8
		C297.9,99.8,298.2,100.1,298.2,100.5z M296.9,109.2v-6.8h1.2v6.8H296.9z"/>
	<path class="st26" d="M301.6,100.5v1.9h1.8v0.9h-1.8v3.7c0,0.8,0.2,1.3,0.9,1.3c0.3,0,0.6,0,0.7-0.1l0.1,0.9
		c-0.2,0.1-0.6,0.2-1.1,0.2c-0.6,0-1-0.2-1.3-0.5c-0.4-0.4-0.5-1-0.5-1.8v-3.7h-1.1v-0.9h1.1v-1.6L301.6,100.5z"/>
	<path class="st26" d="M305.4,102.4l1.5,4c0.2,0.4,0.3,1,0.4,1.4h0c0.1-0.4,0.3-0.9,0.4-1.4l1.3-4h1.3l-1.8,4.8
		c-0.9,2.3-1.5,3.5-2.3,4.2c-0.6,0.5-1.2,0.7-1.5,0.8l-0.3-1c0.3-0.1,0.7-0.3,1.1-0.6c0.3-0.3,0.8-0.7,1-1.4
		c0.1-0.1,0.1-0.2,0.1-0.3c0-0.1,0-0.2-0.1-0.3l-2.5-6.2H305.4z"/>
	<path class="st26" d="M314.4,109.2c0-0.5,0.1-1.1,0.1-1.8v-8.2h1.2v4.3h0c0.4-0.8,1.2-1.2,2.3-1.2c1.7,0,2.9,1.4,2.9,3.5
		c0,2.4-1.5,3.6-3,3.6c-1,0-1.8-0.4-2.3-1.3h0l-0.1,1.1H314.4z M315.7,106.5c0,0.2,0,0.3,0.1,0.4c0.2,0.9,1,1.4,1.8,1.4
		c1.3,0,2.1-1.1,2.1-2.6c0-1.4-0.7-2.5-2-2.5c-0.8,0-1.6,0.6-1.9,1.5c0,0.1-0.1,0.3-0.1,0.5V106.5z"/>
	<path class="st26" d="M326.2,109.2l-0.1-0.9h0c-0.4,0.5-1.1,1-2.1,1c-1.4,0-2.1-1-2.1-1.9c0-1.6,1.5-2.5,4.1-2.5v-0.1
		c0-0.6-0.2-1.6-1.5-1.6c-0.6,0-1.3,0.2-1.8,0.5l-0.3-0.8c0.6-0.4,1.4-0.6,2.2-0.6c2.1,0,2.6,1.4,2.6,2.8v2.5c0,0.6,0,1.2,0.1,1.6
		H326.2z M326,105.8c-1.3,0-2.9,0.2-2.9,1.5c0,0.8,0.5,1.2,1.2,1.2c0.9,0,1.4-0.6,1.6-1.1c0-0.1,0.1-0.3,0.1-0.4V105.8z"/>
	<path class="st26" d="M329,108c0.4,0.2,1,0.5,1.6,0.5c0.9,0,1.3-0.4,1.3-1c0-0.6-0.3-0.9-1.3-1.2c-1.2-0.4-1.8-1.1-1.8-1.9
		c0-1.1,0.9-2,2.3-2c0.7,0,1.3,0.2,1.7,0.4l-0.3,0.9c-0.3-0.2-0.8-0.4-1.4-0.4c-0.7,0-1.1,0.4-1.1,0.9c0,0.6,0.4,0.8,1.3,1.1
		c1.2,0.4,1.8,1,1.8,2c0,1.2-0.9,2-2.5,2c-0.7,0-1.4-0.2-1.9-0.5L329,108z"/>
	<path class="st26" d="M335.4,106.1c0,1.7,1.1,2.4,2.3,2.4c0.9,0,1.4-0.2,1.9-0.4l0.2,0.9c-0.4,0.2-1.2,0.4-2.3,0.4
		c-2.1,0-3.3-1.4-3.3-3.4s1.2-3.7,3.2-3.7c2.2,0,2.8,1.9,2.8,3.2c0,0.3,0,0.4,0,0.6H335.4z M339,105.2c0-0.8-0.3-2-1.7-2
		c-1.2,0-1.8,1.1-1.9,2H339z"/>
	<path class="st26" d="M347.6,99.3v8.2c0,0.6,0,1.3,0.1,1.8h-1.1l-0.1-1.2h0c-0.4,0.8-1.2,1.3-2.3,1.3c-1.6,0-2.9-1.4-2.9-3.4
		c0-2.3,1.4-3.6,3-3.6c1,0,1.7,0.5,2,1h0v-4H347.6z M346.4,105.2c0-0.2,0-0.4-0.1-0.5c-0.2-0.8-0.9-1.4-1.8-1.4c-1.3,0-2,1.1-2,2.6
		c0,1.4,0.7,2.5,2,2.5c0.8,0,1.6-0.5,1.8-1.5c0-0.2,0.1-0.3,0.1-0.5V105.2z"/>
	<path class="st26" d="M353.3,106.1c0,1.7,1.1,2.4,2.3,2.4c0.9,0,1.4-0.2,1.9-0.4l0.2,0.9c-0.4,0.2-1.2,0.4-2.3,0.4
		c-2.1,0-3.3-1.4-3.3-3.4s1.2-3.7,3.2-3.7c2.2,0,2.8,1.9,2.8,3.2c0,0.3,0,0.4,0,0.6H353.3z M356.9,105.2c0-0.8-0.3-2-1.7-2
		c-1.2,0-1.8,1.1-1.9,2H356.9z"/>
	<path class="st26" d="M359.6,104.3c0-0.7,0-1.3-0.1-1.8h1.1l0.1,1.1h0c0.4-0.6,1-1.2,2.1-1.2c0.9,0,1.6,0.6,1.9,1.4h0
		c0.2-0.4,0.5-0.7,0.8-0.9c0.4-0.3,0.9-0.5,1.5-0.5c0.9,0,2.2,0.6,2.2,2.9v4h-1.2v-3.8c0-1.3-0.5-2.1-1.5-2.1
		c-0.7,0-1.2,0.5-1.5,1.1c-0.1,0.2-0.1,0.4-0.1,0.6v4.2h-1.2v-4.1c0-1.1-0.5-1.9-1.4-1.9c-0.8,0-1.3,0.6-1.5,1.2
		c-0.1,0.2-0.1,0.4-0.1,0.6v4.1h-1.2V104.3z"/>
	<path class="st26" d="M377.4,105.8c0,2.5-1.7,3.6-3.4,3.6c-1.8,0-3.2-1.3-3.2-3.5c0-2.3,1.5-3.6,3.4-3.6
		C376.1,102.3,377.4,103.7,377.4,105.8z M372,105.8c0,1.5,0.9,2.6,2.1,2.6c1.2,0,2.1-1.1,2.1-2.6c0-1.1-0.6-2.6-2-2.6
		S372,104.6,372,105.8z"/>
	<path class="st26" d="M382,105v0.9h-3.5V105H382z"/>
	<path class="st26" d="M383.5,104.7c0-0.9,0-1.6-0.1-2.2h1.1l0.1,1.2h0c0.5-0.8,1.3-1.3,2.4-1.3c1.6,0,2.9,1.4,2.9,3.4
		c0,2.4-1.5,3.6-3.1,3.6c-0.9,0-1.7-0.4-2.1-1.1h0v3.7h-1.2V104.7z M384.7,106.5c0,0.2,0,0.4,0.1,0.5c0.2,0.9,1,1.4,1.8,1.4
		c1.3,0,2.1-1.1,2.1-2.6c0-1.4-0.7-2.5-2-2.5c-0.8,0-1.6,0.6-1.9,1.5c0,0.2-0.1,0.3-0.1,0.5V106.5z"/>
	<path class="st26" d="M397.6,105.8c0,2.5-1.7,3.6-3.4,3.6c-1.8,0-3.2-1.3-3.2-3.5c0-2.3,1.5-3.6,3.4-3.6
		C396.3,102.3,397.6,103.7,397.6,105.8z M392.2,105.8c0,1.5,0.9,2.6,2.1,2.6c1.2,0,2.1-1.1,2.1-2.6c0-1.1-0.6-2.6-2-2.6
		S392.2,104.6,392.2,105.8z"/>
	<path class="st26" d="M399.1,104.7c0-0.9,0-1.6-0.1-2.2h1.1l0.1,1.2h0c0.5-0.8,1.3-1.3,2.4-1.3c1.6,0,2.9,1.4,2.9,3.4
		c0,2.4-1.5,3.6-3.1,3.6c-0.9,0-1.7-0.4-2.1-1.1h0v3.7h-1.2V104.7z M400.4,106.5c0,0.2,0,0.4,0.1,0.5c0.2,0.9,1,1.4,1.8,1.4
		c1.3,0,2.1-1.1,2.1-2.6c0-1.4-0.7-2.5-2-2.5c-0.8,0-1.6,0.6-1.9,1.5c0,0.2-0.1,0.3-0.1,0.5V106.5z"/>
	<path class="st26" d="M413.8,109.2l-0.1-0.9h0c-0.4,0.5-1.1,1-2.1,1c-1.4,0-2.1-1-2.1-1.9c0-1.6,1.5-2.5,4.1-2.5v-0.1
		c0-0.6-0.2-1.6-1.5-1.6c-0.6,0-1.3,0.2-1.8,0.5l-0.3-0.8c0.6-0.4,1.4-0.6,2.2-0.6c2.1,0,2.6,1.4,2.6,2.8v2.5c0,0.6,0,1.2,0.1,1.6
		H413.8z M413.6,105.8c-1.3,0-2.9,0.2-2.9,1.5c0,0.8,0.5,1.2,1.2,1.2c0.9,0,1.4-0.6,1.6-1.1c0-0.1,0.1-0.3,0.1-0.4V105.8z"/>
	<path class="st26" d="M421.7,109c-0.3,0.2-1,0.4-1.9,0.4c-2,0-3.4-1.4-3.4-3.5c0-2.1,1.4-3.6,3.6-3.6c0.7,0,1.4,0.2,1.7,0.4l-0.3,1
		c-0.3-0.2-0.8-0.3-1.4-0.3c-1.6,0-2.4,1.1-2.4,2.6c0,1.6,1,2.5,2.4,2.5c0.7,0,1.2-0.2,1.5-0.3L421.7,109z"/>
	<path class="st26" d="M429.1,105.8c0,2.5-1.7,3.6-3.4,3.6c-1.8,0-3.2-1.3-3.2-3.5c0-2.3,1.5-3.6,3.4-3.6
		C427.8,102.3,429.1,103.7,429.1,105.8z M423.8,105.8c0,1.5,0.9,2.6,2.1,2.6c1.2,0,2.1-1.1,2.1-2.6c0-1.1-0.6-2.6-2-2.6
		S423.8,104.6,423.8,105.8z"/>
	<path class="st26" d="M436.4,107.4c0,0.7,0,1.3,0.1,1.8h-1.1l-0.1-1.1h0c-0.3,0.5-1,1.3-2.2,1.3c-1.1,0-2.3-0.6-2.3-3v-4h1.2v3.8
		c0,1.3,0.4,2.2,1.5,2.2c0.8,0,1.4-0.6,1.6-1.1c0.1-0.2,0.1-0.4,0.1-0.6v-4.2h1.2V107.4z"/>
	<path class="st26" d="M438.2,108c0.4,0.2,1,0.5,1.6,0.5c0.9,0,1.3-0.4,1.3-1c0-0.6-0.3-0.9-1.3-1.2c-1.2-0.4-1.8-1.1-1.8-1.9
		c0-1.1,0.9-2,2.3-2c0.7,0,1.3,0.2,1.7,0.4l-0.3,0.9c-0.3-0.2-0.8-0.4-1.4-0.4c-0.7,0-1.1,0.4-1.1,0.9c0,0.6,0.4,0.8,1.3,1.1
		c1.2,0.4,1.8,1,1.8,2c0,1.2-0.9,2-2.5,2c-0.7,0-1.4-0.2-1.9-0.5L438.2,108z"/>
	<path class="st26" d="M445.4,100.5v1.9h1.8v0.9h-1.8v3.7c0,0.8,0.2,1.3,0.9,1.3c0.3,0,0.6,0,0.7-0.1l0.1,0.9
		c-0.2,0.1-0.6,0.2-1.1,0.2c-0.6,0-1-0.2-1.3-0.5c-0.4-0.4-0.5-1-0.5-1.8v-3.7h-1.1v-0.9h1.1v-1.6L445.4,100.5z"/>
	<path class="st26" d="M450,100.5c0,0.4-0.3,0.8-0.8,0.8c-0.4,0-0.7-0.3-0.7-0.8c0-0.4,0.3-0.8,0.8-0.8
		C449.7,99.8,450,100.1,450,100.5z M448.6,109.2v-6.8h1.2v6.8H448.6z"/>
	<path class="st26" d="M456.7,109c-0.3,0.2-1,0.4-1.9,0.4c-2,0-3.4-1.4-3.4-3.5c0-2.1,1.4-3.6,3.6-3.6c0.7,0,1.4,0.2,1.7,0.4l-0.3,1
		c-0.3-0.2-0.8-0.3-1.4-0.3c-1.6,0-2.4,1.1-2.4,2.6c0,1.6,1,2.5,2.4,2.5c0.7,0,1.2-0.2,1.5-0.3L456.7,109z"/>
	<path class="st26" d="M171.4,116.1v8.2c0,0.6,0,1.3,0.1,1.8h-1.1l-0.1-1.2h0c-0.4,0.8-1.2,1.3-2.3,1.3c-1.6,0-2.9-1.4-2.9-3.4
		c0-2.3,1.4-3.6,3-3.6c1,0,1.7,0.5,2,1h0v-4H171.4z M170.2,122c0-0.2,0-0.4-0.1-0.5c-0.2-0.8-0.9-1.4-1.8-1.4c-1.3,0-2,1.1-2,2.6
		c0,1.4,0.7,2.5,2,2.5c0.8,0,1.6-0.5,1.8-1.5c0-0.2,0.1-0.3,0.1-0.5V122z"/>
	<path class="st26" d="M179.1,124.2c0,0.7,0,1.3,0.1,1.8h-1.1l-0.1-1.1h0c-0.3,0.5-1,1.3-2.2,1.3c-1.1,0-2.3-0.6-2.3-3v-4h1.2v3.8
		c0,1.3,0.4,2.2,1.5,2.2c0.8,0,1.4-0.6,1.6-1.1c0.1-0.2,0.1-0.4,0.1-0.6v-4.2h1.2V124.2z"/>
	<path class="st26" d="M187.3,122.6c0,2.5-1.7,3.6-3.4,3.6c-1.8,0-3.2-1.3-3.2-3.5c0-2.3,1.5-3.6,3.4-3.6
		C186,119.1,187.3,120.5,187.3,122.6z M181.9,122.6c0,1.5,0.9,2.6,2.1,2.6c1.2,0,2.1-1.1,2.1-2.6c0-1.1-0.6-2.6-2-2.6
		S181.9,121.4,181.9,122.6z"/>
	<path class="st26" d="M191.8,121.1c0-0.7,0-1.3-0.1-1.8h1.1l0.1,1.1h0c0.4-0.6,1-1.2,2.1-1.2c0.9,0,1.6,0.6,1.9,1.4h0
		c0.2-0.4,0.5-0.7,0.8-0.9c0.4-0.3,0.9-0.5,1.5-0.5c0.9,0,2.2,0.6,2.2,2.9v4h-1.2v-3.8c0-1.3-0.5-2.1-1.5-2.1
		c-0.7,0-1.2,0.5-1.5,1.1c-0.1,0.2-0.1,0.4-0.1,0.6v4.2H196V122c0-1.1-0.5-1.9-1.4-1.9c-0.8,0-1.3,0.6-1.5,1.2
		c-0.1,0.2-0.1,0.4-0.1,0.6v4.1h-1.2V121.1z"/>
	<path class="st26" d="M207.2,126l-0.1-0.9h0c-0.4,0.5-1.1,1-2.1,1c-1.4,0-2.1-1-2.1-1.9c0-1.6,1.5-2.5,4.1-2.5v-0.1
		c0-0.6-0.2-1.6-1.5-1.6c-0.6,0-1.3,0.2-1.8,0.5l-0.3-0.8c0.6-0.4,1.4-0.6,2.2-0.6c2.1,0,2.6,1.4,2.6,2.8v2.5c0,0.6,0,1.2,0.1,1.6
		H207.2z M207,122.6c-1.3,0-2.9,0.2-2.9,1.5c0,0.8,0.5,1.2,1.2,1.2c0.9,0,1.4-0.6,1.6-1.1c0-0.1,0.1-0.3,0.1-0.4V122.6z"/>
	<path class="st26" d="M211.4,122.3L211.4,122.3c0.2-0.2,0.4-0.5,0.6-0.8l2-2.3h1.5l-2.6,2.8l3,4h-1.5l-2.3-3.2l-0.6,0.7v2.5h-1.2
		v-9.9h1.2V122.3z"/>
	<path class="st26" d="M218.4,117.3c0,0.4-0.3,0.8-0.8,0.8c-0.4,0-0.7-0.3-0.7-0.8c0-0.4,0.3-0.8,0.8-0.8
		C218.1,116.6,218.4,116.9,218.4,117.3z M217,126v-6.8h1.2v6.8H217z"/>
	<path class="st26" d="M220.3,121.1c0-0.7,0-1.3-0.1-1.8h1.1l0.1,1.1h0c0.3-0.6,1.1-1.3,2.2-1.3c0.9,0,2.4,0.6,2.4,2.9v4h-1.2v-3.9
		c0-1.1-0.4-2-1.6-2c-0.8,0-1.4,0.6-1.7,1.3c-0.1,0.2-0.1,0.4-0.1,0.6v4.1h-1.2V121.1z"/>
	<path class="st26" d="M233.9,119.2c0,0.5-0.1,1-0.1,1.9v3.9c0,1.6-0.3,2.5-1,3.1c-0.7,0.6-1.6,0.8-2.5,0.8c-0.8,0-1.7-0.2-2.3-0.6
		l0.3-0.9c0.4,0.3,1.1,0.5,2,0.5c1.3,0,2.2-0.7,2.2-2.4v-0.8h0c-0.4,0.6-1.1,1.1-2.2,1.1c-1.7,0-2.9-1.4-2.9-3.3
		c0-2.3,1.5-3.6,3.1-3.6c1.2,0,1.8,0.6,2.1,1.2h0l0.1-1H233.9z M232.6,121.9c0-0.2,0-0.4-0.1-0.6c-0.2-0.7-0.8-1.3-1.7-1.3
		c-1.2,0-2,1-2,2.6c0,1.3,0.7,2.4,2,2.4c0.8,0,1.4-0.5,1.7-1.3c0.1-0.2,0.1-0.4,0.1-0.7V121.9z"/>
	<path class="st26" d="M238.9,121.1c0-0.7,0-1.3-0.1-1.8h1.1l0.1,1.1h0c0.4-0.6,1-1.2,2.1-1.2c0.9,0,1.6,0.6,1.9,1.4h0
		c0.2-0.4,0.5-0.7,0.8-0.9c0.4-0.3,0.9-0.5,1.5-0.5c0.9,0,2.2,0.6,2.2,2.9v4h-1.2v-3.8c0-1.3-0.5-2.1-1.5-2.1
		c-0.7,0-1.2,0.5-1.5,1.1c-0.1,0.2-0.1,0.4-0.1,0.6v4.2h-1.2V122c0-1.1-0.5-1.9-1.4-1.9c-0.8,0-1.3,0.6-1.5,1.2
		c-0.1,0.2-0.1,0.4-0.1,0.6v4.1h-1.2V121.1z"/>
	<path class="st26" d="M256.2,124.2c0,0.7,0,1.3,0.1,1.8h-1.1l-0.1-1.1h0c-0.3,0.5-1,1.3-2.2,1.3c-1.1,0-2.3-0.6-2.3-3v-4h1.2v3.8
		c0,1.3,0.4,2.2,1.5,2.2c0.8,0,1.4-0.6,1.6-1.1c0.1-0.2,0.1-0.4,0.1-0.6v-4.2h1.2V124.2z"/>
	<path class="st26" d="M258.1,124.8c0.4,0.2,1,0.5,1.6,0.5c0.9,0,1.3-0.4,1.3-1c0-0.6-0.3-0.9-1.3-1.2c-1.2-0.4-1.8-1.1-1.8-1.9
		c0-1.1,0.9-2,2.3-2c0.7,0,1.3,0.2,1.7,0.4l-0.3,0.9c-0.3-0.2-0.8-0.4-1.4-0.4c-0.7,0-1.1,0.4-1.1,0.9c0,0.6,0.4,0.8,1.3,1.1
		c1.2,0.4,1.8,1,1.8,2c0,1.2-0.9,2-2.5,2c-0.7,0-1.4-0.2-1.9-0.5L258.1,124.8z"/>
	<path class="st26" d="M265.2,117.3c0,0.4-0.3,0.8-0.8,0.8c-0.4,0-0.7-0.3-0.7-0.8c0-0.4,0.3-0.8,0.8-0.8
		C264.9,116.6,265.2,116.9,265.2,117.3z M263.8,126v-6.8h1.2v6.8H263.8z"/>
	<path class="st26" d="M271.9,125.8c-0.3,0.2-1,0.4-1.9,0.4c-2,0-3.4-1.4-3.4-3.5c0-2.1,1.4-3.6,3.6-3.6c0.7,0,1.4,0.2,1.7,0.4
		l-0.3,1c-0.3-0.2-0.8-0.3-1.4-0.3c-1.6,0-2.4,1.1-2.4,2.6c0,1.6,1,2.5,2.4,2.5c0.7,0,1.2-0.2,1.5-0.3L271.9,125.8z"/>
	<path class="st26" d="M277.8,117.3v1.9h1.8v0.9h-1.8v3.7c0,0.8,0.2,1.3,0.9,1.3c0.3,0,0.6,0,0.7-0.1l0.1,0.9
		c-0.2,0.1-0.6,0.2-1.1,0.2c-0.6,0-1-0.2-1.3-0.5c-0.4-0.4-0.5-1-0.5-1.8v-3.7h-1.1v-0.9h1.1v-1.6L277.8,117.3z"/>
	<path class="st26" d="M287,122.6c0,2.5-1.7,3.6-3.4,3.6c-1.8,0-3.2-1.3-3.2-3.5c0-2.3,1.5-3.6,3.4-3.6
		C285.7,119.1,287,120.5,287,122.6z M281.6,122.6c0,1.5,0.9,2.6,2.1,2.6c1.2,0,2.1-1.1,2.1-2.6c0-1.1-0.6-2.6-2-2.6
		S281.6,121.4,281.6,122.6z"/>
	<path class="st26" d="M291.5,121.5c0-0.9,0-1.6-0.1-2.2h1.1l0.1,1.2h0c0.5-0.8,1.3-1.3,2.4-1.3c1.6,0,2.9,1.4,2.9,3.4
		c0,2.4-1.5,3.6-3.1,3.6c-0.9,0-1.7-0.4-2.1-1.1h0v3.7h-1.2V121.5z M292.7,123.3c0,0.2,0,0.4,0.1,0.5c0.2,0.9,1,1.4,1.8,1.4
		c1.3,0,2.1-1.1,2.1-2.6c0-1.4-0.7-2.5-2-2.5c-0.8,0-1.6,0.6-1.9,1.5c0,0.2-0.1,0.3-0.1,0.5V123.3z"/>
	<path class="st26" d="M305.2,124.2c0,0.7,0,1.3,0.1,1.8h-1.1l-0.1-1.1h0c-0.3,0.5-1,1.3-2.2,1.3c-1.1,0-2.3-0.6-2.3-3v-4h1.2v3.8
		c0,1.3,0.4,2.2,1.5,2.2c0.8,0,1.4-0.6,1.6-1.1c0.1-0.2,0.1-0.4,0.1-0.6v-4.2h1.2V124.2z"/>
	<path class="st26" d="M307.2,116.1h1.2v9.9h-1.2V116.1z"/>
	<path class="st26" d="M310.5,116.1h1.2v9.9h-1.2V116.1z"/>
	<path class="st26" d="M320.5,126l-0.1-0.9h0c-0.4,0.5-1.1,1-2.1,1c-1.4,0-2.1-1-2.1-1.9c0-1.6,1.5-2.5,4.1-2.5v-0.1
		c0-0.6-0.2-1.6-1.5-1.6c-0.6,0-1.3,0.2-1.8,0.5l-0.3-0.8c0.6-0.4,1.4-0.6,2.2-0.6c2.1,0,2.6,1.4,2.6,2.8v2.5c0,0.6,0,1.2,0.1,1.6
		H320.5z M320.3,122.6c-1.3,0-2.9,0.2-2.9,1.5c0,0.8,0.5,1.2,1.2,1.2c0.9,0,1.4-0.6,1.6-1.1c0-0.1,0.1-0.3,0.1-0.4V122.6z"/>
	<path class="st26" d="M324.9,117.3v1.9h1.8v0.9h-1.8v3.7c0,0.8,0.2,1.3,0.9,1.3c0.3,0,0.6,0,0.7-0.1l0.1,0.9
		c-0.2,0.1-0.6,0.2-1.1,0.2c-0.6,0-1-0.2-1.3-0.5c-0.4-0.4-0.5-1-0.5-1.8v-3.7h-1.1v-0.9h1.1v-1.6L324.9,117.3z"/>
	<path class="st26" d="M331.5,119.2l1.5,4c0.2,0.4,0.3,1,0.4,1.4h0c0.1-0.4,0.3-0.9,0.4-1.4l1.3-4h1.3l-1.8,4.8
		c-0.9,2.3-1.5,3.5-2.3,4.2c-0.6,0.5-1.2,0.7-1.5,0.8l-0.3-1c0.3-0.1,0.7-0.3,1.1-0.6c0.3-0.3,0.8-0.7,1-1.4
		c0.1-0.1,0.1-0.2,0.1-0.3c0-0.1,0-0.2-0.1-0.3l-2.5-6.2H331.5z"/>
	<path class="st26" d="M343.7,122.6c0,2.5-1.7,3.6-3.4,3.6c-1.8,0-3.2-1.3-3.2-3.5c0-2.3,1.5-3.6,3.4-3.6
		C342.3,119.1,343.7,120.5,343.7,122.6z M338.3,122.6c0,1.5,0.9,2.6,2.1,2.6c1.2,0,2.1-1.1,2.1-2.6c0-1.1-0.6-2.6-2-2.6
		S338.3,121.4,338.3,122.6z"/>
	<path class="st26" d="M350.9,124.2c0,0.7,0,1.3,0.1,1.8h-1.1l-0.1-1.1h0c-0.3,0.5-1,1.3-2.2,1.3c-1.1,0-2.3-0.6-2.3-3v-4h1.2v3.8
		c0,1.3,0.4,2.2,1.5,2.2c0.8,0,1.4-0.6,1.6-1.1c0.1-0.2,0.1-0.4,0.1-0.6v-4.2h1.2V124.2z"/>
	<path class="st26" d="M352.9,121.4c0-0.8,0-1.5-0.1-2.1h1.1l0,1.3h0.1c0.3-0.9,1-1.5,1.9-1.5c0.1,0,0.2,0,0.3,0v1.2
		c-0.1,0-0.3,0-0.4,0c-0.9,0-1.5,0.7-1.7,1.6c0,0.2-0.1,0.4-0.1,0.6v3.6h-1.2V121.4z"/>
	<path class="st26" d="M360.5,116.1h1.2v4.2h0c0.2-0.4,0.5-0.7,0.9-0.9c0.4-0.2,0.8-0.4,1.3-0.4c0.9,0,2.4,0.6,2.4,2.9v4H365v-3.9
		c0-1.1-0.4-2-1.6-2c-0.8,0-1.4,0.6-1.7,1.2c-0.1,0.2-0.1,0.4-0.1,0.6v4.1h-1.2V116.1z"/>
	<path class="st26" d="M368.9,122.9c0,1.7,1.1,2.4,2.3,2.4c0.9,0,1.4-0.2,1.9-0.4l0.2,0.9c-0.4,0.2-1.2,0.4-2.3,0.4
		c-2.1,0-3.3-1.4-3.3-3.4s1.2-3.7,3.2-3.7c2.2,0,2.8,1.9,2.8,3.2c0,0.3,0,0.4,0,0.6H368.9z M372.5,122c0-0.8-0.3-2-1.7-2
		c-1.2,0-1.8,1.1-1.9,2H372.5z"/>
	<path class="st26" d="M379,126l-0.1-0.9h0c-0.4,0.5-1.1,1-2.1,1c-1.4,0-2.1-1-2.1-1.9c0-1.6,1.5-2.5,4.1-2.5v-0.1
		c0-0.6-0.2-1.6-1.5-1.6c-0.6,0-1.3,0.2-1.8,0.5l-0.3-0.8c0.6-0.4,1.4-0.6,2.2-0.6c2.1,0,2.6,1.4,2.6,2.8v2.5c0,0.6,0,1.2,0.1,1.6
		H379z M378.8,122.6c-1.3,0-2.9,0.2-2.9,1.5c0,0.8,0.5,1.2,1.2,1.2c0.9,0,1.4-0.6,1.6-1.1c0-0.1,0.1-0.3,0.1-0.4V122.6z"/>
	<path class="st26" d="M382,121.4c0-0.8,0-1.5-0.1-2.1h1.1l0,1.3h0.1c0.3-0.9,1-1.5,1.9-1.5c0.1,0,0.2,0,0.3,0v1.2
		c-0.1,0-0.3,0-0.4,0c-0.9,0-1.5,0.7-1.7,1.6c0,0.2-0.1,0.4-0.1,0.6v3.6H382V121.4z"/>
	<path class="st26" d="M388.4,117.3v1.9h1.8v0.9h-1.8v3.7c0,0.8,0.2,1.3,0.9,1.3c0.3,0,0.6,0,0.7-0.1l0.1,0.9
		c-0.2,0.1-0.6,0.2-1.1,0.2c-0.6,0-1-0.2-1.3-0.5c-0.4-0.4-0.5-1-0.5-1.8v-3.7h-1.1v-0.9h1.1v-1.6L388.4,117.3z"/>
	<path class="st26" d="M391.4,124.8c0.4,0.2,1,0.5,1.6,0.5c0.9,0,1.3-0.4,1.3-1c0-0.6-0.3-0.9-1.3-1.2c-1.2-0.4-1.8-1.1-1.8-1.9
		c0-1.1,0.9-2,2.3-2c0.7,0,1.3,0.2,1.7,0.4l-0.3,0.9c-0.3-0.2-0.8-0.4-1.4-0.4c-0.7,0-1.1,0.4-1.1,0.9c0,0.6,0.4,0.8,1.3,1.1
		c1.2,0.4,1.8,1,1.8,2c0,1.2-0.9,2-2.5,2c-0.7,0-1.4-0.2-1.9-0.5L391.4,124.8z"/>
	<path class="st26" d="M398.6,117.3v1.9h1.8v0.9h-1.8v3.7c0,0.8,0.2,1.3,0.9,1.3c0.3,0,0.6,0,0.7-0.1l0.1,0.9
		c-0.2,0.1-0.6,0.2-1.1,0.2c-0.6,0-1-0.2-1.3-0.5c-0.4-0.4-0.5-1-0.5-1.8v-3.7h-1.1v-0.9h1.1v-1.6L398.6,117.3z"/>
	<path class="st26" d="M401.7,121.4c0-0.8,0-1.5-0.1-2.1h1.1l0,1.3h0.1c0.3-0.9,1-1.5,1.9-1.5c0.1,0,0.2,0,0.3,0v1.2
		c-0.1,0-0.3,0-0.4,0c-0.9,0-1.5,0.7-1.7,1.6c0,0.2-0.1,0.4-0.1,0.6v3.6h-1.2V121.4z"/>
	<path class="st26" d="M407.7,117.3c0,0.4-0.3,0.8-0.8,0.8c-0.4,0-0.7-0.3-0.7-0.8c0-0.4,0.3-0.8,0.8-0.8
		C407.4,116.6,407.7,116.9,407.7,117.3z M406.4,126v-6.8h1.2v6.8H406.4z"/>
	<path class="st26" d="M409.6,121.1c0-0.7,0-1.3-0.1-1.8h1.1l0.1,1.1h0c0.3-0.6,1.1-1.3,2.2-1.3c0.9,0,2.4,0.6,2.4,2.9v4h-1.2v-3.9
		c0-1.1-0.4-2-1.6-2c-0.8,0-1.4,0.6-1.7,1.3c-0.1,0.2-0.1,0.4-0.1,0.6v4.1h-1.2V121.1z"/>
	<path class="st26" d="M423.2,119.2c0,0.5-0.1,1-0.1,1.9v3.9c0,1.6-0.3,2.5-1,3.1c-0.7,0.6-1.6,0.8-2.5,0.8c-0.8,0-1.7-0.2-2.3-0.6
		l0.3-0.9c0.4,0.3,1.1,0.5,2,0.5c1.3,0,2.2-0.7,2.2-2.4v-0.8h0c-0.4,0.6-1.1,1.1-2.2,1.1c-1.7,0-2.9-1.4-2.9-3.3
		c0-2.3,1.5-3.6,3.1-3.6c1.2,0,1.8,0.6,2.1,1.2h0l0.1-1H423.2z M422,121.9c0-0.2,0-0.4-0.1-0.6c-0.2-0.7-0.8-1.3-1.7-1.3
		c-1.2,0-2,1-2,2.6c0,1.3,0.7,2.4,2,2.4c0.8,0,1.4-0.5,1.7-1.3c0.1-0.2,0.1-0.4,0.1-0.7V121.9z"/>
	<path class="st26" d="M425.1,124.8c0.4,0.2,1,0.5,1.6,0.5c0.9,0,1.3-0.4,1.3-1c0-0.6-0.3-0.9-1.3-1.2c-1.2-0.4-1.8-1.1-1.8-1.9
		c0-1.1,0.9-2,2.3-2c0.7,0,1.3,0.2,1.7,0.4l-0.3,0.9c-0.3-0.2-0.8-0.4-1.4-0.4c-0.7,0-1.1,0.4-1.1,0.9c0,0.6,0.4,0.8,1.3,1.1
		c1.2,0.4,1.8,1,1.8,2c0,1.2-0.9,2-2.5,2c-0.7,0-1.4-0.2-1.9-0.5L425.1,124.8z"/>
	<path class="st26" d="M430.3,125.3c0-0.5,0.3-0.9,0.8-0.9c0.5,0,0.8,0.4,0.8,0.9c0,0.5-0.3,0.9-0.8,0.9
		C430.7,126.2,430.3,125.8,430.3,125.3z"/>
</g>
<g class="st30">
	<g>
		<path class="st0" d="M322.2,571.6c0.1,0.2,0.1,0.5,0,0.7c0,0.2,0,0.4,0,0.6c-0.1,0.5-0.2,0.9-0.3,1.1l-0.2,0.4
			c0,0.1,0,0.2-0.1,0.3v0.1v-0.2c0-0.1,0-0.1,0-0.2c0-0.1,0-0.2,0-0.3c0.1-0.3,0.2-0.8,0.3-1.6v-1c-0.1-0.5-0.2-0.9-0.4-1.1
			c-0.2-0.5-0.5-0.8-0.7-1c-0.1-0.2-0.3-0.3-0.5-0.5c-0.2-0.1-0.4-0.2-0.7-0.4c-0.8-0.4-1.8-0.7-2.9-0.8c-0.5-0.1-1-0.2-1.5-0.2
			c-0.5,0-1.1-0.1-1.6-0.1c-2.1-0.1-4.1-0.1-6,0c-1.1,0-2.1,0-3.1,0.1c-1,0.1-2.1,0.1-3.1,0.2l-6.1,0.6c-2,0.2-3.9,0.4-5.8,0.6
			c-1.9,0.2-3.8,0.4-5.8,0.7l-2.9,0.3l-1.4,0.2l-1.5,0.2c-0.9,0.1-1.9,0.2-2.8,0.3c-1,0.1-1.9,0.1-2.9,0.2c-1.2,0.1-2.3,0.1-3.5,0.1
			c-1.1,0-2.3-0.1-3.5-0.2c-0.6-0.1-1.2-0.1-1.8-0.1s-1.1-0.1-1.8-0.1c-0.6-0.1-1.1-0.2-1.7-0.3c-0.6-0.1-1.1-0.2-1.8-0.3
			c-1.6-0.4-3-0.8-4.1-1.2c-0.6-0.2-1.1-0.5-1.7-0.7c-0.6-0.2-1.1-0.5-1.6-0.8c-0.5-0.3-1-0.6-1.4-0.9c-0.5-0.3-0.9-0.7-1.4-1.1
			c-0.2-0.1-0.3-0.2-0.4-0.4c-0.1-0.1-0.1-0.1-0.2-0.1c-0.1,0-0.1-0.1-0.2-0.1l-0.4-0.4l-0.2-0.2l-0.2-0.2c-0.2-0.3-0.5-0.6-0.7-0.9
			c-0.2-0.3-0.5-0.6-0.7-0.9c-0.5-0.7-1-1.5-1.4-2.4c-0.1-0.2-0.2-0.5-0.3-0.8c-0.1-0.3-0.2-0.6-0.3-0.9c-0.2-0.6-0.4-1.3-0.6-2.1
			c-0.1-0.4-0.2-0.7-0.2-1.1c0-0.3,0-0.7-0.1-1c-0.1-0.3-0.1-0.6-0.1-0.9c0-0.3,0-0.5,0-0.7c0-0.5,0-0.9,0.1-1.2
			c0-0.3,0-0.6,0.1-0.7c-0.1-0.2-0.2-0.4-0.2-0.6c-3.3,8.7-3.6,14.1-0.8,16.4c0.2,0.1,0.4,0.3,0.6,0.5c0.3,0.4,0.3,0.7,0.1,0.9
			c-0.2,0.1-0.5,0.2-0.9,0.2c-0.4,0-0.9-0.1-1.5-0.3c-0.6-0.2-1.1-0.5-1.7-0.8c-0.6-0.4-1.1-0.8-1.5-1.4c-1-1.2-1.6-3.2-1.9-6
			c-0.2-2.8,0.2-6.1,1.5-10.1c-2-0.5-3.6-1.2-5-2.2c-1.3-1-2.3-1.8-2.8-2.5c-0.7-0.9-1.2-1.6-1.7-2.3c-0.4-0.6-0.7-1.2-0.8-1.7
			c-0.2-0.5-0.1-0.8,0.4-0.8c0.9-0.1,1.8,0.1,2.9,0.6c1.1,0.5,2,1.3,2.9,2.3c0.4,0.5,1.1,1.1,2,1.8c0.9,0.7,2,1.2,3.3,1.5
			c0.8-2.2,1.8-4.7,3.1-7.5c1.2-2.8,2.5-5.5,3.8-8.2c1.3-2.7,2.5-5.1,3.6-7.3c1.1-2.2,2-3.9,2.6-5c0.2-0.3,0.4-0.6,0.7-0.8
			c0.2-0.2,0.4-0.4,0.7-0.6c0.3-0.2,0.6-0.2,0.9-0.1c0.2,0.1,0.7,0.3,1.2,0.6c0.6,0.3,1.1,0.8,1.6,1.3c0.5,0.5,0.9,1.1,1.1,1.7
			c0.2,0.7,0.2,1.3-0.2,1.9c-0.4,0.6-1,1.7-2,3.5c-1,1.8-2,3.8-3.3,6.1c-1.2,2.3-2.5,4.7-3.7,7.3c-1.3,2.6-2.4,5-3.4,7.3
			c2.8-0.4,5.2-1.1,7.3-2.3c2.1-1.1,3.9-2.3,5.3-3.6c1.6-1.4,3-3,4.3-4.7c2.2-3,3.8-5.8,4.8-8.1c1-2.4,1.6-4.4,1.8-6.2
			c0.2-1.7,0.1-3.1-0.2-4.2c-0.3-1.1-0.7-1.8-1.1-2.1c-0.4-0.4-1.1-0.8-2.2-1.2c-1.1-0.4-2.5-0.7-4.2-0.8c-1.7-0.1-3.7,0-6,0.4
			c-2.3,0.4-4.7,1.1-7.4,2.3c-2.7,1.2-5,2.4-7.1,3.8c-2.1,1.3-3.8,2.7-5.2,4.1c-1.4,1.4-2.4,2.7-3.1,4c-0.7,1.3-0.9,2.5-0.6,3.6
			c0.1,0.7,0.5,1.3,1.3,1.6c0.7,0.3,1.4,0.6,2.2,0.7c0.9,0.1,1.9,0.1,3,0c0.2,0,0.4,0,0.7,0.1c0.5,0.1,0.8,0.2,1,0.4
			c0.2,0.2,0.6,0.6,1.1,1.2c0.5,0.6,0.8,1.2,0.8,1.7c0,0.6-0.3,0.9-1,1.2c-0.7,0.2-1.6,0.3-2.7,0.2c-0.6,0-1.3-0.1-2.2-0.2
			c-0.9-0.1-1.8-0.4-2.7-0.9c-0.9-0.5-1.8-1.1-2.7-1.9c-0.9-0.8-1.5-1.9-2-3.3c-0.5-1.4-0.5-2.9-0.1-4.5c0.4-1.6,1.1-3.2,2.2-4.8
			c1.1-1.6,2.4-3.2,4-4.7c1.6-1.5,3.5-2.9,5.5-4c2.1-1.2,4.3-2.2,6.7-3c2.4-0.8,4.7-1.4,7-1.8c2.3-0.3,4.5-0.4,6.6-0.2
			c2.1,0.2,3.9,0.8,5.5,1.6c1.5,0.9,2.9,1.9,4.1,3.2c1.2,1.3,2.1,2.8,2.7,4.5c0.6,1.7,0.9,3.6,0.7,5.8c-0.2,2.1-0.8,4.5-2,7.1
			c-1.3,2.9-3,5.5-5.1,8c-0.9,1.1-2,2.1-3.1,3.2c-1.1,1.1-2.5,2-3.9,3c-1.5,0.9-3.1,1.7-4.8,2.4c-1.7,0.7-3.6,1.2-5.7,1.6
			c0.7,2.9,1.7,5.2,2.8,7.1c1.1,1.9,2.4,3.4,3.6,4.6c1.3,1.1,2.6,2,3.9,2.6c1.3,0.6,2.5,0.9,3.6,1.1c1.1,0.2,2,0.3,2.6,0.2
			c0.7,0,1,0,1.1,0c0.1-0.1,0.3-0.1,0.6-0.1c0.2,0,0.5,0,0.7,0c0.2,0.1,0.3,0.2,0.4,0.4c0.1,0.2,0,0.5-0.2,0.9
			c-0.2,0.4-0.5,0.8-0.8,1c-0.6,0.6-1.6,1-3,1.2c-2.9,0.4-5.5,0-7.6-1c-2.2-1.1-4-2.5-5.6-4.2c-1.6-1.7-2.9-3.6-4-5.7
			c-1.1-2-1.9-3.9-2.5-5.5v0.7c0.1,0.3,0.1,0.8,0.1,1.4c0,0.1,0,0.1,0,0.2c0,0.1,0,0.2,0,0.3c0,0.1,0,0.2,0,0.3c0,0.1,0,0.1,0,0.2
			c0.1,0.7,0.2,1.5,0.5,2.3c0.1,0.4,0.2,0.7,0.4,1.1c0.1,0.3,0.2,0.7,0.4,1c0.1,0.3,0.3,0.6,0.4,1c0.2,0.3,0.4,0.7,0.6,1
			c0.1,0.2,0.2,0.4,0.3,0.5c0.1,0.2,0.2,0.4,0.4,0.5l0.3,0.6c0.1,0.1,0.2,0.1,0.2,0.2c0,0.1,0.1,0.2,0.2,0.3
			c0.6,0.6,1.1,1.2,1.8,1.8c0.6,0.5,1.3,1,2,1.5l0.6,0.3c0.2,0.1,0.4,0.2,0.6,0.4l0.3,0.1l0.3,0.2l0.6,0.3l0.6,0.2l0.3,0.2l0.3,0.1
			l0.7,0.3c0.1,0,0.3,0.1,0.6,0.2c2.9,1,5.9,1.6,9.2,1.8c0.8,0.1,1.6,0.2,2.4,0.2c0.8,0,1.6,0,2.4,0c0.8,0.1,1.6,0.1,2.4,0
			c0.8,0,1.6-0.1,2.4-0.1c1-0.1,2-0.1,2.9-0.2c1-0.1,2-0.2,3-0.3c1-0.1,2-0.2,2.9-0.4c1-0.1,2-0.2,3-0.4c2.3-0.2,4.6-0.5,6.8-0.7
			c2.3-0.2,4.5-0.4,6.8-0.6c1.3-0.1,2.6-0.2,4-0.3c1.3-0.1,2.7-0.1,4-0.2h4c0.7,0.1,1.3,0.1,2,0.1c0.7,0,1.3,0.1,2,0.2
			c0.5,0.1,0.9,0.1,1.1,0.2c0.2,0.1,0.5,0.1,0.8,0.2c0.2,0,0.3,0,0.4,0.1c0.2,0,0.3,0,0.5,0.1c0.1,0,0.1,0,0.2,0c0.1,0,0.2,0,0.3,0
			l0.6,0.3c0.1,0,0.1,0,0.1,0c0,0,0.1,0,0.2,0c0.1,0.1,0.1,0.1,0.2,0.1c0.1,0.1,0.1,0.1,0.1,0.1c0,0,0.1,0,0.1,0.1
			c0.2,0.1,0.5,0.3,1,0.7c0.1,0.1,0.2,0.2,0.2,0.3c0,0.1,0.1,0.2,0.2,0.3c0.1,0.1,0.2,0.2,0.2,0.3l0.2,0.4
			C322.1,570.6,322.2,571.1,322.2,571.6z"/>
		<path class="st0" d="M298.9,539.4c0.4,0.3,0.6,1,0.6,2.1s-0.6,2.9-1.7,5.5c-0.5,1.1-1.2,2.5-2,4.1c-0.8,1.6-1.8,3.3-2.7,4.9
			c-1,1.6-2,3.2-3.1,4.6c-1.1,1.4-2,2.4-2.9,2.9c-0.2,0.2-0.5,0.3-0.7,0.5c-0.2,0.1-0.6,0.2-0.9,0.3c-0.4,0.1-0.8,0.1-1.3,0
			c-0.6-0.1-1-0.3-1.4-0.6c-0.4-0.3-0.7-0.6-1-0.9c-0.2-0.4-0.5-0.8-0.7-1.3c-0.3-0.9-0.5-1.9-0.5-3c0-1.1,0-2.3,0.1-3.5
			s0.2-2.5,0.5-3.7c0.2-1.2,0.4-2.4,0.7-3.4c-1.2,2-2.4,3.6-3.3,4.8c-1,1.2-1.9,2.1-2.7,2.7c-0.8,0.6-1.5,1-2.1,1.2
			c-0.7,0.2-1.2,0.3-1.7,0.3c-0.6,0-1.2-0.1-1.7-0.4c-0.5-0.3-1-0.6-1.3-0.9c-0.4-0.4-0.8-0.8-1.2-1.4c-0.7-0.9-1.2-2.2-1.3-3.9
			c-0.1-1.6,0-3.3,0.3-5.1c0.3-1.8,0.8-3.5,1.4-5.2c0.6-1.7,1.3-3,2-4.1c0.7-1.1,1.4-2,2.2-3c0.8-0.9,1.7-1.7,2.7-2.4
			c1-0.7,2.2-1.1,3.4-1.4c1.3-0.3,2.7-0.4,4.3-0.3c1.1,0.1,2,0.3,2.8,0.7c0.7,0.3,1.4,0.7,1.9,1.2c0.5-1.1,1-2.1,1.5-2.9l0.1-0.1
			c0.1-0.1,0.2-0.2,0.4-0.3c0.3-0.1,0.8-0.2,1.3-0.3c0.6-0.1,1.3-0.1,2,0c0.9,0.2,1.5,0.7,1.8,1.4c0.3,0.7,0.3,1.3,0,1.9
			c-0.1,0.2-0.5,1-1.2,2.4c-0.7,1.4-1.5,3.2-2.4,5.3c-0.9,2.1-1.8,4.4-2.8,6.8c-1,2.5-1.8,4.8-2.4,7.1c-0.6,2.2-1,4.2-1.1,6
			c-0.1,1.7,0.3,2.9,1.1,3.5c0.9-0.7,1.9-2,3.1-3.7c1.1-1.5,2.3-3.6,3.7-6.3c1.4-2.7,3.1-6.4,5-10.9c0.1-0.2,0.2-0.5,0.4-0.7
			C298.3,539.5,298.6,539.3,298.9,539.4z M272.7,554.6c0.3,0.1,0.8-0.3,1.5-1c0.7-0.7,1.4-1.7,2.2-2.8c0.8-1.1,1.7-2.4,2.6-3.7
			c0.9-1.4,1.7-2.7,2.5-3.9c0.8-1.2,1.4-2.3,2-3.3c0.6-1,1-1.6,1.2-2c0.2-0.9,0.3-1.8,0.3-2.7c0-1-0.1-1.8-0.3-2.5
			c-0.2-0.7-0.6-1.2-1.1-1.5c-0.5-0.3-1.2-0.2-2.1,0.2c-1.1,0.6-2.1,1.5-3.2,2.8c-1.1,1.3-2,2.7-3,4.3c-0.9,1.6-1.7,3.1-2.4,4.6
			c-0.7,1.5-1.1,2.7-1.3,3.7c-0.4,2-0.7,3.8-0.7,5.3S271.5,554.5,272.7,554.6z"/>
		<path class="st0" d="M371.1,529.3v0.5c0,0.1-0.1,0.5-0.2,1.1c0,0.5-0.2,1.2-0.5,2.1c-0.1,0.1-0.1,0.2-0.1,0.4l-0.2,0.4
			c-0.1,0.1-0.1,0.2-0.1,0.3c0,0.1-0.1,0.2-0.1,0.3c-0.1,0.1-0.1,0.2-0.1,0.4c0,0.1-0.1,0.2-0.1,0.4c-0.1,0.1-0.2,0.2-0.2,0.3
			c-0.1,0.1-0.2,0.2-0.2,0.4c-0.1,0.1-0.1,0.1-0.1,0.1c0,0,0,0.1-0.1,0.1l-0.2,0.4c-0.1,0.1-0.1,0.2-0.2,0.3
			c-0.1,0.1-0.1,0.2-0.2,0.3c-0.1,0.2-0.2,0.4-0.3,0.5c-0.1,0.1-0.2,0.2-0.2,0.3c0,0.1-0.1,0.1-0.1,0.2c-0.4,0.6-0.5,0.8-0.5,0.7
			c0-0.1,0.1-0.3,0.3-0.6c0.2-0.3,0.5-0.8,0.8-1.4c0.2-0.4,0.4-0.7,0.6-0.9l0.3-0.6c0-0.1,0.1-0.3,0.2-0.6c0.3-0.7,0.6-1.6,0.9-2.8
			c0.2-1.1,0.2-2.1,0.2-3.1c0-0.4,0-0.7-0.1-0.8c0-0.2,0-0.3-0.1-0.4c0-0.2,0-0.3-0.1-0.5l-0.1-0.4v-0.2l-0.1-0.2l-0.2-0.4
			c0-0.1,0-0.2,0-0.2c0,0,0-0.1,0-0.1c-0.2-0.5-0.5-1-0.8-1.4c-0.3-0.4-0.6-0.9-0.9-1.3c-0.4-0.4-0.7-0.7-1.1-1
			c-0.4-0.3-0.8-0.6-1.2-0.8h0.1c-0.9-0.6-1.8-1.1-2.8-1.6c-1-0.4-2-0.8-3.1-1.1c-0.5-0.1-1-0.2-1.6-0.4c-0.6-0.1-1.1-0.2-1.6-0.4
			c-0.6-0.1-1.1-0.2-1.6-0.2c-0.5,0-1.1-0.1-1.6-0.1c-0.5-0.1-1-0.1-1.5-0.1c-0.5,0-1,0-1.5,0h-0.4h-0.4h-0.7h-1.6c-0.5,0-1,0-1.5,0
			c-0.5,0-1,0.1-1.5,0.1c-0.4,0-0.9,0.1-1.5,0.2c-0.4,0-0.6,0-0.7,0.1l-0.7,0.1c-4.1,0.6-8,1.5-11.8,2.8c-0.3,0.1-0.6,0.2-0.8,0.3
			c-0.2,0.1-0.5,0.2-0.8,0.3l-1.7,0.7l-0.8,0.4c-0.1,0.1-0.3,0.1-0.4,0.2c-0.2,0.1-0.3,0.1-0.4,0.2l-1.6,0.7c-2.2,1-4.3,2.2-6.3,3.5
			c-0.2,0.1-0.4,0.2-0.6,0.3s-0.3,0.2-0.5,0.3c-0.1,0.1-0.2,0.1-0.2,0.1c0,0-0.1,0.1-0.2,0.1c-0.2,0.2-0.3,0.3-0.5,0.4
			c-0.4,0.2-0.7,0.5-0.8,0.7c-0.1,0.1-0.1,0.1-0.2,0.1c-0.1,0-0.1,0.1-0.2,0.1l-0.2,0.2c-0.1,0-0.1,0-0.1,0c0,0-0.1,0-0.1,0
			c-0.2,0.2-0.5,0.5-0.7,0.7c-0.2,0.2-0.5,0.4-0.7,0.6c-0.2,0.2-0.5,0.5-0.7,0.7c-0.2,0.2-0.4,0.4-0.6,0.6l-1.3,1.3
			c-0.1,0.1-0.2,0.2-0.3,0.3c-0.1,0.1-0.2,0.2-0.3,0.3l-0.4,0.4c-0.1,0.1-0.2,0.2-0.3,0.4c-0.1,0.1-0.2,0.2-0.3,0.4
			c-0.1,0.1-0.2,0.2-0.3,0.4c-0.1,0.1-0.1,0.1-0.1,0.2c0,0.1-0.1,0.1-0.2,0.2c-0.1,0.1-0.1,0.2-0.1,0.2c0,0-0.1,0.1-0.1,0.2
			c-0.1,0.1-0.2,0.3-0.3,0.4c-0.1,0.2-0.2,0.3-0.3,0.5c-0.1,0.1-0.2,0.3-0.3,0.5c-0.1,0.2-0.2,0.3-0.3,0.5c-0.1,0.1-0.2,0.2-0.2,0.3
			c0,0.1-0.1,0.2-0.1,0.3l-0.4,0.6c-0.1,0.1-0.2,0.2-0.2,0.3c0,0.1-0.1,0.2-0.1,0.3l-0.3,0.6c-0.1,0.1-0.2,0.3-0.2,0.4
			c0,0.2-0.1,0.3-0.2,0.4c-0.1,0.1-0.1,0.3-0.2,0.4c-0.1,0.2-0.1,0.3-0.2,0.4l-0.3,0.6c0,0.1-0.1,0.2-0.2,0.5
			c-0.1,0.2-0.2,0.4-0.2,0.6l-0.3,0.6c-0.2,0.7-0.5,1.3-0.6,2c-0.2,0.7-0.3,1.2-0.4,1.5c0,0.2,0,0.4-0.1,0.6c-0.2,1.6-0.2,3.1,0,4.3
			c0.2,1.3,0.7,2.2,1.6,2.9c0.5,0.2,1.1-0.1,1.9-1c0.6-0.8,1.4-2.3,2.4-4.4c1-2.1,2.2-5.4,3.6-9.8c0.1-0.3,0.2-0.6,0.4-0.8
			c0.2-0.4,0.5-0.6,0.8-0.6c0.4,0.2,0.7,0.9,0.8,2c0.1,1.1-0.3,3-1.3,5.6c-0.5,1.3-1.1,2.7-1.8,4.3c-0.7,1.6-1.5,3-2.4,4.2
			c-0.9,1.3-1.7,2.3-2.6,3c-0.9,0.7-1.7,0.9-2.4,0.5c-1.6-0.7-2.9-1.9-4-3.5c-1.1-1.7-1.7-3.9-1.8-6.6c-0.1-2,0.1-4.5,0.4-7.3
			c0.3-2.8,1.1-5.7,2.4-8.7c0-0.1,0-0.1,0.1-0.2c0.1-0.1,0.2-0.2,0.4-0.3c0.3-0.1,0.8-0.3,1.3-0.5c0.6-0.2,1.3-0.2,2-0.1
			c0.9,0.1,1.6,0.5,2,1.3c0.4,0.7,0.4,1.3,0.1,1.9c-0.1,0.2-0.5,1.1-1,2.5c-0.6,1.4-1.1,3.1-1.6,5.1c0.1-0.2,0.2-0.5,0.3-0.7
			c0.1-0.2,0.1-0.4,0.2-0.5c0.1-0.2,0.2-0.3,0.3-0.5c0.4-0.7,0.8-1.4,1.2-2c0.4-0.7,0.9-1.4,1.4-2.1c0.5-0.7,1-1.5,1.6-2.1
			c0.6-0.7,1.2-1.4,1.8-2l0.6-0.5l0.2-0.3c0.1-0.1,0.1-0.1,0.1-0.1c0,0,0.1,0,0.1-0.1l1-0.9c0-0.1,0.1-0.2,0.2-0.3l0.3-0.2l0.6-0.5
			c0.2-0.2,0.5-0.5,1-0.8c1.3-1.1,2.7-2,4.1-2.9c1.4-0.9,2.9-1.7,4.4-2.4l1.1-0.6l1.2-0.6l1.1-0.5l1.1-0.5c0.8-0.3,1.6-0.6,2.4-0.9
			c0.8-0.3,1.6-0.6,2.4-0.9c2-0.6,4-1.1,6.1-1.6c2.1-0.4,4.2-0.8,6.3-1l3.6-0.3c1.2-0.1,2.4-0.1,3.6,0c2.4,0.1,4.7,0.4,7.2,0.8
			c0.7,0.1,1.4,0.3,2,0.5c0.7,0.2,1.4,0.5,2,0.7c1.2,0.4,2.5,1.1,3.8,1.9c0.2,0.2,0.5,0.4,0.8,0.7c0.1,0.1,0.3,0.2,0.5,0.4l0.2,0.1
			l0.2,0.2l0.2,0.2l0.2,0.2l0.4,0.4c0.2,0.2,0.3,0.3,0.4,0.5c0.1,0,0.2,0.1,0.2,0.2l0.2,0.2c0.2,0.2,0.5,0.6,0.7,0.9l0.3,0.4
			c0,0.1,0,0.1,0,0.1c0,0,0,0.1,0,0.1l0.2,0.3c0,0.1,0,0.1,0.1,0.2l0.1,0.3c0.1,0.2,0.2,0.4,0.2,0.5c0.1,0.1,0.1,0.2,0.1,0.3
			c0,0.1,0,0.2,0.1,0.3l0.1,0.6c0.1,0.2,0.2,0.5,0.2,0.7s0,0.3,0.1,0.5v0.8V529.3z M303.9,529.7c-0.2-0.1-0.4-0.2-0.7-0.5
			c-0.5-0.5-0.9-1.1-1.1-2c-0.3-1.1-0.2-2,0.3-2.8c0.5-0.8,1.2-1.1,2-1c0.4,0,0.9,0.1,1.4,0.2c0.5,0.1,1,0.3,1.3,0.5
			c0.4,0.2,0.6,0.5,0.8,0.9c0.2,0.4,0.1,0.9-0.1,1.5c-0.5,1.2-1.1,2.1-1.9,2.7C305.3,529.9,304.6,530,303.9,529.7z"/>
		<path class="st0" d="M337.2,538.6c0.2,0.1,0.3,0.5,0.2,1c-0.1,0.2-0.2,0.5-0.3,0.8c-2.9,5.1-4.9,9.2-6.1,12.4
			c-1.2,3.2-2.1,5.5-2.6,6.9c-0.2,0.6-0.5,1.2-0.8,1.7c-0.3,0.4-0.7,0.8-1.1,1.1c-0.4,0.3-0.9,0.5-1.4,0.5c-1.7,0-2.8-0.7-3.5-2.2
			c-0.7-1.5-1-3.1-1.2-4.9c-0.1-2,0-4.4,0.5-7c0.5-3.3,1.2-6.7,2.1-10.1c0.9-3.4,2-6.7,3.2-9.9c-0.2,0.2-0.7,0.9-1.4,2
			c-0.8,1.1-1.7,2.5-2.8,4.4c-1.1,1.8-2.2,4-3.5,6.4c-1.2,2.4-2.5,5.1-3.6,8.1c-0.2,0.5-0.5,0.9-0.7,1.3c-0.3,0.3-0.7,0.6-1,0.9
			c-0.4,0.3-0.8,0.4-1.4,0.4c-0.7,0-1.2-0.2-1.5-0.6c-0.3-0.4-0.5-0.9-0.7-1.3c-0.2-0.6-0.3-1.2-0.3-2c-0.1-0.7-0.1-1.4,0-2.1
			c0-0.7,0.1-1.3,0.1-1.9c0.1-0.7,0.1-1.3,0.1-1.9c0.2-1.8,0.6-3.5,1-5c0.4-1.5,0.9-3.4,1.5-5.5l0.2-0.4c0.1-0.2,0.3-0.4,0.7-0.5
			c0.4-0.1,0.8-0.1,1.4-0.2c0.6-0.1,1.1-0.1,1.7-0.1s1.1,0.1,1.5,0.2c0.4,0.2,0.7,0.4,0.8,0.8v0.3c0,0.1,0,0.3-0.1,0.4
			c-0.1,0.2-0.1,0.3-0.2,0.5c-1.1,2.5-1.9,4.6-2.5,6.1c-0.6,1.6-1,3.3-1.3,5.2c0.3-0.6,0.8-1.5,1.3-2.8c0.6-1.2,1.3-2.6,2-4
			c0.8-1.5,1.6-3,2.6-4.5c0.9-1.5,1.9-3,2.8-4.2c1-1.3,1.9-2.3,2.8-3s1.8-1.1,2.6-1c0.9,0.1,1.7,0.4,2.2,1c0.5,0.5,0.8,1.3,0.9,2.4
			c0.1,1.1-0.3,2.7-1.1,4.7c-1.4,4-2.5,7.8-3.3,11.2c-0.4,1.5-0.7,3-1,4.5c-0.3,1.5-0.5,2.9-0.6,4.2c-0.1,1.3-0.1,2.5,0,3.5
			c0.1,1,0.4,1.8,0.8,2.4c0.7-2.7,1.7-5.4,2.8-7.9c1.1-2.5,2.1-4.6,2.8-6.2c1.2-2.5,2.3-4.2,3.3-4.9S336.8,538.5,337.2,538.6z"/>
		<path class="st0" d="M357.6,538.9c0.4,0.3,0.5,1,0.4,2.2c-0.1,1.1-0.8,2.9-2.1,5.3c-0.6,1-1.3,2.1-2.1,3.3
			c-0.9,1.2-1.8,2.4-2.8,3.6s-2.1,2.4-3.2,3.4c-1.1,1.1-2.1,1.9-3.1,2.6c-0.7,2-1.5,4.2-2.3,6.3c-0.9,2.2-1.8,4.3-2.8,6.3
			c-1,2-2,3.9-3.1,5.6c-1.1,1.7-2.2,3.1-3.4,4.1c-1.2,1-2.4,1.7-3.7,1.9c-1.3,0.2-2.6-0.1-3.9-1c-1.2-1.1-1.8-2.4-2-4
			c-0.1-1.4,0.3-3.1,1.3-5.3c1-2.1,3-4.7,6.1-7.8c1.1-1.2,2.4-2.3,4.1-3.5c1.7-1.1,3.2-2.1,4.6-2.8c0.6-1.9,1.2-3.7,1.6-5.3
			s0.9-3,1.2-4.2c-1.4,2.5-2.8,4.2-4,4.9c-1.2,0.6-2.3,0.7-3.2,0.1c-0.9-0.6-1.5-1.4-2-2.5c-0.3-0.6-0.5-1.4-0.6-2.5
			c-0.1-1-0.1-2-0.2-3c-0.1-1.1-0.1-2.3,0-3.6c0.2-1.6,0.4-3.3,0.7-5.1c0.2-1.8,0.6-3.7,1.1-5.8c0-0.1,0-0.2,0.1-0.4
			c0.1-0.2,0.3-0.4,0.6-0.5c0.4-0.1,0.8-0.1,1.4-0.2c0.6-0.1,1.1-0.1,1.7-0.1s1.1,0.1,1.5,0.2c0.4,0.2,0.7,0.4,0.8,0.8
			c0.1,0.1,0.1,0.2,0.1,0.3c0,0.1,0,0.3,0,0.4c0,0.2,0,0.3-0.1,0.5c-0.7,2.1-1.3,4.2-1.9,6.1c-0.6,2-1,3.9-1.3,5.8
			c-0.1,0.9-0.2,1.8-0.3,2.7c-0.1,0.7-0.1,1.5,0,2.3c0,0.8,0.2,1.5,0.4,2c0.4-0.4,0.9-0.9,1.4-1.6c0.4-0.6,0.9-1.3,1.5-2.2
			c0.6-0.9,1.1-2,1.8-3.3c0.5-1,1-2.1,1.5-3.4c0.5-1.3,1.1-2.5,1.6-3.8c0.5-1.2,1-2.4,1.4-3.6c0.4-1.2,0.8-2.2,1.1-3
			c0.1-0.4,0.2-0.9,0.3-1.3c0.1-0.4,0.2-0.8,0.3-1.3l0.1-0.1c0.1-0.1,0.2-0.2,0.4-0.3c0.3-0.1,0.7-0.3,1.3-0.4c0.6-0.2,1.2-0.2,2,0
			c1,0.1,1.7,0.5,2,1.3s0.4,1.3,0.2,1.9c-0.1,0.1-0.4,0.7-0.7,1.7c-0.4,1-0.8,2.3-1.4,3.8c-0.6,1.5-1.1,3.2-1.8,5.1
			c-0.6,1.9-1.2,3.7-1.8,5.6c-0.1,0.6-0.3,1.2-0.6,1.9c-0.2,0.6-0.4,1.3-0.6,2.2c-0.2,0.8-0.5,1.8-0.8,2.7c1.4-1.4,2.9-3.2,4.6-5.5
			c1.7-2.3,3.5-5.1,5.2-8.6c0.1-0.2,0.2-0.5,0.4-0.7C356.9,538.8,357.3,538.7,357.6,538.9z M327.3,580.6c1,0.5,2,0.3,3-0.5
			c1-0.8,2-2.1,2.9-3.8c0.9-1.7,1.8-3.7,2.7-6c0.9-2.3,1.7-4.7,2.5-7.1c-1.6,1.1-3.3,2.4-4.9,4c-1.7,1.5-3,3.1-4,4.7
			c-1,1.6-1.7,3-2.1,4c-0.4,1.1-0.7,2-0.7,2.6c-0.1,0.7,0,1.1,0.1,1.5C326.9,580.4,327.1,580.6,327.3,580.6z"/>
		<path class="st0" d="M265.4,567.2c3.2,1.8,5.8,4.2,7.8,7.1c0.9,1.2,1.6,2.7,2.3,4.2c0.7,1.6,1.1,3.3,1.4,5.3c0.2,1.9,0.2,4,0,6.4
			c-0.2,2.3-0.9,4.9-1.9,7.6c-2,5.5-4.6,10.3-7.9,14.5c-1.4,1.8-3,3.5-4.8,5.2c-1.8,1.7-3.8,3.1-6.1,4.4c-2.3,1.2-4.8,2.2-7.6,2.8
			s-5.8,0.9-9.1,0.6c-3.7-0.2-6.6-1-8.7-2.4c-2.2-1.3-3.8-2.8-5-4.4c-1.1-1.6-1.9-3.2-2.3-4.8c-0.4-1.6-0.6-2.8-0.6-3.7
			c0.1-1.1,0.2-2.1,0.3-2.9c0.1-0.7,0.3-1.3,0.5-1.8c0.2-0.5,0.4-0.6,0.7-0.4c0.7,0.4,1.3,1.2,1.8,2.2c0.5,1.1,0.8,2.3,0.8,3.6
			c0,0.7,0.1,1.6,0.4,2.7s0.9,2.3,1.8,3.4c0.9,1.2,2.2,2.3,3.8,3.3c1.6,1,3.8,1.7,6.6,2.1c2.1,0.3,4.3,0.3,6.6-0.1
			c2.3-0.4,4.6-1.4,6.9-3c2.3-1.6,4.7-4,7.1-7.2c2.4-3.2,4.8-7.4,7.3-12.6c2.3-4.9,3.6-9.1,3.9-12.6c0.3-3.5,0.1-6.4-0.5-8.7
			c-0.7-2.7-1.9-4.9-3.6-6.6c-0.6-0.4-1.4-0.9-2.5-1.3c-1.1-0.4-2.5-0.7-4.2-0.7c-1.7-0.1-3.6,0-5.8,0.4c-2.2,0.4-4.6,1.1-7.3,2.3
			c-2.7,1.2-5,2.5-7.1,3.8c-2.1,1.4-3.8,2.7-5.2,4.1c-1.4,1.4-2.4,2.7-3.1,4c-0.7,1.3-0.9,2.5-0.6,3.6c0.1,0.7,0.5,1.3,1.3,1.6
			c0.7,0.3,1.4,0.5,2.2,0.7c0.9,0.1,1.9,0.2,3,0.1c0.2,0.1,0.4,0.1,0.7,0.1c0.2,0.1,0.4,0.1,0.6,0.1s0.3,0.1,0.5,0.2
			c0.2,0.2,0.6,0.7,1.1,1.3c0.5,0.6,0.7,1.2,0.7,1.7c0.1,0.6-0.2,0.9-0.9,1.2c-0.7,0.2-1.6,0.3-2.7,0.2c-0.6,0-1.3-0.1-2.2-0.2
			c-0.9-0.2-1.8-0.4-2.7-0.9c-0.9-0.4-1.8-1.1-2.7-1.9c-0.9-0.8-1.5-1.9-2-3.3c-0.5-1.4-0.5-2.9-0.1-4.5c0.4-1.6,1.1-3.3,2.2-4.9
			c1.1-1.6,2.4-3.2,4-4.6c1.6-1.5,3.5-2.8,5.5-4c0.1-0.1,0.2-0.1,0.4-0.2c0.1-0.1,0.2-0.1,0.4-0.2c-0.3,0.1-0.6,0.2-0.9,0.4
			c-0.3,0.1-0.6,0.2-0.9,0.4c-1.3,0.6-2.6,1.3-3.8,2c-1.2,0.7-2.5,1.5-3.6,2.3c-1.1,0.8-2.1,1.6-3,2.5c-1,0.9-1.9,1.8-2.7,2.9
			c-1.6,2-2.8,4.3-3.6,7c0,0.1,0,0.2,0,0.3c0,0.1,0,0.2,0,0.3l-0.2,0.7c-0.1,0.5-0.2,0.9-0.2,1.2c-0.1,0.2-0.1,0.4-0.1,0.6
			c0,0.2,0,0.4-0.1,0.6v0.7v0.2v0.1v0.4c0,0.8,0.1,1.6,0.3,2.4c0.2,0.9,0.5,1.6,0.8,2.3c0.4,0.9,0.9,1.7,1.4,2.4
			c0.6,0.7,1.2,1.4,1.9,2c1.5,1.2,3.2,2.3,4.8,3.1c2,1,4.1,1.7,6.2,2.1c0.1,0.1,0.2,0.1,0.3,0.1c0.1,0,0.2,0,0.3,0.1
			c0.2-1,0.4-2,0.7-3.1c0.3-1.1,0.7-2.1,1.2-3.3c0.8-2,1.8-4.2,3.1-6.7c1.3-2.5,2.6-4.9,4-7.4c1.4-2.4,2.7-4.7,4-6.9
			c1.3-2.1,2.3-3.9,3.1-5.2c0.2-0.4,0.5-0.7,0.7-0.9c0.5-0.5,1.1-0.7,1.7-0.7c0.2,0.1,0.6,0.3,1.2,0.7c0.5,0.4,1,0.8,1.5,1.3
			c0.5,0.5,0.8,1.1,0.9,1.7c0.2,0.7,0,1.3-0.4,1.9c-0.4,0.7-1.2,1.8-2.2,3.4c-1.1,1.6-2.2,3.4-3.5,5.5c-1.3,2.1-2.7,4.3-4,6.6
			c-1.4,2.4-2.6,4.7-3.7,6.9c-1.2,2.5-2.1,4.8-2.8,6.9c0.1,0.1,0.4,0.1,0.7,0.1c0.4,0.1,0.7,0.1,0.9,0.1c0.2,0,0.4,0,0.7,0
			c0.1,0,0.2,0,0.3,0c0.1,0,0.2,0,0.3,0h0.9c0.4,0,0.9,0,1.7,0c0.8,0,1.6-0.1,2.4-0.2c0.4-0.1,0.7-0.1,1.1-0.1
			c0.3,0,0.6-0.1,0.9-0.2c0.1,0,0.1,0,0.1,0c0,0,0.1,0,0.1,0c0.1,0,0.2,0,0.3-0.1h0.1c-0.1,0.1-0.3,0.2-0.6,0.3
			c-0.1,0.1-0.3,0.1-0.5,0.2c-0.2,0.1-0.4,0.1-0.7,0.2c-1,0.2-2.4,0.4-4.2,0.6c-0.7,0.1-1.5,0.1-2.3,0c-0.8,0-1.6-0.1-2.5-0.1
			c-1.4,4.7-1.2,7.8,0.6,9.3c0.2,0.1,0.4,0.3,0.6,0.5c0.2,0.4,0.2,0.7,0,0.9c-0.2,0.1-0.5,0.2-0.9,0.2c-0.4,0-0.9-0.1-1.4-0.2
			c-0.5-0.2-1.1-0.4-1.6-0.8c-0.6-0.4-1.1-0.9-1.5-1.5c-0.6-0.8-1-2-1.3-3.6c-0.2-1.6-0.1-3.5,0.3-5.6h-0.2
			c-1.6-0.4-3.3-0.9-5.1-1.6c-1.6-0.6-3.1-1.3-4.7-2.3c-1.5-1-2.7-2.1-3.7-3.3c-1.2-1.4-2-2.9-2.4-4.5c-0.2-0.7-0.4-1.5-0.6-2.4V591
			l0.1-0.7l0.1-0.7v-0.3l0.1-0.3c0.1-0.1,0.1-0.3,0.1-0.7c0.1-0.4,0.2-0.8,0.4-1.2c0.1-0.4,0.2-0.8,0.4-1.3c0.7-1.9,1.6-3.7,2.8-5.2
			c1.1-1.5,2.4-3,4-4.4c0.5-0.4,1-0.8,1.4-1.2c0.5-0.4,0.9-0.7,1.4-1c0.4-0.3,0.9-0.6,1.3-0.8c0.4-0.2,0.8-0.5,1.3-0.7
			c0.4-0.2,0.9-0.5,1.3-0.7c0.4-0.2,0.9-0.4,1.3-0.7c0.5-0.2,1-0.5,1.5-0.7c0.5-0.2,1.1-0.5,1.7-0.7c0.7-0.3,1.4-0.6,2.1-0.9
			c0.4-0.1,0.8-0.3,1.4-0.5c0.6-0.2,1.1-0.4,1.8-0.6c0.6-0.2,1.2-0.3,1.7-0.5c0.5-0.1,0.9-0.2,1.2-0.4c0.1,0,0.2,0,0.3-0.1
			c3.2-1,6.4-1.5,9.5-1.5C260.6,565.4,263.2,566,265.4,567.2z"/>
		<path class="st0" d="M308.8,597.4c0.4,0.3,0.6,1,0.6,2.1s-0.6,2.9-1.7,5.5c-0.5,1.1-1.2,2.5-2,4.1c-0.8,1.6-1.8,3.3-2.7,4.9
			c-1,1.6-2,3.2-3.1,4.6c-1.1,1.4-2,2.4-2.9,2.9c-0.2,0.2-0.5,0.3-0.7,0.5c-0.2,0.1-0.6,0.2-0.9,0.3c-0.4,0.1-0.8,0.1-1.3,0
			c-0.6-0.1-1-0.3-1.4-0.6c-0.4-0.3-0.7-0.6-1-0.9c-0.2-0.4-0.5-0.8-0.7-1.3c-0.3-0.9-0.5-1.9-0.5-3c0-1.1,0-2.3,0.1-3.5
			s0.2-2.5,0.5-3.7c0.2-1.2,0.4-2.4,0.7-3.4c-1.2,2-2.4,3.6-3.3,4.8c-1,1.2-1.9,2.1-2.7,2.7c-0.8,0.6-1.5,1-2.1,1.2
			c-0.7,0.2-1.2,0.3-1.7,0.3c-0.6,0-1.2-0.1-1.7-0.4c-0.5-0.3-1-0.6-1.3-0.9c-0.4-0.4-0.8-0.8-1.2-1.4c-0.7-0.9-1.2-2.2-1.3-3.9
			c-0.1-1.6,0-3.3,0.3-5.1c0.3-1.8,0.8-3.5,1.4-5.2c0.6-1.7,1.3-3,2-4.1c0.7-1.1,1.4-2,2.2-3c0.8-0.9,1.7-1.7,2.7-2.4
			c1-0.7,2.2-1.1,3.4-1.4c1.3-0.3,2.7-0.4,4.3-0.3c1.1,0.1,2,0.3,2.8,0.7c0.7,0.3,1.4,0.7,1.9,1.2c0.5-1.1,1-2.1,1.5-2.9l0.1-0.1
			c0.1-0.1,0.2-0.2,0.4-0.3c0.3-0.1,0.8-0.2,1.3-0.3c0.6-0.1,1.3-0.1,2,0c0.9,0.2,1.5,0.7,1.8,1.4c0.3,0.7,0.3,1.3,0,1.9
			c-0.1,0.2-0.5,1-1.2,2.4c-0.7,1.4-1.5,3.2-2.4,5.3c-0.9,2.1-1.8,4.4-2.8,6.8c-1,2.5-1.8,4.8-2.4,7.1c-0.6,2.2-1,4.2-1.1,6
			c-0.1,1.7,0.3,2.9,1.1,3.5c0.9-0.7,1.9-2,3.1-3.7c1.1-1.5,2.3-3.6,3.7-6.3c1.4-2.7,3.1-6.4,5-10.9c0.1-0.2,0.2-0.5,0.4-0.7
			C308.3,597.5,308.6,597.3,308.8,597.4z M282.6,612.6c0.3,0.1,0.8-0.3,1.5-1c0.7-0.7,1.4-1.7,2.2-2.8c0.8-1.1,1.7-2.4,2.6-3.7
			c0.9-1.4,1.7-2.7,2.5-3.9c0.8-1.2,1.4-2.3,2-3.3c0.6-1,1-1.6,1.2-2c0.2-0.9,0.3-1.8,0.3-2.7c0-1-0.1-1.8-0.3-2.5
			c-0.2-0.7-0.6-1.2-1.1-1.5c-0.5-0.3-1.2-0.2-2.1,0.2c-1.1,0.6-2.1,1.5-3.2,2.8c-1.1,1.3-2,2.7-3,4.3c-0.9,1.6-1.7,3.1-2.4,4.6
			c-0.7,1.5-1.1,2.7-1.3,3.7c-0.4,2-0.7,3.8-0.7,5.3S281.5,612.5,282.6,612.6z"/>
		<path class="st0" d="M315.8,603c0.4-0.8,0.8-1.7,1.2-2.7c0.4-1,0.8-1.9,1.1-2.7c0.4-1,0.7-2,1-3.1c0.1-0.2,0.2-0.5,0.3-1
			c0.2-0.5,0.4-0.9,0.7-1.3c0.3-0.4,0.6-0.8,0.9-1.1c0.3-0.3,0.7-0.4,1.2-0.3c1.1,0.3,1.8,0.9,2.2,1.6c0.4,0.8,0.4,2.1,0,3.9
			c-0.5,1.6-0.9,3.1-1.2,4.6c-0.3,1.4-0.5,2.6-0.7,3.5c-0.3,2.1-0.5,4-0.6,5.6c-0.1,1.4-0.1,2.7,0,4c0.2,1.2,0.5,1.9,1.2,2
			c0.6-0.6,1.1-1.7,1.7-3.4c0.5-1.5,1-3.7,1.4-6.5c0.4-2.9,0.8-6.8,1-11.8c0-0.7,0.1-1.2,0.2-1.5c0.2-0.3,0.3-0.6,0.4-0.7
			c0.2-0.2,0.4-0.3,0.7-0.4c1.5-0.1,3-0.2,4.6-0.5c1.6-0.2,3.1-0.7,4.5-1.5c0.3-0.2,0.6-0.3,0.8-0.4c0.6-0.1,1-0.1,1,0.2
			c0.2,0.6,0.1,1.2-0.3,1.8c-0.4,0.6-0.9,1.1-1.6,1.6s-1.3,0.9-2.1,1.2c-0.7,0.3-1.3,0.6-1.7,0.7c-1.1,0.2-2.2,0.3-3.3,0.3
			c0.1,1,0.1,2.3,0,4c-0.2,1.7-0.6,3.8-1.3,6.5c-0.9,3.4-1.7,6-2.4,7.9c-0.7,1.9-1.3,3.2-1.8,4.1c-0.6,1.1-1.2,1.7-1.7,1.9
			c-1.4,0.5-2.5,0.3-3.3-0.7c-0.8-0.9-1.3-2.2-1.7-3.8s-0.6-3.3-0.6-5.3c0-1.9,0-3.6,0-5.1c-2.2,4.5-4.2,7.1-5.8,8
			c-1.2,0.6-2.3,0.7-3.2,0.1c-0.9-0.6-1.5-1.4-1.9-2.5c-0.3-0.6-0.5-1.4-0.6-2.5c-0.1-1-0.1-2-0.1-3c0-1.1,0-2.3,0.1-3.6
			c0.1-1.6,0.4-3.3,0.7-5.1c0.3-1.8,0.8-3.7,1.3-5.8c0-0.1,0-0.2,0.1-0.4c0.1-0.2,0.3-0.4,0.6-0.5c0.4-0.1,0.8-0.1,1.4-0.2
			c0.6-0.1,1.1-0.1,1.7-0.1s1.1,0.1,1.5,0.2c0.4,0.2,0.7,0.4,0.8,0.8c0.1,0.1,0.1,0.2,0.1,0.3c0,0.1-0.1,0.4-0.2,0.9
			c-0.7,2.1-1.3,4.2-1.9,6.1c-0.6,2-1,3.9-1.3,5.8c-0.2,0.9-0.3,1.8-0.4,2.7c-0.1,0.7-0.1,1.5-0.1,2.3c0,0.8,0.1,1.5,0.4,2
			c0.4-0.4,0.9-0.9,1.5-1.6C313.4,607.5,314.5,605.6,315.8,603z"/>
		<path class="st0" d="M362.3,596.6c0.2,0.1,0.3,0.5,0.2,1c-0.1,0.2-0.2,0.5-0.3,0.8c-2.9,5.1-4.9,9.2-6.1,12.4
			c-1.2,3.2-2.1,5.5-2.6,6.9c-0.2,0.6-0.5,1.2-0.8,1.7c-0.3,0.4-0.7,0.8-1.1,1.1c-0.4,0.3-0.9,0.5-1.4,0.5c-1.7,0-2.8-0.7-3.5-2.2
			c-0.7-1.5-1-3.1-1.2-4.9c-0.1-2,0-4.4,0.5-7c0.5-3.3,1.2-6.7,2.1-10.1c0.9-3.4,2-6.7,3.2-9.9c-0.2,0.2-0.7,0.9-1.4,2
			c-0.8,1.1-1.7,2.5-2.8,4.4c-1.1,1.8-2.2,4-3.5,6.4c-1.2,2.4-2.5,5.1-3.6,8.1c-0.2,0.5-0.5,0.9-0.7,1.3c-0.3,0.3-0.7,0.6-1,0.9
			c-0.4,0.3-0.8,0.4-1.4,0.4c-0.7,0-1.2-0.2-1.5-0.6c-0.3-0.4-0.5-0.9-0.7-1.3c-0.2-0.6-0.3-1.2-0.3-2c-0.1-0.7-0.1-1.4,0-2.1
			c0-0.7,0.1-1.3,0.1-1.9c0.1-0.7,0.1-1.3,0.1-1.9c0.2-1.8,0.6-3.5,1-5c0.4-1.5,0.9-3.4,1.5-5.5l0.2-0.4c0.1-0.2,0.3-0.4,0.7-0.5
			c0.4-0.1,0.8-0.1,1.4-0.2c0.6-0.1,1.1-0.1,1.7-0.1s1.1,0.1,1.5,0.2c0.4,0.2,0.7,0.4,0.8,0.8v0.3c0,0.1,0,0.3-0.1,0.4
			c-0.1,0.2-0.1,0.3-0.2,0.5c-1.1,2.5-1.9,4.6-2.5,6.1c-0.6,1.6-1,3.3-1.3,5.2c0.3-0.6,0.8-1.5,1.3-2.8c0.6-1.2,1.3-2.6,2-4
			c0.8-1.5,1.6-3,2.6-4.5c0.9-1.5,1.9-3,2.8-4.2c1-1.3,1.9-2.3,2.8-3s1.8-1.1,2.6-1c0.9,0.1,1.7,0.4,2.2,1c0.5,0.5,0.8,1.3,0.9,2.4
			c0.1,1.1-0.3,2.7-1.1,4.7c-1.4,4-2.5,7.8-3.3,11.2c-0.4,1.5-0.7,3-1,4.5c-0.3,1.5-0.5,2.9-0.6,4.2c-0.1,1.3-0.1,2.5,0,3.5
			c0.1,1,0.4,1.8,0.8,2.4c0.7-2.7,1.7-5.4,2.8-7.9c1.1-2.5,2.1-4.6,2.8-6.2c1.2-2.5,2.3-4.2,3.3-4.9S361.9,596.5,362.3,596.6z"/>
	</g>
</g>
</svg>
