<?xml version="1.0" encoding="utf-8"?>
<!-- Generator: Adobe Illustrator 21.1.0, SVG Export Plug-In . SVG Version: 6.00 Build 0)  -->
<svg version="1.1" id="Layer_1" xmlns="http://www.w3.org/2000/svg" xmlns:xlink="http://www.w3.org/1999/xlink" x="0px" y="0px"
	 viewBox="0 0 621.4 801.4" style="enable-background:new 0 0 621.4 801.4;" xml:space="preserve">
<style type="text/css">
	.st0{fill:#FFFFFF;}
	.st1{fill:#FFFFFF;stroke:#FFFFFF;stroke-width:0.25;stroke-miterlimit:10;}
	.st2{stroke:#000000;stroke-width:0.25;stroke-miterlimit:10;}
	.st3{fill:#1F8AC9;}
	.st4{fill:#000101;stroke:#000101;stroke-width:0.25;stroke-miterlimit:10;}
	.st5{opacity:0.75;fill:#FFFFFF;}
	.st6{fill:#9A453E;}
	.st7{fill:#5D2318;}
	.st8{fill:#5D2318;stroke:#5D2318;stroke-width:0.25;stroke-miterlimit:10;}
	.st9{fill:#9A453E;stroke:#9A453E;stroke-width:0.25;stroke-miterlimit:10;}
	.st10{fill:#933A28;}
	.st11{fill:#29326B;stroke:#29326B;stroke-width:0.25;stroke-miterlimit:10;}
	.st12{fill:#FFFFFF;fill-opacity:0.27;}
	.st13{fill:#5D2217;}
	.st14{fill:#99443E;}
	.st15{stroke:#000000;stroke-width:0.5;stroke-miterlimit:10;}
	.st16{fill:#473181;stroke:#473181;stroke-width:0.5;stroke-miterlimit:10;}
	.st17{fill:#090E31;}
	.st18{fill:#442033;}
	.st19{fill:#473181;}
	.st20{fill:#BDA677;}
	.st21{fill:#FFFFFF;stroke:#FFFFFF;stroke-miterlimit:10;}
	.st22{fill:#2C3471;}
	.st23{fill:#2C3471;stroke:#2C3471;stroke-width:0.25;stroke-miterlimit:10;}
	.st24{fill:#00B4EC;}
	.st25{opacity:0.15;}
	.st26{fill:#21283A;stroke:#21283A;stroke-width:0.25;stroke-miterlimit:10;}
	.st27{clip-path:url(#SVGID_2_);}
	.st28{opacity:0.12;}
	.st29{fill:#0C2537;}
	.st30{opacity:0.8;}
	.st31{fill:#737273;}
	.st32{opacity:0.85;fill:#FFFFFF;}
	.st33{fill:#B9DCE8;}
</style>
<g>
	<g>
		<path class="st0" d="M184.7,662.2c0.5-0.2,1.1-0.3,1.7-0.4c0.6-0.1,1.4-0.2,2.4-0.4c0.5-0.1,0.8-0.2,1.1-0.3
			c0.2-0.1,0.5-0.2,1-0.3c0-0.4-0.1-1.1-0.2-1.9c-0.1-1.2-0.2-2-0.2-2.5c0-0.4,0-0.7,0-0.9c0-0.9,0.1-3.4,0.2-7.6
			c0.2-4.2,0.4-10.1,0.8-17.6c0.2-3.3,0.3-6.2,0.4-8.5s0.1-4.3,0.2-5.9c0-1.6,0.1-2.8,0.1-3.7c0-0.9,0-1.6,0-2c-0.9,0-1.5,0-1.9,0
			c-0.4,0-0.8,0-1.1,0c-0.3,0-0.6-0.1-0.9-0.1c-0.3,0-0.8-0.1-1.5-0.1c-0.5-0.1-0.9-0.4-1.1-0.8c-0.1-0.4-0.1-0.7,0.1-1.1
			c0.2-0.4,0.4-0.7,0.7-1c0.3-0.3,0.7-0.5,1.1-0.7c0.4-0.2,0.7-0.4,1.1-0.5c0.1-0.1,0.4-0.2,1-0.4c0.5-0.2,0.9-0.3,1-0.3
			c2.1-0.4,4.2-0.7,6.4-1c2.1-0.2,4.4-0.4,6.9-0.5c0.8-0.1,1.5-0.1,2.1,0c0.6,0.1,1.1,0.1,1.5,0.1c1.1,0,1.9,0.4,2.4,1.3
			c0.2,0.3,0.2,0.6,0.1,0.9c-0.1,0.3-0.3,0.5-0.6,0.6c-1.5,0.6-2.5,1-3,1.2c-0.6,0.2-1,0.3-1.2,0.4c-0.6,0.3-1.2,0.5-1.8,0.7
			c-0.6,0.2-1.3,0.5-2.1,0.7c-0.6,2-1.1,4.6-1.6,8c-0.5,3.4-0.9,7.4-1.4,12.1c-0.4,4.4-0.7,8.6-0.9,12.6c-0.2,4-0.3,7.7-0.3,11.3
			c0,1.8,0,3.2,0,4.2c0,1,0.1,1.7,0.2,2.2c0.3-0.1,0.6-0.1,0.9-0.1c0.3,0,0.9,0,1.9,0c0.4,0,0.8,0,1.2,0.1c0.4,0.1,0.7,0.2,0.9,0.3
			c0.6,0.3,1,0.5,1.1,0.9c0.2,0.3,0.2,0.6,0.2,0.8c0,0.3-0.1,0.5-0.3,0.7c-0.3,0.3-0.7,0.6-1.4,0.9c-0.6,0.4-1.9,0.8-3.8,1.2
			c-0.9,0.2-1.6,0.4-2.1,0.5c-0.5,0.2-1,0.3-1.5,0.4c-0.5,0.1-1.1,0.2-1.8,0.3c-0.7,0.1-1.7,0.1-3,0.1c-0.8,0-1.3,0-1.6,0
			c-0.3,0-0.5-0.1-0.6-0.1c-0.1,0-0.3-0.1-0.4-0.1c-0.1,0-0.4-0.1-0.7-0.1c-0.8-0.2-1.5-0.3-1.9-0.5c-0.5-0.2-0.9-0.4-1.1-0.7
			c-0.2-0.3-0.2-0.5-0.2-0.7V664c0-0.6,0.3-1.1,0.8-1.3C184,662.4,184.4,662.2,184.7,662.2z"/>
		<path class="st0" d="M228.4,665.9c1.8,0,3,0.3,3.5,0.9c0.5,0.6,0.8,1.2,0.8,1.7c0,0.3-0.1,0.6-0.2,1c-0.2,0.4-0.5,0.8-1.1,1.1
			l-0.5,0.2l-0.4-0.2c-0.8-0.3-1.5-0.4-2.2-0.5c-0.7-0.1-1.4-0.1-2.1-0.1c-0.9,0-1.8,0.1-2.6,0.2c0.2,1.2,0.3,2.3,0.4,3.1
			c0.1,0.8,0.2,1.4,0.2,1.9c0,0.5,0.1,0.8,0.1,1c0,0.2,0,0.3,0,0.4c0,5.4-1.2,10-3.6,13.9c-2.5,4-5.6,5.9-9.4,5.9
			c-3.3,0-6.1-1.1-8.4-3.2c-2.4-2.1-3.6-4.6-3.6-7.5c0-3.6,1.7-7,4.9-10.1c3-2.9,7.5-5.6,13.3-8c-0.6-2-1.9-3.5-3.7-4.7
			c-1.4,1.1-2.6,1.6-3.6,1.6s-1.7-0.1-2.3-0.4c-0.5-0.2-1-0.5-1.3-0.9c-0.3-0.4-0.5-0.7-0.6-1.1c-0.1-0.3-0.1-0.6-0.1-0.9
			c0-1.1,0.6-2,1.7-2.6c0.9-0.4,2-0.6,3.3-0.6c2.6-3,4.5-5.6,5.4-7.9c1.4-3.3,2.1-7.3,2.1-11.9c0-1.1-0.1-2-0.3-2.7
			c-0.2-0.6-0.5-1.1-0.7-1.4c-0.3-0.3-0.6-0.5-0.9-0.5c-0.3-0.1-0.6-0.1-0.7-0.1c-1.1,0-2.2,0.7-3.4,2c-0.6,0.7-1.2,1.5-1.6,2.5
			c-0.4,0.9-0.8,1.8-1.1,2.6c-0.3,0.7-0.5,1.5-0.7,2.3c-0.2,0.8-0.7,1.2-1.4,1.2c-1.2,0-1.8-0.8-1.8-2.5c0-0.8,0.2-1.8,0.6-3
			c0.4-1.2,0.9-2.5,1.5-4c1.8-4,4-5.9,6.7-5.9c2.7,0,4.9,0.9,6.5,2.8c1.6,1.8,2.4,4.2,2.4,7c0,7.8-2.4,14.9-7.2,21.4
			c0.8,0.5,1.5,0.9,2.1,1.3c0.6,0.4,1.1,0.8,1.4,1.2c0.8,0.9,1.6,2.2,2.5,4c1.1-0.2,2.2-0.4,3.2-0.4S227.5,665.9,228.4,665.9z
			 M216.8,687.8c1.8-3,2.8-6.9,2.8-11.5c0-0.9,0-1.7-0.1-2.5c-0.1-0.8-0.2-1.5-0.3-2.3c-3.5,0.9-6.6,2.9-9.5,6
			c-3.1,3.3-4.6,6.4-4.6,9.4c0,1.6,0.5,2.8,1.5,3.8c0.9,0.9,2.1,1.4,3.7,1.4C212.8,692.2,215,690.7,216.8,687.8z"/>
		<path class="st0" d="M250.2,665.9c1.8,0,3,0.3,3.5,0.9c0.5,0.6,0.8,1.2,0.8,1.7c0,0.3-0.1,0.6-0.2,1s-0.5,0.8-1.1,1.1l-0.5,0.2
			l-0.4-0.2c-0.8-0.3-1.5-0.4-2.1-0.5c-0.7-0.1-1.4-0.1-2.1-0.1c-0.9,0-1.8,0.1-2.6,0.2c0.2,1.2,0.3,2.3,0.4,3.1
			c0.1,0.8,0.2,1.4,0.2,1.9c0,0.5,0.1,0.8,0.1,1c0,0.2,0,0.3,0,0.4c0,5.4-1.2,10-3.6,13.9c-2.5,4-5.6,5.9-9.4,5.9
			c-3.3,0-6.1-1.1-8.4-3.2c-2.4-2.1-3.6-4.6-3.6-7.5c0-3.6,1.7-7,4.9-10.1c3-2.9,7.5-5.6,13.3-8c-0.6-2-1.9-3.5-3.7-4.7
			c-1.4,1.1-2.6,1.6-3.6,1.6s-1.7-0.1-2.3-0.4c-0.5-0.2-1-0.5-1.3-0.9c-0.3-0.4-0.5-0.7-0.6-1.1c-0.1-0.3-0.1-0.6-0.1-0.9
			c0-1.1,0.6-2,1.7-2.6c0.9-0.4,2-0.6,3.3-0.6c2.6-3,4.5-5.6,5.4-7.9c1.4-3.3,2.1-7.3,2.1-11.9c0-1.1-0.1-2-0.3-2.7
			c-0.2-0.6-0.5-1.1-0.7-1.4c-0.3-0.3-0.6-0.5-0.9-0.5s-0.6-0.1-0.7-0.1c-1.1,0-2.2,0.7-3.4,2c-0.6,0.7-1.2,1.5-1.6,2.5
			c-0.4,0.9-0.8,1.8-1.1,2.6c-0.3,0.7-0.5,1.5-0.7,2.3c-0.2,0.8-0.7,1.2-1.4,1.2c-1.2,0-1.8-0.8-1.8-2.5c0-0.8,0.2-1.8,0.6-3
			c0.4-1.2,0.9-2.5,1.5-4c1.8-4,4-5.9,6.7-5.9s4.9,0.9,6.5,2.8c1.6,1.8,2.4,4.2,2.4,7c0,7.8-2.4,14.9-7.2,21.4
			c0.8,0.5,1.5,0.9,2.1,1.3c0.6,0.4,1.1,0.8,1.4,1.2c0.8,0.9,1.6,2.2,2.5,4c1.1-0.2,2.2-0.4,3.2-0.4S249.3,665.9,250.2,665.9z
			 M238.7,687.8c1.8-3,2.8-6.9,2.8-11.5c0-0.9,0-1.7-0.1-2.5c-0.1-0.8-0.2-1.5-0.3-2.3c-3.5,0.9-6.6,2.9-9.5,6
			c-3.1,3.3-4.6,6.4-4.6,9.4c0,1.6,0.5,2.8,1.5,3.8c0.9,0.9,2.1,1.4,3.7,1.4C234.6,692.2,236.8,690.7,238.7,687.8z"/>
		<path class="st0" d="M278.1,666.5c1.1,0.5,1.6,1.3,1.6,2.4c0,0.4-0.1,0.8-0.4,1.3l-0.4,0.6l-0.8-0.1c-1.6-0.3-2.7-0.4-3.4-0.5
			c-0.7-0.1-1.2-0.1-1.5-0.1c-0.3,0-0.7,0.1-1.3,0.2c-0.6,0.1-1.6,0.4-2.8,0.8c0.1,0.2,0.1,0.5,0.1,0.8c0,0.3,0,0.7,0.1,1.2
			c0.1,0.9,0.1,1.6,0.1,2.1c0,0.5,0,1,0,1.4c0,6.6-1.1,11.5-3.3,14.9c-2.4,3.5-5.9,5.3-10.5,5.3c-3.1,0-5.8-1-7.9-3
			c-2.1-2.1-3.2-4.6-3.2-7.6c0-4.5,2.8-8.6,8.4-12.5c3.9-2.7,7.7-4.5,11.3-5.3c0-0.7,0-1.6-0.1-2.7s-0.2-2.3-0.3-3.7
			c-0.1-0.6-0.2-1.1-0.2-1.5c0-0.4-0.1-0.8-0.1-1.2c-0.1,0.3-0.2,0.5-0.3,0.7c-0.1,0.2-0.2,0.4-0.3,0.7h-0.1
			c-1.1,2.2-2.7,3.4-4.5,3.4c-2.1,0-3.7-1-5-3c-0.7-1.2-1.2-2.7-1.5-4.3c-0.6,1.5-1.1,2.6-1.6,3.5c-0.5,0.9-0.9,1.6-1.4,2.1
			c-0.4,0.5-0.8,0.8-1.2,1c-0.4,0.2-0.7,0.2-1,0.2c-1.4,0-2.3-0.2-2.6-0.7c-0.4-0.5-0.5-0.9-0.5-1.2c0-0.6,0.1-1,0.4-1.3
			c0.2-0.3,0.5-0.5,0.7-0.6l0.1-0.1l1.2-0.6h0.2c0.1-0.1,0.2-0.2,0.3-0.4c0.2-0.2,0.4-0.6,0.7-1.2c0.3-0.6,0.6-1.3,1-2.3
			c0.4-1,0.8-2.2,1.4-3.7c1.4-4,2.6-8.1,3.7-12.3c0-0.1,0-0.2,0-0.2c0-0.1,0-0.1,0-0.2c0.2-1.4,0.4-2.3,0.4-2.7
			c0.1-0.5,0.2-0.8,0.3-1c0.1-0.3,0.4-0.6,0.7-0.9c0.4-0.4,1-0.5,1.8-0.5s1.5,0.2,1.9,0.7c0.1,0.2,0.2,0.4,0.4,0.7
			c0.1,0.3,0.2,0.6,0.2,1.1c-0.4,2.9-0.8,5.7-1,8.5c-0.5,4.3-0.7,7.7-0.7,10.1c0,2.2,0.1,3.7,0.4,4.4c0.3,0.8,0.5,1.2,0.6,1.2
			c0.1-0.1,0.3-0.3,0.6-0.7c0.3-0.4,0.7-1.1,1.2-2.3c0.4-1,0.9-2.3,1.3-3.7c0.5-1.4,0.9-3.1,1.4-5c0.2-1.7,0.5-3.7,0.8-6.2
			s0.7-5.5,1.2-8.9c0.3-1.9,1.4-3,3.4-3.1c0.1-0.1,0.2-0.1,0.4-0.1c0.7,0,1.2,0.2,1.6,0.6c0.4,0.4,0.6,1,0.6,1.6
			c0,0.7-0.1,1.8-0.4,3.2c-0.3,1.4-0.8,3.2-1.4,5.3c-0.1,0.3-0.2,0.8-0.3,1.5s-0.2,1.7-0.2,3c-0.1,1.3-0.1,2.9-0.1,4.9s0,4.4,0,7.2
			c0.1,1.2,0.1,2.4,0.1,3.7s0.1,2.5,0.2,3.8c0,0.6,0,1.1,0,1.4c0,0.4,0,0.7,0,1c0.3-0.1,0.6-0.2,0.9-0.3c0.3-0.1,0.7-0.2,1.1-0.3
			c1.7-0.5,3.1-0.7,4.1-0.7C276.1,665.9,277.2,666.1,278.1,666.5z M264.3,672.7c-0.5,0.2-1,0.3-1.5,0.5c-0.5,0.2-0.9,0.4-1.4,0.6
			h-0.1c-3.2,1.4-5.8,3.1-7.9,5.1c-2.8,2.6-4.1,5.3-4.1,8.1c0,1.6,0.5,3,1.6,4.2c1,1.1,2.2,1.7,3.6,1.7c2.7,0,4.9-1.4,6.7-4.3
			c2-3.1,3-6.9,3-11.5V672.7z"/>
		<path class="st0" d="M313.3,664.6c-0.6,0.2-1.2,0.3-1.7,0.3c-0.5,0.1-0.9,0.1-1.3,0.1c-0.4,0-0.8,0-1.2,0c-0.4,0-0.9-0.1-1.4-0.2
			c-1.8-0.3-3.2-0.9-4.2-1.8c-1.1-0.9-1.8-2.2-2.3-3.9V659c-0.6-2.3-0.6-6.2,0.2-11.5c0.1-0.7,0.3-1.7,0.4-2.9
			c0.2-1.2,0.4-2.7,0.7-4.4c0.3-1.7,0.5-3.2,0.8-4.6c0.2-1.4,0.4-2.5,0.5-3.5c0.5-3.5,0.9-6.8,1.1-9.9c0.2-3.1,0.4-6.1,0.6-8.9
			c0.1-1.1,0.1-2.1,0.2-2.8c0.1-0.7,0.1-1.3,0.2-1.7c0.1-0.4,0.1-0.8,0.1-1c0-0.3,0-0.5,0-0.8c-0.1-0.1-0.1-0.4,0-0.8
			c0.1-0.4,0.1-0.7,0.2-0.8c0.1-0.6,0.3-1.1,0.7-1.4c0.4-0.3,0.9-0.6,1.5-0.8c0.8-0.3,1.6-0.4,2.7-0.3c1,0.1,1.9,0.5,2.6,1.2
			c0.2,0.3,0.4,0.6,0.5,0.9c0.1,0.3,0.1,0.8,0,1.5c-0.1,0.3-0.1,0.6-0.2,0.9c-0.1,0.3-0.2,0.7-0.3,1.2c-0.1,0.2-0.2,0.5-0.3,1
			c-0.1,0.5-0.2,0.9-0.3,1.4c-0.1,0.5-0.2,0.9-0.3,1.2c-0.1,0.4-0.1,0.6-0.1,0.6c-0.1,0.5-0.1,1-0.2,1.5s-0.2,1.1-0.3,1.8
			c-0.1,0.7-0.2,1.5-0.4,2.5c-0.2,1-0.4,2.3-0.6,3.8c-0.5,3.2-1,6.2-1.4,9c-0.4,2.9-0.8,5.6-1.2,8.2c-0.4,3.3-0.8,6.2-1.2,8.9
			c-0.4,2.6-0.5,4.6-0.4,6c0.1,0.8,0.1,1.6,0.2,2.2c0.1,0.7,0.2,1.2,0.5,1.6c0.2,0.4,0.6,0.8,1.1,1c0.5,0.2,1.1,0.4,1.8,0.4
			c0.7,0,1.5-0.2,2.4-0.6c0.9-0.4,1.8-0.9,2.8-1.4c0.4-0.3,0.9-0.5,1.3-0.9c0.4-0.3,1.3-0.8,2.5-1.6c2.2-1.8,4-2.6,5.4-2.4
			c0.4,0.1,0.8,0.1,1.1,0.1c0.3,0,0.6,0.1,0.9,0.4c0.3,0.3,0.5,0.6,0.6,0.9c0.1,0.3,0.1,0.6,0.1,0.8c-0.3,1.2-1.2,2.5-2.9,3.7
			c-1.7,1.2-4.1,2.5-7.1,4.1c-0.6,0.3-1,0.5-1.3,0.7c-0.3,0.2-0.6,0.3-0.8,0.5c-0.2,0.1-0.5,0.2-0.8,0.3
			C314.2,664.4,313.8,664.5,313.3,664.6z"/>
		<path class="st0" d="M354.8,635.3c1.3,0,1.9,0.6,1.9,1.9c0,1.4-0.2,2.8-0.6,4.3c-0.4,1.5-1,3.2-1.8,4.9c-1.6,3.4-3.7,5.1-6.3,5.1
			c-0.2,0-0.4,0-0.6-0.1c-0.3-0.1-0.8-0.2-1.5-0.5c-0.1,0.5-0.2,1.1-0.4,1.6c-0.1,0.5-0.3,1.1-0.4,1.8v0.2c-0.5,1.4-0.9,2.5-1.3,3.4
			c-0.4,0.9-0.7,1.6-1,2.1c-1.4,2.2-3.1,3.3-5.2,3.3c-2.6,0-4.5-1.2-5.7-3.7c-1.1-2.2-1.7-5.5-1.7-9.9c0-5.2,0.4-8.8,1.3-10.8v-0.5
			c-0.1-0.3-0.1-0.6-0.1-0.8s0-0.5,0-0.7v-0.1c0.1-0.8,0.3-1.3,0.6-1.6c0.1-0.2,0.1-0.5,0.2-1c0.1-0.5,0.3-1.2,0.6-2.3
			c0.2-0.8,0.4-1.4,0.8-1.9c0.3-0.5,0.7-0.8,1.1-1.1c0.4-0.3,0.8-0.4,1.1-0.5s0.7-0.1,1-0.1c1.7,0,3.4,0.7,5.3,2
			c1.9,1.3,3.1,2.8,3.7,4.4c0.1,0.2,0.1,0.5,0.2,0.9c0.1,0.4,0.1,1.1,0.2,1.9c0.1,0.9,0.1,2,0.2,3.5c0.1,1.5,0.1,3.3,0.1,5.5
			c0.3,0.2,0.6,0.3,1,0.3c0.5,0,1-0.1,1.7-0.4c0.6-0.3,1.2-1,1.8-2.2c0.1-0.3,0.3-0.9,0.6-1.8c0.3-0.9,0.7-2.4,1.2-4.6
			C353,636.1,353.7,635.3,354.8,635.3z M339.5,655.6c0.8-1.7,1.3-3.1,1.6-4s0.4-1.7,0.4-2.1c0-0.7-0.1-1.6-0.2-2.6
			c-0.1-1-0.3-2.1-0.5-3.3c-0.3-1.7-0.5-2.8-0.6-3.4s-0.1-1.1-0.1-1.3c0-0.3,0-0.5,0-0.9c0-0.3,0.1-0.7,0.2-1.1
			c0.1-0.4,0.1-0.8,0.1-1.1c0-0.3,0-0.5,0-0.7c0-0.7-0.1-1.2-0.4-1.4c-0.3-0.2-0.6-0.4-1.1-0.4c-0.1,0.1-0.1,0.2-0.3,0.4
			c-0.1,0.2-0.3,0.6-0.5,1.1c-0.2,0.5-0.4,1.2-0.6,2.1c-0.2,0.9-0.5,2-0.8,3.4c-0.4,2.2-0.8,4.1-1,5.7c-0.2,1.6-0.3,3.1-0.3,4.3
			c0,0.7,0,1.5,0.1,2.4c0.1,0.9,0.2,1.7,0.4,2.5c0.2,0.8,0.4,1.5,0.8,2c0.3,0.5,0.8,0.8,1.3,0.9c0.1-0.1,0.3-0.3,0.5-0.7
			C338.6,657.3,339,656.6,339.5,655.6z"/>
		<path class="st0" d="M366.5,630c0.9,0,1.5,0.3,2,0.9c0.5,0.6,0.8,1.4,1.1,2.3c0.2,0.9,0.3,1.8,0.4,2.7c0,0.9,0,1.6,0,2.1
			c0,4.4-0.9,9.4-2.8,14.9c-1,3.3-2.1,5.7-3.2,7.2c-1.1,1.5-2.3,2.3-3.6,2.3c-2.2,0-3.8-1.6-4.9-4.8c-0.9-2.8-1.4-6.5-1.4-11v-8.3
			c-0.2-0.8-0.2-1.5,0.2-2v-0.1l0.1-0.1c0.1-0.2,0.3-0.3,0.6-0.5c0.3-0.2,0.7-0.3,1.3-0.3c2.6,0.1,3.9,1.4,3.9,3.8
			c0,0.6,0,1.2-0.1,2c-0.1,0.7-0.2,1.5-0.3,2.4c-0.1,0.9-0.2,1.7-0.2,2.3c-0.1,0.7-0.1,1.3-0.1,1.9c0,1.8,0.1,3.2,0.2,4.3
			c0.1,1.1,0.2,2,0.4,2.7c0.1,0.7,0.3,1.2,0.4,1.5c0.1,0.3,0.3,0.5,0.4,0.6c0.2-0.3,0.4-0.9,0.9-1.8c0.4-0.9,1-2.6,1.7-5
			c0.6-2.3,1.2-4.4,1.5-6c0.4-1.7,0.5-3,0.5-4c0.1-2.7,0.1-4.5-0.1-5.7c-0.2-1.1-0.3-1.8-0.4-2c-0.1-0.3-0.2-0.6-0.2-0.9
			C364.7,630.5,365.3,630,366.5,630z"/>
		<path class="st0" d="M394.1,635.1c0.7,0,1,0.2,1,0.6c-0.1,0.4-0.1,0.9-0.1,1.5c0,0.1,0,0.3,0,0.5c0,0.2-0.1,0.6-0.2,1
			c-0.1,0.4-0.2,1-0.4,1.7c-0.2,0.7-0.4,1.6-0.7,2.7c-1,4-2.1,7.5-3.3,10.6c-0.6,1.5-1.2,2.8-1.7,3.9c-0.6,1.1-1.1,2-1.7,2.7
			c-1.5,2-3.3,3-5.5,3c-2.5,0-4.6-1.2-6.4-3.7c-1.6-2.3-2.4-5.2-2.4-8.5c0-2.7,0.2-5.4,0.6-8.2c0.4-2.8,0.9-5.2,1.6-7.4
			c0.2-0.8,0.5-1.6,0.8-2.4c0.3-0.8,0.7-1.6,1.1-2.3c0.4-0.7,0.9-1.3,1.5-1.7c0.5-0.4,1.2-0.7,1.9-0.7c1.5,0,2.9,0.5,4.2,1.6
			c0.6,0.6,1.1,1.3,1.5,2.1c0.4,0.8,0.6,1.6,0.6,2.2c0,1-0.1,2.2-0.3,3.4c-0.2,1.2-0.5,2.5-0.8,3.7c-0.3,1.2-0.7,2.3-1.1,3.4
			c-0.4,1-0.8,1.8-1.2,2.5c-0.3,0.5-0.6,0.9-1.1,1.4c-0.5,0.5-1,0.8-1.5,1.1c-0.5,0.3-1,0.4-1.4,0.5c-0.5,0-0.8-0.2-1.2-0.6
			c-0.1,0.4-0.1,1-0.1,1.6c0.1,0.7,0.1,1.3,0.2,2c0.1,0.7,0.2,1.3,0.4,1.8s0.3,1,0.4,1.2c0.4,0.9,1,1.5,1.7,2
			c0.7,0.4,1.2,0.7,1.4,0.7c0.5,0,1.1-0.4,1.6-1.2c0.5-0.8,1.2-1.8,2-3c0.9-1.4,1.9-3.4,3.1-5.9c1.1-2.5,2.2-5.3,3.1-8.2
			c0.2-0.6,0.3-1.1,0.4-1.7c0.1-0.5,0.3-1.1,0.4-1.7C392.5,635.9,393.1,635.1,394.1,635.1z M381.3,633.5c-0.4,1.1-0.8,2.2-1.1,3.1
			c-0.3,0.9-0.7,1.8-1,2.7c-0.3,0.9-0.6,1.7-0.8,2.6c-0.2,0.9-0.3,1.9-0.4,3c0.7-0.1,1.3-0.5,1.8-1.4c0.5-0.9,0.8-1.7,1-2.4
			c0.2-1,0.4-2.1,0.7-3.2c0.2-1.1,0.4-2.2,0.4-3.3c0-0.3,0-0.6-0.1-1C381.6,633.1,381.5,633.1,381.3,633.5z"/>
		<path class="st0" d="M413,634.9c0.1,0,0.2,0,0.4,0c0.2,0,0.4,0.1,0.7,0.3c0.2,0.2,0.4,0.4,0.6,0.7c0.2,0.3,0.2,0.8,0.2,1.3
			c0,1.2-0.3,2.9-0.9,5.1c-0.6,2.2-1.5,4.9-2.7,8.3c-1.5,4.3-2.9,7.4-4.4,9.4c-1.5,2-3,3-4.7,3c-2.5,0-4.8-1.4-6.8-4.1
			c-2.2-3.2-3.3-7.5-3.3-13.1c0-2.5,0.2-5.4,0.5-8.6c0.3-3.2,0.8-6.9,1.4-11c1.3-7.8,2.5-13.4,3.7-16.9c0.2-2,0.5-3.5,1-4.5
			c0.4-0.9,0.9-1.5,1.5-1.7c0.6-0.3,1.1-0.4,1.5-0.4c0.8,0,1.5,0.1,2.3,0.4c0.8,0.3,1.5,0.7,2.2,1.4s1.2,1.7,1.7,2.9
			c0.4,1.2,0.6,2.8,0.6,4.8c0,4.9-1,10.5-2.9,16.7c-1.9,6.3-4.2,11.4-6.8,15.2c-0.1,0.2-0.2,0.3-0.3,0.5c-0.1,0.2-0.3,0.4-0.6,0.7
			c-0.4,0.5-0.6,0.8-0.7,1.1c-0.1,0.2-0.2,0.4-0.2,0.7c0,3.7,0.9,6.7,2.6,8.8c0.7,0.9,1.3,1.4,1.7,1.7s0.7,0.4,0.9,0.4
			c0.2-0.1,0.4-0.2,0.6-0.5c0.2-0.3,0.5-0.6,0.8-1.1c0.3-0.4,0.7-1.1,1.1-2c1.4-2.8,2.8-6.8,4.5-12.1c0.2-0.8,0.4-1.6,0.6-2.4
			c0.2-0.8,0.4-1.6,0.6-2.3c0.1-0.4,0.3-0.9,0.6-1.6C411.7,635.2,412.2,634.9,413,634.9z M403.4,610.5c-1.6,5.3-2.9,10.1-3.9,14.4
			s-1.6,8.1-2,11.5c0.6-1.3,1.2-2.7,1.8-4.3c0.6-1.5,1.2-3.2,1.8-5c1.7-5.7,2.6-9.9,2.6-12.6C403.7,612.7,403.6,611.4,403.4,610.5z"
			/>
		<path class="st0" d="M435.7,666.5c1.1,0.5,1.6,1.3,1.6,2.4c0,0.4-0.1,0.8-0.4,1.3l-0.4,0.6l-0.8-0.1c-1.6-0.3-2.7-0.4-3.4-0.5
			c-0.7-0.1-1.2-0.1-1.5-0.1s-0.7,0.1-1.3,0.2c-0.6,0.1-1.6,0.4-2.8,0.8c0.1,0.2,0.1,0.5,0.1,0.8c0,0.3,0,0.7,0.1,1.2
			c0.1,0.9,0.1,1.6,0.1,2.1c0,0.5,0,1,0,1.4c0,6.6-1.1,11.5-3.3,14.9c-2.4,3.5-5.9,5.3-10.5,5.3c-3.1,0-5.8-1-7.9-3
			c-2.1-2.1-3.2-4.6-3.2-7.6c0-4.5,2.8-8.6,8.4-12.5c3.9-2.7,7.7-4.5,11.3-5.3c0-0.7,0-1.6-0.1-2.7s-0.2-2.3-0.3-3.7
			c-0.1-0.6-0.2-1.1-0.2-1.5c0-0.4-0.1-0.8-0.1-1.2c-0.1,0.3-0.2,0.5-0.3,0.7c-0.1,0.2-0.2,0.4-0.3,0.7h-0.1
			c-1.1,2.2-2.7,3.4-4.5,3.4c-2.1,0-3.7-1-5-3c-0.7-1.2-1.2-2.7-1.5-4.3c-0.6,1.5-1.1,2.6-1.6,3.5c-0.5,0.9-0.9,1.6-1.4,2.1
			c-0.4,0.5-0.8,0.8-1.2,1c-0.4,0.2-0.7,0.2-1,0.2c-1.4,0-2.3-0.2-2.6-0.7c-0.4-0.5-0.5-0.9-0.5-1.2c0-0.6,0.1-1,0.4-1.3
			c0.2-0.3,0.5-0.5,0.7-0.6l0.1-0.1l1.2-0.6h0.2c0.1-0.1,0.2-0.2,0.3-0.4c0.2-0.2,0.4-0.6,0.7-1.2c0.3-0.6,0.6-1.3,1-2.3
			c0.4-1,0.8-2.2,1.4-3.7c1.4-4,2.6-8.1,3.7-12.3c0-0.1,0-0.2,0-0.2s0-0.1,0-0.2c0.2-1.4,0.4-2.3,0.4-2.7c0.1-0.5,0.2-0.8,0.3-1
			c0.1-0.3,0.4-0.6,0.7-0.9c0.4-0.4,1-0.5,1.8-0.5c0.8,0,1.5,0.2,1.9,0.7c0.1,0.2,0.2,0.4,0.4,0.7c0.1,0.3,0.2,0.6,0.2,1.1
			c-0.4,2.9-0.8,5.7-1,8.5c-0.5,4.3-0.7,7.7-0.7,10.1c0,2.2,0.1,3.7,0.4,4.4c0.3,0.8,0.5,1.2,0.6,1.2c0.1-0.1,0.3-0.3,0.6-0.7
			c0.3-0.4,0.7-1.1,1.2-2.3c0.4-1,0.9-2.3,1.3-3.7c0.5-1.4,0.9-3.1,1.4-5c0.2-1.7,0.5-3.7,0.8-6.2c0.3-2.5,0.7-5.5,1.2-8.9
			c0.3-1.9,1.4-3,3.4-3.1c0.1-0.1,0.2-0.1,0.4-0.1c0.7,0,1.2,0.2,1.6,0.6c0.4,0.4,0.6,1,0.6,1.6c0,0.7-0.1,1.8-0.4,3.2
			c-0.3,1.4-0.8,3.2-1.4,5.3c-0.1,0.3-0.2,0.8-0.3,1.5s-0.1,1.7-0.2,3c-0.1,1.3-0.1,2.9-0.1,4.9c0,2,0,4.4,0,7.2
			c0.1,1.2,0.1,2.4,0.1,3.7c0,1.2,0.1,2.5,0.2,3.8c0,0.6,0,1.1,0,1.4c0,0.4,0,0.7,0,1c0.3-0.1,0.6-0.2,0.9-0.3
			c0.3-0.1,0.7-0.2,1.1-0.3c1.7-0.5,3.1-0.7,4.1-0.7C433.7,665.9,434.8,666.1,435.7,666.5z M421.9,672.7c-0.5,0.2-1,0.3-1.5,0.5
			c-0.5,0.2-0.9,0.4-1.4,0.6H419c-3.2,1.4-5.8,3.1-7.9,5.1c-2.8,2.6-4.1,5.3-4.1,8.1c0,1.6,0.5,3,1.6,4.2c1,1.1,2.2,1.7,3.6,1.7
			c2.7,0,4.9-1.4,6.7-4.3c2-3.1,3-6.9,3-11.5V672.7z"/>
	</g>
</g>
<g>
	<path class="st2" d="M466,39.6V49h-1.2v-9.4H466z"/>
	<path class="st2" d="M467.4,48.3l3.1-4c0.3-0.4,0.6-0.7,0.9-1.1v0h-3.7v-1h5.2l0,0.8l-3,3.9c-0.3,0.4-0.6,0.7-0.9,1.1v0h4v1h-5.5
		V48.3z"/>
	<path class="st2" d="M473.4,48.3l3.1-4c0.3-0.4,0.6-0.7,0.9-1.1v0h-3.7v-1h5.2l0,0.8l-3,3.9c-0.3,0.4-0.6,0.7-0.9,1.1v0h4v1h-5.5
		V48.3z"/>
	<path class="st2" d="M481,42.3l1.5,4c0.2,0.4,0.3,1,0.4,1.4h0c0.1-0.4,0.3-0.9,0.4-1.4l1.3-4h1.3l-1.8,4.8
		c-0.9,2.3-1.5,3.5-2.3,4.2c-0.6,0.5-1.2,0.7-1.5,0.8l-0.3-1c0.3-0.1,0.7-0.3,1.1-0.6c0.3-0.3,0.8-0.7,1-1.4
		c0.1-0.1,0.1-0.2,0.1-0.3s0-0.2-0.1-0.3l-2.5-6.2H481z"/>
	<path class="st2" d="M490.1,39.6h1.2V48h4v1h-5.3V39.6z"/>
	<path class="st2" d="M502.6,45.6c0,2.5-1.7,3.6-3.4,3.6c-1.8,0-3.2-1.3-3.2-3.5c0-2.3,1.5-3.6,3.4-3.6
		C501.3,42.1,502.6,43.5,502.6,45.6z M497.3,45.7c0,1.5,0.9,2.6,2.1,2.6c1.2,0,2.1-1.1,2.1-2.6c0-1.1-0.6-2.6-2-2.6
		S497.3,44.4,497.3,45.7z"/>
	<path class="st2" d="M504.6,42.3l1.3,3.8c0.2,0.6,0.4,1.2,0.5,1.7h0c0.2-0.6,0.3-1.1,0.6-1.7l1.3-3.8h1.3L507,49h-1.2l-2.6-6.8
		H504.6z"/>
	<path class="st2" d="M511.4,45.9c0,1.7,1.1,2.4,2.3,2.4c0.9,0,1.4-0.2,1.9-0.3l0.2,0.9c-0.4,0.2-1.2,0.4-2.3,0.4
		c-2.1,0-3.3-1.4-3.3-3.4s1.2-3.7,3.2-3.7c2.2,0,2.8,1.9,2.8,3.2c0,0.3,0,0.4,0,0.6H511.4z M515,45c0-0.8-0.3-2-1.7-2
		c-1.2,0-1.8,1.1-1.9,2H515z"/>
	<path class="st2" d="M517.7,39.1h1.2V49h-1.2V39.1z"/>
	<path class="st2" d="M521.4,42.3l1.5,4c0.2,0.4,0.3,1,0.4,1.4h0c0.1-0.4,0.3-0.9,0.4-1.4l1.3-4h1.3l-1.8,4.8
		c-0.9,2.3-1.5,3.5-2.3,4.2c-0.6,0.5-1.2,0.7-1.5,0.8l-0.3-1c0.3-0.1,0.7-0.3,1.1-0.6c0.3-0.3,0.8-0.7,1-1.4
		c0.1-0.1,0.1-0.2,0.1-0.3s0-0.2-0.1-0.3l-2.5-6.2H521.4z"/>
	<path class="st2" d="M531.9,40.3c0,0.4-0.3,0.8-0.8,0.8c-0.4,0-0.7-0.3-0.7-0.8c0-0.4,0.3-0.8,0.8-0.8
		C531.6,39.6,531.9,39.9,531.9,40.3z M530.6,49v-6.8h1.2V49H530.6z"/>
	<path class="st2" d="M533.7,47.8c0.4,0.2,1,0.5,1.6,0.5c0.9,0,1.3-0.4,1.3-1c0-0.6-0.3-0.9-1.3-1.2c-1.2-0.4-1.8-1.1-1.8-1.9
		c0-1.1,0.9-2,2.3-2c0.7,0,1.3,0.2,1.7,0.4l-0.3,0.9c-0.3-0.2-0.8-0.4-1.4-0.4c-0.7,0-1.1,0.4-1.1,0.9c0,0.6,0.4,0.8,1.3,1.1
		c1.2,0.4,1.8,1,1.8,2c0,1.2-0.9,2-2.5,2c-0.7,0-1.4-0.2-1.9-0.5L533.7,47.8z"/>
	<path class="st2" d="M546.1,49l-0.1-0.9h0c-0.4,0.5-1.1,1-2.1,1c-1.4,0-2.1-1-2.1-1.9c0-1.6,1.5-2.5,4.1-2.5v-0.1
		c0-0.6-0.2-1.6-1.5-1.6c-0.6,0-1.3,0.2-1.8,0.5l-0.3-0.8c0.6-0.4,1.4-0.6,2.2-0.6c2.1,0,2.6,1.4,2.6,2.8v2.5c0,0.6,0,1.2,0.1,1.6
		H546.1z M545.9,45.6c-1.3,0-2.9,0.2-2.9,1.5c0,0.8,0.5,1.2,1.2,1.2c0.9,0,1.4-0.6,1.6-1.1c0-0.1,0.1-0.3,0.1-0.4V45.6z"/>
	<path class="st2" d="M553.3,45.4L553.3,45.4c0.2-0.2,0.4-0.5,0.6-0.8l2-2.3h1.5l-2.6,2.8l3,4h-1.5l-2.3-3.2l-0.6,0.7V49h-1.2v-9.9
		h1.2V45.4z"/>
	<path class="st2" d="M560.2,40.3c0,0.4-0.3,0.8-0.8,0.8c-0.4,0-0.7-0.3-0.7-0.8c0-0.4,0.3-0.8,0.8-0.8
		C559.9,39.6,560.2,39.9,560.2,40.3z M558.9,49v-6.8h1.2V49H558.9z"/>
	<path class="st2" d="M562.1,44.1c0-0.7,0-1.3-0.1-1.8h1.1l0.1,1.1h0c0.3-0.6,1.1-1.3,2.2-1.3c0.9,0,2.4,0.6,2.4,2.9v4h-1.2v-3.9
		c0-1.1-0.4-2-1.6-2c-0.8,0-1.4,0.6-1.7,1.3c-0.1,0.2-0.1,0.4-0.1,0.6V49h-1.2V44.1z"/>
	<path class="st2" d="M575.8,39.1v8.2c0,0.6,0,1.3,0.1,1.8h-1.1l-0.1-1.2h0c-0.4,0.8-1.2,1.3-2.3,1.3c-1.6,0-2.9-1.4-2.9-3.4
		c0-2.3,1.4-3.6,3-3.6c1,0,1.7,0.5,2,1h0v-4H575.8z M574.5,45c0-0.2,0-0.4-0.1-0.5c-0.2-0.8-0.9-1.4-1.8-1.4c-1.3,0-2,1.1-2,2.6
		c0,1.4,0.7,2.5,2,2.5c0.8,0,1.6-0.5,1.8-1.5c0-0.2,0.1-0.3,0.1-0.5V45z"/>
	<path class="st2" d="M576.9,50.8c0.3-0.8,0.7-2.3,0.8-3.3l1.4-0.1c-0.3,1.2-0.9,2.7-1.3,3.4L576.9,50.8z"/>
	<path class="st2" d="M441.5,55.9h1.2v9.9h-1.2V55.9z"/>
	<path class="st2" d="M450.9,62.4c0,2.5-1.7,3.6-3.4,3.6c-1.8,0-3.2-1.3-3.2-3.5c0-2.3,1.5-3.6,3.4-3.6
		C449.6,58.9,450.9,60.3,450.9,62.4z M445.6,62.5c0,1.5,0.9,2.6,2.1,2.6c1.2,0,2.1-1.1,2.1-2.6c0-1.1-0.6-2.6-2-2.6
		S445.6,61.2,445.6,62.5z"/>
	<path class="st2" d="M452.9,59l1.3,3.8c0.2,0.6,0.4,1.2,0.5,1.7h0c0.2-0.6,0.3-1.1,0.6-1.7l1.3-3.8h1.3l-2.7,6.8h-1.2l-2.6-6.8
		H452.9z"/>
	<path class="st2" d="M460.5,57.1c0,0.4-0.3,0.8-0.8,0.8c-0.4,0-0.7-0.3-0.7-0.8c0-0.4,0.3-0.8,0.8-0.8
		C460.2,56.4,460.5,56.7,460.5,57.1z M459.1,65.8V59h1.2v6.8H459.1z"/>
	<path class="st2" d="M462.4,60.9c0-0.7,0-1.3-0.1-1.8h1.1l0.1,1.1h0c0.3-0.6,1.1-1.3,2.2-1.3c0.9,0,2.4,0.6,2.4,2.9v4h-1.2v-3.9
		c0-1.1-0.4-2-1.6-2c-0.8,0-1.4,0.6-1.7,1.3c-0.1,0.2-0.1,0.4-0.1,0.6v4.1h-1.2V60.9z"/>
	<path class="st2" d="M476,59c0,0.5-0.1,1-0.1,1.9v3.9c0,1.6-0.3,2.5-1,3.1c-0.7,0.6-1.6,0.8-2.5,0.8c-0.8,0-1.7-0.2-2.3-0.6
		l0.3-0.9c0.4,0.3,1.1,0.5,2,0.5c1.3,0,2.2-0.7,2.2-2.4v-0.8h0c-0.4,0.6-1.1,1.1-2.2,1.1c-1.7,0-2.9-1.4-2.9-3.3
		c0-2.3,1.5-3.6,3.1-3.6c1.2,0,1.8,0.6,2.1,1.2h0l0.1-1H476z M474.7,61.7c0-0.2,0-0.4-0.1-0.6c-0.2-0.7-0.8-1.3-1.7-1.3
		c-1.2,0-2,1-2,2.6c0,1.3,0.7,2.4,2,2.4c0.8,0,1.4-0.5,1.7-1.3c0.1-0.2,0.1-0.4,0.1-0.7V61.7z"/>
	<path class="st2" d="M488.8,67.2c-1.3-0.3-2.5-0.7-3.6-1.1c-0.2-0.1-0.4-0.1-0.6-0.1c-2.2-0.1-4.2-1.7-4.2-4.8c0-3,1.8-5,4.4-5
		c2.6,0,4.2,2,4.2,4.8c0,2.4-1.1,4-2.7,4.5v0.1c0.9,0.2,2,0.5,2.8,0.6L488.8,67.2z M487.8,61.1c0-1.9-1-3.8-3-3.8
		c-2.1,0-3.1,1.9-3.1,4c0,2,1.1,3.8,3,3.8C486.7,65,487.8,63.2,487.8,61.1z"/>
	<path class="st2" d="M496.3,64c0,0.7,0,1.3,0.1,1.8h-1.1l-0.1-1.1h0c-0.3,0.5-1,1.3-2.2,1.3c-1.1,0-2.3-0.6-2.3-3v-4h1.2v3.8
		c0,1.3,0.4,2.2,1.5,2.2c0.8,0,1.4-0.6,1.6-1.1c0.1-0.2,0.1-0.4,0.1-0.6V59h1.2V64z"/>
	<path class="st2" d="M499,62.7c0,1.7,1.1,2.4,2.3,2.4c0.9,0,1.4-0.2,1.9-0.3l0.2,0.9c-0.4,0.2-1.2,0.4-2.3,0.4
		c-2.1,0-3.3-1.4-3.3-3.4s1.2-3.7,3.2-3.7c2.2,0,2.8,1.9,2.8,3.2c0,0.3,0,0.4,0,0.6H499z M502.7,61.8c0-0.8-0.3-2-1.7-2
		c-1.2,0-1.8,1.1-1.9,2H502.7z"/>
	<path class="st2" d="M506.1,62.7c0,1.7,1.1,2.4,2.3,2.4c0.9,0,1.4-0.2,1.9-0.3l0.2,0.9c-0.4,0.2-1.2,0.4-2.3,0.4
		c-2.1,0-3.3-1.4-3.3-3.4s1.2-3.7,3.2-3.7c2.2,0,2.8,1.9,2.8,3.2c0,0.3,0,0.4,0,0.6H506.1z M509.7,61.8c0-0.8-0.3-2-1.7-2
		c-1.2,0-1.8,1.1-1.9,2H509.7z"/>
	<path class="st2" d="M512.4,60.9c0-0.7,0-1.3-0.1-1.8h1.1l0.1,1.1h0c0.3-0.6,1.1-1.3,2.2-1.3c0.9,0,2.4,0.6,2.4,2.9v4h-1.2v-3.9
		c0-1.1-0.4-2-1.6-2c-0.8,0-1.4,0.6-1.7,1.3c-0.1,0.2-0.1,0.4-0.1,0.6v4.1h-1.2V60.9z"/>
	<path class="st2" d="M523.6,59l0.9,3.4c0.2,0.8,0.4,1.5,0.5,2.2h0c0.2-0.7,0.4-1.4,0.6-2.1l1.1-3.5h1l1.1,3.4
		c0.3,0.8,0.4,1.5,0.6,2.2h0c0.1-0.7,0.3-1.4,0.5-2.2l1-3.4h1.2l-2.2,6.8h-1.1l-1-3.2c-0.2-0.8-0.4-1.4-0.6-2.2h0
		c-0.2,0.8-0.4,1.5-0.6,2.2l-1.1,3.2h-1.1l-2-6.8H523.6z"/>
	<path class="st2" d="M534.8,57.1c0,0.4-0.3,0.8-0.8,0.8c-0.4,0-0.7-0.3-0.7-0.8c0-0.4,0.3-0.8,0.8-0.8
		C534.5,56.4,534.8,56.7,534.8,57.1z M533.4,65.8V59h1.2v6.8H533.4z"/>
	<path class="st2" d="M538.2,57.1V59h1.8V60h-1.8v3.7c0,0.8,0.2,1.3,0.9,1.3c0.3,0,0.6,0,0.7-0.1l0.1,0.9c-0.2,0.1-0.6,0.2-1.1,0.2
		c-0.6,0-1-0.2-1.3-0.5c-0.4-0.4-0.5-1-0.5-1.8V60h-1.1V59h1.1v-1.6L538.2,57.1z"/>
	<path class="st2" d="M541.3,55.9h1.2v4.2h0c0.2-0.4,0.5-0.7,0.9-0.9c0.4-0.2,0.8-0.4,1.3-0.4c0.9,0,2.4,0.6,2.4,2.9v4h-1.2v-3.9
		c0-1.1-0.4-2-1.6-2c-0.8,0-1.4,0.6-1.7,1.2c-0.1,0.2-0.1,0.4-0.1,0.6v4.1h-1.2V55.9z"/>
	<path class="st2" d="M555.8,65.8l-0.1-0.9h0c-0.4,0.5-1.1,1-2.1,1c-1.4,0-2.1-1-2.1-1.9c0-1.6,1.5-2.5,4.1-2.5v-0.1
		c0-0.6-0.2-1.6-1.5-1.6c-0.6,0-1.3,0.2-1.8,0.5l-0.3-0.8c0.6-0.4,1.4-0.6,2.2-0.6c2.1,0,2.6,1.4,2.6,2.8v2.5c0,0.6,0,1.2,0.1,1.6
		H555.8z M555.6,62.4c-1.3,0-2.9,0.2-2.9,1.5c0,0.8,0.5,1.2,1.2,1.2c0.9,0,1.4-0.6,1.6-1.1c0-0.1,0.1-0.3,0.1-0.4V62.4z"/>
	<path class="st2" d="M561.9,65.8V60h-1V59h1v-0.4c0-1.8,1.1-3,3-3c0.6,0,1.4,0.2,1.7,0.4l-0.4,0.9c-0.3-0.2-0.8-0.4-1.4-0.4
		c-1.3,0-1.7,0.9-1.7,2V59h3.9v6.8h-1.2V60h-2.7v5.8H561.9z"/>
	<path class="st2" d="M569.1,61.2c0-0.8,0-1.5-0.1-2.1h1.1l0,1.3h0.1c0.3-0.9,1-1.5,1.9-1.5c0.1,0,0.2,0,0.3,0v1.2
		c-0.1,0-0.3,0-0.4,0c-0.9,0-1.5,0.7-1.7,1.6c0,0.2-0.1,0.4-0.1,0.6v3.6h-1.2V61.2z"/>
	<path class="st2" d="M574.2,62.7c0,1.7,1.1,2.4,2.3,2.4c0.9,0,1.4-0.2,1.9-0.3l0.2,0.9c-0.4,0.2-1.2,0.4-2.3,0.4
		c-2.1,0-3.3-1.4-3.3-3.4s1.2-3.7,3.2-3.7c2.2,0,2.8,1.9,2.8,3.2c0,0.3,0,0.4,0,0.6H574.2z M577.9,61.8c0-0.8-0.3-2-1.7-2
		c-1.2,0-1.8,1.1-1.9,2H577.9z"/>
	<path class="st2" d="M453.5,73.9v1.9h1.8v0.9h-1.8v3.7c0,0.8,0.2,1.3,0.9,1.3c0.3,0,0.6,0,0.7-0.1l0.1,0.9
		c-0.2,0.1-0.6,0.2-1.1,0.2c-0.6,0-1-0.2-1.3-0.5c-0.4-0.4-0.5-1-0.5-1.8v-3.7h-1.1v-0.9h1.1v-1.6L453.5,73.9z"/>
	<path class="st2" d="M456.7,72.7h1.2v4.2h0c0.2-0.3,0.5-0.7,0.9-0.9c0.4-0.2,0.8-0.3,1.3-0.3c0.9,0,2.4,0.6,2.4,2.9v4h-1.2v-3.9
		c0-1.1-0.4-2-1.6-2c-0.8,0-1.4,0.6-1.7,1.2c-0.1,0.2-0.1,0.4-0.1,0.6v4.1h-1.2V72.7z"/>
	<path class="st2" d="M468.2,82.6l-0.1-0.9h0c-0.4,0.5-1.1,1-2.1,1c-1.4,0-2.1-1-2.1-1.9c0-1.6,1.5-2.5,4.1-2.5v-0.1
		c0-0.6-0.2-1.6-1.5-1.6c-0.6,0-1.3,0.2-1.8,0.5l-0.3-0.8c0.6-0.4,1.4-0.6,2.2-0.6c2.1,0,2.6,1.4,2.6,2.8V81c0,0.6,0,1.2,0.1,1.6
		H468.2z M468,79.2c-1.3,0-2.9,0.2-2.9,1.5c0,0.8,0.5,1.2,1.2,1.2c0.9,0,1.4-0.6,1.6-1.1c0-0.1,0.1-0.3,0.1-0.4V79.2z"/>
	<path class="st2" d="M472.6,73.9v1.9h1.8v0.9h-1.8v3.7c0,0.8,0.2,1.3,0.9,1.3c0.3,0,0.6,0,0.7-0.1l0.1,0.9
		c-0.2,0.1-0.6,0.2-1.1,0.2c-0.6,0-1-0.2-1.3-0.5c-0.4-0.4-0.5-1-0.5-1.8v-3.7h-1.1v-0.9h1.1v-1.6L472.6,73.9z"/>
	<path class="st2" d="M479.3,75.8l0.9,3.4c0.2,0.8,0.4,1.5,0.5,2.2h0c0.2-0.7,0.4-1.4,0.6-2.1l1.1-3.5h1l1.1,3.4
		c0.3,0.8,0.4,1.5,0.6,2.2h0c0.1-0.7,0.3-1.4,0.5-2.2l1-3.4h1.2l-2.2,6.8h-1.1l-1-3.2c-0.2-0.8-0.4-1.4-0.6-2.2h0
		c-0.2,0.8-0.4,1.5-0.6,2.2l-1.1,3.2H480l-2-6.8H479.3z"/>
	<path class="st2" d="M490.4,73.9c0,0.4-0.3,0.8-0.8,0.8c-0.4,0-0.7-0.3-0.7-0.8c0-0.4,0.3-0.8,0.8-0.8
		C490.1,73.2,490.4,73.5,490.4,73.9z M489.1,82.6v-6.8h1.2v6.8H489.1z"/>
	<path class="st2" d="M492.3,72.7h1.2v9.9h-1.2V72.7z"/>
	<path class="st2" d="M495.6,72.7h1.2v9.9h-1.2V72.7z"/>
	<path class="st2" d="M506.7,82.4c-0.3,0.2-1,0.4-1.9,0.4c-2,0-3.4-1.4-3.4-3.5c0-2.1,1.4-3.6,3.6-3.6c0.7,0,1.4,0.2,1.7,0.4l-0.3,1
		c-0.3-0.2-0.8-0.3-1.4-0.3c-1.6,0-2.4,1.1-2.4,2.6c0,1.6,1,2.5,2.4,2.5c0.7,0,1.2-0.2,1.5-0.3L506.7,82.4z"/>
	<path class="st2" d="M511.9,82.6l-0.1-0.9h0c-0.4,0.5-1.1,1-2.1,1c-1.4,0-2.1-1-2.1-1.9c0-1.6,1.5-2.5,4.1-2.5v-0.1
		c0-0.6-0.2-1.6-1.5-1.6c-0.6,0-1.3,0.2-1.8,0.5l-0.3-0.8c0.6-0.4,1.4-0.6,2.2-0.6c2.1,0,2.6,1.4,2.6,2.8V81c0,0.6,0,1.2,0.1,1.6
		H511.9z M511.8,79.2c-1.3,0-2.9,0.2-2.9,1.5c0,0.8,0.5,1.2,1.2,1.2c0.9,0,1.4-0.6,1.6-1.1c0-0.1,0.1-0.3,0.1-0.4V79.2z"/>
	<path class="st2" d="M514.9,78.1c0-0.9,0-1.6-0.1-2.2h1.1L516,77h0c0.5-0.8,1.3-1.3,2.4-1.3c1.6,0,2.9,1.4,2.9,3.4
		c0,2.4-1.5,3.6-3.1,3.6c-0.9,0-1.7-0.4-2.1-1.1h0v3.7h-1.2V78.1z M516.2,79.9c0,0.2,0,0.4,0.1,0.5c0.2,0.9,1,1.4,1.8,1.4
		c1.3,0,2.1-1.1,2.1-2.6c0-1.4-0.7-2.5-2-2.5c-0.8,0-1.6,0.6-1.9,1.5c0,0.2-0.1,0.3-0.1,0.5V79.9z"/>
	<path class="st2" d="M524.4,73.9v1.9h1.8v0.9h-1.8v3.7c0,0.8,0.2,1.3,0.9,1.3c0.3,0,0.6,0,0.7-0.1l0.1,0.9
		c-0.2,0.1-0.6,0.2-1.1,0.2c-0.6,0-1-0.2-1.3-0.5c-0.4-0.4-0.5-1-0.5-1.8v-3.7h-1.1v-0.9h1.1v-1.6L524.4,73.9z"/>
	<path class="st2" d="M528.9,73.9c0,0.4-0.3,0.8-0.8,0.8c-0.4,0-0.7-0.3-0.7-0.8c0-0.4,0.3-0.8,0.8-0.8
		C528.6,73.2,528.9,73.5,528.9,73.9z M527.5,82.6v-6.8h1.2v6.8H527.5z"/>
	<path class="st2" d="M531.3,75.8l1.3,3.8c0.2,0.6,0.4,1.2,0.5,1.7h0c0.2-0.6,0.3-1.1,0.6-1.7l1.3-3.8h1.3l-2.7,6.8h-1.2l-2.6-6.8
		H531.3z"/>
	<path class="st2" d="M541.2,82.6l-0.1-0.9h0c-0.4,0.5-1.1,1-2.1,1c-1.4,0-2.1-1-2.1-1.9c0-1.6,1.5-2.5,4.1-2.5v-0.1
		c0-0.6-0.2-1.6-1.5-1.6c-0.6,0-1.3,0.2-1.8,0.5l-0.3-0.8c0.6-0.4,1.4-0.6,2.2-0.6c2.1,0,2.6,1.4,2.6,2.8V81c0,0.6,0,1.2,0.1,1.6
		H541.2z M541.1,79.2c-1.3,0-2.9,0.2-2.9,1.5c0,0.8,0.5,1.2,1.2,1.2c0.9,0,1.4-0.6,1.6-1.1c0-0.1,0.1-0.3,0.1-0.4V79.2z"/>
	<path class="st2" d="M545.7,73.9v1.9h1.8v0.9h-1.8v3.7c0,0.8,0.2,1.3,0.9,1.3c0.3,0,0.6,0,0.7-0.1l0.1,0.9
		c-0.2,0.1-0.6,0.2-1.1,0.2c-0.6,0-1-0.2-1.3-0.5c-0.4-0.4-0.5-1-0.5-1.8v-3.7h-1.1v-0.9h1.1v-1.6L545.7,73.9z"/>
	<path class="st2" d="M549.4,79.5c0,1.7,1.1,2.4,2.3,2.4c0.9,0,1.4-0.2,1.9-0.4l0.2,0.9c-0.4,0.2-1.2,0.4-2.3,0.4
		c-2.1,0-3.3-1.4-3.3-3.4s1.2-3.7,3.2-3.7c2.2,0,2.8,1.9,2.8,3.2c0,0.3,0,0.4,0,0.6H549.4z M553,78.6c0-0.8-0.3-2-1.7-2
		c-1.2,0-1.8,1.1-1.9,2H553z"/>
	<path class="st2" d="M559.2,75.8l1.5,4c0.2,0.4,0.3,1,0.4,1.4h0c0.1-0.4,0.3-0.9,0.4-1.4l1.3-4h1.3l-1.8,4.8
		c-0.9,2.3-1.5,3.5-2.3,4.2c-0.6,0.5-1.2,0.7-1.5,0.8l-0.3-1c0.3-0.1,0.7-0.3,1.1-0.6c0.3-0.3,0.8-0.7,1-1.4
		c0.1-0.1,0.1-0.2,0.1-0.3c0-0.1,0-0.2-0.1-0.3l-2.5-6.2H559.2z"/>
	<path class="st2" d="M571.3,79.2c0,2.5-1.7,3.6-3.4,3.6c-1.8,0-3.2-1.3-3.2-3.5c0-2.3,1.5-3.6,3.4-3.6
		C570,75.7,571.3,77.1,571.3,79.2z M565.9,79.3c0,1.5,0.9,2.6,2.1,2.6c1.2,0,2.1-1.1,2.1-2.6c0-1.1-0.6-2.6-2-2.6
		S565.9,78,565.9,79.3z"/>
	<path class="st2" d="M578.5,80.8c0,0.7,0,1.3,0.1,1.8h-1.1l-0.1-1.1h0c-0.3,0.5-1,1.3-2.2,1.3c-1.1,0-2.3-0.6-2.3-3v-4h1.2v3.8
		c0,1.3,0.4,2.2,1.5,2.2c0.8,0,1.4-0.6,1.6-1.1c0.1-0.2,0.1-0.4,0.1-0.6v-4.2h1.2V80.8z"/>
	<path class="st2" d="M450.2,96c0,2.5-1.7,3.6-3.4,3.6c-1.8,0-3.2-1.3-3.2-3.5c0-2.3,1.5-3.6,3.4-3.6
		C448.9,92.5,450.2,93.9,450.2,96z M444.8,96.1c0,1.5,0.9,2.6,2.1,2.6c1.2,0,2.1-1.1,2.1-2.6c0-1.1-0.6-2.6-2-2.6
		S444.8,94.8,444.8,96.1z"/>
	<path class="st2" d="M451.8,94.5c0-0.7,0-1.3-0.1-1.8h1.1l0.1,1.1h0c0.3-0.6,1.1-1.3,2.2-1.3c0.9,0,2.4,0.6,2.4,2.9v4h-1.2v-3.9
		c0-1.1-0.4-2-1.6-2c-0.8,0-1.4,0.6-1.7,1.3c-0.1,0.2-0.1,0.4-0.1,0.6v4.1h-1.2V94.5z"/>
	<path class="st2" d="M464.4,99.2c-0.3,0.2-1,0.4-1.9,0.4c-2,0-3.4-1.4-3.4-3.5c0-2.1,1.4-3.6,3.6-3.6c0.7,0,1.4,0.2,1.7,0.4l-0.3,1
		c-0.3-0.2-0.8-0.3-1.4-0.3c-1.6,0-2.4,1.1-2.4,2.6c0,1.6,1,2.5,2.4,2.5c0.7,0,1.2-0.2,1.5-0.3L464.4,99.2z"/>
	<path class="st2" d="M466.4,96.3c0,1.7,1.1,2.4,2.3,2.4c0.9,0,1.4-0.2,1.9-0.4l0.2,0.9c-0.4,0.2-1.2,0.4-2.3,0.4
		c-2.1,0-3.3-1.4-3.3-3.4s1.2-3.7,3.2-3.7c2.2,0,2.8,1.9,2.8,3.2c0,0.3,0,0.4,0,0.6H466.4z M470,95.4c0-0.8-0.3-2-1.7-2
		c-1.2,0-1.8,1.1-1.9,2H470z"/>
	<path class="st2" d="M475.5,98.2c0.4,0.2,1,0.5,1.6,0.5c0.9,0,1.3-0.4,1.3-1c0-0.6-0.3-0.9-1.3-1.2c-1.2-0.4-1.8-1.1-1.8-1.9
		c0-1.1,0.9-2,2.3-2c0.7,0,1.3,0.2,1.7,0.4l-0.3,0.9c-0.3-0.2-0.8-0.4-1.4-0.4c-0.7,0-1.1,0.4-1.1,0.9c0,0.6,0.4,0.8,1.3,1.1
		c1.2,0.4,1.8,1,1.8,2c0,1.2-0.9,2-2.5,2c-0.7,0-1.4-0.2-1.9-0.5L475.5,98.2z"/>
	<path class="st2" d="M481.3,89.5h1.2v4.2h0c0.2-0.3,0.5-0.7,0.9-0.9c0.4-0.2,0.8-0.3,1.3-0.3c0.9,0,2.4,0.6,2.4,2.9v4h-1.2v-3.9
		c0-1.1-0.4-2-1.6-2c-0.8,0-1.4,0.6-1.7,1.2c-0.1,0.2-0.1,0.4-0.1,0.6v4.1h-1.2V89.5z"/>
	<path class="st2" d="M489.7,96.3c0,1.7,1.1,2.4,2.3,2.4c0.9,0,1.4-0.2,1.9-0.4l0.2,0.9c-0.4,0.2-1.2,0.4-2.3,0.4
		c-2.1,0-3.3-1.4-3.3-3.4s1.2-3.7,3.2-3.7c2.2,0,2.8,1.9,2.8,3.2c0,0.3,0,0.4,0,0.6H489.7z M493.3,95.4c0-0.8-0.3-2-1.7-2
		c-1.2,0-1.8,1.1-1.9,2H493.3z"/>
	<path class="st2" d="M499,89.5h1.2v4.2h0c0.2-0.3,0.5-0.7,0.9-0.9c0.4-0.2,0.8-0.3,1.3-0.3c0.9,0,2.4,0.6,2.4,2.9v4h-1.2v-3.9
		c0-1.1-0.4-2-1.6-2c-0.8,0-1.4,0.6-1.7,1.2c-0.1,0.2-0.1,0.4-0.1,0.6v4.1H499V89.5z"/>
	<path class="st2" d="M508.1,90.7c0,0.4-0.3,0.8-0.8,0.8c-0.4,0-0.7-0.3-0.7-0.8c0-0.4,0.3-0.8,0.8-0.8
		C507.9,90,508.1,90.3,508.1,90.7z M506.8,99.4v-6.8h1.2v6.8H506.8z"/>
	<path class="st2" d="M511.5,90.7v1.9h1.8v0.9h-1.8v3.7c0,0.8,0.2,1.3,0.9,1.3c0.3,0,0.6,0,0.7-0.1l0.1,0.9
		c-0.2,0.1-0.6,0.2-1.1,0.2c-0.6,0-1-0.2-1.3-0.5c-0.4-0.4-0.5-1-0.5-1.8v-3.7h-1.1v-0.9h1.1V91L511.5,90.7z"/>
	<path class="st2" d="M514.5,98.2c0.4,0.2,1,0.5,1.6,0.5c0.9,0,1.3-0.4,1.3-1c0-0.6-0.3-0.9-1.3-1.2c-1.2-0.4-1.8-1.1-1.8-1.9
		c0-1.1,0.9-2,2.3-2c0.7,0,1.3,0.2,1.7,0.4l-0.3,0.9c-0.3-0.2-0.8-0.4-1.4-0.4c-0.7,0-1.1,0.4-1.1,0.9c0,0.6,0.4,0.8,1.3,1.1
		c1.2,0.4,1.8,1,1.8,2c0,1.2-0.9,2-2.5,2c-0.7,0-1.4-0.2-1.9-0.5L514.5,98.2z"/>
	<path class="st2" d="M524.7,90.7v1.9h1.8v0.9h-1.8v3.7c0,0.8,0.2,1.3,0.9,1.3c0.3,0,0.6,0,0.7-0.1l0.1,0.9
		c-0.2,0.1-0.6,0.2-1.1,0.2c-0.6,0-1-0.2-1.3-0.5c-0.4-0.4-0.5-1-0.5-1.8v-3.7h-1.1v-0.9h1.1V91L524.7,90.7z"/>
	<path class="st2" d="M527.8,89.5h1.2v4.2h0c0.2-0.3,0.5-0.7,0.9-0.9c0.4-0.2,0.8-0.3,1.3-0.3c0.9,0,2.4,0.6,2.4,2.9v4h-1.2v-3.9
		c0-1.1-0.4-2-1.6-2c-0.8,0-1.4,0.6-1.7,1.2c-0.1,0.2-0.1,0.4-0.1,0.6v4.1h-1.2V89.5z"/>
	<path class="st2" d="M536.3,96.3c0,1.7,1.1,2.4,2.3,2.4c0.9,0,1.4-0.2,1.9-0.4l0.2,0.9c-0.4,0.2-1.2,0.4-2.3,0.4
		c-2.1,0-3.3-1.4-3.3-3.4s1.2-3.7,3.2-3.7c2.2,0,2.8,1.9,2.8,3.2c0,0.3,0,0.4,0,0.6H536.3z M539.9,95.4c0-0.8-0.3-2-1.7-2
		c-1.2,0-1.8,1.1-1.9,2H539.9z"/>
	<path class="st2" d="M545.4,98.2c0.4,0.2,1,0.5,1.6,0.5c0.9,0,1.3-0.4,1.3-1c0-0.6-0.3-0.9-1.3-1.2c-1.2-0.4-1.8-1.1-1.8-1.9
		c0-1.1,0.9-2,2.3-2c0.7,0,1.3,0.2,1.7,0.4l-0.3,0.9c-0.3-0.2-0.8-0.4-1.4-0.4c-0.7,0-1.1,0.4-1.1,0.9c0,0.6,0.4,0.8,1.3,1.1
		c1.2,0.4,1.8,1,1.8,2c0,1.2-0.9,2-2.5,2c-0.7,0-1.4-0.2-1.9-0.5L545.4,98.2z"/>
	<path class="st2" d="M552.6,90.7v1.9h1.8v0.9h-1.8v3.7c0,0.8,0.2,1.3,0.9,1.3c0.3,0,0.6,0,0.7-0.1l0.1,0.9
		c-0.2,0.1-0.6,0.2-1.1,0.2c-0.6,0-1-0.2-1.3-0.5c-0.4-0.4-0.5-1-0.5-1.8v-3.7h-1.1v-0.9h1.1V91L552.6,90.7z"/>
	<path class="st2" d="M559.5,99.4l-0.1-0.9h0c-0.4,0.5-1.1,1-2.1,1c-1.4,0-2.1-1-2.1-1.9c0-1.6,1.5-2.5,4.1-2.5V95
		c0-0.6-0.2-1.6-1.5-1.6c-0.6,0-1.3,0.2-1.8,0.5l-0.3-0.8c0.6-0.4,1.4-0.6,2.2-0.6c2.1,0,2.6,1.4,2.6,2.8v2.5c0,0.6,0,1.2,0.1,1.6
		H559.5z M559.3,96c-1.3,0-2.9,0.2-2.9,1.5c0,0.8,0.5,1.2,1.2,1.2c0.9,0,1.4-0.6,1.6-1.1c0-0.1,0.1-0.3,0.1-0.4V96z"/>
	<path class="st2" d="M568.3,92.6c0,0.5-0.1,1-0.1,1.9v3.9c0,1.6-0.3,2.5-1,3.1c-0.7,0.6-1.6,0.8-2.5,0.8c-0.8,0-1.7-0.2-2.3-0.6
		l0.3-0.9c0.4,0.3,1.1,0.5,2,0.5c1.3,0,2.2-0.7,2.2-2.4v-0.8h0c-0.4,0.6-1.1,1.1-2.2,1.1c-1.7,0-2.9-1.4-2.9-3.3
		c0-2.3,1.5-3.6,3.1-3.6c1.2,0,1.8,0.6,2.1,1.2h0l0.1-1H568.3z M567.1,95.3c0-0.2,0-0.4-0.1-0.6c-0.2-0.7-0.8-1.3-1.7-1.3
		c-1.2,0-2,1-2,2.6c0,1.3,0.7,2.4,2,2.4c0.8,0,1.4-0.5,1.7-1.3c0.1-0.2,0.1-0.4,0.1-0.7V95.3z"/>
	<path class="st2" d="M571,96.3c0,1.7,1.1,2.4,2.3,2.4c0.9,0,1.4-0.2,1.9-0.4l0.2,0.9c-0.4,0.2-1.2,0.4-2.3,0.4
		c-2.1,0-3.3-1.4-3.3-3.4s1.2-3.7,3.2-3.7c2.2,0,2.8,1.9,2.8,3.2c0,0.3,0,0.4,0,0.6H571z M574.6,95.4c0-0.8-0.3-2-1.7-2
		c-1.2,0-1.8,1.1-1.9,2H574.6z"/>
	<path class="st2" d="M577.1,98.7c0-0.5,0.4-0.9,0.8-0.9c0.5,0,0.8,0.4,0.8,0.9c0,0.5-0.3,0.9-0.8,0.9
		C577.4,99.6,577.1,99.2,577.1,98.7z M577.5,96.7l-0.2-6.7h1.3l-0.2,6.7H577.5z"/>
	<path class="st2" d="M454.7,106.8v9.4h-1.2v-9.4H454.7z"/>
	<path class="st2" d="M456.6,115c0.4,0.2,1,0.5,1.6,0.5c0.9,0,1.3-0.4,1.3-1c0-0.6-0.3-0.9-1.3-1.2c-1.2-0.4-1.8-1.1-1.8-1.9
		c0-1.1,0.9-2,2.3-2c0.7,0,1.3,0.2,1.7,0.4l-0.3,0.9c-0.3-0.2-0.8-0.4-1.4-0.4c-0.7,0-1.1,0.4-1.1,0.9c0,0.6,0.4,0.8,1.3,1.1
		c1.2,0.4,1.8,1,1.8,2c0,1.2-0.9,2-2.5,2c-0.7,0-1.4-0.2-1.9-0.5L456.6,115z"/>
	<path class="st2" d="M466.6,106.8v4h4.6v-4h1.2v9.4h-1.2v-4.4h-4.6v4.4h-1.2v-9.4H466.6z"/>
	<path class="st2" d="M475.1,113.1c0,1.7,1.1,2.4,2.3,2.4c0.9,0,1.4-0.2,1.9-0.4l0.2,0.9c-0.4,0.2-1.2,0.4-2.3,0.4
		c-2.1,0-3.3-1.4-3.3-3.4s1.2-3.7,3.2-3.7c2.2,0,2.8,1.9,2.8,3.2c0,0.3,0,0.4,0,0.6H475.1z M478.7,112.2c0-0.8-0.3-2-1.7-2
		c-1.2,0-1.8,1.1-1.9,2H478.7z"/>
	<path class="st2" d="M484.5,106.8h1.2v8.4h4v1h-5.3V106.8z"/>
	<path class="st2" d="M497,112.8c0,2.5-1.7,3.6-3.4,3.6c-1.8,0-3.2-1.3-3.2-3.5c0-2.3,1.5-3.6,3.4-3.6
		C495.6,109.3,497,110.7,497,112.8z M491.6,112.9c0,1.5,0.9,2.6,2.1,2.6c1.2,0,2.1-1.1,2.1-2.6c0-1.1-0.6-2.6-2-2.6
		S491.6,111.6,491.6,112.9z"/>
	<path class="st2" d="M498.9,109.4l1.3,3.8c0.2,0.6,0.4,1.2,0.5,1.7h0c0.2-0.6,0.3-1.1,0.6-1.7l1.3-3.8h1.3l-2.7,6.8h-1.2l-2.6-6.8
		H498.9z"/>
	<path class="st2" d="M505.7,113.1c0,1.7,1.1,2.4,2.3,2.4c0.9,0,1.4-0.2,1.9-0.4l0.2,0.9c-0.4,0.2-1.2,0.4-2.3,0.4
		c-2.1,0-3.3-1.4-3.3-3.4s1.2-3.7,3.2-3.7c2.2,0,2.8,1.9,2.8,3.2c0,0.3,0,0.4,0,0.6H505.7z M509.3,112.2c0-0.8-0.3-2-1.7-2
		c-1.2,0-1.8,1.1-1.9,2H509.3z"/>
	<path class="st2" d="M512,106.3h1.2v9.9H512V106.3z"/>
	<path class="st2" d="M515.8,109.4l1.5,4c0.2,0.4,0.3,1,0.4,1.4h0c0.1-0.4,0.3-0.9,0.4-1.4l1.3-4h1.3l-1.8,4.8
		c-0.9,2.3-1.5,3.5-2.3,4.2c-0.6,0.5-1.2,0.7-1.5,0.8l-0.3-1c0.3-0.1,0.7-0.3,1.1-0.6c0.3-0.3,0.8-0.7,1-1.4
		c0.1-0.1,0.1-0.2,0.1-0.3c0-0.1,0-0.2-0.1-0.3l-2.5-6.2H515.8z"/>
	<path class="st2" d="M526.3,107.5c0,0.4-0.3,0.8-0.8,0.8c-0.4,0-0.7-0.3-0.7-0.8c0-0.4,0.3-0.8,0.8-0.8
		C526,106.8,526.3,107.1,526.3,107.5z M524.9,116.2v-6.8h1.2v6.8H524.9z"/>
	<path class="st2" d="M528,115c0.4,0.2,1,0.5,1.6,0.5c0.9,0,1.3-0.4,1.3-1c0-0.6-0.3-0.9-1.3-1.2c-1.2-0.4-1.8-1.1-1.8-1.9
		c0-1.1,0.9-2,2.3-2c0.7,0,1.3,0.2,1.7,0.4l-0.3,0.9c-0.3-0.2-0.8-0.4-1.4-0.4c-0.7,0-1.1,0.4-1.1,0.9c0,0.6,0.4,0.8,1.3,1.1
		c1.2,0.4,1.8,1,1.8,2c0,1.2-0.9,2-2.5,2c-0.7,0-1.4-0.2-1.9-0.5L528,115z"/>
	<path class="st2" d="M538.2,107.5v1.9h1.8v0.9h-1.8v3.7c0,0.8,0.2,1.3,0.9,1.3c0.3,0,0.6,0,0.7-0.1l0.1,0.9
		c-0.2,0.1-0.6,0.2-1.1,0.2c-0.6,0-1-0.2-1.3-0.5c-0.4-0.4-0.5-1-0.5-1.8v-3.7h-1.1v-0.9h1.1v-1.6L538.2,107.5z"/>
	<path class="st2" d="M541.3,106.3h1.2v4.2h0c0.2-0.3,0.5-0.7,0.9-0.9c0.4-0.2,0.8-0.3,1.3-0.3c0.9,0,2.4,0.6,2.4,2.9v4h-1.2v-3.9
		c0-1.1-0.4-2-1.6-2c-0.8,0-1.4,0.6-1.7,1.2c-0.1,0.2-0.1,0.4-0.1,0.6v4.1h-1.2V106.3z"/>
	<path class="st2" d="M549.8,113.1c0,1.7,1.1,2.4,2.3,2.4c0.9,0,1.4-0.2,1.9-0.4l0.2,0.9c-0.4,0.2-1.2,0.4-2.3,0.4
		c-2.1,0-3.3-1.4-3.3-3.4s1.2-3.7,3.2-3.7c2.2,0,2.8,1.9,2.8,3.2c0,0.3,0,0.4,0,0.6H549.8z M553.4,112.2c0-0.8-0.3-2-1.7-2
		c-1.2,0-1.8,1.1-1.9,2H553.4z"/>
	<path class="st2" d="M559.1,111.6c0-0.8,0-1.5-0.1-2.1h1.1l0,1.3h0.1c0.3-0.9,1-1.5,1.9-1.5c0.1,0,0.2,0,0.3,0v1.2
		c-0.1,0-0.3,0-0.4,0c-0.9,0-1.5,0.7-1.7,1.6c0,0.2-0.1,0.4-0.1,0.6v3.6h-1.2V111.6z"/>
	<path class="st2" d="M564.2,113.1c0,1.7,1.1,2.4,2.3,2.4c0.9,0,1.4-0.2,1.9-0.4l0.2,0.9c-0.4,0.2-1.2,0.4-2.3,0.4
		c-2.1,0-3.3-1.4-3.3-3.4s1.2-3.7,3.2-3.7c2.2,0,2.8,1.9,2.8,3.2c0,0.3,0,0.4,0,0.6H564.2z M567.8,112.2c0-0.8-0.3-2-1.7-2
		c-1.2,0-1.8,1.1-1.9,2H567.8z"/>
	<path class="st2" d="M574.3,116.2l-0.1-0.9h0c-0.4,0.5-1.1,1-2.1,1c-1.4,0-2.1-1-2.1-1.9c0-1.6,1.5-2.5,4.1-2.5v-0.1
		c0-0.6-0.2-1.6-1.5-1.6c-0.6,0-1.3,0.2-1.8,0.5l-0.3-0.8c0.6-0.4,1.4-0.6,2.2-0.6c2.1,0,2.6,1.4,2.6,2.8v2.5c0,0.6,0,1.2,0.1,1.6
		H574.3z M574.1,112.8c-1.3,0-2.9,0.2-2.9,1.5c0,0.8,0.5,1.2,1.2,1.2c0.9,0,1.4-0.6,1.6-1.1c0-0.1,0.1-0.3,0.1-0.4V112.8z"/>
	<path class="st2" d="M577.3,106.3h1.2v9.9h-1.2V106.3z"/>
	<path class="st2" d="M476.7,132L476.7,132c-0.4,0.7-1.1,1.2-2.2,1.2c-1.6,0-2.9-1.4-2.9-3.4c0-2.5,1.6-3.7,3.1-3.7
		c1.1,0,1.8,0.5,2.1,1.2h0l0-1h1.2c0,0.6,0,1.2,0,1.9v7.7h-1.2V132z M476.7,129c0-0.2,0-0.4-0.1-0.5c-0.2-0.8-0.8-1.4-1.8-1.4
		c-1.3,0-2,1.1-2,2.6c0,1.3,0.6,2.5,2,2.5c0.8,0,1.5-0.5,1.8-1.3c0.1-0.2,0.1-0.4,0.1-0.6V129z"/>
	<path class="st2" d="M485.6,131.2c0,0.7,0,1.3,0.1,1.8h-1.1l-0.1-1.1h0c-0.3,0.5-1,1.3-2.2,1.3c-1.1,0-2.3-0.6-2.3-3v-4h1.2v3.8
		c0,1.3,0.4,2.2,1.5,2.2c0.8,0,1.4-0.6,1.6-1.1c0.1-0.2,0.1-0.4,0.1-0.6v-4.2h1.2V131.2z"/>
	<path class="st2" d="M488.3,129.9c0,1.7,1.1,2.4,2.3,2.4c0.9,0,1.4-0.2,1.9-0.3l0.2,0.9c-0.4,0.2-1.2,0.4-2.3,0.4
		c-2.1,0-3.3-1.4-3.3-3.4s1.2-3.7,3.2-3.7c2.2,0,2.8,1.9,2.8,3.2c0,0.3,0,0.4,0,0.6H488.3z M491.9,129c0-0.8-0.3-2-1.7-2
		c-1.2,0-1.8,1.1-1.9,2H491.9z"/>
	<path class="st2" d="M494.5,131.8c0.4,0.2,1,0.5,1.6,0.5c0.9,0,1.3-0.4,1.3-1c0-0.6-0.3-0.9-1.3-1.2c-1.2-0.4-1.8-1.1-1.8-1.9
		c0-1.1,0.9-2,2.3-2c0.7,0,1.3,0.2,1.7,0.4l-0.3,0.9c-0.3-0.2-0.8-0.4-1.4-0.4c-0.7,0-1.1,0.4-1.1,0.9c0,0.6,0.4,0.8,1.3,1.1
		c1.2,0.4,1.8,1,1.8,2c0,1.2-0.9,2-2.5,2c-0.7,0-1.4-0.2-1.9-0.5L494.5,131.8z"/>
	<path class="st2" d="M501.7,124.3v1.9h1.8v0.9h-1.8v3.7c0,0.8,0.2,1.3,0.9,1.3c0.3,0,0.6,0,0.7-0.1l0.1,0.9
		c-0.2,0.1-0.6,0.2-1.1,0.2c-0.6,0-1-0.2-1.3-0.5c-0.4-0.4-0.5-1-0.5-1.8v-3.7h-1.1v-0.9h1.1v-1.6L501.7,124.3z"/>
	<path class="st2" d="M506.2,124.3c0,0.4-0.3,0.8-0.8,0.8c-0.4,0-0.7-0.3-0.7-0.8c0-0.4,0.3-0.8,0.8-0.8
		C505.9,123.6,506.2,123.9,506.2,124.3z M504.8,133v-6.8h1.2v6.8H504.8z"/>
	<path class="st2" d="M514.2,129.6c0,2.5-1.7,3.6-3.4,3.6c-1.8,0-3.2-1.3-3.2-3.5c0-2.3,1.5-3.6,3.4-3.6
		C512.9,126.1,514.2,127.5,514.2,129.6z M508.8,129.7c0,1.5,0.9,2.6,2.1,2.6c1.2,0,2.1-1.1,2.1-2.6c0-1.1-0.6-2.6-2-2.6
		S508.8,128.4,508.8,129.7z"/>
	<path class="st2" d="M515.8,128.1c0-0.7,0-1.3-0.1-1.8h1.1l0.1,1.1h0c0.3-0.6,1.1-1.3,2.2-1.3c0.9,0,2.4,0.6,2.4,2.9v4h-1.2v-3.9
		c0-1.1-0.4-2-1.6-2c-0.8,0-1.4,0.6-1.7,1.3c-0.1,0.2-0.1,0.4-0.1,0.6v4.1h-1.2V128.1z"/>
	<path class="st2" d="M522.7,134.8c0.3-0.8,0.7-2.3,0.8-3.3l1.4-0.1c-0.3,1.2-0.9,2.7-1.3,3.4L522.7,134.8z"/>
	<path class="st2" d="M530.7,123.6v9.4h-1.2v-9.4H530.7z"/>
	<path class="st2" d="M532.1,132.3l3.1-4c0.3-0.4,0.6-0.7,0.9-1.1v0h-3.7v-1h5.2l0,0.8l-3,3.9c-0.3,0.4-0.6,0.7-0.9,1.1v0h4v1h-5.5
		V132.3z"/>
	<path class="st2" d="M538.1,132.3l3.1-4c0.3-0.4,0.6-0.7,0.9-1.1v0h-3.7v-1h5.2l0,0.8l-3,3.9c-0.3,0.4-0.6,0.7-0.9,1.1v0h4v1h-5.5
		V132.3z"/>
	<path class="st2" d="M545.7,126.3l1.5,4c0.2,0.4,0.3,1,0.4,1.4h0c0.1-0.4,0.3-0.9,0.4-1.4l1.3-4h1.3l-1.8,4.8
		c-0.9,2.3-1.5,3.5-2.3,4.2c-0.6,0.5-1.2,0.7-1.5,0.8l-0.3-1c0.3-0.1,0.7-0.3,1.1-0.6c0.3-0.3,0.8-0.7,1-1.4
		c0.1-0.1,0.1-0.2,0.1-0.3s0-0.2-0.1-0.3l-2.5-6.2H545.7z"/>
	<path class="st2" d="M556.3,124.3v1.9h1.8v0.9h-1.8v3.7c0,0.8,0.2,1.3,0.9,1.3c0.3,0,0.6,0,0.7-0.1l0.1,0.9
		c-0.2,0.1-0.6,0.2-1.1,0.2c-0.6,0-1-0.2-1.3-0.5c-0.4-0.4-0.5-1-0.5-1.8v-3.7H554v-0.9h1.1v-1.6L556.3,124.3z"/>
	<path class="st2" d="M559.4,123.1h1.2v4.2h0c0.2-0.4,0.5-0.7,0.9-0.9c0.4-0.2,0.8-0.4,1.3-0.4c0.9,0,2.4,0.6,2.4,2.9v4H564v-3.9
		c0-1.1-0.4-2-1.6-2c-0.8,0-1.4,0.6-1.7,1.2c-0.1,0.2-0.1,0.4-0.1,0.6v4.1h-1.2V123.1z"/>
	<path class="st2" d="M573.3,129.6c0,2.5-1.7,3.6-3.4,3.6c-1.8,0-3.2-1.3-3.2-3.5c0-2.3,1.5-3.6,3.4-3.6
		C572,126.1,573.3,127.5,573.3,129.6z M568,129.7c0,1.5,0.9,2.6,2.1,2.6c1.2,0,2.1-1.1,2.1-2.6c0-1.1-0.6-2.6-2-2.6
		S568,128.4,568,129.7z"/>
	<path class="st2" d="M575.8,130.4l0-0.4c-0.1-0.8,0.2-1.6,0.9-2.4c0.6-0.7,1-1.3,1-1.9c0-0.7-0.4-1.2-1.3-1.2
		c-0.5,0-1.1,0.2-1.4,0.4l-0.3-0.9c0.5-0.3,1.3-0.6,2-0.6c1.6,0,2.3,1,2.3,2.1c0,1-0.5,1.6-1.2,2.4c-0.6,0.7-0.8,1.3-0.8,2.1l0,0.4
		H575.8z M575.5,132.3c0-0.5,0.3-0.9,0.8-0.9c0.5,0,0.8,0.4,0.8,0.9c0,0.5-0.3,0.9-0.8,0.9C575.9,133.2,575.5,132.8,575.5,132.3z"/>
</g>
<g>
	<path class="st6" d="M41.1,758.2v-0.7l0.9-0.9c2.2-2.1,3.1-3.1,3.1-4.4c0-0.9-0.4-1.7-1.7-1.7c-0.8,0-1.4,0.4-1.8,0.7l-0.4-0.8
		c0.6-0.5,1.4-0.9,2.4-0.9c1.8,0,2.6,1.2,2.6,2.5c0,1.6-1.1,2.8-2.9,4.5l-0.7,0.6v0h3.8v0.9H41.1z"/>
	<path class="st6" d="M53.2,749.7v0.8l-3.7,7.7h-1.2l3.7-7.5v0h-4.1v-0.9H53.2z"/>
</g>
</svg>
