<?xml version="1.0" encoding="utf-8"?>
<!-- Generator: Adobe Illustrator 21.1.0, SVG Export Plug-In . SVG Version: 6.00 Build 0)  -->
<svg version="1.1" id="Layer_1" xmlns="http://www.w3.org/2000/svg" xmlns:xlink="http://www.w3.org/1999/xlink" x="0px" y="0px"
	 viewBox="0 0 621.4 801.4" style="enable-background:new 0 0 621.4 801.4;" xml:space="preserve">
<style type="text/css">
	.st0{fill:#FFFFFF;}
	.st1{fill:#FFFFFF;stroke:#FFFFFF;stroke-width:0.25;stroke-miterlimit:10;}
	.st2{stroke:#000000;stroke-width:0.25;stroke-miterlimit:10;}
	.st3{fill:#1F8AC9;}
	.st4{fill:#000101;stroke:#000101;stroke-width:0.25;stroke-miterlimit:10;}
	.st5{opacity:0.75;fill:#FFFFFF;}
	.st6{fill:#9A453E;}
	.st7{fill:#5D2318;}
	.st8{fill:#5D2318;stroke:#5D2318;stroke-width:0.25;stroke-miterlimit:10;}
	.st9{fill:#9A453E;stroke:#9A453E;stroke-width:0.25;stroke-miterlimit:10;}
	.st10{fill:#933A28;}
	.st11{fill:#29326B;stroke:#29326B;stroke-width:0.25;stroke-miterlimit:10;}
	.st12{fill:#FFFFFF;fill-opacity:0.27;}
	.st13{fill:#5D2217;}
	.st14{fill:#99443E;}
	.st15{stroke:#000000;stroke-width:0.5;stroke-miterlimit:10;}
	.st16{fill:#473181;stroke:#473181;stroke-width:0.5;stroke-miterlimit:10;}
	.st17{fill:#090E31;}
	.st18{fill:#442033;}
	.st19{fill:#473181;}
	.st20{fill:#BDA677;}
	.st21{fill:#FFFFFF;stroke:#FFFFFF;stroke-miterlimit:10;}
	.st22{fill:#2C3471;}
	.st23{fill:#2C3471;stroke:#2C3471;stroke-width:0.25;stroke-miterlimit:10;}
	.st24{fill:#00B4EC;}
	.st25{opacity:0.15;}
	.st26{fill:#21283A;stroke:#21283A;stroke-width:0.25;stroke-miterlimit:10;}
	.st27{clip-path:url(#SVGID_2_);}
	.st28{opacity:0.12;}
	.st29{fill:#0C2537;}
	.st30{opacity:0.8;}
	.st31{fill:#737273;}
	.st32{opacity:0.85;fill:#FFFFFF;}
	.st33{fill:#B9DCE8;}
</style>
<g>
	<path class="st11" d="M321.4,196.7c-0.1,0-0.1,0-0.1,0c0,0,0-0.1-0.1-0.1c0,0,0-0.1,0-0.1c0,0,0-0.1,0.1-0.1
		c0.5-0.4,0.9-0.8,1.3-1.1c0.3-0.3,0.6-0.6,0.8-0.8s0.4-0.5,0.4-0.7c0.1-0.2,0.1-0.4,0.1-0.7c0-0.2,0-0.3,0-0.5
		c0-0.1-0.1-0.3-0.1-0.4c-0.1-0.1-0.2-0.2-0.3-0.3c-0.1-0.1-0.3-0.1-0.4-0.1c-0.2,0-0.3,0-0.5,0.1c-0.1,0-0.2,0.1-0.3,0.2
		c-0.1,0.1-0.1,0.1-0.2,0.2c0,0.1-0.1,0.1-0.1,0.2c0,0,0,0.1,0,0.1c0,0,0,0.1,0,0.1c0,0,0,0.1,0.1,0.1c0,0,0.1,0,0.2,0
		c0.1,0,0.2,0,0.2,0.1c0,0.1,0.1,0.2,0.1,0.2c0,0.1,0,0.2-0.1,0.2c-0.1,0.1-0.2,0.1-0.3,0.1c-0.1,0-0.3,0-0.3-0.1
		c-0.1-0.1-0.2-0.1-0.2-0.2c-0.1-0.1-0.1-0.2-0.1-0.3c0-0.1,0-0.2,0-0.3c0-0.2,0-0.3,0.1-0.5c0.1-0.2,0.2-0.3,0.3-0.4
		c0.1-0.1,0.3-0.2,0.5-0.3c0.2-0.1,0.5-0.1,0.8-0.1s0.5,0,0.8,0.1c0.2,0.1,0.4,0.2,0.6,0.3c0.1,0.1,0.3,0.3,0.3,0.5
		c0.1,0.2,0.1,0.4,0.1,0.6c0,0.3-0.1,0.6-0.2,0.8c-0.2,0.3-0.4,0.5-0.6,0.7c-0.2,0.2-0.5,0.4-0.8,0.6c-0.3,0.2-0.6,0.4-0.9,0.5
		c0,0-0.1,0-0.1,0.1c0,0,0,0,0.1,0h1.6c0.1,0,0.2,0,0.2,0c0.1,0,0.1-0.1,0.2-0.1c0.1,0,0.1-0.1,0.2-0.2c0.1-0.1,0.1-0.2,0.2-0.4
		c0,0,0-0.1,0.1-0.1c0,0,0.1,0,0.1,0c0,0,0.1,0,0.1,0s0,0.1,0,0.1c-0.1,0.2-0.1,0.5-0.2,0.7c-0.1,0.2-0.1,0.5-0.1,0.8H321.4z"/>
	<path class="st11" d="M331.2,194c0,0.4-0.1,0.8-0.2,1.2s-0.3,0.6-0.6,0.9c-0.2,0.2-0.5,0.4-0.9,0.5c-0.3,0.1-0.7,0.2-1.1,0.2
		c-0.3,0-0.7-0.1-1-0.2c-0.3-0.1-0.6-0.3-0.8-0.5c-0.2-0.2-0.4-0.5-0.5-0.8c-0.1-0.3-0.2-0.7-0.2-1.2c0-0.4,0.1-0.7,0.2-1
		c0.1-0.3,0.3-0.6,0.5-0.8c0.2-0.2,0.5-0.4,0.8-0.5c0.3-0.1,0.7-0.2,1.1-0.2c0.4,0,0.7,0.1,1,0.2s0.6,0.3,0.8,0.5
		c0.2,0.2,0.4,0.5,0.5,0.8C331.1,193.3,331.2,193.6,331.2,194z M330.1,194.2c0-0.3,0-0.6-0.1-0.8c-0.1-0.3-0.1-0.5-0.2-0.7
		s-0.3-0.4-0.4-0.5s-0.4-0.2-0.7-0.2c-0.3,0-0.5,0.1-0.7,0.2c-0.2,0.1-0.4,0.3-0.5,0.5c-0.1,0.2-0.2,0.5-0.3,0.7
		c-0.1,0.3-0.1,0.5-0.1,0.8c0,0.2,0,0.5,0.1,0.8c0.1,0.3,0.1,0.5,0.3,0.7c0.1,0.2,0.3,0.4,0.5,0.5c0.2,0.1,0.4,0.2,0.7,0.2
		c0.3,0,0.5-0.1,0.7-0.2c0.2-0.1,0.3-0.3,0.5-0.5c0.1-0.2,0.2-0.5,0.2-0.7C330,194.7,330.1,194.4,330.1,194.2z"/>
	<path class="st11" d="M334.2,195.2c0,0.2,0,0.4,0,0.6c0,0.1,0.1,0.2,0.1,0.3c0.1,0.1,0.2,0.1,0.3,0.2c0.1,0,0.3,0.1,0.5,0.1
		c0,0,0.1,0,0.1,0.1c0,0,0,0.1,0,0.1c0,0,0,0.1,0,0.1c0,0,0,0-0.1,0c-0.1,0-0.1,0-0.2,0c-0.1,0-0.2,0-0.2,0c-0.1,0-0.3,0-0.4,0
		c-0.1,0-0.3,0-0.5,0c-0.3,0-0.6,0-0.9,0c-0.1,0-0.2,0-0.4,0c-0.1,0-0.2,0-0.3,0c0,0-0.1,0-0.1,0c0,0,0-0.1,0-0.1c0,0,0-0.1,0-0.1
		c0,0,0,0,0.1-0.1c0.2,0,0.4-0.1,0.5-0.1c0.1,0,0.2-0.1,0.3-0.2c0.1-0.1,0.1-0.2,0.1-0.3c0-0.1,0-0.3,0-0.6v-2c0-0.4,0-0.7-0.1-0.8
		s-0.2-0.2-0.3-0.2c-0.1,0-0.2,0-0.3,0s-0.2,0-0.3,0.1c-0.1,0-0.1,0-0.1-0.1c0-0.1,0-0.1,0-0.2c0.2-0.1,0.4-0.1,0.5-0.1
		s0.3-0.1,0.5-0.1c0.1,0,0.3,0,0.4-0.1c0.1,0,0.3-0.1,0.5-0.1c0.1,0,0.2,0,0.2,0.1V195.2z"/>
	<path class="st11" d="M340.7,194.8c0,0.3-0.1,0.6-0.2,0.9s-0.3,0.5-0.6,0.6c-0.2,0.2-0.5,0.3-0.8,0.4c-0.3,0.1-0.6,0.1-0.9,0.1
		s-0.6,0-0.8-0.1c-0.3-0.1-0.5-0.2-0.7-0.3c-0.2-0.2-0.4-0.3-0.5-0.6c-0.1-0.2-0.2-0.5-0.2-0.8c0-0.4,0.1-0.8,0.4-1.1
		c0.3-0.3,0.7-0.6,1.2-0.7c-0.4-0.2-0.7-0.5-0.9-0.8s-0.4-0.6-0.4-1c0-0.3,0.1-0.6,0.2-0.8c0.1-0.2,0.3-0.4,0.5-0.6
		c0.2-0.2,0.4-0.3,0.7-0.4c0.2-0.1,0.5-0.1,0.8-0.1c0.2,0,0.5,0,0.7,0.1c0.2,0.1,0.4,0.2,0.6,0.3c0.2,0.2,0.3,0.3,0.4,0.6
		s0.2,0.5,0.2,0.7c0,0.3-0.1,0.6-0.4,0.9s-0.6,0.5-1,0.7c0.2,0.1,0.4,0.2,0.6,0.3c0.2,0.1,0.4,0.3,0.5,0.4c0.1,0.2,0.3,0.3,0.3,0.5
		C340.6,194.3,340.7,194.5,340.7,194.8z M339.6,195c0-0.2,0-0.4-0.1-0.6s-0.2-0.3-0.3-0.4c-0.1-0.1-0.3-0.3-0.5-0.4
		c-0.2-0.1-0.4-0.2-0.6-0.3c0,0-0.1,0-0.1,0c-0.2,0.2-0.4,0.4-0.6,0.6c-0.2,0.3-0.2,0.5-0.2,0.8c0,0.5,0.1,0.9,0.3,1.2
		c0.2,0.3,0.5,0.5,0.9,0.5c0.2,0,0.4,0,0.5-0.1c0.2-0.1,0.3-0.2,0.4-0.3c0.1-0.1,0.2-0.3,0.3-0.5C339.6,195.4,339.6,195.2,339.6,195
		z M339.4,191.2c0-0.4-0.1-0.8-0.2-1c-0.1-0.2-0.4-0.4-0.7-0.4c-0.3,0-0.5,0.1-0.7,0.3s-0.3,0.5-0.3,0.9c0,0.2,0,0.3,0.1,0.5
		c0.1,0.1,0.2,0.3,0.3,0.4c0.1,0.1,0.3,0.2,0.4,0.3c0.2,0.1,0.3,0.2,0.5,0.3c0,0,0.1,0,0.1,0c0.2-0.1,0.3-0.3,0.4-0.5
		C339.3,191.8,339.4,191.5,339.4,191.2z"/>
	<path class="st11" d="M349.7,189.3c0.1,0,0.1,0,0.2,0c0.1,0,0.1,0.1,0.1,0.2c0,0.2,0,0.5,0,0.7s0,0.5,0,0.8c0,0,0,0.1,0,0.1
		c0,0-0.1,0-0.1,0c0,0-0.1,0-0.1,0c0,0-0.1,0-0.1-0.1c-0.1-0.3-0.1-0.5-0.2-0.7s-0.1-0.3-0.2-0.4c-0.1-0.1-0.2-0.1-0.4-0.2
		c-0.2,0-0.4,0-0.6,0h-0.7c-0.2,0-0.3,0-0.5,0s-0.2,0-0.3,0.1s-0.1,0.1-0.1,0.2s0,0.2,0,0.4v1.9c0,0.1,0,0.2,0.1,0.2s0.1,0,0.1,0
		c0.3,0,0.6,0,0.8,0c0.2,0,0.3-0.1,0.4-0.2c0.1-0.1,0.2-0.2,0.2-0.3c0-0.1,0.1-0.3,0.1-0.5c0,0,0-0.1,0.1-0.1c0,0,0.1,0,0.1,0
		s0.1,0,0.1,0c0,0,0.1,0.1,0.1,0.1c0,0.1,0,0.2,0,0.3c0,0.1,0,0.2,0,0.3c0,0.1,0,0.2,0,0.3s0,0.2,0,0.3c0,0.2,0,0.4,0,0.6
		s0,0.4,0,0.7c0,0,0,0.1-0.1,0.1c0,0-0.1,0-0.1,0c0,0-0.1,0-0.1,0c0,0-0.1,0-0.1-0.1c0-0.2,0-0.4-0.1-0.5c0-0.1-0.1-0.2-0.2-0.3
		c-0.1-0.1-0.2-0.1-0.4-0.1c-0.2,0-0.5,0-0.8,0c0,0-0.1,0-0.1,0s-0.1,0.1-0.1,0.2v1.8c0,0.2,0,0.4,0.1,0.6c0,0.2,0.1,0.3,0.2,0.4
		c0.1,0.1,0.2,0.1,0.4,0.2c0.2,0,0.4,0.1,0.6,0.1c0.1,0,0.1,0,0.1,0.1c0,0,0,0.1,0,0.1c0,0,0,0.1,0,0.1s-0.1,0.1-0.1,0.1
		c-0.4,0-0.7,0-1,0c-0.3,0-0.6,0-0.8,0c-0.3,0-0.6,0-0.8,0c-0.3,0-0.5,0-0.8,0c0,0-0.1,0-0.1-0.1s0-0.1,0-0.1s0-0.1,0-0.1
		c0,0,0.1-0.1,0.1-0.1c0.2,0,0.4-0.1,0.5-0.1s0.2-0.1,0.3-0.2c0.1-0.1,0.1-0.2,0.1-0.3c0-0.1,0-0.3,0-0.5v-4.1c0-0.2,0-0.3,0-0.5
		c0-0.2,0-0.3-0.1-0.4c0-0.1-0.1-0.2-0.2-0.3c-0.1-0.1-0.2-0.2-0.3-0.2c-0.1,0-0.2,0-0.3-0.1s-0.2,0-0.3,0c0,0-0.1,0-0.1-0.1
		c0,0,0-0.1,0-0.1c0,0,0-0.1,0-0.1s0.1-0.1,0.1-0.1c0.2,0,0.5,0,0.7,0c0.2,0,0.4,0,0.7,0H349.7z"/>
	<path class="st11" d="M351.3,193.9C351.3,193.9,351.2,193.9,351.3,193.9c-0.1,0.1-0.1,0.1-0.1,0.1c0,0.4,0,0.7,0.1,1
		c0.1,0.3,0.2,0.5,0.4,0.6s0.3,0.3,0.5,0.4c0.2,0.1,0.4,0.1,0.7,0.1c0.2,0,0.5,0,0.7-0.1c0.2,0,0.4-0.1,0.6-0.3c0,0,0.1,0,0.1,0
		c0,0,0.1,0,0.1,0.1c0,0,0,0.1,0,0.1c0,0,0,0.1,0,0.1c-0.2,0.3-0.5,0.5-0.8,0.6s-0.7,0.2-1.1,0.2c-0.4,0-0.8-0.1-1.1-0.2
		c-0.3-0.1-0.6-0.3-0.8-0.6s-0.4-0.5-0.5-0.8s-0.1-0.7-0.1-1c0-0.4,0.1-0.7,0.2-1s0.3-0.6,0.5-0.8c0.2-0.2,0.5-0.4,0.8-0.6
		c0.3-0.1,0.6-0.2,1-0.2c0.3,0,0.6,0.1,0.8,0.2c0.3,0.1,0.5,0.3,0.6,0.4c0.2,0.2,0.3,0.4,0.4,0.7s0.1,0.5,0.1,0.8
		c0,0.2-0.1,0.2-0.2,0.2H351.3z M353.3,193.5c0.1,0,0.2,0,0.2-0.1c0-0.1,0-0.2,0-0.3c0-0.2,0-0.3-0.1-0.4c0-0.1-0.1-0.3-0.2-0.4
		c-0.1-0.1-0.2-0.2-0.3-0.3c-0.1-0.1-0.3-0.1-0.4-0.1c-0.2,0-0.4,0-0.5,0.1s-0.3,0.2-0.4,0.3c-0.1,0.1-0.2,0.2-0.2,0.4
		c-0.1,0.2-0.1,0.3-0.1,0.5c0,0.1,0,0.2,0,0.2c0,0.1,0,0.1,0,0.1H353.3z"/>
	<path class="st11" d="M358.8,191.7c0,0.1,0,0.2-0.1,0.3c0,0.1,0,0.2,0,0.4c0,0.1,0,0.3,0,0.4s0,0.3,0,0.3c0,0,0,0,0,0.1
		s-0.1,0-0.1,0c0,0-0.1,0-0.1,0c0,0,0,0-0.1,0c-0.1-0.4-0.2-0.7-0.4-0.9s-0.5-0.3-0.9-0.3c-0.3,0-0.5,0.1-0.7,0.2
		c-0.2,0.1-0.3,0.3-0.3,0.5c0,0.2,0.1,0.3,0.2,0.4c0.1,0.1,0.3,0.2,0.6,0.3c0.1,0,0.2,0.1,0.4,0.1c0.1,0.1,0.3,0.1,0.3,0.1
		c0.2,0.1,0.4,0.2,0.5,0.3s0.3,0.2,0.4,0.3s0.2,0.3,0.3,0.4c0.1,0.2,0.1,0.3,0.1,0.6c0,0.3-0.1,0.5-0.2,0.7
		c-0.1,0.2-0.3,0.3-0.5,0.5c-0.2,0.1-0.4,0.2-0.6,0.2c-0.2,0.1-0.5,0.1-0.7,0.1c-0.2,0-0.4,0-0.6-0.1c-0.2,0-0.4-0.1-0.6-0.2
		c0,0-0.1,0-0.1,0c0,0-0.1,0.1-0.1,0.2c0,0,0,0,0,0c0,0-0.1,0-0.1,0c0,0-0.1,0-0.1,0c0,0,0,0,0,0c0-0.1,0-0.1,0-0.2
		c0-0.1,0-0.2,0-0.3s0-0.2,0-0.3c0-0.1,0-0.2,0-0.3c0-0.1,0-0.2,0-0.3s0-0.1,0-0.2c0,0,0-0.1,0-0.1c0,0,0.1,0,0.1,0c0,0,0.1,0,0.1,0
		c0,0,0.1,0,0.1,0.1c0.1,0.2,0.1,0.4,0.2,0.6c0.1,0.2,0.2,0.3,0.3,0.4s0.3,0.2,0.4,0.2c0.2,0.1,0.4,0.1,0.6,0.1
		c0.3,0,0.5-0.1,0.6-0.2c0.2-0.1,0.2-0.4,0.2-0.6c0-0.2-0.1-0.4-0.2-0.6s-0.4-0.3-0.6-0.4c-0.1,0-0.2-0.1-0.3-0.1
		c-0.1,0-0.2-0.1-0.3-0.1c-0.2-0.1-0.3-0.1-0.5-0.2c-0.2-0.1-0.3-0.2-0.4-0.3c-0.1-0.1-0.2-0.2-0.3-0.4c-0.1-0.2-0.1-0.3-0.1-0.6
		c0-0.3,0.1-0.5,0.2-0.7c0.1-0.2,0.3-0.3,0.4-0.4c0.2-0.1,0.4-0.2,0.6-0.2c0.2-0.1,0.4-0.1,0.6-0.1c0.2,0,0.4,0,0.5,0.1
		c0.2,0,0.3,0.1,0.5,0.3c0,0,0.1,0,0.1,0c0,0,0.1-0.1,0.1-0.2c0,0,0,0,0.1-0.1s0.1,0,0.1,0S358.8,191.6,358.8,191.7
		C358.8,191.6,358.8,191.7,358.8,191.7z"/>
	<path class="st11" d="M361.2,195c0,0.4,0,0.7,0.1,0.9c0.1,0.2,0.3,0.3,0.5,0.3c0.2,0,0.3,0,0.5-0.1s0.3-0.1,0.3-0.2c0,0,0,0,0.1,0
		c0,0,0.1,0,0.1,0.1c0,0,0,0.1,0,0.1c0,0,0,0.1,0,0.1c-0.1,0.2-0.3,0.4-0.5,0.5s-0.5,0.1-0.8,0.1c-0.5,0-0.9-0.1-1.1-0.3
		c-0.2-0.2-0.3-0.6-0.3-1.1v-2.8c0-0.1,0-0.2,0-0.2c0-0.1,0-0.1-0.1-0.1s-0.1,0-0.2,0c-0.1,0-0.2,0-0.4,0c0,0,0,0-0.1-0.1
		c0,0,0-0.1,0-0.1c0-0.1,0-0.1,0-0.1s0-0.1,0.1-0.1c0.2,0,0.3,0,0.5-0.1c0.1,0,0.2-0.1,0.3-0.2c0.1-0.1,0.2-0.2,0.2-0.4
		c0.1-0.1,0.1-0.3,0.1-0.6c0,0,0-0.1,0.1-0.1c0.1,0,0.1,0,0.2,0c0.1,0,0.1,0,0.2,0c0,0,0.1,0,0.1,0.1v0.9c0,0.1,0,0.2,0,0.2
		c0,0,0.1,0,0.1,0h1.1c0.1,0,0.1,0,0.1,0.1c0,0.1,0,0.1,0,0.2c0,0,0,0.1,0,0.2c0,0.1-0.1,0.1-0.1,0.1h-1.2c-0.1,0-0.1,0-0.1,0
		c0,0,0,0.1,0,0.3V195z"/>
	<path class="st11" d="M365.1,195.3c0,0.2,0,0.3,0,0.5c0,0.1,0,0.2,0.1,0.3c0,0.1,0.1,0.1,0.2,0.2s0.2,0.1,0.4,0.1
		c0,0,0.1,0,0.1,0.1c0,0,0,0.1,0,0.1c0,0,0,0.1,0,0.1c0,0-0.1,0-0.1,0c-0.1,0-0.3,0-0.5,0c-0.2,0-0.4,0-0.6,0c-0.2,0-0.5,0-0.7,0
		c-0.2,0-0.4,0-0.6,0c0,0-0.1,0-0.1,0c0,0,0-0.1,0-0.1c0,0,0-0.1,0-0.1c0,0,0.1-0.1,0.1-0.1c0.2,0,0.3-0.1,0.4-0.1s0.2-0.1,0.2-0.2
		c0-0.1,0.1-0.2,0.1-0.3s0-0.3,0-0.4v-1.8c0-0.3,0-0.6,0-0.8c0-0.2,0-0.3-0.1-0.4s-0.1-0.2-0.2-0.2c-0.1,0-0.2-0.1-0.4-0.1
		c0,0-0.1,0-0.1-0.1c0,0,0-0.1,0-0.1s0-0.1,0-0.1s0.1-0.1,0.1-0.1c0.1,0,0.2,0,0.3,0c0.1,0,0.2,0,0.3,0c0.1,0,0.2,0,0.4,0
		c0.1,0,0.2,0,0.3-0.1c0.1,0,0.1,0,0.2,0c0,0,0.1,0,0.1,0c0.1,0,0.1,0,0.2,0.1c0,0.1,0,0.1,0,0.1V195.3z M364.5,190.5
		c-0.2,0-0.3-0.1-0.5-0.2c-0.1-0.1-0.2-0.3-0.2-0.4c0-0.2,0.1-0.3,0.2-0.4c0.1-0.1,0.3-0.2,0.5-0.2c0.2,0,0.3,0.1,0.4,0.2
		c0.1,0.1,0.2,0.3,0.2,0.4c0,0.2-0.1,0.3-0.2,0.4C364.8,190.4,364.7,190.5,364.5,190.5z"/>
	<path class="st11" d="M370.8,193.1c-0.5,1.2-1,2.4-1.6,3.7c0,0,0,0-0.1,0c0,0-0.1,0-0.1,0s-0.1,0-0.1,0c0,0-0.1,0-0.1,0
		c-0.3-0.6-0.6-1.3-0.9-1.9c-0.3-0.6-0.6-1.2-0.8-1.9c-0.1-0.2-0.1-0.3-0.2-0.4c-0.1-0.1-0.1-0.2-0.2-0.3c-0.1-0.1-0.1-0.1-0.2-0.2
		c-0.1,0-0.2-0.1-0.3-0.1c0,0-0.1,0-0.1-0.1c0,0,0-0.1,0-0.1c0,0,0-0.1,0-0.1c0,0,0,0,0.1,0c0.2,0,0.4,0,0.6,0c0.2,0,0.4,0,0.6,0
		c0.2,0,0.4,0,0.6,0s0.4,0,0.6,0c0,0,0.1,0,0.1,0c0,0,0,0.1,0,0.1c0,0,0,0.1,0,0.1c0,0,0,0.1-0.1,0.1c-0.2,0-0.4,0.1-0.5,0.1
		s-0.1,0.2-0.1,0.3c0,0.1,0,0.2,0.1,0.4c0.2,0.5,0.3,0.9,0.5,1.3c0.2,0.4,0.4,0.8,0.6,1.2c0,0,0,0.1,0.1,0c0,0,0.1,0,0.1,0
		c0.1-0.2,0.2-0.4,0.3-0.6c0.1-0.2,0.2-0.5,0.3-0.7s0.2-0.5,0.3-0.7c0.1-0.2,0.1-0.5,0.2-0.6c0-0.1,0-0.2,0-0.3
		c0-0.2-0.1-0.3-0.2-0.3c-0.1,0-0.2-0.1-0.3-0.1c0,0-0.1,0-0.1-0.1s0-0.1,0-0.1c0,0,0-0.1,0-0.1c0,0,0.1,0,0.1,0c0.2,0,0.3,0,0.5,0
		c0.1,0,0.3,0,0.4,0c0.2,0,0.3,0,0.5,0s0.3,0,0.4,0c0,0,0.1,0,0.1,0c0,0,0,0.1,0,0.1c0,0,0,0.1,0,0.1c0,0,0,0.1-0.1,0.1
		c-0.1,0-0.3,0-0.4,0.1c-0.1,0.1-0.2,0.1-0.3,0.2c-0.1,0.1-0.1,0.2-0.2,0.3C370.9,192.8,370.8,193,370.8,193.1z"/>
	<path class="st11" d="M376.1,195.5c0,0.3,0,0.4,0.1,0.5c0,0.1,0.1,0.2,0.3,0.2c0.1,0,0.1,0,0.2,0c0.1,0,0.1-0.1,0.2-0.1
		c0,0,0,0,0.1,0c0,0,0,0,0.1,0.1c0,0,0,0.1,0,0.1c0,0,0,0.1,0,0.1c-0.3,0.3-0.6,0.5-1,0.5c-0.2,0-0.4-0.1-0.5-0.2s-0.3-0.2-0.3-0.4
		c0,0,0,0-0.1,0c-0.2,0.2-0.4,0.3-0.7,0.4c-0.3,0.1-0.6,0.2-1,0.2c-0.4,0-0.7-0.1-1-0.3c-0.2-0.2-0.3-0.5-0.3-1
		c0-0.5,0.2-0.9,0.7-1.2c0.5-0.3,1.2-0.4,2.1-0.4c0,0,0,0,0-0.1c0,0,0-0.1,0-0.3v-0.3c0-0.2,0-0.4,0-0.5c0-0.2-0.1-0.3-0.1-0.4
		c-0.1-0.1-0.2-0.2-0.3-0.3c-0.1-0.1-0.3-0.1-0.5-0.1c-0.3,0-0.5,0.1-0.7,0.2c-0.2,0.1-0.3,0.2-0.3,0.4c0,0.1,0,0.2,0.1,0.2
		c0.1,0.1,0.1,0.2,0.1,0.2c0,0.1-0.1,0.2-0.2,0.3c-0.1,0.1-0.2,0.1-0.4,0.1c-0.2,0-0.3-0.1-0.4-0.2c-0.1-0.1-0.1-0.2-0.1-0.4
		c0-0.2,0.1-0.4,0.2-0.5c0.1-0.2,0.2-0.3,0.4-0.4c0.2-0.1,0.4-0.2,0.6-0.3c0.2-0.1,0.5-0.1,0.7-0.1c0.6,0,1,0.1,1.4,0.4
		c0.3,0.3,0.5,0.7,0.5,1.4V195.5z M375.1,194.4c0-0.1,0-0.1,0-0.1c0,0,0,0-0.1,0c-0.6,0.1-1,0.2-1.3,0.4c-0.3,0.2-0.4,0.5-0.4,0.8
		c0,0.2,0.1,0.4,0.2,0.6c0.1,0.2,0.3,0.2,0.5,0.2c0.2,0,0.3,0,0.5-0.1c0.2-0.1,0.4-0.2,0.5-0.3c0.1-0.1,0.1-0.1,0.1-0.2V194.4z"/>
	<path class="st11" d="M378.5,191.1c0-0.3,0-0.6,0-0.8s-0.1-0.3-0.1-0.4s-0.1-0.2-0.3-0.2s-0.3-0.1-0.5-0.1c0,0-0.1,0-0.1-0.1
		c0,0,0-0.1,0-0.1c0,0,0-0.1,0-0.1c0,0,0-0.1,0.1-0.1c0.2,0,0.5,0,0.8-0.1c0.3,0,0.6-0.1,0.9-0.2c0.1,0,0.2,0,0.2,0
		c0,0,0.1,0.1,0.1,0.1v6.2c0,0.2,0,0.3,0,0.5c0,0.1,0,0.2,0.1,0.3c0,0.1,0.1,0.1,0.2,0.2c0.1,0,0.3,0.1,0.4,0.1c0,0,0.1,0,0.1,0.1
		c0,0,0,0.1,0,0.1c0,0,0,0.1,0,0.1c0,0-0.1,0-0.1,0c-0.2,0-0.4,0-0.6,0c-0.2,0-0.4,0-0.7,0c-0.2,0-0.5,0-0.7,0c-0.2,0-0.5,0-0.7,0
		c0,0-0.1,0-0.1,0c0,0,0-0.1,0-0.1c0,0,0-0.1,0-0.1c0,0,0.1-0.1,0.1-0.1c0.2,0,0.4-0.1,0.5-0.1c0.1,0,0.2-0.1,0.2-0.2
		c0.1-0.1,0.1-0.2,0.1-0.3s0-0.3,0-0.4V191.1z"/>
	<path class="st11" d="M386.3,195.1c0,0.2,0,0.4,0.1,0.6s0.1,0.3,0.2,0.4c0.1,0.1,0.2,0.1,0.4,0.2s0.3,0.1,0.6,0.1
		c0.1,0,0.1,0,0.1,0.1c0,0,0,0.1,0,0.1c0,0,0,0.1,0,0.1s-0.1,0.1-0.1,0.1c-0.4,0-0.7,0-1,0c-0.3,0-0.6,0-0.8,0c-0.3,0-0.6,0-0.8,0
		c-0.3,0-0.5,0-0.8,0c0,0-0.1,0-0.1-0.1s0-0.1,0-0.1s0-0.1,0-0.1c0,0,0.1-0.1,0.1-0.1c0.2,0,0.4-0.1,0.5-0.1s0.2-0.1,0.3-0.2
		c0.1-0.1,0.1-0.2,0.1-0.3c0-0.1,0-0.3,0-0.5v-4.1c0-0.2,0-0.3,0-0.5s0-0.3-0.1-0.4c0-0.1-0.1-0.3-0.2-0.3c-0.1-0.1-0.2-0.2-0.3-0.2
		c-0.1,0-0.2,0-0.3,0c-0.1,0-0.2,0-0.3,0c0,0-0.1,0-0.1-0.1s0-0.1,0-0.1s0-0.1,0-0.1c0,0,0.1-0.1,0.1-0.1c0.2,0,0.5,0,0.7,0
		c0.2,0,0.4,0,0.7,0c0.4,0,0.8,0,1.1,0c0.3,0,0.6,0,0.8,0c0.3,0,0.6,0,0.9,0.1c0.3,0.1,0.5,0.2,0.7,0.3c0.2,0.2,0.4,0.3,0.5,0.6
		c0.1,0.2,0.2,0.5,0.2,0.9c0,0.4-0.1,0.8-0.2,1c-0.2,0.3-0.4,0.5-0.7,0.7c-0.3,0.2-0.6,0.3-1,0.4c-0.4,0.1-0.8,0.1-1.2,0.1
		c-0.1,0-0.1,0-0.2,0c0,0,0,0.1,0,0.2V195.1z M386.3,192.8c0,0.1,0,0.1,0,0.1c0,0,0.1,0,0.2,0c0.4,0,0.7,0,0.9-0.1
		c0.2-0.1,0.4-0.1,0.6-0.3c0.1-0.1,0.3-0.3,0.3-0.5c0.1-0.2,0.1-0.5,0.1-0.8c0-0.6-0.1-1-0.3-1.2c-0.2-0.2-0.6-0.4-1.1-0.4
		c-0.3,0-0.5,0-0.6,0.1s-0.1,0.2-0.1,0.5V192.8z"/>
	<path class="st11" d="M391.4,193.9C391.4,193.9,391.4,193.9,391.4,193.9c-0.1,0.1-0.1,0.1-0.1,0.1c0,0.4,0,0.7,0.1,1
		c0.1,0.3,0.2,0.5,0.4,0.6s0.3,0.3,0.5,0.4c0.2,0.1,0.4,0.1,0.7,0.1c0.2,0,0.5,0,0.7-0.1c0.2,0,0.4-0.1,0.6-0.3c0,0,0.1,0,0.1,0
		c0,0,0.1,0,0.1,0.1c0,0,0,0.1,0,0.1c0,0,0,0.1,0,0.1c-0.2,0.3-0.5,0.5-0.8,0.6s-0.7,0.2-1.1,0.2c-0.4,0-0.8-0.1-1.1-0.2
		c-0.3-0.1-0.6-0.3-0.8-0.6s-0.4-0.5-0.5-0.8s-0.1-0.7-0.1-1c0-0.4,0.1-0.7,0.2-1s0.3-0.6,0.5-0.8c0.2-0.2,0.5-0.4,0.8-0.6
		c0.3-0.1,0.6-0.2,1-0.2c0.3,0,0.6,0.1,0.8,0.2c0.3,0.1,0.5,0.3,0.6,0.4c0.2,0.2,0.3,0.4,0.4,0.7s0.1,0.5,0.1,0.8
		c0,0.2-0.1,0.2-0.2,0.2H391.4z M393.4,193.5c0.1,0,0.2,0,0.2-0.1c0-0.1,0-0.2,0-0.3c0-0.2,0-0.3-0.1-0.4c0-0.1-0.1-0.3-0.2-0.4
		c-0.1-0.1-0.2-0.2-0.3-0.3c-0.1-0.1-0.3-0.1-0.4-0.1c-0.2,0-0.4,0-0.5,0.1s-0.3,0.2-0.4,0.3c-0.1,0.1-0.2,0.2-0.2,0.4
		c-0.1,0.2-0.1,0.3-0.1,0.5c0,0.1,0,0.2,0,0.2c0,0.1,0,0.1,0,0.1H393.4z"/>
	<path class="st11" d="M397.3,195.3c0,0.2,0,0.3,0,0.5c0,0.1,0,0.2,0.1,0.3c0.1,0.1,0.2,0.1,0.3,0.2c0.1,0,0.3,0.1,0.6,0.1
		c0,0,0.1,0,0.1,0.1c0,0,0,0.1,0,0.1c0,0,0,0.1,0,0.1c0,0-0.1,0-0.1,0c-0.3,0-0.6,0-0.8,0c-0.2,0-0.5,0-0.7,0c-0.2,0-0.5,0-0.7,0
		c-0.2,0-0.5,0-0.7,0c0,0-0.1,0-0.1,0c0,0,0-0.1,0-0.1c0,0,0-0.1,0-0.1c0,0,0.1-0.1,0.1-0.1c0.2,0,0.4-0.1,0.5-0.1
		c0.1,0,0.2-0.1,0.2-0.2c0.1-0.1,0.1-0.2,0.1-0.3s0-0.3,0-0.4v-1.6c0-0.4,0-0.6,0-0.9c0-0.2,0-0.4-0.1-0.5c-0.1-0.1-0.1-0.2-0.3-0.2
		c-0.1,0-0.3-0.1-0.5-0.1c0,0-0.1,0-0.1-0.1c0,0,0-0.1,0-0.1s0-0.1,0-0.1c0,0,0-0.1,0.1-0.1c0.1,0,0.4,0,0.6,0
		c0.3,0,0.5-0.1,0.8-0.1c0.1,0,0.2,0,0.3,0c0.1,0,0.1,0.1,0.1,0.2l0,0.7c0,0,0,0,0,0c0,0,0,0,0,0c0.2-0.3,0.3-0.6,0.6-0.7
		c0.2-0.2,0.5-0.3,0.9-0.3c0.3,0,0.5,0.1,0.7,0.2c0.1,0.2,0.2,0.4,0.2,0.6c0,0.1,0,0.2-0.1,0.3c-0.1,0.1-0.2,0.2-0.4,0.2
		c-0.2,0-0.3,0-0.4-0.1s-0.1-0.2-0.1-0.3c0-0.1,0-0.2-0.1-0.2s-0.1-0.1-0.3-0.1c-0.1,0-0.3,0-0.4,0.1c-0.1,0.1-0.2,0.2-0.3,0.3
		c-0.1,0.1-0.1,0.3-0.2,0.4c0,0.1-0.1,0.2-0.1,0.3V195.3z"/>
	<path class="st11" d="M401.8,195.4c0,0.2,0,0.3,0,0.5s0.1,0.2,0.1,0.3c0.1,0.1,0.2,0.1,0.3,0.2c0.1,0,0.3,0.1,0.6,0.1
		c0,0,0.1,0,0.1,0.1c0,0,0,0.1,0,0.1c0,0,0,0.1,0,0.1c0,0-0.1,0-0.1,0c-0.3,0-0.6,0-0.8,0c-0.2,0-0.5,0-0.7,0c-0.2,0-0.5,0-0.7,0
		c-0.2,0-0.5,0-0.7,0c0,0-0.1,0-0.1,0c0,0,0-0.1,0-0.1c0,0,0-0.1,0-0.1c0,0,0.1-0.1,0.1-0.1c0.2,0,0.4-0.1,0.5-0.1
		c0.1,0,0.2-0.1,0.2-0.2s0.1-0.2,0.1-0.3c0-0.1,0-0.3,0-0.5v-3c0-0.1,0-0.2,0-0.2c0,0-0.1,0-0.2,0H400c0,0-0.1,0-0.1-0.1
		c0,0,0-0.1,0-0.1c0-0.1,0-0.1,0-0.1c0,0,0.1-0.1,0.1-0.1l0.6-0.1c0,0,0.1,0,0.1,0c0,0,0,0,0,0c0,0,0-0.1,0-0.1c0-0.1,0-0.2,0-0.3
		c0-0.3,0-0.6,0.1-0.9c0.1-0.3,0.2-0.5,0.4-0.7c0.2-0.2,0.4-0.4,0.7-0.5s0.6-0.2,1-0.2c0.2,0,0.4,0,0.5,0.1s0.3,0.1,0.5,0.2
		c0.1,0.1,0.3,0.2,0.3,0.3c0.1,0.1,0.1,0.3,0.1,0.5c0,0.1-0.1,0.2-0.2,0.3s-0.2,0.1-0.4,0.1c-0.1,0-0.2,0-0.3-0.1
		c-0.1-0.1-0.1-0.2-0.1-0.3c0-0.1,0-0.2,0-0.2c0,0,0-0.1,0-0.1c0-0.1-0.1-0.3-0.2-0.3c-0.1-0.1-0.3-0.1-0.5-0.1
		c-0.3,0-0.5,0.1-0.7,0.2c-0.2,0.1-0.3,0.3-0.3,0.5c-0.1,0.2-0.1,0.4-0.1,0.6c0,0.2,0,0.4,0,0.6v0.2c0,0.1,0,0.1,0,0.2
		c0,0,0.1,0,0.1,0h1.1c0,0,0.1,0,0.1,0.1c0,0,0,0.1,0,0.2s0,0.1,0,0.2c0,0-0.1,0.1-0.1,0.1h-1.1c-0.1,0-0.1,0-0.1,0c0,0,0,0.1,0,0.2
		V195.4z"/>
	<path class="st11" d="M408.8,194c0,0.4-0.1,0.8-0.2,1.2c-0.1,0.3-0.3,0.6-0.5,0.9s-0.5,0.4-0.8,0.5c-0.3,0.1-0.7,0.2-1.1,0.2
		c-0.3,0-0.7-0.1-1-0.2c-0.3-0.1-0.5-0.3-0.8-0.5c-0.2-0.2-0.4-0.5-0.5-0.8c-0.1-0.3-0.2-0.7-0.2-1.2c0-0.4,0.1-0.7,0.2-1
		c0.1-0.3,0.3-0.6,0.5-0.8c0.2-0.2,0.5-0.4,0.8-0.5c0.3-0.1,0.7-0.2,1-0.2c0.4,0,0.7,0.1,1,0.2s0.6,0.3,0.8,0.5
		c0.2,0.2,0.4,0.5,0.5,0.8C408.7,193.2,408.8,193.6,408.8,194z M407.6,194.1c0-0.3,0-0.5-0.1-0.8c0-0.3-0.1-0.5-0.2-0.7
		c-0.1-0.2-0.2-0.4-0.4-0.5c-0.2-0.1-0.4-0.2-0.6-0.2c-0.3,0-0.5,0.1-0.7,0.2c-0.2,0.1-0.3,0.3-0.4,0.5s-0.2,0.4-0.2,0.7
		c0,0.3-0.1,0.5-0.1,0.8c0,0.2,0,0.5,0.1,0.8s0.1,0.5,0.2,0.7c0.1,0.2,0.2,0.4,0.4,0.5c0.2,0.1,0.4,0.2,0.7,0.2
		c0.3,0,0.5-0.1,0.7-0.2c0.2-0.1,0.3-0.3,0.4-0.5c0.1-0.2,0.2-0.5,0.2-0.7S407.6,194.4,407.6,194.1z"/>
	<path class="st11" d="M411.3,195.3c0,0.2,0,0.3,0,0.5c0,0.1,0,0.2,0.1,0.3c0.1,0.1,0.2,0.1,0.3,0.2c0.1,0,0.3,0.1,0.6,0.1
		c0,0,0.1,0,0.1,0.1c0,0,0,0.1,0,0.1c0,0,0,0.1,0,0.1c0,0-0.1,0-0.1,0c-0.3,0-0.6,0-0.8,0c-0.2,0-0.5,0-0.7,0c-0.2,0-0.5,0-0.7,0
		c-0.2,0-0.5,0-0.7,0c0,0-0.1,0-0.1,0c0,0,0-0.1,0-0.1c0,0,0-0.1,0-0.1c0,0,0.1-0.1,0.1-0.1c0.2,0,0.4-0.1,0.5-0.1
		c0.1,0,0.2-0.1,0.2-0.2c0.1-0.1,0.1-0.2,0.1-0.3s0-0.3,0-0.4v-1.6c0-0.4,0-0.6,0-0.9c0-0.2,0-0.4-0.1-0.5c-0.1-0.1-0.1-0.2-0.3-0.2
		c-0.1,0-0.3-0.1-0.5-0.1c0,0-0.1,0-0.1-0.1c0,0,0-0.1,0-0.1s0-0.1,0-0.1c0,0,0-0.1,0.1-0.1c0.1,0,0.4,0,0.6,0
		c0.3,0,0.5-0.1,0.8-0.1c0.1,0,0.2,0,0.3,0c0.1,0,0.1,0.1,0.1,0.2l0,0.7c0,0,0,0,0,0c0,0,0,0,0,0c0.2-0.3,0.3-0.6,0.6-0.7
		c0.2-0.2,0.5-0.3,0.9-0.3c0.3,0,0.5,0.1,0.7,0.2c0.1,0.2,0.2,0.4,0.2,0.6c0,0.1,0,0.2-0.1,0.3c-0.1,0.1-0.2,0.2-0.4,0.2
		c-0.2,0-0.3,0-0.4-0.1s-0.1-0.2-0.1-0.3c0-0.1,0-0.2-0.1-0.2s-0.1-0.1-0.3-0.1c-0.1,0-0.3,0-0.4,0.1c-0.1,0.1-0.2,0.2-0.3,0.3
		c-0.1,0.1-0.1,0.3-0.2,0.4c0,0.1-0.1,0.2-0.1,0.3V195.3z"/>
	<path class="st11" d="M415.7,195.3c0,0.2,0,0.3,0,0.5c0,0.1,0,0.2,0.1,0.3c0,0.1,0.1,0.1,0.2,0.2c0.1,0,0.2,0.1,0.4,0.1
		c0,0,0.1,0,0.1,0.1c0,0,0,0.1,0,0.1c0,0,0,0.1,0,0.1c0,0-0.1,0-0.1,0c-0.1,0-0.3,0-0.5,0c-0.2,0-0.4,0-0.7,0c-0.2,0-0.5,0-0.7,0
		c-0.2,0-0.4,0-0.6,0c0,0-0.1,0-0.1,0c0,0,0-0.1,0-0.1c0,0,0-0.1,0-0.1c0,0,0.1-0.1,0.1-0.1c0.2,0,0.3-0.1,0.4-0.1
		c0.1,0,0.2-0.1,0.2-0.2c0-0.1,0.1-0.2,0.1-0.3c0-0.1,0-0.3,0-0.4v-1.6c0-0.3,0-0.6,0-0.8c0-0.2,0-0.4-0.1-0.5s-0.1-0.2-0.2-0.2
		c-0.1,0-0.2-0.1-0.4-0.1c0,0-0.1,0-0.1,0c0,0,0-0.1,0-0.1c0,0,0-0.1,0-0.1c0,0,0,0,0.1,0c0.1,0,0.3,0,0.5-0.1s0.5-0.1,0.8-0.2
		c0,0,0,0,0.1,0c0,0,0.1,0,0.1,0c0.1,0,0.1,0,0.2,0.1c0.1,0.1,0.1,0.1,0.1,0.2l0,0.5c0,0,0,0,0,0c0-0.1,0.1-0.1,0.2-0.2
		c0.1-0.1,0.2-0.2,0.3-0.3c0.1-0.1,0.3-0.2,0.5-0.3c0.2-0.1,0.4-0.1,0.7-0.1c0.5,0,0.8,0.1,1.1,0.3s0.5,0.4,0.6,0.8
		c0-0.1,0.1-0.2,0.2-0.3c0.1-0.1,0.2-0.2,0.4-0.4c0.2-0.1,0.3-0.2,0.5-0.3c0.2-0.1,0.4-0.1,0.7-0.1c0.4,0,0.6,0.1,0.9,0.2
		c0.2,0.1,0.4,0.3,0.5,0.4c0.1,0.2,0.2,0.4,0.3,0.7s0.1,0.5,0.1,0.8v1.7c0,0.2,0,0.3,0,0.5c0,0.1,0,0.2,0.1,0.3
		c0,0.1,0.1,0.1,0.2,0.2c0.1,0,0.2,0.1,0.4,0.1c0,0,0.1,0,0.1,0.1c0,0,0,0.1,0,0.1c0,0,0,0.1,0,0.1c0,0-0.1,0-0.1,0
		c-0.1,0-0.2,0-0.5,0c-0.2,0-0.4,0-0.6,0c-0.2,0-0.5,0-0.7,0c-0.2,0-0.4,0-0.6,0c0,0-0.1,0-0.1,0c0,0,0-0.1,0-0.1c0,0,0-0.1,0-0.1
		c0,0,0.1-0.1,0.1-0.1c0.2,0,0.3-0.1,0.4-0.1c0.1,0,0.2-0.1,0.2-0.2c0-0.1,0.1-0.2,0.1-0.3s0-0.3,0-0.4V194c0-0.2,0-0.4,0-0.6
		c0-0.2-0.1-0.4-0.1-0.6c-0.1-0.2-0.2-0.3-0.3-0.4c-0.1-0.1-0.3-0.2-0.5-0.2c-0.2,0-0.4,0-0.6,0.1c-0.2,0.1-0.3,0.2-0.5,0.4
		c-0.1,0.1-0.2,0.3-0.3,0.5s-0.1,0.3-0.1,0.5v1.7c0,0.2,0,0.4,0,0.5s0,0.2,0.1,0.3s0.1,0.1,0.2,0.2c0.1,0,0.2,0.1,0.4,0.1
		c0,0,0.1,0,0.1,0.1c0,0,0,0.1,0,0.1c0,0,0,0.1,0,0.1c0,0-0.1,0-0.1,0c-0.1,0-0.2,0-0.5,0c-0.2,0-0.4,0-0.6,0c-0.2,0-0.5,0-0.7,0
		c-0.2,0-0.4,0-0.5,0c0,0-0.1,0-0.1,0c0,0,0-0.1,0-0.1c0,0,0-0.1,0-0.1c0,0,0.1-0.1,0.1-0.1c0.2,0,0.3,0,0.4-0.1
		c0.1,0,0.2-0.1,0.2-0.2c0-0.1,0.1-0.2,0.1-0.3s0-0.3,0-0.5V194c0-0.2,0-0.4,0-0.6c0-0.2-0.1-0.4-0.1-0.6c-0.1-0.2-0.2-0.3-0.3-0.4
		c-0.1-0.1-0.3-0.2-0.5-0.2c-0.2,0-0.5,0-0.6,0.1c-0.2,0.1-0.3,0.2-0.4,0.4c-0.1,0.1-0.2,0.3-0.3,0.5c-0.1,0.2-0.1,0.4-0.1,0.5
		V195.3z"/>
	<path class="st11" d="M425.3,193.9C425.2,193.9,425.2,193.9,425.3,193.9c-0.1,0.1-0.1,0.1-0.1,0.1c0,0.4,0,0.7,0.1,1
		c0.1,0.3,0.2,0.5,0.4,0.6s0.3,0.3,0.5,0.4c0.2,0.1,0.4,0.1,0.7,0.1c0.2,0,0.5,0,0.7-0.1c0.2,0,0.4-0.1,0.6-0.3c0,0,0.1,0,0.1,0
		c0,0,0.1,0,0.1,0.1c0,0,0,0.1,0,0.1c0,0,0,0.1,0,0.1c-0.2,0.3-0.5,0.5-0.8,0.6s-0.7,0.2-1.1,0.2c-0.4,0-0.8-0.1-1.1-0.2
		c-0.3-0.1-0.6-0.3-0.8-0.6s-0.4-0.5-0.5-0.8s-0.1-0.7-0.1-1c0-0.4,0.1-0.7,0.2-1s0.3-0.6,0.5-0.8c0.2-0.2,0.5-0.4,0.8-0.6
		c0.3-0.1,0.6-0.2,1-0.2c0.3,0,0.6,0.1,0.8,0.2c0.3,0.1,0.5,0.3,0.6,0.4c0.2,0.2,0.3,0.4,0.4,0.7s0.1,0.5,0.1,0.8
		c0,0.2-0.1,0.2-0.2,0.2H425.3z M427.3,193.5c0.1,0,0.2,0,0.2-0.1c0-0.1,0-0.2,0-0.3c0-0.2,0-0.3-0.1-0.4c0-0.1-0.1-0.3-0.2-0.4
		c-0.1-0.1-0.2-0.2-0.3-0.3c-0.1-0.1-0.3-0.1-0.4-0.1c-0.2,0-0.4,0-0.5,0.1s-0.3,0.2-0.4,0.3c-0.1,0.1-0.2,0.2-0.2,0.4
		c-0.1,0.2-0.1,0.3-0.1,0.5c0,0.1,0,0.2,0,0.2c0,0.1,0,0.1,0,0.1H427.3z"/>
	<path class="st11" d="M431.1,195.3c0,0.2,0,0.3,0,0.5c0,0.1,0,0.2,0.1,0.3c0.1,0.1,0.2,0.1,0.3,0.2c0.1,0,0.3,0.1,0.6,0.1
		c0,0,0.1,0,0.1,0.1c0,0,0,0.1,0,0.1c0,0,0,0.1,0,0.1c0,0-0.1,0-0.1,0c-0.3,0-0.6,0-0.8,0c-0.2,0-0.5,0-0.7,0c-0.2,0-0.5,0-0.7,0
		c-0.2,0-0.5,0-0.7,0c0,0-0.1,0-0.1,0c0,0,0-0.1,0-0.1c0,0,0-0.1,0-0.1c0,0,0.1-0.1,0.1-0.1c0.2,0,0.4-0.1,0.5-0.1
		c0.1,0,0.2-0.1,0.2-0.2c0.1-0.1,0.1-0.2,0.1-0.3s0-0.3,0-0.4v-1.6c0-0.4,0-0.6,0-0.9c0-0.2,0-0.4-0.1-0.5c-0.1-0.1-0.1-0.2-0.3-0.2
		c-0.1,0-0.3-0.1-0.5-0.1c0,0-0.1,0-0.1-0.1c0,0,0-0.1,0-0.1s0-0.1,0-0.1c0,0,0-0.1,0.1-0.1c0.1,0,0.4,0,0.6,0
		c0.3,0,0.5-0.1,0.8-0.1c0.1,0,0.2,0,0.3,0c0.1,0,0.1,0.1,0.1,0.2l0,0.7c0,0,0,0,0,0c0,0,0,0,0,0c0.2-0.3,0.3-0.6,0.6-0.7
		c0.2-0.2,0.5-0.3,0.9-0.3c0.3,0,0.5,0.1,0.7,0.2c0.1,0.2,0.2,0.4,0.2,0.6c0,0.1,0,0.2-0.1,0.3c-0.1,0.1-0.2,0.2-0.4,0.2
		c-0.2,0-0.3,0-0.4-0.1s-0.1-0.2-0.1-0.3c0-0.1,0-0.2-0.1-0.2s-0.1-0.1-0.3-0.1c-0.1,0-0.3,0-0.4,0.1c-0.1,0.1-0.2,0.2-0.3,0.3
		c-0.1,0.1-0.1,0.3-0.2,0.4c0,0.1-0.1,0.2-0.1,0.3V195.3z"/>
	<path class="st11" d="M437.2,191.7c0,0.1,0,0.2-0.1,0.3c0,0.1,0,0.2,0,0.4c0,0.1,0,0.3,0,0.4s0,0.3,0,0.3c0,0,0,0,0,0.1
		s-0.1,0-0.1,0c0,0-0.1,0-0.1,0c0,0,0,0-0.1,0c-0.1-0.4-0.2-0.7-0.4-0.9s-0.5-0.3-0.9-0.3c-0.3,0-0.5,0.1-0.7,0.2
		c-0.2,0.1-0.3,0.3-0.3,0.5c0,0.2,0.1,0.3,0.2,0.4c0.1,0.1,0.3,0.2,0.6,0.3c0.1,0,0.2,0.1,0.4,0.1c0.1,0.1,0.3,0.1,0.3,0.1
		c0.2,0.1,0.4,0.2,0.5,0.3s0.3,0.2,0.4,0.3s0.2,0.3,0.3,0.4c0.1,0.2,0.1,0.3,0.1,0.6c0,0.3-0.1,0.5-0.2,0.7
		c-0.1,0.2-0.3,0.3-0.5,0.5c-0.2,0.1-0.4,0.2-0.6,0.2c-0.2,0.1-0.5,0.1-0.7,0.1c-0.2,0-0.4,0-0.6-0.1c-0.2,0-0.4-0.1-0.6-0.2
		c0,0-0.1,0-0.1,0c0,0-0.1,0.1-0.1,0.2c0,0,0,0,0,0c0,0-0.1,0-0.1,0c0,0-0.1,0-0.1,0c0,0,0,0,0,0c0-0.1,0-0.1,0-0.2
		c0-0.1,0-0.2,0-0.3s0-0.2,0-0.3c0-0.1,0-0.2,0-0.3c0-0.1,0-0.2,0-0.3s0-0.1,0-0.2c0,0,0-0.1,0-0.1c0,0,0.1,0,0.1,0c0,0,0.1,0,0.1,0
		c0,0,0.1,0,0.1,0.1c0.1,0.2,0.1,0.4,0.2,0.6c0.1,0.2,0.2,0.3,0.3,0.4s0.3,0.2,0.4,0.2c0.2,0.1,0.4,0.1,0.6,0.1
		c0.3,0,0.5-0.1,0.6-0.2c0.2-0.1,0.2-0.4,0.2-0.6c0-0.2-0.1-0.4-0.2-0.6s-0.4-0.3-0.6-0.4c-0.1,0-0.2-0.1-0.3-0.1
		c-0.1,0-0.2-0.1-0.3-0.1c-0.2-0.1-0.3-0.1-0.5-0.2c-0.2-0.1-0.3-0.2-0.4-0.3c-0.1-0.1-0.2-0.2-0.3-0.4c-0.1-0.2-0.1-0.3-0.1-0.6
		c0-0.3,0.1-0.5,0.2-0.7c0.1-0.2,0.3-0.3,0.4-0.4c0.2-0.1,0.4-0.2,0.6-0.2c0.2-0.1,0.4-0.1,0.6-0.1c0.2,0,0.4,0,0.5,0.1
		c0.2,0,0.3,0.1,0.5,0.3c0,0,0.1,0,0.1,0c0,0,0.1-0.1,0.1-0.2c0,0,0,0,0.1-0.1s0.1,0,0.1,0S437.1,191.6,437.2,191.7
		C437.2,191.6,437.2,191.7,437.2,191.7z"/>
	<path class="st11" d="M348.2,206.2c0,0.2,0,0.4,0,0.6s0.1,0.2,0.1,0.3c0.1,0.1,0.2,0.1,0.3,0.2c0.1,0,0.3,0.1,0.6,0.1
		c0,0,0.1,0,0.1,0.1c0,0,0,0.1,0,0.1s0,0.1,0,0.1c0,0-0.1,0.1-0.1,0.1c-0.3,0-0.6,0-0.8,0c-0.3,0-0.5,0-0.8,0c-0.3,0-0.6,0-0.9,0
		s-0.6,0-0.8,0c0,0-0.1,0-0.1-0.1c0,0,0-0.1,0-0.1s0-0.1,0-0.1c0,0,0.1-0.1,0.1-0.1c0.2,0,0.4,0,0.5-0.1c0.1,0,0.2-0.1,0.3-0.2
		c0.1-0.1,0.1-0.2,0.2-0.3c0-0.1,0-0.3,0-0.6v-4.9c0-0.3-0.1-0.4-0.2-0.5c-0.1-0.1-0.4-0.1-0.7-0.1c-0.3,0-0.5,0-0.7,0.1
		c-0.2,0-0.3,0.1-0.4,0.2s-0.2,0.3-0.3,0.4c-0.1,0.2-0.1,0.4-0.2,0.7c0,0,0,0.1-0.1,0.1c0,0-0.1,0-0.1,0c0,0-0.1,0-0.1,0
		c0,0,0,0,0-0.1c0-0.3,0-0.5,0-0.8c0-0.3,0-0.6,0-0.8c0-0.1,0.1-0.1,0.2-0.2s0.2,0,0.3,0h5.9c0.1,0,0.3,0,0.3,0
		c0.1,0,0.1,0.1,0.1,0.2c0,0.1,0,0.2,0,0.3c0,0.1,0,0.3,0,0.4c0,0.2,0,0.3,0,0.5c0,0.2,0,0.3,0,0.5c0,0,0,0.1-0.1,0.1
		c0,0-0.1,0-0.1,0c0,0-0.1,0-0.1,0c0,0-0.1,0-0.1-0.1c0-0.3-0.1-0.5-0.2-0.7s-0.2-0.3-0.3-0.4s-0.3-0.2-0.4-0.2
		c-0.2,0-0.4-0.1-0.6-0.1c-0.3,0-0.6,0-0.7,0.1c-0.1,0.1-0.2,0.2-0.2,0.5V206.2z"/>
	<path class="st11" d="M353.2,203.3C353.2,203.3,353.3,203.3,353.2,203.3c0.2-0.2,0.5-0.4,0.8-0.6s0.6-0.2,0.8-0.2
		c0.6,0,1.1,0.2,1.3,0.5c0.3,0.3,0.4,0.8,0.4,1.3v2c0,0.2,0,0.3,0,0.5c0,0.1,0,0.2,0.1,0.3c0,0.1,0.1,0.1,0.2,0.2
		c0.1,0,0.2,0.1,0.4,0.1c0,0,0.1,0,0.1,0.1s0,0.1,0,0.1c0,0,0,0.1,0,0.1c0,0-0.1,0-0.1,0c-0.1,0-0.3,0-0.5,0c-0.2,0-0.4,0-0.6,0
		c-0.2,0-0.5,0-0.7,0c-0.2,0-0.4,0-0.6,0c0,0-0.1,0-0.1,0c0,0,0-0.1,0-0.1c0,0,0-0.1,0-0.1c0,0,0.1-0.1,0.1-0.1
		c0.2,0,0.3-0.1,0.4-0.1s0.2-0.1,0.2-0.2c0-0.1,0.1-0.2,0.1-0.3c0-0.1,0-0.3,0-0.5v-1.7c0-0.2,0-0.4,0-0.6c0-0.2-0.1-0.4-0.1-0.5
		c-0.1-0.2-0.2-0.3-0.3-0.4c-0.1-0.1-0.3-0.1-0.5-0.1c-0.2,0-0.4,0-0.6,0.1s-0.3,0.2-0.4,0.3c-0.1,0.1-0.2,0.3-0.2,0.4
		c-0.1,0.1-0.1,0.3-0.1,0.4v1.9c0,0.2,0,0.4,0,0.5s0,0.2,0.1,0.3s0.1,0.1,0.2,0.2c0.1,0,0.2,0.1,0.3,0.1c0.1,0,0.1,0,0.1,0.1
		s0,0.1,0,0.1c0,0,0,0.1,0,0.1c0,0-0.1,0-0.1,0c-0.1,0-0.2,0-0.4,0c-0.2,0-0.4,0-0.6,0c-0.2,0-0.5,0-0.7,0c-0.2,0-0.4,0-0.6,0
		c0,0-0.1,0-0.1,0c0,0,0-0.1,0-0.1c0,0,0-0.1,0-0.1c0,0,0.1-0.1,0.1-0.1c0.2,0,0.3-0.1,0.4-0.1s0.2-0.1,0.2-0.2s0.1-0.2,0.1-0.3
		c0-0.1,0-0.3,0-0.5v-4.3c0-0.3,0-0.6,0-0.8c0-0.2-0.1-0.3-0.1-0.4s-0.1-0.2-0.3-0.2c-0.1,0-0.3-0.1-0.5-0.1c0,0-0.1,0-0.1-0.1
		c0,0,0-0.1,0-0.1c0,0,0-0.1,0-0.1c0,0,0-0.1,0.1-0.1c0.2,0,0.5,0,0.8-0.1c0.3,0,0.6-0.1,0.9-0.2c0.1,0,0.2,0,0.2,0
		c0,0,0.1,0.1,0.1,0.1V203.3z"/>
	<path class="st11" d="M359.3,204.9C359.2,204.9,359.2,204.9,359.3,204.9c-0.1,0.1-0.1,0.1-0.1,0.1c0,0.4,0,0.7,0.1,1
		c0.1,0.3,0.2,0.5,0.4,0.6s0.3,0.3,0.5,0.4c0.2,0.1,0.4,0.1,0.7,0.1c0.2,0,0.5,0,0.7-0.1c0.2,0,0.4-0.1,0.6-0.3c0,0,0.1,0,0.1,0
		c0,0,0.1,0,0.1,0.1c0,0,0,0.1,0,0.1c0,0,0,0.1,0,0.1c-0.2,0.3-0.5,0.5-0.8,0.6s-0.7,0.2-1.1,0.2c-0.4,0-0.8-0.1-1.1-0.2
		c-0.3-0.1-0.6-0.3-0.8-0.6s-0.4-0.5-0.5-0.8s-0.1-0.7-0.1-1c0-0.4,0.1-0.7,0.2-1s0.3-0.6,0.5-0.8c0.2-0.2,0.5-0.4,0.8-0.6
		c0.3-0.1,0.6-0.2,1-0.2c0.3,0,0.6,0.1,0.8,0.2c0.3,0.1,0.5,0.3,0.6,0.4c0.2,0.2,0.3,0.4,0.4,0.7s0.1,0.5,0.1,0.8
		c0,0.2-0.1,0.2-0.2,0.2H359.3z M361.3,204.5c0.1,0,0.2,0,0.2-0.1c0-0.1,0-0.2,0-0.3c0-0.2,0-0.3-0.1-0.4c0-0.1-0.1-0.3-0.2-0.4
		c-0.1-0.1-0.2-0.2-0.3-0.3c-0.1-0.1-0.3-0.1-0.4-0.1c-0.2,0-0.4,0-0.5,0.1s-0.3,0.2-0.4,0.3c-0.1,0.1-0.2,0.2-0.2,0.4
		c-0.1,0.2-0.1,0.3-0.1,0.5c0,0.1,0,0.2,0,0.2c0,0.1,0,0.1,0,0.1H361.3z"/>
	<path class="st11" d="M367.4,202.1c0-0.2,0-0.3,0-0.5c0-0.2,0-0.3-0.1-0.4c0-0.1-0.1-0.2-0.2-0.3c-0.1-0.1-0.2-0.2-0.3-0.2
		c-0.1,0-0.2,0-0.3-0.1s-0.2,0-0.3,0c0,0-0.1,0-0.1-0.1s0-0.1,0-0.1s0-0.1,0-0.1c0,0,0.1-0.1,0.1-0.1c0.2,0,0.5,0,0.7,0
		c0.2,0,0.4,0,0.7,0c0.1,0,0.2,0,0.4,0c0.1,0,0.3,0,0.4,0s0.3,0,0.4,0s0.3,0,0.4,0c0.3,0,0.6,0,0.9,0.1c0.3,0,0.6,0.1,0.9,0.3
		s0.5,0.3,0.7,0.5s0.3,0.5,0.3,0.9c0,0.2,0,0.4-0.1,0.6c-0.1,0.2-0.2,0.3-0.3,0.4s-0.3,0.2-0.4,0.3c-0.2,0.1-0.3,0.2-0.5,0.2
		c-0.1,0-0.1,0.1-0.1,0.1s0,0.1,0.1,0.1c0.3,0.1,0.5,0.2,0.8,0.3s0.4,0.2,0.6,0.4c0.2,0.2,0.3,0.3,0.4,0.5s0.1,0.5,0.1,0.7
		c0,0.4-0.1,0.7-0.2,0.9c-0.1,0.2-0.3,0.4-0.5,0.6c-0.2,0.1-0.5,0.2-0.8,0.3s-0.6,0.1-0.9,0.1c-0.1,0-0.3,0-0.5,0
		c-0.2,0-0.4,0-0.5,0c-0.2,0-0.4,0-0.6,0c-0.2,0-0.4,0-0.5,0c-0.2,0-0.3,0-0.4,0c-0.1,0-0.2,0-0.4,0s-0.2,0-0.4,0
		c-0.1,0-0.3,0-0.4,0c-0.1,0-0.1,0-0.1,0s0-0.1,0-0.1c0,0,0-0.1,0-0.1c0,0,0.1-0.1,0.1-0.1c0.2,0,0.3-0.1,0.5-0.1
		c0.1,0,0.2-0.1,0.3-0.2c0.1-0.1,0.1-0.2,0.2-0.3s0.1-0.3,0.1-0.5V202.1z M368.6,203.3c0,0.1,0,0.1,0.1,0.2c0,0.1,0.1,0.1,0.2,0.1
		h0.2c0.2,0,0.5,0,0.7-0.1c0.2,0,0.4-0.1,0.5-0.2c0.1-0.1,0.3-0.3,0.3-0.4c0.1-0.2,0.1-0.4,0.1-0.7c0-0.5-0.1-0.9-0.4-1.1
		c-0.3-0.2-0.6-0.3-1.1-0.3h-0.4c-0.1,0-0.2,0-0.2,0.1c0,0.1,0,0.2,0,0.4V203.3z M368.6,205.5c0,0.4,0,0.7,0,0.9s0.1,0.4,0.2,0.5
		c0.1,0.1,0.2,0.2,0.4,0.2s0.4,0,0.7,0c0.4,0,0.8-0.1,1-0.4s0.3-0.6,0.3-1.1c0-0.4-0.1-0.6-0.2-0.9c-0.1-0.2-0.2-0.4-0.4-0.5
		c-0.2-0.1-0.4-0.2-0.6-0.3c-0.2,0-0.5-0.1-0.7-0.1h-0.2c-0.1,0-0.2,0-0.3,0.1c0,0.1-0.1,0.2-0.1,0.4V205.5z"/>
	<path class="st11" d="M374,202.1c0-0.3,0-0.6,0-0.8s-0.1-0.3-0.1-0.4s-0.1-0.2-0.3-0.2s-0.3-0.1-0.5-0.1c0,0-0.1,0-0.1-0.1
		c0,0,0-0.1,0-0.1c0,0,0-0.1,0-0.1c0,0,0-0.1,0.1-0.1c0.2,0,0.5,0,0.8-0.1c0.3,0,0.6-0.1,0.9-0.2c0.1,0,0.2,0,0.2,0
		c0,0,0.1,0.1,0.1,0.1v6.2c0,0.2,0,0.3,0,0.5c0,0.1,0,0.2,0.1,0.3c0,0.1,0.1,0.1,0.2,0.2c0.1,0,0.3,0.1,0.4,0.1c0,0,0.1,0,0.1,0.1
		c0,0,0,0.1,0,0.1c0,0,0,0.1,0,0.1c0,0-0.1,0-0.1,0c-0.2,0-0.4,0-0.6,0c-0.2,0-0.4,0-0.7,0c-0.2,0-0.5,0-0.7,0c-0.2,0-0.5,0-0.7,0
		c0,0-0.1,0-0.1,0c0,0,0-0.1,0-0.1c0,0,0-0.1,0-0.1c0,0,0.1-0.1,0.1-0.1c0.2,0,0.4-0.1,0.5-0.1c0.1,0,0.2-0.1,0.2-0.2
		c0.1-0.1,0.1-0.2,0.1-0.3s0-0.3,0-0.4V202.1z"/>
	<path class="st11" d="M381.6,205.7c0,0.3,0,0.5,0,0.7c0,0.2,0,0.3,0.1,0.4c0.1,0.1,0.1,0.2,0.2,0.2c0.1,0,0.3,0.1,0.5,0.1
		c0,0,0.1,0,0.1,0c0,0,0,0.1,0,0.1c0,0,0,0.1,0,0.1s0,0.1-0.1,0.1c-0.1,0-0.1,0-0.1,0c0,0-0.1,0-0.1,0c0,0-0.1,0-0.1,0s-0.1,0-0.2,0
		c-0.1,0-0.1,0-0.2,0c-0.1,0-0.2,0-0.3,0.1s-0.2,0-0.3,0.1s-0.2,0-0.2,0c-0.1,0-0.2-0.2-0.2-0.6c0,0,0,0,0,0c0,0,0,0,0,0
		c-0.3,0.2-0.5,0.4-0.8,0.5c-0.3,0.1-0.5,0.1-0.8,0.1c-0.3,0-0.6,0-0.8-0.1c-0.2-0.1-0.4-0.2-0.5-0.4c-0.1-0.2-0.2-0.4-0.3-0.6
		s-0.1-0.5-0.1-0.8v-1.2c0-0.3,0-0.6,0-0.7c0-0.2,0-0.3-0.1-0.4s-0.1-0.1-0.2-0.2c-0.1,0-0.2-0.1-0.4-0.1c0,0-0.1,0-0.1-0.1
		c0,0,0-0.1,0-0.1s0-0.1,0-0.1c0,0,0-0.1,0.1-0.1c0.1,0,0.2,0,0.3,0c0.1,0,0.3,0,0.4-0.1c0.1,0,0.3-0.1,0.4-0.1
		c0.2,0,0.3-0.1,0.4-0.1c0.1,0,0.2,0,0.2,0c0,0.1,0.1,0.1,0.1,0.2v2.6c0,0.3,0,0.5,0,0.7c0,0.2,0.1,0.4,0.1,0.5
		c0.1,0.1,0.2,0.2,0.3,0.3c0.1,0.1,0.3,0.1,0.4,0.1c0.2,0,0.5,0,0.8-0.1c0.3-0.1,0.5-0.2,0.6-0.3c0,0,0-0.1,0-0.1c0-0.1,0-0.1,0-0.1
		v-1.7c0-0.3,0-0.6,0-0.7c0-0.2,0-0.3-0.1-0.4s-0.1-0.1-0.2-0.2c-0.1,0-0.2-0.1-0.4-0.1c0,0-0.1,0-0.1-0.1c0,0,0-0.1,0-0.1
		c0,0,0-0.1,0-0.1c0,0,0,0,0.1,0c0.3,0,0.5,0,0.7-0.1c0.2-0.1,0.5-0.1,0.7-0.2c0.1,0,0.2,0,0.2,0c0,0.1,0.1,0.1,0.1,0.2V205.7z"/>
	<path class="st11" d="M388.3,207.3c0,0.4-0.1,0.7-0.2,1.1s-0.3,0.6-0.5,0.8c-0.2,0.2-0.5,0.4-0.7,0.5s-0.6,0.2-0.9,0.2
		c-0.5,0-0.8-0.1-1.1-0.3s-0.4-0.4-0.4-0.7c0-0.1,0-0.1,0-0.2c0-0.1,0.1-0.1,0.1-0.2c0-0.1,0.1-0.1,0.2-0.1s0.2-0.1,0.3-0.1
		c0.2,0,0.3,0.1,0.4,0.2c0.1,0.1,0.2,0.2,0.2,0.4c0,0.1,0,0.1-0.1,0.2c-0.1,0.1-0.1,0.1-0.1,0.2c0,0.1,0,0.2,0.1,0.2
		c0.1,0.1,0.2,0.1,0.4,0.1c0.2,0,0.4,0,0.5-0.1c0.1-0.1,0.3-0.2,0.3-0.3c0.1-0.1,0.1-0.3,0.2-0.5c0-0.2,0-0.4,0-0.7v-6
		c0-0.2,0-0.4,0-0.6c0-0.2-0.1-0.3-0.1-0.4s-0.2-0.2-0.3-0.2c-0.1-0.1-0.3-0.1-0.5-0.1c0,0-0.1,0-0.1-0.1c0,0,0-0.1,0-0.1
		c0-0.1,0-0.1,0-0.1c0,0,0.1-0.1,0.1-0.1c0.2,0,0.5,0,0.8,0s0.6,0,0.8,0c0.2,0,0.3,0,0.4,0c0.1,0,0.3,0,0.4,0c0.1,0,0.3,0,0.4,0
		c0.1,0,0.3,0,0.4,0c0,0,0.1,0,0.1,0.1c0,0,0,0.1,0,0.1c0,0,0,0.1,0,0.1c0,0-0.1,0.1-0.1,0.1c-0.2,0-0.4,0-0.6,0.1
		c-0.1,0-0.2,0.1-0.3,0.2c-0.1,0.1-0.1,0.2-0.1,0.4s0,0.4,0,0.6V207.3z"/>
	<path class="st11" d="M393.9,206.5c0,0.3,0,0.4,0.1,0.5c0,0.1,0.1,0.2,0.3,0.2c0.1,0,0.1,0,0.2,0c0.1,0,0.1-0.1,0.2-0.1
		c0,0,0,0,0.1,0c0,0,0,0,0.1,0.1c0,0,0,0.1,0,0.1c0,0,0,0.1,0,0.1c-0.3,0.3-0.6,0.5-1,0.5c-0.2,0-0.4-0.1-0.5-0.2s-0.3-0.2-0.3-0.4
		c0,0,0,0-0.1,0c-0.2,0.2-0.4,0.3-0.7,0.4c-0.3,0.1-0.6,0.2-1,0.2c-0.4,0-0.7-0.1-1-0.3c-0.2-0.2-0.3-0.5-0.3-1
		c0-0.5,0.2-0.9,0.7-1.2c0.5-0.3,1.2-0.4,2.1-0.4c0,0,0,0,0-0.1c0,0,0-0.1,0-0.3v-0.3c0-0.2,0-0.4,0-0.5c0-0.2-0.1-0.3-0.1-0.4
		c-0.1-0.1-0.2-0.2-0.3-0.3c-0.1-0.1-0.3-0.1-0.5-0.1c-0.3,0-0.5,0.1-0.7,0.2c-0.2,0.1-0.3,0.2-0.3,0.4c0,0.1,0,0.2,0.1,0.2
		c0.1,0.1,0.1,0.2,0.1,0.2c0,0.1-0.1,0.2-0.2,0.3c-0.1,0.1-0.2,0.1-0.4,0.1c-0.2,0-0.3-0.1-0.4-0.2c-0.1-0.1-0.1-0.2-0.1-0.4
		c0-0.2,0.1-0.4,0.2-0.5c0.1-0.2,0.2-0.3,0.4-0.4c0.2-0.1,0.4-0.2,0.6-0.3c0.2-0.1,0.5-0.1,0.7-0.1c0.6,0,1,0.1,1.4,0.4
		c0.3,0.3,0.5,0.7,0.5,1.4V206.5z M392.9,205.4c0-0.1,0-0.1,0-0.1c0,0,0,0-0.1,0c-0.6,0.1-1,0.2-1.3,0.4c-0.3,0.2-0.4,0.5-0.4,0.8
		c0,0.2,0.1,0.4,0.2,0.6c0.1,0.2,0.3,0.2,0.5,0.2c0.2,0,0.3,0,0.5-0.1c0.2-0.1,0.4-0.2,0.5-0.3c0.1-0.1,0.1-0.1,0.1-0.2V205.4z"/>
	<path class="st11" d="M397.1,206.3c0,0.2,0,0.3,0,0.5c0,0.1,0,0.2,0.1,0.3c0,0.1,0.1,0.1,0.2,0.2c0.1,0,0.2,0.1,0.3,0.1
		c0,0,0.1,0,0.1,0.1c0,0,0,0.1,0,0.1c0,0,0,0.1,0,0.1c0,0-0.1,0-0.1,0c-0.1,0-0.2,0-0.4,0c-0.2,0-0.4,0-0.6,0c-0.2,0-0.5,0-0.7,0
		c-0.2,0-0.4,0-0.6,0c0,0-0.1,0-0.1,0c0,0,0-0.1,0-0.1c0,0,0-0.1,0-0.1c0,0,0.1-0.1,0.1-0.1c0.2,0,0.3-0.1,0.4-0.1
		c0.1,0,0.2-0.1,0.2-0.2s0.1-0.2,0.1-0.3s0-0.3,0-0.5V205c0-0.4,0-0.7,0-0.9s0-0.4-0.1-0.6c0-0.1-0.1-0.2-0.2-0.3
		c-0.1-0.1-0.2-0.1-0.4-0.1c0,0-0.1,0-0.1,0c0,0,0-0.1,0-0.1c0,0,0-0.1,0-0.1c0,0,0.1,0,0.1,0c0.1,0,0.3,0,0.6-0.1s0.5-0.1,0.8-0.2
		c0.1,0,0.2,0,0.2,0.1c0.1,0.1,0.1,0.1,0.1,0.2v0.4c0,0,0,0,0,0c0,0,0,0,0,0c0.1-0.1,0.1-0.2,0.2-0.3c0.1-0.1,0.2-0.2,0.3-0.3
		c0.1-0.1,0.3-0.2,0.4-0.2c0.2-0.1,0.3-0.1,0.5-0.1c0.6,0,1,0.2,1.3,0.5c0.3,0.3,0.5,0.8,0.5,1.5v1.9c0,0.2,0,0.4,0,0.5
		c0,0.1,0,0.2,0.1,0.3c0,0.1,0.1,0.1,0.2,0.2c0.1,0,0.2,0.1,0.4,0.1c0,0,0.1,0,0.1,0.1c0,0,0,0.1,0,0.1c0,0,0,0.1,0,0.1
		c0,0-0.1,0-0.1,0c-0.1,0-0.3,0-0.5,0c-0.2,0-0.4,0-0.7,0c-0.2,0-0.5,0-0.7,0c-0.2,0-0.4,0-0.5,0c0,0-0.1,0-0.1,0c0,0,0-0.1,0-0.1
		c0,0,0-0.1,0-0.1c0,0,0.1-0.1,0.1-0.1c0.2,0,0.3-0.1,0.4-0.1s0.1-0.1,0.2-0.2c0-0.1,0.1-0.2,0.1-0.3c0-0.1,0-0.3,0-0.4v-1.7
		c0-0.2,0-0.4,0-0.5c0-0.2-0.1-0.3-0.1-0.5c-0.1-0.1-0.2-0.3-0.3-0.4c-0.1-0.1-0.3-0.1-0.5-0.1c-0.2,0-0.4,0-0.6,0.1
		s-0.3,0.2-0.4,0.3s-0.2,0.3-0.3,0.4c-0.1,0.2-0.1,0.3-0.1,0.5V206.3z"/>
	<path class="st11" d="M403.1,204.9C403,204.9,403,204.9,403.1,204.9c-0.1,0.1-0.1,0.1-0.1,0.1c0,0.4,0,0.7,0.1,1
		c0.1,0.3,0.2,0.5,0.4,0.6s0.3,0.3,0.5,0.4c0.2,0.1,0.4,0.1,0.7,0.1c0.2,0,0.5,0,0.7-0.1c0.2,0,0.4-0.1,0.6-0.3c0,0,0.1,0,0.1,0
		c0,0,0.1,0,0.1,0.1c0,0,0,0.1,0,0.1c0,0,0,0.1,0,0.1c-0.2,0.3-0.5,0.5-0.8,0.6s-0.7,0.2-1.1,0.2c-0.4,0-0.8-0.1-1.1-0.2
		c-0.3-0.1-0.6-0.3-0.8-0.6s-0.4-0.5-0.5-0.8s-0.1-0.7-0.1-1c0-0.4,0.1-0.7,0.2-1s0.3-0.6,0.5-0.8c0.2-0.2,0.5-0.4,0.8-0.6
		c0.3-0.1,0.6-0.2,1-0.2c0.3,0,0.6,0.1,0.8,0.2c0.3,0.1,0.5,0.3,0.6,0.4c0.2,0.2,0.3,0.4,0.4,0.7s0.1,0.5,0.1,0.8
		c0,0.2-0.1,0.2-0.2,0.2H403.1z M405.1,204.5c0.1,0,0.2,0,0.2-0.1c0-0.1,0-0.2,0-0.3c0-0.2,0-0.3-0.1-0.4c0-0.1-0.1-0.3-0.2-0.4
		c-0.1-0.1-0.2-0.2-0.3-0.3c-0.1-0.1-0.3-0.1-0.4-0.1c-0.2,0-0.4,0-0.5,0.1s-0.3,0.2-0.4,0.3c-0.1,0.1-0.2,0.2-0.2,0.4
		c-0.1,0.2-0.1,0.3-0.1,0.5c0,0.1,0,0.2,0,0.2c0,0.1,0,0.1,0,0.1H405.1z"/>
	<path class="st11" d="M410.6,202.7c0,0.1,0,0.2-0.1,0.3c0,0.1,0,0.2,0,0.4c0,0.1,0,0.3,0,0.4s0,0.3,0,0.3c0,0,0,0,0,0.1
		s-0.1,0-0.1,0c0,0-0.1,0-0.1,0c0,0,0,0-0.1,0c-0.1-0.4-0.2-0.7-0.4-0.9s-0.5-0.3-0.9-0.3c-0.3,0-0.5,0.1-0.7,0.2
		c-0.2,0.1-0.3,0.3-0.3,0.5c0,0.2,0.1,0.3,0.2,0.4c0.1,0.1,0.3,0.2,0.6,0.3c0.1,0,0.2,0.1,0.4,0.1c0.1,0.1,0.3,0.1,0.3,0.1
		c0.2,0.1,0.4,0.2,0.5,0.3s0.3,0.2,0.4,0.3s0.2,0.3,0.3,0.4c0.1,0.2,0.1,0.3,0.1,0.6c0,0.3-0.1,0.5-0.2,0.7
		c-0.1,0.2-0.3,0.3-0.5,0.5c-0.2,0.1-0.4,0.2-0.6,0.2c-0.2,0.1-0.5,0.1-0.7,0.1c-0.2,0-0.4,0-0.6-0.1c-0.2,0-0.4-0.1-0.6-0.2
		c0,0-0.1,0-0.1,0c0,0-0.1,0.1-0.1,0.2c0,0,0,0,0,0c0,0-0.1,0-0.1,0c0,0-0.1,0-0.1,0c0,0,0,0,0,0c0-0.1,0-0.1,0-0.2
		c0-0.1,0-0.2,0-0.3s0-0.2,0-0.3c0-0.1,0-0.2,0-0.3c0-0.1,0-0.2,0-0.3s0-0.1,0-0.2c0,0,0-0.1,0-0.1c0,0,0.1,0,0.1,0c0,0,0.1,0,0.1,0
		c0,0,0.1,0,0.1,0.1c0.1,0.2,0.1,0.4,0.2,0.6c0.1,0.2,0.2,0.3,0.3,0.4s0.3,0.2,0.4,0.2c0.2,0.1,0.4,0.1,0.6,0.1
		c0.3,0,0.5-0.1,0.6-0.2c0.2-0.1,0.2-0.4,0.2-0.6c0-0.2-0.1-0.4-0.2-0.6s-0.4-0.3-0.6-0.4c-0.1,0-0.2-0.1-0.3-0.1
		c-0.1,0-0.2-0.1-0.3-0.1c-0.2-0.1-0.3-0.1-0.5-0.2c-0.2-0.1-0.3-0.2-0.4-0.3c-0.1-0.1-0.2-0.2-0.3-0.4c-0.1-0.2-0.1-0.3-0.1-0.6
		c0-0.3,0.1-0.5,0.2-0.7c0.1-0.2,0.3-0.3,0.4-0.4c0.2-0.1,0.4-0.2,0.6-0.2c0.2-0.1,0.4-0.1,0.6-0.1c0.2,0,0.4,0,0.5,0.1
		c0.2,0,0.3,0.1,0.5,0.3c0,0,0.1,0,0.1,0c0,0,0.1-0.1,0.1-0.2c0,0,0,0,0.1-0.1s0.1,0,0.1,0S410.5,202.6,410.6,202.7
		C410.6,202.6,410.6,202.7,410.6,202.7z"/>
</g>
<rect x="91.7" y="90.4" transform="matrix(0.9988 4.911647e-02 -4.911647e-02 0.9988 4.923 -12.225)" class="st12" width="319" height="7.3"/>
<g>
	<path class="st13" d="M92.2,175H80v-4.5h1.9c0.6,0,1-0.2,1.4-0.5s0.6-0.8,0.6-1.5v-4.1c0-1.5-0.7-2.6-2.2-3.1
		c0.7-0.2,1.2-0.6,1.6-1.1c0.4-0.5,0.6-1.1,0.6-1.7v-3.6c0-0.9-0.1-1.5-0.4-1.7c-0.3-0.3-0.9-0.4-1.9-0.4H80v-4.5h17.5l2.9,14.4h0.2
		l3.5-14.4h17.2v4.5h-1.5c-0.9,0-1.6,0.2-1.9,0.5c-0.3,0.3-0.5,0.9-0.5,1.7v3.6c0,0.6,0.2,1.2,0.6,1.7c0.4,0.5,0.9,0.9,1.6,1.2
		c-1.4,0.5-2.2,1.6-2.2,3.1v4.1c0,0.6,0.2,1.1,0.6,1.5c0.4,0.3,0.8,0.5,1.4,0.5h1.9v4.5h-16.8v-4.5h0.9c0.8,0,1.3-0.2,1.6-0.6
		c0.2-0.4,0.4-1,0.4-2v-11.4l-6,18.5h-6.5l-5.5-18.8h-0.1v12.3c0,1.3,0.6,2,1.7,2h1.1V175z"/>
	<path class="st13" d="M126.7,168.4v-4.1c0-1.5-0.7-2.5-2.2-3.1c0.7-0.2,1.2-0.6,1.6-1.1c0.4-0.5,0.6-1.1,0.6-1.7v-3.6
		c0-0.9-0.1-1.5-0.4-1.7c-0.3-0.3-0.9-0.4-1.9-0.4h-1.8v-4.5h18.7v4.5h-1.2c-0.9,0-1.5,0.2-1.8,0.5s-0.5,0.9-0.5,1.7v3.6
		c0,0.6,0.2,1.2,0.6,1.7c0.4,0.5,0.9,0.9,1.6,1.2c-1.4,0.5-2.2,1.6-2.2,3.1v3.4c0,0.8,0.3,1.4,0.9,1.9c0.6,0.5,1.8,0.8,3.4,0.8
		c1.7,0,3-0.3,3.7-1c0.8-0.6,1.1-1.6,1.1-2.9v-2.2c0-1.5-0.7-2.5-2.2-3.1c0.7-0.2,1.2-0.6,1.6-1.1c0.4-0.5,0.6-1.1,0.6-1.7v-3.6
		c0-0.8-0.2-1.3-0.5-1.7c-0.4-0.3-1-0.5-1.8-0.5h-1.2v-4.5h14.6v4.5h-2.2c-1.6,0-2.3,0.7-2.3,2.2v3.6c0,0.6,0.2,1.2,0.6,1.7
		c0.4,0.5,0.9,0.9,1.6,1.2c-1.4,0.5-2.2,1.6-2.2,3.1v3.4c0,3.3-1.1,5.5-3.2,6.5c-2.1,1-5.3,1.6-9.5,1.6c-4.9,0-8.4-0.6-10.7-1.7
		C127.9,173,126.7,171.1,126.7,168.4z"/>
	<path class="st13" d="M160,157.5c0-3.1,1.3-5.6,4-7.5c2.6-1.8,5.7-2.8,9.2-2.8c1.7,0,3,0.1,4,0.4c1,0.3,1.8,0.6,2.5,0.9
		c0.7,0.3,1.4,0.7,2.1,1.2v-1.6h6.8v8.7H181c-0.2-1.8-0.8-3.1-1.9-3.7c-1-0.6-2.4-1-4.2-1c-1.2,0-2.2,0.2-3,0.5
		c-0.8,0.3-1.2,1-1.2,1.8c0,0.8,0.4,1.4,1.2,1.8c0.8,0.4,1.7,0.6,2.7,0.6c0.6,0,1.2-0.1,1.6-0.2c0.4-0.1,0.8-0.4,1.2-0.9
		c0.2,0.7,0.7,1.2,1.4,1.5c0.7,0.4,2,0.6,3.9,0.9c1.9,0.2,3.6,1,5.1,2.2c1.5,1.3,2.3,3.1,2.3,5.4c0,3.1-1.2,5.4-3.7,7.2
		c-2.5,1.7-5.5,2.6-9.1,2.6c-1.8,0-3.3-0.2-4.3-0.5s-1.9-0.6-2.7-0.9c-0.7-0.3-1.6-0.7-2.5-1.3v2h-7.7v-8.4h8.9
		c0.2,1.5,0.9,2.5,2,3.1c1.1,0.5,2.5,0.8,4.3,0.8c1.2,0,2.3-0.2,3.1-0.5c0.8-0.3,1.2-0.8,1.2-1.6c0-0.7-0.3-1.3-0.9-1.6
		c-0.6-0.4-1.4-0.5-2.2-0.5c-0.8,0-1.5,0.1-2,0.3c-0.6,0.2-1,0.6-1.3,1.2c-0.2-0.6-0.6-1.1-1.2-1.5c-0.6-0.4-1.1-0.7-1.5-0.8
		c-0.4-0.1-0.8-0.2-1.3-0.2c-3.1,0-5.3-0.7-6.9-2.1C160.8,161.7,160,159.8,160,157.5z"/>
	<path class="st13" d="M212.3,175h-20.7v-4.5h2.9c0.7,0,1.2-0.2,1.5-0.5c0.3-0.4,0.5-0.8,0.5-1.4v-4.1c0-1.5-0.7-2.6-2.1-3.1
		c0.6-0.2,1-0.5,1.5-1c0.4-0.5,0.6-1.1,0.6-1.8v-3.6c0-0.9-0.1-1.5-0.4-1.7c-0.3-0.3-0.9-0.4-1.9-0.4h-2.5v-4.5h20.7v4.5h-2.5
		c-0.8,0-1.4,0.1-1.8,0.4c-0.4,0.2-0.6,0.8-0.6,1.8v3.6c0,0.6,0.2,1.1,0.5,1.6c0.3,0.5,0.9,0.9,1.7,1.3c-1.4,0.5-2.2,1.6-2.2,3.1
		v4.1c0,0.6,0.2,1,0.5,1.4c0.3,0.4,0.8,0.6,1.5,0.6h2.9V175z"/>
	<path class="st13" d="M230.9,175.8c-3,0-5.8-0.8-8.5-2.3s-4.4-3.5-5-5.9c-0.6-2.4-1.2-4-1.6-4.8c-0.4-0.8-1-1.3-1.7-1.6
		c0.7-0.3,1.3-0.9,1.8-1.8c0.5-0.9,1.1-2.5,1.8-4.7c0.7-2.2,2.1-4,4.3-5.4c2.2-1.3,5-2,8.4-2c1.2,0,2.4,0.2,3.8,0.6
		c1.3,0.4,2.6,1,3.8,1.8v-1.5h7.7V159h-9.2c0-2-0.3-3.6-1-4.7c-0.7-1.1-1.9-1.6-3.4-1.6c-1.3,0-2.4,0.5-3.2,1.4
		c-0.8,0.9-1.2,2.1-1.2,3.5c0,0.9,0.2,1.7,0.5,2.3c0.3,0.6,0.8,1.1,1.5,1.3c-0.6,0.3-1,0.9-1.4,1.7c-0.4,0.8-0.6,1.7-0.6,2.6
		c0,1.6,0.4,2.8,1.2,3.7c0.8,0.9,1.9,1.4,3.4,1.4c1.8,0,3.1-0.5,3.7-1.4c0.6-1,1-2.5,1-4.5H247c-0.4,4.1-1.9,7-4.6,8.7
		C239.7,175,235.9,175.8,230.9,175.8z"/>
	<path class="st13" d="M273.8,175h-12.2v-4.5h1.9c0.6,0,1-0.2,1.4-0.5s0.6-0.8,0.6-1.5v-4.1c0-1.5-0.7-2.6-2.2-3.1
		c0.7-0.2,1.2-0.6,1.6-1.1c0.4-0.5,0.6-1.1,0.6-1.7v-3.6c0-0.9-0.1-1.5-0.4-1.7c-0.3-0.3-0.9-0.4-1.9-0.4h-1.5v-4.5h17.5l2.9,14.4
		h0.2l3.5-14.4H303v4.5h-1.5c-0.9,0-1.6,0.2-1.9,0.5c-0.3,0.3-0.5,0.9-0.5,1.7v3.6c0,0.6,0.2,1.2,0.6,1.7c0.4,0.5,0.9,0.9,1.6,1.2
		c-1.4,0.5-2.2,1.6-2.2,3.1v4.1c0,0.6,0.2,1.1,0.6,1.5c0.4,0.3,0.8,0.5,1.4,0.5h1.9v4.5h-16.8v-4.5h0.9c0.8,0,1.3-0.2,1.6-0.6
		c0.2-0.4,0.4-1,0.4-2v-11.4l-6,18.5h-6.5l-5.5-18.8h-0.1v12.3c0,1.3,0.6,2,1.7,2h1.1V175z"/>
	<path class="st13" d="M313.3,152.7h-2.2v-4.5h25.4v4.5h-1.8c-0.6,0-1.1,0-1.5,0.1c-0.4,0.1-0.6,0.4-0.6,0.9c0,0.5,0.3,1.3,0.8,2.5
		l1.5,3c0.4,0.7,0.9,1.2,1.4,1.5c0.5,0.3,1.1,0.5,1.6,0.5c-0.6,0.6-0.9,1.2-0.9,2c0,0.5,0.2,1.2,0.5,2.1l1.2,2.7
		c0.5,1.1,0.9,1.8,1.2,2c0.3,0.3,0.9,0.4,1.7,0.4h1.6v4.5h-19.4v-4.5h1.5c1.3,0,2-0.5,2-1.4c0-0.6-0.2-1.2-0.5-1.7h-10.6
		c-0.2,0.4-0.3,0.7-0.4,0.9c-0.1,0.2-0.1,0.5-0.1,0.8c0,0.6,0.2,1,0.6,1.1c0.4,0.2,1,0.2,1.9,0.2h1.9v4.5h-15.9v-4.5h1.6
		c0.8,0,1.5-0.1,2-0.4c0.5-0.3,1-1,1.6-2.1l1.2-3c0.4-1,0.6-1.7,0.6-2.2c0-0.6-0.3-1.1-0.8-1.5c0.9-0.1,1.6-0.4,2-0.7
		c0.4-0.4,0.9-1,1.3-2l1.5-3c0.4-0.9,0.6-1.5,0.6-1.9c0-0.4-0.2-0.6-0.5-0.8S314.2,152.7,313.3,152.7z M325,162.4l-3.2-6.9l-3.3,6.9
		H325z"/>
	<path class="st13" d="M377.1,167.5v7.8h-7c-0.1-0.7-0.4-1.2-1-1.4c-1,0.5-2.1,0.9-3.5,1.3c-1.4,0.4-2.7,0.6-4.1,0.6
		c-3.6,0-6.5-0.7-8.9-2.2c-2.4-1.4-3.8-3.1-4.3-5c-0.5-1.9-0.9-3.2-1.2-4.1c-0.3-0.8-0.6-1.6-0.9-2.1s-0.8-1-1.5-1.3
		c0.7-0.3,1.3-0.9,1.8-1.8c0.5-0.9,1.1-2.5,1.8-4.7c0.7-2.2,2.1-4,4.3-5.4c2.2-1.3,5-2,8.4-2c2,0,3.6,0.1,4.7,0.4
		c1.2,0.2,2.5,0.8,4,1.7v-1.1h7.4v10.2h-8.7c0-3.9-1.7-5.8-5.2-5.8c-1.5,0-2.7,0.4-3.6,1.3c-0.8,0.9-1.2,2.1-1.2,3.5
		c0,0.9,0.1,1.7,0.4,2.4c0.2,0.6,0.7,1.1,1.4,1.4c-0.5,0.3-0.9,0.8-1.3,1.6c-0.4,0.8-0.6,1.7-0.6,2.6c0,1.6,0.4,2.8,1.2,3.7
		c0.8,0.9,1.9,1.4,3.3,1.4c1.7,0,2.9-0.3,3.4-0.8c0.5-0.6,0.8-1.4,0.8-2.6c0-1.1-0.7-1.6-2.2-1.6h-1.1V161h16.9v4.5H379
		c-0.6,0-1.1,0.1-1.4,0.4C377.3,166.3,377.1,166.8,377.1,167.5z"/>
	<path class="st13" d="M391.1,152.7h-2.2v-4.5h25.4v4.5h-1.8c-0.6,0-1.1,0-1.5,0.1c-0.4,0.1-0.6,0.4-0.6,0.9c0,0.5,0.3,1.3,0.8,2.5
		l1.5,3c0.4,0.7,0.9,1.2,1.4,1.5c0.5,0.3,1.1,0.5,1.6,0.5c-0.6,0.6-0.9,1.2-0.9,2c0,0.5,0.2,1.2,0.5,2.1l1.2,2.7
		c0.5,1.1,0.9,1.8,1.2,2c0.3,0.3,0.9,0.4,1.7,0.4h1.6v4.5h-19.4v-4.5h1.5c1.3,0,2-0.5,2-1.4c0-0.6-0.2-1.2-0.5-1.7H394
		c-0.2,0.4-0.3,0.7-0.4,0.9c-0.1,0.2-0.1,0.5-0.1,0.8c0,0.6,0.2,1,0.6,1.1c0.4,0.2,1,0.2,1.9,0.2h1.9v4.5h-15.9v-4.5h1.6
		c0.8,0,1.5-0.1,2-0.4c0.5-0.3,1-1,1.6-2.1l1.2-3c0.4-1,0.6-1.7,0.6-2.2c0-0.6-0.3-1.1-0.8-1.5c0.9-0.1,1.6-0.4,2-0.7
		c0.4-0.4,0.9-1,1.3-2l1.5-3c0.4-0.9,0.6-1.5,0.6-1.9c0-0.4-0.2-0.6-0.5-0.8S392,152.7,391.1,152.7z M402.7,162.4l-3.2-6.9l-3.3,6.9
		H402.7z"/>
	<path class="st13" d="M430.1,157.7h-7.8v-9.5h28.1v6l-5.9,6.5c-0.5,0.6-0.7,1.2-0.7,2c0,0.4,0.1,0.7,0.2,1c-0.7,0-1.4,0.1-1.9,0.3
		c-0.5,0.2-1,0.5-1.5,1l-4.7,5h4.4c0.9,0,1.7-0.3,2.2-0.8c0.6-0.5,0.9-1.2,0.9-2.1v-2.1h7v9.9h-28.1v-4.7l2.2-2.3l2.5-2.7l2-2.2
		c0.7-0.8,1.1-1.7,1.1-2.5l-0.1-0.9h0.6c0.5,0,1-0.1,1.4-0.2c0.4-0.1,0.8-0.4,1.2-0.8l5.2-5.7h-4.9c-1,0-1.7,0.2-2.2,0.6
		c-0.5,0.4-0.8,1.3-1,2.7L430.1,157.7z"/>
	<path class="st13" d="M472.5,175h-20.7v-4.5h2.9c0.7,0,1.2-0.2,1.5-0.5c0.3-0.4,0.5-0.8,0.5-1.4v-4.1c0-1.5-0.7-2.6-2.1-3.1
		c0.6-0.2,1-0.5,1.5-1c0.4-0.5,0.6-1.1,0.6-1.8v-3.6c0-0.9-0.1-1.5-0.4-1.7c-0.3-0.3-0.9-0.4-1.9-0.4h-2.5v-4.5h20.7v4.5H470
		c-0.8,0-1.4,0.1-1.8,0.4c-0.4,0.2-0.6,0.8-0.6,1.8v3.6c0,0.6,0.2,1.1,0.5,1.6c0.3,0.5,0.9,0.9,1.7,1.3c-1.4,0.5-2.2,1.6-2.2,3.1
		v4.1c0,0.6,0.2,1,0.5,1.4c0.3,0.4,0.8,0.6,1.5,0.6h2.9V175z"/>
	<path class="st13" d="M495.9,148.2h13.5v4.5h-2.1c-0.9,0-1.5,0.2-1.8,0.6c-0.3,0.4-0.5,0.9-0.5,1.6v3.6c0,0.6,0.2,1.2,0.6,1.7
		c0.4,0.5,0.9,0.9,1.6,1.2c-1.4,0.5-2.2,1.6-2.2,3.1V175h-12.5l-8.1-18.5l-0.1,11.7c0,0.7,0.2,1.3,0.6,1.7c0.4,0.4,0.8,0.6,1.4,0.6
		h2v4.5h-14v-4.5h2c0.6,0,1-0.2,1.4-0.5s0.6-0.8,0.6-1.5v-4.1c0-1.5-0.7-2.6-2.2-3.1c0.7-0.2,1.2-0.6,1.6-1.1
		c0.4-0.5,0.6-1.1,0.6-1.7v-3.6c0-0.9-0.1-1.5-0.4-1.7c-0.3-0.3-0.9-0.4-1.9-0.4h-1.6v-4.5h17.4l7.5,17.4l0.1-11.3
		c0-0.5-0.1-0.8-0.4-1.1c-0.3-0.3-0.8-0.4-1.6-0.4h-1.2V148.2z"/>
	<path class="st13" d="M542.4,175h-31.6v-4.5h3.3c0.5,0,1-0.2,1.4-0.5c0.4-0.3,0.6-0.8,0.6-1.5v-4.1c0-1.5-0.7-2.5-2.1-3.1
		c0.6-0.2,1.2-0.6,1.5-1.1c0.4-0.5,0.6-1.1,0.6-1.7v-3.6c0-0.8-0.3-1.3-0.9-1.7c-0.6-0.3-1.5-0.5-2.6-0.5h-1.7v-4.5h31.7v10.5h-8
		v-2.4c0-1.2-0.4-2.1-1.2-2.6c-0.8-0.5-2.1-0.8-3.8-0.8h-2.6v6.2h6.1v5.2h-6.1v6.1h4.6c1.2,0,2-0.3,2.5-1c0.5-0.6,0.7-1.5,0.7-2.6
		v-2.3h7.7V175z"/>
</g>
<g>
	<path class="st13" d="M120.2,100.7h-6.8v8c0,1.5,0.3,2.5,0.8,3.1c0.5,0.5,1.7,0.8,3.4,0.8h2.6v9.4H81v-9.4h5c1.3,0,2.4-0.4,3.3-1.1
		c0.9-0.7,1.3-1.7,1.3-3v-8.6c0-1.5-0.4-2.8-1.1-4c-0.7-1.2-1.8-2-3.3-2.4c2.9-0.9,4.4-2.8,4.4-5.9v-7.4c0-1.8-0.3-3-0.8-3.6
		c-0.5-0.6-1.9-0.9-3.9-0.9H81v-9.4h47.6c6.1,0,11.1,0.8,15,2.5c3.9,1.6,6.6,4.1,8.1,7.5c1.5,3.4,2.9,5.4,4.2,6.2
		c-0.5,0.2-1,0.7-1.6,1.5l-2.5,4c-1.1,1.8-2.7,3.3-4.8,4.6c-2.1,1.3-4.4,2-7,2.2c1.5,0,2.9,0.2,4.3,0.7c1.4,0.5,3,1.4,4.8,2.9
		c1.8,1.4,2.7,3.5,2.7,6.3v4.5c0,1,0.3,1.9,0.8,2.5c0.5,0.6,1.4,0.9,2.6,0.9h2.3v9.4h-18.6c-3,0-5.6-0.7-7.7-2.2
		c-2.2-1.5-3.2-3.9-3.2-7.2v-5.5c0-2.2-0.7-3.8-2.2-4.8C124.5,101.3,122.6,100.7,120.2,100.7z M121.3,76.1h-7.9v13.4h8.3
		c2.1,0,3.8-0.6,5.2-1.8c1.4-1.2,2.1-2.9,2.1-5.2c0-2.2-0.7-3.8-2.2-4.8C125.4,76.6,123.5,76.1,121.3,76.1z"/>
	<path class="st13" d="M225.1,122.1h-65.6v-9.4h6.9c1.1,0,2-0.3,2.8-1c0.8-0.7,1.2-1.7,1.2-3v-8.6c0-3.1-1.5-5.2-4.4-6.4
		c1.3-0.5,2.4-1.3,3.2-2.3c0.8-1,1.2-2.2,1.2-3.6v-7.4c0-1.6-0.6-2.8-1.9-3.5c-1.3-0.7-3.1-1-5.4-1h-3.6v-9.4h65.8v21.9h-16.6v-5
		c0-2.5-0.9-4.3-2.5-5.4c-1.7-1.1-4.3-1.7-7.8-1.7H193v13h12.7v10.9H193v12.6h9.6c2.4,0,4.1-0.7,5.1-2c1-1.3,1.5-3.1,1.5-5.4v-4.8
		h15.9V122.1z"/>
	<path class="st13" d="M281.2,122.1h-52.3v-9.4h7.6c1.3,0,2.3-0.4,3-1.1c0.7-0.7,1-1.7,1-3v-8.6c0-1.4-0.4-2.7-1.1-3.9
		c-0.7-1.2-1.8-2-3.3-2.5c2.9-0.9,4.4-2.8,4.4-5.9v-7.4c0-1.8-0.3-3.1-0.9-3.6c-0.6-0.6-1.9-0.9-3.9-0.9h-6.8v-9.4H282
		c5.5,0,9.9,1.7,13.1,5c3.2,3.3,5.2,6.9,6,10.5c0.8,3.7,1.6,6.4,2.2,8.1c0.7,1.7,1.9,2.9,3.5,3.6c-1.4,0.9-2.4,2.2-3.2,3.9
		c-0.7,1.7-1.6,4.8-2.5,9.3c-1,4.5-2.9,8.2-5.9,11C292.3,120.7,287.6,122.1,281.2,122.1z M279.4,87.4v-4.1c0-2-0.8-3.8-2.5-5.2
		c-1.6-1.5-3.6-2.2-6-2.2H263v11.7c0,1.3,0.3,2.5,0.9,3.8c0.6,1.2,1.5,2,2.8,2.3c-0.9,0.3-1.8,1.1-2.5,2.2c-0.8,1.2-1.2,2.4-1.2,3.8
		v13h8.6c2,0,3.8-0.7,5.4-2.1c1.6-1.4,2.3-3.4,2.3-6V101c0-1.4-0.4-2.8-1.1-4.1c-0.7-1.3-1.9-2.4-3.5-3.2c1.1-0.2,2.1-0.8,3.1-2
		C278.9,90.5,279.4,89.1,279.4,87.4z"/>
	<path class="st13" d="M348.8,100.7H342v8c0,1.5,0.3,2.5,0.8,3.1c0.5,0.5,1.7,0.8,3.4,0.8h2.6v9.4h-39.2v-9.4h5
		c1.3,0,2.4-0.4,3.3-1.1c0.9-0.7,1.3-1.7,1.3-3v-8.6c0-1.5-0.4-2.8-1.1-4c-0.7-1.2-1.8-2-3.3-2.4c2.9-0.9,4.4-2.8,4.4-5.9v-7.4
		c0-1.8-0.3-3-0.8-3.6c-0.5-0.6-1.9-0.9-3.9-0.9h-4.9v-9.4h47.6c6.1,0,11.1,0.8,15,2.5c3.9,1.6,6.6,4.1,8.1,7.5
		c1.5,3.4,2.9,5.4,4.2,6.2c-0.5,0.2-1,0.7-1.6,1.5l-2.5,4c-1.1,1.8-2.7,3.3-4.8,4.6c-2.1,1.3-4.4,2-7,2.2c1.5,0,2.9,0.2,4.3,0.7
		c1.4,0.5,3,1.4,4.8,2.9c1.8,1.4,2.7,3.5,2.7,6.3v4.5c0,1,0.3,1.9,0.8,2.5c0.5,0.6,1.4,0.9,2.6,0.9h2.3v9.4h-18.6
		c-3,0-5.6-0.7-7.7-2.2c-2.2-1.5-3.2-3.9-3.2-7.2v-5.5c0-2.2-0.7-3.8-2.2-4.8C353.1,101.3,351.2,100.7,348.8,100.7z M349.8,76.1H342
		v13.4h8.3c2.1,0,3.8-0.6,5.2-1.8c1.4-1.2,2.1-2.9,2.1-5.2c0-2.2-0.7-3.8-2.2-4.8C353.9,76.6,352.1,76.1,349.8,76.1z"/>
	<path class="st13" d="M387.1,93.6c1.7-0.7,3-1.7,3.8-2.9c0.9-1.2,1.9-4.2,3.1-9c1.2-4.8,4.6-8.9,10.4-12.2c5.8-3.3,12.9-5,21.3-5
		c8.6,0,15.7,1.7,21.3,5c5.6,3.3,9.2,7.4,10.9,12.3c1.7,4.8,3,7.8,3.9,9c0.9,1.2,1.9,2.1,3,2.7c-0.7,0.6-1.3,1.3-1.9,2.1
		c-0.5,0.7-1.2,2-1.9,3.7c-0.7,1.7-1.8,4.7-3.5,8.8c-1.6,4.1-5,7.8-10.2,10.9c-5.2,3.2-12.3,4.8-21.2,4.8c-8.5,0-15.6-1.6-21.2-4.8
		c-5.6-3.2-9.2-7.4-10.7-12.7c-1.5-5.3-2.5-8.5-3.1-9.7C390.7,95.5,389.3,94.4,387.1,93.6z M420.6,93.6c-1.3,0.9-2.4,2.1-3.2,3.7
		c-0.8,1.6-1.2,3.3-1.2,5.2c0,3.3,0.9,5.9,2.8,7.9c1.8,2,4.4,3,7.7,3c3.5,0,6-1,7.7-2.9c1.7-1.9,2.5-4.4,2.5-7.6c0-2.1-0.3-4-1-5.7
		c-0.8-1.7-1.9-2.9-3.3-3.6c2.8-1.7,4.1-4.6,4.1-8.6c0-3-1-5.4-2.9-7.1c-1.9-1.7-4.5-2.6-7.8-2.6c-2.9,0-5.2,0.9-7.1,2.8
		c-1.7,1.8-2.6,4.3-2.6,7.3c0,2,0.3,3.7,1,5.1C418.1,92,419.2,93,420.6,93.6z"/>
	<path class="st13" d="M468.6,75.9h-1.4v-9.4h40.9v9.4h-2.4c-1.6,0-2.4,0.4-2.4,1.1c0.1,0.2,0.1,0.4,0.3,0.6
		c0.1,0.2,0.3,0.5,0.6,0.8l1,1.2l6.4,6.9l4.8-6.3l1-1.6l0.4-1.1c0-0.6-0.3-1-1-1.3c-0.7-0.3-1.6-0.4-2.7-0.4h-1.9v-9.4h30.1v9.4h-2
		c-1.9,0-3.4,0.2-4.5,0.6c-1.1,0.4-2,1.1-2.9,2l-1.7,2l-1.4,1.9c-0.5,0.8-0.8,1.6-0.8,2.4c0,0.6,0.2,1.4,0.5,2.2
		c-1.2,0.2-1.9,0.3-2.2,0.4c-0.3,0.1-0.7,0.3-1.1,0.5c-0.4,0.2-0.9,0.6-1.6,1.3l-2.4,3.2l-2.2,3.2l10,10.9c2.3,2.5,4,4.1,5.1,5
		c1.1,0.8,2.6,1.3,4.6,1.3h2v9.4h-38.7v-9.4h1.5h1.5c0.5-0.1,0.7-0.4,0.7-1c-0.1-0.5-0.2-0.8-0.3-0.9l-1-1.1l-7-7.9l-5,6.7l-0.7,1.2
		c-0.2,0.3-0.3,0.7-0.3,1.2c0,0.6,0.3,1.1,1,1.3c0.7,0.3,1.2,0.4,1.7,0.4h3.6v9.4h-30.9v-9.4h2c1.7,0,3.2-0.3,4.4-0.8
		c1.2-0.5,2.3-1.3,3.1-2.3l2.2-2.8l1.7-2.6c0.5-0.9,0.8-1.8,0.8-2.8l-0.1-1.2l-0.1-1.1c2.2,0,4-0.9,5.4-2.6l2.9-3.9l-6.4-6.9l-6-6.3
		c-1.4-1.5-2.8-2.5-4.1-2.9C471.9,76.1,470.4,75.9,468.6,75.9z"/>
</g>
<path class="st14" d="M144.2,46.4c-0.3,0-0.6-0.1-0.6-0.2c0-0.2,0.3-0.2,0.6-0.2l15.2-0.2c0.8,0,1.7-0.7,2.6-0.7
	c1.1,0,1.4,0.8,2.3,0.8c0.7,0,1.2-0.3,1.4-0.7c0.3,0.4,1,0.9,2.1,0.9c-0.1-0.2-0.2-0.6-0.2-0.9c0.2,0.3,0.6,0.6,0.9,0.7
	c0.2-0.4,0.5-0.7,0.9-0.7c0.4,0,0.7,0.3,0.9,0.7c0.3-0.1,0.7-0.4,0.9-0.7c0,0.3-0.1,0.7-0.2,0.9c1,0,1.8-0.5,2.1-0.9
	c0.2,0.4,0.7,0.7,1.4,0.7c0.8,0,1.1-0.8,2.3-0.8c0.9,0,1.8,0.7,2.6,0.7l15.2,0.2c0.3,0,0.6,0,0.6,0.2c0,0.1-0.3,0.2-0.6,0.2
	l-15.2,0.4c-0.8,0-1.5,0.8-2.7,0.8c-1,0-1.3-0.8-2.2-0.8c-0.7,0-1.2,0.4-1.4,0.8c-0.3-0.4-1.1-0.9-2.2-0.9c0.2,0.2,0.3,0.6,0.3,0.9
	c-0.1-0.3-0.6-0.6-0.9-0.8c-0.1,0.5-0.5,0.9-0.9,0.9c-0.4,0-0.8-0.4-0.9-0.9c-0.3,0.2-0.8,0.5-0.9,0.8c0-0.3,0.1-0.7,0.3-0.9
	c-1,0-1.9,0.5-2.2,0.9c-0.2-0.4-0.7-0.8-1.4-0.8c-0.8,0-1.1,0.8-2.2,0.8c-1.1,0-1.9-0.8-2.7-0.8L144.2,46.4z"/>
<path class="st14" d="M428.6,46.4c-0.3,0-0.6-0.1-0.6-0.2c0-0.2,0.3-0.2,0.6-0.2l15.2-0.2c0.8,0,1.7-0.7,2.6-0.7
	c1.1,0,1.4,0.8,2.3,0.8c0.7,0,1.2-0.3,1.4-0.7c0.3,0.4,1,0.9,2.1,0.9c-0.1-0.2-0.2-0.6-0.2-0.9c0.2,0.3,0.6,0.6,0.9,0.7
	c0.2-0.4,0.5-0.7,0.9-0.7c0.4,0,0.7,0.3,0.9,0.7c0.3-0.1,0.7-0.4,0.9-0.7c0,0.3-0.1,0.7-0.2,0.9c1,0,1.8-0.5,2.1-0.9
	c0.2,0.4,0.7,0.7,1.4,0.7c0.8,0,1.1-0.8,2.3-0.8c0.9,0,1.8,0.7,2.6,0.7l15.2,0.2c0.3,0,0.6,0,0.6,0.2c0,0.1-0.3,0.2-0.6,0.2
	l-15.2,0.4c-0.8,0-1.5,0.8-2.7,0.8c-1,0-1.3-0.8-2.2-0.8c-0.7,0-1.2,0.4-1.4,0.8c-0.3-0.4-1.1-0.9-2.2-0.9c0.2,0.2,0.3,0.6,0.3,0.9
	c-0.1-0.3-0.6-0.6-0.9-0.8c-0.1,0.5-0.5,0.9-0.9,0.9c-0.4,0-0.8-0.4-0.9-0.9c-0.3,0.2-0.8,0.5-0.9,0.8c0-0.3,0.1-0.7,0.3-0.9
	c-1,0-1.9,0.5-2.2,0.9c-0.2-0.4-0.7-0.8-1.4-0.8c-0.8,0-1.1,0.8-2.2,0.8c-1.1,0-1.9-0.8-2.7-0.8L428.6,46.4z"/>
<path class="st14" d="M82.4,132.7c-1.4,0-2.3-0.3-2.3-0.8c0-0.5,0.9-0.8,2.3-0.8l137.4-1.5c20.4-0.3,33.3-1,37.9-3.1
	c1.8,2,8.3,4.6,15.7,4.6c0-1.5,2.8-2.5,6-2.5c3.7,0,6,1,6,2.5c10.2,0,18.5-4.6,25.9-4.6c7.4,0,15.7,4.6,25.9,4.6
	c0-1.5,2.3-2.5,6-2.5c3.2,0,6,1,6,2.5c7.4,0,13.9-2.5,15.7-4.6c4.6,2,17.6,2.8,37.9,3.1l137.4,1.5c1.4,0,2.3,0.3,2.3,0.8
	c0,0.5-0.9,0.8-2.3,0.8L403,134.2c-20.4,0.3-33.3,1-37.9,3.1c-1.8-2-8.3-4.6-15.7-4.6c0,1.5-2.8,2.5-6,2.5c-3.7,0-6-1-6-2.5
	c-10.2,0-18.5,4.6-25.9,4.6c-7.4,0-15.7-4.6-25.9-4.6c0,1.5-2.3,2.5-6,2.5c-3.2,0-6-1-6-2.5c-7.4,0-13.9,2.5-15.7,4.6
	c-4.6-2-17.6-2.8-37.9-3.1L82.4,132.7z"/>
<g>
	<path class="st13" d="M219.1,43.4V44h-7.4v-0.7c0-2.5,1-4.3,2.9-5.3c1.9-1.1,4.4-1.6,7.4-1.6c2.3,0,4.3,0.3,6,0.8
		c1.7,0.5,2.8,1.2,3.5,2.1l1.5,1.9c0.3,0.4,0.6,0.7,0.8,0.8c-0.3,0.3-0.6,0.6-0.8,1l-0.9,1.5c-0.4,0.6-0.9,1-1.7,1.3
		s-1.6,0.5-2.7,0.5c0.5,0,1,0,1.4,0.1c0.4,0.1,0.8,0.2,1.3,0.3c0.7,0.3,1.2,0.6,1.6,1.1l0.9,1.3c0.3,0.4,0.5,0.7,0.8,1
		c-0.1,0.1-0.2,0.3-0.3,0.4c-0.1,0.2-0.2,0.4-0.3,0.6l-0.9,2c-0.4,0.9-1.6,1.7-3.5,2.4c-1.9,0.7-4.1,1-6.6,1c-3.4,0-6-0.6-7.8-1.8
		c-1.8-1.2-2.7-3.1-2.7-5.7h7.3v0.8c0,0.9,0.2,1.7,0.7,2.2c0.5,0.6,1.2,0.9,2,0.9c0.8,0,1.5-0.2,2-0.6c0.5-0.4,0.8-1,0.8-1.9
		c0-0.8-0.3-1.3-0.8-1.6c-0.6-0.3-1.3-0.5-2.2-0.5h-0.8v-3h1.1c1,0,1.6-0.2,2-0.6c0.4-0.4,0.6-1,0.6-1.9c0-0.8-0.2-1.5-0.5-2
		c-0.4-0.5-1-0.8-2-0.8c-0.9,0-1.6,0.3-2,1C219.3,41.8,219.1,42.6,219.1,43.4z"/>
	<path class="st13" d="M244.1,47.8c0,0.3,0.1,0.5,0.2,0.7s0.4,0.3,0.8,0.5c-0.3,0.2-0.6,0.4-0.8,0.7c-0.2,0.3-0.3,0.6-0.3,1V52
		c0,0.3,0.1,0.6,0.3,0.7c0.2,0.1,0.6,0.2,1.2,0.2h1.3v3h-12v-3h0.9c0.7,0,1.1-0.1,1.3-0.2s0.4-0.5,0.4-1v-1.1c0-0.4-0.1-0.7-0.3-0.9
		c-0.2-0.2-0.5-0.4-0.9-0.6c0.8-0.3,1.1-0.8,1.1-1.3v-1.2c0-0.5-0.1-0.8-0.3-1c-0.2-0.2-0.6-0.3-1.3-0.3h-1.1v-2.9h8v2.5
		c0.2-0.6,0.6-1.1,1.2-1.7c0.5-0.5,1.6-0.8,3.1-0.8h3v4.3h-3.9c-0.7,0-1.2,0.1-1.6,0.3C244.3,47.1,244.1,47.4,244.1,47.8z"/>
	<path class="st13" d="M269.6,37.1V47c0,0.4,0.1,0.8,0.2,1.2c0.1,0.4,0.4,0.6,0.9,0.8c-0.7,0.3-1.1,0.8-1.1,1.5v0.9
		c0,0.4,0.1,0.8,0.3,1.1c0.2,0.3,0.5,0.4,1.1,0.4h1.5v3h-8.4v-1.6c-0.9,0.8-1.7,1.3-2.5,1.6c-0.8,0.3-1.7,0.5-2.8,0.5
		c-1.8,0-3.3-0.5-4.5-1.4c-1.2-0.9-2-2-2.3-3.1c-0.3-1.2-0.6-1.9-0.8-2.3c-0.2-0.4-0.4-0.6-0.7-0.7c0.3-0.1,0.6-0.4,0.9-0.9
		s0.5-1.2,0.7-2.1c0.2-0.9,0.9-1.9,2.1-2.8c1.2-0.9,2.7-1.4,4.5-1.4c1,0,1.8,0.1,2.4,0.2s1.3,0.5,2.1,1v-1.4c0-0.5-0.1-0.9-0.3-1.1
		c-0.2-0.2-0.6-0.4-1.3-0.4H260v-2.9H269.6z M263,50.8c0-0.9-0.3-1.5-0.9-1.8c0.6-0.3,0.9-0.9,0.9-1.7c0-0.7-0.2-1.3-0.7-1.6
		c-0.5-0.4-1.1-0.6-1.8-0.6c-0.6,0-1.1,0.2-1.6,0.5c-0.5,0.3-0.7,0.9-0.7,1.7c0,0.3,0.1,0.6,0.2,0.8c0.1,0.3,0.5,0.6,0.9,0.8
		c-0.3,0.1-0.5,0.4-0.7,0.7c-0.2,0.3-0.3,0.7-0.3,1.1c0,0.5,0.2,1,0.5,1.4c0.4,0.4,1,0.7,1.8,0.7C262.2,52.8,263,52.1,263,50.8z"/>
	<path class="st13" d="M304.4,56h-22.3v-3.2h2.3c0.4,0,0.7-0.1,1-0.4c0.3-0.2,0.4-0.6,0.4-1v-2.9c0-1.1-0.5-1.8-1.5-2.2
		c0.4-0.2,0.8-0.4,1.1-0.8c0.3-0.3,0.4-0.7,0.4-1.2v-2.5c0-0.5-0.2-0.9-0.6-1.2c-0.4-0.2-1-0.4-1.8-0.4h-1.2v-3.2h22.3v7.4h-5.6
		v-1.7c0-0.8-0.3-1.5-0.9-1.8c-0.6-0.4-1.5-0.6-2.7-0.6h-1.8v4.4h4.3v3.7h-4.3v4.3h3.3c0.8,0,1.4-0.2,1.7-0.7
		c0.3-0.4,0.5-1.1,0.5-1.8v-1.6h5.4V56z"/>
	<path class="st13" d="M324.4,37.1V47c0,0.4,0.1,0.8,0.2,1.2c0.1,0.4,0.4,0.6,0.9,0.8c-0.7,0.3-1.1,0.8-1.1,1.5v0.9
		c0,0.4,0.1,0.8,0.3,1.1c0.2,0.3,0.5,0.4,1.1,0.4h1.5v3H319v-1.6c-0.9,0.8-1.7,1.3-2.5,1.6c-0.8,0.3-1.7,0.5-2.8,0.5
		c-1.8,0-3.3-0.5-4.5-1.4c-1.2-0.9-2-2-2.3-3.1c-0.3-1.2-0.6-1.9-0.8-2.3c-0.2-0.4-0.4-0.6-0.7-0.7c0.3-0.1,0.6-0.4,0.9-0.9
		s0.5-1.2,0.7-2.1c0.2-0.9,0.9-1.9,2.1-2.8c1.2-0.9,2.7-1.4,4.5-1.4c1,0,1.8,0.1,2.4,0.2s1.3,0.5,2.1,1v-1.4c0-0.5-0.1-0.9-0.3-1.1
		c-0.2-0.2-0.6-0.4-1.3-0.4h-1.5v-2.9H324.4z M317.9,50.8c0-0.9-0.3-1.5-0.9-1.8c0.6-0.3,0.9-0.9,0.9-1.7c0-0.7-0.2-1.3-0.7-1.6
		c-0.5-0.4-1.1-0.6-1.8-0.6c-0.6,0-1.1,0.2-1.6,0.5c-0.5,0.3-0.7,0.9-0.7,1.7c0,0.3,0.1,0.6,0.2,0.8c0.1,0.3,0.5,0.6,0.9,0.8
		c-0.3,0.1-0.5,0.4-0.7,0.7c-0.2,0.3-0.3,0.7-0.3,1.1c0,0.5,0.2,1,0.5,1.4c0.4,0.4,1,0.7,1.8,0.7C317.1,52.8,317.9,52.1,317.9,50.8z
		"/>
	<path class="st13" d="M337.5,42.3v5.4c0,0.3,0.1,0.6,0.3,0.8c0.2,0.2,0.5,0.4,0.8,0.6c-0.3,0.2-0.6,0.4-0.8,0.7
		c-0.2,0.3-0.3,0.6-0.3,1V52c0,0.3,0.1,0.6,0.3,0.7c0.2,0.1,0.6,0.2,1.2,0.2h1v3h-11.7v-3h0.9c0.7,0,1.1-0.1,1.3-0.2s0.4-0.5,0.4-1
		v-1.1c0-0.4-0.1-0.7-0.3-0.9c-0.2-0.2-0.5-0.4-0.9-0.6c0.8-0.3,1.1-0.8,1.1-1.3v-1.2c0-0.5-0.1-0.8-0.3-1c-0.2-0.2-0.6-0.3-1.3-0.3
		h-1.1v-2.9H337.5z M336.9,40.7h-7v-4.3h7V40.7z"/>
	<path class="st13" d="M343,38h6.5v4.3h3.7v3h-3.7v2.3c0,0.3,0.1,0.6,0.2,0.7c0.1,0.1,0.3,0.3,0.4,0.4c0.1,0.1,0.3,0.2,0.5,0.3
		c-0.7,0.4-1.1,0.9-1.1,1.7v1.1c0,0.4,0.1,0.7,0.3,0.8c0.2,0.2,0.6,0.2,1.2,0.2h2.1v3h-5.2c-1.5,0-2.7-0.2-3.6-0.7
		c-0.9-0.5-1.3-1.3-1.3-2.4v-2.3c0-0.3-0.1-0.6-0.3-0.9s-0.5-0.5-0.9-0.7l0.8-0.6c0.2-0.2,0.3-0.4,0.3-0.8v-2.3h-2.9v-3h2.9V38z"/>
	<path class="st13" d="M363.4,42.3v5.4c0,0.3,0.1,0.6,0.3,0.8c0.2,0.2,0.5,0.4,0.8,0.6c-0.3,0.2-0.6,0.4-0.8,0.7
		c-0.2,0.3-0.3,0.6-0.3,1V52c0,0.3,0.1,0.6,0.3,0.7c0.2,0.1,0.6,0.2,1.2,0.2h1v3h-11.7v-3h0.9c0.7,0,1.1-0.1,1.3-0.2s0.4-0.5,0.4-1
		v-1.1c0-0.4-0.1-0.7-0.3-0.9c-0.2-0.2-0.5-0.4-0.9-0.6c0.8-0.3,1.1-0.8,1.1-1.3v-1.2c0-0.5-0.1-0.8-0.3-1c-0.2-0.2-0.6-0.3-1.3-0.3
		h-1.1v-2.9H363.4z M362.7,40.7h-7v-4.3h7V40.7z"/>
	<path class="st13" d="M366.3,49c0.3-0.2,0.6-0.4,0.7-0.6c0.1-0.2,0.6-0.9,1.2-2.3s1.7-2.4,3.2-3.2c1.4-0.8,3.4-1.2,5.8-1.2
		c2.4,0,4.4,0.5,6,1.4c1.6,0.9,2.7,2.1,3.3,3.4c0.6,1.4,1.2,2.2,1.7,2.4c-0.2,0.1-0.4,0.2-0.6,0.4c-0.2,0.2-0.4,0.6-0.7,1.1
		c-0.3,0.5-0.6,1.2-1,2.1c-0.4,0.9-1.4,1.8-2.8,2.6c-1.5,0.9-3.4,1.3-5.8,1.3c-2.5,0-4.5-0.5-6.1-1.4c-1.6-0.9-2.7-2.1-3.2-3.6
		C367.4,50.1,366.9,49.2,366.3,49z M374.6,47.3c0,0.5,0.1,0.8,0.3,1.1c0.2,0.2,0.5,0.4,1,0.6c-0.3,0.1-0.6,0.3-0.8,0.7
		c-0.2,0.4-0.3,0.8-0.3,1.2c0,0.7,0.2,1.2,0.6,1.6c0.4,0.4,1,0.6,1.7,0.6c0.7,0,1.3-0.2,1.8-0.7c0.4-0.4,0.7-1,0.7-1.7
		c0-0.8-0.3-1.3-0.9-1.6c0.3-0.3,0.6-0.5,0.7-0.7c0.1-0.2,0.2-0.5,0.2-1c0-0.6-0.2-1.2-0.7-1.5c-0.4-0.4-1.1-0.6-1.8-0.6
		c-0.7,0-1.2,0.2-1.7,0.6C374.8,46.2,374.6,46.7,374.6,47.3z"/>
	<path class="st13" d="M389.9,45.2h-1.1v-2.9h8.4v1.6c0.6-0.6,1.4-1.1,2.4-1.6c1-0.4,2.1-0.6,3.4-0.6c1.8,0,3.2,0.4,4.4,1.1
		c1.1,0.7,1.7,1.8,1.7,3.2v1.3c0,0.4,0.1,0.8,0.3,1.1c0.1,0.3,0.4,0.5,0.9,0.7c-0.7,0.4-1.1,0.9-1.1,1.6v1.1c0,0.5,0.1,0.8,0.4,1
		c0.3,0.2,0.6,0.3,1,0.3h1.4v3h-10.8v-3c0.7,0,1.1-0.1,1.3-0.2c0.2-0.2,0.3-0.4,0.3-0.9v-1.2c0-0.3-0.1-0.6-0.2-0.8
		c-0.2-0.2-0.3-0.3-0.4-0.5c-0.1-0.1-0.3-0.2-0.5-0.3c0.4-0.2,0.6-0.3,0.8-0.5c0.2-0.2,0.3-0.4,0.3-0.7v-0.8c0-0.5-0.2-0.8-0.7-1.1
		c-0.4-0.2-1-0.4-1.7-0.4c-0.6,0-1.2,0.2-1.7,0.6c-0.5,0.4-0.8,0.9-0.8,1.5c0,0.3,0.1,0.6,0.3,0.8c0.2,0.2,0.4,0.4,0.8,0.6
		c-0.3,0.2-0.6,0.4-0.8,0.7c-0.2,0.3-0.3,0.7-0.3,1V52c0,0.4,0.1,0.6,0.3,0.7c0.2,0.1,0.6,0.2,1.3,0.2h0.4v3h-11v-3h0.9
		c0.8,0,1.3-0.1,1.5-0.2c0.3-0.2,0.4-0.5,0.4-1v-1.1c0-0.3-0.1-0.6-0.3-0.9c-0.2-0.3-0.5-0.5-0.9-0.7l0.8-0.6
		c0.2-0.2,0.3-0.4,0.3-0.8v-1.2c0-0.5-0.1-0.8-0.4-1C391.1,45.3,390.6,45.2,389.9,45.2z"/>
</g>
</svg>
