<?xml version="1.0" encoding="utf-8"?>
<!-- Generator: Adobe Illustrator 21.1.0, SVG Export Plug-In . SVG Version: 6.00 Build 0)  -->
<svg version="1.1" id="Layer_1" xmlns="http://www.w3.org/2000/svg" xmlns:xlink="http://www.w3.org/1999/xlink" x="0px" y="0px"
	 viewBox="0 0 621.4 801.4" style="enable-background:new 0 0 621.4 801.4;" xml:space="preserve">
<style type="text/css">
	.st0{fill:#FFFFFF;}
	.st1{fill:#FFFFFF;stroke:#FFFFFF;stroke-width:0.25;stroke-miterlimit:10;}
	.st2{stroke:#000000;stroke-width:0.25;stroke-miterlimit:10;}
	.st3{fill:#1F8AC9;}
	.st4{fill:#000101;stroke:#000101;stroke-width:0.25;stroke-miterlimit:10;}
	.st5{opacity:0.75;fill:#FFFFFF;}
	.st6{fill:#9A453E;}
	.st7{fill:#5D2318;}
	.st8{fill:#5D2318;stroke:#5D2318;stroke-width:0.25;stroke-miterlimit:10;}
	.st9{fill:#9A453E;stroke:#9A453E;stroke-width:0.25;stroke-miterlimit:10;}
	.st10{fill:#933A28;}
	.st11{fill:#29326B;stroke:#29326B;stroke-width:0.25;stroke-miterlimit:10;}
	.st12{fill:#FFFFFF;fill-opacity:0.27;}
	.st13{fill:#5D2217;}
	.st14{fill:#99443E;}
	.st15{stroke:#000000;stroke-width:0.5;stroke-miterlimit:10;}
	.st16{fill:#473181;stroke:#473181;stroke-width:0.5;stroke-miterlimit:10;}
	.st17{fill:#090E31;}
	.st18{fill:#442033;}
	.st19{fill:#473181;}
	.st20{fill:#BDA677;}
	.st21{fill:#FFFFFF;stroke:#FFFFFF;stroke-miterlimit:10;}
	.st22{fill:#2C3471;}
	.st23{fill:#2C3471;stroke:#2C3471;stroke-width:0.25;stroke-miterlimit:10;}
	.st24{fill:#00B4EC;}
	.st25{opacity:0.15;}
	.st26{fill:#21283A;stroke:#21283A;stroke-width:0.25;stroke-miterlimit:10;}
	.st27{clip-path:url(#SVGID_2_);}
	.st28{opacity:0.12;}
	.st29{fill:#0C2537;}
	.st30{opacity:0.8;}
	.st31{fill:#737273;}
	.st32{opacity:0.85;fill:#FFFFFF;}
	.st33{fill:#B9DCE8;}
</style>
<g>
	<path class="st0" d="M570,757.2c0.3,0.2,1.1,0.5,1.9,0.5c1.5,0,1.9-0.9,1.9-1.6c0-1.2-1.1-1.7-2.2-1.7H571v-0.9h0.6
		c0.8,0,1.9-0.4,1.9-1.4c0-0.7-0.4-1.3-1.5-1.3c-0.7,0-1.3,0.3-1.7,0.6l-0.3-0.8c0.4-0.3,1.3-0.6,2.2-0.6c1.7,0,2.4,1,2.4,2
		c0,0.9-0.5,1.6-1.6,2v0c1,0.2,1.9,1,1.9,2.2c0,1.4-1.1,2.5-3.1,2.5c-0.9,0-1.8-0.3-2.2-0.6L570,757.2z"/>
	<path class="st0" d="M582,754.2c0,2.9-1.1,4.5-2.9,4.5c-1.7,0-2.8-1.5-2.8-4.3c0-2.8,1.2-4.4,2.9-4.4
		C581,749.9,582,751.5,582,754.2z M577.4,754.3c0,2.2,0.7,3.4,1.7,3.4c1.2,0,1.7-1.4,1.7-3.5c0-2.1-0.5-3.4-1.7-3.4
		C578.1,750.8,577.4,752,577.4,754.3z"/>
</g>
<g>
	<path class="st1" d="M424.9,747.6c-0.1,0-0.1,0-0.1,0c0,0-0.1-0.1-0.1-0.1c0,0,0-0.1,0-0.1s0-0.1,0.1-0.1c0.6-0.5,1-0.8,1.4-1.2
		c0.4-0.3,0.7-0.6,0.9-0.9c0.2-0.3,0.4-0.5,0.5-0.7c0.1-0.2,0.1-0.5,0.1-0.7c0-0.2,0-0.3,0-0.5s-0.1-0.3-0.1-0.4
		c-0.1-0.1-0.2-0.2-0.3-0.3c-0.1-0.1-0.3-0.1-0.5-0.1c-0.2,0-0.4,0-0.5,0.1c-0.1,0.1-0.2,0.1-0.3,0.2s-0.2,0.2-0.2,0.2
		s-0.1,0.2-0.1,0.2c0,0,0,0.1,0,0.1c0,0,0,0.1,0,0.1c0,0,0.1,0.1,0.1,0.1c0,0,0.1,0,0.2,0c0.1,0,0.2,0,0.3,0.1
		c0,0.1,0.1,0.2,0.1,0.3c0,0.1,0,0.2-0.1,0.3c-0.1,0.1-0.2,0.1-0.4,0.1c-0.2,0-0.3,0-0.4-0.1c-0.1-0.1-0.2-0.1-0.2-0.2
		s-0.1-0.2-0.1-0.3c0-0.1,0-0.2,0-0.3c0-0.2,0-0.4,0.1-0.5s0.2-0.3,0.4-0.4c0.2-0.1,0.4-0.2,0.6-0.3c0.2-0.1,0.5-0.1,0.8-0.1
		c0.3,0,0.6,0,0.8,0.1s0.4,0.2,0.6,0.3s0.3,0.3,0.4,0.5c0.1,0.2,0.1,0.4,0.1,0.6c0,0.3-0.1,0.6-0.3,0.9c-0.2,0.3-0.4,0.6-0.7,0.8
		c-0.3,0.3-0.6,0.5-0.9,0.7s-0.6,0.4-0.9,0.6c0,0-0.1,0-0.1,0.1c0,0,0,0,0.1,0h1.7c0.1,0,0.2,0,0.3,0c0.1,0,0.1-0.1,0.2-0.1
		c0.1-0.1,0.1-0.1,0.2-0.2c0.1-0.1,0.1-0.2,0.2-0.4c0,0,0-0.1,0.1-0.1c0,0,0.1,0,0.1,0s0.1,0,0.1,0c0,0,0,0.1,0,0.1
		c-0.1,0.3-0.1,0.5-0.2,0.8c-0.1,0.3-0.1,0.5-0.1,0.8H424.9z"/>
	<path class="st1" d="M435.6,744.7c0,0.5-0.1,0.9-0.2,1.3c-0.1,0.4-0.4,0.7-0.6,0.9c-0.3,0.3-0.6,0.5-0.9,0.6
		c-0.4,0.1-0.8,0.2-1.2,0.2c-0.4,0-0.7-0.1-1.1-0.2s-0.6-0.3-0.9-0.6s-0.4-0.6-0.6-0.9c-0.1-0.4-0.2-0.8-0.2-1.3
		c0-0.4,0.1-0.8,0.2-1.1c0.1-0.3,0.3-0.6,0.6-0.9s0.6-0.4,0.9-0.6c0.3-0.1,0.7-0.2,1.1-0.2c0.4,0,0.8,0.1,1.1,0.2
		c0.3,0.1,0.6,0.3,0.9,0.5c0.3,0.2,0.5,0.5,0.6,0.9C435.6,743.9,435.6,744.3,435.6,744.7z M434.4,744.9c0-0.3,0-0.6-0.1-0.9
		c-0.1-0.3-0.1-0.6-0.3-0.8c-0.1-0.2-0.3-0.4-0.5-0.6c-0.2-0.1-0.4-0.2-0.7-0.2c-0.3,0-0.6,0.1-0.8,0.2c-0.2,0.1-0.4,0.3-0.5,0.6
		c-0.1,0.2-0.2,0.5-0.3,0.8c-0.1,0.3-0.1,0.6-0.1,0.9c0,0.3,0,0.6,0.1,0.8c0.1,0.3,0.1,0.5,0.3,0.8c0.1,0.2,0.3,0.4,0.5,0.6
		c0.2,0.2,0.5,0.2,0.8,0.2c0.3,0,0.6-0.1,0.8-0.2c0.2-0.1,0.4-0.3,0.5-0.6c0.1-0.2,0.2-0.5,0.3-0.8S434.4,745.2,434.4,744.9z"/>
	<path class="st1" d="M438.9,746.1c0,0.3,0,0.5,0,0.6c0,0.2,0.1,0.3,0.1,0.4s0.2,0.2,0.3,0.2c0.1,0,0.3,0.1,0.5,0.1
		c0,0,0.1,0,0.1,0.1c0,0,0,0.1,0,0.1c0,0,0,0.1,0,0.1c0,0,0,0-0.1,0c-0.1,0-0.1,0-0.2,0s-0.2,0-0.3,0c-0.1,0-0.3,0-0.4,0
		c-0.1,0-0.3,0-0.5,0c-0.4,0-0.7,0-1,0c-0.1,0-0.3,0-0.4,0s-0.2,0-0.3,0c0,0-0.1,0-0.1,0c0,0,0-0.1,0-0.1s0-0.1,0-0.1
		c0,0,0-0.1,0.1-0.1c0.2,0,0.4-0.1,0.6-0.1c0.1,0,0.2-0.1,0.3-0.2c0.1-0.1,0.1-0.2,0.1-0.4c0-0.2,0-0.4,0-0.6v-2.2
		c0-0.4,0-0.7-0.1-0.9c0-0.2-0.2-0.2-0.4-0.2c-0.1,0-0.2,0-0.3,0c-0.1,0-0.2,0-0.4,0.1c-0.1,0-0.1,0-0.1-0.1c0-0.1,0-0.2,0.1-0.2
		c0.2-0.1,0.4-0.1,0.6-0.2c0.2,0,0.3-0.1,0.5-0.1c0.1,0,0.3,0,0.4-0.1c0.2,0,0.4-0.1,0.6-0.1c0.2,0,0.2,0,0.2,0.1V746.1z"/>
	<path class="st1" d="M441,744.7c0-0.4,0.1-0.8,0.2-1.1s0.3-0.6,0.5-0.8c0.2-0.2,0.5-0.4,0.8-0.6c0.3-0.1,0.7-0.2,1.1-0.2
		c0.5,0,0.9,0.1,1.2,0.3c0.3,0.2,0.6,0.4,0.8,0.7c0.2,0.3,0.3,0.6,0.4,1c0.1,0.4,0.1,0.8,0.1,1.1c0,0.3,0,0.6-0.1,1
		c0,0.3-0.1,0.7-0.2,1s-0.2,0.7-0.4,1s-0.4,0.6-0.6,0.9s-0.5,0.5-0.9,0.6c-0.3,0.2-0.7,0.2-1.2,0.2c-0.5,0-0.9-0.1-1.2-0.3
		c-0.3-0.2-0.4-0.4-0.4-0.8c0-0.1,0.1-0.3,0.2-0.4c0.1-0.1,0.2-0.2,0.4-0.2c0.1,0,0.3,0,0.4,0.1s0.2,0.2,0.2,0.3c0,0,0,0.1,0,0.2
		c0,0.1,0,0.1,0,0.2c0,0.1,0,0.1,0,0.2c0,0,0.1,0.1,0.1,0.1c0.1,0,0.1,0.1,0.2,0.1s0.2,0,0.4,0c0.4,0,0.7-0.1,1-0.2
		c0.3-0.1,0.5-0.4,0.6-0.6c0.2-0.3,0.3-0.6,0.3-1c0.1-0.4,0.1-0.9,0.1-1.4c-0.2,0.3-0.5,0.5-0.8,0.7c-0.3,0.1-0.6,0.2-0.9,0.2
		c-0.4,0-0.8-0.1-1.1-0.2c-0.3-0.1-0.5-0.3-0.7-0.5s-0.3-0.5-0.4-0.8C441,745.3,441,745,441,744.7z M442.2,744.6c0,0.2,0,0.5,0,0.7
		c0,0.2,0.1,0.4,0.2,0.6c0.1,0.2,0.2,0.3,0.4,0.4c0.2,0.1,0.4,0.2,0.7,0.2c0.2,0,0.4,0,0.6-0.2c0.2-0.1,0.3-0.2,0.5-0.4
		c0.1-0.2,0.2-0.4,0.3-0.6s0.1-0.5,0.1-0.8c0-0.2,0-0.5-0.1-0.7c0-0.2-0.1-0.5-0.2-0.7c-0.1-0.2-0.3-0.4-0.4-0.5s-0.4-0.2-0.7-0.2
		c-0.3,0-0.5,0.1-0.7,0.2c-0.2,0.1-0.3,0.3-0.4,0.5c-0.1,0.2-0.2,0.5-0.2,0.7C442.2,744.2,442.2,744.4,442.2,744.6z"/>
	<path class="st1" d="M456,739.5c0.1,0,0.1,0,0.2,0c0.1,0,0.1,0.1,0.1,0.2c0,0.2,0,0.5,0,0.8c0,0.3,0,0.6,0,0.8c0,0,0,0.1-0.1,0.1
		c0,0-0.1,0-0.1,0s-0.1,0-0.1,0s-0.1,0-0.1-0.1c-0.1-0.3-0.1-0.6-0.2-0.7c-0.1-0.2-0.1-0.3-0.2-0.4s-0.2-0.2-0.4-0.2
		c-0.2,0-0.4,0-0.7,0h-0.7c-0.2,0-0.4,0-0.5,0s-0.2,0-0.3,0.1c-0.1,0.1-0.1,0.1-0.1,0.2c0,0.1,0,0.3,0,0.5v2.1c0,0.1,0,0.2,0.1,0.2
		s0.1,0,0.1,0c0.4,0,0.7,0,0.9,0c0.2,0,0.4-0.1,0.5-0.2c0.1-0.1,0.2-0.2,0.2-0.3c0-0.1,0.1-0.3,0.1-0.5c0,0,0-0.1,0.1-0.1
		c0,0,0.1,0,0.1,0c0,0,0.1,0,0.1,0c0,0,0.1,0.1,0.1,0.1c0,0.1,0,0.2,0,0.3c0,0.1,0,0.2,0,0.3c0,0.1,0,0.2,0,0.3c0,0.1,0,0.2,0,0.4
		c0,0.2,0,0.5,0,0.7c0,0.2,0,0.4,0,0.7c0,0,0,0.1-0.1,0.1c0,0-0.1,0-0.1,0c0,0-0.1,0-0.1,0c0,0-0.1-0.1-0.1-0.1
		c0-0.2-0.1-0.4-0.1-0.6c0-0.1-0.1-0.3-0.2-0.3c-0.1-0.1-0.3-0.1-0.5-0.2c-0.2,0-0.5,0-0.9,0c0,0-0.1,0-0.1,0s-0.1,0.1-0.1,0.2v2
		c0,0.3,0,0.5,0.1,0.7s0.1,0.3,0.2,0.4c0.1,0.1,0.2,0.2,0.4,0.2c0.2,0,0.4,0.1,0.7,0.1c0.1,0,0.1,0,0.1,0.1c0,0,0,0.1,0,0.1
		c0,0,0,0.1,0,0.1c0,0-0.1,0.1-0.1,0.1c-0.4,0-0.8,0-1.1,0s-0.6,0-0.9,0c-0.3,0-0.6,0-0.9,0c-0.3,0-0.6,0-0.9,0c0,0-0.1,0-0.1-0.1
		c0,0,0-0.1,0-0.1c0,0,0-0.1,0-0.1c0,0,0.1-0.1,0.1-0.1c0.2,0,0.4-0.1,0.6-0.1c0.1,0,0.3-0.1,0.3-0.2c0.1-0.1,0.1-0.2,0.2-0.3
		c0-0.1,0-0.3,0-0.6v-4.5c0-0.2,0-0.3,0-0.5c0-0.2,0-0.3-0.1-0.5c0-0.1-0.1-0.3-0.2-0.4c-0.1-0.1-0.2-0.2-0.3-0.2
		c-0.1,0-0.2,0-0.3-0.1s-0.2,0-0.3,0c0,0-0.1,0-0.1-0.1c0,0,0-0.1,0-0.1c0,0,0-0.1,0-0.1c0,0,0.1-0.1,0.1-0.1c0.3,0,0.5,0,0.7,0
		c0.2,0,0.5,0,0.8,0H456z"/>
	<path class="st1" d="M457.7,744.6C457.7,744.6,457.7,744.6,457.7,744.6c-0.1,0.1-0.1,0.1-0.1,0.1c0,0.4,0,0.8,0.1,1.1
		s0.2,0.5,0.4,0.7s0.4,0.3,0.6,0.4c0.2,0.1,0.5,0.1,0.7,0.1c0.3,0,0.5,0,0.8-0.1c0.3,0,0.5-0.1,0.7-0.3c0,0,0.1,0,0.1,0
		s0.1,0,0.1,0.1c0,0,0,0.1,0.1,0.1c0,0,0,0.1,0,0.1c-0.3,0.3-0.5,0.6-0.9,0.7c-0.3,0.1-0.7,0.2-1.2,0.2c-0.5,0-0.9-0.1-1.2-0.2
		c-0.3-0.1-0.6-0.3-0.9-0.6c-0.2-0.3-0.4-0.6-0.5-0.9c-0.1-0.3-0.2-0.7-0.2-1.1c0-0.4,0.1-0.8,0.2-1.1s0.3-0.7,0.6-0.9
		c0.2-0.3,0.5-0.5,0.9-0.6s0.7-0.2,1.1-0.2c0.3,0,0.6,0.1,0.9,0.2c0.3,0.1,0.5,0.3,0.7,0.5c0.2,0.2,0.3,0.4,0.5,0.7
		c0.1,0.3,0.2,0.6,0.2,0.9c0,0.2-0.1,0.3-0.2,0.3H457.7z M459.9,744.1c0.1,0,0.2,0,0.2-0.1c0-0.1,0-0.2,0-0.3c0-0.2,0-0.3-0.1-0.5
		c-0.1-0.2-0.1-0.3-0.2-0.4c-0.1-0.1-0.2-0.2-0.3-0.3c-0.1-0.1-0.3-0.1-0.5-0.1c-0.2,0-0.4,0-0.6,0.1s-0.3,0.2-0.4,0.3
		c-0.1,0.1-0.2,0.3-0.2,0.4c-0.1,0.2-0.1,0.3-0.1,0.5c0,0.1,0,0.2,0,0.2c0,0.1,0,0.1,0.1,0.1H459.9z"/>
	<path class="st1" d="M465.9,742.2c0,0.1,0,0.2-0.1,0.3c0,0.1,0,0.3,0,0.4c0,0.2,0,0.3,0,0.5s0,0.3,0,0.4c0,0,0,0,0,0.1
		c0,0-0.1,0-0.1,0c0,0-0.1,0-0.1,0c0,0-0.1,0-0.1-0.1c-0.1-0.4-0.2-0.8-0.4-1c-0.2-0.2-0.5-0.3-1-0.3c-0.3,0-0.5,0.1-0.7,0.2
		c-0.2,0.1-0.3,0.3-0.3,0.6c0,0.2,0.1,0.4,0.2,0.5s0.4,0.2,0.6,0.3c0.1,0,0.2,0.1,0.4,0.2s0.3,0.1,0.4,0.2c0.2,0.1,0.4,0.2,0.6,0.3
		c0.2,0.1,0.3,0.2,0.5,0.4c0.1,0.1,0.2,0.3,0.3,0.5c0.1,0.2,0.1,0.4,0.1,0.6c0,0.3-0.1,0.6-0.2,0.8c-0.1,0.2-0.3,0.4-0.5,0.5
		c-0.2,0.1-0.4,0.2-0.7,0.3c-0.3,0.1-0.5,0.1-0.8,0.1c-0.2,0-0.4,0-0.7-0.1c-0.3,0-0.5-0.1-0.7-0.2c0,0-0.1,0-0.1,0
		c-0.1,0-0.1,0.1-0.1,0.2c0,0,0,0-0.1,0c0,0-0.1,0-0.1,0c0,0-0.1,0-0.1,0c0,0,0,0,0-0.1c0-0.1,0-0.2,0-0.3c0-0.1,0-0.2,0-0.3
		c0-0.1,0-0.2,0-0.3s0-0.2,0-0.3c0-0.1,0-0.2,0-0.3c0-0.1,0-0.2,0-0.2c0,0,0-0.1,0-0.1c0,0,0.1,0,0.1,0s0.1,0,0.1,0
		c0,0,0.1,0,0.1,0.1c0.1,0.2,0.1,0.4,0.2,0.6c0.1,0.2,0.2,0.3,0.3,0.4c0.1,0.1,0.3,0.2,0.5,0.3s0.4,0.1,0.7,0.1
		c0.3,0,0.5-0.1,0.7-0.2c0.2-0.2,0.3-0.4,0.3-0.7c0-0.3-0.1-0.5-0.3-0.6s-0.4-0.3-0.6-0.4c-0.1,0-0.2-0.1-0.3-0.1s-0.2-0.1-0.4-0.1
		c-0.2-0.1-0.3-0.1-0.5-0.2s-0.3-0.2-0.5-0.3c-0.1-0.1-0.2-0.3-0.3-0.4c-0.1-0.2-0.1-0.4-0.1-0.6c0-0.3,0.1-0.5,0.2-0.7
		s0.3-0.4,0.5-0.5c0.2-0.1,0.4-0.2,0.7-0.3c0.2-0.1,0.5-0.1,0.7-0.1c0.2,0,0.4,0,0.6,0.1c0.2,0.1,0.4,0.1,0.6,0.3c0,0,0.1,0,0.1,0
		c0.1,0,0.1-0.1,0.1-0.2c0,0,0-0.1,0.1-0.1c0,0,0.1,0,0.1,0C465.8,742.1,465.9,742.1,465.9,742.2
		C465.9,742.1,465.9,742.2,465.9,742.2z"/>
	<path class="st1" d="M468.6,745.8c0,0.4,0,0.8,0.2,1c0.1,0.2,0.3,0.3,0.5,0.3c0.2,0,0.4,0,0.5-0.1s0.3-0.1,0.4-0.2c0,0,0.1,0,0.1,0
		c0,0,0.1,0,0.1,0.1c0,0,0,0.1,0.1,0.1c0,0,0,0.1,0,0.1c-0.2,0.2-0.4,0.4-0.6,0.5c-0.2,0.1-0.5,0.2-0.9,0.2c-0.5,0-0.9-0.1-1.2-0.4
		s-0.3-0.6-0.3-1.1v-3.1c0-0.1,0-0.2,0-0.2c0-0.1,0-0.1-0.1-0.1c0,0-0.1,0-0.2,0c-0.1,0-0.2,0-0.4,0c0,0,0,0-0.1-0.1s0-0.1,0-0.2
		s0-0.1,0-0.2c0,0,0-0.1,0.1-0.1c0.2,0,0.4,0,0.5-0.1c0.1,0,0.3-0.1,0.4-0.2s0.2-0.2,0.2-0.4c0.1-0.2,0.1-0.4,0.1-0.6
		c0,0,0-0.1,0.1-0.1c0.1,0,0.1,0,0.2,0s0.1,0,0.2,0c0.1,0,0.1,0,0.1,0.1v1c0,0.1,0,0.2,0,0.2s0.1,0,0.2,0h1.2c0.1,0,0.1,0,0.1,0.1
		c0,0.1,0,0.1,0,0.2s0,0.1,0,0.2s-0.1,0.1-0.1,0.1h-1.3c-0.1,0-0.1,0-0.1,0c0,0,0,0.1,0,0.3V745.8z"/>
	<path class="st1" d="M472.8,746.2c0,0.2,0,0.4,0,0.5c0,0.1,0,0.2,0.1,0.3s0.1,0.2,0.2,0.2c0.1,0,0.2,0.1,0.4,0.1c0,0,0.1,0,0.1,0.1
		c0,0,0,0.1,0,0.1c0,0,0,0.1,0,0.1c0,0-0.1,0.1-0.1,0.1c-0.1,0-0.3,0-0.6,0s-0.5,0-0.7,0c-0.3,0-0.5,0-0.8,0s-0.5,0-0.7,0
		c0,0-0.1,0-0.1-0.1c0,0,0-0.1,0-0.1c0,0,0-0.1,0-0.1c0,0,0.1-0.1,0.1-0.1c0.2,0,0.4-0.1,0.5-0.1c0.1,0,0.2-0.1,0.3-0.2
		s0.1-0.2,0.1-0.3c0-0.1,0-0.3,0-0.5v-1.9c0-0.3,0-0.6,0-0.8c0-0.2-0.1-0.4-0.1-0.5c-0.1-0.1-0.1-0.2-0.3-0.2
		c-0.1,0-0.3-0.1-0.5-0.1c0,0-0.1,0-0.1-0.1s0-0.1,0-0.1s0-0.1,0-0.1s0.1-0.1,0.1-0.1c0.1,0,0.2,0,0.3,0c0.1,0,0.2,0,0.4,0
		c0.1,0,0.3,0,0.4,0c0.1,0,0.2,0,0.4-0.1c0.1,0,0.2,0,0.2-0.1c0.1,0,0.1,0,0.1,0c0.1,0,0.2,0,0.2,0.1c0,0.1,0,0.1,0,0.2V746.2z
		 M472.1,740.8c-0.2,0-0.4-0.1-0.5-0.2c-0.1-0.1-0.2-0.3-0.2-0.5c0-0.2,0.1-0.3,0.2-0.5c0.1-0.1,0.3-0.2,0.5-0.2
		c0.2,0,0.3,0.1,0.5,0.2c0.1,0.1,0.2,0.3,0.2,0.5c0,0.2-0.1,0.3-0.2,0.4C472.5,740.8,472.3,740.8,472.1,740.8z"/>
	<path class="st1" d="M479,743.7c-0.5,1.3-1.1,2.7-1.7,4c0,0,0,0-0.1,0s-0.1,0-0.1,0s-0.1,0-0.1,0c0,0-0.1,0-0.1,0
		c-0.3-0.7-0.7-1.4-1-2c-0.3-0.7-0.6-1.4-0.9-2.1c-0.1-0.2-0.1-0.4-0.2-0.5c-0.1-0.1-0.1-0.2-0.2-0.3c-0.1-0.1-0.1-0.1-0.2-0.2
		c-0.1,0-0.2-0.1-0.4-0.1c0,0-0.1,0-0.1-0.1c0,0,0-0.1,0-0.1c0,0,0-0.1,0-0.1c0,0,0-0.1,0.1-0.1c0.2,0,0.5,0,0.7,0
		c0.2,0,0.5,0,0.7,0c0.2,0,0.5,0,0.7,0c0.2,0,0.5,0,0.7,0c0,0,0.1,0,0.1,0.1c0,0,0,0.1,0,0.1c0,0,0,0.1,0,0.1c0,0,0,0.1-0.1,0.1
		c-0.2,0-0.4,0.1-0.5,0.1c-0.1,0.1-0.2,0.2-0.2,0.3c0,0.1,0,0.3,0.1,0.4c0.2,0.5,0.4,1,0.6,1.4c0.2,0.5,0.4,0.9,0.6,1.3
		c0,0,0,0.1,0.1,0.1c0,0,0.1,0,0.1-0.1c0.1-0.2,0.2-0.4,0.3-0.6c0.1-0.3,0.2-0.5,0.3-0.8c0.1-0.3,0.2-0.5,0.3-0.8
		c0.1-0.3,0.2-0.5,0.2-0.7c0-0.1,0-0.2,0-0.3c0-0.2-0.1-0.3-0.2-0.4c-0.1,0-0.2-0.1-0.4-0.1c0,0-0.1,0-0.1-0.1c0,0,0-0.1,0-0.1
		c0,0,0-0.1,0-0.1c0,0,0.1-0.1,0.1-0.1c0.2,0,0.3,0,0.5,0c0.2,0,0.3,0,0.5,0c0.2,0,0.4,0,0.6,0c0.2,0,0.4,0,0.5,0c0,0,0.1,0,0.1,0.1
		s0,0.1,0,0.1c0,0,0,0.1,0,0.1s0,0.1-0.1,0.1c-0.2,0-0.3,0-0.4,0.1c-0.1,0.1-0.2,0.1-0.3,0.2c-0.1,0.1-0.2,0.2-0.2,0.4
		C479.1,743.4,479,743.6,479,743.7z"/>
	<path class="st1" d="M484.8,746.3c0,0.3,0,0.5,0.1,0.6c0.1,0.1,0.2,0.2,0.3,0.2c0.1,0,0.2,0,0.2,0c0.1,0,0.1-0.1,0.2-0.1
		c0,0,0,0,0.1,0c0,0,0.1,0,0.1,0.1c0,0,0,0.1,0,0.1c0,0,0,0.1,0,0.1c-0.3,0.4-0.7,0.6-1.1,0.6c-0.2,0-0.4-0.1-0.6-0.2
		s-0.3-0.3-0.4-0.4c0,0,0,0-0.1,0c-0.2,0.2-0.4,0.3-0.7,0.5c-0.3,0.1-0.6,0.2-1,0.2c-0.5,0-0.8-0.1-1.1-0.4s-0.4-0.6-0.4-1
		c0-0.6,0.3-1,0.8-1.3c0.5-0.3,1.3-0.5,2.3-0.5c0,0,0,0,0-0.1c0,0,0-0.1,0-0.3v-0.3c0-0.2,0-0.4,0-0.6c0-0.2-0.1-0.3-0.2-0.5
		c-0.1-0.1-0.2-0.2-0.3-0.3c-0.1-0.1-0.3-0.1-0.5-0.1c-0.3,0-0.5,0.1-0.7,0.2c-0.2,0.1-0.3,0.3-0.3,0.4c0,0.1,0,0.2,0.1,0.3
		c0.1,0.1,0.1,0.2,0.1,0.3c0,0.1-0.1,0.2-0.2,0.3c-0.1,0.1-0.2,0.2-0.4,0.2c-0.2,0-0.4-0.1-0.5-0.2c-0.1-0.1-0.1-0.3-0.1-0.4
		c0-0.2,0.1-0.4,0.2-0.6c0.1-0.2,0.3-0.3,0.5-0.5s0.4-0.2,0.7-0.3c0.3-0.1,0.5-0.1,0.8-0.1c0.6,0,1.1,0.1,1.5,0.4
		c0.4,0.3,0.6,0.8,0.6,1.5V746.3z M483.7,745.1c0-0.1,0-0.1,0-0.2s0,0-0.1,0c-0.7,0.1-1.1,0.2-1.5,0.4s-0.5,0.5-0.5,0.8
		c0,0.2,0.1,0.4,0.2,0.6s0.3,0.2,0.6,0.2c0.2,0,0.4,0,0.6-0.1c0.2-0.1,0.4-0.2,0.5-0.3c0.1-0.1,0.1-0.1,0.1-0.2V745.1z"/>
	<path class="st1" d="M487.4,741.5c0-0.3,0-0.6,0-0.8c0-0.2-0.1-0.4-0.1-0.5c-0.1-0.1-0.2-0.2-0.3-0.2c-0.1,0-0.3-0.1-0.5-0.1
		c0,0-0.1,0-0.1-0.1c0,0,0-0.1,0-0.1c0,0,0-0.1,0-0.1c0,0,0.1-0.1,0.1-0.1c0.2,0,0.5,0,0.9-0.1c0.3,0,0.7-0.1,1-0.2
		c0.1,0,0.2,0,0.2,0s0.1,0.1,0.1,0.1v6.7c0,0.2,0,0.4,0,0.5c0,0.1,0,0.2,0.1,0.3s0.1,0.2,0.3,0.2c0.1,0,0.3,0.1,0.5,0.1
		c0,0,0.1,0,0.1,0.1c0,0,0,0.1,0,0.1c0,0,0,0.1,0,0.1c0,0-0.1,0.1-0.1,0.1c-0.2,0-0.4,0-0.6,0c-0.2,0-0.5,0-0.7,0
		c-0.3,0-0.5,0-0.8,0s-0.5,0-0.8,0c0,0-0.1,0-0.1-0.1c0,0,0-0.1,0-0.1c0,0,0-0.1,0-0.1c0,0,0.1-0.1,0.1-0.1c0.2,0,0.4-0.1,0.5-0.1
		c0.1,0,0.2-0.1,0.3-0.2s0.1-0.2,0.1-0.3c0-0.1,0-0.3,0-0.5V741.5z"/>
	<path class="st1" d="M495.9,746c0,0.3,0,0.5,0.1,0.7s0.1,0.3,0.3,0.4c0.1,0.1,0.3,0.2,0.4,0.2c0.2,0,0.4,0.1,0.6,0.1
		c0.1,0,0.1,0,0.1,0.1s0,0.1,0,0.1c0,0,0,0.1,0,0.1c0,0-0.1,0.1-0.1,0.1c-0.4,0-0.8,0-1.1,0c-0.3,0-0.6,0-0.9,0c-0.3,0-0.6,0-0.9,0
		s-0.6,0-0.9,0c0,0-0.1,0-0.1-0.1c0,0,0-0.1,0-0.1c0,0,0-0.1,0-0.1c0,0,0.1-0.1,0.1-0.1c0.2,0,0.4-0.1,0.6-0.1
		c0.1,0,0.3-0.1,0.3-0.2c0.1-0.1,0.1-0.2,0.2-0.3c0-0.1,0-0.3,0-0.6v-4.5c0-0.2,0-0.4,0-0.5c0-0.2,0-0.3-0.1-0.5
		c0-0.1-0.1-0.3-0.2-0.4c-0.1-0.1-0.2-0.2-0.3-0.2c-0.1,0-0.2,0-0.3-0.1c-0.1,0-0.2,0-0.3,0c0,0-0.1,0-0.1-0.1s0-0.1,0-0.1
		c0,0,0-0.1,0-0.1c0,0,0.1-0.1,0.1-0.1c0.3,0,0.5,0,0.7,0s0.5,0,0.8,0c0.5,0,0.9,0,1.2,0s0.6,0,0.9,0c0.3,0,0.6,0,0.9,0.1
		c0.3,0.1,0.6,0.2,0.8,0.3s0.4,0.4,0.6,0.6c0.1,0.3,0.2,0.6,0.2,1c0,0.4-0.1,0.8-0.3,1.1c-0.2,0.3-0.4,0.5-0.7,0.7
		c-0.3,0.2-0.7,0.3-1.1,0.4c-0.4,0.1-0.9,0.1-1.3,0.2c-0.1,0-0.1,0-0.2,0c0,0-0.1,0.1-0.1,0.2V746z M495.9,743.4
		c0,0.1,0,0.1,0.1,0.1c0,0,0.1,0,0.2,0c0.4,0,0.7,0,1-0.1c0.3-0.1,0.5-0.2,0.6-0.3c0.2-0.1,0.3-0.3,0.3-0.5c0.1-0.2,0.1-0.5,0.1-0.8
		c0-0.6-0.1-1.1-0.3-1.3s-0.6-0.4-1.2-0.4c-0.3,0-0.5,0-0.6,0.1c-0.1,0.1-0.1,0.2-0.1,0.5V743.4z"/>
	<path class="st1" d="M501.5,744.6C501.5,744.6,501.4,744.6,501.5,744.6c-0.1,0.1-0.1,0.1-0.1,0.1c0,0.4,0,0.8,0.1,1.1
		s0.2,0.5,0.4,0.7s0.4,0.3,0.6,0.4c0.2,0.1,0.5,0.1,0.7,0.1c0.3,0,0.5,0,0.8-0.1c0.3,0,0.5-0.1,0.7-0.3c0,0,0.1,0,0.1,0
		s0.1,0,0.1,0.1c0,0,0,0.1,0.1,0.1c0,0,0,0.1,0,0.1c-0.3,0.3-0.5,0.6-0.9,0.7c-0.3,0.1-0.7,0.2-1.2,0.2c-0.5,0-0.9-0.1-1.2-0.2
		c-0.3-0.1-0.6-0.3-0.9-0.6c-0.2-0.3-0.4-0.6-0.5-0.9c-0.1-0.3-0.2-0.7-0.2-1.1c0-0.4,0.1-0.8,0.2-1.1s0.3-0.7,0.6-0.9
		c0.2-0.3,0.5-0.5,0.9-0.6s0.7-0.2,1.1-0.2c0.3,0,0.6,0.1,0.9,0.2c0.3,0.1,0.5,0.3,0.7,0.5c0.2,0.2,0.3,0.4,0.5,0.7
		c0.1,0.3,0.2,0.6,0.2,0.9c0,0.2-0.1,0.3-0.2,0.3H501.5z M503.7,744.1c0.1,0,0.2,0,0.2-0.1c0-0.1,0-0.2,0-0.3c0-0.2,0-0.3-0.1-0.5
		c-0.1-0.2-0.1-0.3-0.2-0.4c-0.1-0.1-0.2-0.2-0.3-0.3c-0.1-0.1-0.3-0.1-0.5-0.1c-0.2,0-0.4,0-0.6,0.1s-0.3,0.2-0.4,0.3
		c-0.1,0.1-0.2,0.3-0.2,0.4c-0.1,0.2-0.1,0.3-0.1,0.5c0,0.1,0,0.2,0,0.2c0,0.1,0,0.1,0.1,0.1H503.7z"/>
	<path class="st1" d="M507.9,746.2c0,0.2,0,0.4,0,0.5c0,0.1,0.1,0.2,0.1,0.3c0.1,0.1,0.2,0.2,0.3,0.2c0.2,0,0.4,0.1,0.7,0.1
		c0,0,0.1,0,0.1,0.1c0,0,0,0.1,0,0.1c0,0,0,0.1,0,0.1c0,0-0.1,0.1-0.1,0.1c-0.3,0-0.6,0-0.9,0c-0.3,0-0.5,0-0.8,0
		c-0.3,0-0.5,0-0.8,0s-0.5,0-0.8,0c0,0-0.1,0-0.1-0.1c0,0,0-0.1,0-0.1c0,0,0-0.1,0-0.1c0,0,0.1-0.1,0.1-0.1c0.2,0,0.4-0.1,0.5-0.1
		c0.1,0,0.2-0.1,0.3-0.2c0.1-0.1,0.1-0.2,0.1-0.3c0-0.1,0-0.3,0-0.5v-1.8c0-0.4,0-0.7,0-0.9c0-0.2-0.1-0.4-0.1-0.5
		c-0.1-0.1-0.2-0.2-0.3-0.2c-0.1,0-0.3-0.1-0.5-0.1c0,0-0.1,0-0.1-0.1c0,0,0-0.1,0-0.1s0-0.1,0-0.1c0,0,0.1-0.1,0.1-0.1
		c0.2,0,0.4,0,0.7-0.1c0.3,0,0.6-0.1,0.9-0.2c0.1,0,0.2,0,0.3,0c0.1,0,0.1,0.1,0.1,0.2l0,0.8c0,0,0,0,0,0c0,0,0,0,0,0
		c0.2-0.3,0.4-0.6,0.6-0.8s0.6-0.3,1-0.3c0.3,0,0.6,0.1,0.7,0.3s0.2,0.4,0.2,0.6c0,0.1-0.1,0.3-0.2,0.4s-0.3,0.2-0.4,0.2
		c-0.2,0-0.3,0-0.4-0.1c-0.1-0.1-0.1-0.2-0.1-0.3c0-0.1,0-0.2-0.1-0.3c0-0.1-0.1-0.1-0.3-0.1c-0.2,0-0.3,0.1-0.4,0.2
		c-0.1,0.1-0.2,0.2-0.3,0.4c-0.1,0.1-0.2,0.3-0.2,0.4c0,0.1-0.1,0.3-0.1,0.3V746.2z"/>
	<path class="st1" d="M512.8,746.2c0,0.2,0,0.4,0,0.5c0,0.1,0.1,0.2,0.1,0.3c0.1,0.1,0.2,0.1,0.3,0.2c0.1,0,0.4,0.1,0.6,0.1
		c0,0,0.1,0,0.1,0.1c0,0,0,0.1,0,0.1c0,0,0,0.1,0,0.1c0,0-0.1,0.1-0.1,0.1c-0.3,0-0.6,0-0.9,0s-0.5,0-0.7,0c-0.3,0-0.5,0-0.8,0
		s-0.5,0-0.7,0c0,0-0.1,0-0.1-0.1c0,0,0-0.1,0-0.1c0,0,0-0.1,0-0.1c0,0,0.1-0.1,0.1-0.1c0.2,0,0.4-0.1,0.5-0.1s0.2-0.1,0.3-0.2
		s0.1-0.2,0.1-0.3c0-0.1,0-0.3,0-0.5v-3.3c0-0.1,0-0.2,0-0.2c0,0-0.1,0-0.2,0h-0.6c0,0-0.1,0-0.1-0.1s0-0.1,0-0.1c0-0.1,0-0.1,0-0.2
		c0,0,0.1-0.1,0.1-0.1l0.6-0.1c0,0,0.1,0,0.1,0s0,0,0-0.1c0,0,0-0.1,0-0.1c0-0.1,0-0.2,0-0.3c0-0.4,0.1-0.7,0.2-1
		c0.1-0.3,0.3-0.6,0.5-0.8c0.2-0.2,0.5-0.4,0.8-0.5c0.3-0.1,0.7-0.2,1-0.2c0.2,0,0.4,0,0.6,0.1c0.2,0,0.4,0.1,0.5,0.2
		s0.3,0.2,0.4,0.4c0.1,0.1,0.1,0.3,0.1,0.5c0,0.1-0.1,0.3-0.2,0.4c-0.1,0.1-0.2,0.2-0.4,0.2c-0.1,0-0.3,0-0.4-0.1
		c-0.1-0.1-0.2-0.2-0.2-0.3c0-0.1,0-0.2,0.1-0.2s0.1-0.1,0.1-0.1c0-0.2-0.1-0.3-0.2-0.4c-0.1-0.1-0.3-0.1-0.5-0.1
		c-0.3,0-0.6,0.1-0.7,0.2c-0.2,0.1-0.3,0.3-0.4,0.5c-0.1,0.2-0.1,0.4-0.1,0.7c0,0.2,0,0.5,0,0.7v0.2c0,0.1,0,0.2,0,0.2
		c0,0,0.1,0,0.2,0h1.2c0,0,0.1,0,0.1,0.1c0,0.1,0,0.1,0,0.2s0,0.1,0,0.2c0,0.1-0.1,0.1-0.1,0.1H513c-0.1,0-0.1,0-0.2,0
		c0,0,0,0.1,0,0.2V746.2z"/>
	<path class="st1" d="M520.5,744.7c0,0.5-0.1,0.9-0.2,1.3c-0.1,0.4-0.3,0.7-0.6,0.9s-0.6,0.4-0.9,0.6c-0.4,0.1-0.7,0.2-1.2,0.2
		c-0.4,0-0.7-0.1-1-0.2s-0.6-0.3-0.8-0.6c-0.2-0.2-0.4-0.6-0.6-0.9c-0.1-0.4-0.2-0.8-0.2-1.3c0-0.4,0.1-0.8,0.2-1.1
		c0.1-0.3,0.3-0.6,0.6-0.9c0.2-0.2,0.5-0.4,0.9-0.6c0.3-0.1,0.7-0.2,1.1-0.2c0.4,0,0.8,0.1,1.1,0.2c0.3,0.1,0.6,0.3,0.9,0.5
		c0.2,0.2,0.4,0.5,0.6,0.8C520.4,743.9,520.5,744.3,520.5,744.7z M519.2,744.8c0-0.3,0-0.6-0.1-0.9c0-0.3-0.1-0.5-0.2-0.8
		c-0.1-0.2-0.2-0.4-0.4-0.5c-0.2-0.1-0.4-0.2-0.7-0.2c-0.3,0-0.6,0.1-0.8,0.2c-0.2,0.1-0.4,0.3-0.5,0.5c-0.1,0.2-0.2,0.5-0.2,0.8
		s-0.1,0.6-0.1,0.9c0,0.3,0,0.6,0.1,0.8c0,0.3,0.1,0.5,0.2,0.8c0.1,0.2,0.3,0.4,0.5,0.6c0.2,0.2,0.4,0.2,0.8,0.2
		c0.3,0,0.6-0.1,0.8-0.2c0.2-0.1,0.3-0.3,0.5-0.6c0.1-0.2,0.2-0.5,0.2-0.8C519.2,745.4,519.2,745.1,519.2,744.8z"/>
	<path class="st1" d="M523.2,746.2c0,0.2,0,0.4,0,0.5c0,0.1,0.1,0.2,0.1,0.3c0.1,0.1,0.2,0.2,0.3,0.2c0.2,0,0.4,0.1,0.7,0.1
		c0,0,0.1,0,0.1,0.1c0,0,0,0.1,0,0.1c0,0,0,0.1,0,0.1c0,0-0.1,0.1-0.1,0.1c-0.3,0-0.6,0-0.9,0c-0.3,0-0.5,0-0.8,0
		c-0.3,0-0.5,0-0.8,0s-0.5,0-0.8,0c0,0-0.1,0-0.1-0.1c0,0,0-0.1,0-0.1c0,0,0-0.1,0-0.1c0,0,0.1-0.1,0.1-0.1c0.2,0,0.4-0.1,0.5-0.1
		c0.1,0,0.2-0.1,0.3-0.2c0.1-0.1,0.1-0.2,0.1-0.3c0-0.1,0-0.3,0-0.5v-1.8c0-0.4,0-0.7,0-0.9c0-0.2-0.1-0.4-0.1-0.5
		c-0.1-0.1-0.2-0.2-0.3-0.2c-0.1,0-0.3-0.1-0.5-0.1c0,0-0.1,0-0.1-0.1c0,0,0-0.1,0-0.1s0-0.1,0-0.1c0,0,0.1-0.1,0.1-0.1
		c0.2,0,0.4,0,0.7-0.1c0.3,0,0.6-0.1,0.9-0.2c0.1,0,0.2,0,0.3,0c0.1,0,0.1,0.1,0.1,0.2l0,0.8c0,0,0,0,0,0c0,0,0,0,0,0
		c0.2-0.3,0.4-0.6,0.6-0.8s0.6-0.3,1-0.3c0.3,0,0.6,0.1,0.7,0.3s0.2,0.4,0.2,0.6c0,0.1-0.1,0.3-0.2,0.4s-0.3,0.2-0.4,0.2
		c-0.2,0-0.3,0-0.4-0.1c-0.1-0.1-0.1-0.2-0.1-0.3c0-0.1,0-0.2-0.1-0.3c0-0.1-0.1-0.1-0.3-0.1c-0.2,0-0.3,0.1-0.4,0.2
		c-0.1,0.1-0.2,0.2-0.3,0.4c-0.1,0.1-0.2,0.3-0.2,0.4c0,0.1-0.1,0.3-0.1,0.3V746.2z"/>
	<path class="st1" d="M528,746.2c0,0.2,0,0.4,0,0.5c0,0.1,0,0.2,0.1,0.3c0,0.1,0.1,0.2,0.2,0.2c0.1,0,0.3,0.1,0.5,0.1
		c0,0,0.1,0,0.1,0.1c0,0,0,0.1,0,0.1c0,0,0,0.1,0,0.1c0,0-0.1,0.1-0.1,0.1c-0.2,0-0.4,0-0.6,0c-0.2,0-0.5,0-0.7,0
		c-0.3,0-0.5,0-0.7,0s-0.5,0-0.7,0c0,0-0.1,0-0.1-0.1c0,0,0-0.1,0-0.1c0,0,0-0.1,0-0.1c0,0,0.1-0.1,0.1-0.1c0.2,0,0.4-0.1,0.5-0.1
		c0.1,0,0.2-0.1,0.2-0.2c0-0.1,0.1-0.2,0.1-0.3c0-0.1,0-0.3,0-0.5v-1.8c0-0.4,0-0.7,0-0.9c0-0.2,0-0.4-0.1-0.5
		c0-0.1-0.1-0.2-0.2-0.2s-0.2-0.1-0.4-0.1c0,0-0.1,0-0.1,0c0,0,0-0.1,0-0.1c0,0,0-0.1,0-0.1c0,0,0.1-0.1,0.1-0.1
		c0.1,0,0.3,0,0.6-0.1c0.3,0,0.5-0.1,0.8-0.2c0,0,0,0,0.1,0s0.1,0,0.1,0c0.1,0,0.1,0,0.2,0.1c0.1,0.1,0.1,0.1,0.1,0.2l0,0.6
		c0,0,0,0,0,0c0-0.1,0.1-0.1,0.2-0.3s0.2-0.2,0.4-0.3s0.3-0.2,0.5-0.3s0.5-0.1,0.7-0.1c0.5,0,0.9,0.1,1.2,0.3
		c0.3,0.2,0.5,0.5,0.7,0.9c0-0.1,0.1-0.2,0.2-0.3c0.1-0.1,0.3-0.3,0.4-0.4c0.2-0.1,0.4-0.2,0.6-0.3c0.2-0.1,0.5-0.1,0.7-0.1
		c0.4,0,0.7,0.1,0.9,0.2s0.4,0.3,0.6,0.5c0.1,0.2,0.2,0.4,0.3,0.7c0,0.3,0.1,0.6,0.1,0.9v1.9c0,0.2,0,0.4,0,0.5c0,0.1,0,0.2,0.1,0.3
		s0.1,0.2,0.2,0.2c0.1,0,0.2,0.1,0.4,0.1c0,0,0.1,0,0.1,0.1c0,0,0,0.1,0,0.1c0,0,0,0.1,0,0.1c0,0-0.1,0.1-0.1,0.1
		c-0.1,0-0.3,0-0.5,0c-0.2,0-0.5,0-0.7,0c-0.3,0-0.5,0-0.7,0c-0.2,0-0.4,0-0.6,0c0,0-0.1,0-0.1-0.1c0,0,0-0.1,0-0.1c0,0,0-0.1,0-0.1
		c0,0,0.1-0.1,0.1-0.1c0.2,0,0.3-0.1,0.4-0.1c0.1,0,0.2-0.1,0.2-0.2c0-0.1,0.1-0.2,0.1-0.3c0-0.1,0-0.3,0-0.5v-1.5
		c0-0.2,0-0.4,0-0.7c0-0.2-0.1-0.4-0.1-0.6c-0.1-0.2-0.2-0.3-0.3-0.5c-0.1-0.1-0.3-0.2-0.6-0.2c-0.2,0-0.4,0.1-0.6,0.2
		s-0.4,0.2-0.5,0.4c-0.1,0.2-0.3,0.3-0.3,0.5s-0.1,0.4-0.1,0.5v1.8c0,0.2,0,0.4,0,0.6c0,0.1,0,0.2,0.1,0.3c0,0.1,0.1,0.1,0.2,0.2
		c0.1,0,0.2,0.1,0.4,0.1c0,0,0.1,0,0.1,0.1c0,0,0,0.1,0,0.1c0,0,0,0.1,0,0.1c0,0-0.1,0.1-0.1,0.1c-0.1,0-0.3,0-0.5,0
		c-0.2,0-0.5,0-0.7,0c-0.3,0-0.5,0-0.7,0s-0.4,0-0.6,0c0,0-0.1,0-0.1-0.1c0,0,0-0.1,0-0.1c0,0,0-0.1,0-0.1c0,0,0.1-0.1,0.1-0.1
		c0.2,0,0.3-0.1,0.4-0.1c0.1,0,0.2-0.1,0.2-0.2s0.1-0.2,0.1-0.3s0-0.3,0-0.5v-1.5c0-0.2,0-0.4,0-0.7c0-0.2-0.1-0.4-0.1-0.6
		c-0.1-0.2-0.2-0.3-0.3-0.5c-0.1-0.1-0.3-0.2-0.6-0.2c-0.3,0-0.5,0.1-0.7,0.2c-0.2,0.1-0.4,0.2-0.5,0.4c-0.1,0.2-0.2,0.3-0.3,0.5
		c-0.1,0.2-0.1,0.4-0.1,0.6V746.2z"/>
	<path class="st1" d="M538.4,744.6C538.4,744.6,538.4,744.6,538.4,744.6c-0.1,0.1-0.1,0.1-0.1,0.1c0,0.4,0,0.8,0.1,1.1
		c0.1,0.3,0.2,0.5,0.4,0.7s0.4,0.3,0.6,0.4c0.2,0.1,0.5,0.1,0.7,0.1c0.3,0,0.5,0,0.8-0.1c0.3,0,0.5-0.1,0.7-0.3c0,0,0.1,0,0.1,0
		c0,0,0.1,0,0.1,0.1c0,0,0,0.1,0.1,0.1c0,0,0,0.1,0,0.1c-0.3,0.3-0.5,0.6-0.9,0.7c-0.3,0.1-0.7,0.2-1.2,0.2c-0.5,0-0.9-0.1-1.2-0.2
		c-0.3-0.1-0.6-0.3-0.9-0.6c-0.2-0.3-0.4-0.6-0.5-0.9c-0.1-0.3-0.2-0.7-0.2-1.1c0-0.4,0.1-0.8,0.2-1.1c0.1-0.4,0.3-0.7,0.6-0.9
		s0.5-0.5,0.9-0.6s0.7-0.2,1.1-0.2c0.3,0,0.6,0.1,0.9,0.2s0.5,0.3,0.7,0.5c0.2,0.2,0.3,0.4,0.4,0.7c0.1,0.3,0.2,0.6,0.2,0.9
		c0,0.2-0.1,0.3-0.2,0.3H538.4z M540.6,744.1c0.1,0,0.2,0,0.2-0.1c0-0.1,0-0.2,0-0.3c0-0.2,0-0.3-0.1-0.5c-0.1-0.2-0.1-0.3-0.2-0.4
		c-0.1-0.1-0.2-0.2-0.3-0.3c-0.1-0.1-0.3-0.1-0.5-0.1c-0.2,0-0.4,0-0.6,0.1s-0.3,0.2-0.4,0.3s-0.2,0.3-0.2,0.4
		c-0.1,0.2-0.1,0.3-0.1,0.5c0,0.1,0,0.2,0,0.2c0,0.1,0,0.1,0.1,0.1H540.6z"/>
	<path class="st1" d="M544.8,746.2c0,0.2,0,0.4,0,0.5c0,0.1,0.1,0.2,0.1,0.3c0.1,0.1,0.2,0.2,0.3,0.2c0.2,0,0.4,0.1,0.7,0.1
		c0,0,0.1,0,0.1,0.1c0,0,0,0.1,0,0.1c0,0,0,0.1,0,0.1c0,0-0.1,0.1-0.1,0.1c-0.3,0-0.6,0-0.9,0c-0.3,0-0.5,0-0.8,0
		c-0.3,0-0.5,0-0.8,0s-0.5,0-0.8,0c0,0-0.1,0-0.1-0.1c0,0,0-0.1,0-0.1c0,0,0-0.1,0-0.1c0,0,0.1-0.1,0.1-0.1c0.2,0,0.4-0.1,0.5-0.1
		c0.1,0,0.2-0.1,0.3-0.2c0.1-0.1,0.1-0.2,0.1-0.3c0-0.1,0-0.3,0-0.5v-1.8c0-0.4,0-0.7,0-0.9c0-0.2-0.1-0.4-0.1-0.5
		c-0.1-0.1-0.2-0.2-0.3-0.2c-0.1,0-0.3-0.1-0.5-0.1c0,0-0.1,0-0.1-0.1c0,0,0-0.1,0-0.1s0-0.1,0-0.1c0,0,0.1-0.1,0.1-0.1
		c0.2,0,0.4,0,0.7-0.1c0.3,0,0.6-0.1,0.9-0.2c0.1,0,0.2,0,0.3,0c0.1,0,0.1,0.1,0.1,0.2l0,0.8c0,0,0,0,0,0c0,0,0,0,0,0
		c0.2-0.3,0.4-0.6,0.6-0.8s0.6-0.3,1-0.3c0.3,0,0.6,0.1,0.7,0.3s0.2,0.4,0.2,0.6c0,0.1-0.1,0.3-0.2,0.4s-0.3,0.2-0.4,0.2
		c-0.2,0-0.3,0-0.4-0.1c-0.1-0.1-0.1-0.2-0.1-0.3c0-0.1,0-0.2-0.1-0.3c0-0.1-0.1-0.1-0.3-0.1c-0.2,0-0.3,0.1-0.4,0.2
		c-0.1,0.1-0.2,0.2-0.3,0.4c-0.1,0.1-0.2,0.3-0.2,0.4c0,0.1-0.1,0.3-0.1,0.3V746.2z"/>
	<path class="st1" d="M451.2,752c0-0.2,0-0.4-0.1-0.6c0-0.1-0.1-0.2-0.2-0.3s-0.2-0.1-0.3-0.2c-0.1,0-0.3,0-0.5-0.1
		c0,0-0.1,0-0.1-0.1s0-0.1,0-0.1c0,0,0-0.1,0-0.1c0,0,0.1-0.1,0.1-0.1c0.1,0,0.2,0,0.3,0c0.2,0,0.3,0,0.5,0c0.2,0,0.4,0,0.6,0
		c0.2,0,0.4,0,0.5,0s0.3,0,0.4,0c0.1,0,0.2,0,0.2,0.1l2.4,5.7c0,0,0,0,0,0c0,0,0,0,0.1,0l2.4-5.7c0,0,0.1-0.1,0.3-0.1
		c0.2,0,0.4,0,0.7,0c0.3,0,0.5,0,0.8,0s0.5,0,0.6,0c0,0,0.1,0,0.1,0.1c0,0,0,0.1,0,0.1c0,0,0,0.1,0,0.1c0,0-0.1,0.1-0.1,0.1
		c-0.3,0-0.5,0.1-0.6,0.1s-0.3,0.1-0.3,0.2s-0.1,0.3-0.1,0.5c0,0.2,0,0.5,0,0.9v4.4c0,0.3,0,0.5,0,0.6c0,0.1,0.1,0.3,0.2,0.3
		c0.1,0.1,0.2,0.1,0.4,0.2c0.2,0,0.3,0.1,0.6,0.1c0,0,0.1,0,0.1,0.1c0,0,0,0.1,0,0.1c0,0,0,0.1,0,0.1c0,0-0.1,0.1-0.1,0.1
		c-0.3,0-0.6,0-0.9,0c-0.3,0-0.6,0-0.9,0c-0.3,0-0.6,0-0.9,0s-0.6,0-0.9,0c0,0-0.1,0-0.1-0.1c0,0,0-0.1,0-0.1c0,0,0-0.1,0-0.1
		c0,0,0.1-0.1,0.1-0.1c0.2,0,0.4-0.1,0.6-0.1c0.1,0,0.3-0.1,0.3-0.2c0.1-0.1,0.1-0.2,0.2-0.3c0-0.1,0-0.4,0-0.6v-4.5
		c0-0.1,0-0.1-0.1-0.1c-0.1,0-0.1,0-0.1,0.1l-1.7,4.1c-0.1,0.3-0.2,0.6-0.4,0.9c-0.1,0.3-0.2,0.7-0.3,1c0,0,0,0-0.1,0.1
		c0,0-0.1,0-0.1,0s-0.1,0-0.1,0c0,0-0.1,0-0.1-0.1l-2.6-6c0,0-0.1-0.1-0.1-0.1s-0.1,0-0.1,0.1v4.5c0,0.3,0,0.5,0.1,0.7
		s0.1,0.3,0.2,0.4s0.2,0.1,0.3,0.2c0.1,0,0.3,0.1,0.5,0.1c0,0,0.1,0,0.1,0.1c0,0,0,0.1,0,0.1c0,0,0,0.1,0,0.1c0,0-0.1,0.1-0.1,0.1
		c-0.2,0-0.4,0-0.6,0c-0.2,0-0.5,0-0.8,0c-0.3,0-0.6,0-0.8,0s-0.4,0-0.6,0c0,0-0.1,0-0.1-0.1c0,0,0-0.1,0-0.1c0,0,0-0.1,0-0.1
		c0,0,0.1-0.1,0.1-0.1c0.2,0,0.4-0.1,0.5-0.1c0.1,0,0.3-0.1,0.3-0.2s0.1-0.2,0.2-0.4c0-0.2,0.1-0.4,0.1-0.7V752z"/>
	<path class="st1" d="M462.3,755.6C462.2,755.6,462.2,755.6,462.3,755.6c-0.1,0.1-0.1,0.1-0.1,0.1c0,0.4,0,0.8,0.1,1.1
		c0.1,0.3,0.2,0.5,0.4,0.7s0.4,0.3,0.6,0.4c0.2,0.1,0.5,0.1,0.7,0.1c0.3,0,0.5,0,0.8-0.1c0.3,0,0.5-0.1,0.7-0.3c0,0,0.1,0,0.1,0
		c0,0,0.1,0,0.1,0.1c0,0,0,0.1,0.1,0.1c0,0,0,0.1,0,0.1c-0.3,0.3-0.5,0.6-0.9,0.7c-0.3,0.1-0.7,0.2-1.2,0.2c-0.5,0-0.9-0.1-1.2-0.2
		c-0.3-0.1-0.6-0.3-0.9-0.6c-0.2-0.3-0.4-0.6-0.5-0.9c-0.1-0.3-0.2-0.7-0.2-1.1c0-0.4,0.1-0.8,0.2-1.1c0.1-0.4,0.3-0.7,0.6-0.9
		s0.5-0.5,0.9-0.6s0.7-0.2,1.1-0.2c0.3,0,0.6,0.1,0.9,0.2s0.5,0.3,0.7,0.5c0.2,0.2,0.3,0.4,0.4,0.7c0.1,0.3,0.2,0.6,0.2,0.9
		c0,0.2-0.1,0.3-0.2,0.3H462.3z M464.5,755.1c0.1,0,0.2,0,0.2-0.1c0-0.1,0-0.2,0-0.3c0-0.2,0-0.3-0.1-0.5c-0.1-0.2-0.1-0.3-0.2-0.4
		c-0.1-0.1-0.2-0.2-0.3-0.3c-0.1-0.1-0.3-0.1-0.5-0.1c-0.2,0-0.4,0-0.6,0.1s-0.3,0.2-0.4,0.3s-0.2,0.3-0.2,0.4
		c-0.1,0.2-0.1,0.3-0.1,0.5c0,0.1,0,0.2,0,0.2c0,0.1,0,0.1,0.1,0.1H464.5z"/>
	<path class="st1" d="M467.7,752.5c0-0.3,0-0.6,0-0.8c0-0.2-0.1-0.4-0.1-0.5c-0.1-0.1-0.2-0.2-0.3-0.2c-0.1,0-0.3-0.1-0.5-0.1
		c0,0-0.1,0-0.1-0.1s0-0.1,0-0.1s0-0.1,0-0.1s0.1-0.1,0.1-0.1c0.2,0,0.5,0,0.9-0.1c0.3,0,0.7-0.1,1-0.2c0.1,0,0.2,0,0.2,0
		c0,0,0.1,0.1,0.1,0.1v6.7c0,0.2,0,0.4,0,0.5c0,0.1,0,0.2,0.1,0.3c0.1,0.1,0.1,0.2,0.3,0.2c0.1,0,0.3,0.1,0.5,0.1c0,0,0.1,0,0.1,0.1
		c0,0,0,0.1,0,0.1c0,0,0,0.1,0,0.1c0,0-0.1,0.1-0.1,0.1c-0.2,0-0.4,0-0.6,0c-0.2,0-0.5,0-0.7,0c-0.3,0-0.5,0-0.8,0s-0.5,0-0.8,0
		c0,0-0.1,0-0.1-0.1c0,0,0-0.1,0-0.1c0,0,0-0.1,0-0.1c0,0,0.1-0.1,0.1-0.1c0.2,0,0.4-0.1,0.5-0.1c0.1,0,0.2-0.1,0.3-0.2
		c0.1-0.1,0.1-0.2,0.1-0.3c0-0.1,0-0.3,0-0.5V752.5z"/>
	<path class="st1" d="M475,752.1c0,0.2,0.1,0.4,0.2,0.6s0.2,0.3,0.4,0.4c0.2,0.1,0.3,0.2,0.5,0.3c0.2,0.1,0.4,0.2,0.5,0.2
		c0.3,0.1,0.6,0.3,0.9,0.5c0.3,0.2,0.6,0.3,0.8,0.6s0.4,0.5,0.6,0.8s0.2,0.6,0.2,1.1s-0.1,0.8-0.3,1c-0.2,0.3-0.4,0.5-0.7,0.7
		c-0.3,0.2-0.6,0.3-0.9,0.4c-0.3,0.1-0.7,0.1-1,0.1c-0.2,0-0.5,0-0.8-0.1c-0.3-0.1-0.5-0.2-0.8-0.3c0,0-0.1,0-0.1,0c0,0-0.1,0-0.1,0
		s-0.1,0-0.2,0.1c-0.1,0-0.1,0.1-0.2,0.3c0,0-0.1,0.1-0.1,0.1c0,0-0.1,0-0.1,0c0,0-0.1,0-0.1,0c0,0,0-0.1,0-0.1c0-0.2,0-0.4,0.1-0.6
		c0-0.2,0-0.4,0-0.6s0-0.4,0-0.6s0-0.4-0.1-0.6c0,0,0-0.1,0-0.1c0,0,0.1-0.1,0.1-0.1c0,0,0.1,0,0.1,0c0,0,0.1,0.1,0.1,0.1
		c0,0.3,0.1,0.6,0.3,0.9s0.3,0.5,0.5,0.7c0.2,0.2,0.4,0.3,0.7,0.4s0.5,0.2,0.8,0.2c0.2,0,0.4,0,0.6-0.1c0.2-0.1,0.4-0.1,0.5-0.3
		c0.2-0.1,0.3-0.3,0.4-0.4s0.1-0.4,0.1-0.6c0-0.3-0.1-0.5-0.2-0.8c-0.1-0.2-0.3-0.4-0.5-0.6c-0.2-0.2-0.4-0.3-0.6-0.4
		c-0.2-0.1-0.4-0.2-0.6-0.3c-0.3-0.1-0.5-0.2-0.8-0.4c-0.3-0.1-0.5-0.3-0.7-0.5s-0.4-0.4-0.5-0.6c-0.1-0.3-0.2-0.6-0.2-0.9
		c0-0.4,0.1-0.7,0.2-1c0.2-0.3,0.4-0.5,0.6-0.6c0.3-0.2,0.5-0.3,0.9-0.3c0.3-0.1,0.7-0.1,1-0.1c0.2,0,0.4,0,0.6,0
		c0.2,0,0.3,0.1,0.5,0.1c0.1,0,0.2,0.1,0.3,0.1c0.1,0,0.1,0,0.2,0c0.1,0,0.2,0,0.2-0.1c0,0,0-0.1,0.1-0.1c0,0,0.1,0,0.1,0
		c0,0,0.1,0,0.1,0c0,0,0,0,0,0.1c0,0.1-0.1,0.3-0.1,0.4s0,0.3,0,0.5c0,0.2,0,0.4,0,0.6c0,0.2,0,0.4,0.1,0.6c0,0,0,0,0,0.1
		c0,0-0.1,0-0.1,0s-0.1,0-0.1,0s-0.1,0-0.1-0.1c-0.1-0.4-0.2-0.6-0.3-0.9c-0.1-0.2-0.2-0.4-0.4-0.5c-0.1-0.1-0.3-0.2-0.5-0.3
		c-0.2,0-0.5-0.1-0.7-0.1c-0.2,0-0.4,0-0.6,0.1c-0.2,0.1-0.3,0.1-0.5,0.2s-0.2,0.2-0.3,0.4C475,751.8,475,751.9,475,752.1z"/>
	<path class="st1" d="M485.5,755.7c0,0.5-0.1,0.9-0.2,1.3s-0.3,0.7-0.6,0.9s-0.6,0.4-0.9,0.6c-0.4,0.1-0.7,0.2-1.2,0.2
		c-0.4,0-0.7-0.1-1-0.2s-0.6-0.3-0.8-0.6c-0.2-0.2-0.4-0.6-0.6-0.9c-0.1-0.4-0.2-0.8-0.2-1.3c0-0.4,0.1-0.8,0.2-1.1s0.3-0.6,0.6-0.9
		c0.2-0.2,0.5-0.4,0.9-0.6c0.3-0.1,0.7-0.2,1.1-0.2c0.4,0,0.8,0.1,1.1,0.2c0.3,0.1,0.6,0.3,0.9,0.5c0.2,0.2,0.4,0.5,0.6,0.8
		S485.5,755.3,485.5,755.7z M484.3,755.8c0-0.3,0-0.6-0.1-0.9c0-0.3-0.1-0.5-0.2-0.8s-0.2-0.4-0.4-0.5c-0.2-0.1-0.4-0.2-0.7-0.2
		c-0.3,0-0.6,0.1-0.8,0.2c-0.2,0.1-0.4,0.3-0.5,0.5c-0.1,0.2-0.2,0.5-0.2,0.8c0,0.3-0.1,0.6-0.1,0.9c0,0.3,0,0.6,0.1,0.8
		c0,0.3,0.1,0.5,0.2,0.8c0.1,0.2,0.3,0.4,0.5,0.6c0.2,0.2,0.4,0.2,0.8,0.2c0.3,0,0.6-0.1,0.8-0.2c0.2-0.1,0.3-0.3,0.5-0.6
		s0.2-0.5,0.2-0.8C484.3,756.4,484.3,756.1,484.3,755.8z"/>
	<path class="st1" d="M491.9,756.5c0,0.3,0,0.6,0,0.8c0,0.2,0,0.4,0.1,0.5c0.1,0.1,0.1,0.2,0.3,0.2c0.1,0,0.3,0.1,0.5,0.1
		c0,0,0.1,0,0.1,0.1c0,0,0,0.1,0,0.1c0,0,0,0.1,0,0.1c0,0,0,0.1-0.1,0.1c-0.1,0-0.1,0-0.2,0c0,0-0.1,0-0.1,0c0,0-0.1,0-0.1,0
		s-0.1,0-0.2,0c-0.1,0-0.2,0-0.3,0c-0.1,0-0.2,0-0.4,0.1c-0.1,0-0.2,0-0.3,0.1s-0.2,0-0.2,0c-0.1,0-0.2-0.2-0.2-0.7c0,0,0,0,0,0
		c0,0,0,0,0,0c-0.3,0.3-0.6,0.4-0.9,0.5c-0.3,0.1-0.6,0.1-0.9,0.1c-0.4,0-0.7,0-0.9-0.1c-0.2-0.1-0.4-0.2-0.6-0.4
		c-0.1-0.2-0.2-0.4-0.3-0.7c-0.1-0.3-0.1-0.6-0.1-0.9v-1.4c0-0.3,0-0.6,0-0.8c0-0.2-0.1-0.3-0.1-0.4c-0.1-0.1-0.1-0.2-0.3-0.2
		c-0.1,0-0.3-0.1-0.5-0.1c0,0-0.1,0-0.1-0.1c0,0,0-0.1,0-0.1c0,0,0-0.1,0-0.1c0,0,0.1-0.1,0.1-0.1c0.1,0,0.2,0,0.3,0
		c0.1,0,0.3,0,0.4-0.1c0.2,0,0.3-0.1,0.5-0.1s0.3-0.1,0.5-0.1c0.1,0,0.2,0,0.2,0.1c0,0.1,0.1,0.1,0.1,0.2v2.9c0,0.3,0,0.6,0,0.8
		c0,0.2,0.1,0.4,0.2,0.6s0.2,0.2,0.3,0.3c0.1,0.1,0.3,0.1,0.5,0.1c0.3,0,0.6,0,0.9-0.1c0.3-0.1,0.5-0.2,0.7-0.3c0,0,0-0.1,0-0.1
		s0-0.1,0-0.1v-1.9c0-0.3,0-0.6,0-0.8c0-0.2,0-0.3-0.1-0.4c0-0.1-0.1-0.2-0.2-0.2c-0.1,0-0.2-0.1-0.4-0.1c0,0-0.1,0-0.1-0.1
		c0,0,0-0.1,0-0.1c0,0,0-0.1,0-0.1c0,0,0.1-0.1,0.1-0.1c0.3,0,0.6-0.1,0.8-0.1c0.2-0.1,0.5-0.1,0.8-0.2c0.1,0,0.2,0,0.2,0.1
		c0,0.1,0.1,0.1,0.1,0.2V756.5z"/>
	<path class="st1" d="M494.5,752.5c0-0.3,0-0.6,0-0.8c0-0.2-0.1-0.4-0.1-0.5c-0.1-0.1-0.2-0.2-0.3-0.2c-0.1,0-0.3-0.1-0.5-0.1
		c0,0-0.1,0-0.1-0.1c0,0,0-0.1,0-0.1c0,0,0-0.1,0-0.1c0,0,0.1-0.1,0.1-0.1c0.2,0,0.5,0,0.9-0.1c0.3,0,0.7-0.1,1-0.2
		c0.1,0,0.2,0,0.2,0s0.1,0.1,0.1,0.1v6.7c0,0.2,0,0.4,0,0.5c0,0.1,0,0.2,0.1,0.3s0.1,0.2,0.3,0.2c0.1,0,0.3,0.1,0.5,0.1
		c0,0,0.1,0,0.1,0.1c0,0,0,0.1,0,0.1c0,0,0,0.1,0,0.1c0,0-0.1,0.1-0.1,0.1c-0.2,0-0.4,0-0.6,0c-0.2,0-0.5,0-0.7,0
		c-0.3,0-0.5,0-0.8,0s-0.5,0-0.8,0c0,0-0.1,0-0.1-0.1c0,0,0-0.1,0-0.1c0,0,0-0.1,0-0.1c0,0,0.1-0.1,0.1-0.1c0.2,0,0.4-0.1,0.5-0.1
		c0.1,0,0.2-0.1,0.3-0.2s0.1-0.2,0.1-0.3c0-0.1,0-0.3,0-0.5V752.5z"/>
</g>
</svg>
