<?xml version="1.0" encoding="utf-8"?>
<!-- Generator: Adobe Illustrator 21.1.0, SVG Export Plug-In . SVG Version: 6.00 Build 0)  -->
<svg version="1.1" id="Layer_1" xmlns="http://www.w3.org/2000/svg" xmlns:xlink="http://www.w3.org/1999/xlink" x="0px" y="0px"
	 viewBox="0 0 621.4 801.4" style="enable-background:new 0 0 621.4 801.4;" xml:space="preserve">
<style type="text/css">
	.st0{fill:#FFFFFF;}
	.st1{fill:#FFFFFF;stroke:#FFFFFF;stroke-width:0.25;stroke-miterlimit:10;}
	.st2{stroke:#000000;stroke-width:0.25;stroke-miterlimit:10;}
	.st3{fill:#1F8AC9;}
	.st4{fill:#000101;stroke:#000101;stroke-width:0.25;stroke-miterlimit:10;}
	.st5{opacity:0.75;fill:#FFFFFF;}
	.st6{fill:#9A453E;}
	.st7{fill:#5D2318;}
	.st8{fill:#5D2318;stroke:#5D2318;stroke-width:0.25;stroke-miterlimit:10;}
	.st9{fill:#9A453E;stroke:#9A453E;stroke-width:0.25;stroke-miterlimit:10;}
	.st10{fill:#933A28;}
	.st11{fill:#29326B;stroke:#29326B;stroke-width:0.25;stroke-miterlimit:10;}
	.st12{fill:#FFFFFF;fill-opacity:0.27;}
	.st13{fill:#5D2217;}
	.st14{fill:#99443E;}
	.st15{stroke:#000000;stroke-width:0.5;stroke-miterlimit:10;}
	.st16{fill:#473181;stroke:#473181;stroke-width:0.5;stroke-miterlimit:10;}
	.st17{fill:#090E31;}
	.st18{fill:#442033;}
	.st19{fill:#473181;}
	.st20{fill:#BDA677;}
	.st21{fill:#FFFFFF;stroke:#FFFFFF;stroke-miterlimit:10;}
	.st22{fill:#2C3471;}
	.st23{fill:#2C3471;stroke:#2C3471;stroke-width:0.25;stroke-miterlimit:10;}
	.st24{fill:#00B4EC;}
	.st25{opacity:0.15;}
	.st26{fill:#21283A;stroke:#21283A;stroke-width:0.25;stroke-miterlimit:10;}
	.st27{clip-path:url(#SVGID_2_);}
	.st28{opacity:0.12;}
	.st29{fill:#0C2537;}
	.st30{opacity:0.8;}
	.st31{fill:#737273;}
	.st32{opacity:0.85;fill:#FFFFFF;}
	.st33{fill:#B9DCE8;}
</style>
<g>
	<path class="st6" d="M575.1,752.8L575.1,752.8l-1.5,0.8l-0.2-0.9l1.8-1h1v8.5h-1.1V752.8z"/>
	<path class="st6" d="M584.1,752.6c-0.2,0-0.5,0-0.9,0.1c-1.8,0.3-2.7,1.6-2.9,3h0c0.4-0.5,1.1-1,2-1c1.5,0,2.5,1.1,2.5,2.7
		c0,1.5-1.1,3-2.8,3c-1.8,0-3-1.4-3-3.6c0-1.7,0.6-3,1.4-3.8c0.7-0.7,1.6-1.1,2.7-1.2c0.3-0.1,0.6-0.1,0.8-0.1V752.6z M583.8,757.4
		c0-1.2-0.7-1.9-1.7-1.9c-0.7,0-1.3,0.4-1.6,1c-0.1,0.1-0.1,0.3-0.1,0.5c0,1.4,0.7,2.4,1.9,2.4C583.1,759.5,583.8,758.6,583.8,757.4
		z"/>
</g>
<g>
	<g>
		<path class="st0" d="M200.5,560.4c-1.1-1.8-2-3.8-2.6-6.1c-0.6-2.3-1.1-4.7-1.4-7.1c-0.3-2.4-0.5-4.8-0.6-7.2
			c-0.1-2.4-0.1-4.7-0.1-6.7l-9.7,24.3l-8.1-3.6l-0.5-29.5c-2,5.8-3.8,11.6-5.6,17.3c-1.7,5.7-3.6,11.5-5.6,17.3l-13.9-0.1
			c0-2.4,0-4.8-0.1-7.3c-0.1-2.4-0.1-4.9-0.1-7.3v-10.6c0-1.4,0-3,0-4.8c0-1.8,0.1-3.8,0.1-5.9c0.1-2.1,0.2-4.2,0.3-6.4
			c0.1-2.2,0.3-4.3,0.6-6.3c0.3-2,0.6-3.9,1-5.6c0.4-1.7,0.9-3.1,1.4-4.3l16.8,4c-0.7,0.5-1.3,1.4-1.9,2.8c-0.6,1.3-1.1,2.9-1.6,4.7
			c-0.5,1.8-1,3.7-1.4,5.7c-0.5,2-0.8,4-1.2,5.9c-0.3,1.9-0.6,3.7-0.9,5.3c-0.3,1.6-0.5,2.8-0.6,3.7l10.9-27l11.1,3.1l0.4,17.1
			c1.4-3.4,2.9-6.7,4.6-9.9c1.7-3.2,3.6-6.4,5.6-9.5l9.5,3.8c-0.5,3.8-1,7.7-1.5,11.5c-0.5,3.8-0.7,7.7-0.7,11.7
			c0,1.7,0,3.4,0.1,5.3c0.1,1.9,0.3,3.8,0.7,5.7c0.4,1.9,0.9,3.7,1.6,5.4c0.7,1.7,1.6,3.3,2.8,4.6L200.5,560.4z"/>
		<path class="st0" d="M254.3,531.8c-0.3,1.1-0.7,2.5-1.2,4.1c-0.5,1.6-1.1,3.3-1.8,5c-0.7,1.7-1.5,3.5-2.4,5.2
			c-0.9,1.7-1.9,3.3-3,4.6c-1.1,1.3-2.3,2.4-3.6,3.3c-1.3,0.9-2.6,1.3-4,1.3c-1.1,0-2.1-0.4-2.9-1.1c-0.8-0.7-1.5-1.6-2-2.6
			c-0.5-1-1-2.1-1.3-3.3c-0.3-1.2-0.5-2.2-0.7-3.1c-0.5,1.1-1.1,2.3-1.8,3.4c-0.7,1.2-1.5,2.2-2.4,3.2c-0.9,0.9-2,1.7-3.1,2.3
			c-1.1,0.6-2.4,0.9-3.8,0.9c-1.9,0-3.7-0.6-5.2-1.7c-1.5-1.1-2.8-2.5-3.8-4.2c-1-1.7-1.8-3.5-2.3-5.4c-0.5-1.9-0.8-3.7-0.8-5.4
			c0-1.8,0.1-3.6,0.4-5.5c0.3-1.9,0.8-3.8,1.5-5.6c0.7-1.8,1.6-3.4,2.7-4.9c1.1-1.5,2.6-2.6,4.3-3.5l11.9,3.1
			c0.5,0.7,0.9,1.4,1.2,2.1c0.3,0.7,0.6,1.5,0.8,2.2c0.1-1.4,0.3-2.9,0.4-4.3c0.1-1.5,0.5-2.9,1.2-4.2l13.3,3.5
			c-1.9,2-3.3,4.5-4,7.3c-0.8,2.8-1.1,5.6-1.1,8.3c0,2.7,0.5,4.6,1.5,6c1,1.4,2,1.4,2.9,0.2c0.9-1.3,1.8-2.8,2.6-4.3
			c0.8-1.7,1.5-3.3,2-4.9c0.5-1.6,0.9-2.9,1.2-3.8l0.8-0.1C252.9,530.1,253.8,530.7,254.3,531.8z M224.3,546.2
			c1.7,0,3.1-0.6,4.2-1.7c1.1-1.2,1.9-2.5,2.4-3.9c-0.1-1-0.1-2.3-0.1-3.9c0-1.5-0.1-3-0.4-4.5c-0.3-1.4-0.8-2.7-1.5-3.7
			c-0.7-1-1.9-1.6-3.5-1.6c-1.3,0-2.3,0.4-3.2,1.2c-0.9,0.8-1.5,1.7-2,2.9c-0.5,1.1-0.9,2.3-1.1,3.6s-0.3,2.4-0.3,3.4
			c0,0.9,0.1,1.8,0.2,2.7c0.2,1,0.4,1.9,0.9,2.7c0.4,0.8,1,1.5,1.7,2C222.3,545.9,223.2,546.2,224.3,546.2z"/>
		<path class="st0" d="M287.4,531.5c-0.3,1.1-0.7,2.5-1.2,4.2c-0.5,1.6-1.1,3.3-1.8,5c-0.7,1.7-1.5,3.4-2.4,5.1
			c-0.9,1.7-1.9,3.2-3,4.6c-1.1,1.4-2.3,2.5-3.6,3.3c-1.3,0.8-2.7,1.2-4.1,1.2c-1.3,0-2.4-0.4-3.3-1.2c-0.9-0.8-1.6-1.8-2.2-3.1
			c-0.6-1.3-1.1-2.7-1.4-4.3c-0.3-1.6-0.6-3.1-0.7-4.7c-0.2-1.6-0.3-3-0.3-4.4c0-1.4,0-2.5,0-3.4c0-1.7,0-3.3,0.1-5
			c0.1-1.7,0.2-3.3,0.4-5c-1.1,0.2-2.3,0.3-3.5,0.2c-1.2-0.1-2.3-0.6-3.2-1.3c-0.5,2.1-1.1,4.2-1.7,6.2c-0.6,2-1.3,4-2,6.1
			c-0.6,0-1.3-0.1-2-0.2c-0.7-0.1-1.2-0.4-1.6-1c1.1-3.4,2-6.8,2.7-10.2c0.7-3.4,1.5-6.8,2.4-10.2c1,0.9,2.2,1.7,3.6,2.3
			c1.3,0.6,2.7,0.9,4.2,0.9c1.1,0,2.1-0.2,3.1-0.6c1-0.4,1.9-1,2.7-1.7l10.2,4.2c-1.6,3.3-2.8,6.7-3.7,10.2
			c-0.8,3.5-1.2,7.1-1.2,10.8c0,0.4,0,0.8,0,1.3c0,0.5,0.1,0.9,0.2,1.3c0.1,0.4,0.3,0.8,0.5,1.1c0.2,0.3,0.6,0.6,1,0.7
			c0.8,0.2,1.7-0.3,2.7-1.5c0.7-0.9,1.4-2,2-3.2c0.6-1.2,1.2-2.4,1.7-3.6c0.5-1.2,1-2.4,1.3-3.4c0.4-1.1,0.7-1.9,0.9-2.6l0.8-0.1
			C286.2,530,287,530.5,287.4,531.5z"/>
		<path class="st0" d="M324.7,531.5c-0.3,1.1-0.7,2.5-1.2,4.2c-0.5,1.6-1.1,3.3-1.8,5c-0.7,1.7-1.5,3.4-2.4,5.1
			c-0.9,1.7-1.9,3.2-3,4.6c-1.1,1.4-2.3,2.5-3.5,3.3c-1.3,0.8-2.7,1.2-4.1,1.2c-1.8,0-3.3-0.7-4.3-2.2c-1-1.4-1.8-3.2-2.3-5.1
			c-0.5-2-0.8-4-0.9-6.1c-0.1-2.1-0.2-3.8-0.2-5H301c0-0.4,0.1-1,0.1-1.7c0-0.7,0.1-1.4,0.1-2.1s0-1.4-0.1-2.1
			c-0.1-0.7-0.2-1.2-0.5-1.6c-1.3,1.1-2.5,2.6-3.6,4.5c-1.1,1.9-2,3.9-2.9,6.1c-0.8,2.2-1.5,4.3-2.1,6.5c-0.5,2.2-0.9,4-1.1,5.6
			l-6.7,0.1c-0.4-3-0.8-6-1.3-8.9c-0.5-3-0.7-6-0.7-9c0-0.9,0-2.2,0-3.8c0-1.6,0.1-3.2,0.2-4.8c0.1-1.6,0.3-3.2,0.6-4.7
			c0.3-1.5,0.6-2.6,1.1-3.3v-0.1c2.3,0.5,4.5,1.1,6.7,1.7c2.2,0.6,4.4,1.2,6.7,1.8c-1.1,1.1-2,2.5-2.5,4.2c-0.5,1.7-1,3.3-1.2,4.8
			c1.1-2.1,2.3-4.2,3.5-6.1c1.3-2,2.8-3.7,4.7-5.2l9.5,2.5c0.2,0.5,0.3,1.2,0.3,1.9c0,2.5-0.3,4.9-0.8,7.3c-0.5,2.4-0.8,4.8-0.8,7.3
			c0,1.3,0.1,2.7,0.4,4.3c0.3,1.6,0.9,2.5,2,2.7c1.1,0.1,2.1-0.4,3-1.6c0.7-0.9,1.4-1.9,2-3.1c0.6-1.2,1.2-2.4,1.7-3.6
			s0.9-2.4,1.3-3.4c0.4-1.1,0.6-2,0.8-2.6l0.8-0.1C323.4,530,324.2,530.5,324.7,531.5z"/>
		<path class="st0" d="M347.9,553.7c0,2.2,0,4.5,0.1,6.9c0.1,2.4,0,4.7-0.1,7.1c-0.1,2.3-0.5,4.5-1,6.7c-0.5,2.1-1.4,4-2.6,5.6
			c-1.2,1.6-2.8,2.9-4.8,3.8c-2,0.9-4.6,1.4-7.6,1.4c-1.4,0-2.7-0.2-3.8-0.6c-1.2-0.4-2.2-0.9-3.1-1.7c-0.9-0.8-1.6-1.7-2.1-2.8
			c-0.5-1.1-0.8-2.4-0.8-3.8c0-2.1,0.6-4.2,1.8-6.4c1.2-2.2,2.7-4.3,4.5-6.4s3.6-4,5.6-5.8c1.9-1.8,3.6-3.4,5.1-4.7
			c-0.1-1.3-0.1-2.6-0.1-3.9c0-1.3,0-2.6,0-3.9c-0.5,1.1-1.1,2.2-1.8,3.4c-0.7,1.2-1.5,2.2-2.4,3.2c-0.9,1-1.9,1.8-3.1,2.4
			c-1.1,0.6-2.3,0.9-3.7,0.9c-0.9,0-1.8-0.2-2.5-0.6c-0.7-0.4-1.3-0.9-1.8-1.6c-0.5-0.6-0.9-1.4-1.3-2.2c-0.3-0.8-0.6-1.6-0.8-2.4
			l-0.1,0.1c-0.7-2.4-1.2-4.8-1.4-7.2c-0.2-2.4-0.3-4.9-0.3-7.3c0-1,0-2.2,0-3.8c0-1.5,0.1-3.1,0.2-4.7c0.1-1.6,0.3-3.1,0.5-4.5
			c0.2-1.4,0.6-2.6,1.1-3.4l13.3,3.4c-1,1-1.8,2.4-2.4,4.2c-0.6,1.7-1.1,3.6-1.5,5.5c-0.4,2-0.6,3.9-0.8,5.8
			c-0.1,1.9-0.2,3.6-0.2,4.9c0,0.6,0.1,1.2,0.2,2c0.2,0.7,0.4,1.1,0.7,1.2c1.1,0,2.1-0.6,2.9-1.7c0.8-1.1,1.5-2.5,2.1-4.3
			c0.6-1.7,1.1-3.6,1.5-5.8c0.4-2.1,0.8-4.2,1.1-6.1c0.3-2,0.7-3.8,1-5.5c0.3-1.7,0.7-2.9,1.1-3.8v-0.1l13.3,3.5
			c-1,1.4-1.8,3.1-2.5,5.1c-0.7,2-1.2,4.1-1.7,6.4c-0.5,2.2-0.8,4.4-1.1,6.6c-0.3,2.2-0.5,4.2-0.6,5.9c1-0.4,1.9-1.2,2.8-2.4
			c0.9-1.2,1.7-2.6,2.4-4.1c0.7-1.5,1.3-3,1.8-4.5c0.5-1.5,0.9-2.7,1.2-3.7l0.8-0.1c1.2,0,2,0.5,2.4,1.5c-0.3,1.9-0.8,4-1.4,6.1
			c-0.7,2.1-1.5,4.1-2.5,6.1c-1,2-2.2,3.8-3.5,5.5C351,551,349.5,552.5,347.9,553.7z M333.2,575.4c1.5,0,2.6-0.4,3.4-1.2
			c0.8-0.8,1.5-1.8,1.9-3.1c0.4-1.2,0.7-2.5,0.8-3.9c0.1-1.4,0.1-2.6,0.1-3.7l-0.1-2.8c-0.7,0.6-1.5,1.4-2.6,2.4c-1,1.1-2,2.2-3,3.4
			c-1,1.2-1.8,2.5-2.5,3.7c-0.7,1.2-1.1,2.3-1.1,3.2c0,0.8,0.3,1.3,1,1.5C331.9,575.3,332.6,575.4,333.2,575.4z"/>
		<path class="st0" d="M216,565.7c2,0,3.7,0.4,5.1,1.1c1.4,0.7,2.7,1.7,3.7,2.9c1,1.2,1.8,2.7,2.5,4.3c0.6,1.6,1.1,3.3,1.5,5
			c0.4,1.8,0.6,3.5,0.7,5.2c0.1,1.7,0.2,3.3,0.2,4.9c0,2.4-0.4,4.7-1.1,7s-1.7,4.3-3.1,6.1c-1.3,1.8-3,3.2-5,4.3
			c-2,1.1-4.3,1.7-6.9,1.7c-1.9,0-3.7-0.4-5.4-1.2c-1.7-0.8-3.2-1.9-4.3-3.4c-0.4,3.8-0.7,7.6-0.9,11.3c-0.2,3.7-0.4,7.5-0.8,11.3
			h-9.1c-0.7-3.8-1-7.7-1.1-11.5c0-3.8-0.1-7.6-0.1-11.5c0-1.6,0-3.4,0-5.4c0-2,0-4.1,0.1-6.3c0.1-2.2,0.2-4.5,0.4-6.8
			c0.2-2.3,0.4-4.5,0.6-6.7c0.3-2.2,0.6-4.2,1-6c0.4-1.9,0.9-3.5,1.6-4.9l12.1,3c0.9-1.2,2.1-2.3,3.5-3.2S214.3,565.7,216,565.7z
			 M211.2,597.8c1.5,0,2.7-0.4,3.7-1.2c1-0.8,1.8-1.8,2.3-3s1-2.5,1.2-3.8c0.2-1.4,0.4-2.7,0.4-3.9c0-1-0.1-2.1-0.2-3.3
			c-0.2-1.1-0.5-2.2-1-3.1c-0.5-0.9-1.1-1.7-2-2.4c-0.8-0.6-1.9-0.9-3.2-0.9c-0.7,0-1.3,0.1-1.9,0.3c-0.6,0.2-1.2,0.5-1.7,0.8
			c-1,2.8-1.8,5.7-2.3,8.7c-0.5,2.9-1,5.9-1.5,8.9C206.6,596.8,208.7,597.8,211.2,597.8z"/>
		<path class="st0" d="M270.1,598.5c-0.3,1.1-0.7,2.5-1.2,4.2c-0.5,1.6-1.1,3.3-1.8,5c-0.7,1.7-1.5,3.4-2.4,5.1
			c-0.9,1.7-1.9,3.2-3,4.6c-1.1,1.4-2.3,2.5-3.6,3.3c-1.3,0.8-2.7,1.2-4.1,1.2c-1.3,0-2.4-0.4-3.3-1.2c-0.9-0.8-1.6-1.8-2.2-3.1
			c-0.6-1.3-1.1-2.7-1.4-4.3c-0.3-1.6-0.6-3.1-0.7-4.7c-0.2-1.6-0.3-3-0.3-4.4c0-1.4,0-2.5,0-3.4c0-1.7,0-3.3,0.1-5
			c0.1-1.7,0.2-3.3,0.4-5c-1.1,0.2-2.3,0.3-3.5,0.2c-1.2-0.1-2.3-0.6-3.2-1.3c-0.5,2.1-1.1,4.2-1.7,6.2c-0.6,2-1.3,4-2,6.1
			c-0.6,0-1.3-0.1-2-0.2c-0.7-0.1-1.2-0.4-1.6-1c1.1-3.4,2-6.8,2.7-10.2c0.7-3.4,1.5-6.8,2.4-10.2c1,0.9,2.2,1.7,3.6,2.3
			c1.3,0.6,2.7,0.9,4.2,0.9c1.1,0,2.1-0.2,3.1-0.6c1-0.4,1.9-1,2.7-1.7l10.2,4.2c-1.6,3.3-2.8,6.7-3.7,10.2
			c-0.8,3.5-1.2,7.1-1.2,10.8c0,0.4,0,0.8,0,1.3c0,0.5,0.1,0.9,0.2,1.3c0.1,0.4,0.3,0.8,0.5,1.1c0.2,0.3,0.6,0.6,1,0.7
			c0.8,0.2,1.7-0.3,2.7-1.5c0.7-0.9,1.4-2,2-3.2c0.6-1.2,1.2-2.4,1.7-3.6c0.5-1.2,1-2.4,1.3-3.4c0.4-1.1,0.7-1.9,0.9-2.6l0.8-0.1
			C268.9,597,269.7,597.5,270.1,598.5z"/>
		<path class="st0" d="M301,598.5c-0.9,2-2.1,3.6-3.8,5c-1.7,1.3-3.6,2.2-5.7,2.6c-0.4,1.6-1,3.3-1.6,5.2c-0.7,1.8-1.5,3.5-2.5,5.1
			s-2.2,2.9-3.6,3.9c-1.4,1-3,1.6-4.9,1.6c-2.3,0-4.3-0.6-6.1-1.9c-1.8-1.3-3.3-2.8-4.4-4.6l-0.1,0.1c-1.3-2-2.2-4.1-2.6-6.5
			c-0.4-2.3-0.6-4.7-0.6-7.1c0-1.4,0.1-3,0.2-4.8c0.1-1.8,0.4-3.6,0.7-5.4c0.4-1.8,0.9-3.5,1.5-5.1c0.6-1.6,1.5-2.9,2.4-3.9
			l14.1,3.6c-1.4,0.7-2.6,1.6-3.7,2.7c-1.1,1.1-2,2.4-2.8,3.7c-0.8,1.4-1.3,2.8-1.7,4.4c-0.4,1.5-0.6,3.1-0.6,4.6
			c0,1,0.1,2.2,0.4,3.5c0.2,1.3,0.6,2.5,1.2,3.7c0.6,1.2,1.3,2.1,2.2,2.9c0.9,0.8,2,1.2,3.3,1.2c1.9,0,3.3-0.7,4.1-2
			c0.8-1.3,1.3-2.9,1.3-4.6c-1.3-0.1-2.5-0.4-3.7-0.8c-1.2-0.4-2.2-1-3.2-1.8c-0.9-0.8-1.7-1.7-2.3-2.8c-0.6-1.1-0.9-2.3-0.9-3.7
			c0-0.9,0.2-1.8,0.6-2.7c0.4-0.9,0.9-1.8,1.5-2.5c0.6-0.7,1.4-1.3,2.2-1.8c0.9-0.5,1.8-0.7,2.7-0.7c1.1,0,2,0.5,2.8,1.3
			c0.8,0.9,1.5,2,2,3.2c0.5,1.3,1,2.5,1.3,3.9c0.3,1.3,0.5,2.4,0.6,3.3c1.2-0.2,2.5-0.7,3.7-1.3c1.2-0.6,2.1-1.6,2.6-2.9
			c0.5-0.1,0.8-0.1,0.9-0.1C299.8,597,300.6,597.5,301,598.5z M284.4,596.3c0,1,0.3,1.9,0.8,2.8c0.5,0.9,1.3,1.5,2.2,1.9
			c-0.5-2.5-1.2-4.9-2.1-7.2c-0.3,0.3-0.5,0.7-0.6,1.2C284.5,595.5,284.4,595.9,284.4,596.3z"/>
		<path class="st0" d="M338.7,598.5c-0.3,1.1-0.7,2.5-1.2,4.2c-0.5,1.6-1.1,3.3-1.8,5c-0.7,1.7-1.5,3.4-2.4,5.1
			c-0.9,1.7-1.9,3.2-3,4.6c-1.1,1.4-2.3,2.5-3.5,3.3c-1.3,0.8-2.7,1.2-4.1,1.2c-1.3,0-2.4-0.4-3.2-1.1c-0.9-0.8-1.6-1.7-2.1-2.8
			c-0.5-1.1-1-2.3-1.3-3.5c-0.3-1.3-0.6-2.4-0.7-3.4c-0.5,1-1.2,2.2-1.9,3.4c-0.8,1.3-1.6,2.4-2.6,3.5c-0.9,1.1-2,2-3.2,2.7
			c-1.2,0.7-2.4,1.1-3.7,1.1c-1.3,0-2.4-0.4-3.3-1.2c-0.9-0.8-1.6-1.8-2.2-3.1c-0.6-1.3-1-2.7-1.4-4.3s-0.6-3.1-0.7-4.7
			s-0.2-3-0.3-4.4c0-1.4-0.1-2.5-0.1-3.4c0-1.1,0-2.4,0-3.9c0-1.5,0.1-3,0.2-4.5c0.1-1.5,0.3-3,0.5-4.4c0.2-1.4,0.6-2.7,1-3.7
			l13.3,3.5c-1,1.2-1.9,2.8-2.5,4.6c-0.6,1.8-1.1,3.8-1.4,5.8c-0.3,2-0.6,4-0.7,6c-0.1,2-0.2,3.8-0.2,5.3c0,0.3,0,0.5,0.1,0.8
			c0,0.2,0.1,0.4,0.2,0.6c0.1,0.2,0.2,0.3,0.4,0.3c0.9,0.2,1.7,0,2.4-0.7c0.7-0.7,1.3-1.7,1.9-3c0.5-1.3,1-2.7,1.5-4.3
			c0.4-1.6,0.8-3.2,1.1-4.7c0.3-1.5,0.5-2.9,0.7-4.1c0.2-1.2,0.3-2,0.4-2.5c0.2-1.2,0.4-2.5,0.5-3.7c0.1-1.3,0.4-2.5,0.9-3.7
			l13.3,3.4c-0.3,0.7-0.7,1.7-1.2,3.1c-0.5,1.3-0.9,2.8-1.4,4.3c-0.5,1.6-0.9,3.2-1.3,4.9c-0.4,1.7-0.7,3.3-0.8,4.8
			c-0.2,1.5-0.2,2.8-0.1,3.9c0.1,1.1,0.4,1.9,0.9,2.4c0.1,0.1,0.2,0.2,0.4,0.2c0.2,0,0.4,0,0.5,0c1,0,2-0.6,3-1.8
			c0.9-1.2,1.8-2.6,2.6-4.2c0.8-1.6,1.4-3.2,2-4.8c0.5-1.6,0.9-2.8,1.2-3.7l0.8-0.1C337.5,597,338.3,597.5,338.7,598.5z"/>
		<path class="st0" d="M380.4,598.5c-0.3,1.1-0.7,2.5-1.2,4.1c-0.5,1.6-1.1,3.3-1.8,5c-0.7,1.7-1.5,3.5-2.4,5.2
			c-0.9,1.7-1.9,3.3-3,4.6c-1.1,1.3-2.3,2.4-3.6,3.3s-2.6,1.3-4.1,1.3c-1.2,0-2.3-0.3-3.1-1c-0.9-0.7-1.6-1.5-2.1-2.6
			c-0.5-1-1-2.1-1.3-3.3c-0.3-1.2-0.5-2.2-0.6-3.2c-0.5,1.2-1.1,2.4-1.8,3.6c-0.7,1.2-1.5,2.3-2.4,3.3c-0.9,1-2,1.8-3.1,2.4
			c-1.2,0.6-2.5,1-3.9,1c-1.9,0-3.7-0.6-5.2-1.7c-1.5-1.1-2.8-2.5-3.8-4.2c-1-1.7-1.8-3.5-2.3-5.4c-0.5-1.9-0.8-3.7-0.8-5.4
			c0-1.8,0.1-3.6,0.4-5.5c0.3-1.9,0.8-3.8,1.5-5.6c0.7-1.8,1.6-3.4,2.8-4.9c1.2-1.5,2.6-2.6,4.3-3.5l11.9,3.1l1.6,3.1
			c0-1.8,0-4,0.1-6.5c0.1-2.5,0.2-5,0.4-7.5c0.2-2.5,0.5-5,1-7.3c0.4-2.4,1-4.4,1.7-6.1l17.3,4.3v0.1c-1,0.4-1.9,1.3-2.7,2.6
			c-0.8,1.4-1.5,3.1-2.1,5.1c-0.6,2.1-1.2,4.3-1.6,6.8c-0.5,2.5-0.9,5-1.2,7.6c-0.4,2.6-0.7,5.1-0.9,7.6c-0.2,2.5-0.4,4.7-0.6,6.6
			c-0.1,1.2,0,2.2,0.2,3c0.2,0.8,0.5,1.3,0.9,1.7c0.4,0.4,0.8,0.5,1.3,0.4c0.5-0.1,1-0.4,1.5-1c0.9-1.2,1.8-2.6,2.6-4.2
			c0.8-1.6,1.5-3.2,2-4.9c0.5-1.6,0.9-2.9,1.2-3.7l0.8-0.1C379.2,597,380,597.5,380.4,598.5z M349.9,613.2c0.8,0,1.5-0.2,2.4-0.6
			c0.8-0.4,1.6-0.9,2.2-1.6c0.7-0.6,1.2-1.3,1.6-2.1c0.4-0.8,0.6-1.6,0.6-2.4c0-0.9,0-2.1-0.1-3.5c-0.1-1.4-0.3-2.8-0.7-4.2
			c-0.4-1.3-1-2.5-1.7-3.5c-0.8-1-1.8-1.5-3.1-1.5c-1.3,0-2.3,0.4-3.2,1.2c-0.9,0.8-1.5,1.7-2,2.9c-0.5,1.1-0.9,2.3-1.1,3.6
			s-0.3,2.4-0.3,3.4c0,0.9,0.1,1.8,0.2,2.7c0.2,1,0.4,1.9,0.9,2.7c0.4,0.8,1,1.5,1.7,2C347.9,612.9,348.8,613.2,349.9,613.2z"/>
		<path class="st0" d="M394.7,621c1.2,1.7,2.2,3.4,2.9,5.3c0.7,1.9,1.1,3.9,1.1,6c0,2.3-0.6,4.2-1.7,5.7c-1.2,1.5-2.9,2.3-5.4,2.3
			c-2.7,0-5-0.5-7-1.6c-1.9-1.1-3.5-2.5-4.8-4.3c-1.3-1.8-2.2-3.8-2.8-6c-0.6-2.2-0.9-4.6-0.9-7c0-2.8-0.1-5.6-0.4-8.3
			c-0.3-2.7-0.4-5.4-0.4-8.3c0-2,0-4.4,0.1-7c0-2.7,0.2-5.3,0.4-8.1c0.2-2.7,0.5-5.3,0.9-7.9c0.4-2.5,1-4.7,1.8-6.6l17.1,4.4
			c-1,0.6-2,1.7-2.8,3.3c-0.8,1.6-1.5,3.3-2.1,5.1c-0.6,1.9-1.1,3.7-1.5,5.6c-0.4,1.8-0.6,3.3-0.8,4.5c2.1,0.1,3.9,0.7,5.3,1.6
			s2.6,2.4,3.5,4.4l-9.7,0.1c-0.4,3.1-0.7,6.1-0.9,9.2c0.8,0.1,1.6,0.2,2.4,0.2c2.3,0,4.3-0.5,5.9-1.6c1.6-1,3-2.4,4-4
			c1.1-1.6,2-3.4,2.7-5.4c0.7-2,1.4-3.9,2-5.7l0.8-0.1c1.2,0,2,0.5,2.4,1.5c-0.4,1.8-1,3.8-1.7,6c-0.7,2.2-1.6,4.4-2.6,6.5
			c-1,2.2-2.2,4.1-3.6,5.9C397.9,618.7,396.4,620.1,394.7,621z M390.3,630.6c0.4,0,0.8-0.2,1-0.5c0.2-0.3,0.4-0.7,0.4-1
			c0-0.7-0.2-1.4-0.5-2.2c-0.3-0.8-0.7-1.5-1.2-2.2c-0.5-0.7-1.1-1.3-1.7-1.9c-0.6-0.6-1.2-1-1.8-1.3l-0.1,3.1
			c0,0.5,0.1,1.1,0.3,1.7c0.2,0.7,0.5,1.3,0.8,2s0.8,1.2,1.2,1.6C389.2,630.3,389.7,630.6,390.3,630.6z"/>
		<path class="st0" d="M426.2,598.5c-0.3,1.1-0.7,2.5-1.2,4.2c-0.5,1.6-1.1,3.3-1.8,5c-0.7,1.7-1.5,3.4-2.4,5.1
			c-0.9,1.7-1.9,3.2-3,4.6c-1.1,1.4-2.3,2.5-3.6,3.3c-1.3,0.8-2.7,1.2-4.1,1.2c-1.3,0-2.4-0.4-3.3-1.2c-0.9-0.8-1.6-1.8-2.2-3.1
			c-0.6-1.3-1.1-2.7-1.4-4.3c-0.3-1.6-0.6-3.2-0.7-4.7c-0.2-1.6-0.3-3-0.3-4.4c0-1.4,0-2.5,0-3.4c0-1.1,0-2.4,0-3.9
			c0-1.5,0.1-3,0.2-4.6c0.1-1.6,0.3-3.1,0.6-4.5c0.2-1.4,0.6-2.6,1-3.5l13.3,3.4c-1,0.9-1.9,2.4-2.5,4.2c-0.6,1.9-1.1,3.9-1.5,6.1
			c-0.2,1.1-0.3,2.2-0.4,3.2c-0.1,1.1-0.2,2.1-0.3,3.2c-0.1,2.1,0.4,3.8,1.4,5.1c1,1.3,2,1.3,3,0.1c0.9-1.3,1.8-2.7,2.6-4.3
			c0.8-1.6,1.5-3.2,2.1-4.8c0.6-1.6,1-2.8,1.2-3.7l0.8-0.1C425,597,425.8,597.5,426.2,598.5z M410.8,580.5c-0.9,0-1.6-0.2-2.3-0.6
			c-0.7-0.4-1.2-0.9-1.7-1.5c-0.5-0.6-0.8-1.3-1-2.1c-0.2-0.8-0.4-1.5-0.4-2.3c0-0.9,0.1-1.8,0.4-2.7c0.3-0.9,0.7-1.7,1.2-2.4
			c0.5-0.7,1.2-1.3,2-1.8c0.8-0.5,1.7-0.7,2.7-0.7c0.9,0,1.6,0.2,2.3,0.6c0.7,0.4,1.2,0.9,1.7,1.5c0.4,0.6,0.8,1.3,1,2.1
			c0.2,0.8,0.4,1.6,0.4,2.3c0,0.9-0.1,1.8-0.4,2.7c-0.3,0.9-0.7,1.7-1.2,2.4c-0.5,0.7-1.2,1.3-2,1.8
			C412.7,580.3,411.8,580.5,410.8,580.5z"/>
		<path class="st0" d="M447.6,598.5c-0.3,1.1-0.7,2.5-1.2,4.2c-0.5,1.6-1.1,3.3-1.8,5c-0.7,1.7-1.5,3.4-2.4,5.1
			c-0.9,1.7-1.9,3.2-3,4.6c-1.1,1.4-2.3,2.5-3.6,3.3c-1.3,0.8-2.7,1.2-4.1,1.2c-1.4,0-2.6-0.5-3.6-1.6c-1-1-1.8-2.4-2.4-4
			c-0.6-1.7-1.1-3.5-1.5-5.5c-0.3-2-0.6-4-0.7-6c-0.2-2-0.3-3.8-0.3-5.5c0-1.7,0-3,0-4c0-1.6,0-3.1,0.1-4.7c0-1.5,0.1-3.1,0.2-4.7
			c-1.9,0-3.3-0.5-4.3-1.4c-1-0.9-1.6-2.3-1.9-4.1l6.7-1.1c0.2-2.5,0.4-5,0.7-7.5c0.3-2.5,0.9-4.9,1.9-7.2l17.3,4.4v0.1
			c-0.6,0.3-1.2,0.8-1.7,1.5c-0.5,0.7-1,1.4-1.4,2.2c-0.4,0.8-0.8,1.6-1.1,2.4c-0.3,0.8-0.6,1.6-0.7,2.2c1.8-0.2,3.1-0.1,4.1,0.1
			c1,0.3,1.7,0.8,2.2,1.5c0.5,0.7,0.8,1.6,0.9,2.8c0.1,1.1,0.2,2.4,0.3,3.9l-9.5,0.2c-0.7,4.1-1.2,8.1-1.6,12.1c-0.4,4-0.6,8-0.8,12
			c0,0.4,0,0.7,0.3,1c0.2,0.3,0.5,0.4,0.9,0.5h0.1c0.3,0,0.5,0,0.6-0.1h0.1c0.9-0.3,1.8-1.1,2.7-2.4c0.9-1.3,1.6-2.7,2.3-4.2
			c0.7-1.5,1.3-3,1.8-4.5c0.5-1.5,0.9-2.6,1.1-3.4l0.8-0.1C446.4,597,447.2,597.5,447.6,598.5z"/>
	</g>
</g>
<g>
	<path class="st1" d="M139.1,644.4c-0.1-1.3-0.2-2.9-0.1-4.1h0c-0.3,1.1-0.7,2.3-1.2,3.6l-1.7,4.6h-0.9l-1.5-4.5
		c-0.4-1.3-0.8-2.5-1.1-3.7h0c0,1.2-0.1,2.8-0.2,4.2l-0.3,4h-1.2l0.7-9.4h1.6l1.6,4.6c0.4,1.2,0.7,2.2,1,3.2h0c0.2-1,0.6-2,1-3.2
		l1.7-4.6h1.6l0.6,9.4h-1.2L139.1,644.4z"/>
	<path class="st1" d="M146.2,648.6l-0.1-0.9h0c-0.4,0.5-1.1,1-2.1,1c-1.4,0-2.1-1-2.1-1.9c0-1.6,1.5-2.5,4.1-2.5v-0.1
		c0-0.6-0.2-1.6-1.5-1.6c-0.6,0-1.3,0.2-1.8,0.5l-0.3-0.8c0.6-0.4,1.4-0.6,2.2-0.6c2.1,0,2.6,1.4,2.6,2.8v2.5c0,0.6,0,1.2,0.1,1.6
		H146.2z M146,645.1c-1.3,0-2.9,0.2-2.9,1.5c0,0.8,0.5,1.2,1.2,1.2c0.9,0,1.4-0.6,1.6-1.1c0-0.1,0.1-0.3,0.1-0.4V645.1z"/>
	<path class="st1" d="M149.2,643.9c0-0.8,0-1.5-0.1-2.1h1.1l0,1.3h0.1c0.3-0.9,1-1.5,1.9-1.5c0.1,0,0.2,0,0.3,0v1.2
		c-0.1,0-0.3,0-0.4,0c-0.9,0-1.5,0.7-1.7,1.6c0,0.2-0.1,0.4-0.1,0.6v3.6h-1.2V643.9z"/>
	<path class="st1" d="M153.9,643.6c0-0.7,0-1.3-0.1-1.8h1.1l0.1,1.1h0c0.3-0.6,1.1-1.3,2.2-1.3c0.9,0,2.4,0.6,2.4,2.9v4h-1.2v-3.9
		c0-1.1-0.4-2-1.6-2c-0.8,0-1.4,0.6-1.7,1.3c-0.1,0.2-0.1,0.4-0.1,0.6v4.1h-1.2V643.6z"/>
	<path class="st1" d="M161.9,641.8l1.5,4c0.2,0.4,0.3,1,0.4,1.4h0c0.1-0.4,0.3-0.9,0.4-1.4l1.3-4h1.3l-1.8,4.8
		c-0.9,2.3-1.5,3.5-2.3,4.2c-0.6,0.5-1.2,0.7-1.5,0.8l-0.3-1c0.3-0.1,0.7-0.3,1.1-0.6c0.3-0.3,0.8-0.7,1-1.4
		c0.1-0.1,0.1-0.2,0.1-0.3c0-0.1,0-0.2-0.1-0.3l-2.5-6.2H161.9z"/>
	<path class="st1" d="M171,639.2c0.6-0.1,1.4-0.2,2.3-0.2c1.2,0,2.1,0.3,2.6,0.8c0.5,0.4,0.8,1.1,0.8,2c0,0.9-0.3,1.5-0.7,2
		c-0.6,0.7-1.7,1-2.9,1c-0.4,0-0.7,0-1-0.1v3.8H171V639.2z M172.3,643.8c0.3,0.1,0.6,0.1,1,0.1c1.5,0,2.4-0.7,2.4-2
		c0-1.2-0.9-1.8-2.2-1.8c-0.5,0-0.9,0-1.1,0.1V643.8z"/>
	<path class="st1" d="M178.2,643.9c0-0.8,0-1.5-0.1-2.1h1.1l0,1.3h0.1c0.3-0.9,1-1.5,1.9-1.5c0.1,0,0.2,0,0.3,0v1.2
		c-0.1,0-0.3,0-0.4,0c-0.9,0-1.5,0.7-1.7,1.6c0,0.2-0.1,0.4-0.1,0.6v3.6h-1.2V643.9z"/>
	<path class="st1" d="M188.8,645.1c0,2.5-1.7,3.6-3.4,3.6c-1.8,0-3.2-1.3-3.2-3.5c0-2.3,1.5-3.6,3.4-3.6
		C187.5,641.6,188.8,643,188.8,645.1z M183.4,645.2c0,1.5,0.9,2.6,2.1,2.6c1.2,0,2.1-1.1,2.1-2.6c0-1.1-0.6-2.6-2-2.6
		S183.4,643.9,183.4,645.2z"/>
	<path class="st1" d="M196,646.7c0,0.7,0,1.3,0.1,1.8H195l-0.1-1.1h0c-0.3,0.5-1,1.3-2.2,1.3c-1.1,0-2.3-0.6-2.3-3v-4h1.2v3.8
		c0,1.3,0.4,2.2,1.5,2.2c0.8,0,1.4-0.6,1.6-1.1c0.1-0.2,0.1-0.4,0.1-0.6v-4.2h1.2V646.7z"/>
	<path class="st1" d="M203.9,638.6v8.2c0,0.6,0,1.3,0.1,1.8h-1.1l-0.1-1.2h0c-0.4,0.8-1.2,1.3-2.3,1.3c-1.6,0-2.9-1.4-2.9-3.4
		c0-2.3,1.4-3.6,3-3.6c1,0,1.7,0.5,2,1h0v-4H203.9z M202.7,644.5c0-0.2,0-0.4-0.1-0.5c-0.2-0.8-0.9-1.4-1.8-1.4c-1.3,0-2,1.1-2,2.6
		c0,1.4,0.7,2.5,2,2.5c0.8,0,1.6-0.5,1.8-1.5c0-0.2,0.1-0.3,0.1-0.5V644.5z"/>
	<path class="st1" d="M206.1,648.6v-5.8h-1v-0.9h1v-0.4c0-1.8,1.1-3,3-3c0.6,0,1.4,0.2,1.7,0.4l-0.4,0.9c-0.3-0.2-0.8-0.4-1.4-0.4
		c-1.3,0-1.7,0.9-1.7,2v0.3h3.9v6.8H210v-5.8h-2.7v5.8H206.1z"/>
	<path class="st1" d="M214.8,639.8v1.9h1.8v0.9h-1.8v3.7c0,0.8,0.2,1.3,0.9,1.3c0.3,0,0.6,0,0.7-0.1l0.1,0.9
		c-0.2,0.1-0.6,0.2-1.1,0.2c-0.6,0-1-0.2-1.3-0.5c-0.4-0.4-0.5-1-0.5-1.8v-3.7h-1.1v-0.9h1.1v-1.6L214.8,639.8z"/>
	<path class="st1" d="M222.3,639.9c0,0.4-0.3,0.8-0.8,0.8c-0.4,0-0.7-0.3-0.7-0.8c0-0.4,0.3-0.8,0.8-0.8
		C222,639.1,222.3,639.4,222.3,639.9z M220.9,648.6v-6.8h1.2v6.8H220.9z"/>
	<path class="st1" d="M224,647.3c0.4,0.2,1,0.5,1.6,0.5c0.9,0,1.3-0.4,1.3-1c0-0.6-0.3-0.9-1.3-1.2c-1.2-0.4-1.8-1.1-1.8-1.9
		c0-1.1,0.9-2,2.3-2c0.7,0,1.3,0.2,1.7,0.4l-0.3,0.9c-0.3-0.2-0.8-0.4-1.4-0.4c-0.7,0-1.1,0.4-1.1,0.9c0,0.6,0.4,0.8,1.3,1.1
		c1.2,0.4,1.8,1,1.8,2c0,1.2-0.9,2-2.5,2c-0.7,0-1.4-0.2-1.9-0.5L224,647.3z"/>
	<path class="st1" d="M236.4,648.6l-0.1-0.9h0c-0.4,0.5-1.1,1-2.1,1c-1.4,0-2.1-1-2.1-1.9c0-1.6,1.5-2.5,4.1-2.5v-0.1
		c0-0.6-0.2-1.6-1.5-1.6c-0.6,0-1.3,0.2-1.8,0.5l-0.3-0.8c0.6-0.4,1.4-0.6,2.2-0.6c2.1,0,2.6,1.4,2.6,2.8v2.5c0,0.6,0,1.2,0.1,1.6
		H236.4z M236.2,645.1c-1.3,0-2.9,0.2-2.9,1.5c0,0.8,0.5,1.2,1.2,1.2c0.9,0,1.4-0.6,1.6-1.1c0-0.1,0.1-0.3,0.1-0.4V645.1z"/>
	<path class="st1" d="M239.4,643.6c0-0.7,0-1.3-0.1-1.8h1.1l0.1,1.1h0c0.3-0.6,1.1-1.3,2.2-1.3c0.9,0,2.4,0.6,2.4,2.9v4H244v-3.9
		c0-1.1-0.4-2-1.6-2c-0.8,0-1.4,0.6-1.7,1.3c-0.1,0.2-0.1,0.4-0.1,0.6v4.1h-1.2V643.6z"/>
	<path class="st1" d="M253.9,648.6l-0.1-0.9h0c-0.4,0.5-1.1,1-2.1,1c-1.4,0-2.1-1-2.1-1.9c0-1.6,1.5-2.5,4.1-2.5v-0.1
		c0-0.6-0.2-1.6-1.5-1.6c-0.6,0-1.3,0.2-1.8,0.5l-0.3-0.8c0.6-0.4,1.4-0.6,2.2-0.6c2.1,0,2.6,1.4,2.6,2.8v2.5c0,0.6,0,1.2,0.1,1.6
		H253.9z M253.7,645.1c-1.3,0-2.9,0.2-2.9,1.5c0,0.8,0.5,1.2,1.2,1.2c0.9,0,1.4-0.6,1.6-1.1c0-0.1,0.1-0.3,0.1-0.4V645.1z"/>
	<path class="st1" d="M256.9,643.9c0-0.8,0-1.5-0.1-2.1h1.1l0,1.3h0.1c0.3-0.9,1-1.5,1.9-1.5c0.1,0,0.2,0,0.3,0v1.2
		c-0.1,0-0.3,0-0.4,0c-0.9,0-1.5,0.7-1.7,1.6c0,0.2-0.1,0.4-0.1,0.6v3.6h-1.2V643.9z"/>
	<path class="st1" d="M263.3,639.8v1.9h1.8v0.9h-1.8v3.7c0,0.8,0.2,1.3,0.9,1.3c0.3,0,0.6,0,0.7-0.1l0.1,0.9
		c-0.2,0.1-0.6,0.2-1.1,0.2c-0.6,0-1-0.2-1.3-0.5c-0.4-0.4-0.5-1-0.5-1.8v-3.7h-1.1v-0.9h1.1v-1.6L263.3,639.8z"/>
	<path class="st1" d="M267.8,639.9c0,0.4-0.3,0.8-0.8,0.8c-0.4,0-0.7-0.3-0.7-0.8c0-0.4,0.3-0.8,0.8-0.8
		C267.5,639.1,267.8,639.4,267.8,639.9z M266.5,648.6v-6.8h1.2v6.8H266.5z"/>
	<path class="st1" d="M269.6,647.3c0.4,0.2,1,0.5,1.6,0.5c0.9,0,1.3-0.4,1.3-1c0-0.6-0.3-0.9-1.3-1.2c-1.2-0.4-1.8-1.1-1.8-1.9
		c0-1.1,0.9-2,2.3-2c0.7,0,1.3,0.2,1.7,0.4l-0.3,0.9c-0.3-0.2-0.8-0.4-1.4-0.4c-0.7,0-1.1,0.4-1.1,0.9c0,0.6,0.4,0.8,1.3,1.1
		c1.2,0.4,1.8,1,1.8,2c0,1.2-0.9,2-2.5,2c-0.7,0-1.4-0.2-1.9-0.5L269.6,647.3z"/>
	<path class="st1" d="M276.8,639.8v1.9h1.8v0.9h-1.8v3.7c0,0.8,0.2,1.3,0.9,1.3c0.3,0,0.6,0,0.7-0.1l0.1,0.9
		c-0.2,0.1-0.6,0.2-1.1,0.2c-0.6,0-1-0.2-1.3-0.5c-0.4-0.4-0.5-1-0.5-1.8v-3.7h-1.1v-0.9h1.1v-1.6L276.8,639.8z"/>
	<path class="st1" d="M279.1,650.3c0.3-0.8,0.7-2.3,0.8-3.3l1.4-0.1c-0.3,1.2-0.9,2.7-1.3,3.4L279.1,650.3z"/>
	<path class="st1" d="M285.6,647.3c0.4,0.2,1,0.5,1.6,0.5c0.9,0,1.3-0.4,1.3-1c0-0.6-0.3-0.9-1.3-1.2c-1.2-0.4-1.8-1.1-1.8-1.9
		c0-1.1,0.9-2,2.3-2c0.7,0,1.3,0.2,1.7,0.4l-0.3,0.9c-0.3-0.2-0.8-0.4-1.4-0.4c-0.7,0-1.1,0.4-1.1,0.9c0,0.6,0.4,0.8,1.3,1.1
		c1.2,0.4,1.8,1,1.8,2c0,1.2-0.9,2-2.5,2c-0.7,0-1.4-0.2-1.9-0.5L285.6,647.3z"/>
	<path class="st1" d="M297.4,645.1c0,2.5-1.7,3.6-3.4,3.6c-1.8,0-3.2-1.3-3.2-3.5c0-2.3,1.5-3.6,3.4-3.6
		C296.1,641.6,297.4,643,297.4,645.1z M292,645.2c0,1.5,0.9,2.6,2.1,2.6c1.2,0,2.1-1.1,2.1-2.6c0-1.1-0.6-2.6-2-2.6
		S292,643.9,292,645.2z"/>
	<path class="st1" d="M299,643.6c0-0.7,0-1.3-0.1-1.8h1.1l0.1,1.1h0c0.3-0.6,1.1-1.3,2.2-1.3c0.9,0,2.4,0.6,2.4,2.9v4h-1.2v-3.9
		c0-1.1-0.4-2-1.6-2c-0.8,0-1.4,0.6-1.7,1.3c-0.1,0.2-0.1,0.4-0.1,0.6v4.1H299V643.6z"/>
	<path class="st1" d="M312.6,641.8c0,0.5-0.1,1-0.1,1.9v3.9c0,1.6-0.3,2.5-1,3.1c-0.7,0.6-1.6,0.8-2.5,0.8c-0.8,0-1.7-0.2-2.3-0.6
		l0.3-0.9c0.4,0.3,1.1,0.5,2,0.5c1.3,0,2.2-0.7,2.2-2.4v-0.8h0c-0.4,0.6-1.1,1.1-2.2,1.1c-1.7,0-2.9-1.4-2.9-3.3
		c0-2.3,1.5-3.6,3.1-3.6c1.2,0,1.8,0.6,2.1,1.2h0l0.1-1H312.6z M311.3,644.4c0-0.2,0-0.4-0.1-0.6c-0.2-0.7-0.8-1.3-1.7-1.3
		c-1.2,0-2,1-2,2.6c0,1.3,0.7,2.4,2,2.4c0.8,0,1.4-0.5,1.7-1.3c0.1-0.2,0.1-0.4,0.1-0.7V644.4z"/>
	<path class="st1" d="M315.1,641.8l0.9,3.4c0.2,0.8,0.4,1.5,0.5,2.2h0c0.2-0.7,0.4-1.4,0.6-2.1l1.1-3.5h1l1.1,3.4
		c0.3,0.8,0.4,1.5,0.6,2.2h0c0.1-0.7,0.3-1.4,0.5-2.2l1-3.4h1.2l-2.2,6.8h-1.1l-1-3.2c-0.2-0.8-0.4-1.4-0.6-2.2h0
		c-0.2,0.8-0.4,1.5-0.6,2.2l-1.1,3.2h-1.1l-2-6.8H315.1z"/>
	<path class="st1" d="M324.9,643.9c0-0.8,0-1.5-0.1-2.1h1.1l0,1.3h0.1c0.3-0.9,1-1.5,1.9-1.5c0.1,0,0.2,0,0.3,0v1.2
		c-0.1,0-0.3,0-0.4,0c-0.9,0-1.5,0.7-1.7,1.6c0,0.2-0.1,0.4-0.1,0.6v3.6h-1.2V643.9z"/>
	<path class="st1" d="M330.9,639.9c0,0.4-0.3,0.8-0.8,0.8c-0.4,0-0.7-0.3-0.7-0.8c0-0.4,0.3-0.8,0.8-0.8
		C330.6,639.1,330.9,639.4,330.9,639.9z M329.5,648.6v-6.8h1.2v6.8H329.5z"/>
	<path class="st1" d="M334.3,639.8v1.9h1.8v0.9h-1.8v3.7c0,0.8,0.2,1.3,0.9,1.3c0.3,0,0.6,0,0.7-0.1l0.1,0.9
		c-0.2,0.1-0.6,0.2-1.1,0.2c-0.6,0-1-0.2-1.3-0.5c-0.4-0.4-0.5-1-0.5-1.8v-3.7H332v-0.9h1.1v-1.6L334.3,639.8z"/>
	<path class="st1" d="M338,645.4c0,1.7,1.1,2.4,2.3,2.4c0.9,0,1.4-0.2,1.9-0.4l0.2,0.9c-0.4,0.2-1.2,0.4-2.3,0.4
		c-2.1,0-3.3-1.4-3.3-3.4c0-2,1.2-3.7,3.2-3.7c2.2,0,2.8,1.9,2.8,3.2c0,0.3,0,0.4,0,0.6H338z M341.6,644.5c0-0.8-0.3-2-1.7-2
		c-1.2,0-1.8,1.1-1.9,2H341.6z"/>
	<path class="st1" d="M344.3,643.9c0-0.8,0-1.5-0.1-2.1h1.1l0,1.3h0.1c0.3-0.9,1-1.5,1.9-1.5c0.1,0,0.2,0,0.3,0v1.2
		c-0.1,0-0.3,0-0.4,0c-0.9,0-1.5,0.7-1.7,1.6c0,0.2-0.1,0.4-0.1,0.6v3.6h-1.2V643.9z"/>
	<path class="st1" d="M355.6,648.6l-0.1-0.9h0c-0.4,0.5-1.1,1-2.1,1c-1.4,0-2.1-1-2.1-1.9c0-1.6,1.5-2.5,4.1-2.5v-0.1
		c0-0.6-0.2-1.6-1.5-1.6c-0.6,0-1.3,0.2-1.8,0.5l-0.3-0.8c0.6-0.4,1.4-0.6,2.2-0.6c2.1,0,2.6,1.4,2.6,2.8v2.5c0,0.6,0,1.2,0.1,1.6
		H355.6z M355.5,645.1c-1.3,0-2.9,0.2-2.9,1.5c0,0.8,0.5,1.2,1.2,1.2c0.9,0,1.4-0.6,1.6-1.1c0-0.1,0.1-0.3,0.1-0.4V645.1z"/>
	<path class="st1" d="M358.6,643.6c0-0.7,0-1.3-0.1-1.8h1.1l0.1,1.1h0c0.3-0.6,1.1-1.3,2.2-1.3c0.9,0,2.4,0.6,2.4,2.9v4h-1.2v-3.9
		c0-1.1-0.4-2-1.6-2c-0.8,0-1.4,0.6-1.7,1.3c-0.1,0.2-0.1,0.4-0.1,0.6v4.1h-1.2V643.6z"/>
	<path class="st1" d="M372.3,638.6v8.2c0,0.6,0,1.3,0.1,1.8h-1.1l-0.1-1.2h0c-0.4,0.8-1.2,1.3-2.3,1.3c-1.6,0-2.9-1.4-2.9-3.4
		c0-2.3,1.4-3.6,3-3.6c1,0,1.7,0.5,2,1h0v-4H372.3z M371,644.5c0-0.2,0-0.4-0.1-0.5c-0.2-0.8-0.9-1.4-1.8-1.4c-1.3,0-2,1.1-2,2.6
		c0,1.4,0.7,2.5,2,2.5c0.8,0,1.6-0.5,1.8-1.5c0-0.2,0.1-0.3,0.1-0.5V644.5z"/>
	<path class="st1" d="M131.1,660.4c0-0.7,0-1.3-0.1-1.8h1.1l0.1,1.1h0c0.4-0.6,1-1.2,2.1-1.2c0.9,0,1.6,0.6,1.9,1.4h0
		c0.2-0.4,0.5-0.7,0.8-0.9c0.4-0.3,0.9-0.5,1.5-0.5c0.9,0,2.2,0.6,2.2,2.9v4h-1.2v-3.8c0-1.3-0.5-2.1-1.5-2.1
		c-0.7,0-1.2,0.5-1.5,1.1c-0.1,0.2-0.1,0.4-0.1,0.6v4.2h-1.2v-4.1c0-1.1-0.5-1.9-1.4-1.9c-0.8,0-1.3,0.6-1.5,1.2
		c-0.1,0.2-0.1,0.4-0.1,0.6v4.1h-1.2V660.4z"/>
	<path class="st1" d="M148.5,663.5c0,0.7,0,1.3,0.1,1.8h-1.1l-0.1-1.1h0c-0.3,0.5-1,1.3-2.2,1.3c-1.1,0-2.3-0.6-2.3-3v-4h1.2v3.8
		c0,1.3,0.4,2.2,1.5,2.2c0.8,0,1.4-0.6,1.6-1.1c0.1-0.2,0.1-0.4,0.1-0.6v-4.2h1.2V663.5z"/>
	<path class="st1" d="M150.4,664.1c0.4,0.2,1,0.5,1.6,0.5c0.9,0,1.3-0.4,1.3-1c0-0.6-0.3-0.9-1.3-1.2c-1.2-0.4-1.8-1.1-1.8-1.9
		c0-1.1,0.9-2,2.3-2c0.7,0,1.3,0.2,1.7,0.4l-0.3,0.9c-0.3-0.2-0.8-0.4-1.4-0.4c-0.7,0-1.1,0.4-1.1,0.9c0,0.6,0.4,0.8,1.3,1.1
		c1.2,0.4,1.8,1,1.8,2c0,1.2-0.9,2-2.5,2c-0.7,0-1.4-0.2-1.9-0.5L150.4,664.1z"/>
	<path class="st1" d="M157.4,656.7c0,0.4-0.3,0.8-0.8,0.8c-0.4,0-0.7-0.3-0.7-0.8c0-0.4,0.3-0.8,0.8-0.8
		C157.1,655.9,157.4,656.2,157.4,656.7z M156.1,665.4v-6.8h1.2v6.8H156.1z"/>
	<path class="st1" d="M164.2,665.1c-0.3,0.2-1,0.4-1.9,0.4c-2,0-3.4-1.4-3.4-3.5c0-2.1,1.4-3.6,3.6-3.6c0.7,0,1.4,0.2,1.7,0.4
		l-0.3,1c-0.3-0.2-0.8-0.3-1.4-0.3c-1.6,0-2.4,1.1-2.4,2.6c0,1.6,1,2.5,2.4,2.5c0.7,0,1.2-0.2,1.5-0.3L164.2,665.1z"/>
	<path class="st1" d="M167,656.7c0,0.4-0.3,0.8-0.8,0.8c-0.4,0-0.7-0.3-0.7-0.8c0-0.4,0.3-0.8,0.8-0.8
		C166.7,655.9,167,656.2,167,656.7z M165.6,665.4v-6.8h1.2v6.8H165.6z"/>
	<path class="st1" d="M172.6,665.4l-0.1-0.9h0c-0.4,0.5-1.1,1-2.1,1c-1.4,0-2.1-1-2.1-1.9c0-1.6,1.5-2.5,4.1-2.5v-0.1
		c0-0.6-0.2-1.6-1.5-1.6c-0.6,0-1.3,0.2-1.8,0.5l-0.3-0.8c0.6-0.4,1.4-0.6,2.2-0.6c2.1,0,2.6,1.4,2.6,2.8v2.5c0,0.6,0,1.2,0.1,1.6
		H172.6z M172.5,661.9c-1.3,0-2.9,0.2-2.9,1.5c0,0.8,0.5,1.2,1.2,1.2c0.9,0,1.4-0.6,1.6-1.1c0-0.1,0.1-0.3,0.1-0.4V661.9z"/>
	<path class="st1" d="M175.6,660.4c0-0.7,0-1.3-0.1-1.8h1.1l0.1,1.1h0c0.3-0.6,1.1-1.3,2.2-1.3c0.9,0,2.4,0.6,2.4,2.9v4h-1.2v-3.9
		c0-1.1-0.4-2-1.6-2c-0.8,0-1.4,0.6-1.7,1.3c-0.1,0.2-0.1,0.4-0.1,0.6v4.1h-1.2V660.4z"/>
	<path class="st1" d="M186.4,655.4h1.2v4.2h0c0.2-0.4,0.5-0.7,0.9-0.9c0.4-0.2,0.8-0.4,1.3-0.4c0.9,0,2.4,0.6,2.4,2.9v4h-1.2v-3.9
		c0-1.1-0.4-2-1.6-2c-0.8,0-1.4,0.6-1.7,1.2c-0.1,0.2-0.1,0.4-0.1,0.6v4.1h-1.2V655.4z"/>
	<path class="st1" d="M197.9,665.4l-0.1-0.9h0c-0.4,0.5-1.1,1-2.1,1c-1.4,0-2.1-1-2.1-1.9c0-1.6,1.5-2.5,4.1-2.5v-0.1
		c0-0.6-0.2-1.6-1.5-1.6c-0.6,0-1.3,0.2-1.8,0.5l-0.3-0.8c0.6-0.4,1.4-0.6,2.2-0.6c2.1,0,2.6,1.4,2.6,2.8v2.5c0,0.6,0,1.2,0.1,1.6
		H197.9z M197.7,661.9c-1.3,0-2.9,0.2-2.9,1.5c0,0.8,0.5,1.2,1.2,1.2c0.9,0,1.4-0.6,1.6-1.1c0-0.1,0.1-0.3,0.1-0.4V661.9z"/>
	<path class="st1" d="M202.3,656.7c0,0.4-0.3,0.8-0.8,0.8c-0.4,0-0.7-0.3-0.7-0.8c0-0.4,0.3-0.8,0.8-0.8
		C202,655.9,202.3,656.2,202.3,656.7z M200.9,665.4v-6.8h1.2v6.8H200.9z"/>
	<path class="st1" d="M204.2,655.4h1.2v9.9h-1.2V655.4z"/>
	<path class="st1" d="M208.8,656.7c0,0.4-0.3,0.8-0.8,0.8c-0.4,0-0.7-0.3-0.7-0.8c0-0.4,0.3-0.8,0.8-0.8
		C208.6,655.9,208.8,656.2,208.8,656.7z M207.5,665.4v-6.8h1.2v6.8H207.5z"/>
	<path class="st1" d="M210.8,660.4c0-0.7,0-1.3-0.1-1.8h1.1l0.1,1.1h0c0.3-0.6,1.1-1.3,2.2-1.3c0.9,0,2.4,0.6,2.4,2.9v4h-1.2v-3.9
		c0-1.1-0.4-2-1.6-2c-0.8,0-1.4,0.6-1.7,1.3c-0.1,0.2-0.1,0.4-0.1,0.6v4.1h-1.2V660.4z"/>
	<path class="st1" d="M224.4,658.6c0,0.5-0.1,1-0.1,1.9v3.9c0,1.6-0.3,2.5-1,3.1c-0.7,0.6-1.6,0.8-2.5,0.8c-0.8,0-1.7-0.2-2.3-0.6
		l0.3-0.9c0.4,0.3,1.1,0.5,2,0.5c1.3,0,2.2-0.7,2.2-2.4v-0.8h0c-0.4,0.6-1.1,1.1-2.2,1.1c-1.7,0-2.9-1.4-2.9-3.3
		c0-2.3,1.5-3.6,3.1-3.6c1.2,0,1.8,0.6,2.1,1.2h0l0.1-1H224.4z M223.1,661.2c0-0.2,0-0.4-0.1-0.6c-0.2-0.7-0.8-1.3-1.7-1.3
		c-1.2,0-2,1-2,2.6c0,1.3,0.7,2.4,2,2.4c0.8,0,1.4-0.5,1.7-1.3c0.1-0.2,0.1-0.4,0.1-0.7V661.2z"/>
	<path class="st1" d="M229.4,665.4v-5.8h-1v-0.9h1v-0.3c0-1,0.2-1.8,0.8-2.4c0.5-0.4,1.1-0.6,1.7-0.6c0.4,0,0.8,0.1,1.1,0.2l-0.2,1
		c-0.2-0.1-0.4-0.2-0.8-0.2c-1,0-1.3,0.9-1.3,2v0.4h1.6v0.9h-1.6v5.8H229.4z"/>
	<path class="st1" d="M233.4,660.7c0-0.8,0-1.5-0.1-2.1h1.1l0,1.3h0.1c0.3-0.9,1-1.5,1.9-1.5c0.1,0,0.2,0,0.3,0v1.2
		c-0.1,0-0.3,0-0.4,0c-0.9,0-1.5,0.7-1.7,1.6c0,0.2-0.1,0.4-0.1,0.6v3.6h-1.2V660.7z"/>
	<path class="st1" d="M244,661.9c0,2.5-1.7,3.6-3.4,3.6c-1.8,0-3.2-1.3-3.2-3.5c0-2.3,1.5-3.6,3.4-3.6
		C242.7,658.4,244,659.8,244,661.9z M238.6,662c0,1.5,0.9,2.6,2.1,2.6c1.2,0,2.1-1.1,2.1-2.6c0-1.1-0.6-2.6-2-2.6
		S238.6,660.7,238.6,662z"/>
	<path class="st1" d="M245.5,660.4c0-0.7,0-1.3-0.1-1.8h1.1l0.1,1.1h0c0.4-0.6,1-1.2,2.1-1.2c0.9,0,1.6,0.6,1.9,1.4h0
		c0.2-0.4,0.5-0.7,0.8-0.9c0.4-0.3,0.9-0.5,1.5-0.5c0.9,0,2.2,0.6,2.2,2.9v4H254v-3.8c0-1.3-0.5-2.1-1.5-2.1c-0.7,0-1.2,0.5-1.5,1.1
		c-0.1,0.2-0.1,0.4-0.1,0.6v4.2h-1.2v-4.1c0-1.1-0.5-1.9-1.4-1.9c-0.8,0-1.3,0.6-1.5,1.2c-0.1,0.2-0.1,0.4-0.1,0.6v4.1h-1.2V660.4z"
		/>
	<path class="st1" d="M268.3,660.5c0,3.2-2,5-4.4,5c-2.5,0-4.2-1.9-4.2-4.8c0-3,1.9-5,4.4-5C266.6,655.8,268.3,657.7,268.3,660.5z
		 M261,660.7c0,2,1.1,3.8,3,3.8c1.9,0,3-1.8,3-3.9c0-1.9-1-3.8-3-3.8C262,656.8,261,658.6,261,660.7z"/>
	<path class="st1" d="M275.7,658.6c0,0.5-0.1,1-0.1,1.9v3.9c0,1.6-0.3,2.5-1,3.1c-0.7,0.6-1.6,0.8-2.5,0.8c-0.8,0-1.7-0.2-2.3-0.6
		l0.3-0.9c0.4,0.3,1.1,0.5,2,0.5c1.3,0,2.2-0.7,2.2-2.4v-0.8h0c-0.4,0.6-1.1,1.1-2.2,1.1c-1.7,0-2.9-1.4-2.9-3.3
		c0-2.3,1.5-3.6,3.1-3.6c1.2,0,1.8,0.6,2.1,1.2h0l0.1-1H275.7z M274.5,661.2c0-0.2,0-0.4-0.1-0.6c-0.2-0.7-0.8-1.3-1.7-1.3
		c-1.2,0-2,1-2,2.6c0,1.3,0.7,2.4,2,2.4c0.8,0,1.4-0.5,1.7-1.3c0.1-0.2,0.1-0.4,0.1-0.7V661.2z"/>
	<path class="st1" d="M283.6,655.4v8.2c0,0.6,0,1.3,0.1,1.8h-1.1l-0.1-1.2h0c-0.4,0.8-1.2,1.3-2.3,1.3c-1.6,0-2.9-1.4-2.9-3.4
		c0-2.3,1.4-3.6,3-3.6c1,0,1.7,0.5,2,1h0v-4H283.6z M282.4,661.3c0-0.2,0-0.4-0.1-0.5c-0.2-0.8-0.9-1.4-1.8-1.4c-1.3,0-2,1.1-2,2.6
		c0,1.4,0.7,2.5,2,2.5c0.8,0,1.6-0.5,1.8-1.5c0-0.2,0.1-0.3,0.1-0.5V661.3z"/>
	<path class="st1" d="M286.3,662.2c0,1.7,1.1,2.4,2.3,2.4c0.9,0,1.4-0.2,1.9-0.4l0.2,0.9c-0.4,0.2-1.2,0.4-2.3,0.4
		c-2.1,0-3.3-1.4-3.3-3.4c0-2,1.2-3.7,3.2-3.7c2.2,0,2.8,1.9,2.8,3.2c0,0.3,0,0.4,0,0.6H286.3z M289.9,661.3c0-0.8-0.3-2-1.7-2
		c-1.2,0-1.8,1.1-1.9,2H289.9z"/>
	<path class="st1" d="M292.6,660.4c0-0.7,0-1.3-0.1-1.8h1.1l0.1,1.1h0c0.3-0.6,1.1-1.3,2.2-1.3c0.9,0,2.4,0.6,2.4,2.9v4h-1.2v-3.9
		c0-1.1-0.4-2-1.6-2c-0.8,0-1.4,0.6-1.7,1.3c-0.1,0.2-0.1,0.4-0.1,0.6v4.1h-1.2V660.4z"/>
	<path class="st1" d="M299.6,667.1c0.3-0.8,0.7-2.3,0.8-3.3l1.4-0.1c-0.3,1.2-0.9,2.7-1.3,3.4L299.6,667.1z"/>
	<path class="st1" d="M307.5,655.9v5.6c0,2.1,0.9,3,2.2,3c1.4,0,2.3-0.9,2.3-3v-5.6h1.2v5.5c0,2.9-1.5,4.1-3.6,4.1
		c-1.9,0-3.4-1.1-3.4-4v-5.6H307.5z"/>
	<path class="st1" d="M316.9,656.6v1.9h1.8v0.9h-1.8v3.7c0,0.8,0.2,1.3,0.9,1.3c0.3,0,0.6,0,0.7-0.1l0.1,0.9
		c-0.2,0.1-0.6,0.2-1.1,0.2c-0.6,0-1-0.2-1.3-0.5c-0.4-0.4-0.5-1-0.5-1.8v-3.7h-1.1v-0.9h1.1v-1.6L316.9,656.6z"/>
	<path class="st1" d="M323.8,665.4l-0.1-0.9h0c-0.4,0.5-1.1,1-2.1,1c-1.4,0-2.1-1-2.1-1.9c0-1.6,1.5-2.5,4.1-2.5v-0.1
		c0-0.6-0.2-1.6-1.5-1.6c-0.6,0-1.3,0.2-1.8,0.5L320,659c0.6-0.4,1.4-0.6,2.2-0.6c2.1,0,2.6,1.4,2.6,2.8v2.5c0,0.6,0,1.2,0.1,1.6
		H323.8z M323.6,661.9c-1.3,0-2.9,0.2-2.9,1.5c0,0.8,0.5,1.2,1.2,1.2c0.9,0,1.4-0.6,1.6-1.1c0-0.1,0.1-0.3,0.1-0.4V661.9z"/>
	<path class="st1" d="M326.8,655.4h1.2v4.2h0c0.2-0.4,0.5-0.7,0.9-0.9c0.4-0.2,0.8-0.4,1.3-0.4c0.9,0,2.4,0.6,2.4,2.9v4h-1.2v-3.9
		c0-1.1-0.4-2-1.6-2c-0.8,0-1.4,0.6-1.7,1.2c-0.1,0.2-0.1,0.4-0.1,0.6v4.1h-1.2V655.4z"/>
	<path class="st1" d="M333.7,667.1c0.3-0.8,0.7-2.3,0.8-3.3l1.4-0.1c-0.3,1.2-0.9,2.7-1.3,3.4L333.7,667.1z"/>
	<path class="st1" d="M340.9,658.6l0.9,3.4c0.2,0.8,0.4,1.5,0.5,2.2h0c0.2-0.7,0.4-1.4,0.6-2.1l1.1-3.5h1l1.1,3.4
		c0.3,0.8,0.4,1.5,0.6,2.2h0c0.1-0.7,0.3-1.4,0.5-2.2l1-3.4h1.2l-2.2,6.8h-1.1l-1-3.2c-0.2-0.8-0.4-1.4-0.6-2.2h0
		c-0.2,0.8-0.4,1.5-0.6,2.2l-1.1,3.2h-1.1l-2-6.8H340.9z"/>
	<path class="st1" d="M350.7,655.4h1.2v4.2h0c0.2-0.4,0.5-0.7,0.9-0.9c0.4-0.2,0.8-0.4,1.3-0.4c0.9,0,2.4,0.6,2.4,2.9v4h-1.2v-3.9
		c0-1.1-0.4-2-1.6-2c-0.8,0-1.4,0.6-1.7,1.2c-0.1,0.2-0.1,0.4-0.1,0.6v4.1h-1.2V655.4z"/>
	<path class="st1" d="M364.6,661.9c0,2.5-1.7,3.6-3.4,3.6c-1.8,0-3.2-1.3-3.2-3.5c0-2.3,1.5-3.6,3.4-3.6
		C363.3,658.4,364.6,659.8,364.6,661.9z M359.2,662c0,1.5,0.9,2.6,2.1,2.6c1.2,0,2.1-1.1,2.1-2.6c0-1.1-0.6-2.6-2-2.6
		S359.2,660.7,359.2,662z"/>
	<path class="st1" d="M131.6,675.4l0.9,3.4c0.2,0.8,0.4,1.5,0.5,2.2h0c0.2-0.7,0.4-1.4,0.6-2.1l1.1-3.5h1l1.1,3.4
		c0.3,0.8,0.4,1.5,0.6,2.2h0c0.1-0.7,0.3-1.4,0.5-2.2l1-3.4h1.2l-2.2,6.8h-1.1l-1-3.2c-0.2-0.8-0.4-1.4-0.6-2.2h0
		c-0.2,0.8-0.4,1.5-0.6,2.2l-1.1,3.2h-1.1l-2-6.8H131.6z"/>
	<path class="st1" d="M141.4,677.5c0-0.8,0-1.5-0.1-2.1h1.1l0,1.3h0.1c0.3-0.9,1-1.5,1.9-1.5c0.1,0,0.2,0,0.3,0v1.2
		c-0.1,0-0.3,0-0.4,0c-0.9,0-1.5,0.7-1.7,1.6c0,0.2-0.1,0.4-0.1,0.6v3.6h-1.2V677.5z"/>
	<path class="st1" d="M147.4,673.5c0,0.4-0.3,0.8-0.8,0.8c-0.4,0-0.7-0.3-0.7-0.8c0-0.4,0.3-0.8,0.8-0.8
		C147.2,672.7,147.4,673,147.4,673.5z M146.1,682.2v-6.8h1.2v6.8H146.1z"/>
	<path class="st1" d="M150.8,673.4v1.9h1.8v0.9h-1.8v3.7c0,0.8,0.2,1.3,0.9,1.3c0.3,0,0.6,0,0.7-0.1l0.1,0.9
		c-0.2,0.1-0.6,0.2-1.1,0.2c-0.6,0-1-0.2-1.3-0.5c-0.4-0.4-0.5-1-0.5-1.8v-3.7h-1.1v-0.9h1.1v-1.6L150.8,673.4z"/>
	<path class="st1" d="M154.6,679c0,1.7,1.1,2.4,2.3,2.4c0.9,0,1.4-0.2,1.9-0.4l0.2,0.9c-0.4,0.2-1.2,0.4-2.3,0.4
		c-2.1,0-3.3-1.4-3.3-3.4s1.2-3.7,3.2-3.7c2.2,0,2.8,1.9,2.8,3.2c0,0.3,0,0.4,0,0.6H154.6z M158.2,678.1c0-0.8-0.3-2-1.7-2
		c-1.2,0-1.8,1.1-1.9,2H158.2z"/>
	<path class="st1" d="M160.7,680.9c0.4,0.2,1,0.5,1.6,0.5c0.9,0,1.3-0.4,1.3-1c0-0.6-0.3-0.9-1.3-1.2c-1.2-0.4-1.8-1.1-1.8-1.9
		c0-1.1,0.9-2,2.3-2c0.7,0,1.3,0.2,1.7,0.4l-0.3,0.9c-0.3-0.2-0.8-0.4-1.4-0.4c-0.7,0-1.1,0.4-1.1,0.9c0,0.6,0.4,0.8,1.3,1.1
		c1.2,0.4,1.8,1,1.8,2c0,1.2-0.9,2-2.5,2c-0.7,0-1.4-0.2-1.9-0.5L160.7,680.9z"/>
	<path class="st1" d="M170.9,673.4v1.9h1.8v0.9h-1.8v3.7c0,0.8,0.2,1.3,0.9,1.3c0.3,0,0.6,0,0.7-0.1l0.1,0.9
		c-0.2,0.1-0.6,0.2-1.1,0.2c-0.6,0-1-0.2-1.3-0.5c-0.4-0.4-0.5-1-0.5-1.8v-3.7h-1.1v-0.9h1.1v-1.6L170.9,673.4z"/>
	<path class="st1" d="M174.1,672.2h1.2v4.2h0c0.2-0.4,0.5-0.7,0.9-0.9c0.4-0.2,0.8-0.4,1.3-0.4c0.9,0,2.4,0.6,2.4,2.9v4h-1.2v-3.9
		c0-1.1-0.4-2-1.6-2c-0.8,0-1.4,0.6-1.7,1.2c-0.1,0.2-0.1,0.4-0.1,0.6v4.1h-1.2V672.2z"/>
	<path class="st1" d="M182.5,679c0,1.7,1.1,2.4,2.3,2.4c0.9,0,1.4-0.2,1.9-0.4l0.2,0.9c-0.4,0.2-1.2,0.4-2.3,0.4
		c-2.1,0-3.3-1.4-3.3-3.4s1.2-3.7,3.2-3.7c2.2,0,2.8,1.9,2.8,3.2c0,0.3,0,0.4,0,0.6H182.5z M186.1,678.1c0-0.8-0.3-2-1.7-2
		c-1.2,0-1.8,1.1-1.9,2H186.1z"/>
	<path class="st1" d="M191.6,680.9c0.4,0.2,1,0.5,1.6,0.5c0.9,0,1.3-0.4,1.3-1c0-0.6-0.3-0.9-1.3-1.2c-1.2-0.4-1.8-1.1-1.8-1.9
		c0-1.1,0.9-2,2.3-2c0.7,0,1.3,0.2,1.7,0.4l-0.3,0.9c-0.3-0.2-0.8-0.4-1.4-0.4c-0.7,0-1.1,0.4-1.1,0.9c0,0.6,0.4,0.8,1.3,1.1
		c1.2,0.4,1.8,1,1.8,2c0,1.2-0.9,2-2.5,2c-0.7,0-1.4-0.2-1.9-0.5L191.6,680.9z"/>
	<path class="st1" d="M201.1,682.2l-0.1-0.9h0c-0.4,0.5-1.1,1-2.1,1c-1.4,0-2.1-1-2.1-1.9c0-1.6,1.5-2.5,4.1-2.5v-0.1
		c0-0.6-0.2-1.6-1.5-1.6c-0.6,0-1.3,0.2-1.8,0.5l-0.3-0.8c0.6-0.4,1.4-0.6,2.2-0.6c2.1,0,2.6,1.4,2.6,2.8v2.5c0,0.6,0,1.2,0.1,1.6
		H201.1z M200.9,678.7c-1.3,0-2.9,0.2-2.9,1.5c0,0.8,0.5,1.2,1.2,1.2c0.9,0,1.4-0.6,1.6-1.1c0-0.1,0.1-0.3,0.1-0.4V678.7z"/>
	<path class="st1" d="M204.1,677.2c0-0.7,0-1.3-0.1-1.8h1.1l0.1,1.1h0c0.4-0.6,1-1.2,2.1-1.2c0.9,0,1.6,0.6,1.9,1.4h0
		c0.2-0.4,0.5-0.7,0.8-0.9c0.4-0.3,0.9-0.5,1.5-0.5c0.9,0,2.2,0.6,2.2,2.9v4h-1.2v-3.8c0-1.3-0.5-2.1-1.5-2.1
		c-0.7,0-1.2,0.5-1.5,1.1c-0.1,0.2-0.1,0.4-0.1,0.6v4.2h-1.2v-4.1c0-1.1-0.5-1.9-1.4-1.9c-0.8,0-1.3,0.6-1.5,1.2
		c-0.1,0.2-0.1,0.4-0.1,0.6v4.1h-1.2V677.2z"/>
	<path class="st1" d="M216.5,679c0,1.7,1.1,2.4,2.3,2.4c0.9,0,1.4-0.2,1.9-0.4l0.2,0.9c-0.4,0.2-1.2,0.4-2.3,0.4
		c-2.1,0-3.3-1.4-3.3-3.4s1.2-3.7,3.2-3.7c2.2,0,2.8,1.9,2.8,3.2c0,0.3,0,0.4,0,0.6H216.5z M220.1,678.1c0-0.8-0.3-2-1.7-2
		c-1.2,0-1.8,1.1-1.9,2H220.1z"/>
	<path class="st1" d="M226.2,675.4l0.9,3.4c0.2,0.8,0.4,1.5,0.5,2.2h0c0.2-0.7,0.4-1.4,0.6-2.1l1.1-3.5h1l1.1,3.4
		c0.3,0.8,0.4,1.5,0.6,2.2h0c0.1-0.7,0.3-1.4,0.5-2.2l1-3.4h1.2l-2.2,6.8h-1.1l-1-3.2c-0.2-0.8-0.4-1.4-0.6-2.2h0
		c-0.2,0.8-0.4,1.5-0.6,2.2l-1.1,3.2H227l-2-6.8H226.2z"/>
	<path class="st1" d="M239.8,682.2l-0.1-0.9h0c-0.4,0.5-1.1,1-2.1,1c-1.4,0-2.1-1-2.1-1.9c0-1.6,1.5-2.5,4.1-2.5v-0.1
		c0-0.6-0.2-1.6-1.5-1.6c-0.6,0-1.3,0.2-1.8,0.5l-0.3-0.8c0.6-0.4,1.4-0.6,2.2-0.6c2.1,0,2.6,1.4,2.6,2.8v2.5c0,0.6,0,1.2,0.1,1.6
		H239.8z M239.6,678.7c-1.3,0-2.9,0.2-2.9,1.5c0,0.8,0.5,1.2,1.2,1.2c0.9,0,1.4-0.6,1.6-1.1c0-0.1,0.1-0.3,0.1-0.4V678.7z"/>
	<path class="st1" d="M243.1,675.4l1.5,4c0.2,0.4,0.3,1,0.4,1.4h0c0.1-0.4,0.3-0.9,0.4-1.4l1.3-4h1.3l-1.8,4.8
		c-0.9,2.3-1.5,3.5-2.3,4.2c-0.6,0.5-1.2,0.7-1.5,0.8l-0.3-1c0.3-0.1,0.7-0.3,1.1-0.6c0.3-0.3,0.8-0.7,1-1.4
		c0.1-0.1,0.1-0.2,0.1-0.3c0-0.1,0-0.2-0.1-0.3l-2.5-6.2H243.1z"/>
	<path class="st1" d="M252,680.9c0.4,0.2,1,0.5,1.6,0.5c0.9,0,1.3-0.4,1.3-1c0-0.6-0.3-0.9-1.3-1.2c-1.2-0.4-1.8-1.1-1.8-1.9
		c0-1.1,0.9-2,2.3-2c0.7,0,1.3,0.2,1.7,0.4l-0.3,0.9c-0.3-0.2-0.8-0.4-1.4-0.4c-0.7,0-1.1,0.4-1.1,0.9c0,0.6,0.4,0.8,1.3,1.1
		c1.2,0.4,1.8,1,1.8,2c0,1.2-0.9,2-2.5,2c-0.7,0-1.4-0.2-1.9-0.5L252,680.9z"/>
	<path class="st1" d="M257.7,672.2h1.2v4.2h0c0.2-0.4,0.5-0.7,0.9-0.9c0.4-0.2,0.8-0.4,1.3-0.4c0.9,0,2.4,0.6,2.4,2.9v4h-1.2v-3.9
		c0-1.1-0.4-2-1.6-2c-0.8,0-1.4,0.6-1.7,1.2c-0.1,0.2-0.1,0.4-0.1,0.6v4.1h-1.2V672.2z"/>
	<path class="st1" d="M266.2,679c0,1.7,1.1,2.4,2.3,2.4c0.9,0,1.4-0.2,1.9-0.4l0.2,0.9c-0.4,0.2-1.2,0.4-2.3,0.4
		c-2.1,0-3.3-1.4-3.3-3.4s1.2-3.7,3.2-3.7c2.2,0,2.8,1.9,2.8,3.2c0,0.3,0,0.4,0,0.6H266.2z M269.8,678.1c0-0.8-0.3-2-1.7-2
		c-1.2,0-1.8,1.1-1.9,2H269.8z"/>
	<path class="st1" d="M275.3,680.9c0.4,0.2,1,0.5,1.6,0.5c0.9,0,1.3-0.4,1.3-1c0-0.6-0.3-0.9-1.3-1.2c-1.2-0.4-1.8-1.1-1.8-1.9
		c0-1.1,0.9-2,2.3-2c0.7,0,1.3,0.2,1.7,0.4l-0.3,0.9c-0.3-0.2-0.8-0.4-1.4-0.4c-0.7,0-1.1,0.4-1.1,0.9c0,0.6,0.4,0.8,1.3,1.1
		c1.2,0.4,1.8,1,1.8,2c0,1.2-0.9,2-2.5,2c-0.7,0-1.4-0.2-1.9-0.5L275.3,680.9z"/>
	<path class="st1" d="M282.4,673.5c0,0.4-0.3,0.8-0.8,0.8c-0.4,0-0.7-0.3-0.7-0.8c0-0.4,0.3-0.8,0.8-0.8
		C282.1,672.7,282.4,673,282.4,673.5z M281,682.2v-6.8h1.2v6.8H281z"/>
	<path class="st1" d="M284.3,677.2c0-0.7,0-1.3-0.1-1.8h1.1l0.1,1.1h0c0.3-0.6,1.1-1.3,2.2-1.3c0.9,0,2.4,0.6,2.4,2.9v4h-1.2v-3.9
		c0-1.1-0.4-2-1.6-2c-0.8,0-1.4,0.6-1.7,1.3c-0.1,0.2-0.1,0.4-0.1,0.6v4.1h-1.2V677.2z"/>
	<path class="st1" d="M297.9,675.4c0,0.5-0.1,1-0.1,1.9v3.9c0,1.6-0.3,2.5-1,3.1c-0.7,0.6-1.6,0.8-2.5,0.8c-0.8,0-1.7-0.2-2.3-0.6
		l0.3-0.9c0.4,0.3,1.1,0.5,2,0.5c1.3,0,2.2-0.7,2.2-2.4V681h0c-0.4,0.6-1.1,1.1-2.2,1.1c-1.7,0-2.9-1.4-2.9-3.3
		c0-2.3,1.5-3.6,3.1-3.6c1.2,0,1.8,0.6,2.1,1.2h0l0.1-1H297.9z M296.7,678c0-0.2,0-0.4-0.1-0.6c-0.2-0.7-0.8-1.3-1.7-1.3
		c-1.2,0-2,1-2,2.6c0,1.3,0.7,2.4,2,2.4c0.8,0,1.4-0.5,1.7-1.3c0.1-0.2,0.1-0.4,0.1-0.7V678z"/>
	<path class="st1" d="M299.7,680.9c0.4,0.2,1,0.5,1.6,0.5c0.9,0,1.3-0.4,1.3-1c0-0.6-0.3-0.9-1.3-1.2c-1.2-0.4-1.8-1.1-1.8-1.9
		c0-1.1,0.9-2,2.3-2c0.7,0,1.3,0.2,1.7,0.4l-0.3,0.9c-0.3-0.2-0.8-0.4-1.4-0.4c-0.7,0-1.1,0.4-1.1,0.9c0,0.6,0.4,0.8,1.3,1.1
		c1.2,0.4,1.8,1,1.8,2c0,1.2-0.9,2-2.5,2c-0.7,0-1.4-0.2-1.9-0.5L299.7,680.9z"/>
	<path class="st1" d="M304.5,683.9c0.3-0.8,0.7-2.3,0.8-3.3l1.4-0.1c-0.3,1.2-0.9,2.7-1.3,3.4L304.5,683.9z"/>
	<path class="st1" d="M311.7,675.4l0.9,3.4c0.2,0.8,0.4,1.5,0.5,2.2h0c0.2-0.7,0.4-1.4,0.6-2.1l1.1-3.5h1l1.1,3.4
		c0.3,0.8,0.4,1.5,0.6,2.2h0c0.1-0.7,0.3-1.4,0.5-2.2l1-3.4h1.2l-2.2,6.8h-1.1l-1-3.2c-0.2-0.8-0.4-1.4-0.6-2.2h0
		c-0.2,0.8-0.4,1.5-0.6,2.2l-1.1,3.2h-1.1l-2-6.8H311.7z"/>
	<path class="st1" d="M322.8,673.5c0,0.4-0.3,0.8-0.8,0.8c-0.4,0-0.7-0.3-0.7-0.8c0-0.4,0.3-0.8,0.8-0.8
		C322.6,672.7,322.8,673,322.8,673.5z M321.5,682.2v-6.8h1.2v6.8H321.5z"/>
	<path class="st1" d="M326.2,673.4v1.9h1.8v0.9h-1.8v3.7c0,0.8,0.2,1.3,0.9,1.3c0.3,0,0.6,0,0.7-0.1l0.1,0.9
		c-0.2,0.1-0.6,0.2-1.1,0.2c-0.6,0-1-0.2-1.3-0.5c-0.4-0.4-0.5-1-0.5-1.8v-3.7H324v-0.9h1.1v-1.6L326.2,673.4z"/>
	<path class="st1" d="M329.4,672.2h1.2v4.2h0c0.2-0.4,0.5-0.7,0.9-0.9c0.4-0.2,0.8-0.4,1.3-0.4c0.9,0,2.4,0.6,2.4,2.9v4h-1.2v-3.9
		c0-1.1-0.4-2-1.6-2c-0.8,0-1.4,0.6-1.7,1.2c-0.1,0.2-0.1,0.4-0.1,0.6v4.1h-1.2V672.2z"/>
	<path class="st1" d="M343.9,682.2l-0.1-0.9h0c-0.4,0.5-1.1,1-2.1,1c-1.4,0-2.1-1-2.1-1.9c0-1.6,1.5-2.5,4.1-2.5v-0.1
		c0-0.6-0.2-1.6-1.5-1.6c-0.6,0-1.3,0.2-1.8,0.5l-0.3-0.8c0.6-0.4,1.4-0.6,2.2-0.6c2.1,0,2.6,1.4,2.6,2.8v2.5c0,0.6,0,1.2,0.1,1.6
		H343.9z M343.7,678.7c-1.3,0-2.9,0.2-2.9,1.5c0,0.8,0.5,1.2,1.2,1.2c0.9,0,1.4-0.6,1.6-1.1c0-0.1,0.1-0.3,0.1-0.4V678.7z"/>
	<path class="st1" d="M346.9,677.2c0-0.7,0-1.3-0.1-1.8h1.1l0.1,1.1h0c0.3-0.6,1.1-1.3,2.2-1.3c0.9,0,2.4,0.6,2.4,2.9v4h-1.2v-3.9
		c0-1.1-0.4-2-1.6-2c-0.8,0-1.4,0.6-1.7,1.3c-0.1,0.2-0.1,0.4-0.1,0.6v4.1h-1.2V677.2z"/>
	<path class="st1" d="M361.4,682.2l-0.1-0.9h0c-0.4,0.5-1.1,1-2.1,1c-1.4,0-2.1-1-2.1-1.9c0-1.6,1.5-2.5,4.1-2.5v-0.1
		c0-0.6-0.2-1.6-1.5-1.6c-0.6,0-1.3,0.2-1.8,0.5l-0.3-0.8c0.6-0.4,1.4-0.6,2.2-0.6c2.1,0,2.6,1.4,2.6,2.8v2.5c0,0.6,0,1.2,0.1,1.6
		H361.4z M361.2,678.7c-1.3,0-2.9,0.2-2.9,1.5c0,0.8,0.5,1.2,1.2,1.2c0.9,0,1.4-0.6,1.6-1.1c0-0.1,0.1-0.3,0.1-0.4V678.7z"/>
	<path class="st1" d="M364.4,677.5c0-0.8,0-1.5-0.1-2.1h1.1l0,1.3h0.1c0.3-0.9,1-1.5,1.9-1.5c0.1,0,0.2,0,0.3,0v1.2
		c-0.1,0-0.3,0-0.4,0c-0.9,0-1.5,0.7-1.7,1.6c0,0.2-0.1,0.4-0.1,0.6v3.6h-1.2V677.5z"/>
	<path class="st1" d="M369,677.2c0-0.7,0-1.3-0.1-1.8h1.1l0.1,1.1h0c0.4-0.6,1-1.2,2.1-1.2c0.9,0,1.6,0.6,1.9,1.4h0
		c0.2-0.4,0.5-0.7,0.8-0.9c0.4-0.3,0.9-0.5,1.5-0.5c0.9,0,2.2,0.6,2.2,2.9v4h-1.2v-3.8c0-1.3-0.5-2.1-1.5-2.1
		c-0.7,0-1.2,0.5-1.5,1.1c-0.1,0.2-0.1,0.4-0.1,0.6v4.2h-1.2v-4.1c0-1.1-0.5-1.9-1.4-1.9c-0.8,0-1.3,0.6-1.5,1.2
		c-0.1,0.2-0.1,0.4-0.1,0.6v4.1H369V677.2z"/>
	<path class="st1" d="M137.3,695.5c0,2.5-1.7,3.6-3.4,3.6c-1.8,0-3.2-1.3-3.2-3.5c0-2.3,1.5-3.6,3.4-3.6
		C136,692,137.3,693.4,137.3,695.5z M131.9,695.6c0,1.5,0.9,2.6,2.1,2.6c1.2,0,2.1-1.1,2.1-2.6c0-1.1-0.6-2.6-2-2.6
		S131.9,694.3,131.9,695.6z"/>
	<path class="st1" d="M144.5,697.1c0,0.7,0,1.3,0.1,1.8h-1.1l-0.1-1.1h0c-0.3,0.5-1,1.3-2.2,1.3c-1.1,0-2.3-0.6-2.3-3v-4h1.2v3.8
		c0,1.3,0.4,2.2,1.5,2.2c0.8,0,1.4-0.6,1.6-1.1c0.1-0.2,0.1-0.4,0.1-0.6v-4.2h1.2V697.1z"/>
	<path class="st1" d="M148,690.2v1.9h1.8v0.9H148v3.7c0,0.8,0.2,1.3,0.9,1.3c0.3,0,0.6,0,0.7-0.1l0.1,0.9c-0.2,0.1-0.6,0.2-1.1,0.2
		c-0.6,0-1-0.2-1.3-0.5c-0.4-0.4-0.5-1-0.5-1.8v-3.7h-1.1v-0.9h1.1v-1.6L148,690.2z"/>
	<path class="st1" d="M151,697.7c0.4,0.2,1,0.5,1.6,0.5c0.9,0,1.3-0.4,1.3-1c0-0.6-0.3-0.9-1.3-1.2c-1.2-0.4-1.8-1.1-1.8-1.9
		c0-1.1,0.9-2,2.3-2c0.7,0,1.3,0.2,1.7,0.4l-0.3,0.9c-0.3-0.2-0.8-0.4-1.4-0.4c-0.7,0-1.1,0.4-1.1,0.9c0,0.6,0.4,0.8,1.3,1.1
		c1.2,0.4,1.8,1,1.8,2c0,1.2-0.9,2-2.5,2c-0.7,0-1.4-0.2-1.9-0.5L151,697.7z"/>
	<path class="st1" d="M158.2,690.2v1.9h1.8v0.9h-1.8v3.7c0,0.8,0.2,1.3,0.9,1.3c0.3,0,0.6,0,0.7-0.1l0.1,0.9
		c-0.2,0.1-0.6,0.2-1.1,0.2c-0.6,0-1-0.2-1.3-0.5c-0.4-0.4-0.5-1-0.5-1.8v-3.7h-1.1v-0.9h1.1v-1.6L158.2,690.2z"/>
	<path class="st1" d="M161.3,694.3c0-0.8,0-1.5-0.1-2.1h1.1l0,1.3h0.1c0.3-0.9,1-1.5,1.9-1.5c0.1,0,0.2,0,0.3,0v1.2
		c-0.1,0-0.3,0-0.4,0c-0.9,0-1.5,0.7-1.7,1.6c0,0.2-0.1,0.4-0.1,0.6v3.6h-1.2V694.3z"/>
	<path class="st1" d="M166.5,695.8c0,1.7,1.1,2.4,2.3,2.4c0.9,0,1.4-0.2,1.9-0.4l0.2,0.9c-0.4,0.2-1.2,0.4-2.3,0.4
		c-2.1,0-3.3-1.4-3.3-3.4s1.2-3.7,3.2-3.7c2.2,0,2.8,1.9,2.8,3.2c0,0.3,0,0.4,0,0.6H166.5z M170.1,694.9c0-0.8-0.3-2-1.7-2
		c-1.2,0-1.8,1.1-1.9,2H170.1z"/>
	<path class="st1" d="M174.3,690.2v1.9h1.8v0.9h-1.8v3.7c0,0.8,0.2,1.3,0.9,1.3c0.3,0,0.6,0,0.7-0.1l0.1,0.9
		c-0.2,0.1-0.6,0.2-1.1,0.2c-0.6,0-1-0.2-1.3-0.5c-0.4-0.4-0.5-1-0.5-1.8v-3.7H172v-0.9h1.1v-1.6L174.3,690.2z"/>
	<path class="st1" d="M182.2,698.7c-0.3,0.2-1,0.4-1.9,0.4c-2,0-3.4-1.4-3.4-3.5c0-2.1,1.4-3.6,3.6-3.6c0.7,0,1.4,0.2,1.7,0.4
		l-0.3,1c-0.3-0.2-0.8-0.3-1.4-0.3c-1.6,0-2.4,1.1-2.4,2.6c0,1.6,1,2.5,2.4,2.5c0.7,0,1.2-0.2,1.5-0.3L182.2,698.7z"/>
	<path class="st1" d="M183.6,689h1.2v4.2h0c0.2-0.4,0.5-0.7,0.9-0.9c0.4-0.2,0.8-0.4,1.3-0.4c0.9,0,2.4,0.6,2.4,2.9v4h-1.2v-3.9
		c0-1.1-0.4-2-1.6-2c-0.8,0-1.4,0.6-1.7,1.2c-0.1,0.2-0.1,0.4-0.1,0.6v4.1h-1.2V689z"/>
	<path class="st1" d="M192.1,695.8c0,1.7,1.1,2.4,2.3,2.4c0.9,0,1.4-0.2,1.9-0.4l0.2,0.9c-0.4,0.2-1.2,0.4-2.3,0.4
		c-2.1,0-3.3-1.4-3.3-3.4s1.2-3.7,3.2-3.7c2.2,0,2.8,1.9,2.8,3.2c0,0.3,0,0.4,0,0.6H192.1z M195.7,694.9c0-0.8-0.3-2-1.7-2
		c-1.2,0-1.8,1.1-1.9,2H195.7z"/>
	<path class="st1" d="M204.3,689v8.2c0,0.6,0,1.3,0.1,1.8h-1.1l-0.1-1.2h0c-0.4,0.8-1.2,1.3-2.3,1.3c-1.6,0-2.9-1.4-2.9-3.4
		c0-2.3,1.4-3.6,3-3.6c1,0,1.7,0.5,2,1h0v-4H204.3z M203,694.9c0-0.2,0-0.4-0.1-0.5c-0.2-0.8-0.9-1.4-1.8-1.4c-1.3,0-2,1.1-2,2.6
		c0,1.4,0.7,2.5,2,2.5c0.8,0,1.6-0.5,1.8-1.5c0-0.2,0.1-0.3,0.1-0.5V694.9z"/>
	<path class="st1" d="M213,699l-0.1-0.9h0c-0.4,0.5-1.1,1-2.1,1c-1.4,0-2.1-1-2.1-1.9c0-1.6,1.5-2.5,4.1-2.5v-0.1
		c0-0.6-0.2-1.6-1.5-1.6c-0.6,0-1.3,0.2-1.8,0.5l-0.3-0.8c0.6-0.4,1.4-0.6,2.2-0.6c2.1,0,2.6,1.4,2.6,2.8v2.5c0,0.6,0,1.2,0.1,1.6
		H213z M212.8,695.5c-1.3,0-2.9,0.2-2.9,1.5c0,0.8,0.5,1.2,1.2,1.2c0.9,0,1.4-0.6,1.6-1.1c0-0.1,0.1-0.3,0.1-0.4V695.5z"/>
	<path class="st1" d="M216,694c0-0.7,0-1.3-0.1-1.8h1.1l0.1,1.1h0c0.3-0.6,1.1-1.3,2.2-1.3c0.9,0,2.4,0.6,2.4,2.9v4h-1.2V695
		c0-1.1-0.4-2-1.6-2c-0.8,0-1.4,0.6-1.7,1.3c-0.1,0.2-0.1,0.4-0.1,0.6v4.1H216V694z"/>
	<path class="st1" d="M229.6,689v8.2c0,0.6,0,1.3,0.1,1.8h-1.1l-0.1-1.2h0c-0.4,0.8-1.2,1.3-2.3,1.3c-1.6,0-2.9-1.4-2.9-3.4
		c0-2.3,1.4-3.6,3-3.6c1,0,1.7,0.5,2,1h0v-4H229.6z M228.4,694.9c0-0.2,0-0.4-0.1-0.5c-0.2-0.8-0.9-1.4-1.8-1.4c-1.3,0-2,1.1-2,2.6
		c0,1.4,0.7,2.5,2,2.5c0.8,0,1.6-0.5,1.8-1.5c0-0.2,0.1-0.3,0.1-0.5V694.9z"/>
	<path class="st1" d="M238.4,699l-0.1-0.9h0c-0.4,0.5-1.1,1-2.1,1c-1.4,0-2.1-1-2.1-1.9c0-1.6,1.5-2.5,4.1-2.5v-0.1
		c0-0.6-0.2-1.6-1.5-1.6c-0.6,0-1.3,0.2-1.8,0.5l-0.3-0.8c0.6-0.4,1.4-0.6,2.2-0.6c2.1,0,2.6,1.4,2.6,2.8v2.5c0,0.6,0,1.2,0.1,1.6
		H238.4z M238.2,695.5c-1.3,0-2.9,0.2-2.9,1.5c0,0.8,0.5,1.2,1.2,1.2c0.9,0,1.4-0.6,1.6-1.1c0-0.1,0.1-0.3,0.1-0.4V695.5z"/>
	<path class="st1" d="M241.4,694c0-0.7,0-1.3-0.1-1.8h1.1l0.1,1.1h0c0.3-0.6,1.1-1.3,2.2-1.3c0.9,0,2.4,0.6,2.4,2.9v4h-1.2V695
		c0-1.1-0.4-2-1.6-2c-0.8,0-1.4,0.6-1.7,1.3c-0.1,0.2-0.1,0.4-0.1,0.6v4.1h-1.2V694z"/>
	<path class="st1" d="M252.8,695.8c0,1.7,1.1,2.4,2.3,2.4c0.9,0,1.4-0.2,1.9-0.4l0.2,0.9c-0.4,0.2-1.2,0.4-2.3,0.4
		c-2.1,0-3.3-1.4-3.3-3.4s1.2-3.7,3.2-3.7c2.2,0,2.8,1.9,2.8,3.2c0,0.3,0,0.4,0,0.6H252.8z M256.4,694.9c0-0.8-0.3-2-1.7-2
		c-1.2,0-1.8,1.1-1.9,2H256.4z"/>
	<path class="st1" d="M259.6,692.2l1.5,4c0.2,0.4,0.3,1,0.4,1.4h0c0.1-0.4,0.3-0.9,0.4-1.4l1.3-4h1.3l-1.8,4.8
		c-0.9,2.3-1.5,3.5-2.3,4.2c-0.6,0.5-1.2,0.7-1.5,0.8l-0.3-1c0.3-0.1,0.7-0.3,1.1-0.6c0.3-0.3,0.8-0.7,1-1.4
		c0.1-0.1,0.1-0.2,0.1-0.3c0-0.1,0-0.2-0.1-0.3l-2.5-6.2H259.6z"/>
	<path class="st1" d="M266.3,695.8c0,1.7,1.1,2.4,2.3,2.4c0.9,0,1.4-0.2,1.9-0.4l0.2,0.9c-0.4,0.2-1.2,0.4-2.3,0.4
		c-2.1,0-3.3-1.4-3.3-3.4s1.2-3.7,3.2-3.7c2.2,0,2.8,1.9,2.8,3.2c0,0.3,0,0.4,0,0.6H266.3z M269.9,694.9c0-0.8-0.3-2-1.7-2
		c-1.2,0-1.8,1.1-1.9,2H269.9z"/>
	<path class="st1" d="M277.1,690.2v1.9h1.8v0.9h-1.8v3.7c0,0.8,0.2,1.3,0.9,1.3c0.3,0,0.6,0,0.7-0.1l0.1,0.9
		c-0.2,0.1-0.6,0.2-1.1,0.2c-0.6,0-1-0.2-1.3-0.5c-0.4-0.4-0.5-1-0.5-1.8v-3.7h-1.1v-0.9h1.1v-1.6L277.1,690.2z"/>
	<path class="st1" d="M280.2,689h1.2v4.2h0c0.2-0.4,0.5-0.7,0.9-0.9c0.4-0.2,0.8-0.4,1.3-0.4c0.9,0,2.4,0.6,2.4,2.9v4h-1.2v-3.9
		c0-1.1-0.4-2-1.6-2c-0.8,0-1.4,0.6-1.7,1.2c-0.1,0.2-0.1,0.4-0.1,0.6v4.1h-1.2V689z"/>
	<path class="st1" d="M291.7,699l-0.1-0.9h0c-0.4,0.5-1.1,1-2.1,1c-1.4,0-2.1-1-2.1-1.9c0-1.6,1.5-2.5,4.1-2.5v-0.1
		c0-0.6-0.2-1.6-1.5-1.6c-0.6,0-1.3,0.2-1.8,0.5l-0.3-0.8c0.6-0.4,1.4-0.6,2.2-0.6c2.1,0,2.6,1.4,2.6,2.8v2.5c0,0.6,0,1.2,0.1,1.6
		H291.7z M291.6,695.5c-1.3,0-2.9,0.2-2.9,1.5c0,0.8,0.5,1.2,1.2,1.2c0.9,0,1.4-0.6,1.6-1.1c0-0.1,0.1-0.3,0.1-0.4V695.5z"/>
	<path class="st1" d="M296.2,690.2v1.9h1.8v0.9h-1.8v3.7c0,0.8,0.2,1.3,0.9,1.3c0.3,0,0.6,0,0.7-0.1l0.1,0.9
		c-0.2,0.1-0.6,0.2-1.1,0.2c-0.6,0-1-0.2-1.3-0.5c-0.4-0.4-0.5-1-0.5-1.8v-3.7h-1.1v-0.9h1.1v-1.6L296.2,690.2z"/>
	<path class="st1" d="M302.3,689h1.2v9.9h-1.2V689z"/>
	<path class="st1" d="M311.7,695.5c0,2.5-1.7,3.6-3.4,3.6c-1.8,0-3.2-1.3-3.2-3.5c0-2.3,1.5-3.6,3.4-3.6
		C310.4,692,311.7,693.4,311.7,695.5z M306.3,695.6c0,1.5,0.9,2.6,2.1,2.6c1.2,0,2.1-1.1,2.1-2.6c0-1.1-0.6-2.6-2-2.6
		S306.3,694.3,306.3,695.6z"/>
	<path class="st1" d="M319.4,695.5c0,2.5-1.7,3.6-3.4,3.6c-1.8,0-3.2-1.3-3.2-3.5c0-2.3,1.5-3.6,3.4-3.6
		C318.1,692,319.4,693.4,319.4,695.5z M314,695.6c0,1.5,0.9,2.6,2.1,2.6c1.2,0,2.1-1.1,2.1-2.6c0-1.1-0.6-2.6-2-2.6
		S314,694.3,314,695.6z"/>
	<path class="st1" d="M322.2,695.3L322.2,695.3c0.2-0.2,0.4-0.5,0.6-0.8l2-2.3h1.5l-2.6,2.8l3,4h-1.5l-2.3-3.2l-0.6,0.7v2.5H321V689
		h1.2V695.3z"/>
	<path class="st1" d="M327.4,697.7c0.4,0.2,1,0.5,1.6,0.5c0.9,0,1.3-0.4,1.3-1c0-0.6-0.3-0.9-1.3-1.2c-1.2-0.4-1.8-1.1-1.8-1.9
		c0-1.1,0.9-2,2.3-2c0.7,0,1.3,0.2,1.7,0.4l-0.3,0.9c-0.3-0.2-0.8-0.4-1.4-0.4c-0.7,0-1.1,0.4-1.1,0.9c0,0.6,0.4,0.8,1.3,1.1
		c1.2,0.4,1.8,1,1.8,2c0,1.2-0.9,2-2.5,2c-0.7,0-1.4-0.2-1.9-0.5L327.4,697.7z"/>
	<path class="st1" d="M336,699c0-0.5,0.1-1.1,0.1-1.8V689h1.2v4.3h0c0.4-0.8,1.2-1.2,2.3-1.2c1.7,0,2.9,1.4,2.9,3.5
		c0,2.4-1.5,3.6-3,3.6c-1,0-1.8-0.4-2.3-1.3h0L337,699H336z M337.3,696.2c0,0.2,0,0.3,0.1,0.4c0.2,0.9,1,1.4,1.8,1.4
		c1.3,0,2.1-1.1,2.1-2.6c0-1.4-0.7-2.5-2-2.5c-0.8,0-1.6,0.6-1.9,1.5c0,0.1-0.1,0.3-0.1,0.5V696.2z"/>
	<path class="st1" d="M347.8,699l-0.1-0.9h0c-0.4,0.5-1.1,1-2.1,1c-1.4,0-2.1-1-2.1-1.9c0-1.6,1.5-2.5,4.1-2.5v-0.1
		c0-0.6-0.2-1.6-1.5-1.6c-0.6,0-1.3,0.2-1.8,0.5l-0.3-0.8c0.6-0.4,1.4-0.6,2.2-0.6c2.1,0,2.6,1.4,2.6,2.8v2.5c0,0.6,0,1.2,0.1,1.6
		H347.8z M347.6,695.5c-1.3,0-2.9,0.2-2.9,1.5c0,0.8,0.5,1.2,1.2,1.2c0.9,0,1.4-0.6,1.6-1.1c0-0.1,0.1-0.3,0.1-0.4V695.5z"/>
	<path class="st1" d="M355.6,698.7c-0.3,0.2-1,0.4-1.9,0.4c-2,0-3.4-1.4-3.4-3.5c0-2.1,1.4-3.6,3.6-3.6c0.7,0,1.4,0.2,1.7,0.4
		l-0.3,1c-0.3-0.2-0.8-0.3-1.4-0.3c-1.6,0-2.4,1.1-2.4,2.6c0,1.6,1,2.5,2.4,2.5c0.7,0,1.2-0.2,1.5-0.3L355.6,698.7z"/>
	<path class="st1" d="M358.2,695.3L358.2,695.3c0.2-0.2,0.4-0.5,0.6-0.8l2-2.3h1.5l-2.6,2.8l3,4h-1.5l-2.3-3.2l-0.6,0.7v2.5H357V689
		h1.2V695.3z"/>
	<path class="st1" d="M364.3,692.2l0.9,3.4c0.2,0.8,0.4,1.5,0.5,2.2h0c0.2-0.7,0.4-1.4,0.6-2.1l1.1-3.5h1l1.1,3.4
		c0.3,0.8,0.4,1.5,0.6,2.2h0c0.1-0.7,0.3-1.4,0.5-2.2l1-3.4h1.2l-2.2,6.8h-1.1l-1-3.2c-0.2-0.8-0.4-1.4-0.6-2.2h0
		c-0.2,0.8-0.4,1.5-0.6,2.2l-1.1,3.2H365l-2-6.8H364.3z"/>
	<path class="st1" d="M377.8,699l-0.1-0.9h0c-0.4,0.5-1.1,1-2.1,1c-1.4,0-2.1-1-2.1-1.9c0-1.6,1.5-2.5,4.1-2.5v-0.1
		c0-0.6-0.2-1.6-1.5-1.6c-0.6,0-1.3,0.2-1.8,0.5l-0.3-0.8c0.6-0.4,1.4-0.6,2.2-0.6c2.1,0,2.6,1.4,2.6,2.8v2.5c0,0.6,0,1.2,0.1,1.6
		H377.8z M377.6,695.5c-1.3,0-2.9,0.2-2.9,1.5c0,0.8,0.5,1.2,1.2,1.2c0.9,0,1.4-0.6,1.6-1.1c0-0.1,0.1-0.3,0.1-0.4V695.5z"/>
	<path class="st1" d="M380.8,694.3c0-0.8,0-1.5-0.1-2.1h1.1l0,1.3h0.1c0.3-0.9,1-1.5,1.9-1.5c0.1,0,0.2,0,0.3,0v1.2
		c-0.1,0-0.3,0-0.4,0c-0.9,0-1.5,0.7-1.7,1.6c0,0.2-0.1,0.4-0.1,0.6v3.6h-1.2V694.3z"/>
	<path class="st1" d="M391.1,689v8.2c0,0.6,0,1.3,0.1,1.8H390l-0.1-1.2h0c-0.4,0.8-1.2,1.3-2.3,1.3c-1.6,0-2.9-1.4-2.9-3.4
		c0-2.3,1.4-3.6,3-3.6c1,0,1.7,0.5,2,1h0v-4H391.1z M389.8,694.9c0-0.2,0-0.4-0.1-0.5c-0.2-0.8-0.9-1.4-1.8-1.4c-1.3,0-2,1.1-2,2.6
		c0,1.4,0.7,2.5,2,2.5c0.8,0,1.6-0.5,1.8-1.5c0-0.2,0.1-0.3,0.1-0.5V694.9z"/>
	<path class="st1" d="M392.9,697.7c0.4,0.2,1,0.5,1.6,0.5c0.9,0,1.3-0.4,1.3-1c0-0.6-0.3-0.9-1.3-1.2c-1.2-0.4-1.8-1.1-1.8-1.9
		c0-1.1,0.9-2,2.3-2c0.7,0,1.3,0.2,1.7,0.4l-0.3,0.9c-0.3-0.2-0.8-0.4-1.4-0.4c-0.7,0-1.1,0.4-1.1,0.9c0,0.6,0.4,0.8,1.3,1.1
		c1.2,0.4,1.8,1,1.8,2c0,1.2-0.9,2-2.5,2c-0.7,0-1.4-0.2-1.9-0.5L392.9,697.7z"/>
	<path class="st1" d="M134.9,715.8l-0.1-0.9h0c-0.4,0.5-1.1,1-2.1,1c-1.4,0-2.1-1-2.1-1.9c0-1.6,1.5-2.5,4.1-2.5v-0.1
		c0-0.6-0.2-1.6-1.5-1.6c-0.6,0-1.3,0.2-1.8,0.5l-0.3-0.8c0.6-0.4,1.4-0.6,2.2-0.6c2.1,0,2.6,1.4,2.6,2.8v2.5c0,0.6,0,1.2,0.1,1.6
		H134.9z M134.7,712.3c-1.3,0-2.9,0.2-2.9,1.5c0,0.8,0.5,1.2,1.2,1.2c0.9,0,1.4-0.6,1.6-1.1c0-0.1,0.1-0.3,0.1-0.4V712.3z"/>
	<path class="st1" d="M137.9,710.8c0-0.7,0-1.3-0.1-1.8h1.1l0.1,1.1h0c0.3-0.6,1.1-1.3,2.2-1.3c0.9,0,2.4,0.6,2.4,2.9v4h-1.2v-3.9
		c0-1.1-0.4-2-1.6-2c-0.8,0-1.4,0.6-1.7,1.3c-0.1,0.2-0.1,0.4-0.1,0.6v4.1h-1.2V710.8z"/>
	<path class="st1" d="M151.5,705.8v8.2c0,0.6,0,1.3,0.1,1.8h-1.1l-0.1-1.2h0c-0.4,0.8-1.2,1.3-2.3,1.3c-1.6,0-2.9-1.4-2.9-3.4
		c0-2.3,1.4-3.6,3-3.6c1,0,1.7,0.5,2,1h0v-4H151.5z M150.3,711.7c0-0.2,0-0.4-0.1-0.5c-0.2-0.8-0.9-1.4-1.8-1.4c-1.3,0-2,1.1-2,2.6
		c0,1.4,0.7,2.5,2,2.5c0.8,0,1.6-0.5,1.8-1.5c0-0.2,0.1-0.3,0.1-0.5V711.7z"/>
	<path class="st1" d="M156.6,715.8v-5.8h-1V709h1v-0.3c0-1,0.2-1.8,0.8-2.4c0.5-0.4,1.1-0.6,1.7-0.6c0.4,0,0.8,0.1,1.1,0.2l-0.2,1
		c-0.2-0.1-0.4-0.2-0.8-0.2c-1,0-1.3,0.9-1.3,2v0.4h1.6v0.9h-1.6v5.8H156.6z"/>
	<path class="st1" d="M166.6,712.3c0,2.5-1.7,3.6-3.4,3.6c-1.8,0-3.2-1.3-3.2-3.5c0-2.3,1.5-3.6,3.4-3.6
		C165.2,708.8,166.6,710.2,166.6,712.3z M161.2,712.4c0,1.5,0.9,2.6,2.1,2.6c1.2,0,2.1-1.1,2.1-2.6c0-1.1-0.6-2.6-2-2.6
		S161.2,711.1,161.2,712.4z"/>
	<path class="st1" d="M168.1,711.1c0-0.8,0-1.5-0.1-2.1h1.1l0,1.3h0.1c0.3-0.9,1-1.5,1.9-1.5c0.1,0,0.2,0,0.3,0v1.2
		c-0.1,0-0.3,0-0.4,0c-0.9,0-1.5,0.7-1.7,1.6c0,0.2-0.1,0.4-0.1,0.6v3.6h-1.2V711.1z"/>
	<path class="st1" d="M173.5,709l0.9,3.4c0.2,0.8,0.4,1.5,0.5,2.2h0c0.2-0.7,0.4-1.4,0.6-2.1l1.1-3.5h1l1.1,3.4
		c0.3,0.8,0.4,1.5,0.6,2.2h0c0.1-0.7,0.3-1.4,0.5-2.2l1-3.4h1.2l-2.2,6.8h-1.1l-1-3.2c-0.2-0.8-0.4-1.4-0.6-2.2h0
		c-0.2,0.8-0.4,1.5-0.6,2.2l-1.1,3.2h-1.1l-2-6.8H173.5z"/>
	<path class="st1" d="M187,715.8l-0.1-0.9h0c-0.4,0.5-1.1,1-2.1,1c-1.4,0-2.1-1-2.1-1.9c0-1.6,1.5-2.5,4.1-2.5v-0.1
		c0-0.6-0.2-1.6-1.5-1.6c-0.6,0-1.3,0.2-1.8,0.5l-0.3-0.8c0.6-0.4,1.4-0.6,2.2-0.6c2.1,0,2.6,1.4,2.6,2.8v2.5c0,0.6,0,1.2,0.1,1.6
		H187z M186.9,712.3c-1.3,0-2.9,0.2-2.9,1.5c0,0.8,0.5,1.2,1.2,1.2c0.9,0,1.4-0.6,1.6-1.1c0-0.1,0.1-0.3,0.1-0.4V712.3z"/>
	<path class="st1" d="M190,711.1c0-0.8,0-1.5-0.1-2.1h1.1l0,1.3h0.1c0.3-0.9,1-1.5,1.9-1.5c0.1,0,0.2,0,0.3,0v1.2
		c-0.1,0-0.3,0-0.4,0c-0.9,0-1.5,0.7-1.7,1.6c0,0.2-0.1,0.4-0.1,0.6v3.6H190V711.1z"/>
	<path class="st1" d="M200.3,705.8v8.2c0,0.6,0,1.3,0.1,1.8h-1.1l-0.1-1.2h0c-0.4,0.8-1.2,1.3-2.3,1.3c-1.6,0-2.9-1.4-2.9-3.4
		c0-2.3,1.4-3.6,3-3.6c1,0,1.7,0.5,2,1h0v-4H200.3z M199.1,711.7c0-0.2,0-0.4-0.1-0.5c-0.2-0.8-0.9-1.4-1.8-1.4c-1.3,0-2,1.1-2,2.6
		c0,1.4,0.7,2.5,2,2.5c0.8,0,1.6-0.5,1.8-1.5c0-0.2,0.1-0.3,0.1-0.5V711.7z"/>
	<path class="st1" d="M202.2,714.5c0.4,0.2,1,0.5,1.6,0.5c0.9,0,1.3-0.4,1.3-1c0-0.6-0.3-0.9-1.3-1.2c-1.2-0.4-1.8-1.1-1.8-1.9
		c0-1.1,0.9-2,2.3-2c0.7,0,1.3,0.2,1.7,0.4l-0.3,0.9c-0.3-0.2-0.8-0.4-1.4-0.4c-0.7,0-1.1,0.4-1.1,0.9c0,0.6,0.4,0.8,1.3,1.1
		c1.2,0.4,1.8,1,1.8,2c0,1.2-0.9,2-2.5,2c-0.7,0-1.4-0.2-1.9-0.5L202.2,714.5z"/>
	<path class="st1" d="M212.3,707.1c0,0.4-0.3,0.8-0.8,0.8c-0.4,0-0.7-0.3-0.7-0.8c0-0.4,0.3-0.8,0.8-0.8
		C212,706.3,212.3,706.6,212.3,707.1z M210.9,715.8V709h1.2v6.8H210.9z"/>
	<path class="st1" d="M214.2,710.8c0-0.7,0-1.3-0.1-1.8h1.1l0.1,1.1h0c0.3-0.6,1.1-1.3,2.2-1.3c0.9,0,2.4,0.6,2.4,2.9v4h-1.2v-3.9
		c0-1.1-0.4-2-1.6-2c-0.8,0-1.4,0.6-1.7,1.3c-0.1,0.2-0.1,0.4-0.1,0.6v4.1h-1.2V710.8z"/>
	<path class="st1" d="M231,712.3c0,2.5-1.7,3.6-3.4,3.6c-1.8,0-3.2-1.3-3.2-3.5c0-2.3,1.5-3.6,3.4-3.6
		C229.7,708.8,231,710.2,231,712.3z M225.6,712.4c0,1.5,0.9,2.6,2.1,2.6c1.2,0,2.1-1.1,2.1-2.6c0-1.1-0.6-2.6-2-2.6
		S225.6,711.1,225.6,712.4z"/>
	<path class="st1" d="M232.6,711.1c0-0.8,0-1.5-0.1-2.1h1.1l0,1.3h0.1c0.3-0.9,1-1.5,1.9-1.5c0.1,0,0.2,0,0.3,0v1.2
		c-0.1,0-0.3,0-0.4,0c-0.9,0-1.5,0.7-1.7,1.6c0,0.2-0.1,0.4-0.1,0.6v3.6h-1.2V711.1z"/>
	<path class="st1" d="M242.9,705.8v8.2c0,0.6,0,1.3,0.1,1.8h-1.1l-0.1-1.2h0c-0.4,0.8-1.2,1.3-2.3,1.3c-1.6,0-2.9-1.4-2.9-3.4
		c0-2.3,1.4-3.6,3-3.6c1,0,1.7,0.5,2,1h0v-4H242.9z M241.6,711.7c0-0.2,0-0.4-0.1-0.5c-0.2-0.8-0.9-1.4-1.8-1.4c-1.3,0-2,1.1-2,2.6
		c0,1.4,0.7,2.5,2,2.5c0.8,0,1.6-0.5,1.8-1.5c0-0.2,0.1-0.3,0.1-0.5V711.7z"/>
	<path class="st1" d="M245.6,712.6c0,1.7,1.1,2.4,2.3,2.4c0.9,0,1.4-0.2,1.9-0.4l0.2,0.9c-0.4,0.2-1.2,0.4-2.3,0.4
		c-2.1,0-3.3-1.4-3.3-3.4s1.2-3.7,3.2-3.7c2.2,0,2.8,1.9,2.8,3.2c0,0.3,0,0.4,0,0.6H245.6z M249.2,711.7c0-0.8-0.3-2-1.7-2
		c-1.2,0-1.8,1.1-1.9,2H249.2z"/>
	<path class="st1" d="M251.9,711.1c0-0.8,0-1.5-0.1-2.1h1.1l0,1.3h0.1c0.3-0.9,1-1.5,1.9-1.5c0.1,0,0.2,0,0.3,0v1.2
		c-0.1,0-0.3,0-0.4,0c-0.9,0-1.5,0.7-1.7,1.6c0,0.2-0.1,0.4-0.1,0.6v3.6h-1.2V711.1z"/>
	<path class="st1" d="M261,707v1.9h1.8v0.9H261v3.7c0,0.8,0.2,1.3,0.9,1.3c0.3,0,0.6,0,0.7-0.1l0.1,0.9c-0.2,0.1-0.6,0.2-1.1,0.2
		c-0.6,0-1-0.2-1.3-0.5c-0.4-0.4-0.5-1-0.5-1.8v-3.7h-1.1V709h1.1v-1.6L261,707z"/>
	<path class="st1" d="M270.2,712.3c0,2.5-1.7,3.6-3.4,3.6c-1.8,0-3.2-1.3-3.2-3.5c0-2.3,1.5-3.6,3.4-3.6
		C268.8,708.8,270.2,710.2,270.2,712.3z M264.8,712.4c0,1.5,0.9,2.6,2.1,2.6c1.2,0,2.1-1.1,2.1-2.6c0-1.1-0.6-2.6-2-2.6
		S264.8,711.1,264.8,712.4z"/>
	<path class="st1" d="M280.3,713.9c0,0.7,0,1.3,0.1,1.8h-1.1l-0.1-1.1h0c-0.3,0.5-1,1.3-2.2,1.3c-1.1,0-2.3-0.6-2.3-3v-4h1.2v3.8
		c0,1.3,0.4,2.2,1.5,2.2c0.8,0,1.4-0.6,1.6-1.1c0.1-0.2,0.1-0.4,0.1-0.6V709h1.2V713.9z"/>
	<path class="st1" d="M282.4,710.8c0-0.7,0-1.3-0.1-1.8h1.1l0.1,1.1h0c0.3-0.6,1.1-1.3,2.2-1.3c0.9,0,2.4,0.6,2.4,2.9v4h-1.2v-3.9
		c0-1.1-0.4-2-1.6-2c-0.8,0-1.4,0.6-1.7,1.3c-0.1,0.2-0.1,0.4-0.1,0.6v4.1h-1.2V710.8z"/>
	<path class="st1" d="M296,705.8v8.2c0,0.6,0,1.3,0.1,1.8H295l-0.1-1.2h0c-0.4,0.8-1.2,1.3-2.3,1.3c-1.6,0-2.9-1.4-2.9-3.4
		c0-2.3,1.4-3.6,3-3.6c1,0,1.7,0.5,2,1h0v-4H296z M294.8,711.7c0-0.2,0-0.4-0.1-0.5c-0.2-0.8-0.9-1.4-1.8-1.4c-1.3,0-2,1.1-2,2.6
		c0,1.4,0.7,2.5,2,2.5c0.8,0,1.6-0.5,1.8-1.5c0-0.2,0.1-0.3,0.1-0.5V711.7z"/>
	<path class="st1" d="M298.7,712.6c0,1.7,1.1,2.4,2.3,2.4c0.9,0,1.4-0.2,1.9-0.4l0.2,0.9c-0.4,0.2-1.2,0.4-2.3,0.4
		c-2.1,0-3.3-1.4-3.3-3.4s1.2-3.7,3.2-3.7c2.2,0,2.8,1.9,2.8,3.2c0,0.3,0,0.4,0,0.6H298.7z M302.4,711.7c0-0.8-0.3-2-1.7-2
		c-1.2,0-1.8,1.1-1.9,2H302.4z"/>
	<path class="st1" d="M305.1,711.1c0-0.8,0-1.5-0.1-2.1h1.1l0,1.3h0.1c0.3-0.9,1-1.5,1.9-1.5c0.1,0,0.2,0,0.3,0v1.2
		c-0.1,0-0.3,0-0.4,0c-0.9,0-1.5,0.7-1.7,1.6c0,0.2-0.1,0.4-0.1,0.6v3.6h-1.2V711.1z"/>
	<path class="st1" d="M309.5,714.5c0.4,0.2,1,0.5,1.6,0.5c0.9,0,1.3-0.4,1.3-1c0-0.6-0.3-0.9-1.3-1.2c-1.2-0.4-1.8-1.1-1.8-1.9
		c0-1.1,0.9-2,2.3-2c0.7,0,1.3,0.2,1.7,0.4l-0.3,0.9c-0.3-0.2-0.8-0.4-1.4-0.4c-0.7,0-1.1,0.4-1.1,0.9c0,0.6,0.4,0.8,1.3,1.1
		c1.2,0.4,1.8,1,1.8,2c0,1.2-0.9,2-2.5,2c-0.7,0-1.4-0.2-1.9-0.5L309.5,714.5z"/>
	<path class="st1" d="M316.7,707v1.9h1.8v0.9h-1.8v3.7c0,0.8,0.2,1.3,0.9,1.3c0.3,0,0.6,0,0.7-0.1l0.1,0.9c-0.2,0.1-0.6,0.2-1.1,0.2
		c-0.6,0-1-0.2-1.3-0.5c-0.4-0.4-0.5-1-0.5-1.8v-3.7h-1.1V709h1.1v-1.6L316.7,707z"/>
	<path class="st1" d="M323.6,715.8l-0.1-0.9h0c-0.4,0.5-1.1,1-2.1,1c-1.4,0-2.1-1-2.1-1.9c0-1.6,1.5-2.5,4.1-2.5v-0.1
		c0-0.6-0.2-1.6-1.5-1.6c-0.6,0-1.3,0.2-1.8,0.5l-0.3-0.8c0.6-0.4,1.4-0.6,2.2-0.6c2.1,0,2.6,1.4,2.6,2.8v2.5c0,0.6,0,1.2,0.1,1.6
		H323.6z M323.4,712.3c-1.3,0-2.9,0.2-2.9,1.5c0,0.8,0.5,1.2,1.2,1.2c0.9,0,1.4-0.6,1.6-1.1c0-0.1,0.1-0.3,0.1-0.4V712.3z"/>
	<path class="st1" d="M326.6,710.8c0-0.7,0-1.3-0.1-1.8h1.1l0.1,1.1h0c0.3-0.6,1.1-1.3,2.2-1.3c0.9,0,2.4,0.6,2.4,2.9v4h-1.2v-3.9
		c0-1.1-0.4-2-1.6-2c-0.8,0-1.4,0.6-1.7,1.3c-0.1,0.2-0.1,0.4-0.1,0.6v4.1h-1.2V710.8z"/>
	<path class="st1" d="M340.2,705.8v8.2c0,0.6,0,1.3,0.1,1.8h-1.1l-0.1-1.2h0c-0.4,0.8-1.2,1.3-2.3,1.3c-1.6,0-2.9-1.4-2.9-3.4
		c0-2.3,1.4-3.6,3-3.6c1,0,1.7,0.5,2,1h0v-4H340.2z M339,711.7c0-0.2,0-0.4-0.1-0.5c-0.2-0.8-0.9-1.4-1.8-1.4c-1.3,0-2,1.1-2,2.6
		c0,1.4,0.7,2.5,2,2.5c0.8,0,1.6-0.5,1.8-1.5c0-0.2,0.1-0.3,0.1-0.5V711.7z"/>
	<path class="st1" d="M346.7,707v1.9h1.8v0.9h-1.8v3.7c0,0.8,0.2,1.3,0.9,1.3c0.3,0,0.6,0,0.7-0.1l0.1,0.9c-0.2,0.1-0.6,0.2-1.1,0.2
		c-0.6,0-1-0.2-1.3-0.5c-0.4-0.4-0.5-1-0.5-1.8v-3.7h-1.1V709h1.1v-1.6L346.7,707z"/>
	<path class="st1" d="M349.8,705.8h1.2v4.2h0c0.2-0.4,0.5-0.7,0.9-0.9c0.4-0.2,0.8-0.4,1.3-0.4c0.9,0,2.4,0.6,2.4,2.9v4h-1.2v-3.9
		c0-1.1-0.4-2-1.6-2c-0.8,0-1.4,0.6-1.7,1.2c-0.1,0.2-0.1,0.4-0.1,0.6v4.1h-1.2V705.8z"/>
	<path class="st1" d="M358.3,712.6c0,1.7,1.1,2.4,2.3,2.4c0.9,0,1.4-0.2,1.9-0.4l0.2,0.9c-0.4,0.2-1.2,0.4-2.3,0.4
		c-2.1,0-3.3-1.4-3.3-3.4s1.2-3.7,3.2-3.7c2.2,0,2.8,1.9,2.8,3.2c0,0.3,0,0.4,0,0.6H358.3z M361.9,711.7c0-0.8-0.3-2-1.7-2
		c-1.2,0-1.8,1.1-1.9,2H361.9z"/>
	<path class="st1" d="M131.1,728c0-0.9,0-1.6-0.1-2.2h1.1l0.1,1.2h0c0.5-0.8,1.3-1.3,2.4-1.3c1.6,0,2.9,1.4,2.9,3.4
		c0,2.4-1.5,3.6-3.1,3.6c-0.9,0-1.7-0.4-2.1-1.1h0v3.7h-1.2V728z M132.4,729.8c0,0.2,0,0.4,0.1,0.5c0.2,0.9,1,1.4,1.8,1.4
		c1.3,0,2.1-1.1,2.1-2.6c0-1.4-0.7-2.5-2-2.5c-0.8,0-1.6,0.6-1.9,1.5c0,0.2-0.1,0.3-0.1,0.5V729.8z"/>
	<path class="st1" d="M139.1,722.6h1.2v9.9h-1.2V722.6z"/>
	<path class="st1" d="M146.2,732.6l-0.1-0.9h0c-0.4,0.5-1.1,1-2.1,1c-1.4,0-2.1-1-2.1-1.9c0-1.6,1.5-2.5,4.1-2.5v-0.1
		c0-0.6-0.2-1.6-1.5-1.6c-0.6,0-1.3,0.2-1.8,0.5l-0.3-0.8c0.6-0.4,1.4-0.6,2.2-0.6c2.1,0,2.6,1.4,2.6,2.8v2.5c0,0.6,0,1.2,0.1,1.6
		H146.2z M146,729.1c-1.3,0-2.9,0.2-2.9,1.5c0,0.8,0.5,1.2,1.2,1.2c0.9,0,1.4-0.6,1.6-1.1c0-0.1,0.1-0.3,0.1-0.4V729.1z"/>
	<path class="st1" d="M154,732.3c-0.3,0.2-1,0.4-1.9,0.4c-2,0-3.4-1.4-3.4-3.5c0-2.1,1.4-3.6,3.6-3.6c0.7,0,1.4,0.2,1.7,0.4l-0.3,1
		c-0.3-0.2-0.8-0.3-1.4-0.3c-1.6,0-2.4,1.1-2.4,2.6c0,1.6,1,2.5,2.4,2.5c0.7,0,1.2-0.2,1.5-0.3L154,732.3z"/>
	<path class="st1" d="M156,729.4c0,1.7,1.1,2.4,2.3,2.4c0.9,0,1.4-0.2,1.9-0.4l0.2,0.9c-0.4,0.2-1.2,0.4-2.3,0.4
		c-2.1,0-3.3-1.4-3.3-3.4c0-2,1.2-3.7,3.2-3.7c2.2,0,2.8,1.9,2.8,3.2c0,0.3,0,0.4,0,0.6H156z M159.6,728.5c0-0.8-0.3-2-1.7-2
		c-1.2,0-1.8,1.1-1.9,2H159.6z"/>
	<path class="st1" d="M162.2,731.3c0.4,0.2,1,0.5,1.6,0.5c0.9,0,1.3-0.4,1.3-1c0-0.6-0.3-0.9-1.3-1.2c-1.2-0.4-1.8-1.1-1.8-1.9
		c0-1.1,0.9-2,2.3-2c0.7,0,1.3,0.2,1.7,0.4l-0.3,0.9c-0.3-0.2-0.8-0.4-1.4-0.4c-0.7,0-1.1,0.4-1.1,0.9c0,0.6,0.4,0.8,1.3,1.1
		c1.2,0.4,1.8,1,1.8,2c0,1.2-0.9,2-2.5,2c-0.7,0-1.4-0.2-1.9-0.5L162.2,731.3z"/>
	<path class="st1" d="M174.6,732.6l-0.1-0.9h0c-0.4,0.5-1.1,1-2.1,1c-1.4,0-2.1-1-2.1-1.9c0-1.6,1.5-2.5,4.1-2.5v-0.1
		c0-0.6-0.2-1.6-1.5-1.6c-0.6,0-1.3,0.2-1.8,0.5l-0.3-0.8c0.6-0.4,1.4-0.6,2.2-0.6c2.1,0,2.6,1.4,2.6,2.8v2.5c0,0.6,0,1.2,0.1,1.6
		H174.6z M174.4,729.1c-1.3,0-2.9,0.2-2.9,1.5c0,0.8,0.5,1.2,1.2,1.2c0.9,0,1.4-0.6,1.6-1.1c0-0.1,0.1-0.3,0.1-0.4V729.1z"/>
	<path class="st1" d="M177.6,727.6c0-0.7,0-1.3-0.1-1.8h1.1l0.1,1.1h0c0.3-0.6,1.1-1.3,2.2-1.3c0.9,0,2.4,0.6,2.4,2.9v4h-1.2v-3.9
		c0-1.1-0.4-2-1.6-2c-0.8,0-1.4,0.6-1.7,1.3c-0.1,0.2-0.1,0.4-0.1,0.6v4.1h-1.2V727.6z"/>
	<path class="st1" d="M191.2,722.6v8.2c0,0.6,0,1.3,0.1,1.8h-1.1l-0.1-1.2h0c-0.4,0.8-1.2,1.3-2.3,1.3c-1.6,0-2.9-1.4-2.9-3.4
		c0-2.3,1.4-3.6,3-3.6c1,0,1.7,0.5,2,1h0v-4H191.2z M190,728.5c0-0.2,0-0.4-0.1-0.5c-0.2-0.8-0.9-1.4-1.8-1.4c-1.3,0-2,1.1-2,2.6
		c0,1.4,0.7,2.5,2,2.5c0.8,0,1.6-0.5,1.8-1.5c0-0.2,0.1-0.3,0.1-0.5V728.5z"/>
	<path class="st1" d="M196.2,728c0-0.9,0-1.6-0.1-2.2h1.1l0.1,1.2h0c0.5-0.8,1.3-1.3,2.4-1.3c1.6,0,2.9,1.4,2.9,3.4
		c0,2.4-1.5,3.6-3.1,3.6c-0.9,0-1.7-0.4-2.1-1.1h0v3.7h-1.2V728z M197.5,729.8c0,0.2,0,0.4,0.1,0.5c0.2,0.9,1,1.4,1.8,1.4
		c1.3,0,2.1-1.1,2.1-2.6c0-1.4-0.7-2.5-2-2.5c-0.8,0-1.6,0.6-1.9,1.5c0,0.2-0.1,0.3-0.1,0.5V729.8z"/>
	<path class="st1" d="M204.9,729.4c0,1.7,1.1,2.4,2.3,2.4c0.9,0,1.4-0.2,1.9-0.4l0.2,0.9c-0.4,0.2-1.2,0.4-2.3,0.4
		c-2.1,0-3.3-1.4-3.3-3.4c0-2,1.2-3.7,3.2-3.7c2.2,0,2.8,1.9,2.8,3.2c0,0.3,0,0.4,0,0.6H204.9z M208.5,728.5c0-0.8-0.3-2-1.7-2
		c-1.2,0-1.8,1.1-1.9,2H208.5z"/>
	<path class="st1" d="M217.4,729.1c0,2.5-1.7,3.6-3.4,3.6c-1.8,0-3.2-1.3-3.2-3.5c0-2.3,1.5-3.6,3.4-3.6
		C216,725.6,217.4,727,217.4,729.1z M212,729.2c0,1.5,0.9,2.6,2.1,2.6c1.2,0,2.1-1.1,2.1-2.6c0-1.1-0.6-2.6-2-2.6
		S212,727.9,212,729.2z"/>
	<path class="st1" d="M218.9,728c0-0.9,0-1.6-0.1-2.2h1.1l0.1,1.2h0c0.5-0.8,1.3-1.3,2.4-1.3c1.6,0,2.9,1.4,2.9,3.4
		c0,2.4-1.5,3.6-3.1,3.6c-0.9,0-1.7-0.4-2.1-1.1h0v3.7h-1.2V728z M220.1,729.8c0,0.2,0,0.4,0.1,0.5c0.2,0.9,1,1.4,1.8,1.4
		c1.3,0,2.1-1.1,2.1-2.6c0-1.4-0.7-2.5-2-2.5c-0.8,0-1.6,0.6-1.9,1.5c0,0.2-0.1,0.3-0.1,0.5V729.8z"/>
	<path class="st1" d="M226.9,722.6h1.2v9.9h-1.2V722.6z"/>
	<path class="st1" d="M230.9,729.4c0,1.7,1.1,2.4,2.3,2.4c0.9,0,1.4-0.2,1.9-0.4l0.2,0.9c-0.4,0.2-1.2,0.4-2.3,0.4
		c-2.1,0-3.3-1.4-3.3-3.4c0-2,1.2-3.7,3.2-3.7c2.2,0,2.8,1.9,2.8,3.2c0,0.3,0,0.4,0,0.6H230.9z M234.5,728.5c0-0.8-0.3-2-1.7-2
		c-1.2,0-1.8,1.1-1.9,2H234.5z"/>
	<path class="st1" d="M240,731.3c0.4,0.2,1,0.5,1.6,0.5c0.9,0,1.3-0.4,1.3-1c0-0.6-0.3-0.9-1.3-1.2c-1.2-0.4-1.8-1.1-1.8-1.9
		c0-1.1,0.9-2,2.3-2c0.7,0,1.3,0.2,1.7,0.4l-0.3,0.9c-0.3-0.2-0.8-0.4-1.4-0.4c-0.7,0-1.1,0.4-1.1,0.9c0,0.6,0.4,0.8,1.3,1.1
		c1.2,0.4,1.8,1,1.8,2c0,1.2-0.9,2-2.5,2c-0.7,0-1.4-0.2-1.9-0.5L240,731.3z"/>
	<path class="st1" d="M245.7,722.6h1.2v4.2h0c0.2-0.4,0.5-0.7,0.9-0.9c0.4-0.2,0.8-0.4,1.3-0.4c0.9,0,2.4,0.6,2.4,2.9v4h-1.2v-3.9
		c0-1.1-0.4-2-1.6-2c-0.8,0-1.4,0.6-1.7,1.2c-0.1,0.2-0.1,0.4-0.1,0.6v4.1h-1.2V722.6z"/>
	<path class="st1" d="M254.2,729.4c0,1.7,1.1,2.4,2.3,2.4c0.9,0,1.4-0.2,1.9-0.4l0.2,0.9c-0.4,0.2-1.2,0.4-2.3,0.4
		c-2.1,0-3.3-1.4-3.3-3.4c0-2,1.2-3.7,3.2-3.7c2.2,0,2.8,1.9,2.8,3.2c0,0.3,0,0.4,0,0.6H254.2z M257.8,728.5c0-0.8-0.3-2-1.7-2
		c-1.2,0-1.8,1.1-1.9,2H257.8z"/>
	<path class="st1" d="M261.7,723c-0.3,1.2-0.9,2.7-1.3,3.3l-0.8,0.1c0.3-0.8,0.7-2.3,0.8-3.3L261.7,723z"/>
	<path class="st1" d="M261.9,731.3c0.4,0.2,1,0.5,1.6,0.5c0.9,0,1.3-0.4,1.3-1c0-0.6-0.3-0.9-1.3-1.2c-1.2-0.4-1.8-1.1-1.8-1.9
		c0-1.1,0.9-2,2.3-2c0.7,0,1.3,0.2,1.7,0.4l-0.3,0.9c-0.3-0.2-0.8-0.4-1.4-0.4c-0.7,0-1.1,0.4-1.1,0.9c0,0.6,0.4,0.8,1.3,1.1
		c1.2,0.4,1.8,1,1.8,2c0,1.2-0.9,2-2.5,2c-0.7,0-1.4-0.2-1.9-0.5L261.9,731.3z"/>
	<path class="st1" d="M270.5,732.6c0-0.5,0.1-1.1,0.1-1.8v-8.2h1.2v4.3h0c0.4-0.8,1.2-1.2,2.3-1.2c1.7,0,2.9,1.4,2.9,3.5
		c0,2.4-1.5,3.6-3,3.6c-1,0-1.8-0.4-2.3-1.3h0l-0.1,1.1H270.5z M271.8,729.8c0,0.2,0,0.3,0.1,0.4c0.2,0.9,1,1.4,1.8,1.4
		c1.3,0,2.1-1.1,2.1-2.6c0-1.4-0.7-2.5-2-2.5c-0.8,0-1.6,0.6-1.9,1.5c0,0.1-0.1,0.3-0.1,0.5V729.8z"/>
	<path class="st1" d="M279.2,729.4c0,1.7,1.1,2.4,2.3,2.4c0.9,0,1.4-0.2,1.9-0.4l0.2,0.9c-0.4,0.2-1.2,0.4-2.3,0.4
		c-2.1,0-3.3-1.4-3.3-3.4c0-2,1.2-3.7,3.2-3.7c2.2,0,2.8,1.9,2.8,3.2c0,0.3,0,0.4,0,0.6H279.2z M282.8,728.5c0-0.8-0.3-2-1.7-2
		c-1.2,0-1.8,1.1-1.9,2H282.8z"/>
	<path class="st1" d="M286.2,729.4c0,1.7,1.1,2.4,2.3,2.4c0.9,0,1.4-0.2,1.9-0.4l0.2,0.9c-0.4,0.2-1.2,0.4-2.3,0.4
		c-2.1,0-3.3-1.4-3.3-3.4c0-2,1.2-3.7,3.2-3.7c2.2,0,2.8,1.9,2.8,3.2c0,0.3,0,0.4,0,0.6H286.2z M289.8,728.5c0-0.8-0.3-2-1.7-2
		c-1.2,0-1.8,1.1-1.9,2H289.8z"/>
	<path class="st1" d="M292.5,727.6c0-0.7,0-1.3-0.1-1.8h1.1l0.1,1.1h0c0.3-0.6,1.1-1.3,2.2-1.3c0.9,0,2.4,0.6,2.4,2.9v4h-1.2v-3.9
		c0-1.1-0.4-2-1.6-2c-0.8,0-1.4,0.6-1.7,1.3c-0.1,0.2-0.1,0.4-0.1,0.6v4.1h-1.2V727.6z"/>
	<path class="st1" d="M299.5,734.3c0.3-0.8,0.7-2.3,0.8-3.3l1.4-0.1c-0.3,1.2-0.9,2.7-1.3,3.4L299.5,734.3z"/>
	<path class="st1" d="M309.9,732.6l-0.1-0.9h0c-0.4,0.5-1.1,1-2.1,1c-1.4,0-2.1-1-2.1-1.9c0-1.6,1.5-2.5,4.1-2.5v-0.1
		c0-0.6-0.2-1.6-1.5-1.6c-0.6,0-1.3,0.2-1.8,0.5l-0.3-0.8c0.6-0.4,1.4-0.6,2.2-0.6c2.1,0,2.6,1.4,2.6,2.8v2.5c0,0.6,0,1.2,0.1,1.6
		H309.9z M309.7,729.1c-1.3,0-2.9,0.2-2.9,1.5c0,0.8,0.5,1.2,1.2,1.2c0.9,0,1.4-0.6,1.6-1.1c0-0.1,0.1-0.3,0.1-0.4V729.1z"/>
	<path class="st1" d="M312.9,727.6c0-0.7,0-1.3-0.1-1.8h1.1l0.1,1.1h0c0.3-0.6,1.1-1.3,2.2-1.3c0.9,0,2.4,0.6,2.4,2.9v4h-1.2v-3.9
		c0-1.1-0.4-2-1.6-2c-0.8,0-1.4,0.6-1.7,1.3c-0.1,0.2-0.1,0.4-0.1,0.6v4.1h-1.2V727.6z"/>
	<path class="st1" d="M326.5,722.6v8.2c0,0.6,0,1.3,0.1,1.8h-1.1l-0.1-1.2h0c-0.4,0.8-1.2,1.3-2.3,1.3c-1.6,0-2.9-1.4-2.9-3.4
		c0-2.3,1.4-3.6,3-3.6c1,0,1.7,0.5,2,1h0v-4H326.5z M325.3,728.5c0-0.2,0-0.4-0.1-0.5c-0.2-0.8-0.9-1.4-1.8-1.4c-1.3,0-2,1.1-2,2.6
		c0,1.4,0.7,2.5,2,2.5c0.8,0,1.6-0.5,1.8-1.5c0-0.2,0.1-0.3,0.1-0.5V728.5z"/>
	<path class="st1" d="M332,725.8l0.9,3.4c0.2,0.8,0.4,1.5,0.5,2.2h0c0.2-0.7,0.4-1.4,0.6-2.1l1.1-3.5h1l1.1,3.4
		c0.3,0.8,0.4,1.5,0.6,2.2h0c0.1-0.7,0.3-1.4,0.5-2.2l1-3.4h1.2l-2.2,6.8h-1.1l-1-3.2c-0.2-0.8-0.4-1.4-0.6-2.2h0
		c-0.2,0.8-0.4,1.5-0.6,2.2l-1.1,3.2h-1.1l-2-6.8H332z"/>
	<path class="st1" d="M341.9,722.6h1.2v4.2h0c0.2-0.4,0.5-0.7,0.9-0.9c0.4-0.2,0.8-0.4,1.3-0.4c0.9,0,2.4,0.6,2.4,2.9v4h-1.2v-3.9
		c0-1.1-0.4-2-1.6-2c-0.8,0-1.4,0.6-1.7,1.2c-0.1,0.2-0.1,0.4-0.1,0.6v4.1h-1.2V722.6z"/>
	<path class="st1" d="M350.3,729.4c0,1.7,1.1,2.4,2.3,2.4c0.9,0,1.4-0.2,1.9-0.4l0.2,0.9c-0.4,0.2-1.2,0.4-2.3,0.4
		c-2.1,0-3.3-1.4-3.3-3.4c0-2,1.2-3.7,3.2-3.7c2.2,0,2.8,1.9,2.8,3.2c0,0.3,0,0.4,0,0.6H350.3z M353.9,728.5c0-0.8-0.3-2-1.7-2
		c-1.2,0-1.8,1.1-1.9,2H353.9z"/>
	<path class="st1" d="M356.6,727.9c0-0.8,0-1.5-0.1-2.1h1.1l0,1.3h0.1c0.3-0.9,1-1.5,1.9-1.5c0.1,0,0.2,0,0.3,0v1.2
		c-0.1,0-0.3,0-0.4,0c-0.9,0-1.5,0.7-1.7,1.6c0,0.2-0.1,0.4-0.1,0.6v3.6h-1.2V727.9z"/>
	<path class="st1" d="M361.8,729.4c0,1.7,1.1,2.4,2.3,2.4c0.9,0,1.4-0.2,1.9-0.4l0.2,0.9c-0.4,0.2-1.2,0.4-2.3,0.4
		c-2.1,0-3.3-1.4-3.3-3.4c0-2,1.2-3.7,3.2-3.7c2.2,0,2.8,1.9,2.8,3.2c0,0.3,0,0.4,0,0.6H361.8z M365.4,728.5c0-0.8-0.3-2-1.7-2
		c-1.2,0-1.8,1.1-1.9,2H365.4z"/>
	<path class="st1" d="M131,748.1c0.4,0.2,1,0.5,1.6,0.5c0.9,0,1.3-0.4,1.3-1c0-0.6-0.3-0.9-1.3-1.2c-1.2-0.4-1.8-1.1-1.8-1.9
		c0-1.1,0.9-2,2.3-2c0.7,0,1.3,0.2,1.7,0.4l-0.3,0.9c-0.3-0.2-0.8-0.4-1.4-0.4c-0.7,0-1.1,0.4-1.1,0.9c0,0.6,0.4,0.8,1.3,1.1
		c1.2,0.4,1.8,1,1.8,2c0,1.2-0.9,2-2.5,2c-0.7,0-1.4-0.2-1.9-0.5L131,748.1z"/>
	<path class="st1" d="M136.7,739.4h1.2v4.2h0c0.2-0.4,0.5-0.7,0.9-0.9c0.4-0.2,0.8-0.4,1.3-0.4c0.9,0,2.4,0.6,2.4,2.9v4h-1.2v-3.9
		c0-1.1-0.4-2-1.6-2c-0.8,0-1.4,0.6-1.7,1.2c-0.1,0.2-0.1,0.4-0.1,0.6v4.1h-1.2V739.4z"/>
	<path class="st1" d="M145.1,746.2c0,1.7,1.1,2.4,2.3,2.4c0.9,0,1.4-0.2,1.9-0.4l0.2,0.9c-0.4,0.2-1.2,0.4-2.3,0.4
		c-2.1,0-3.3-1.4-3.3-3.4c0-2,1.2-3.7,3.2-3.7c2.2,0,2.8,1.9,2.8,3.2c0,0.3,0,0.4,0,0.6H145.1z M148.7,745.3c0-0.8-0.3-2-1.7-2
		c-1.2,0-1.8,1.1-1.9,2H148.7z"/>
	<path class="st1" d="M152.7,739.8c-0.3,1.2-0.9,2.7-1.3,3.3l-0.8,0.1c0.3-0.8,0.7-2.3,0.8-3.3L152.7,739.8z"/>
	<path class="st1" d="M152.8,748.1c0.4,0.2,1,0.5,1.6,0.5c0.9,0,1.3-0.4,1.3-1c0-0.6-0.3-0.9-1.3-1.2c-1.2-0.4-1.8-1.1-1.8-1.9
		c0-1.1,0.9-2,2.3-2c0.7,0,1.3,0.2,1.7,0.4l-0.3,0.9c-0.3-0.2-0.8-0.4-1.4-0.4c-0.7,0-1.1,0.4-1.1,0.9c0,0.6,0.4,0.8,1.3,1.1
		c1.2,0.4,1.8,1,1.8,2c0,1.2-0.9,2-2.5,2c-0.7,0-1.4-0.2-1.9-0.5L152.8,748.1z"/>
	<path class="st1" d="M161.3,748.1c0.4,0.2,1,0.5,1.6,0.5c0.9,0,1.3-0.4,1.3-1c0-0.6-0.3-0.9-1.3-1.2c-1.2-0.4-1.8-1.1-1.8-1.9
		c0-1.1,0.9-2,2.3-2c0.7,0,1.3,0.2,1.7,0.4l-0.3,0.9c-0.3-0.2-0.8-0.4-1.4-0.4c-0.7,0-1.1,0.4-1.1,0.9c0,0.6,0.4,0.8,1.3,1.1
		c1.2,0.4,1.8,1,1.8,2c0,1.2-0.9,2-2.5,2c-0.7,0-1.4-0.2-1.9-0.5L161.3,748.1z"/>
	<path class="st1" d="M168.5,740.6v1.9h1.8v0.9h-1.8v3.7c0,0.8,0.2,1.3,0.9,1.3c0.3,0,0.6,0,0.7-0.1l0.1,0.9
		c-0.2,0.1-0.6,0.2-1.1,0.2c-0.6,0-1-0.2-1.3-0.5c-0.4-0.4-0.5-1-0.5-1.8v-3.7h-1.1v-0.9h1.1v-1.6L168.5,740.6z"/>
	<path class="st1" d="M173.1,740.7c0,0.4-0.3,0.8-0.8,0.8c-0.4,0-0.7-0.3-0.7-0.8c0-0.4,0.3-0.8,0.8-0.8
		C172.8,739.9,173.1,740.2,173.1,740.7z M171.7,749.4v-6.8h1.2v6.8H171.7z"/>
	<path class="st1" d="M175,739.4h1.2v9.9H175V739.4z"/>
	<path class="st1" d="M178.3,739.4h1.2v9.9h-1.2V739.4z"/>
	<path class="st1" d="M190.4,742.6c0,0.5-0.1,1-0.1,1.9v3.9c0,1.6-0.3,2.5-1,3.1c-0.7,0.6-1.6,0.8-2.5,0.8c-0.8,0-1.7-0.2-2.3-0.6
		l0.3-0.9c0.4,0.3,1.1,0.5,2,0.5c1.3,0,2.2-0.7,2.2-2.4v-0.8h0c-0.4,0.6-1.1,1.1-2.2,1.1c-1.7,0-2.9-1.4-2.9-3.3
		c0-2.3,1.5-3.6,3.1-3.6c1.2,0,1.8,0.6,2.1,1.2h0l0.1-1H190.4z M189.1,745.2c0-0.2,0-0.4-0.1-0.6c-0.2-0.7-0.8-1.3-1.7-1.3
		c-1.2,0-2,1-2,2.6c0,1.3,0.7,2.4,2,2.4c0.8,0,1.4-0.5,1.7-1.3c0.1-0.2,0.1-0.4,0.1-0.7V745.2z"/>
	<path class="st1" d="M198.5,745.9c0,2.5-1.7,3.6-3.4,3.6c-1.8,0-3.2-1.3-3.2-3.5c0-2.3,1.5-3.6,3.4-3.6
		C197.2,742.4,198.5,743.8,198.5,745.9z M193.1,746c0,1.5,0.9,2.6,2.1,2.6c1.2,0,2.1-1.1,2.1-2.6c0-1.1-0.6-2.6-2-2.6
		S193.1,744.7,193.1,746z"/>
	<path class="st1" d="M201.4,740.7c0,0.4-0.3,0.8-0.8,0.8c-0.4,0-0.7-0.3-0.7-0.8c0-0.4,0.3-0.8,0.8-0.8
		C201.1,739.9,201.4,740.2,201.4,740.7z M200.1,749.4v-6.8h1.2v6.8H200.1z"/>
	<path class="st1" d="M203.3,744.4c0-0.7,0-1.3-0.1-1.8h1.1l0.1,1.1h0c0.3-0.6,1.1-1.3,2.2-1.3c0.9,0,2.4,0.6,2.4,2.9v4h-1.2v-3.9
		c0-1.1-0.4-2-1.6-2c-0.8,0-1.4,0.6-1.7,1.3c-0.1,0.2-0.1,0.4-0.1,0.6v4.1h-1.2V744.4z"/>
	<path class="st1" d="M216.9,742.6c0,0.5-0.1,1-0.1,1.9v3.9c0,1.6-0.3,2.5-1,3.1c-0.7,0.6-1.6,0.8-2.5,0.8c-0.8,0-1.7-0.2-2.3-0.6
		l0.3-0.9c0.4,0.3,1.1,0.5,2,0.5c1.3,0,2.2-0.7,2.2-2.4v-0.8h0c-0.4,0.6-1.1,1.1-2.2,1.1c-1.7,0-2.9-1.4-2.9-3.3
		c0-2.3,1.5-3.6,3.1-3.6c1.2,0,1.8,0.6,2.1,1.2h0l0.1-1H216.9z M215.7,745.2c0-0.2,0-0.4-0.1-0.6c-0.2-0.7-0.8-1.3-1.7-1.3
		c-1.2,0-2,1-2,2.6c0,1.3,0.7,2.4,2,2.4c0.8,0,1.4-0.5,1.7-1.3c0.1-0.2,0.1-0.4,0.1-0.7V745.2z"/>
	<path class="st1" d="M218.4,748.6c0-0.5,0.3-0.9,0.8-0.9c0.5,0,0.8,0.4,0.8,0.9c0,0.5-0.3,0.9-0.8,0.9
		C218.8,749.5,218.4,749.1,218.4,748.6z"/>
</g>
</svg>
