<?xml version="1.0" encoding="utf-8"?>
<!-- Generator: Adobe Illustrator 21.1.0, SVG Export Plug-In . SVG Version: 6.00 Build 0)  -->
<svg version="1.1" id="Layer_1" xmlns="http://www.w3.org/2000/svg" xmlns:xlink="http://www.w3.org/1999/xlink" x="0px" y="0px"
	 viewBox="0 0 621.4 801.4" style="enable-background:new 0 0 621.4 801.4;" xml:space="preserve">
<style type="text/css">
	.st0{fill:#FFFFFF;}
	.st1{fill:#FFFFFF;stroke:#FFFFFF;stroke-width:0.25;stroke-miterlimit:10;}
	.st2{stroke:#000000;stroke-width:0.25;stroke-miterlimit:10;}
	.st3{fill:#1F8AC9;}
	.st4{fill:#000101;stroke:#000101;stroke-width:0.25;stroke-miterlimit:10;}
	.st5{opacity:0.75;fill:#FFFFFF;}
	.st6{fill:#9A453E;}
	.st7{fill:#5D2318;}
	.st8{fill:#5D2318;stroke:#5D2318;stroke-width:0.25;stroke-miterlimit:10;}
	.st9{fill:#9A453E;stroke:#9A453E;stroke-width:0.25;stroke-miterlimit:10;}
	.st10{fill:#933A28;}
	.st11{fill:#29326B;stroke:#29326B;stroke-width:0.25;stroke-miterlimit:10;}
	.st12{fill:#FFFFFF;fill-opacity:0.27;}
	.st13{fill:#5D2217;}
	.st14{fill:#99443E;}
	.st15{stroke:#000000;stroke-width:0.5;stroke-miterlimit:10;}
	.st16{fill:#473181;stroke:#473181;stroke-width:0.5;stroke-miterlimit:10;}
	.st17{fill:#090E31;}
	.st18{fill:#442033;}
	.st19{fill:#473181;}
	.st20{fill:#BDA677;}
	.st21{fill:#FFFFFF;stroke:#FFFFFF;stroke-miterlimit:10;}
	.st22{fill:#2C3471;}
	.st23{fill:#2C3471;stroke:#2C3471;stroke-width:0.25;stroke-miterlimit:10;}
	.st24{fill:#00B4EC;}
	.st25{opacity:0.15;}
	.st26{fill:#21283A;stroke:#21283A;stroke-width:0.25;stroke-miterlimit:10;}
	.st27{clip-path:url(#SVGID_2_);}
	.st28{opacity:0.12;}
	.st29{fill:#0C2537;}
	.st30{opacity:0.8;}
	.st31{fill:#737273;}
	.st32{opacity:0.85;fill:#FFFFFF;}
	.st33{fill:#B9DCE8;}
</style>
<g>
	<g>
		<path class="st0" d="M569,754.5c0.3,0.2,1.1,0.5,1.9,0.5c1.5,0,1.9-0.9,1.9-1.6c0-1.2-1.1-1.7-2.2-1.7h-0.6v-0.9h0.6
			c0.8,0,1.9-0.4,1.9-1.4c0-0.7-0.4-1.3-1.5-1.3c-0.7,0-1.3,0.3-1.7,0.6l-0.3-0.8c0.4-0.3,1.3-0.6,2.2-0.6c1.7,0,2.4,1,2.4,2
			c0,0.9-0.5,1.6-1.6,2v0c1,0.2,1.9,1,1.9,2.2c0,1.4-1.1,2.5-3.1,2.5c-0.9,0-1.8-0.3-2.2-0.6L569,754.5z"/>
		<path class="st0" d="M580.2,748.2c-0.2,0-0.5,0-0.9,0.1c-1.8,0.3-2.7,1.6-2.9,3h0c0.4-0.5,1.1-1,2-1c1.5,0,2.5,1.1,2.5,2.7
			c0,1.5-1.1,3-2.8,3c-1.8,0-3-1.4-3-3.6c0-1.7,0.6-3,1.4-3.8c0.7-0.7,1.6-1.1,2.7-1.2c0.3-0.1,0.6-0.1,0.8-0.1V748.2z M579.9,753.1
			c0-1.2-0.7-1.9-1.7-1.9c-0.7,0-1.3,0.4-1.6,1c-0.1,0.1-0.1,0.3-0.1,0.5c0,1.4,0.7,2.4,1.9,2.4
			C579.2,755.1,579.9,754.3,579.9,753.1z"/>
	</g>
</g>
</svg>
