<?xml version="1.0" encoding="utf-8"?>
<!-- Generator: Adobe Illustrator 21.1.0, SVG Export Plug-In . SVG Version: 6.00 Build 0)  -->
<svg version="1.1" id="Layer_1" xmlns="http://www.w3.org/2000/svg" xmlns:xlink="http://www.w3.org/1999/xlink" x="0px" y="0px"
	 viewBox="0 0 621.4 801.4" style="enable-background:new 0 0 621.4 801.4;" xml:space="preserve">
<style type="text/css">
	.st0{fill:#FFFFFF;}
	.st1{fill:#FFFFFF;stroke:#FFFFFF;stroke-width:0.25;stroke-miterlimit:10;}
	.st2{stroke:#000000;stroke-width:0.25;stroke-miterlimit:10;}
	.st3{fill:#1F8AC9;}
	.st4{fill:#000101;stroke:#000101;stroke-width:0.25;stroke-miterlimit:10;}
	.st5{opacity:0.75;fill:#FFFFFF;}
	.st6{fill:#9A453E;}
	.st7{fill:#5D2318;}
	.st8{fill:#5D2318;stroke:#5D2318;stroke-width:0.25;stroke-miterlimit:10;}
	.st9{fill:#9A453E;stroke:#9A453E;stroke-width:0.25;stroke-miterlimit:10;}
	.st10{fill:#933A28;}
	.st11{fill:#29326B;stroke:#29326B;stroke-width:0.25;stroke-miterlimit:10;}
	.st12{fill:#FFFFFF;fill-opacity:0.27;}
	.st13{fill:#5D2217;}
	.st14{fill:#99443E;}
	.st15{stroke:#000000;stroke-width:0.5;stroke-miterlimit:10;}
	.st16{fill:#473181;stroke:#473181;stroke-width:0.5;stroke-miterlimit:10;}
	.st17{fill:#090E31;}
	.st18{fill:#442033;}
	.st19{fill:#473181;}
	.st20{fill:#BDA677;}
	.st21{fill:#FFFFFF;stroke:#FFFFFF;stroke-miterlimit:10;}
	.st22{fill:#2C3471;}
	.st23{fill:#2C3471;stroke:#2C3471;stroke-width:0.25;stroke-miterlimit:10;}
	.st24{fill:#00B4EC;}
	.st25{opacity:0.15;}
	.st26{fill:#21283A;stroke:#21283A;stroke-width:0.25;stroke-miterlimit:10;}
	.st27{clip-path:url(#SVGID_2_);}
	.st28{opacity:0.12;}
	.st29{fill:#0C2537;}
	.st30{opacity:0.8;}
	.st31{fill:#737273;}
	.st32{opacity:0.85;fill:#FFFFFF;}
	.st33{fill:#B9DCE8;}
</style>
<g>
	<path class="st0" d="M570.6,754.5c0.3,0.2,1.1,0.5,1.9,0.5c1.5,0,1.9-0.9,1.9-1.6c0-1.2-1.1-1.7-2.2-1.7h-0.6v-0.9h0.6
		c0.8,0,1.9-0.4,1.9-1.4c0-0.7-0.4-1.3-1.5-1.3c-0.7,0-1.3,0.3-1.7,0.6l-0.3-0.8c0.4-0.3,1.3-0.6,2.2-0.6c1.7,0,2.4,1,2.4,2
		c0,0.9-0.5,1.6-1.6,2v0c1,0.2,1.9,1,1.9,2.2c0,1.4-1.1,2.5-3.1,2.5c-0.9,0-1.8-0.3-2.2-0.6L570.6,754.5z"/>
	<path class="st0" d="M576.9,753.7c0-1.1,0.6-1.8,1.7-2.3l0,0c-0.9-0.4-1.3-1.2-1.3-1.9c0-1.3,1.1-2.2,2.6-2.2c1.6,0,2.5,1,2.5,2.1
		c0,0.7-0.4,1.5-1.4,2v0c1.1,0.4,1.7,1.2,1.7,2.2c0,1.5-1.3,2.5-2.9,2.5C578,756,576.9,754.9,576.9,753.7z M581.4,753.6
		c0-1-0.7-1.5-1.9-1.8c-1,0.3-1.5,0.9-1.5,1.7c0,0.9,0.6,1.6,1.7,1.6C580.8,755.2,581.4,754.5,581.4,753.6z M578.3,749.4
		c0,0.8,0.6,1.3,1.6,1.6c0.7-0.2,1.3-0.8,1.3-1.5c0-0.7-0.4-1.4-1.4-1.4C578.8,748.1,578.3,748.7,578.3,749.4z"/>
</g>
<rect x="-0.5" y="777.6" class="st31" width="623" height="24"/>
<g>
	<path class="st1" d="M420.4,288.3c-0.1,0-0.1,0-0.1,0c0,0-0.1-0.1-0.1-0.1s0-0.1,0-0.1c0,0,0-0.1,0.1-0.1c0.6-0.5,1-0.8,1.4-1.2
		c0.4-0.3,0.7-0.6,0.9-0.9s0.4-0.5,0.5-0.7c0.1-0.2,0.1-0.5,0.1-0.7c0-0.2,0-0.3,0-0.5c0-0.2-0.1-0.3-0.1-0.4s-0.2-0.2-0.3-0.3
		s-0.3-0.1-0.5-0.1c-0.2,0-0.4,0-0.5,0.1c-0.1,0.1-0.2,0.1-0.3,0.2c-0.1,0.1-0.2,0.2-0.2,0.2c0,0.1-0.1,0.2-0.1,0.2c0,0,0,0.1,0,0.1
		s0,0.1,0,0.1c0,0,0.1,0.1,0.1,0.1c0,0,0.1,0,0.2,0c0.1,0,0.2,0,0.3,0.1c0,0.1,0.1,0.2,0.1,0.3s0,0.2-0.1,0.3
		c-0.1,0.1-0.2,0.1-0.4,0.1c-0.2,0-0.3,0-0.4-0.1c-0.1-0.1-0.2-0.1-0.2-0.2c-0.1-0.1-0.1-0.2-0.1-0.3s0-0.2,0-0.3
		c0-0.2,0-0.4,0.1-0.5s0.2-0.3,0.4-0.4s0.4-0.2,0.6-0.3c0.2-0.1,0.5-0.1,0.8-0.1s0.6,0,0.8,0.1c0.2,0.1,0.4,0.2,0.6,0.3
		c0.2,0.1,0.3,0.3,0.4,0.5c0.1,0.2,0.1,0.4,0.1,0.6c0,0.3-0.1,0.6-0.3,0.9c-0.2,0.3-0.4,0.6-0.7,0.8s-0.6,0.5-0.9,0.7
		c-0.3,0.2-0.6,0.4-0.9,0.6c0,0-0.1,0-0.1,0.1c0,0,0,0,0.1,0h1.7c0.1,0,0.2,0,0.3,0c0.1,0,0.1-0.1,0.2-0.1c0.1-0.1,0.1-0.1,0.2-0.2
		c0.1-0.1,0.1-0.2,0.2-0.4c0,0,0-0.1,0.1-0.1s0.1,0,0.1,0c0,0,0.1,0,0.1,0c0,0,0,0.1,0,0.1c-0.1,0.3-0.1,0.5-0.2,0.8
		c-0.1,0.3-0.1,0.5-0.1,0.8H420.4z"/>
	<path class="st1" d="M431.1,285.4c0,0.5-0.1,0.9-0.2,1.3c-0.1,0.4-0.4,0.7-0.6,0.9s-0.6,0.5-0.9,0.6s-0.8,0.2-1.2,0.2
		c-0.4,0-0.7-0.1-1.1-0.2c-0.3-0.1-0.6-0.3-0.9-0.6s-0.4-0.6-0.6-0.9c-0.1-0.4-0.2-0.8-0.2-1.3c0-0.4,0.1-0.8,0.2-1.1
		c0.1-0.3,0.3-0.6,0.6-0.9c0.3-0.2,0.6-0.4,0.9-0.6c0.3-0.1,0.7-0.2,1.1-0.2c0.4,0,0.8,0.1,1.1,0.2c0.3,0.1,0.6,0.3,0.9,0.5
		c0.3,0.2,0.5,0.5,0.6,0.9C431.1,284.6,431.1,284.9,431.1,285.4z M429.9,285.5c0-0.3,0-0.6-0.1-0.9c-0.1-0.3-0.1-0.6-0.3-0.8
		s-0.3-0.4-0.5-0.6c-0.2-0.1-0.4-0.2-0.7-0.2c-0.3,0-0.6,0.1-0.8,0.2c-0.2,0.1-0.4,0.3-0.5,0.6c-0.1,0.2-0.2,0.5-0.3,0.8
		c-0.1,0.3-0.1,0.6-0.1,0.9c0,0.3,0,0.6,0.1,0.8c0.1,0.3,0.1,0.5,0.3,0.8s0.3,0.4,0.5,0.6c0.2,0.2,0.5,0.2,0.8,0.2
		c0.3,0,0.6-0.1,0.8-0.2s0.4-0.3,0.5-0.6c0.1-0.2,0.2-0.5,0.3-0.8C429.9,286.1,429.9,285.8,429.9,285.5z"/>
	<path class="st1" d="M434.4,286.7c0,0.3,0,0.5,0,0.6c0,0.2,0.1,0.3,0.1,0.4c0.1,0.1,0.2,0.1,0.3,0.2c0.1,0,0.3,0.1,0.5,0.1
		c0,0,0.1,0,0.1,0.1c0,0,0,0.1,0,0.1c0,0,0,0.1,0,0.1s0,0-0.1,0c-0.1,0-0.2,0-0.2,0s-0.2,0-0.3,0c-0.1,0-0.3,0-0.4,0
		c-0.1,0-0.3,0-0.5,0c-0.4,0-0.7,0-1,0c-0.1,0-0.3,0-0.4,0c-0.1,0-0.2,0-0.3,0c0,0-0.1,0-0.1,0c0,0,0-0.1,0-0.1c0,0,0-0.1,0-0.1
		c0,0,0.1-0.1,0.1-0.1c0.2,0,0.4-0.1,0.6-0.1c0.1,0,0.2-0.1,0.3-0.2s0.1-0.2,0.1-0.4s0-0.4,0-0.6v-2.2c0-0.4,0-0.7-0.1-0.9
		c0-0.2-0.2-0.2-0.4-0.2c-0.1,0-0.2,0-0.3,0c-0.1,0-0.2,0-0.4,0.1c-0.1,0-0.1,0-0.1-0.1s0-0.2,0.1-0.2c0.2-0.1,0.4-0.1,0.6-0.2
		s0.3-0.1,0.5-0.1c0.1,0,0.3-0.1,0.4-0.1c0.2,0,0.4-0.1,0.6-0.1c0.2,0,0.2,0,0.2,0.1V286.7z"/>
	<path class="st1" d="M441.6,285.7c0,0.4-0.1,0.8-0.2,1.1s-0.3,0.6-0.5,0.8c-0.2,0.2-0.5,0.4-0.8,0.6c-0.3,0.1-0.7,0.2-1.1,0.2
		c-0.5,0-0.9-0.1-1.2-0.3c-0.3-0.2-0.6-0.4-0.8-0.7c-0.2-0.3-0.3-0.6-0.4-1s-0.1-0.8-0.1-1.1c0-0.3,0-0.6,0.1-1c0-0.3,0.1-0.7,0.2-1
		s0.2-0.7,0.4-1s0.4-0.6,0.6-0.9s0.5-0.5,0.9-0.6c0.3-0.2,0.7-0.2,1.2-0.2c0.5,0,0.9,0.1,1.2,0.3c0.3,0.2,0.4,0.4,0.4,0.8
		c0,0.1-0.1,0.3-0.2,0.4c-0.1,0.1-0.3,0.2-0.4,0.2c-0.1,0-0.3,0-0.4-0.1c-0.1-0.1-0.2-0.2-0.2-0.3c0,0,0-0.1,0-0.2
		c0-0.1,0-0.1,0-0.2c0-0.1,0-0.2-0.1-0.3c-0.1-0.1-0.3-0.1-0.6-0.1c-0.4,0-0.7,0.1-1,0.2c-0.3,0.2-0.5,0.4-0.6,0.7
		c-0.2,0.3-0.3,0.6-0.3,1c-0.1,0.4-0.1,0.9-0.1,1.4c0.2-0.3,0.5-0.5,0.8-0.7c0.3-0.1,0.6-0.2,0.9-0.2c0.4,0,0.8,0.1,1.1,0.2
		c0.3,0.1,0.5,0.3,0.7,0.5s0.3,0.5,0.4,0.8C441.6,285.1,441.6,285.4,441.6,285.7z M440.4,285.7c0-0.2,0-0.5,0-0.7
		c0-0.2-0.1-0.4-0.2-0.6c-0.1-0.2-0.2-0.3-0.4-0.4c-0.2-0.1-0.4-0.2-0.7-0.2c-0.2,0-0.4,0-0.6,0.2c-0.2,0.1-0.3,0.2-0.5,0.4
		c-0.1,0.2-0.2,0.4-0.3,0.6c-0.1,0.3-0.1,0.5-0.1,0.8c0,0.2,0,0.5,0.1,0.7c0,0.2,0.1,0.5,0.2,0.7c0.1,0.2,0.2,0.4,0.4,0.5
		s0.4,0.2,0.7,0.2c0.3,0,0.5-0.1,0.7-0.2c0.2-0.1,0.3-0.3,0.4-0.5c0.1-0.2,0.2-0.5,0.2-0.7S440.4,285.9,440.4,285.7z"/>
	<path class="st1" d="M451.5,280.2c0.1,0,0.1,0,0.2,0s0.1,0.1,0.1,0.2c0,0.2,0,0.5,0,0.8s0,0.6,0,0.8c0,0,0,0.1-0.1,0.1
		c0,0-0.1,0-0.1,0c0,0-0.1,0-0.1,0c0,0-0.1,0-0.1-0.1c-0.1-0.3-0.1-0.6-0.2-0.7c-0.1-0.2-0.1-0.3-0.2-0.4c-0.1-0.1-0.2-0.1-0.4-0.2
		c-0.2,0-0.4,0-0.7,0h-0.7c-0.2,0-0.4,0-0.5,0c-0.1,0-0.2,0-0.3,0.1c-0.1,0.1-0.1,0.1-0.1,0.2s0,0.3,0,0.5v2.1c0,0.1,0,0.2,0.1,0.2
		c0,0,0.1,0,0.1,0c0.4,0,0.7,0,0.9,0c0.2,0,0.4-0.1,0.5-0.2s0.2-0.2,0.2-0.3c0-0.1,0.1-0.3,0.1-0.5c0,0,0-0.1,0.1-0.1
		c0,0,0.1,0,0.1,0s0.1,0,0.1,0s0.1,0.1,0.1,0.1c0,0.1,0,0.2,0,0.3c0,0.1,0,0.2,0,0.3c0,0.1,0,0.2,0,0.3c0,0.1,0,0.2,0,0.4
		c0,0.2,0,0.5,0,0.7c0,0.2,0,0.4,0,0.7c0,0,0,0.1-0.1,0.1c0,0-0.1,0-0.1,0c0,0-0.1,0-0.1,0c0,0-0.1-0.1-0.1-0.1
		c0-0.2-0.1-0.4-0.1-0.6c0-0.1-0.1-0.3-0.2-0.3s-0.3-0.1-0.5-0.2c-0.2,0-0.5,0-0.9,0c0,0-0.1,0-0.1,0c0,0-0.1,0.1-0.1,0.2v2
		c0,0.3,0,0.5,0.1,0.7c0,0.2,0.1,0.3,0.2,0.4s0.2,0.2,0.4,0.2c0.2,0,0.4,0.1,0.7,0.1c0.1,0,0.1,0,0.1,0.1c0,0,0,0.1,0,0.2
		c0,0,0,0.1,0,0.1c0,0-0.1,0.1-0.1,0.1c-0.4,0-0.8,0-1.1,0c-0.3,0-0.6,0-0.9,0c-0.3,0-0.6,0-0.9,0c-0.3,0-0.6,0-0.9,0
		c0,0-0.1,0-0.1-0.1c0,0,0-0.1,0-0.1c0,0,0-0.1,0-0.1c0,0,0.1-0.1,0.1-0.1c0.2,0,0.4-0.1,0.6-0.1c0.1,0,0.3-0.1,0.3-0.2
		s0.1-0.2,0.2-0.3c0-0.1,0-0.3,0-0.6v-4.5c0-0.2,0-0.3,0-0.5s0-0.3-0.1-0.5c0-0.1-0.1-0.3-0.2-0.4s-0.2-0.2-0.3-0.2
		c-0.1,0-0.2,0-0.3-0.1c-0.1,0-0.2,0-0.3,0c0,0-0.1,0-0.1-0.1s0-0.1,0-0.1s0-0.1,0-0.1s0.1-0.1,0.1-0.1c0.3,0,0.5,0,0.7,0
		s0.5,0,0.8,0H451.5z"/>
	<path class="st1" d="M453.3,285.2C453.2,285.2,453.2,285.2,453.3,285.2c-0.1,0.1-0.1,0.1-0.1,0.1c0,0.4,0,0.8,0.1,1.1
		c0.1,0.3,0.2,0.5,0.4,0.7c0.2,0.2,0.4,0.3,0.6,0.4c0.2,0.1,0.5,0.1,0.7,0.1c0.3,0,0.5,0,0.8-0.1s0.5-0.1,0.7-0.3c0,0,0.1,0,0.1,0
		c0,0,0.1,0,0.1,0.1c0,0,0,0.1,0.1,0.1s0,0.1,0,0.1c-0.3,0.3-0.5,0.6-0.9,0.7c-0.3,0.1-0.7,0.2-1.2,0.2c-0.5,0-0.9-0.1-1.2-0.2
		c-0.3-0.1-0.6-0.3-0.9-0.6s-0.4-0.6-0.5-0.9c-0.1-0.3-0.2-0.7-0.2-1.1c0-0.4,0.1-0.8,0.2-1.1c0.1-0.4,0.3-0.7,0.6-0.9
		s0.5-0.5,0.9-0.6s0.7-0.2,1.1-0.2c0.3,0,0.6,0.1,0.9,0.2c0.3,0.1,0.5,0.3,0.7,0.5c0.2,0.2,0.3,0.4,0.4,0.7c0.1,0.3,0.2,0.6,0.2,0.9
		c0,0.2-0.1,0.3-0.2,0.3H453.3z M455.4,284.8c0.1,0,0.2,0,0.2-0.1c0-0.1,0-0.2,0-0.3c0-0.2,0-0.3-0.1-0.5c-0.1-0.2-0.1-0.3-0.2-0.4
		c-0.1-0.1-0.2-0.2-0.3-0.3c-0.1-0.1-0.3-0.1-0.5-0.1c-0.2,0-0.4,0-0.6,0.1s-0.3,0.2-0.4,0.3c-0.1,0.1-0.2,0.3-0.2,0.4
		c-0.1,0.2-0.1,0.3-0.1,0.5c0,0.1,0,0.2,0,0.2c0,0.1,0,0.1,0.1,0.1H455.4z"/>
	<path class="st1" d="M461.5,282.8c0,0.1,0,0.2-0.1,0.3c0,0.1,0,0.3,0,0.4c0,0.2,0,0.3,0,0.5s0,0.3,0,0.4c0,0,0,0,0,0.1
		c0,0-0.1,0-0.1,0c0,0-0.1,0-0.1,0s-0.1,0-0.1-0.1c-0.1-0.4-0.2-0.8-0.4-1c-0.2-0.2-0.5-0.3-1-0.3c-0.3,0-0.5,0.1-0.7,0.2
		c-0.2,0.1-0.3,0.3-0.3,0.6c0,0.2,0.1,0.4,0.2,0.5c0.2,0.1,0.4,0.2,0.6,0.3c0.1,0,0.2,0.1,0.4,0.2c0.2,0.1,0.3,0.1,0.4,0.1
		c0.2,0.1,0.4,0.2,0.6,0.3c0.2,0.1,0.3,0.2,0.5,0.4c0.1,0.1,0.2,0.3,0.3,0.5c0.1,0.2,0.1,0.4,0.1,0.6c0,0.3-0.1,0.6-0.2,0.8
		c-0.1,0.2-0.3,0.4-0.5,0.5c-0.2,0.1-0.4,0.2-0.7,0.3c-0.3,0.1-0.5,0.1-0.8,0.1c-0.2,0-0.4,0-0.7-0.1c-0.3,0-0.5-0.1-0.7-0.2
		c0,0-0.1,0-0.1,0c-0.1,0-0.1,0.1-0.1,0.2c0,0,0,0-0.1,0c0,0-0.1,0-0.1,0c0,0-0.1,0-0.1,0c0,0,0,0,0-0.1c0-0.1,0-0.2,0-0.3
		c0-0.1,0-0.2,0-0.3s0-0.2,0-0.3c0-0.1,0-0.2,0-0.3c0-0.1,0-0.2,0-0.3c0-0.1,0-0.2,0-0.2c0,0,0-0.1,0-0.1c0,0,0.1,0,0.1,0
		s0.1,0,0.1,0s0.1,0,0.1,0.1c0.1,0.2,0.1,0.4,0.2,0.6c0.1,0.2,0.2,0.3,0.3,0.4c0.1,0.1,0.3,0.2,0.5,0.3c0.2,0.1,0.4,0.1,0.7,0.1
		c0.3,0,0.5-0.1,0.7-0.2s0.3-0.4,0.3-0.7c0-0.3-0.1-0.5-0.3-0.6c-0.2-0.1-0.4-0.3-0.6-0.4c-0.1,0-0.2-0.1-0.3-0.1
		c-0.1,0-0.2-0.1-0.4-0.1c-0.2-0.1-0.3-0.1-0.5-0.2s-0.3-0.2-0.5-0.3s-0.2-0.3-0.3-0.4c-0.1-0.2-0.1-0.4-0.1-0.6
		c0-0.3,0.1-0.5,0.2-0.7c0.1-0.2,0.3-0.4,0.5-0.5c0.2-0.1,0.4-0.2,0.7-0.3c0.2-0.1,0.5-0.1,0.7-0.1c0.2,0,0.4,0,0.6,0.1
		c0.2,0.1,0.4,0.1,0.6,0.3c0,0,0.1,0,0.1,0c0.1,0,0.1-0.1,0.1-0.2c0,0,0-0.1,0.1-0.1c0,0,0.1,0,0.1,0
		C461.4,282.7,461.4,282.7,461.5,282.8C461.5,282.8,461.5,282.8,461.5,282.8z"/>
	<path class="st1" d="M464.1,286.4c0,0.4,0,0.8,0.2,1c0.1,0.2,0.3,0.3,0.5,0.3c0.2,0,0.4,0,0.5-0.1c0.2-0.1,0.3-0.1,0.4-0.2
		c0,0,0.1,0,0.1,0c0,0,0.1,0,0.1,0.1c0,0,0,0.1,0.1,0.1c0,0,0,0.1,0,0.1c-0.2,0.2-0.4,0.4-0.6,0.5s-0.5,0.2-0.9,0.2
		c-0.5,0-0.9-0.1-1.2-0.4c-0.2-0.2-0.3-0.6-0.3-1.1v-3.1c0-0.1,0-0.2,0-0.2c0-0.1,0-0.1-0.1-0.1s-0.1,0-0.2,0s-0.2,0-0.4,0
		c0,0,0,0-0.1-0.1c0,0,0-0.1,0-0.2c0-0.1,0-0.1,0-0.2s0-0.1,0.1-0.1c0.2,0,0.4,0,0.5-0.1s0.3-0.1,0.4-0.2s0.2-0.2,0.2-0.4
		c0.1-0.2,0.1-0.4,0.1-0.6c0,0,0-0.1,0.1-0.1c0.1,0,0.1,0,0.2,0s0.1,0,0.2,0c0.1,0,0.1,0,0.1,0.1v1c0,0.1,0,0.2,0,0.2
		c0,0,0.1,0,0.2,0h1.2c0.1,0,0.1,0,0.1,0.1c0,0.1,0,0.1,0,0.2c0,0,0,0.1,0,0.2s-0.1,0.1-0.1,0.1h-1.3c-0.1,0-0.1,0-0.1,0
		s0,0.1,0,0.3V286.4z"/>
	<path class="st1" d="M468.3,286.8c0,0.2,0,0.4,0,0.5c0,0.1,0,0.2,0.1,0.3s0.1,0.2,0.2,0.2s0.2,0.1,0.4,0.1c0,0,0.1,0,0.1,0.1
		c0,0,0,0.1,0,0.1c0,0,0,0.1,0,0.1s-0.1,0.1-0.1,0.1c-0.1,0-0.3,0-0.6,0c-0.2,0-0.5,0-0.7,0c-0.3,0-0.5,0-0.8,0c-0.2,0-0.5,0-0.7,0
		c0,0-0.1,0-0.1-0.1s0-0.1,0-0.1c0,0,0-0.1,0-0.1c0,0,0.1-0.1,0.1-0.1c0.2,0,0.4-0.1,0.5-0.1s0.2-0.1,0.3-0.2s0.1-0.2,0.1-0.3
		c0-0.1,0-0.3,0-0.5v-1.9c0-0.3,0-0.6,0-0.8c0-0.2-0.1-0.4-0.1-0.5c-0.1-0.1-0.1-0.2-0.3-0.2c-0.1,0-0.3-0.1-0.5-0.1
		c0,0-0.1,0-0.1-0.1s0-0.1,0-0.1c0,0,0-0.1,0-0.1c0,0,0.1-0.1,0.1-0.1c0.1,0,0.2,0,0.3,0c0.1,0,0.2,0,0.4,0c0.1,0,0.3,0,0.4,0
		c0.1,0,0.2,0,0.4-0.1c0.1,0,0.2,0,0.2-0.1c0.1,0,0.1,0,0.1,0c0.1,0,0.2,0,0.2,0.1c0,0.1,0,0.1,0,0.2V286.8z M467.7,281.5
		c-0.2,0-0.4-0.1-0.5-0.2s-0.2-0.3-0.2-0.5s0.1-0.3,0.2-0.5s0.3-0.2,0.5-0.2c0.2,0,0.3,0.1,0.5,0.2s0.2,0.3,0.2,0.5
		c0,0.2-0.1,0.3-0.2,0.4C468,281.4,467.8,281.5,467.7,281.5z"/>
	<path class="st1" d="M474.5,284.4c-0.5,1.3-1.1,2.7-1.7,4c0,0,0,0-0.1,0s-0.1,0-0.1,0s-0.1,0-0.1,0c0,0-0.1,0-0.1,0
		c-0.3-0.7-0.7-1.4-1-2c-0.3-0.7-0.6-1.4-0.9-2.1c-0.1-0.2-0.1-0.4-0.2-0.5c-0.1-0.1-0.1-0.2-0.2-0.3c-0.1-0.1-0.1-0.1-0.2-0.2
		c-0.1,0-0.2-0.1-0.4-0.1c0,0-0.1,0-0.1-0.1c0,0,0-0.1,0-0.1c0,0,0-0.1,0-0.1c0,0,0-0.1,0.1-0.1c0.2,0,0.5,0,0.7,0
		c0.2,0,0.5,0,0.7,0c0.2,0,0.5,0,0.7,0c0.2,0,0.5,0,0.7,0c0,0,0.1,0,0.1,0.1c0,0,0,0.1,0,0.1c0,0,0,0.1,0,0.1c0,0,0,0.1-0.1,0.1
		c-0.2,0-0.4,0.1-0.5,0.1c-0.1,0.1-0.2,0.2-0.2,0.3c0,0.1,0,0.3,0.1,0.4c0.2,0.5,0.4,1,0.6,1.4c0.2,0.5,0.4,0.9,0.6,1.3
		c0,0,0,0.1,0.1,0.1c0,0,0.1,0,0.1-0.1c0.1-0.2,0.2-0.4,0.3-0.6c0.1-0.3,0.2-0.5,0.3-0.8s0.2-0.5,0.3-0.8c0.1-0.3,0.2-0.5,0.2-0.7
		c0-0.1,0-0.2,0-0.3c0-0.2-0.1-0.3-0.2-0.4s-0.2-0.1-0.4-0.1c0,0-0.1,0-0.1-0.1c0,0,0-0.1,0-0.1s0-0.1,0-0.1c0,0,0.1-0.1,0.1-0.1
		c0.2,0,0.3,0,0.5,0c0.2,0,0.3,0,0.5,0c0.2,0,0.4,0,0.6,0c0.2,0,0.4,0,0.5,0c0,0,0.1,0,0.1,0.1c0,0,0,0.1,0,0.1c0,0,0,0.1,0,0.1
		c0,0,0,0.1-0.1,0.1c-0.2,0-0.3,0-0.4,0.1c-0.1,0.1-0.2,0.1-0.3,0.2c-0.1,0.1-0.2,0.2-0.2,0.4S474.6,284.2,474.5,284.4z"/>
	<path class="st1" d="M480.3,287c0,0.3,0,0.5,0.1,0.6c0.1,0.1,0.2,0.2,0.3,0.2c0.1,0,0.2,0,0.2,0c0.1,0,0.1-0.1,0.2-0.1
		c0,0,0,0,0.1,0c0,0,0.1,0,0.1,0.1c0,0,0,0.1,0,0.1c0,0,0,0.1,0,0.1c-0.3,0.4-0.7,0.6-1.1,0.6c-0.2,0-0.4-0.1-0.6-0.2
		c-0.2-0.1-0.3-0.3-0.4-0.4c0,0,0,0-0.1,0c-0.2,0.2-0.4,0.3-0.7,0.5c-0.3,0.1-0.6,0.2-1,0.2c-0.5,0-0.8-0.1-1.1-0.4
		c-0.2-0.2-0.4-0.6-0.4-1c0-0.6,0.3-1,0.8-1.3c0.5-0.3,1.3-0.5,2.3-0.5c0,0,0,0,0-0.1s0-0.1,0-0.3v-0.3c0-0.2,0-0.4,0-0.6
		c0-0.2-0.1-0.3-0.2-0.5s-0.2-0.2-0.3-0.3c-0.1-0.1-0.3-0.1-0.5-0.1c-0.3,0-0.5,0.1-0.7,0.2c-0.2,0.1-0.3,0.3-0.3,0.5
		c0,0.1,0,0.2,0.1,0.3c0.1,0.1,0.1,0.2,0.1,0.3c0,0.1-0.1,0.2-0.2,0.3c-0.1,0.1-0.2,0.2-0.4,0.2c-0.2,0-0.4-0.1-0.5-0.2
		c-0.1-0.1-0.1-0.3-0.1-0.4c0-0.2,0.1-0.4,0.2-0.6c0.1-0.2,0.3-0.3,0.5-0.5c0.2-0.1,0.4-0.2,0.7-0.3c0.3-0.1,0.5-0.1,0.8-0.1
		c0.6,0,1.1,0.1,1.5,0.4c0.4,0.3,0.6,0.8,0.6,1.5V287z M479.2,285.8c0-0.1,0-0.1,0-0.2c0,0,0,0-0.1,0c-0.7,0.1-1.1,0.2-1.5,0.4
		c-0.3,0.2-0.5,0.5-0.5,0.8c0,0.2,0.1,0.4,0.2,0.6s0.3,0.2,0.6,0.2c0.2,0,0.4,0,0.6-0.1c0.2-0.1,0.4-0.2,0.5-0.3
		c0.1-0.1,0.1-0.1,0.1-0.2V285.8z"/>
	<path class="st1" d="M482.9,282.2c0-0.3,0-0.6,0-0.8c0-0.2-0.1-0.4-0.1-0.5c-0.1-0.1-0.2-0.2-0.3-0.2s-0.3-0.1-0.5-0.1
		c0,0-0.1,0-0.1-0.1c0,0,0-0.1,0-0.1c0,0,0-0.1,0-0.1c0,0,0.1-0.1,0.1-0.1c0.2,0,0.5,0,0.9-0.1c0.3,0,0.7-0.1,1-0.2
		c0.1,0,0.2,0,0.2,0c0,0,0.1,0.1,0.1,0.1v6.7c0,0.2,0,0.4,0,0.5c0,0.1,0,0.2,0.1,0.3s0.1,0.2,0.3,0.2s0.3,0.1,0.5,0.1
		c0,0,0.1,0,0.1,0.1c0,0,0,0.1,0,0.1c0,0,0,0.1,0,0.1c0,0-0.1,0.1-0.1,0.1c-0.2,0-0.4,0-0.6,0c-0.2,0-0.5,0-0.7,0
		c-0.3,0-0.5,0-0.8,0c-0.2,0-0.5,0-0.8,0c0,0-0.1,0-0.1-0.1c0,0,0-0.1,0-0.1c0,0,0-0.1,0-0.1c0,0,0.1-0.1,0.1-0.1
		c0.2,0,0.4-0.1,0.5-0.1c0.1,0,0.2-0.1,0.3-0.2s0.1-0.2,0.1-0.3c0-0.1,0-0.3,0-0.5V282.2z"/>
	<path class="st1" d="M494.7,280.2c0.1,0,0.1,0,0.2,0s0.1,0.1,0.1,0.2c0,0.2,0,0.5,0,0.8s0,0.6,0,0.8c0,0,0,0.1-0.1,0.1
		c0,0-0.1,0-0.1,0c0,0-0.1,0-0.1,0c0,0-0.1,0-0.1-0.1c-0.1-0.3-0.1-0.6-0.2-0.7c-0.1-0.2-0.1-0.3-0.2-0.4c-0.1-0.1-0.2-0.1-0.4-0.2
		c-0.2,0-0.4,0-0.7,0h-0.7c-0.2,0-0.4,0-0.5,0c-0.1,0-0.2,0-0.3,0.1c-0.1,0.1-0.1,0.1-0.1,0.2s0,0.3,0,0.5v2.1c0,0.1,0,0.2,0.1,0.2
		c0,0,0.1,0,0.1,0c0.4,0,0.7,0,0.9,0c0.2,0,0.4-0.1,0.5-0.2c0.1-0.1,0.2-0.2,0.2-0.3c0-0.1,0.1-0.3,0.1-0.5c0,0,0-0.1,0.1-0.1
		s0.1,0,0.1,0s0.1,0,0.1,0s0.1,0.1,0.1,0.1c0,0.1,0,0.2,0,0.3s0,0.2,0,0.3s0,0.2,0,0.3c0,0.1,0,0.2,0,0.4c0,0.2,0,0.5,0,0.7
		c0,0.2,0,0.4,0,0.7c0,0,0,0.1-0.1,0.1c0,0-0.1,0-0.1,0c0,0-0.1,0-0.1,0c0,0-0.1-0.1-0.1-0.1c0-0.2-0.1-0.4-0.1-0.6
		c0-0.1-0.1-0.3-0.2-0.3c-0.1-0.1-0.3-0.1-0.5-0.2c-0.2,0-0.5,0-0.9,0c0,0-0.1,0-0.1,0c0,0-0.1,0.1-0.1,0.2v2c0,0.3,0,0.5,0.1,0.7
		c0,0.2,0.1,0.3,0.2,0.4s0.2,0.2,0.4,0.2s0.4,0.1,0.7,0.1c0.1,0,0.1,0,0.1,0.1c0,0,0,0.1,0,0.2c0,0,0,0.1,0,0.1c0,0-0.1,0.1-0.1,0.1
		c-0.4,0-0.8,0-1.1,0c-0.3,0-0.6,0-0.9,0c-0.3,0-0.6,0-0.9,0c-0.3,0-0.6,0-0.9,0c0,0-0.1,0-0.1-0.1c0,0,0-0.1,0-0.1c0,0,0-0.1,0-0.1
		c0,0,0.1-0.1,0.1-0.1c0.2,0,0.4-0.1,0.6-0.1c0.1,0,0.3-0.1,0.3-0.2c0.1-0.1,0.1-0.2,0.2-0.3c0-0.1,0-0.3,0-0.6v-4.5
		c0-0.2,0-0.3,0-0.5c0-0.2,0-0.3-0.1-0.5c0-0.1-0.1-0.3-0.2-0.4s-0.2-0.2-0.3-0.2c-0.1,0-0.2,0-0.3-0.1c-0.1,0-0.2,0-0.3,0
		c0,0-0.1,0-0.1-0.1s0-0.1,0-0.1s0-0.1,0-0.1s0.1-0.1,0.1-0.1c0.3,0,0.5,0,0.7,0s0.5,0,0.8,0H494.7z"/>
	<path class="st1" d="M497,286.8c0,0.2,0,0.4,0,0.5c0,0.1,0,0.2,0.1,0.3s0.1,0.2,0.2,0.2s0.2,0.1,0.4,0.1c0,0,0.1,0,0.1,0.1
		c0,0,0,0.1,0,0.1c0,0,0,0.1,0,0.1s-0.1,0.1-0.1,0.1c-0.1,0-0.3,0-0.6,0c-0.2,0-0.5,0-0.7,0c-0.3,0-0.5,0-0.8,0c-0.2,0-0.5,0-0.7,0
		c0,0-0.1,0-0.1-0.1s0-0.1,0-0.1c0,0,0-0.1,0-0.1c0,0,0.1-0.1,0.1-0.1c0.2,0,0.4-0.1,0.5-0.1s0.2-0.1,0.3-0.2s0.1-0.2,0.1-0.3
		c0-0.1,0-0.3,0-0.5v-1.9c0-0.3,0-0.6,0-0.8c0-0.2-0.1-0.4-0.1-0.5c-0.1-0.1-0.1-0.2-0.3-0.2c-0.1,0-0.3-0.1-0.5-0.1
		c0,0-0.1,0-0.1-0.1s0-0.1,0-0.1c0,0,0-0.1,0-0.1c0,0,0.1-0.1,0.1-0.1c0.1,0,0.2,0,0.3,0c0.1,0,0.2,0,0.4,0c0.1,0,0.3,0,0.4,0
		c0.1,0,0.2,0,0.4-0.1c0.1,0,0.2,0,0.2-0.1c0.1,0,0.1,0,0.1,0c0.1,0,0.2,0,0.2,0.1c0,0.1,0,0.1,0,0.2V286.8z M496.3,281.5
		c-0.2,0-0.4-0.1-0.5-0.2s-0.2-0.3-0.2-0.5s0.1-0.3,0.2-0.5s0.3-0.2,0.5-0.2c0.2,0,0.3,0.1,0.5,0.2s0.2,0.3,0.2,0.5
		c0,0.2-0.1,0.3-0.2,0.4C496.7,281.4,496.5,281.5,496.3,281.5z"/>
	<path class="st1" d="M500.4,286.8c0,0.2,0,0.4,0,0.5c0,0.1,0,0.2,0.1,0.3s0.1,0.2,0.2,0.2s0.2,0.1,0.4,0.1c0,0,0.1,0,0.1,0.1
		c0,0,0,0.1,0,0.1c0,0,0,0.1,0,0.1c0,0-0.1,0.1-0.1,0.1c-0.1,0-0.2,0-0.5,0c-0.2,0-0.5,0-0.7,0c-0.3,0-0.5,0-0.7,0
		c-0.2,0-0.5,0-0.7,0c0,0-0.1,0-0.1-0.1c0,0,0-0.1,0-0.1c0,0,0-0.1,0-0.1c0,0,0.1-0.1,0.1-0.1c0.2,0,0.4-0.1,0.5-0.1
		c0.1,0,0.2-0.1,0.2-0.2c0.1-0.1,0.1-0.2,0.1-0.3c0-0.1,0-0.3,0-0.5v-1.5c0-0.4,0-0.7,0-1s0-0.5-0.1-0.6c0-0.2-0.1-0.3-0.2-0.3
		c-0.1-0.1-0.3-0.1-0.4-0.1c0,0-0.1,0-0.1,0c0,0,0-0.1,0-0.1c0,0,0-0.1,0-0.1s0.1,0,0.1,0c0.2,0,0.4,0,0.7-0.1
		c0.3,0,0.6-0.1,0.9-0.2c0.1,0,0.2,0,0.3,0.1c0.1,0.1,0.1,0.2,0.1,0.3v0.5c0,0,0,0,0,0c0,0,0,0,0,0c0.1-0.1,0.1-0.2,0.2-0.3
		c0.1-0.1,0.2-0.2,0.4-0.3c0.1-0.1,0.3-0.2,0.5-0.2c0.2-0.1,0.4-0.1,0.6-0.1c0.6,0,1.1,0.2,1.4,0.5s0.5,0.9,0.5,1.6v2.1
		c0,0.2,0,0.4,0,0.5c0,0.1,0,0.2,0.1,0.3c0,0.1,0.1,0.1,0.2,0.2c0.1,0,0.2,0.1,0.4,0.1c0,0,0.1,0,0.1,0.1c0,0,0,0.1,0,0.1
		c0,0,0,0.1,0,0.1c0,0-0.1,0.1-0.1,0.1c-0.1,0-0.3,0-0.5,0c-0.2,0-0.5,0-0.7,0c-0.3,0-0.5,0-0.7,0c-0.2,0-0.4,0-0.6,0
		c0,0-0.1,0-0.1-0.1s0-0.1,0-0.1c0,0,0-0.1,0-0.1c0,0,0.1-0.1,0.1-0.1c0.2,0,0.3-0.1,0.4-0.1s0.2-0.1,0.2-0.2s0.1-0.2,0.1-0.3
		c0-0.1,0-0.3,0-0.5v-1.8c0-0.2,0-0.4,0-0.6c0-0.2-0.1-0.4-0.1-0.5c-0.1-0.2-0.2-0.3-0.3-0.4c-0.1-0.1-0.3-0.2-0.6-0.2
		s-0.4,0-0.6,0.1c-0.2,0.1-0.3,0.2-0.5,0.3c-0.1,0.1-0.2,0.3-0.3,0.4c-0.1,0.2-0.1,0.4-0.1,0.5V286.8z"/>
	<path class="st1" d="M509.9,287c0,0.3,0,0.5,0.1,0.6c0.1,0.1,0.2,0.2,0.3,0.2c0.1,0,0.2,0,0.2,0c0.1,0,0.1-0.1,0.2-0.1
		c0,0,0,0,0.1,0c0,0,0.1,0,0.1,0.1c0,0,0,0.1,0,0.1c0,0,0,0.1,0,0.1c-0.3,0.4-0.7,0.6-1.1,0.6c-0.2,0-0.4-0.1-0.6-0.2
		c-0.2-0.1-0.3-0.3-0.4-0.4c0,0,0,0-0.1,0c-0.2,0.2-0.4,0.3-0.7,0.5c-0.3,0.1-0.6,0.2-1,0.2c-0.5,0-0.8-0.1-1.1-0.4
		c-0.2-0.2-0.4-0.6-0.4-1c0-0.6,0.3-1,0.8-1.3c0.5-0.3,1.3-0.5,2.3-0.5c0,0,0,0,0-0.1s0-0.1,0-0.3v-0.3c0-0.2,0-0.4,0-0.6
		c0-0.2-0.1-0.3-0.2-0.5s-0.2-0.2-0.3-0.3c-0.1-0.1-0.3-0.1-0.5-0.1c-0.3,0-0.5,0.1-0.7,0.2c-0.2,0.1-0.3,0.3-0.3,0.5
		c0,0.1,0,0.2,0.1,0.3c0.1,0.1,0.1,0.2,0.1,0.3c0,0.1-0.1,0.2-0.2,0.3c-0.1,0.1-0.2,0.2-0.4,0.2c-0.2,0-0.4-0.1-0.5-0.2
		c-0.1-0.1-0.1-0.3-0.1-0.4c0-0.2,0.1-0.4,0.2-0.6c0.1-0.2,0.3-0.3,0.5-0.5c0.2-0.1,0.4-0.2,0.7-0.3c0.3-0.1,0.5-0.1,0.8-0.1
		c0.6,0,1.1,0.1,1.5,0.4c0.4,0.3,0.6,0.8,0.6,1.5V287z M508.8,285.8c0-0.1,0-0.1,0-0.2c0,0,0,0-0.1,0c-0.7,0.1-1.1,0.2-1.5,0.4
		c-0.3,0.2-0.5,0.5-0.5,0.8c0,0.2,0.1,0.4,0.2,0.6s0.3,0.2,0.6,0.2c0.2,0,0.4,0,0.6-0.1c0.2-0.1,0.4-0.2,0.5-0.3
		c0.1-0.1,0.1-0.1,0.1-0.2V285.8z"/>
	<path class="st1" d="M512.5,282.2c0-0.3,0-0.6,0-0.8c0-0.2-0.1-0.4-0.1-0.5c-0.1-0.1-0.2-0.2-0.3-0.2c-0.1,0-0.3-0.1-0.5-0.1
		c0,0-0.1,0-0.1-0.1c0,0,0-0.1,0-0.1c0,0,0-0.1,0-0.1c0,0,0.1-0.1,0.1-0.1c0.2,0,0.5,0,0.9-0.1c0.3,0,0.7-0.1,1-0.2
		c0.1,0,0.2,0,0.2,0c0,0,0.1,0.1,0.1,0.1v6.7c0,0.2,0,0.4,0,0.5c0,0.1,0,0.2,0.1,0.3s0.1,0.2,0.3,0.2s0.3,0.1,0.5,0.1
		c0,0,0.1,0,0.1,0.1c0,0,0,0.1,0,0.1c0,0,0,0.1,0,0.1c0,0-0.1,0.1-0.1,0.1c-0.2,0-0.4,0-0.6,0c-0.2,0-0.5,0-0.7,0
		c-0.3,0-0.5,0-0.8,0c-0.2,0-0.5,0-0.8,0c0,0-0.1,0-0.1-0.1c0,0,0-0.1,0-0.1c0,0,0-0.1,0-0.1c0,0,0.1-0.1,0.1-0.1
		c0.2,0,0.4-0.1,0.5-0.1c0.1,0,0.2-0.1,0.3-0.2s0.1-0.2,0.1-0.3c0-0.1,0-0.3,0-0.5V282.2z"/>
	<path class="st1" d="M516.7,285.2C516.6,285.2,516.6,285.2,516.7,285.2c-0.1,0.1-0.1,0.1-0.1,0.1c0,0.4,0,0.8,0.1,1.1
		c0.1,0.3,0.2,0.5,0.4,0.7c0.2,0.2,0.4,0.3,0.6,0.4c0.2,0.1,0.5,0.1,0.7,0.1c0.3,0,0.5,0,0.8-0.1s0.5-0.1,0.7-0.3c0,0,0.1,0,0.1,0
		c0,0,0.1,0,0.1,0.1c0,0,0,0.1,0.1,0.1s0,0.1,0,0.1c-0.3,0.3-0.5,0.6-0.9,0.7c-0.3,0.1-0.7,0.2-1.2,0.2c-0.5,0-0.9-0.1-1.2-0.2
		c-0.3-0.1-0.6-0.3-0.9-0.6s-0.4-0.6-0.5-0.9c-0.1-0.3-0.2-0.7-0.2-1.1c0-0.4,0.1-0.8,0.2-1.1c0.1-0.4,0.3-0.7,0.6-0.9
		s0.5-0.5,0.9-0.6s0.7-0.2,1.1-0.2c0.3,0,0.6,0.1,0.9,0.2c0.3,0.1,0.5,0.3,0.7,0.5c0.2,0.2,0.3,0.4,0.4,0.7c0.1,0.3,0.2,0.6,0.2,0.9
		c0,0.2-0.1,0.3-0.2,0.3H516.7z M518.9,284.8c0.1,0,0.2,0,0.2-0.1c0-0.1,0-0.2,0-0.3c0-0.2,0-0.3-0.1-0.5c-0.1-0.2-0.1-0.3-0.2-0.4
		c-0.1-0.1-0.2-0.2-0.3-0.3c-0.1-0.1-0.3-0.1-0.5-0.1c-0.2,0-0.4,0-0.6,0.1s-0.3,0.2-0.4,0.3c-0.1,0.1-0.2,0.3-0.2,0.4
		c-0.1,0.2-0.1,0.3-0.1,0.5c0,0.1,0,0.2,0,0.2c0,0.1,0,0.1,0.1,0.1H518.9z"/>
</g>
</svg>
