<?xml version="1.0" encoding="utf-8"?>
<!-- Generator: Adobe Illustrator 21.1.0, SVG Export Plug-In . SVG Version: 6.00 Build 0)  -->
<svg version="1.1" id="Layer_1" xmlns="http://www.w3.org/2000/svg" xmlns:xlink="http://www.w3.org/1999/xlink" x="0px" y="0px"
	 viewBox="0 0 621.4 801.4" style="enable-background:new 0 0 621.4 801.4;" xml:space="preserve">
<style type="text/css">
	.st0{fill:#FFFFFF;}
	.st1{fill:#FFFFFF;stroke:#FFFFFF;stroke-width:0.25;stroke-miterlimit:10;}
	.st2{stroke:#000000;stroke-width:0.25;stroke-miterlimit:10;}
	.st3{fill:#1F8AC9;}
	.st4{fill:#000101;stroke:#000101;stroke-width:0.25;stroke-miterlimit:10;}
	.st5{opacity:0.75;fill:#FFFFFF;}
	.st6{fill:#9A453E;}
	.st7{fill:#5D2318;}
	.st8{fill:#5D2318;stroke:#5D2318;stroke-width:0.25;stroke-miterlimit:10;}
	.st9{fill:#9A453E;stroke:#9A453E;stroke-width:0.25;stroke-miterlimit:10;}
	.st10{fill:#933A28;}
	.st11{fill:#29326B;stroke:#29326B;stroke-width:0.25;stroke-miterlimit:10;}
	.st12{fill:#FFFFFF;fill-opacity:0.27;}
	.st13{fill:#5D2217;}
	.st14{fill:#99443E;}
	.st15{stroke:#000000;stroke-width:0.5;stroke-miterlimit:10;}
	.st16{fill:#473181;stroke:#473181;stroke-width:0.5;stroke-miterlimit:10;}
	.st17{fill:#090E31;}
	.st18{fill:#442033;}
	.st19{fill:#473181;}
	.st20{fill:#BDA677;}
	.st21{fill:#FFFFFF;stroke:#FFFFFF;stroke-miterlimit:10;}
	.st22{fill:#2C3471;}
	.st23{fill:#2C3471;stroke:#2C3471;stroke-width:0.25;stroke-miterlimit:10;}
	.st24{fill:#00B4EC;}
	.st25{opacity:0.15;}
	.st26{fill:#21283A;stroke:#21283A;stroke-width:0.25;stroke-miterlimit:10;}
	.st27{clip-path:url(#SVGID_2_);}
	.st28{opacity:0.12;}
	.st29{fill:#0C2537;}
	.st30{opacity:0.8;}
	.st31{fill:#737273;}
	.st32{opacity:0.85;fill:#FFFFFF;}
	.st33{fill:#B9DCE8;}
</style>
<g>
	<path class="st6" d="M40.3,754.5c0.3,0.2,1.1,0.5,1.9,0.5c1.5,0,1.9-0.9,1.9-1.6c0-1.2-1.1-1.7-2.2-1.7h-0.6v-0.9h0.6
		c0.8,0,1.9-0.4,1.9-1.4c0-0.7-0.4-1.3-1.5-1.3c-0.7,0-1.3,0.3-1.7,0.6l-0.3-0.8c0.4-0.3,1.3-0.6,2.2-0.6c1.7,0,2.4,1,2.4,2
		c0,0.9-0.5,1.6-1.6,2v0c1,0.2,1.9,1,1.9,2.2c0,1.4-1.1,2.5-3.1,2.5c-0.9,0-1.8-0.3-2.2-0.6L40.3,754.5z"/>
	<path class="st6" d="M52.2,747.4v0.8l-3.7,7.7h-1.2l3.7-7.5v0h-4.1v-0.9H52.2z"/>
</g>
<rect x="-0.9" y="432.6" class="st13" width="624.7" height="7"/>
<rect x="119.1" y="214.6" transform="matrix(6.422424e-11 -1 1 6.422424e-11 119.425 555.5558)" class="st13" width="436.8" height="7"/>
<g>
	<path class="st1" d="M132.6,744.6c-0.1,0-0.1,0-0.1,0c0,0-0.1-0.1-0.1-0.1c0,0,0-0.1,0-0.1c0,0,0-0.1,0.1-0.1
		c0.6-0.5,1-0.8,1.4-1.2c0.4-0.3,0.7-0.6,0.9-0.9c0.2-0.3,0.4-0.5,0.5-0.7c0.1-0.2,0.1-0.5,0.1-0.7c0-0.2,0-0.3,0-0.5
		c0-0.2-0.1-0.3-0.1-0.4c-0.1-0.1-0.2-0.2-0.3-0.3c-0.1-0.1-0.3-0.1-0.5-0.1c-0.2,0-0.4,0-0.5,0.1c-0.1,0.1-0.2,0.1-0.3,0.2
		s-0.2,0.2-0.2,0.2s-0.1,0.2-0.1,0.2c0,0,0,0.1,0,0.1c0,0,0,0.1,0,0.1c0,0,0.1,0.1,0.1,0.1c0,0,0.1,0,0.2,0c0.1,0,0.2,0,0.3,0.1
		c0,0.1,0.1,0.2,0.1,0.3c0,0.1,0,0.2-0.1,0.3c-0.1,0.1-0.2,0.1-0.4,0.1c-0.2,0-0.3,0-0.4-0.1c-0.1-0.1-0.2-0.1-0.2-0.2
		c-0.1-0.1-0.1-0.2-0.1-0.3c0-0.1,0-0.2,0-0.3c0-0.2,0-0.4,0.1-0.5s0.2-0.3,0.4-0.4c0.2-0.1,0.4-0.2,0.6-0.3
		c0.2-0.1,0.5-0.1,0.8-0.1c0.3,0,0.6,0,0.8,0.1s0.4,0.2,0.6,0.3s0.3,0.3,0.4,0.5c0.1,0.2,0.1,0.4,0.1,0.6c0,0.3-0.1,0.6-0.3,0.9
		c-0.2,0.3-0.4,0.6-0.7,0.8c-0.3,0.3-0.6,0.5-0.9,0.7s-0.6,0.4-0.9,0.6c0,0-0.1,0-0.1,0.1c0,0,0,0,0.1,0h1.7c0.1,0,0.2,0,0.3,0
		c0.1,0,0.1-0.1,0.2-0.1c0.1-0.1,0.1-0.1,0.2-0.2c0.1-0.1,0.1-0.2,0.2-0.4c0,0,0-0.1,0.1-0.1c0,0,0.1,0,0.1,0s0.1,0,0.1,0
		s0,0.1,0,0.1c-0.1,0.3-0.1,0.5-0.2,0.8c-0.1,0.3-0.1,0.5-0.1,0.8H132.6z"/>
	<path class="st1" d="M143.3,741.7c0,0.5-0.1,0.9-0.2,1.3s-0.4,0.7-0.6,0.9c-0.3,0.3-0.6,0.5-0.9,0.6c-0.4,0.1-0.8,0.2-1.2,0.2
		c-0.4,0-0.7-0.1-1.1-0.2s-0.6-0.3-0.9-0.6s-0.4-0.6-0.6-0.9c-0.1-0.4-0.2-0.8-0.2-1.3c0-0.4,0.1-0.8,0.2-1.1
		c0.1-0.3,0.3-0.6,0.6-0.9s0.6-0.4,0.9-0.6c0.3-0.1,0.7-0.2,1.1-0.2c0.4,0,0.8,0.1,1.1,0.2c0.3,0.1,0.6,0.3,0.9,0.5s0.5,0.5,0.6,0.9
		C143.2,740.9,143.3,741.3,143.3,741.7z M142.1,741.9c0-0.3,0-0.6-0.1-0.9c-0.1-0.3-0.1-0.6-0.3-0.8c-0.1-0.2-0.3-0.4-0.5-0.6
		c-0.2-0.1-0.4-0.2-0.7-0.2c-0.3,0-0.6,0.1-0.8,0.2c-0.2,0.1-0.4,0.3-0.5,0.6c-0.1,0.2-0.2,0.5-0.3,0.8c-0.1,0.3-0.1,0.6-0.1,0.9
		c0,0.3,0,0.6,0.1,0.8c0.1,0.3,0.1,0.5,0.3,0.8c0.1,0.2,0.3,0.4,0.5,0.6c0.2,0.2,0.5,0.2,0.8,0.2c0.3,0,0.6-0.1,0.8-0.2
		c0.2-0.1,0.4-0.3,0.5-0.6s0.2-0.5,0.3-0.8C142.1,742.4,142.1,742.1,142.1,741.9z"/>
	<path class="st1" d="M146.6,743c0,0.3,0,0.5,0,0.6c0,0.2,0.1,0.3,0.1,0.4c0.1,0.1,0.2,0.2,0.3,0.2c0.1,0,0.3,0.1,0.5,0.1
		c0,0,0.1,0,0.1,0.1c0,0,0,0.1,0,0.1c0,0,0,0.1,0,0.1c0,0,0,0-0.1,0c-0.1,0-0.2,0-0.2,0s-0.2,0-0.3,0c-0.1,0-0.3,0-0.4,0
		c-0.1,0-0.3,0-0.5,0c-0.4,0-0.7,0-1,0c-0.1,0-0.3,0-0.4,0c-0.1,0-0.2,0-0.3,0c0,0-0.1,0-0.1,0c0,0,0-0.1,0-0.1c0,0,0-0.1,0-0.1
		c0,0,0-0.1,0.1-0.1c0.2,0,0.4-0.1,0.6-0.1c0.1,0,0.2-0.1,0.3-0.2c0.1-0.1,0.1-0.2,0.1-0.4c0-0.2,0-0.4,0-0.6v-2.2
		c0-0.4,0-0.7-0.1-0.9c0-0.2-0.2-0.2-0.4-0.2c-0.1,0-0.2,0-0.3,0c-0.1,0-0.2,0-0.4,0.1c-0.1,0-0.1,0-0.1-0.1c0-0.1,0-0.2,0.1-0.2
		c0.2-0.1,0.4-0.1,0.6-0.2c0.2,0,0.3-0.1,0.5-0.1c0.1,0,0.3,0,0.4-0.1c0.2,0,0.4-0.1,0.6-0.1c0.2,0,0.2,0,0.2,0.1V743z"/>
	<path class="st1" d="M148.7,744.6c-0.1,0-0.1,0-0.1,0c0,0-0.1-0.1-0.1-0.1c0,0,0-0.1,0-0.1c0,0,0-0.1,0.1-0.1
		c0.6-0.5,1-0.8,1.4-1.2c0.4-0.3,0.7-0.6,0.9-0.9c0.2-0.3,0.4-0.5,0.5-0.7c0.1-0.2,0.1-0.5,0.1-0.7c0-0.2,0-0.3,0-0.5
		c0-0.2-0.1-0.3-0.1-0.4c-0.1-0.1-0.2-0.2-0.3-0.3c-0.1-0.1-0.3-0.1-0.5-0.1c-0.2,0-0.4,0-0.5,0.1c-0.1,0.1-0.2,0.1-0.3,0.2
		s-0.2,0.2-0.2,0.2s-0.1,0.2-0.1,0.2c0,0,0,0.1,0,0.1c0,0,0,0.1,0,0.1c0,0,0.1,0.1,0.1,0.1c0,0,0.1,0,0.2,0c0.1,0,0.2,0,0.3,0.1
		c0,0.1,0.1,0.2,0.1,0.3c0,0.1,0,0.2-0.1,0.3c-0.1,0.1-0.2,0.1-0.4,0.1c-0.2,0-0.3,0-0.4-0.1c-0.1-0.1-0.2-0.1-0.2-0.2
		c-0.1-0.1-0.1-0.2-0.1-0.3c0-0.1,0-0.2,0-0.3c0-0.2,0-0.4,0.1-0.5s0.2-0.3,0.4-0.4c0.2-0.1,0.4-0.2,0.6-0.3
		c0.2-0.1,0.5-0.1,0.8-0.1c0.3,0,0.6,0,0.8,0.1s0.4,0.2,0.6,0.3s0.3,0.3,0.4,0.5c0.1,0.2,0.1,0.4,0.1,0.6c0,0.3-0.1,0.6-0.3,0.9
		c-0.2,0.3-0.4,0.6-0.7,0.8c-0.3,0.3-0.6,0.5-0.9,0.7s-0.6,0.4-0.9,0.6c0,0-0.1,0-0.1,0.1c0,0,0,0,0.1,0h1.7c0.1,0,0.2,0,0.3,0
		c0.1,0,0.1-0.1,0.2-0.1c0.1-0.1,0.1-0.1,0.2-0.2c0.1-0.1,0.1-0.2,0.2-0.4c0,0,0-0.1,0.1-0.1c0,0,0.1,0,0.1,0s0.1,0,0.1,0
		s0,0.1,0,0.1c-0.1,0.3-0.1,0.5-0.2,0.8c-0.1,0.3-0.1,0.5-0.1,0.8H148.7z"/>
	<path class="st1" d="M162.7,736.5c0.1,0,0.1,0,0.2,0c0.1,0,0.1,0.1,0.1,0.2c0,0.2,0,0.5,0,0.8c0,0.3,0,0.6,0,0.8c0,0,0,0.1-0.1,0.1
		c0,0-0.1,0-0.1,0s-0.1,0-0.1,0s-0.1,0-0.1-0.1c-0.1-0.3-0.1-0.6-0.2-0.7c-0.1-0.2-0.1-0.3-0.2-0.4c-0.1-0.1-0.2-0.2-0.4-0.2
		c-0.2,0-0.4,0-0.7,0h-0.7c-0.2,0-0.4,0-0.5,0s-0.2,0-0.3,0.1c-0.1,0.1-0.1,0.1-0.1,0.2c0,0.1,0,0.3,0,0.5v2.1c0,0.1,0,0.2,0.1,0.2
		s0.1,0,0.1,0c0.4,0,0.7,0,0.9,0s0.4-0.1,0.5-0.2c0.1-0.1,0.2-0.2,0.2-0.3s0.1-0.3,0.1-0.5c0,0,0-0.1,0.1-0.1c0,0,0.1,0,0.1,0
		s0.1,0,0.1,0c0,0,0.1,0.1,0.1,0.1c0,0.1,0,0.2,0,0.3c0,0.1,0,0.2,0,0.3c0,0.1,0,0.2,0,0.3s0,0.2,0,0.4c0,0.2,0,0.5,0,0.7
		c0,0.2,0,0.4,0,0.7c0,0,0,0.1-0.1,0.1c0,0-0.1,0-0.1,0s-0.1,0-0.1,0c0,0-0.1-0.1-0.1-0.1c0-0.2-0.1-0.4-0.1-0.6s-0.1-0.3-0.2-0.3
		c-0.1-0.1-0.3-0.1-0.5-0.2s-0.5,0-0.9,0c0,0-0.1,0-0.1,0s-0.1,0.1-0.1,0.2v2c0,0.3,0,0.5,0.1,0.7s0.1,0.3,0.2,0.4
		c0.1,0.1,0.2,0.2,0.4,0.2c0.2,0,0.4,0.1,0.7,0.1c0.1,0,0.1,0,0.1,0.1c0,0,0,0.1,0,0.1c0,0,0,0.1,0,0.1c0,0-0.1,0.1-0.1,0.1
		c-0.4,0-0.8,0-1.1,0s-0.6,0-0.9,0c-0.3,0-0.6,0-0.9,0s-0.6,0-0.9,0c0,0-0.1,0-0.1-0.1c0,0,0-0.1,0-0.1c0,0,0-0.1,0-0.1
		c0,0,0.1-0.1,0.1-0.1c0.2,0,0.4-0.1,0.6-0.1c0.1,0,0.3-0.1,0.3-0.2c0.1-0.1,0.1-0.2,0.2-0.3c0-0.1,0-0.3,0-0.6v-4.5
		c0-0.2,0-0.3,0-0.5s0-0.3-0.1-0.5c0-0.1-0.1-0.3-0.2-0.4c-0.1-0.1-0.2-0.2-0.3-0.2c-0.1,0-0.2,0-0.3-0.1s-0.2,0-0.3,0
		c0,0-0.1,0-0.1-0.1c0,0,0-0.1,0-0.1c0,0,0-0.1,0-0.1c0,0,0.1-0.1,0.1-0.1c0.3,0,0.5,0,0.7,0c0.2,0,0.5,0,0.8,0H162.7z"/>
	<path class="st1" d="M164.5,741.5C164.4,741.5,164.4,741.5,164.5,741.5c-0.1,0.1-0.1,0.1-0.1,0.1c0,0.4,0,0.8,0.1,1.1
		s0.2,0.5,0.4,0.7s0.4,0.3,0.6,0.4c0.2,0.1,0.5,0.1,0.7,0.1c0.3,0,0.5,0,0.8-0.1c0.3,0,0.5-0.1,0.7-0.3c0,0,0.1,0,0.1,0
		s0.1,0,0.1,0.1c0,0,0,0.1,0.1,0.1c0,0,0,0.1,0,0.1c-0.3,0.3-0.5,0.6-0.9,0.7c-0.3,0.1-0.7,0.2-1.2,0.2c-0.5,0-0.9-0.1-1.2-0.2
		c-0.3-0.1-0.6-0.3-0.9-0.6c-0.2-0.3-0.4-0.6-0.5-0.9c-0.1-0.3-0.2-0.7-0.2-1.1c0-0.4,0.1-0.8,0.2-1.1c0.1-0.4,0.3-0.7,0.6-0.9
		s0.5-0.5,0.9-0.6s0.7-0.2,1.1-0.2c0.3,0,0.6,0.1,0.9,0.2c0.3,0.1,0.5,0.3,0.7,0.5c0.2,0.2,0.3,0.4,0.5,0.7c0.1,0.3,0.2,0.6,0.2,0.9
		c0,0.2-0.1,0.3-0.2,0.3H164.5z M166.7,741.1c0.1,0,0.2,0,0.2-0.1c0-0.1,0-0.2,0-0.3c0-0.2,0-0.3-0.1-0.5c-0.1-0.2-0.1-0.3-0.2-0.4
		c-0.1-0.1-0.2-0.2-0.3-0.3s-0.3-0.1-0.5-0.1c-0.2,0-0.4,0-0.6,0.1c-0.2,0.1-0.3,0.2-0.4,0.3c-0.1,0.1-0.2,0.3-0.2,0.4
		s-0.1,0.3-0.1,0.5c0,0.1,0,0.2,0,0.2c0,0.1,0,0.1,0.1,0.1H166.7z"/>
	<path class="st1" d="M172.7,739.2c0,0.1,0,0.2-0.1,0.3c0,0.1,0,0.3,0,0.4c0,0.2,0,0.3,0,0.5s0,0.3,0,0.4c0,0,0,0,0,0.1
		c0,0-0.1,0-0.1,0c0,0-0.1,0-0.1,0c0,0-0.1,0-0.1-0.1c-0.1-0.4-0.2-0.8-0.4-1c-0.2-0.2-0.5-0.3-1-0.3c-0.3,0-0.5,0.1-0.7,0.2
		c-0.2,0.1-0.3,0.3-0.3,0.6c0,0.2,0.1,0.4,0.2,0.5s0.4,0.2,0.6,0.3c0.1,0,0.2,0.1,0.4,0.2c0.2,0.1,0.3,0.1,0.4,0.2
		c0.2,0.1,0.4,0.2,0.6,0.3c0.2,0.1,0.3,0.2,0.5,0.4c0.1,0.1,0.2,0.3,0.3,0.5c0.1,0.2,0.1,0.4,0.1,0.6c0,0.3-0.1,0.6-0.2,0.8
		c-0.1,0.2-0.3,0.4-0.5,0.5c-0.2,0.1-0.4,0.2-0.7,0.3c-0.3,0.1-0.5,0.1-0.8,0.1c-0.2,0-0.4,0-0.7-0.1c-0.3,0-0.5-0.1-0.7-0.2
		c0,0-0.1,0-0.1,0c-0.1,0-0.1,0.1-0.1,0.2c0,0,0,0-0.1,0s-0.1,0-0.1,0c0,0-0.1,0-0.1,0s0,0,0-0.1c0-0.1,0-0.2,0-0.3
		c0-0.1,0-0.2,0-0.3c0-0.1,0-0.2,0-0.3c0-0.1,0-0.2,0-0.3c0-0.1,0-0.2,0-0.3s0-0.2,0-0.2c0,0,0-0.1,0-0.1c0,0,0.1,0,0.1,0
		s0.1,0,0.1,0c0,0,0.1,0,0.1,0.1c0.1,0.2,0.1,0.4,0.2,0.6c0.1,0.2,0.2,0.3,0.3,0.4c0.1,0.1,0.3,0.2,0.5,0.3c0.2,0.1,0.4,0.1,0.7,0.1
		c0.3,0,0.5-0.1,0.7-0.2c0.2-0.2,0.3-0.4,0.3-0.7c0-0.3-0.1-0.5-0.3-0.6c-0.2-0.1-0.4-0.3-0.6-0.4c-0.1,0-0.2-0.1-0.3-0.1
		s-0.2-0.1-0.4-0.1c-0.2-0.1-0.4-0.1-0.5-0.2s-0.3-0.2-0.5-0.3c-0.1-0.1-0.2-0.3-0.3-0.4c-0.1-0.2-0.1-0.4-0.1-0.6
		c0-0.3,0.1-0.5,0.2-0.7s0.3-0.4,0.5-0.5c0.2-0.1,0.4-0.2,0.7-0.3c0.2-0.1,0.5-0.1,0.7-0.1c0.2,0,0.4,0,0.6,0.1
		c0.2,0.1,0.4,0.1,0.6,0.3c0,0,0.1,0,0.1,0c0.1,0,0.1-0.1,0.1-0.2c0,0,0-0.1,0.1-0.1c0,0,0.1,0,0.1,0S172.6,739.1,172.7,739.2
		C172.7,739.1,172.7,739.1,172.7,739.2z"/>
	<path class="st1" d="M175.3,742.7c0,0.4,0,0.8,0.2,1c0.1,0.2,0.3,0.3,0.5,0.3c0.2,0,0.4,0,0.5-0.1s0.3-0.1,0.4-0.2c0,0,0.1,0,0.1,0
		c0,0,0.1,0,0.1,0.1c0,0,0,0.1,0.1,0.1c0,0,0,0.1,0,0.1c-0.2,0.2-0.4,0.4-0.6,0.5c-0.2,0.1-0.5,0.2-0.9,0.2c-0.5,0-0.9-0.1-1.2-0.4
		s-0.3-0.6-0.3-1.1v-3.1c0-0.1,0-0.2,0-0.2c0-0.1,0-0.1-0.1-0.1c0,0-0.1,0-0.2,0c-0.1,0-0.2,0-0.4,0c0,0,0,0-0.1-0.1
		c0,0,0-0.1,0-0.2s0-0.1,0-0.2c0,0,0-0.1,0.1-0.1c0.2,0,0.4,0,0.5-0.1c0.1,0,0.3-0.1,0.4-0.2s0.2-0.2,0.2-0.4
		c0.1-0.2,0.1-0.4,0.1-0.6c0,0,0-0.1,0.1-0.1c0.1,0,0.1,0,0.2,0s0.1,0,0.2,0s0.1,0,0.1,0.1v1c0,0.1,0,0.2,0,0.2c0,0,0.1,0,0.1,0h1.2
		c0.1,0,0.1,0,0.1,0.1c0,0.1,0,0.1,0,0.2s0,0.1,0,0.2c0,0.1-0.1,0.1-0.1,0.1h-1.3c-0.1,0-0.1,0-0.1,0c0,0,0,0.1,0,0.3V742.7z"/>
	<path class="st1" d="M179.5,743.1c0,0.2,0,0.4,0,0.5c0,0.1,0,0.2,0.1,0.3s0.1,0.2,0.2,0.2c0.1,0,0.2,0.1,0.4,0.1c0,0,0.1,0,0.1,0.1
		c0,0,0,0.1,0,0.1c0,0,0,0.1,0,0.1c0,0-0.1,0.1-0.1,0.1c-0.1,0-0.3,0-0.6,0c-0.2,0-0.5,0-0.7,0c-0.3,0-0.5,0-0.8,0s-0.5,0-0.7,0
		c0,0-0.1,0-0.1-0.1c0,0,0-0.1,0-0.1c0,0,0-0.1,0-0.1c0,0,0.1-0.1,0.1-0.1c0.2,0,0.4-0.1,0.5-0.1c0.1,0,0.2-0.1,0.3-0.2
		c0.1-0.1,0.1-0.2,0.1-0.3c0-0.1,0-0.3,0-0.5v-1.9c0-0.3,0-0.6,0-0.8c0-0.2-0.1-0.4-0.1-0.5c-0.1-0.1-0.1-0.2-0.3-0.2
		c-0.1,0-0.3-0.1-0.5-0.1c0,0-0.1,0-0.1-0.1c0,0,0-0.1,0-0.1s0-0.1,0-0.1c0,0,0.1-0.1,0.1-0.1c0.1,0,0.2,0,0.3,0c0.1,0,0.2,0,0.4,0
		c0.1,0,0.3,0,0.4,0s0.2,0,0.4-0.1c0.1,0,0.2,0,0.2-0.1c0.1,0,0.1,0,0.1,0c0.1,0,0.2,0,0.2,0.1c0,0.1,0,0.1,0,0.2V743.1z
		 M178.9,737.8c-0.2,0-0.4-0.1-0.5-0.2c-0.1-0.1-0.2-0.3-0.2-0.5c0-0.2,0.1-0.3,0.2-0.5c0.1-0.1,0.3-0.2,0.5-0.2
		c0.2,0,0.3,0.1,0.5,0.2c0.1,0.1,0.2,0.3,0.2,0.5c0,0.2-0.1,0.3-0.2,0.4C179.2,737.8,179,737.8,178.9,737.8z"/>
	<path class="st1" d="M185.7,740.7c-0.5,1.3-1.1,2.7-1.7,4c0,0,0,0-0.1,0s-0.1,0-0.1,0s-0.1,0-0.1,0s-0.1,0-0.1,0
		c-0.3-0.7-0.7-1.4-1-2c-0.3-0.7-0.6-1.4-0.9-2.1c-0.1-0.2-0.1-0.4-0.2-0.5c-0.1-0.1-0.1-0.2-0.2-0.3c-0.1-0.1-0.1-0.1-0.2-0.2
		c-0.1,0-0.2-0.1-0.4-0.1c0,0-0.1,0-0.1-0.1c0,0,0-0.1,0-0.1c0,0,0-0.1,0-0.1c0,0,0-0.1,0.1-0.1c0.2,0,0.5,0,0.7,0
		c0.2,0,0.5,0,0.7,0c0.2,0,0.5,0,0.7,0c0.2,0,0.5,0,0.7,0c0,0,0.1,0,0.1,0.1c0,0,0,0.1,0,0.1c0,0,0,0.1,0,0.1c0,0,0,0.1-0.1,0.1
		c-0.2,0-0.4,0.1-0.5,0.1c-0.1,0.1-0.2,0.2-0.2,0.3c0,0.1,0,0.3,0.1,0.4c0.2,0.5,0.4,1,0.6,1.4s0.4,0.9,0.6,1.3c0,0,0,0.1,0.1,0.1
		c0,0,0.1,0,0.1-0.1c0.1-0.2,0.2-0.4,0.3-0.6c0.1-0.3,0.2-0.5,0.3-0.8c0.1-0.3,0.2-0.5,0.3-0.8c0.1-0.3,0.2-0.5,0.2-0.7
		c0-0.1,0-0.2,0-0.3c0-0.2-0.1-0.3-0.2-0.4c-0.1,0-0.2-0.1-0.4-0.1c0,0-0.1,0-0.1-0.1c0,0,0-0.1,0-0.1c0,0,0-0.1,0-0.1
		c0,0,0.1-0.1,0.1-0.1c0.2,0,0.3,0,0.5,0c0.2,0,0.3,0,0.5,0c0.2,0,0.4,0,0.6,0c0.2,0,0.3,0,0.5,0c0,0,0.1,0,0.1,0.1c0,0,0,0.1,0,0.1
		c0,0,0,0.1,0,0.1c0,0,0,0.1-0.1,0.1c-0.2,0-0.3,0-0.4,0.1c-0.1,0.1-0.2,0.1-0.3,0.2c-0.1,0.1-0.2,0.2-0.2,0.4
		C185.8,740.4,185.8,740.5,185.7,740.7z"/>
	<path class="st1" d="M191.5,743.3c0,0.3,0,0.5,0.1,0.6c0.1,0.1,0.2,0.2,0.3,0.2c0.1,0,0.2,0,0.2,0c0.1,0,0.1-0.1,0.2-0.1
		c0,0,0,0,0.1,0s0.1,0,0.1,0.1c0,0,0,0.1,0,0.1c0,0,0,0.1,0,0.1c-0.3,0.4-0.7,0.6-1.1,0.6c-0.2,0-0.4-0.1-0.6-0.2s-0.3-0.3-0.4-0.4
		c0,0,0,0-0.1,0c-0.2,0.2-0.5,0.3-0.7,0.5c-0.3,0.1-0.6,0.2-1,0.2c-0.5,0-0.8-0.1-1.1-0.4s-0.4-0.6-0.4-1c0-0.6,0.3-1,0.8-1.3
		c0.5-0.3,1.3-0.5,2.3-0.5c0,0,0,0,0-0.1c0,0,0-0.1,0-0.3v-0.3c0-0.2,0-0.4,0-0.6c0-0.2-0.1-0.3-0.2-0.5c-0.1-0.1-0.2-0.2-0.3-0.3
		s-0.3-0.1-0.5-0.1c-0.3,0-0.5,0.1-0.7,0.2c-0.2,0.1-0.3,0.3-0.3,0.4c0,0.1,0,0.2,0.1,0.3s0.1,0.2,0.1,0.3c0,0.1-0.1,0.2-0.2,0.3
		c-0.1,0.1-0.2,0.2-0.4,0.2c-0.2,0-0.4-0.1-0.5-0.2c-0.1-0.1-0.1-0.3-0.1-0.4c0-0.2,0.1-0.4,0.2-0.6s0.3-0.3,0.5-0.5
		s0.4-0.2,0.7-0.3s0.5-0.1,0.8-0.1c0.6,0,1.1,0.1,1.5,0.4c0.4,0.3,0.6,0.8,0.6,1.5V743.3z M190.4,742.1c0-0.1,0-0.1,0-0.2
		c0,0,0,0-0.1,0c-0.7,0.1-1.1,0.2-1.5,0.4c-0.3,0.2-0.5,0.5-0.5,0.8c0,0.2,0.1,0.4,0.2,0.6s0.3,0.2,0.6,0.2c0.2,0,0.4,0,0.6-0.1
		c0.2-0.1,0.4-0.2,0.5-0.3c0.1-0.1,0.1-0.1,0.1-0.2V742.1z"/>
	<path class="st1" d="M194.1,738.5c0-0.3,0-0.6,0-0.8c0-0.2-0.1-0.4-0.1-0.5c-0.1-0.1-0.2-0.2-0.3-0.2c-0.1,0-0.3-0.1-0.5-0.1
		c0,0-0.1,0-0.1-0.1c0,0,0-0.1,0-0.1s0-0.1,0-0.1c0,0,0.1-0.1,0.1-0.1c0.2,0,0.5,0,0.9-0.1c0.3,0,0.7-0.1,1-0.2c0.1,0,0.2,0,0.2,0
		s0.1,0.1,0.1,0.1v6.7c0,0.2,0,0.4,0,0.5c0,0.1,0,0.2,0.1,0.3s0.1,0.2,0.3,0.2c0.1,0,0.3,0.1,0.5,0.1c0,0,0.1,0,0.1,0.1
		c0,0,0,0.1,0,0.1c0,0,0,0.1,0,0.1c0,0-0.1,0.1-0.1,0.1c-0.2,0-0.4,0-0.6,0c-0.2,0-0.5,0-0.7,0c-0.3,0-0.5,0-0.8,0s-0.5,0-0.8,0
		c0,0-0.1,0-0.1-0.1c0,0,0-0.1,0-0.1c0,0,0-0.1,0-0.1c0,0,0.1-0.1,0.1-0.1c0.2,0,0.4-0.1,0.5-0.1c0.1,0,0.2-0.1,0.3-0.2
		s0.1-0.2,0.1-0.3c0-0.1,0-0.3,0-0.5V738.5z"/>
	<path class="st1" d="M202.6,742.9c0,0.3,0,0.5,0.1,0.7c0.1,0.2,0.1,0.3,0.3,0.4c0.1,0.1,0.3,0.2,0.4,0.2c0.2,0,0.4,0.1,0.6,0.1
		c0.1,0,0.1,0,0.1,0.1c0,0,0,0.1,0,0.1c0,0,0,0.1,0,0.1c0,0-0.1,0.1-0.1,0.1c-0.4,0-0.8,0-1.1,0c-0.3,0-0.6,0-0.9,0
		c-0.3,0-0.6,0-0.9,0s-0.6,0-0.9,0c0,0-0.1,0-0.1-0.1c0,0,0-0.1,0-0.1c0,0,0-0.1,0-0.1c0,0,0.1-0.1,0.1-0.1c0.2,0,0.4-0.1,0.6-0.1
		s0.3-0.1,0.3-0.2c0.1-0.1,0.1-0.2,0.2-0.3s0-0.3,0-0.6v-4.5c0-0.2,0-0.4,0-0.5c0-0.2,0-0.3-0.1-0.5c0-0.1-0.1-0.3-0.2-0.4
		c-0.1-0.1-0.2-0.2-0.3-0.2c-0.1,0-0.2,0-0.3-0.1c-0.1,0-0.2,0-0.3,0c0,0-0.1,0-0.1-0.1c0,0,0-0.1,0-0.1c0,0,0-0.1,0-0.1
		c0,0,0.1-0.1,0.1-0.1c0.3,0,0.5,0,0.7,0s0.5,0,0.8,0c0.5,0,0.9,0,1.2,0s0.6,0,0.9,0c0.3,0,0.6,0,0.9,0.1c0.3,0.1,0.6,0.2,0.8,0.3
		s0.4,0.4,0.6,0.6c0.1,0.3,0.2,0.6,0.2,1c0,0.4-0.1,0.8-0.3,1.1c-0.2,0.3-0.4,0.5-0.7,0.7c-0.3,0.2-0.7,0.3-1.1,0.4
		s-0.9,0.1-1.3,0.2c-0.1,0-0.1,0-0.2,0c0,0-0.1,0.1-0.1,0.2V742.9z M202.6,740.3c0,0.1,0,0.1,0.1,0.1c0,0,0.1,0,0.2,0
		c0.4,0,0.7,0,1-0.1c0.3-0.1,0.5-0.2,0.6-0.3c0.2-0.1,0.3-0.3,0.3-0.5c0.1-0.2,0.1-0.5,0.1-0.8c0-0.6-0.1-1.1-0.3-1.3
		c-0.2-0.3-0.6-0.4-1.2-0.4c-0.3,0-0.5,0-0.6,0.1c-0.1,0.1-0.2,0.2-0.2,0.5V740.3z"/>
	<path class="st1" d="M208.2,741.5C208.2,741.5,208.2,741.5,208.2,741.5c-0.1,0.1-0.1,0.1-0.1,0.1c0,0.4,0,0.8,0.1,1.1
		s0.2,0.5,0.4,0.7s0.4,0.3,0.6,0.4c0.2,0.1,0.5,0.1,0.7,0.1c0.3,0,0.5,0,0.8-0.1c0.3,0,0.5-0.1,0.7-0.3c0,0,0.1,0,0.1,0
		s0.1,0,0.1,0.1c0,0,0,0.1,0.1,0.1c0,0,0,0.1,0,0.1c-0.3,0.3-0.5,0.6-0.9,0.7c-0.3,0.1-0.7,0.2-1.2,0.2c-0.5,0-0.9-0.1-1.2-0.2
		c-0.3-0.1-0.6-0.3-0.9-0.6c-0.2-0.3-0.4-0.6-0.5-0.9c-0.1-0.3-0.2-0.7-0.2-1.1c0-0.4,0.1-0.8,0.2-1.1c0.1-0.4,0.3-0.7,0.6-0.9
		s0.5-0.5,0.9-0.6s0.7-0.2,1.1-0.2c0.3,0,0.6,0.1,0.9,0.2c0.3,0.1,0.5,0.3,0.7,0.5c0.2,0.2,0.3,0.4,0.5,0.7c0.1,0.3,0.2,0.6,0.2,0.9
		c0,0.2-0.1,0.3-0.2,0.3H208.2z M210.4,741.1c0.1,0,0.2,0,0.2-0.1c0-0.1,0-0.2,0-0.3c0-0.2,0-0.3-0.1-0.5c-0.1-0.2-0.1-0.3-0.2-0.4
		c-0.1-0.1-0.2-0.2-0.3-0.3s-0.3-0.1-0.5-0.1c-0.2,0-0.4,0-0.6,0.1c-0.2,0.1-0.3,0.2-0.4,0.3c-0.1,0.1-0.2,0.3-0.2,0.4
		s-0.1,0.3-0.1,0.5c0,0.1,0,0.2,0,0.2c0,0.1,0,0.1,0.1,0.1H210.4z"/>
	<path class="st1" d="M214.6,743.1c0,0.2,0,0.4,0,0.5c0,0.1,0.1,0.2,0.1,0.3s0.2,0.2,0.3,0.2c0.2,0,0.4,0.1,0.7,0.1
		c0,0,0.1,0,0.1,0.1c0,0,0,0.1,0,0.1c0,0,0,0.1,0,0.1c0,0-0.1,0.1-0.1,0.1c-0.3,0-0.6,0-0.9,0s-0.5,0-0.8,0c-0.3,0-0.5,0-0.8,0
		s-0.5,0-0.8,0c0,0-0.1,0-0.1-0.1c0,0,0-0.1,0-0.1c0,0,0-0.1,0-0.1c0,0,0.1-0.1,0.1-0.1c0.2,0,0.4-0.1,0.5-0.1
		c0.1,0,0.2-0.1,0.3-0.2c0.1-0.1,0.1-0.2,0.1-0.3c0-0.1,0-0.3,0-0.5v-1.8c0-0.4,0-0.7,0-0.9c0-0.2-0.1-0.4-0.1-0.5
		c-0.1-0.1-0.2-0.2-0.3-0.2c-0.1,0-0.3-0.1-0.5-0.1c0,0-0.1,0-0.1-0.1c0,0,0-0.1,0-0.1s0-0.1,0-0.1c0,0,0.1-0.1,0.1-0.1
		c0.2,0,0.4,0,0.7-0.1c0.3,0,0.6-0.1,0.9-0.2c0.1,0,0.2,0,0.3,0c0.1,0,0.1,0.1,0.1,0.2l0,0.8c0,0,0,0,0,0c0,0,0,0,0,0
		c0.2-0.3,0.4-0.6,0.6-0.8s0.6-0.3,1-0.3c0.3,0,0.6,0.1,0.7,0.3c0.2,0.2,0.2,0.4,0.2,0.6c0,0.1-0.1,0.3-0.2,0.4
		c-0.1,0.1-0.3,0.2-0.4,0.2c-0.2,0-0.3,0-0.4-0.1c-0.1-0.1-0.1-0.2-0.1-0.3c0-0.1,0-0.2-0.1-0.3c0-0.1-0.1-0.1-0.3-0.1
		c-0.2,0-0.3,0.1-0.4,0.2s-0.2,0.2-0.3,0.4c-0.1,0.1-0.2,0.3-0.2,0.4c0,0.1-0.1,0.3-0.1,0.3V743.1z"/>
	<path class="st1" d="M219.5,743.2c0,0.2,0,0.4,0,0.5c0,0.1,0.1,0.2,0.1,0.3c0.1,0.1,0.2,0.1,0.3,0.2c0.1,0,0.4,0.1,0.6,0.1
		c0,0,0.1,0,0.1,0.1c0,0,0,0.1,0,0.1c0,0,0,0.1,0,0.1c0,0-0.1,0.1-0.1,0.1c-0.3,0-0.6,0-0.9,0s-0.5,0-0.7,0c-0.3,0-0.5,0-0.8,0
		c-0.3,0-0.5,0-0.7,0c0,0-0.1,0-0.1-0.1c0,0,0-0.1,0-0.1c0,0,0-0.1,0-0.1c0,0,0.1-0.1,0.1-0.1c0.2,0,0.4-0.1,0.5-0.1
		s0.2-0.1,0.3-0.2c0.1-0.1,0.1-0.2,0.1-0.3c0-0.1,0-0.3,0-0.5v-3.3c0-0.1,0-0.2,0-0.2c0,0-0.1,0-0.2,0h-0.6c0,0-0.1,0-0.1-0.1
		c0,0,0-0.1,0-0.1c0-0.1,0-0.1,0-0.2c0,0,0.1-0.1,0.1-0.1l0.6-0.1c0,0,0.1,0,0.1,0c0,0,0,0,0-0.1c0,0,0-0.1,0-0.1c0-0.1,0-0.2,0-0.3
		c0-0.4,0.1-0.7,0.2-1c0.1-0.3,0.3-0.6,0.5-0.8c0.2-0.2,0.5-0.4,0.8-0.5c0.3-0.1,0.7-0.2,1-0.2c0.2,0,0.4,0,0.6,0.1
		c0.2,0,0.4,0.1,0.5,0.2s0.3,0.2,0.4,0.4s0.1,0.3,0.1,0.5c0,0.1-0.1,0.3-0.2,0.4c-0.1,0.1-0.2,0.2-0.4,0.2c-0.1,0-0.3,0-0.4-0.1
		c-0.1-0.1-0.2-0.2-0.2-0.3c0-0.1,0-0.2,0.1-0.2s0.1-0.1,0.1-0.1c0-0.2-0.1-0.3-0.2-0.4c-0.1-0.1-0.3-0.1-0.5-0.1
		c-0.3,0-0.6,0.1-0.7,0.2c-0.2,0.1-0.3,0.3-0.4,0.5c-0.1,0.2-0.1,0.4-0.1,0.7c0,0.2,0,0.5,0,0.7v0.2c0,0.1,0,0.2,0,0.2
		c0,0,0.1,0,0.2,0h1.2c0,0,0.1,0,0.1,0.1c0,0.1,0,0.1,0,0.2s0,0.1,0,0.2c0,0.1-0.1,0.1-0.1,0.1h-1.2c-0.1,0-0.1,0-0.2,0
		c0,0,0,0.1,0,0.2V743.2z"/>
	<path class="st1" d="M227.2,741.7c0,0.5-0.1,0.9-0.2,1.3c-0.1,0.4-0.3,0.7-0.6,0.9s-0.6,0.4-0.9,0.6c-0.4,0.1-0.7,0.2-1.2,0.2
		c-0.4,0-0.7-0.1-1-0.2c-0.3-0.1-0.6-0.3-0.8-0.6c-0.2-0.2-0.4-0.6-0.6-0.9c-0.1-0.4-0.2-0.8-0.2-1.3c0-0.4,0.1-0.8,0.2-1.1
		c0.1-0.3,0.3-0.6,0.6-0.9c0.2-0.2,0.5-0.4,0.9-0.6c0.3-0.1,0.7-0.2,1.1-0.2c0.4,0,0.8,0.1,1.1,0.2c0.3,0.1,0.6,0.3,0.9,0.5
		c0.2,0.2,0.4,0.5,0.6,0.8C227.1,740.9,227.2,741.2,227.2,741.7z M225.9,741.8c0-0.3,0-0.6-0.1-0.9c0-0.3-0.1-0.5-0.2-0.8
		c-0.1-0.2-0.2-0.4-0.4-0.5c-0.2-0.1-0.4-0.2-0.7-0.2c-0.3,0-0.6,0.1-0.8,0.2c-0.2,0.1-0.4,0.3-0.5,0.5c-0.1,0.2-0.2,0.5-0.2,0.8
		c0,0.3-0.1,0.6-0.1,0.9c0,0.3,0,0.6,0.1,0.8c0,0.3,0.1,0.5,0.2,0.8c0.1,0.2,0.3,0.4,0.5,0.6s0.4,0.2,0.8,0.2c0.3,0,0.6-0.1,0.8-0.2
		c0.2-0.1,0.3-0.3,0.5-0.6c0.1-0.2,0.2-0.5,0.2-0.8C225.9,742.4,225.9,742.1,225.9,741.8z"/>
	<path class="st1" d="M230,743.1c0,0.2,0,0.4,0,0.5c0,0.1,0.1,0.2,0.1,0.3s0.2,0.2,0.3,0.2c0.2,0,0.4,0.1,0.7,0.1c0,0,0.1,0,0.1,0.1
		c0,0,0,0.1,0,0.1c0,0,0,0.1,0,0.1c0,0-0.1,0.1-0.1,0.1c-0.3,0-0.6,0-0.9,0s-0.5,0-0.8,0c-0.3,0-0.5,0-0.8,0s-0.5,0-0.8,0
		c0,0-0.1,0-0.1-0.1c0,0,0-0.1,0-0.1c0,0,0-0.1,0-0.1c0,0,0.1-0.1,0.1-0.1c0.2,0,0.4-0.1,0.5-0.1c0.1,0,0.2-0.1,0.3-0.2
		c0.1-0.1,0.1-0.2,0.1-0.3c0-0.1,0-0.3,0-0.5v-1.8c0-0.4,0-0.7,0-0.9c0-0.2-0.1-0.4-0.1-0.5c-0.1-0.1-0.2-0.2-0.3-0.2
		c-0.1,0-0.3-0.1-0.5-0.1c0,0-0.1,0-0.1-0.1c0,0,0-0.1,0-0.1s0-0.1,0-0.1c0,0,0.1-0.1,0.1-0.1c0.2,0,0.4,0,0.7-0.1
		c0.3,0,0.6-0.1,0.9-0.2c0.1,0,0.2,0,0.3,0c0.1,0,0.1,0.1,0.1,0.2l0,0.8c0,0,0,0,0,0c0,0,0,0,0,0c0.2-0.3,0.4-0.6,0.6-0.8
		s0.6-0.3,1-0.3c0.3,0,0.6,0.1,0.7,0.3c0.2,0.2,0.2,0.4,0.2,0.6c0,0.1-0.1,0.3-0.2,0.4c-0.1,0.1-0.3,0.2-0.4,0.2
		c-0.2,0-0.3,0-0.4-0.1c-0.1-0.1-0.1-0.2-0.1-0.3c0-0.1,0-0.2-0.1-0.3c0-0.1-0.1-0.1-0.3-0.1c-0.2,0-0.3,0.1-0.4,0.2
		s-0.2,0.2-0.3,0.4c-0.1,0.1-0.2,0.3-0.2,0.4c0,0.1-0.1,0.3-0.1,0.3V743.1z"/>
	<path class="st1" d="M234.7,743.1c0,0.2,0,0.4,0,0.5c0,0.1,0,0.2,0.1,0.3c0,0.1,0.1,0.2,0.2,0.2c0.1,0,0.3,0.1,0.5,0.1
		c0,0,0.1,0,0.1,0.1c0,0,0,0.1,0,0.1c0,0,0,0.1,0,0.1c0,0-0.1,0.1-0.1,0.1c-0.2,0-0.4,0-0.6,0c-0.2,0-0.5,0-0.7,0
		c-0.3,0-0.5,0-0.7,0c-0.2,0-0.5,0-0.7,0c0,0-0.1,0-0.1-0.1c0,0,0-0.1,0-0.1c0,0,0-0.1,0-0.1c0,0,0.1-0.1,0.1-0.1
		c0.2,0,0.4-0.1,0.5-0.1c0.1,0,0.2-0.1,0.2-0.2s0.1-0.2,0.1-0.3c0-0.1,0-0.3,0-0.5v-1.8c0-0.4,0-0.7,0-0.9c0-0.2,0-0.4-0.1-0.5
		c0-0.1-0.1-0.2-0.2-0.2c-0.1,0-0.2-0.1-0.4-0.1c0,0-0.1,0-0.1,0c0,0,0-0.1,0-0.1c0,0,0-0.1,0-0.1c0,0,0.1-0.1,0.1-0.1
		c0.1,0,0.3,0,0.6-0.1c0.3,0,0.5-0.1,0.8-0.2c0,0,0,0,0.1,0s0.1,0,0.1,0c0.1,0,0.1,0,0.2,0.1c0.1,0.1,0.1,0.1,0.1,0.2l0,0.6
		c0,0,0,0,0,0c0-0.1,0.1-0.1,0.2-0.3c0.1-0.1,0.2-0.2,0.4-0.3c0.1-0.1,0.3-0.2,0.5-0.3s0.5-0.1,0.7-0.1c0.5,0,0.9,0.1,1.2,0.3
		c0.3,0.2,0.5,0.5,0.7,0.9c0-0.1,0.1-0.2,0.2-0.3c0.1-0.1,0.3-0.3,0.4-0.4c0.2-0.1,0.4-0.2,0.6-0.3s0.5-0.1,0.7-0.1
		c0.4,0,0.7,0.1,0.9,0.2s0.4,0.3,0.6,0.5c0.1,0.2,0.2,0.4,0.3,0.7c0,0.3,0.1,0.6,0.1,0.9v1.9c0,0.2,0,0.4,0,0.5c0,0.1,0,0.2,0.1,0.3
		s0.1,0.2,0.2,0.2c0.1,0,0.2,0.1,0.4,0.1c0,0,0.1,0,0.1,0.1c0,0,0,0.1,0,0.1c0,0,0,0.1,0,0.1c0,0-0.1,0.1-0.1,0.1
		c-0.1,0-0.3,0-0.5,0s-0.5,0-0.7,0c-0.3,0-0.5,0-0.7,0c-0.2,0-0.4,0-0.6,0c0,0-0.1,0-0.1-0.1c0,0,0-0.1,0-0.1c0,0,0-0.1,0-0.1
		c0,0,0.1-0.1,0.1-0.1c0.2,0,0.3-0.1,0.4-0.1c0.1,0,0.2-0.1,0.2-0.2s0.1-0.2,0.1-0.3c0-0.1,0-0.3,0-0.5v-1.5c0-0.2,0-0.4,0-0.7
		c0-0.2-0.1-0.4-0.1-0.6c-0.1-0.2-0.2-0.3-0.3-0.5c-0.1-0.1-0.3-0.2-0.6-0.2c-0.2,0-0.4,0.1-0.6,0.2s-0.4,0.2-0.5,0.4
		c-0.1,0.2-0.3,0.3-0.3,0.5s-0.1,0.4-0.1,0.5v1.8c0,0.2,0,0.4,0,0.6c0,0.1,0,0.2,0.1,0.3s0.1,0.1,0.2,0.2c0.1,0,0.2,0.1,0.4,0.1
		c0,0,0.1,0,0.1,0.1c0,0,0,0.1,0,0.1c0,0,0,0.1,0,0.1c0,0-0.1,0.1-0.1,0.1c-0.1,0-0.3,0-0.5,0c-0.2,0-0.5,0-0.7,0
		c-0.3,0-0.5,0-0.7,0c-0.2,0-0.4,0-0.6,0c0,0-0.1,0-0.1-0.1c0,0,0-0.1,0-0.1c0,0,0-0.1,0-0.1c0,0,0.1-0.1,0.1-0.1
		c0.2,0,0.3-0.1,0.4-0.1c0.1,0,0.2-0.1,0.2-0.2s0.1-0.2,0.1-0.3s0-0.3,0-0.5v-1.5c0-0.2,0-0.4,0-0.7c0-0.2-0.1-0.4-0.1-0.6
		c-0.1-0.2-0.2-0.3-0.3-0.5c-0.1-0.1-0.3-0.2-0.6-0.2c-0.3,0-0.5,0.1-0.7,0.2c-0.2,0.1-0.4,0.2-0.5,0.4s-0.2,0.3-0.3,0.5
		c-0.1,0.2-0.1,0.4-0.1,0.6V743.1z"/>
	<path class="st1" d="M245.2,741.5C245.1,741.5,245.1,741.5,245.2,741.5c-0.1,0.1-0.1,0.1-0.1,0.1c0,0.4,0,0.8,0.1,1.1
		c0.1,0.3,0.2,0.5,0.4,0.7s0.4,0.3,0.6,0.4c0.2,0.1,0.5,0.1,0.7,0.1c0.3,0,0.5,0,0.8-0.1c0.3,0,0.5-0.1,0.7-0.3c0,0,0.1,0,0.1,0
		s0.1,0,0.1,0.1c0,0,0,0.1,0.1,0.1c0,0,0,0.1,0,0.1c-0.3,0.3-0.5,0.6-0.9,0.7c-0.3,0.1-0.7,0.2-1.2,0.2c-0.5,0-0.9-0.1-1.2-0.2
		s-0.6-0.3-0.9-0.6c-0.2-0.3-0.4-0.6-0.5-0.9c-0.1-0.3-0.2-0.7-0.2-1.1c0-0.4,0.1-0.8,0.2-1.1s0.3-0.7,0.6-0.9
		c0.2-0.3,0.5-0.5,0.9-0.6s0.7-0.2,1.1-0.2c0.3,0,0.6,0.1,0.9,0.2s0.5,0.3,0.7,0.5c0.2,0.2,0.3,0.4,0.5,0.7c0.1,0.3,0.2,0.6,0.2,0.9
		c0,0.2-0.1,0.3-0.2,0.3H245.2z M247.4,741.1c0.1,0,0.2,0,0.2-0.1c0-0.1,0-0.2,0-0.3c0-0.2,0-0.3-0.1-0.5c-0.1-0.2-0.1-0.3-0.2-0.4
		c-0.1-0.1-0.2-0.2-0.3-0.3c-0.1-0.1-0.3-0.1-0.5-0.1c-0.2,0-0.4,0-0.6,0.1s-0.3,0.2-0.4,0.3c-0.1,0.1-0.2,0.3-0.2,0.4
		c-0.1,0.2-0.1,0.3-0.1,0.5c0,0.1,0,0.2,0,0.2s0,0.1,0.1,0.1H247.4z"/>
	<path class="st1" d="M251.6,743.1c0,0.2,0,0.4,0,0.5c0,0.1,0.1,0.2,0.1,0.3s0.2,0.2,0.3,0.2c0.2,0,0.4,0.1,0.7,0.1
		c0,0,0.1,0,0.1,0.1c0,0,0,0.1,0,0.1c0,0,0,0.1,0,0.1c0,0-0.1,0.1-0.1,0.1c-0.3,0-0.6,0-0.9,0s-0.5,0-0.8,0c-0.3,0-0.5,0-0.8,0
		s-0.5,0-0.8,0c0,0-0.1,0-0.1-0.1c0,0,0-0.1,0-0.1c0,0,0-0.1,0-0.1c0,0,0.1-0.1,0.1-0.1c0.2,0,0.4-0.1,0.5-0.1
		c0.1,0,0.2-0.1,0.3-0.2c0.1-0.1,0.1-0.2,0.1-0.3c0-0.1,0-0.3,0-0.5v-1.8c0-0.4,0-0.7,0-0.9c0-0.2-0.1-0.4-0.1-0.5
		c-0.1-0.1-0.2-0.2-0.3-0.2c-0.1,0-0.3-0.1-0.5-0.1c0,0-0.1,0-0.1-0.1c0,0,0-0.1,0-0.1s0-0.1,0-0.1c0,0,0.1-0.1,0.1-0.1
		c0.2,0,0.4,0,0.7-0.1c0.3,0,0.6-0.1,0.9-0.2c0.1,0,0.2,0,0.3,0c0.1,0,0.1,0.1,0.1,0.2l0,0.8c0,0,0,0,0,0c0,0,0,0,0,0
		c0.2-0.3,0.4-0.6,0.6-0.8s0.6-0.3,1-0.3c0.3,0,0.6,0.1,0.7,0.3c0.2,0.2,0.2,0.4,0.2,0.6c0,0.1-0.1,0.3-0.2,0.4
		c-0.1,0.1-0.3,0.2-0.4,0.2c-0.2,0-0.3,0-0.4-0.1c-0.1-0.1-0.1-0.2-0.1-0.3c0-0.1,0-0.2-0.1-0.3c0-0.1-0.1-0.1-0.3-0.1
		c-0.2,0-0.3,0.1-0.4,0.2s-0.2,0.2-0.3,0.4c-0.1,0.1-0.2,0.3-0.2,0.4c0,0.1-0.1,0.3-0.1,0.3V743.1z"/>
	<path class="st1" d="M157,752.8c-0.1,0-0.2,0-0.2,0.1s-0.1,0.1-0.1,0.2l-0.5,1.4c0,0.1-0.1,0.2-0.1,0.3c0,0.1,0,0.2,0.1,0.3
		c0.1,0.1,0.1,0.1,0.2,0.2c0.1,0,0.2,0.1,0.3,0.1c0.1,0,0.2,0,0.3,0c0.1,0,0.1,0,0.1,0.1s0,0.1,0,0.1c0,0,0,0.1,0,0.1
		c0,0-0.1,0.1-0.1,0.1c-0.2,0-0.4,0-0.7,0s-0.5,0-0.7,0c-0.2,0-0.4,0-0.6,0s-0.4,0-0.6,0c0,0-0.1,0-0.1-0.1c0,0,0-0.1,0-0.1
		c0,0,0-0.1,0-0.1c0,0,0.1-0.1,0.1-0.1l0.2,0c0.1,0,0.2-0.1,0.3-0.1c0.1,0,0.2-0.1,0.3-0.2c0.1-0.1,0.2-0.2,0.2-0.3s0.2-0.3,0.2-0.5
		l2.7-6.8c0-0.1,0.1-0.1,0.2-0.1c0.1,0,0.2,0,0.3,0.1c0.2,0.5,0.4,1.1,0.6,1.6c0.2,0.6,0.5,1.2,0.7,1.8c0.2,0.6,0.5,1.2,0.7,1.8
		s0.5,1.2,0.7,1.7c0.1,0.2,0.2,0.4,0.3,0.5c0.1,0.1,0.2,0.2,0.3,0.3c0.1,0.1,0.2,0.1,0.3,0.1c0.1,0,0.2,0,0.3,0.1c0,0,0.1,0,0.1,0.1
		c0,0,0,0.1,0,0.1c0,0,0,0.1,0,0.1c0,0,0,0.1-0.1,0.1c-0.3,0-0.5,0-0.7,0c-0.2,0-0.5,0-0.8,0c-0.3,0-0.7,0-0.9,0s-0.6,0-0.9,0
		c-0.1,0-0.1,0-0.1-0.1c0,0,0-0.1,0-0.2c0,0,0-0.1,0-0.1c0,0,0.1-0.1,0.1-0.1c0.3,0,0.5-0.1,0.6-0.1s0.2-0.2,0.2-0.4
		c0-0.1,0-0.1,0-0.2c0-0.1,0-0.2-0.1-0.3s-0.1-0.3-0.2-0.5c-0.1-0.2-0.2-0.4-0.3-0.8c0-0.1-0.1-0.2-0.2-0.2c-0.1,0-0.2,0-0.3,0H157z
		 M159.1,752.3c0.1,0,0.2,0,0.2-0.1s0-0.1,0-0.2l-1-2.8c0,0,0-0.1-0.1-0.1s-0.1,0-0.1,0.1L157,752c0,0.1,0,0.2,0,0.2
		c0,0,0.1,0,0.2,0H159.1z"/>
	<path class="st1" d="M165.3,754.1c0,0.2,0,0.4,0,0.5c0,0.1,0,0.2,0.1,0.3s0.1,0.2,0.2,0.2c0.1,0,0.2,0.1,0.4,0.1c0,0,0.1,0,0.1,0.1
		c0,0,0,0.1,0,0.1c0,0,0,0.1,0,0.1c0,0-0.1,0.1-0.1,0.1c-0.1,0-0.2,0-0.5,0c-0.2,0-0.5,0-0.7,0c-0.3,0-0.5,0-0.7,0
		c-0.2,0-0.5,0-0.7,0c0,0-0.1,0-0.1-0.1c0,0,0-0.1,0-0.1c0,0,0-0.1,0-0.1c0,0,0.1-0.1,0.1-0.1c0.2,0,0.4-0.1,0.5-0.1
		c0.1,0,0.2-0.1,0.2-0.2c0.1-0.1,0.1-0.2,0.1-0.3c0-0.1,0-0.3,0-0.5v-1.5c0-0.4,0-0.7,0-1c0-0.3,0-0.5-0.1-0.6
		c0-0.2-0.1-0.3-0.2-0.3s-0.3-0.1-0.4-0.1c0,0-0.1,0-0.1,0c0,0,0-0.1,0-0.1c0,0,0-0.1,0-0.1c0,0,0.1,0,0.1,0c0.2,0,0.4,0,0.7-0.1
		c0.3,0,0.6-0.1,0.9-0.2c0.1,0,0.2,0,0.3,0.1c0.1,0.1,0.1,0.2,0.1,0.3v0.5c0,0,0,0,0,0c0,0,0,0,0,0c0.1-0.1,0.1-0.2,0.2-0.3
		c0.1-0.1,0.2-0.2,0.4-0.3c0.1-0.1,0.3-0.2,0.5-0.2c0.2-0.1,0.4-0.1,0.6-0.1c0.6,0,1.1,0.2,1.4,0.5c0.3,0.3,0.5,0.9,0.5,1.6v2.1
		c0,0.2,0,0.4,0,0.5c0,0.1,0,0.2,0.1,0.3c0,0.1,0.1,0.1,0.2,0.2s0.2,0.1,0.4,0.1c0,0,0.1,0,0.1,0.1c0,0,0,0.1,0,0.1c0,0,0,0.1,0,0.1
		c0,0-0.1,0.1-0.1,0.1c-0.1,0-0.3,0-0.5,0c-0.2,0-0.5,0-0.7,0c-0.3,0-0.5,0-0.7,0c-0.2,0-0.4,0-0.6,0c0,0-0.1,0-0.1-0.1
		c0,0,0-0.1,0-0.1c0,0,0-0.1,0-0.1c0,0,0.1-0.1,0.1-0.1c0.2,0,0.3-0.1,0.4-0.1c0.1,0,0.2-0.1,0.2-0.2s0.1-0.2,0.1-0.3
		c0-0.1,0-0.3,0-0.5v-1.8c0-0.2,0-0.4,0-0.6c0-0.2-0.1-0.4-0.1-0.5c-0.1-0.2-0.2-0.3-0.3-0.4c-0.1-0.1-0.3-0.2-0.6-0.2
		s-0.5,0-0.6,0.1c-0.2,0.1-0.3,0.2-0.5,0.3s-0.2,0.3-0.3,0.5c-0.1,0.2-0.1,0.4-0.1,0.5V754.1z"/>
	<path class="st1" d="M175.5,753.5c0,0.3,0,0.6,0,0.8c0,0.2,0,0.4,0.1,0.5c0.1,0.1,0.1,0.2,0.3,0.2s0.3,0.1,0.5,0.1
		c0,0,0.1,0,0.1,0.1c0,0,0,0.1,0,0.1c0,0,0,0.1,0,0.1c0,0,0,0.1-0.1,0.1c-0.1,0-0.1,0-0.2,0s-0.1,0-0.1,0s-0.1,0-0.1,0
		c-0.1,0-0.1,0-0.2,0c-0.1,0-0.2,0-0.3,0c-0.1,0-0.2,0-0.3,0.1c-0.1,0-0.2,0-0.3,0.1s-0.2,0-0.2,0c-0.1,0-0.1-0.1-0.2-0.2
		c0-0.1-0.1-0.3-0.1-0.5c0,0,0-0.1,0,0c0,0,0,0-0.1,0c-0.2,0.2-0.5,0.4-0.7,0.5c-0.2,0.1-0.5,0.2-0.9,0.2c-0.4,0-0.7-0.1-1-0.2
		s-0.5-0.3-0.7-0.5s-0.3-0.5-0.5-0.8c-0.1-0.3-0.2-0.7-0.2-1.1c0-0.5,0.1-1,0.3-1.4c0.2-0.4,0.4-0.7,0.7-1c0.3-0.3,0.6-0.4,0.9-0.6
		s0.7-0.2,1-0.2c0.2,0,0.3,0,0.5,0.1c0.2,0,0.4,0.1,0.6,0.2v-0.7c0-0.3,0-0.6,0-0.8c0-0.2-0.1-0.4-0.1-0.5c-0.1-0.1-0.2-0.2-0.3-0.2
		c-0.1,0-0.3-0.1-0.6-0.1c0,0-0.1,0-0.1-0.1c0,0,0-0.1,0-0.1s0-0.1,0-0.1c0,0,0-0.1,0.1-0.1c0.1,0,0.3,0,0.4,0c0.2,0,0.3,0,0.5,0
		s0.3,0,0.5-0.1c0.2,0,0.3-0.1,0.5-0.1c0.1,0,0.2,0,0.2,0s0.1,0.1,0.1,0.1V753.5z M174.4,751.1c-0.2-0.2-0.3-0.3-0.5-0.4
		c-0.2-0.1-0.4-0.1-0.6-0.1c-0.2,0-0.5,0-0.6,0.1c-0.2,0.1-0.4,0.2-0.5,0.4s-0.2,0.4-0.3,0.7c-0.1,0.3-0.1,0.7-0.1,1.2
		c0,0.3,0,0.5,0.1,0.8c0.1,0.3,0.1,0.5,0.2,0.7c0.1,0.2,0.2,0.4,0.4,0.5c0.2,0.1,0.3,0.2,0.5,0.2c0.3,0,0.6-0.1,0.8-0.2
		c0.2-0.1,0.4-0.3,0.6-0.5V751.1z"/>
	<path class="st1" d="M179,754.1c0,0.2,0,0.4,0,0.5c0,0.1,0.1,0.2,0.1,0.3c0.1,0.1,0.2,0.2,0.3,0.2c0.2,0,0.4,0.1,0.7,0.1
		c0,0,0.1,0,0.1,0.1c0,0,0,0.1,0,0.1c0,0,0,0.1,0,0.1c0,0-0.1,0.1-0.1,0.1c-0.3,0-0.6,0-0.9,0c-0.3,0-0.5,0-0.8,0
		c-0.3,0-0.5,0-0.8,0s-0.5,0-0.8,0c0,0-0.1,0-0.1-0.1c0,0,0-0.1,0-0.1c0,0,0-0.1,0-0.1c0,0,0.1-0.1,0.1-0.1c0.2,0,0.4-0.1,0.5-0.1
		c0.1,0,0.2-0.1,0.3-0.2s0.1-0.2,0.1-0.3c0-0.1,0-0.3,0-0.5v-1.8c0-0.4,0-0.7,0-0.9c0-0.2-0.1-0.4-0.1-0.5c-0.1-0.1-0.2-0.2-0.3-0.2
		c-0.1,0-0.3-0.1-0.5-0.1c0,0-0.1,0-0.1-0.1s0-0.1,0-0.1s0-0.1,0-0.1c0,0,0.1-0.1,0.1-0.1c0.2,0,0.4,0,0.7-0.1
		c0.3,0,0.6-0.1,0.9-0.2c0.1,0,0.2,0,0.3,0c0.1,0,0.1,0.1,0.1,0.2l0,0.8c0,0,0,0,0,0s0,0,0,0c0.2-0.3,0.4-0.6,0.6-0.8s0.6-0.3,1-0.3
		c0.3,0,0.6,0.1,0.7,0.3s0.2,0.4,0.2,0.6c0,0.1-0.1,0.3-0.2,0.4s-0.3,0.2-0.4,0.2c-0.2,0-0.3,0-0.4-0.1c-0.1-0.1-0.1-0.2-0.1-0.3
		c0-0.1,0-0.2-0.1-0.3c0-0.1-0.1-0.1-0.3-0.1c-0.2,0-0.3,0.1-0.4,0.2s-0.2,0.2-0.3,0.4c-0.1,0.1-0.2,0.3-0.2,0.4
		c0,0.1-0.1,0.3-0.1,0.3V754.1z"/>
	<path class="st1" d="M183.2,752.5C183.2,752.5,183.2,752.5,183.2,752.5c-0.1,0.1-0.1,0.1-0.1,0.1c0,0.4,0,0.8,0.1,1.1
		s0.2,0.5,0.4,0.7s0.4,0.3,0.6,0.4c0.2,0.1,0.5,0.1,0.7,0.1c0.3,0,0.5,0,0.8-0.1c0.3,0,0.5-0.1,0.7-0.3c0,0,0.1,0,0.1,0
		s0.1,0,0.1,0.1c0,0,0,0.1,0.1,0.1c0,0,0,0.1,0,0.1c-0.3,0.3-0.5,0.6-0.9,0.7c-0.3,0.1-0.7,0.2-1.2,0.2c-0.5,0-0.9-0.1-1.2-0.2
		c-0.3-0.1-0.6-0.3-0.9-0.6c-0.2-0.3-0.4-0.6-0.5-0.9c-0.1-0.3-0.2-0.7-0.2-1.1c0-0.4,0.1-0.8,0.2-1.1c0.1-0.4,0.3-0.7,0.6-0.9
		s0.5-0.5,0.9-0.6s0.7-0.2,1.1-0.2c0.3,0,0.6,0.1,0.9,0.2c0.3,0.1,0.5,0.3,0.7,0.5c0.2,0.2,0.3,0.4,0.5,0.7c0.1,0.3,0.2,0.6,0.2,0.9
		c0,0.2-0.1,0.3-0.2,0.3H183.2z M185.4,752.1c0.1,0,0.2,0,0.2-0.1c0-0.1,0-0.2,0-0.3c0-0.2,0-0.3-0.1-0.5c-0.1-0.2-0.1-0.3-0.2-0.4
		c-0.1-0.1-0.2-0.2-0.3-0.3s-0.3-0.1-0.5-0.1c-0.2,0-0.4,0-0.6,0.1c-0.2,0.1-0.3,0.2-0.4,0.3c-0.1,0.1-0.2,0.3-0.2,0.4
		s-0.1,0.3-0.1,0.5c0,0.1,0,0.2,0,0.2c0,0.1,0,0.1,0.1,0.1H185.4z"/>
	<path class="st1" d="M192,754.3c0,0.3,0,0.5,0.1,0.6c0.1,0.1,0.2,0.2,0.3,0.2c0.1,0,0.2,0,0.2,0c0.1,0,0.1-0.1,0.2-0.1
		c0,0,0,0,0.1,0s0.1,0,0.1,0.1c0,0,0,0.1,0,0.1c0,0,0,0.1,0,0.1c-0.3,0.4-0.7,0.6-1.1,0.6c-0.2,0-0.4-0.1-0.6-0.2s-0.3-0.3-0.4-0.4
		c0,0,0,0-0.1,0c-0.2,0.2-0.5,0.3-0.7,0.5c-0.3,0.1-0.6,0.2-1,0.2c-0.5,0-0.8-0.1-1.1-0.4s-0.4-0.6-0.4-1c0-0.6,0.3-1,0.8-1.3
		c0.5-0.3,1.3-0.5,2.3-0.5c0,0,0,0,0-0.1c0,0,0-0.1,0-0.3v-0.3c0-0.2,0-0.4,0-0.6c0-0.2-0.1-0.3-0.2-0.5c-0.1-0.1-0.2-0.2-0.3-0.3
		s-0.3-0.1-0.5-0.1c-0.3,0-0.5,0.1-0.7,0.2c-0.2,0.1-0.3,0.3-0.3,0.4c0,0.1,0,0.2,0.1,0.3s0.1,0.2,0.1,0.3c0,0.1-0.1,0.2-0.2,0.3
		c-0.1,0.1-0.2,0.2-0.4,0.2c-0.2,0-0.4-0.1-0.5-0.2c-0.1-0.1-0.1-0.3-0.1-0.4c0-0.2,0.1-0.4,0.2-0.6s0.3-0.3,0.5-0.5
		s0.4-0.2,0.7-0.3s0.5-0.1,0.8-0.1c0.6,0,1.1,0.1,1.5,0.4c0.4,0.3,0.6,0.8,0.6,1.5V754.3z M190.9,753.1c0-0.1,0-0.1,0-0.2
		c0,0,0,0-0.1,0c-0.7,0.1-1.1,0.2-1.5,0.4c-0.3,0.2-0.5,0.5-0.5,0.8c0,0.2,0.1,0.4,0.2,0.6s0.3,0.2,0.6,0.2c0.2,0,0.4,0,0.6-0.1
		c0.2-0.1,0.4-0.2,0.5-0.3c0.1-0.1,0.1-0.1,0.1-0.2V753.1z"/>
	<path class="st1" d="M204.2,754.6c0,0.1,0,0.1-0.1,0.1c-0.2,0.2-0.4,0.3-0.6,0.4c-0.2,0.1-0.4,0.2-0.7,0.3
		c-0.2,0.1-0.5,0.1-0.9,0.2c-0.3,0-0.7,0.1-1.2,0.1c-0.7,0-1.2-0.1-1.7-0.3c-0.5-0.2-0.9-0.5-1.3-0.8c-0.3-0.4-0.6-0.8-0.8-1.3
		c-0.2-0.5-0.3-1.1-0.3-1.8c0-0.7,0.1-1.3,0.3-1.8s0.5-1,0.9-1.3c0.4-0.4,0.8-0.6,1.3-0.8c0.5-0.2,1.1-0.3,1.7-0.3
		c0.4,0,0.8,0.1,1.1,0.2c0.3,0.1,0.7,0.2,1,0.4c0.2,0.1,0.3,0.1,0.4,0.1c0.1,0,0.2-0.1,0.3-0.2c0,0,0-0.1,0.1-0.1c0,0,0.1,0,0.1,0
		c0,0,0.1,0,0.1,0c0,0,0,0,0,0.1c-0.1,0.3-0.1,0.6-0.1,1c0,0.4,0,0.8,0.1,1.2c0,0,0,0.1-0.1,0.1c0,0-0.1,0.1-0.1,0.1s-0.1,0-0.1,0
		c0,0-0.1-0.1-0.1-0.1c-0.1-0.7-0.4-1.2-0.9-1.6c-0.5-0.4-1.1-0.6-1.9-0.6c-0.5,0-0.9,0.1-1.2,0.3c-0.3,0.2-0.6,0.5-0.8,0.8
		s-0.4,0.7-0.5,1.1c-0.1,0.4-0.1,0.8-0.1,1.3c0,0.6,0.1,1.1,0.2,1.6c0.1,0.5,0.3,0.9,0.5,1.2c0.2,0.3,0.5,0.6,0.8,0.8
		c0.3,0.2,0.7,0.3,1.1,0.3c0.3,0,0.6,0,0.9-0.1c0.3,0,0.5-0.1,0.7-0.2c0.2-0.1,0.3-0.3,0.4-0.5c0.1-0.2,0.1-0.4,0.1-0.8
		c0-0.2,0-0.4,0-0.6s-0.1-0.2-0.2-0.3s-0.2-0.1-0.4-0.2c-0.2,0-0.3-0.1-0.6-0.1c-0.1,0-0.1,0-0.1-0.1c0,0,0-0.1,0-0.1
		c0,0,0-0.1,0-0.1c0,0,0.1-0.1,0.1-0.1c0.3,0,0.6,0,0.9,0c0.3,0,0.6,0,0.8,0c0.1,0,0.2,0,0.3,0c0.1,0,0.2,0,0.3,0c0.1,0,0.2,0,0.3,0
		s0.3,0,0.4,0c0,0,0.1,0,0.1,0.1c0,0,0,0.1,0,0.1c0,0,0,0.1,0,0.1c0,0-0.1,0.1-0.1,0.1c-0.2,0-0.3,0-0.4,0.1s-0.2,0.1-0.2,0.2
		s-0.1,0.2-0.1,0.3c0,0.1,0,0.2,0,0.4V754.6z"/>
	<path class="st1" d="M207.6,754.1c0,0.2,0,0.4,0,0.5c0,0.1,0,0.2,0.1,0.3s0.1,0.2,0.2,0.2c0.1,0,0.2,0.1,0.4,0.1c0,0,0.1,0,0.1,0.1
		c0,0,0,0.1,0,0.1c0,0,0,0.1,0,0.1c0,0-0.1,0.1-0.1,0.1c-0.1,0-0.3,0-0.6,0c-0.2,0-0.5,0-0.7,0c-0.3,0-0.5,0-0.8,0s-0.5,0-0.7,0
		c0,0-0.1,0-0.1-0.1c0,0,0-0.1,0-0.1c0,0,0-0.1,0-0.1c0,0,0.1-0.1,0.1-0.1c0.2,0,0.4-0.1,0.5-0.1c0.1,0,0.2-0.1,0.3-0.2
		c0.1-0.1,0.1-0.2,0.1-0.3c0-0.1,0-0.3,0-0.5v-1.9c0-0.3,0-0.6,0-0.8c0-0.2-0.1-0.4-0.1-0.5c-0.1-0.1-0.1-0.2-0.3-0.2
		c-0.1,0-0.3-0.1-0.5-0.1c0,0-0.1,0-0.1-0.1c0,0,0-0.1,0-0.1s0-0.1,0-0.1c0,0,0.1-0.1,0.1-0.1c0.1,0,0.2,0,0.3,0c0.1,0,0.2,0,0.4,0
		c0.1,0,0.3,0,0.4,0s0.2,0,0.4-0.1c0.1,0,0.2,0,0.2-0.1c0.1,0,0.1,0,0.1,0c0.1,0,0.2,0,0.2,0.1c0,0.1,0,0.1,0,0.2V754.1z M207,748.8
		c-0.2,0-0.4-0.1-0.5-0.2c-0.1-0.1-0.2-0.3-0.2-0.5c0-0.2,0.1-0.3,0.2-0.5c0.1-0.1,0.3-0.2,0.5-0.2c0.2,0,0.3,0.1,0.5,0.2
		c0.1,0.1,0.2,0.3,0.2,0.5c0,0.2-0.1,0.3-0.2,0.4C207.3,748.8,207.1,748.8,207,748.8z"/>
	<path class="st1" d="M209.8,749.5c0-0.3,0-0.6,0-0.8c0-0.2,0-0.4-0.1-0.5c-0.1-0.1-0.1-0.2-0.2-0.2c-0.1,0-0.3-0.1-0.5-0.1
		c0,0-0.1,0-0.1-0.1c0,0,0-0.1,0-0.1c0,0,0-0.1,0-0.1c0,0,0.1-0.1,0.1-0.1c0.2,0,0.5,0,0.8-0.1c0.3,0,0.6-0.1,0.9-0.2
		c0.1,0,0.2,0,0.2,0c0,0,0.1,0.1,0.1,0.1v3.4c0,0,0,0,0,0c0,0,0,0,0,0c0.2-0.2,0.4-0.4,0.7-0.6c0.3-0.2,0.6-0.3,1-0.3
		c0.3,0,0.6,0.1,0.9,0.2c0.3,0.1,0.5,0.3,0.7,0.6c0.2,0.2,0.3,0.5,0.4,0.8c0.1,0.3,0.1,0.7,0.1,1c0,0.5-0.1,1-0.2,1.4
		c-0.2,0.4-0.4,0.7-0.7,1s-0.6,0.4-1,0.6c-0.4,0.1-0.8,0.2-1.2,0.2c-0.3,0-0.6,0-0.9-0.1s-0.7-0.1-1.1-0.3V749.5z M211,754.4
		c0,0,0,0.1,0.1,0.2c0.1,0.1,0.1,0.2,0.2,0.3c0.1,0.1,0.2,0.2,0.4,0.2s0.3,0.1,0.5,0.1c0.3,0,0.5-0.1,0.7-0.2
		c0.2-0.1,0.3-0.3,0.5-0.5c0.1-0.2,0.2-0.5,0.2-0.8s0.1-0.6,0.1-0.9c0-0.3,0-0.5,0-0.8c0-0.2-0.1-0.5-0.2-0.6
		c-0.1-0.2-0.2-0.3-0.4-0.4c-0.2-0.1-0.4-0.2-0.6-0.2c-0.2,0-0.4,0-0.6,0.1c-0.2,0.1-0.3,0.2-0.5,0.3c-0.1,0.1-0.2,0.2-0.3,0.4
		c-0.1,0.1-0.1,0.3-0.1,0.4V754.4z"/>
	<path class="st1" d="M219.4,750.2c0,0.1,0,0.2-0.1,0.3c0,0.1,0,0.3,0,0.4c0,0.2,0,0.3,0,0.5s0,0.3,0,0.4c0,0,0,0,0,0.1
		c0,0-0.1,0-0.1,0c0,0-0.1,0-0.1,0c0,0-0.1,0-0.1-0.1c-0.1-0.4-0.2-0.8-0.4-1c-0.2-0.2-0.5-0.3-1-0.3c-0.3,0-0.5,0.1-0.7,0.2
		c-0.2,0.1-0.3,0.3-0.3,0.6c0,0.2,0.1,0.4,0.2,0.5s0.4,0.2,0.6,0.3c0.1,0,0.2,0.1,0.4,0.2c0.2,0.1,0.3,0.1,0.4,0.2
		c0.2,0.1,0.4,0.2,0.6,0.3c0.2,0.1,0.3,0.2,0.5,0.4c0.1,0.1,0.2,0.3,0.3,0.5c0.1,0.2,0.1,0.4,0.1,0.6c0,0.3-0.1,0.6-0.2,0.8
		c-0.1,0.2-0.3,0.4-0.5,0.5c-0.2,0.1-0.4,0.2-0.7,0.3c-0.3,0.1-0.5,0.1-0.8,0.1c-0.2,0-0.4,0-0.7-0.1c-0.3,0-0.5-0.1-0.7-0.2
		c0,0-0.1,0-0.1,0c-0.1,0-0.1,0.1-0.1,0.2c0,0,0,0-0.1,0s-0.1,0-0.1,0c0,0-0.1,0-0.1,0s0,0,0-0.1c0-0.1,0-0.2,0-0.3
		c0-0.1,0-0.2,0-0.3c0-0.1,0-0.2,0-0.3c0-0.1,0-0.2,0-0.3c0-0.1,0-0.2,0-0.3s0-0.2,0-0.2c0,0,0-0.1,0-0.1c0,0,0.1,0,0.1,0
		s0.1,0,0.1,0c0,0,0.1,0,0.1,0.1c0.1,0.2,0.1,0.4,0.2,0.6c0.1,0.2,0.2,0.3,0.3,0.4c0.1,0.1,0.3,0.2,0.5,0.3c0.2,0.1,0.4,0.1,0.7,0.1
		c0.3,0,0.5-0.1,0.7-0.2c0.2-0.2,0.3-0.4,0.3-0.7c0-0.3-0.1-0.5-0.3-0.6c-0.2-0.1-0.4-0.3-0.6-0.4c-0.1,0-0.2-0.1-0.3-0.1
		s-0.2-0.1-0.4-0.1c-0.2-0.1-0.4-0.1-0.5-0.2s-0.3-0.2-0.5-0.3c-0.1-0.1-0.2-0.3-0.3-0.4c-0.1-0.2-0.1-0.4-0.1-0.6
		c0-0.3,0.1-0.5,0.2-0.7s0.3-0.4,0.5-0.5c0.2-0.1,0.4-0.2,0.7-0.3c0.2-0.1,0.5-0.1,0.7-0.1c0.2,0,0.4,0,0.6,0.1
		c0.2,0.1,0.4,0.1,0.6,0.3c0,0,0.1,0,0.1,0c0.1,0,0.1-0.1,0.1-0.2c0,0,0-0.1,0.1-0.1c0,0,0.1,0,0.1,0S219.4,750.1,219.4,750.2
		C219.4,750.1,219.4,750.1,219.4,750.2z"/>
	<path class="st1" d="M226,752.7c0,0.5-0.1,0.9-0.2,1.3c-0.1,0.4-0.3,0.7-0.6,0.9s-0.6,0.4-0.9,0.6c-0.4,0.1-0.7,0.2-1.2,0.2
		c-0.4,0-0.7-0.1-1-0.2c-0.3-0.1-0.6-0.3-0.8-0.6c-0.2-0.2-0.4-0.6-0.6-0.9c-0.1-0.4-0.2-0.8-0.2-1.3c0-0.4,0.1-0.8,0.2-1.1
		c0.1-0.3,0.3-0.6,0.6-0.9c0.2-0.2,0.5-0.4,0.9-0.6c0.3-0.1,0.7-0.2,1.1-0.2c0.4,0,0.8,0.1,1.1,0.2c0.3,0.1,0.6,0.3,0.9,0.5
		c0.2,0.2,0.4,0.5,0.6,0.8C225.9,751.9,226,752.2,226,752.7z M224.7,752.8c0-0.3,0-0.6-0.1-0.9c0-0.3-0.1-0.5-0.2-0.8
		c-0.1-0.2-0.2-0.4-0.4-0.5c-0.2-0.1-0.4-0.2-0.7-0.2c-0.3,0-0.6,0.1-0.8,0.2c-0.2,0.1-0.4,0.3-0.5,0.5c-0.1,0.2-0.2,0.5-0.2,0.8
		c0,0.3-0.1,0.6-0.1,0.9c0,0.3,0,0.6,0.1,0.8c0,0.3,0.1,0.5,0.2,0.8c0.1,0.2,0.3,0.4,0.5,0.6s0.4,0.2,0.8,0.2c0.3,0,0.6-0.1,0.8-0.2
		c0.2-0.1,0.3-0.3,0.5-0.6c0.1-0.2,0.2-0.5,0.2-0.8C224.7,753.4,224.7,753.1,224.7,752.8z"/>
	<path class="st1" d="M228.7,754.1c0,0.2,0,0.4,0,0.5c0,0.1,0,0.2,0.1,0.3s0.1,0.2,0.2,0.2c0.1,0,0.2,0.1,0.4,0.1c0,0,0.1,0,0.1,0.1
		c0,0,0,0.1,0,0.1c0,0,0,0.1,0,0.1c0,0-0.1,0.1-0.1,0.1c-0.1,0-0.2,0-0.5,0c-0.2,0-0.5,0-0.7,0c-0.3,0-0.5,0-0.7,0
		c-0.2,0-0.5,0-0.7,0c0,0-0.1,0-0.1-0.1c0,0,0-0.1,0-0.1c0,0,0-0.1,0-0.1c0,0,0.1-0.1,0.1-0.1c0.2,0,0.4-0.1,0.5-0.1
		c0.1,0,0.2-0.1,0.2-0.2c0.1-0.1,0.1-0.2,0.1-0.3c0-0.1,0-0.3,0-0.5v-1.5c0-0.4,0-0.7,0-1c0-0.3,0-0.5-0.1-0.6
		c0-0.2-0.1-0.3-0.2-0.3s-0.3-0.1-0.4-0.1c0,0-0.1,0-0.1,0c0,0,0-0.1,0-0.1c0,0,0-0.1,0-0.1c0,0,0.1,0,0.1,0c0.2,0,0.4,0,0.7-0.1
		c0.3,0,0.6-0.1,0.9-0.2c0.1,0,0.2,0,0.3,0.1c0.1,0.1,0.1,0.2,0.1,0.3v0.5c0,0,0,0,0,0c0,0,0,0,0,0c0.1-0.1,0.1-0.2,0.2-0.3
		c0.1-0.1,0.2-0.2,0.4-0.3c0.1-0.1,0.3-0.2,0.5-0.2c0.2-0.1,0.4-0.1,0.6-0.1c0.6,0,1.1,0.2,1.4,0.5c0.3,0.3,0.5,0.9,0.5,1.6v2.1
		c0,0.2,0,0.4,0,0.5c0,0.1,0,0.2,0.1,0.3c0,0.1,0.1,0.1,0.2,0.2s0.2,0.1,0.4,0.1c0,0,0.1,0,0.1,0.1c0,0,0,0.1,0,0.1c0,0,0,0.1,0,0.1
		c0,0-0.1,0.1-0.1,0.1c-0.1,0-0.3,0-0.5,0c-0.2,0-0.5,0-0.7,0c-0.3,0-0.5,0-0.7,0c-0.2,0-0.4,0-0.6,0c0,0-0.1,0-0.1-0.1
		c0,0,0-0.1,0-0.1c0,0,0-0.1,0-0.1c0,0,0.1-0.1,0.1-0.1c0.2,0,0.3-0.1,0.4-0.1c0.1,0,0.2-0.1,0.2-0.2s0.1-0.2,0.1-0.3
		c0-0.1,0-0.3,0-0.5v-1.8c0-0.2,0-0.4,0-0.6c0-0.2-0.1-0.4-0.1-0.5c-0.1-0.2-0.2-0.3-0.3-0.4c-0.1-0.1-0.3-0.2-0.6-0.2
		s-0.5,0-0.6,0.1c-0.2,0.1-0.3,0.2-0.5,0.3s-0.2,0.3-0.3,0.5c-0.1,0.2-0.1,0.4-0.1,0.5V754.1z"/>
</g>
</svg>
