<?xml version="1.0" encoding="utf-8"?>
<!-- Generator: Adobe Illustrator 21.1.0, SVG Export Plug-In . SVG Version: 6.00 Build 0)  -->
<svg version="1.1" id="Layer_1" xmlns="http://www.w3.org/2000/svg" xmlns:xlink="http://www.w3.org/1999/xlink" x="0px" y="0px"
	 viewBox="0 0 621.4 801.4" style="enable-background:new 0 0 621.4 801.4;" xml:space="preserve">
<style type="text/css">
	.st0{fill:#FFFFFF;}
	.st1{fill:#FFFFFF;stroke:#FFFFFF;stroke-width:0.25;stroke-miterlimit:10;}
	.st2{stroke:#000000;stroke-width:0.25;stroke-miterlimit:10;}
	.st3{fill:#1F8AC9;}
	.st4{fill:#000101;stroke:#000101;stroke-width:0.25;stroke-miterlimit:10;}
	.st5{opacity:0.75;fill:#FFFFFF;}
	.st6{fill:#9A453E;}
	.st7{fill:#5D2318;}
	.st8{fill:#5D2318;stroke:#5D2318;stroke-width:0.25;stroke-miterlimit:10;}
	.st9{fill:#9A453E;stroke:#9A453E;stroke-width:0.25;stroke-miterlimit:10;}
	.st10{fill:#933A28;}
	.st11{fill:#29326B;stroke:#29326B;stroke-width:0.25;stroke-miterlimit:10;}
	.st12{fill:#FFFFFF;fill-opacity:0.27;}
	.st13{fill:#5D2217;}
	.st14{fill:#99443E;}
	.st15{stroke:#000000;stroke-width:0.5;stroke-miterlimit:10;}
	.st16{fill:#473181;stroke:#473181;stroke-width:0.5;stroke-miterlimit:10;}
	.st17{fill:#090E31;}
	.st18{fill:#442033;}
	.st19{fill:#473181;}
	.st20{fill:#BDA677;}
	.st21{fill:#FFFFFF;stroke:#FFFFFF;stroke-miterlimit:10;}
	.st22{fill:#2C3471;}
	.st23{fill:#2C3471;stroke:#2C3471;stroke-width:0.25;stroke-miterlimit:10;}
	.st24{fill:#00B4EC;}
	.st25{opacity:0.15;}
	.st26{fill:#21283A;stroke:#21283A;stroke-width:0.25;stroke-miterlimit:10;}
	.st27{clip-path:url(#SVGID_2_);}
	.st28{opacity:0.12;}
	.st29{fill:#0C2537;}
	.st30{opacity:0.8;}
	.st31{fill:#737273;}
	.st32{opacity:0.85;fill:#FFFFFF;}
	.st33{fill:#B9DCE8;}
</style>
<g>
	<g>
		<path class="st0" d="M135,642.1c0,0.7,0.1,1.3,0.1,2c0,1.8-0.4,3.7-0.4,5.5c0,0.6,0.3,0.8,0.8,0.8c1,0,2-0.2,3.1-0.2
			c3.5,0,4.2-0.5,4.2,5.5c0,3-8.3,0.7-8.3,3c0,1.8,0.2,3.6,0.2,5.3c0,1,0,2,0,3.1c0,2.4,0.8,4.7,0.8,7.1c0.2,1.5,3.7,1.2,4.7,1.2
			c2.6,0,3.6-0.3,3.6,3.5c0,1.3,0,2.4-0.9,2.5c-0.6,0-1-0.1-1.5-0.1c-1.3,0-2.5,0.3-3.9,0.3c-0.2,0-0.5,0-0.8,0
			c-1.8,0-3.5,0.4-5.3,0.4c-1.5,0-2.5,0.1-2.6-1.2c-0.1-1.3-0.3-2.5-0.3-3.8c0-0.3,0-0.7,0-1c0-0.9-0.1-1.9-0.1-2.8
			c0-1.1,0.1-2.3,0.1-3.4c0-1-0.2-2-0.2-3c0-0.6,0-1.1,0-1.6c0-8.9-0.6-17.8-0.6-26.5c0-0.7,0-1.4,0-2.1c0-0.6-0.1-1.2-0.1-1.8
			c0-1.5,3.9-1.8,6-1.8c1.2,0,2.4,0.2,3.5,0.2c0.9,0,1.9,0,2.9,0c0.3,0,0.6,0,0.8,0c0.1,0,0.2,0,0.4,0c1.7,0,1.5,3.1,1.5,5.2
			c0,2.1-1.7,1.6-3.1,1.6c-0.3,0-0.6,0-1.1-0.1C136.7,639.8,135,639.1,135,642.1z"/>
		<path class="st0" d="M168.5,676.1c0,3.5,0.6,3.9-5.9,3.9c-3.6,0-0.2-5.7-4.2-17.3c-0.8-1.9-1.8-3.4-3.8-3.4
			c-0.9,0-0.8,1.7-0.8,3.1c0,1.3,0.1,2.5,0.1,3.8c0,3.7,0,7.4,0,11c0,2.7-3.2,0.5-5.7,1.6c-0.1,0-0.2,0.1-0.3,0.1
			c-0.4,0-0.7-0.3-0.7-0.8c0-0.3,0-0.7,0-1c0-2.6-0.6-5.3-0.6-8.1c0-0.8,0-1.8,0-2.6c-0.1-2.3-0.2-4.7-0.2-7c0-7-0.3-14.5,0.6-21.3
			c0.1-2-0.4-5.9,1.1-6.2c1.7-0.4,3.5-0.5,5.3-0.5c1.1,0,2.1,0.1,3.2,0.1c0.2,0,0.3,0,0.5,0c7.1,0,10.6,2.9,10.6,11.3
			c0,4.5-0.1,12.2-3.3,13.5c-0.6,0.2-0.7,0.4-1.4,0.9C167.4,661.5,168.1,665,168.5,676.1z M157.4,637.6c-1.3,0-3.3-0.1-3.4,1.4
			c0,3.1-0.1,6.3-0.1,9.4c0,2.7-0.6,5.4,2.2,5.4c4.6,0,5.6-0.6,5.9-8.2C161.7,642,162.2,637.6,157.4,637.6z"/>
		<path class="st0" d="M194.3,659.2c0,5.9,0.3,15.2-2.3,18c-2.7,3-6.9,3.4-10.4,3.4c-8.5,0-10.2-6.7-10.2-15c0-1,0.2-2,0.2-3
			c0-1.8-0.2-3.7-0.2-5.7c0-1.7,0.1-3.4,0.1-5c0-1.2-0.1-2.3-0.1-3.5c0-6.4-0.3-15.4,6.4-16.9c1.6-0.4,3.3-0.4,4.9-0.4
			c4.4,0,9.2,0.8,10.2,6.6c0.8,6.1,1.3,12.7,1.3,19.2C194.3,657.7,194.3,658.4,194.3,659.2z M182,674c6.3,0,5.3-4.8,5.4-12.6
			c0-0.2,0-0.3,0-0.5c0.2-4.7,0.2-9.5,0.2-14.3c0-1-0.1-2.1-0.1-3.1c0-0.4,0.1-0.9,0.1-1.4c0-2.8-0.5-5.7-3.8-5.7
			c-5.4,0-4.7,4.8-4.7,15.6c0,1.2,0.3,2.4,0.3,3.5c0,2.7-0.8,5.7-0.8,8.2c0,0.8,0.1,1.5,0.1,2.2s-0.1,1.5-0.1,2.2
			C178.5,670.6,179,674,182,674z"/>
		<path class="st0" d="M207.4,659.7c-7.5-1-10.2-3.5-10.2-9.6c0-0.5,0.1-1,0.1-1.5c0-0.2,0-0.4,0-0.7c0.2-5.3-0.5-13.2,4.7-14.9
			c3.3-1.1,5.9-1.7,8.7-1.7c4.9,0,7.8,5.8,7.8,10c0,1,0.1,2,0,2.9c-0.2,1.4-0.3,1.9-1.6,1.9c-1.2,0-2.4,0.6-3.4,0.6
			c-0.5,0-0.9-0.3-0.9-1.4c0-0.2,0-0.4,0-0.6c0-3.5-0.8-6.5-4.6-6.5c-4,0-4.7,3.3-4.7,7.9c0,3.8,0.8,5.9,4.1,6.7
			c5.6,0.3,10.3-0.5,10.7,13.4c0,4.1-0.3,11.4-3.9,12.9c-2.9,1.3-5,1.7-7.8,1.7c-0.7,0-1.3-0.2-2-0.2c0,0-0.1,0-0.2,0
			c-6,0-7-9.9-7.1-11.2c0-0.7-0.2-1.4-0.2-2c0-1.7,5.2-1.8,6-1.8c1.6,0.2,1.7,4.5,2.1,6c0.2,1.2,1.6,2.5,3.6,2.5c2.9,0,3-3.5,3-5.6
			c0-0.6,0-1.3,0-1.9c0,0,0,0,0,0C211.7,663.8,212.2,660.2,207.4,659.7z"/>
		<path class="st0" d="M259.5,661.2c0,3-0.3,6-0.5,9c0,7.8-3.9,11.8-12.6,11.8c-0.3,0-0.6,0-0.9,0c-1.6,0-3.3,0.2-5,0.2
			c-3.5,0-3.3-0.9-3.8-8.6c-0.2-2.9-0.2-5.7-0.3-8.7c0-0.2,0-0.4,0-0.7c0-0.4,0-0.8,0-1.1c0-4.3,0.1-8.7,0.5-13c0-0.8,0-1.5,0.1-2.2
			c0-0.4,0-0.9,0-1.3c0-3.9,0.2-7.7,0.4-11.6c0.3-2.7,7-2,8-2c7,0,13.1,1.7,13.6,6.4c0.2,1.9,0.4,3.8,0.4,5.7c0,0.2,0,0.5,0,0.8
			c0,2.6,0,5.2,0.2,7.8C259.5,656.3,259.5,658.8,259.5,661.2z M243.8,650.4c0,2.9,0.2,5.6,0.2,8.6c0,0.9-0.1,1.8-0.1,2.7
			c0,1,0.3,2.1,0.3,3.1c0.1,3.2,0.1,6.4,0.3,9.6c0,0.8,0.3,0.9,1,0.9c2.3,0,5.5-0.8,6.2-3.3c0.7-2.6,0.9-5.6,0.9-8.2
			c0-0.7,0-1.3,0-2c0-4,0.5-8.3,0.5-12.4c0-1.2-0.2-2.4-0.1-3.6c0-0.3,0-0.6,0-0.8c0-1.9-0.3-5-2.3-5.2c-1-0.1-2-0.2-3-0.3
			C243.5,639.8,243.8,639.6,243.8,650.4z"/>
		<path class="st0" d="M269.2,652.7c0,0.7,0.4,0.8,0.9,0.8c1.8,0,3.8-0.2,5.6-0.3c1.6,0,1.6,2.6,1.6,4.1c0,1.9,0.1,3.1-1.4,3.1
			c-1.9,0-3.7,0.2-5.6,0.2c-1.6,0-1,2.8-1,4.6c0.2,2.8-0.6,9.5,1.1,9.5c2.1,0,4.4-0.9,6.3-0.9c1,0,1.5,0.2,1.5,1.4
			c0,1.5,0.4,3,0.4,4.5c0,1.5-2.7,1.5-4.3,1.5c-0.4,0-0.9-0.2-1.3-0.2c-1,0-2,0.3-3,0.3c-0.6,0-1.1-0.1-1.7-0.1
			c-1.1,0-2.3,0.1-3.4,0.1c-2.1,0-2.1-13.7-2.1-14.9c0-1.3,0-2.5,0-3.8c0-0.8,0.1-1.6,0.1-2.4c0-2-0.2-4.1-0.2-6.3
			c0-0.8,0-1.6,0-2.3c0-1.8,0-3.7,0-5.5c0-3.9,0.3-7.4,0.3-11.1c0-1.6-0.2-2.7,7.3-2.7c2,0,3.9,0.5,6,0.7c2,0.2,1.4,3.2,1.4,5
			c0,1.1-0.4,1.4-1.1,1.4c-1.9-0.1-4.1-0.3-6-0.3s-0.8,7.3-1.2,7.3C269.2,648.5,269.2,650.6,269.2,652.7z"/>
		<path class="st0" d="M291.3,659.7c-7.5-1-10.2-3.5-10.2-9.6c0-0.5,0.1-1,0.1-1.5c0-0.2,0-0.4,0-0.7c0.2-5.3-0.5-13.2,4.7-14.9
			c3.3-1.1,5.9-1.7,8.7-1.7c4.9,0,7.8,5.8,7.8,10c0,1,0.1,2,0,2.9c-0.2,1.4-0.3,1.9-1.6,1.9c-1.2,0-2.4,0.6-3.4,0.6
			c-0.5,0-0.9-0.3-0.9-1.4c0-0.2,0-0.4,0-0.6c0-3.5-0.8-6.5-4.6-6.5c-4,0-4.7,3.3-4.7,7.9c0,3.8,0.8,5.9,4.1,6.7
			c5.6,0.3,10.3-0.5,10.7,13.4c0,4.1-0.3,11.4-3.9,12.9c-2.9,1.3-5,1.7-7.8,1.7c-0.7,0-1.3-0.2-2-0.2c0,0-0.1,0-0.2,0
			c-6,0-7-9.9-7.1-11.2c0-0.7-0.2-1.4-0.2-2c0-1.7,5.2-1.8,6-1.8c1.6,0.2,1.7,4.5,2.1,6c0.2,1.2,1.6,2.5,3.6,2.5c2.9,0,3-3.5,3-5.6
			c0-0.6,0-1.3,0-1.9c0,0,0,0,0,0C295.6,663.8,296.1,660.2,291.3,659.7z"/>
		<path class="st0" d="M327.1,648.1c0,2.6-0.2,5.2-0.2,7.8c0.1,2.1-0.2,3.2,0.8,3.2c1,0,2.1-0.2,3.1-0.2c4.2,0,4.5,0.5,4.5,5.3
			c0,1.9-6.5,2-6.3,2c-0.8,0-2.1,0-2.1,0.9c0,4.1,0.6,8.5,0.6,12.6c0,2.4-3.3,1.6-5.2,1.6c-2.4,0-1.1-0.9-1.8-5.6
			c0-1.6-0.1-3.1-0.1-4.6c0-0.5,0-1,0-1.6c0-0.9,0-1.8,0-2.8c0-0.8,0.1-1.7,0.1-2.6c0-0.5-0.1-1-0.1-1.6c0-1.1,0.1-2.2,0.1-3.2
			c0-0.7,0-1.4,0-2.1c0-1.1,0-2.3,0-3.4c0-1.6-0.1-3.1-0.1-4.6c0-3.8,0.4-7.5,0.4-11.3c0.2-3-0.5-4.3,7-4.3c0.2,0,0.5,0,0.8,0
			c1.5,0,3-0.3,4.4-0.3c2.7,0,2.5,3.2,2.5,5.6c0,0.6-0.4,0.9-1.1,0.9c-1.8,0-3.6,0-5.4,0c-2.4,0-1.8,2-1.9,6.4
			C327.1,646.9,327.1,647.5,327.1,648.1z"/>
		<path class="st0" d="M344.1,641.3c0,0.9-0.1,1.9-0.1,2.8c0,2.1,0.3,4.3,0.3,6.4c0,2.4,0,4.7,0,7.1c0,1,0,2,0,2.9c0,0.3,0,0.7,0,1
			c0,4.6,0.7,9.2,0.7,13.7c0,0.4,0.4,0.6,0.9,0.6c2.1,0,4.1-0.4,6.1-0.5c1.6,0,1.7,5,1.7,5.3c0,1.6-5.4,1.7-6.3,1.7
			c-2.3,0-8.4,0.1-8.6-1.2c-0.5-2.9-0.8-5.5-0.8-8.5c0-0.3,0-0.7,0-1c0-0.5,0-0.9,0-1.4c0-0.8,0.1-1.6,0.1-2.3
			c0-0.8-0.1-1.7-0.1-2.5c0-1,0.1-2.1,0.1-3.1c0-2.5-0.3-5.1-0.3-7.6c0-1.4,0-2.8,0-4.1c0-0.8,0-1.7,0-2.6s0-1.7,0-2.6
			c0-0.3,0-0.6,0-0.8c0-0.9,0-1.8,0-2.7c0-1.7,0-3.4-0.1-5.2c0-1.2,0-2.2,1.8-2.2c3.8,0,4.7,0,4.7,4.6c0,0,0,0,0,0
			C344,639.8,344.1,640.6,344.1,641.3z"/>
		<path class="st0" d="M376.3,661.3c0,6-0.5,12.6-1.3,18.4c-0.1,0.8-0.4,1.1-1.2,1.1c-2.5,0-4.3,0.4-4.3-1.9c0-0.9,0.1-1.8,0.1-2.7
			c-0.1-1.6-0.2-3.1-0.2-4.7c0-0.8,0-1.5,0-2.3c0-0.5,0-1,0-1.5c0-1.4,0.1-2.7,0.1-4.1c0-1.2-0.1-1.6-1-1.6c-3.1,0-6.9-0.3-6.9,1.5
			c0.1,4.2,0.2,8.4,0.6,12.6c0.1,0.8,0.6,1.5,0.6,2.3c0,1.7-0.3,2.2-1.9,2.2c-2.3,0-5.4,0.2-5.4-1.5c0-2.1-0.2-4.2-0.2-6.3
			c0-1.2,0.2-2.4,0.2-3.7c0-1.3-0.1-2.6-0.1-3.9c0.1-3.6,0.1-7.2,0.2-10.9c0-1,0-1.9,0-2.9c0-1.1,0.2-2.3,0.2-3.4
			c0-0.6-0.1-1.1-0.1-1.7c0-5.5,0-12.7,8-12.7c7.1,0,12.5,3,12.5,11.7c0,2.9,0,5.8,0,8.6C376.3,656.6,376.3,659,376.3,661.3z
			 M366.2,639.3c-4.8,0-4.7,3.6-4.7,10.8c0,0.5,0.1,1.1,0.1,1.8c0,0.8-0.1,1.6-0.1,2.4s0.4,0.9,1,0.9c1.2,0,2.4-0.1,3.6-0.1
			c0.8,0,1.5,0,2.1,0c1.9,0,1.3-2.9,1.4-4.7c0-1.1,0.1-2.2,0.2-3.2C369.7,643.8,370,639.3,366.2,639.3z"/>
		<path class="st0" d="M403.6,651.9c-1,2.1-1.7,6.2-3.5,6.3c-1.8,0.1-3.8,0.6-5.5,0.6c-1.9,0-2.9-5.6-3.4-7.1
			c-1.1-3.1-2.1-6.1-3.6-9.1c-0.1-0.3-0.2-0.7-0.6-0.8c-0.5,0.1-0.7,3-0.7,4c0,0.3,0,0.6,0,0.8c0,4.4,0.2,8.7,0.2,13.2
			c0,1.1,0,2.2,0,3.3c0,1.2,0,2.3,0,3.5c0,1.2-0.1,2.4-0.1,3.6c0,3.5,0.5,6.7,0.5,10c0,2.7-4,1.9-5.5,1.9c-2.1,0-1.6-7.7-1.7-10.1
			c-0.1-2.8-0.4-6.1-0.4-9.2c0-3.8,0.4-7.8,0.4-11.1c0-5.1,0-10.6,0-15.7c0-2.1,0.8-2.1,2.7-2.3c2.2-0.2,4.5-0.6,6.7-0.6
			c2.8,0,3.1,5.3,4.1,7.8c0.6,1.4,2.2,6.6,3.1,6.6c1,0,3.2-6.5,3.5-7.1c1.2-2.3,1.8-6.8,3.8-7c1.7-0.2,3.4-0.5,5.1-0.5
			c1.2,0,2.5,0.2,3.7,0.2c0.2,0,0.3,0,0.5,0c0.8,0,1.2,0.3,1.3,1c0.3,3.4,0.7,6.6,0.7,10c0,0.6,0,1.2,0,1.7c0,1.8,0.1,3.5,0.1,5.3
			c0,6.8-0.4,13.6-0.4,20.4c0,3,0.7,6,0.7,9c0,1.7-2,1.6-3.2,1.6c-3.3,0-4,0.4-4-3.7c-0.9-10-1.3-20.7-1.3-30.7c0-0.6,0-0.8-0.3-1.6
			C404.8,647.2,404.4,650.3,403.6,651.9z"/>
		<path class="st0" d="M442.6,651.9c-1,2.1-1.7,6.2-3.5,6.3c-1.8,0.1-3.8,0.6-5.5,0.6c-1.9,0-2.9-5.6-3.4-7.1
			c-1.1-3.1-2.1-6.1-3.6-9.1c-0.1-0.3-0.2-0.7-0.6-0.8c-0.5,0.1-0.7,3-0.7,4c0,0.3,0,0.6,0,0.8c0,4.4,0.2,8.7,0.2,13.2
			c0,1.1,0,2.2,0,3.3c0,1.2,0,2.3,0,3.5c0,1.2-0.1,2.4-0.1,3.6c0,3.5,0.5,6.7,0.5,10c0,2.7-4,1.9-5.5,1.9c-2.1,0-1.6-7.7-1.7-10.1
			c-0.1-2.8-0.4-6.1-0.4-9.2c0-3.8,0.4-7.8,0.4-11.1c0-5.1,0-10.6,0-15.7c0-2.1,0.8-2.1,2.7-2.3c2.2-0.2,4.5-0.6,6.7-0.6
			c2.8,0,3.1,5.3,4.1,7.8c0.6,1.4,2.2,6.6,3.1,6.6c1,0,3.2-6.5,3.5-7.1c1.2-2.3,1.8-6.8,3.8-7c1.7-0.2,3.4-0.5,5.1-0.5
			c1.2,0,2.5,0.2,3.7,0.2c0.2,0,0.3,0,0.5,0c0.8,0,1.2,0.3,1.3,1c0.3,3.4,0.7,6.6,0.7,10c0,0.6,0,1.2,0,1.7c0,1.8,0.1,3.5,0.1,5.3
			c0,6.8-0.4,13.6-0.4,20.4c0,3,0.7,6,0.7,9c0,1.7-2,1.6-3.2,1.6c-3.3,0-4,0.4-4-3.7c-0.9-10-1.3-20.7-1.3-30.7c0-0.6,0-0.8-0.3-1.6
			C443.7,647.2,443.4,650.3,442.6,651.9z"/>
		<path class="st0" d="M463.9,652.7c0,0.7,0.4,0.8,0.9,0.8c1.8,0,3.8-0.2,5.6-0.3c1.6,0,1.6,2.6,1.6,4.1c0,1.9,0.1,3.1-1.4,3.1
			c-1.9,0-3.7,0.2-5.6,0.2c-1.6,0-1,2.8-1,4.6c0.2,2.8-0.6,9.5,1.1,9.5c2.1,0,4.4-0.9,6.3-0.9c1,0,1.5,0.2,1.5,1.4
			c0,1.5,0.4,3,0.4,4.5c0,1.5-2.7,1.5-4.3,1.5c-0.4,0-0.9-0.2-1.3-0.2c-1,0-2,0.3-3,0.3c-0.6,0-1.1-0.1-1.7-0.1
			c-1.1,0-2.3,0.1-3.4,0.1c-2.1,0-2.1-13.7-2.1-14.9c0-1.3,0-2.5,0-3.8c0-0.8,0.1-1.6,0.1-2.4c0-2-0.2-4.1-0.2-6.3
			c0-0.8,0-1.6,0-2.3c0-1.8,0-3.7,0-5.5c0-3.9,0.3-7.4,0.3-11.1c0-1.6-0.2-2.7,7.3-2.7c2,0,3.9,0.5,6,0.7c2,0.2,1.4,3.2,1.4,5
			c0,1.1-0.4,1.4-1.1,1.4c-1.9-0.1-4.1-0.3-6-0.3s-0.8,7.3-1.2,7.3C463.9,648.5,463.9,650.6,463.9,652.7z"/>
		<path class="st0" d="M486,659.7c-7.5-1-10.2-3.5-10.2-9.6c0-0.5,0.1-1,0.1-1.5c0-0.2,0-0.4,0-0.7c0.2-5.3-0.5-13.2,4.7-14.9
			c3.3-1.1,5.9-1.7,8.7-1.7c4.9,0,7.8,5.8,7.8,10c0,1,0.1,2,0,2.9c-0.2,1.4-0.3,1.9-1.6,1.9c-1.2,0-2.4,0.6-3.4,0.6
			c-0.5,0-0.9-0.3-0.9-1.4c0-0.2,0-0.4,0-0.6c0-3.5-0.8-6.5-4.6-6.5c-4,0-4.7,3.3-4.7,7.9c0,3.8,0.8,5.9,4.1,6.7
			c5.6,0.3,10.3-0.5,10.7,13.4c0,4.1-0.3,11.4-3.9,12.9c-2.9,1.3-5,1.7-7.8,1.7c-0.7,0-1.3-0.2-2-0.2c0,0-0.1,0-0.2,0
			c-6,0-7-9.9-7.1-11.2c0-0.7-0.2-1.4-0.2-2c0-1.7,5.2-1.8,6-1.8c1.6,0.2,1.7,4.5,2.1,6c0.2,1.2,1.6,2.5,3.6,2.5c2.9,0,3-3.5,3-5.6
			c0-0.6,0-1.3,0-1.9c0,0,0,0,0,0C490.3,663.8,490.8,660.2,486,659.7z"/>
	</g>
</g>
<g>
	<path class="st1" d="M67.9,706c-0.5,0.2-1.6,0.5-2.9,0.5c-1.4,0-2.6-0.4-3.5-1.2c-0.8-0.8-1.3-2-1.3-3.5c0-2.8,1.9-4.9,5.1-4.9
		c1.1,0,1.9,0.2,2.4,0.4l-0.3,1c-0.5-0.2-1.1-0.4-2.1-0.4c-2.3,0-3.8,1.4-3.8,3.8c0,2.4,1.4,3.8,3.6,3.8c0.8,0,1.3-0.1,1.6-0.3v-2.8
		h-1.9v-1h3.1V706z"/>
	<path class="st1" d="M70.4,703.3c0,1.7,1.1,2.4,2.3,2.4c0.9,0,1.4-0.2,1.9-0.4l0.2,0.9c-0.4,0.2-1.2,0.4-2.3,0.4
		c-2.1,0-3.3-1.4-3.3-3.4s1.2-3.7,3.2-3.7c2.2,0,2.8,1.9,2.8,3.2c0,0.3,0,0.4,0,0.6H70.4z M74,702.4c0-0.8-0.3-2-1.7-2
		c-1.2,0-1.8,1.1-1.9,2H74z"/>
	<path class="st1" d="M78.2,697.7v1.9H80v0.9h-1.8v3.7c0,0.8,0.2,1.3,0.9,1.3c0.3,0,0.6,0,0.7-0.1l0.1,0.9c-0.2,0.1-0.6,0.2-1.1,0.2
		c-0.6,0-1-0.2-1.3-0.5c-0.4-0.4-0.5-1-0.5-1.8v-3.7H76v-0.9H77V698L78.2,697.7z"/>
	<path class="st1" d="M84.4,701.8c0-0.8,0-1.5-0.1-2.1h1.1l0,1.3h0.1c0.3-0.9,1-1.5,1.9-1.5c0.1,0,0.2,0,0.3,0v1.2
		c-0.1,0-0.3,0-0.4,0c-0.9,0-1.5,0.7-1.7,1.6c0,0.2-0.1,0.4-0.1,0.6v3.6h-1.2V701.8z"/>
	<path class="st1" d="M89.5,703.3c0,1.7,1.1,2.4,2.3,2.4c0.9,0,1.4-0.2,1.9-0.4l0.2,0.9c-0.4,0.2-1.2,0.4-2.3,0.4
		c-2.1,0-3.3-1.4-3.3-3.4s1.2-3.7,3.2-3.7c2.2,0,2.8,1.9,2.8,3.2c0,0.3,0,0.4,0,0.6H89.5z M93.1,702.4c0-0.8-0.3-2-1.7-2
		c-1.2,0-1.8,1.1-1.9,2H93.1z"/>
	<path class="st1" d="M99.6,706.4l-0.1-0.9h0c-0.4,0.5-1.1,1-2.1,1c-1.4,0-2.1-1-2.1-1.9c0-1.6,1.5-2.5,4.1-2.5V702
		c0-0.6-0.2-1.6-1.5-1.6c-0.6,0-1.3,0.2-1.8,0.5l-0.3-0.8c0.6-0.4,1.4-0.6,2.2-0.6c2.1,0,2.6,1.4,2.6,2.8v2.5c0,0.6,0,1.2,0.1,1.6
		H99.6z M99.4,703c-1.3,0-2.9,0.2-2.9,1.5c0,0.8,0.5,1.2,1.2,1.2c0.9,0,1.4-0.6,1.6-1.1c0-0.1,0.1-0.3,0.1-0.4V703z"/>
	<path class="st1" d="M108.4,696.5v8.2c0,0.6,0,1.3,0.1,1.8h-1.1l-0.1-1.2h0c-0.4,0.8-1.2,1.3-2.3,1.3c-1.6,0-2.9-1.4-2.9-3.4
		c0-2.3,1.4-3.6,3-3.6c1,0,1.7,0.5,2,1h0v-4H108.4z M107.2,702.4c0-0.2,0-0.4-0.1-0.5c-0.2-0.8-0.9-1.4-1.8-1.4c-1.3,0-2,1.1-2,2.6
		c0,1.4,0.7,2.5,2,2.5c0.8,0,1.6-0.5,1.8-1.5c0-0.2,0.1-0.3,0.1-0.5V702.4z"/>
	<path class="st1" d="M110.9,699.6l1.5,4c0.2,0.4,0.3,1,0.4,1.4h0c0.1-0.4,0.3-0.9,0.4-1.4l1.3-4h1.3l-1.8,4.8
		c-0.9,2.3-1.5,3.5-2.3,4.2c-0.6,0.5-1.2,0.7-1.5,0.8l-0.3-1c0.3-0.1,0.7-0.3,1.1-0.6c0.3-0.3,0.8-0.7,1-1.4
		c0.1-0.1,0.1-0.2,0.1-0.3s0-0.2-0.1-0.3l-2.5-6.2H110.9z"/>
	<path class="st1" d="M120.1,706.4v-5.8h-1v-0.9h1v-0.3c0-1,0.2-1.8,0.8-2.4c0.5-0.4,1.1-0.6,1.7-0.6c0.4,0,0.8,0.1,1.1,0.2l-0.2,1
		c-0.2-0.1-0.4-0.2-0.8-0.2c-1,0-1.3,0.9-1.3,2v0.4h1.6v0.9h-1.6v5.8H120.1z"/>
	<path class="st1" d="M130.1,703c0,2.5-1.7,3.6-3.4,3.6c-1.8,0-3.2-1.3-3.2-3.5c0-2.3,1.5-3.6,3.4-3.6
		C128.7,699.5,130.1,700.9,130.1,703z M124.7,703.1c0,1.5,0.9,2.6,2.1,2.6c1.2,0,2.1-1.1,2.1-2.6c0-1.1-0.6-2.6-2-2.6
		S124.7,701.8,124.7,703.1z"/>
	<path class="st1" d="M131.6,701.8c0-0.8,0-1.5-0.1-2.1h1.1l0,1.3h0.1c0.3-0.9,1-1.5,1.9-1.5c0.1,0,0.2,0,0.3,0v1.2
		c-0.1,0-0.3,0-0.4,0c-0.9,0-1.5,0.7-1.7,1.6c0,0.2-0.1,0.4-0.1,0.6v3.6h-1.2V701.8z"/>
	<path class="st1" d="M140.6,697.7v1.9h1.8v0.9h-1.8v3.7c0,0.8,0.2,1.3,0.9,1.3c0.3,0,0.6,0,0.7-0.1l0.1,0.9
		c-0.2,0.1-0.6,0.2-1.1,0.2c-0.6,0-1-0.2-1.3-0.5c-0.4-0.4-0.5-1-0.5-1.8v-3.7h-1.1v-0.9h1.1V698L140.6,697.7z"/>
	<path class="st1" d="M143.8,696.5h1.2v4.2h0c0.2-0.4,0.5-0.7,0.9-0.9c0.4-0.2,0.8-0.3,1.3-0.3c0.9,0,2.4,0.6,2.4,2.9v4h-1.2v-3.9
		c0-1.1-0.4-2-1.6-2c-0.8,0-1.4,0.6-1.7,1.2c-0.1,0.2-0.1,0.4-0.1,0.6v4.1h-1.2V696.5z"/>
	<path class="st1" d="M152.2,703.3c0,1.7,1.1,2.4,2.3,2.4c0.9,0,1.4-0.2,1.9-0.4l0.2,0.9c-0.4,0.2-1.2,0.4-2.3,0.4
		c-2.1,0-3.3-1.4-3.3-3.4s1.2-3.7,3.2-3.7c2.2,0,2.8,1.9,2.8,3.2c0,0.3,0,0.4,0,0.6H152.2z M155.9,702.4c0-0.8-0.3-2-1.7-2
		c-1.2,0-1.8,1.1-1.9,2H155.9z"/>
	<path class="st1" d="M161.4,705.2c0.4,0.2,1,0.5,1.6,0.5c0.9,0,1.3-0.4,1.3-1c0-0.6-0.3-0.9-1.3-1.2c-1.2-0.4-1.8-1.1-1.8-1.9
		c0-1.1,0.9-2,2.3-2c0.7,0,1.3,0.2,1.7,0.4l-0.3,0.9c-0.3-0.2-0.8-0.4-1.4-0.4c-0.7,0-1.1,0.4-1.1,0.9c0,0.6,0.4,0.8,1.3,1.1
		c1.2,0.4,1.8,1,1.8,2c0,1.2-0.9,2-2.5,2c-0.7,0-1.4-0.2-1.9-0.5L161.4,705.2z"/>
	<path class="st1" d="M171.9,706.2c-0.3,0.2-1,0.4-1.9,0.4c-2,0-3.4-1.4-3.4-3.5c0-2.1,1.4-3.6,3.6-3.6c0.7,0,1.4,0.2,1.7,0.3
		l-0.3,1c-0.3-0.2-0.8-0.3-1.4-0.3c-1.6,0-2.4,1.1-2.4,2.6c0,1.6,1,2.5,2.4,2.5c0.7,0,1.2-0.2,1.5-0.3L171.9,706.2z"/>
	<path class="st1" d="M179.4,703c0,2.5-1.7,3.6-3.4,3.6c-1.8,0-3.2-1.3-3.2-3.5c0-2.3,1.5-3.6,3.4-3.6
		C178.1,699.5,179.4,700.9,179.4,703z M174,703.1c0,1.5,0.9,2.6,2.1,2.6c1.2,0,2.1-1.1,2.1-2.6c0-1.1-0.6-2.6-2-2.6
		S174,701.8,174,703.1z"/>
	<path class="st1" d="M181,701.8c0-0.8,0-1.5-0.1-2.1h1.1l0,1.3h0.1c0.3-0.9,1-1.5,1.9-1.5c0.1,0,0.2,0,0.3,0v1.2
		c-0.1,0-0.3,0-0.4,0c-0.9,0-1.5,0.7-1.7,1.6c0,0.2-0.1,0.4-0.1,0.6v3.6H181V701.8z"/>
	<path class="st1" d="M190.2,706.2c-0.3,0.2-1,0.4-1.9,0.4c-2,0-3.4-1.4-3.4-3.5c0-2.1,1.4-3.6,3.6-3.6c0.7,0,1.4,0.2,1.7,0.3
		l-0.3,1c-0.3-0.2-0.8-0.3-1.4-0.3c-1.6,0-2.4,1.1-2.4,2.6c0,1.6,1,2.5,2.4,2.5c0.7,0,1.2-0.2,1.5-0.3L190.2,706.2z"/>
	<path class="st1" d="M191.7,696.5h1.2v4.2h0c0.2-0.4,0.5-0.7,0.9-0.9c0.4-0.2,0.8-0.3,1.3-0.3c0.9,0,2.4,0.6,2.4,2.9v4h-1.2v-3.9
		c0-1.1-0.4-2-1.6-2c-0.8,0-1.4,0.6-1.7,1.2c-0.1,0.2-0.1,0.4-0.1,0.6v4.1h-1.2V696.5z"/>
	<path class="st1" d="M200.8,697.7c0,0.4-0.3,0.8-0.8,0.8c-0.4,0-0.7-0.3-0.7-0.8c0-0.4,0.3-0.8,0.8-0.8
		C200.5,697,200.8,697.3,200.8,697.7z M199.4,706.4v-6.8h1.2v6.8H199.4z"/>
	<path class="st1" d="M202.7,701.5c0-0.7,0-1.3-0.1-1.8h1.1l0.1,1.1h0c0.3-0.6,1.1-1.3,2.2-1.3c0.9,0,2.4,0.6,2.4,2.9v4h-1.2v-3.9
		c0-1.1-0.4-2-1.6-2c-0.8,0-1.4,0.6-1.7,1.3c-0.1,0.2-0.1,0.4-0.1,0.6v4.1h-1.2V701.5z"/>
	<path class="st1" d="M216.3,699.6c0,0.5-0.1,1-0.1,1.9v3.9c0,1.6-0.3,2.5-1,3.1c-0.7,0.6-1.6,0.8-2.5,0.8c-0.8,0-1.7-0.2-2.3-0.6
		l0.3-0.9c0.4,0.3,1.1,0.5,2,0.5c1.3,0,2.2-0.7,2.2-2.4v-0.8h0c-0.4,0.6-1.1,1.1-2.2,1.1c-1.7,0-2.9-1.4-2.9-3.3
		c0-2.3,1.5-3.6,3.1-3.6c1.2,0,1.8,0.6,2.1,1.2h0l0.1-1H216.3z M215,702.3c0-0.2,0-0.4-0.1-0.6c-0.2-0.7-0.8-1.3-1.7-1.3
		c-1.2,0-2,1-2,2.6c0,1.3,0.7,2.4,2,2.4c0.8,0,1.4-0.5,1.7-1.3c0.1-0.2,0.1-0.4,0.1-0.7V702.3z"/>
	<path class="st1" d="M221.3,696.5h1.2v4.2h0c0.2-0.4,0.5-0.7,0.9-0.9c0.4-0.2,0.8-0.3,1.3-0.3c0.9,0,2.4,0.6,2.4,2.9v4h-1.2v-3.9
		c0-1.1-0.4-2-1.6-2c-0.8,0-1.4,0.6-1.7,1.2c-0.1,0.2-0.1,0.4-0.1,0.6v4.1h-1.2V696.5z"/>
	<path class="st1" d="M235.2,703c0,2.5-1.7,3.6-3.4,3.6c-1.8,0-3.2-1.3-3.2-3.5c0-2.3,1.5-3.6,3.4-3.6
		C233.9,699.5,235.2,700.9,235.2,703z M229.8,703.1c0,1.5,0.9,2.6,2.1,2.6c1.2,0,2.1-1.1,2.1-2.6c0-1.1-0.6-2.6-2-2.6
		S229.8,701.8,229.8,703.1z"/>
	<path class="st1" d="M238.2,697.7v1.9h1.8v0.9h-1.8v3.7c0,0.8,0.2,1.3,0.9,1.3c0.3,0,0.6,0,0.7-0.1l0.1,0.9
		c-0.2,0.1-0.6,0.2-1.1,0.2c-0.6,0-1-0.2-1.3-0.5c-0.4-0.4-0.5-1-0.5-1.8v-3.7H236v-0.9h1.1V698L238.2,697.7z"/>
	<path class="st1" d="M250.2,696.5v8.2c0,0.6,0,1.3,0.1,1.8h-1.1l-0.1-1.2h0c-0.4,0.8-1.2,1.3-2.3,1.3c-1.6,0-2.9-1.4-2.9-3.4
		c0-2.3,1.4-3.6,3-3.6c1,0,1.7,0.5,2,1h0v-4H250.2z M249,702.4c0-0.2,0-0.4-0.1-0.5c-0.2-0.8-0.9-1.4-1.8-1.4c-1.3,0-2,1.1-2,2.6
		c0,1.4,0.7,2.5,2,2.5c0.8,0,1.6-0.5,1.8-1.5c0-0.2,0.1-0.3,0.1-0.5V702.4z"/>
	<path class="st1" d="M252.2,701.8c0-0.8,0-1.5-0.1-2.1h1.1l0,1.3h0.1c0.3-0.9,1-1.5,1.9-1.5c0.1,0,0.2,0,0.3,0v1.2
		c-0.1,0-0.3,0-0.4,0c-0.9,0-1.5,0.7-1.7,1.6c0,0.2-0.1,0.4-0.1,0.6v3.6h-1.2V701.8z"/>
	<path class="st1" d="M260.5,706.4l-0.1-0.9h0c-0.4,0.5-1.1,1-2.1,1c-1.4,0-2.1-1-2.1-1.9c0-1.6,1.5-2.5,4.1-2.5V702
		c0-0.6-0.2-1.6-1.5-1.6c-0.6,0-1.3,0.2-1.8,0.5l-0.3-0.8c0.6-0.4,1.4-0.6,2.2-0.6c2.1,0,2.6,1.4,2.6,2.8v2.5c0,0.6,0,1.2,0.1,1.6
		H260.5z M260.3,703c-1.3,0-2.9,0.2-2.9,1.5c0,0.8,0.5,1.2,1.2,1.2c0.9,0,1.4-0.6,1.6-1.1c0-0.1,0.1-0.3,0.1-0.4V703z"/>
	<path class="st1" d="M269.3,699.6c0,0.5-0.1,1-0.1,1.9v3.9c0,1.6-0.3,2.5-1,3.1c-0.7,0.6-1.6,0.8-2.5,0.8c-0.8,0-1.7-0.2-2.3-0.6
		l0.3-0.9c0.4,0.3,1.1,0.5,2,0.5c1.3,0,2.2-0.7,2.2-2.4v-0.8h0c-0.4,0.6-1.1,1.1-2.2,1.1c-1.7,0-2.9-1.4-2.9-3.3
		c0-2.3,1.5-3.6,3.1-3.6c1.2,0,1.8,0.6,2.1,1.2h0l0.1-1H269.3z M268,702.3c0-0.2,0-0.4-0.1-0.6c-0.2-0.7-0.8-1.3-1.7-1.3
		c-1.2,0-2,1-2,2.6c0,1.3,0.7,2.4,2,2.4c0.8,0,1.4-0.5,1.7-1.3c0.1-0.2,0.1-0.4,0.1-0.7V702.3z"/>
	<path class="st1" d="M280.1,696.5v8.2c0,0.6,0,1.3,0.1,1.8h-1.1l-0.1-1.2h0c-0.4,0.8-1.2,1.3-2.3,1.3c-1.6,0-2.9-1.4-2.9-3.4
		c0-2.3,1.4-3.6,3-3.6c1,0,1.7,0.5,2,1h0v-4H280.1z M278.9,702.4c0-0.2,0-0.4-0.1-0.5c-0.2-0.8-0.9-1.4-1.8-1.4c-1.3,0-2,1.1-2,2.6
		c0,1.4,0.7,2.5,2,2.5c0.8,0,1.6-0.5,1.8-1.5c0-0.2,0.1-0.3,0.1-0.5V702.4z"/>
	<path class="st1" d="M282.9,703.3c0,1.7,1.1,2.4,2.3,2.4c0.9,0,1.4-0.2,1.9-0.4l0.2,0.9c-0.4,0.2-1.2,0.4-2.3,0.4
		c-2.1,0-3.3-1.4-3.3-3.4s1.2-3.7,3.2-3.7c2.2,0,2.8,1.9,2.8,3.2c0,0.3,0,0.4,0,0.6H282.9z M286.5,702.4c0-0.8-0.3-2-1.7-2
		c-1.2,0-1.8,1.1-1.9,2H286.5z"/>
	<path class="st1" d="M289.1,706.4c0-0.5,0.1-1.1,0.1-1.8v-8.2h1.2v4.3h0c0.4-0.8,1.2-1.2,2.3-1.2c1.7,0,2.9,1.4,2.9,3.5
		c0,2.4-1.5,3.6-3,3.6c-1,0-1.8-0.4-2.3-1.3h0l-0.1,1.1H289.1z M290.4,703.7c0,0.2,0,0.3,0.1,0.4c0.2,0.9,1,1.4,1.8,1.4
		c1.3,0,2.1-1,2.1-2.6c0-1.4-0.7-2.5-2-2.5c-0.8,0-1.6,0.6-1.9,1.5c0,0.1-0.1,0.3-0.1,0.5V703.7z"/>
	<path class="st1" d="M302.8,704.6c0,0.7,0,1.3,0.1,1.8h-1.1l-0.1-1.1h0c-0.3,0.5-1,1.3-2.2,1.3c-1.1,0-2.3-0.6-2.3-3v-4h1.2v3.8
		c0,1.3,0.4,2.2,1.5,2.2c0.8,0,1.4-0.6,1.6-1.1c0.1-0.2,0.1-0.4,0.1-0.6v-4.2h1.2V704.6z"/>
	<path class="st1" d="M306.3,697.7v1.9h1.8v0.9h-1.8v3.7c0,0.8,0.2,1.3,0.9,1.3c0.3,0,0.6,0,0.7-0.1l0.1,0.9
		c-0.2,0.1-0.6,0.2-1.1,0.2c-0.6,0-1-0.2-1.3-0.5c-0.4-0.4-0.5-1-0.5-1.8v-3.7h-1.1v-0.9h1.1V698L306.3,697.7z"/>
	<path class="st1" d="M318.6,703c0,2.5-1.7,3.6-3.4,3.6c-1.8,0-3.2-1.3-3.2-3.5c0-2.3,1.5-3.6,3.4-3.6
		C317.3,699.5,318.6,700.9,318.6,703z M313.2,703.1c0,1.5,0.9,2.6,2.1,2.6c1.2,0,2.1-1.1,2.1-2.6c0-1.1-0.6-2.6-2-2.6
		S313.2,701.8,313.2,703.1z"/>
	<path class="st1" d="M320.3,706.4v-5.8h-1v-0.9h1v-0.3c0-1,0.2-1.8,0.8-2.4c0.5-0.4,1.1-0.6,1.7-0.6c0.4,0,0.8,0.1,1.1,0.2l-0.2,1
		c-0.2-0.1-0.4-0.2-0.8-0.2c-1,0-1.3,0.9-1.3,2v0.4h1.6v0.9h-1.6v5.8H320.3z"/>
	<path class="st1" d="M332.1,702h-3.7v3.4h4.1v1h-5.3V697h5.1v1h-3.9v3h3.7V702z"/>
	<path class="st1" d="M334.1,701.8c0-0.8,0-1.5-0.1-2.1h1.1l0,1.3h0.1c0.3-0.9,1-1.5,1.9-1.5c0.1,0,0.2,0,0.3,0v1.2
		c-0.1,0-0.3,0-0.4,0c-0.9,0-1.5,0.7-1.7,1.6c0,0.2-0.1,0.4-0.1,0.6v3.6h-1.2V701.8z"/>
	<path class="st1" d="M344.7,703c0,2.5-1.7,3.6-3.4,3.6c-1.8,0-3.2-1.3-3.2-3.5c0-2.3,1.5-3.6,3.4-3.6
		C343.3,699.5,344.7,700.9,344.7,703z M339.3,703.1c0,1.5,0.9,2.6,2.1,2.6c1.2,0,2.1-1.1,2.1-2.6c0-1.1-0.6-2.6-2-2.6
		S339.3,701.8,339.3,703.1z"/>
	<path class="st1" d="M346,705.2c0.4,0.2,1,0.5,1.6,0.5c0.9,0,1.3-0.4,1.3-1c0-0.6-0.3-0.9-1.3-1.2c-1.2-0.4-1.8-1.1-1.8-1.9
		c0-1.1,0.9-2,2.3-2c0.7,0,1.3,0.2,1.7,0.4l-0.3,0.9c-0.3-0.2-0.8-0.4-1.4-0.4c-0.7,0-1.1,0.4-1.1,0.9c0,0.6,0.4,0.8,1.3,1.1
		c1.2,0.4,1.8,1,1.8,2c0,1.2-0.9,2-2.5,2c-0.7,0-1.4-0.2-1.9-0.5L346,705.2z"/>
	<path class="st1" d="M354.8,697.1c0.7-0.1,1.6-0.2,2.6-0.2c1.8,0,3,0.4,3.8,1.2c0.8,0.8,1.3,1.9,1.3,3.4c0,1.5-0.5,2.8-1.4,3.7
		c-0.9,0.9-2.3,1.4-4.2,1.4c-0.9,0-1.6,0-2.2-0.1V697.1z M356,705.5c0.3,0.1,0.8,0.1,1.2,0.1c2.6,0,4-1.5,4-4c0-2.2-1.2-3.6-3.8-3.6
		c-0.6,0-1.1,0.1-1.4,0.1V705.5z"/>
	<path class="st1" d="M364.8,703.3c0,1.7,1.1,2.4,2.3,2.4c0.9,0,1.4-0.2,1.9-0.4l0.2,0.9c-0.4,0.2-1.2,0.4-2.3,0.4
		c-2.1,0-3.3-1.4-3.3-3.4s1.2-3.7,3.2-3.7c2.2,0,2.8,1.9,2.8,3.2c0,0.3,0,0.4,0,0.6H364.8z M368.4,702.4c0-0.8-0.3-2-1.7-2
		c-1.2,0-1.8,1.1-1.9,2H368.4z"/>
	<path class="st1" d="M371,705.2c0.4,0.2,1,0.5,1.6,0.5c0.9,0,1.3-0.4,1.3-1c0-0.6-0.3-0.9-1.3-1.2c-1.2-0.4-1.8-1.1-1.8-1.9
		c0-1.1,0.9-2,2.3-2c0.7,0,1.3,0.2,1.7,0.4l-0.3,0.9c-0.3-0.2-0.8-0.4-1.4-0.4c-0.7,0-1.1,0.4-1.1,0.9c0,0.6,0.4,0.8,1.3,1.1
		c1.2,0.4,1.8,1,1.8,2c0,1.2-0.9,2-2.5,2c-0.7,0-1.4-0.2-1.9-0.5L371,705.2z"/>
	<path class="st1" d="M379.7,697h5.1v1h-3.9v3.1h3.6v1h-3.6v4.3h-1.2V697z"/>
	<path class="st1" d="M386.2,696.5h1.2v9.9h-1.2V696.5z"/>
	<path class="st1" d="M393.3,706.4l-0.1-0.9h0c-0.4,0.5-1.1,1-2.1,1c-1.4,0-2.1-1-2.1-1.9c0-1.6,1.5-2.5,4.1-2.5V702
		c0-0.6-0.2-1.6-1.5-1.6c-0.6,0-1.3,0.2-1.8,0.5l-0.3-0.8c0.6-0.4,1.4-0.6,2.2-0.6c2.1,0,2.6,1.4,2.6,2.8v2.5c0,0.6,0,1.2,0.1,1.6
		H393.3z M393.1,703c-1.3,0-2.9,0.2-2.9,1.5c0,0.8,0.5,1.2,1.2,1.2c0.9,0,1.4-0.6,1.6-1.1c0-0.1,0.1-0.3,0.1-0.4V703z"/>
	<path class="st1" d="M396.3,701.5c0-0.7,0-1.3-0.1-1.8h1.1l0.1,1.1h0c0.4-0.6,1-1.2,2.1-1.2c0.9,0,1.6,0.6,1.9,1.4h0
		c0.2-0.4,0.5-0.7,0.8-0.9c0.4-0.3,0.9-0.5,1.5-0.5c0.9,0,2.2,0.6,2.2,2.9v4h-1.2v-3.8c0-1.3-0.5-2.1-1.5-2.1
		c-0.7,0-1.2,0.5-1.5,1.1c-0.1,0.2-0.1,0.4-0.1,0.6v4.2h-1.2v-4.1c0-1.1-0.5-1.9-1.4-1.9c-0.8,0-1.3,0.6-1.5,1.2
		c-0.1,0.2-0.1,0.4-0.1,0.6v4.1h-1.2V701.5z"/>
	<path class="st1" d="M407.9,701.5c0-0.7,0-1.3-0.1-1.8h1.1l0.1,1.1h0c0.4-0.6,1-1.2,2.1-1.2c0.9,0,1.6,0.6,1.9,1.4h0
		c0.2-0.4,0.5-0.7,0.8-0.9c0.4-0.3,0.9-0.5,1.5-0.5c0.9,0,2.2,0.6,2.2,2.9v4h-1.2v-3.8c0-1.3-0.5-2.1-1.5-2.1
		c-0.7,0-1.2,0.5-1.5,1.1c-0.1,0.2-0.1,0.4-0.1,0.6v4.2h-1.2v-4.1c0-1.1-0.5-1.9-1.4-1.9c-0.8,0-1.3,0.6-1.5,1.2
		c-0.1,0.2-0.1,0.4-0.1,0.6v4.1h-1.2V701.5z"/>
	<path class="st1" d="M420.3,703.3c0,1.7,1.1,2.4,2.3,2.4c0.9,0,1.4-0.2,1.9-0.4l0.2,0.9c-0.4,0.2-1.2,0.4-2.3,0.4
		c-2.1,0-3.3-1.4-3.3-3.4s1.2-3.7,3.2-3.7c2.2,0,2.8,1.9,2.8,3.2c0,0.3,0,0.4,0,0.6H420.3z M423.9,702.4c0-0.8-0.3-2-1.7-2
		c-1.2,0-1.8,1.1-1.9,2H423.9z"/>
	<path class="st1" d="M426.5,705.2c0.4,0.2,1,0.5,1.6,0.5c0.9,0,1.3-0.4,1.3-1c0-0.6-0.3-0.9-1.3-1.2c-1.2-0.4-1.8-1.1-1.8-1.9
		c0-1.1,0.9-2,2.3-2c0.7,0,1.3,0.2,1.7,0.4l-0.3,0.9c-0.3-0.2-0.8-0.4-1.4-0.4c-0.7,0-1.1,0.4-1.1,0.9c0,0.6,0.4,0.8,1.3,1.1
		c1.2,0.4,1.8,1,1.8,2c0,1.2-0.9,2-2.5,2c-0.7,0-1.4-0.2-1.9-0.5L426.5,705.2z"/>
	<path class="st1" d="M431.9,705.7c0-0.5,0.4-0.9,0.8-0.9c0.5,0,0.8,0.4,0.8,0.9c0,0.5-0.3,0.9-0.8,0.9
		C432.3,706.6,431.9,706.2,431.9,705.7z M432.3,703.7l-0.2-6.7h1.3l-0.2,6.7H432.3z"/>
	<path class="st1" d="M443.3,702h-3.7v3.4h4.1v1h-5.3V697h5.1v1h-3.9v3h3.7V702z"/>
	<path class="st1" d="M445.3,701.8c0-0.8,0-1.5-0.1-2.1h1.1l0,1.3h0.1c0.3-0.9,1-1.5,1.9-1.5c0.1,0,0.2,0,0.3,0v1.2
		c-0.1,0-0.3,0-0.4,0c-0.9,0-1.5,0.7-1.7,1.6c0,0.2-0.1,0.4-0.1,0.6v3.6h-1.2V701.8z"/>
	<path class="st1" d="M455.8,703c0,2.5-1.7,3.6-3.4,3.6c-1.8,0-3.2-1.3-3.2-3.5c0-2.3,1.5-3.6,3.4-3.6
		C454.5,699.5,455.8,700.9,455.8,703z M450.4,703.1c0,1.5,0.9,2.6,2.1,2.6c1.2,0,2.1-1.1,2.1-2.6c0-1.1-0.6-2.6-2-2.6
		S450.4,701.8,450.4,703.1z"/>
	<path class="st1" d="M457.2,705.2c0.4,0.2,1,0.5,1.6,0.5c0.9,0,1.3-0.4,1.3-1c0-0.6-0.3-0.9-1.3-1.2c-1.2-0.4-1.8-1.1-1.8-1.9
		c0-1.1,0.9-2,2.3-2c0.7,0,1.3,0.2,1.7,0.4l-0.3,0.9c-0.3-0.2-0.8-0.4-1.4-0.4c-0.7,0-1.1,0.4-1.1,0.9c0,0.6,0.4,0.8,1.3,1.1
		c1.2,0.4,1.8,1,1.8,2c0,1.2-0.9,2-2.5,2c-0.7,0-1.4-0.2-1.9-0.5L457.2,705.2z"/>
	<path class="st1" d="M467.3,697.7c0,0.4-0.3,0.8-0.8,0.8c-0.4,0-0.7-0.3-0.7-0.8c0-0.4,0.3-0.8,0.8-0.8
		C467,697,467.3,697.3,467.3,697.7z M465.9,706.4v-6.8h1.2v6.8H465.9z"/>
	<path class="st1" d="M469,705.2c0.4,0.2,1,0.5,1.6,0.5c0.9,0,1.3-0.4,1.3-1c0-0.6-0.3-0.9-1.3-1.2c-1.2-0.4-1.8-1.1-1.8-1.9
		c0-1.1,0.9-2,2.3-2c0.7,0,1.3,0.2,1.7,0.4l-0.3,0.9c-0.3-0.2-0.8-0.4-1.4-0.4c-0.7,0-1.1,0.4-1.1,0.9c0,0.6,0.4,0.8,1.3,1.1
		c1.2,0.4,1.8,1,1.8,2c0,1.2-0.9,2-2.5,2c-0.7,0-1.4-0.2-1.9-0.5L469,705.2z"/>
	<path class="st1" d="M481.4,706.4l-0.1-0.9h0c-0.4,0.5-1.1,1-2.1,1c-1.4,0-2.1-1-2.1-1.9c0-1.6,1.5-2.5,4.1-2.5V702
		c0-0.6-0.2-1.6-1.5-1.6c-0.6,0-1.3,0.2-1.8,0.5l-0.3-0.8c0.6-0.4,1.4-0.6,2.2-0.6c2.1,0,2.6,1.4,2.6,2.8v2.5c0,0.6,0,1.2,0.1,1.6
		H481.4z M481.2,703c-1.3,0-2.9,0.2-2.9,1.5c0,0.8,0.5,1.2,1.2,1.2c0.9,0,1.4-0.6,1.6-1.1c0-0.1,0.1-0.3,0.1-0.4V703z"/>
	<path class="st1" d="M492,705.4L492,705.4c-0.4,0.7-1.1,1.2-2.2,1.2c-1.6,0-2.9-1.4-2.9-3.4c0-2.5,1.6-3.7,3.1-3.7
		c1.1,0,1.8,0.5,2.1,1.2h0l0-1h1.2c0,0.6,0,1.2,0,1.9v7.7H492V705.4z M492,702.4c0-0.2,0-0.4-0.1-0.5c-0.2-0.8-0.8-1.4-1.8-1.4
		c-1.3,0-2,1.1-2,2.6c0,1.3,0.6,2.5,2,2.5c0.8,0,1.5-0.5,1.8-1.3c0.1-0.2,0.1-0.4,0.1-0.6V702.4z"/>
	<path class="st1" d="M500.9,704.6c0,0.7,0,1.3,0.1,1.8h-1.1l-0.1-1.1h0c-0.3,0.5-1,1.3-2.2,1.3c-1.1,0-2.3-0.6-2.3-3v-4h1.2v3.8
		c0,1.3,0.4,2.2,1.5,2.2c0.8,0,1.4-0.6,1.6-1.1c0.1-0.2,0.1-0.4,0.1-0.6v-4.2h1.2V704.6z"/>
	<path class="st1" d="M503.7,703.3c0,1.7,1.1,2.4,2.3,2.4c0.9,0,1.4-0.2,1.9-0.4l0.2,0.9c-0.4,0.2-1.2,0.4-2.3,0.4
		c-2.1,0-3.3-1.4-3.3-3.4s1.2-3.7,3.2-3.7c2.2,0,2.8,1.9,2.8,3.2c0,0.3,0,0.4,0,0.6H503.7z M507.3,702.4c0-0.8-0.3-2-1.7-2
		c-1.2,0-1.8,1.1-1.9,2H507.3z"/>
	<path class="st1" d="M510.7,703.3c0,1.7,1.1,2.4,2.3,2.4c0.9,0,1.4-0.2,1.9-0.4l0.2,0.9c-0.4,0.2-1.2,0.4-2.3,0.4
		c-2.1,0-3.3-1.4-3.3-3.4s1.2-3.7,3.2-3.7c2.2,0,2.8,1.9,2.8,3.2c0,0.3,0,0.4,0,0.6H510.7z M514.3,702.4c0-0.8-0.3-2-1.7-2
		c-1.2,0-1.8,1.1-1.9,2H514.3z"/>
	<path class="st1" d="M517,701.8c0-0.8,0-1.5-0.1-2.1h1.1l0,1.3h0.1c0.3-0.9,1-1.5,1.9-1.5c0.1,0,0.2,0,0.3,0v1.2
		c-0.1,0-0.3,0-0.4,0c-0.9,0-1.5,0.7-1.7,1.6c0,0.2-0.1,0.4-0.1,0.6v3.6H517V701.8z"/>
	<path class="st1" d="M530.2,704.6c0,0.7,0,1.3,0.1,1.8h-1.1l-0.1-1.1h0c-0.3,0.5-1,1.3-2.2,1.3c-1.1,0-2.3-0.6-2.3-3v-4h1.2v3.8
		c0,1.3,0.4,2.2,1.5,2.2c0.8,0,1.4-0.6,1.6-1.1c0.1-0.2,0.1-0.4,0.1-0.6v-4.2h1.2V704.6z"/>
	<path class="st1" d="M532.3,701.9c0-0.9,0-1.6-0.1-2.2h1.1l0.1,1.2h0c0.5-0.8,1.3-1.3,2.4-1.3c1.6,0,2.9,1.4,2.9,3.4
		c0,2.4-1.5,3.6-3.1,3.6c-0.9,0-1.7-0.4-2.1-1.1h0v3.7h-1.2V701.9z M533.5,703.7c0,0.2,0,0.3,0.1,0.5c0.2,0.9,1,1.4,1.8,1.4
		c1.3,0,2.1-1.1,2.1-2.6c0-1.4-0.7-2.5-2-2.5c-0.8,0-1.6,0.6-1.9,1.5c0,0.2-0.1,0.3-0.1,0.5V703.7z"/>
	<path class="st1" d="M547,706.4l-0.1-0.9h0c-0.4,0.5-1.1,1-2.1,1c-1.4,0-2.1-1-2.1-1.9c0-1.6,1.5-2.5,4.1-2.5V702
		c0-0.6-0.2-1.6-1.5-1.6c-0.6,0-1.3,0.2-1.8,0.5l-0.3-0.8c0.6-0.4,1.4-0.6,2.2-0.6c2.1,0,2.6,1.4,2.6,2.8v2.5c0,0.6,0,1.2,0.1,1.6
		H547z M546.8,703c-1.3,0-2.9,0.2-2.9,1.5c0,0.8,0.5,1.2,1.2,1.2c0.9,0,1.4-0.6,1.6-1.1c0-0.1,0.1-0.3,0.1-0.4V703z"/>
	<path class="st1" d="M550,701.5c0-0.7,0-1.3-0.1-1.8h1.1l0.1,1.1h0c0.3-0.6,1.1-1.3,2.2-1.3c0.9,0,2.4,0.6,2.4,2.9v4h-1.2v-3.9
		c0-1.1-0.4-2-1.6-2c-0.8,0-1.4,0.6-1.7,1.3c-0.1,0.2-0.1,0.4-0.1,0.6v4.1H550V701.5z"/>
	<path class="st1" d="M563.6,696.5v8.2c0,0.6,0,1.3,0.1,1.8h-1.1l-0.1-1.2h0c-0.4,0.8-1.2,1.3-2.3,1.3c-1.6,0-2.9-1.4-2.9-3.4
		c0-2.3,1.4-3.6,3-3.6c1,0,1.7,0.5,2,1h0v-4H563.6z M562.3,702.4c0-0.2,0-0.4-0.1-0.5c-0.2-0.8-0.9-1.4-1.8-1.4c-1.3,0-2,1.1-2,2.6
		c0,1.4,0.7,2.5,2,2.5c0.8,0,1.6-0.5,1.8-1.5c0-0.2,0.1-0.3,0.1-0.5V702.4z"/>
	<path class="st1" d="M80.2,723c-0.3,0.2-1,0.4-1.9,0.4c-2,0-3.4-1.4-3.4-3.5c0-2.1,1.4-3.6,3.6-3.6c0.7,0,1.4,0.2,1.7,0.4l-0.3,1
		c-0.3-0.2-0.8-0.3-1.4-0.3c-1.6,0-2.4,1.1-2.4,2.6c0,1.6,1,2.5,2.4,2.5c0.7,0,1.2-0.2,1.5-0.3L80.2,723z"/>
	<path class="st1" d="M87.7,719.8c0,2.5-1.7,3.6-3.4,3.6c-1.8,0-3.2-1.3-3.2-3.5c0-2.3,1.5-3.6,3.4-3.6
		C86.4,716.3,87.7,717.7,87.7,719.8z M82.4,719.9c0,1.5,0.9,2.6,2.1,2.6c1.2,0,2.1-1.1,2.1-2.6c0-1.1-0.6-2.6-2-2.6
		S82.4,718.6,82.4,719.9z"/>
	<path class="st1" d="M89.3,718.3c0-0.7,0-1.3-0.1-1.8h1.1l0.1,1.1h0c0.4-0.6,1-1.2,2.1-1.2c0.9,0,1.6,0.6,1.9,1.4h0
		c0.2-0.4,0.5-0.7,0.8-0.9c0.4-0.3,0.9-0.5,1.5-0.5c0.9,0,2.2,0.6,2.2,2.9v4h-1.2v-3.8c0-1.3-0.5-2.1-1.5-2.1
		c-0.7,0-1.2,0.5-1.5,1.1c-0.1,0.2-0.1,0.4-0.1,0.6v4.2h-1.2v-4.1c0-1.1-0.5-1.9-1.4-1.9c-0.8,0-1.3,0.6-1.5,1.2
		c-0.1,0.2-0.1,0.4-0.1,0.6v4.1h-1.2V718.3z"/>
	<path class="st1" d="M102.3,714.5c0,0.4-0.3,0.8-0.8,0.8c-0.4,0-0.7-0.3-0.7-0.8c0-0.4,0.3-0.8,0.8-0.8
		C102,713.8,102.3,714.1,102.3,714.5z M101,723.2v-6.8h1.2v6.8H101z"/>
	<path class="st1" d="M104.2,718.3c0-0.7,0-1.3-0.1-1.8h1.1l0.1,1.1h0c0.3-0.6,1.1-1.3,2.2-1.3c0.9,0,2.4,0.6,2.4,2.9v4h-1.2v-3.9
		c0-1.1-0.4-2-1.6-2c-0.8,0-1.4,0.6-1.7,1.3c-0.1,0.2-0.1,0.4-0.1,0.6v4.1h-1.2V718.3z"/>
	<path class="st1" d="M117.8,716.4c0,0.5-0.1,1-0.1,1.9v3.9c0,1.6-0.3,2.5-1,3.1c-0.7,0.6-1.6,0.8-2.5,0.8c-0.8,0-1.7-0.2-2.3-0.6
		l0.3-0.9c0.4,0.3,1.1,0.5,2,0.5c1.3,0,2.2-0.7,2.2-2.4v-0.8h0c-0.4,0.6-1.1,1.1-2.2,1.1c-1.7,0-2.9-1.4-2.9-3.3
		c0-2.3,1.5-3.6,3.1-3.6c1.2,0,1.8,0.6,2.1,1.2h0l0.1-1H117.8z M116.6,719.1c0-0.2,0-0.4-0.1-0.6c-0.2-0.7-0.8-1.3-1.7-1.3
		c-1.2,0-2,1-2,2.6c0,1.3,0.7,2.4,2,2.4c0.8,0,1.4-0.5,1.7-1.3c0.1-0.2,0.1-0.4,0.1-0.7V719.1z"/>
	<path class="st1" d="M127.6,723c-0.3,0.2-1,0.4-1.9,0.4c-2,0-3.4-1.4-3.4-3.5c0-2.1,1.4-3.6,3.6-3.6c0.7,0,1.4,0.2,1.7,0.4l-0.3,1
		c-0.3-0.2-0.8-0.3-1.4-0.3c-1.6,0-2.4,1.1-2.4,2.6c0,1.6,1,2.5,2.4,2.5c0.7,0,1.2-0.2,1.5-0.3L127.6,723z"/>
	<path class="st1" d="M130.4,714.5c0,0.4-0.3,0.8-0.8,0.8c-0.4,0-0.7-0.3-0.7-0.8c0-0.4,0.3-0.8,0.8-0.8
		C130.1,713.8,130.4,714.1,130.4,714.5z M129.1,723.2v-6.8h1.2v6.8H129.1z"/>
	<path class="st1" d="M132.3,718.6c0-0.8,0-1.5-0.1-2.1h1.1l0,1.3h0.1c0.3-0.9,1-1.5,1.9-1.5c0.1,0,0.2,0,0.3,0v1.2
		c-0.1,0-0.3,0-0.4,0c-0.9,0-1.5,0.7-1.7,1.6c0,0.2-0.1,0.4-0.1,0.6v3.6h-1.2V718.6z"/>
	<path class="st1" d="M141.6,723c-0.3,0.2-1,0.4-1.9,0.4c-2,0-3.4-1.4-3.4-3.5c0-2.1,1.4-3.6,3.6-3.6c0.7,0,1.4,0.2,1.7,0.4l-0.3,1
		c-0.3-0.2-0.8-0.3-1.4-0.3c-1.6,0-2.4,1.1-2.4,2.6c0,1.6,1,2.5,2.4,2.5c0.7,0,1.2-0.2,1.5-0.3L141.6,723z"/>
	<path class="st1" d="M148.7,721.4c0,0.7,0,1.3,0.1,1.8h-1.1l-0.1-1.1h0c-0.3,0.5-1,1.3-2.2,1.3c-1.1,0-2.3-0.6-2.3-3v-4h1.2v3.8
		c0,1.3,0.4,2.2,1.5,2.2c0.8,0,1.4-0.6,1.6-1.1c0.1-0.2,0.1-0.4,0.1-0.6v-4.2h1.2V721.4z"/>
	<path class="st1" d="M150.6,722c0.4,0.2,1,0.5,1.6,0.5c0.9,0,1.3-0.4,1.3-1c0-0.6-0.3-0.9-1.3-1.2c-1.2-0.4-1.8-1.1-1.8-1.9
		c0-1.1,0.9-2,2.3-2c0.7,0,1.3,0.2,1.7,0.4l-0.3,0.9c-0.3-0.2-0.8-0.4-1.4-0.4c-0.7,0-1.1,0.4-1.1,0.9c0,0.6,0.4,0.8,1.3,1.1
		c1.2,0.4,1.8,1,1.8,2c0,1.2-0.9,2-2.5,2c-0.7,0-1.4-0.2-1.9-0.5L150.6,722z"/>
	<path class="st1" d="M163,723.2l-0.1-0.9h0c-0.4,0.5-1.1,1-2.1,1c-1.4,0-2.1-1-2.1-1.9c0-1.6,1.5-2.5,4.1-2.5v-0.1
		c0-0.6-0.2-1.6-1.5-1.6c-0.6,0-1.3,0.2-1.8,0.5l-0.3-0.8c0.6-0.4,1.4-0.6,2.2-0.6c2.1,0,2.6,1.4,2.6,2.8v2.5c0,0.6,0,1.2,0.1,1.6
		H163z M162.9,719.8c-1.3,0-2.9,0.2-2.9,1.5c0,0.8,0.5,1.2,1.2,1.2c0.9,0,1.4-0.6,1.6-1.1c0-0.1,0.1-0.3,0.1-0.4V719.8z"/>
	<path class="st1" d="M166,718.6c0-0.8,0-1.5-0.1-2.1h1.1l0,1.3h0.1c0.3-0.9,1-1.5,1.9-1.5c0.1,0,0.2,0,0.3,0v1.2
		c-0.1,0-0.3,0-0.4,0c-0.9,0-1.5,0.7-1.7,1.6c0,0.2-0.1,0.4-0.1,0.6v3.6H166V718.6z"/>
	<path class="st1" d="M172.4,714.5v1.9h1.8v0.9h-1.8v3.7c0,0.8,0.2,1.3,0.9,1.3c0.3,0,0.6,0,0.7-0.1l0.1,0.9
		c-0.2,0.1-0.6,0.2-1.1,0.2c-0.6,0-1-0.2-1.3-0.5c-0.4-0.4-0.5-1-0.5-1.8v-3.7h-1.1v-0.9h1.1v-1.6L172.4,714.5z"/>
	<path class="st1" d="M177,714.5c0,0.4-0.3,0.8-0.8,0.8c-0.4,0-0.7-0.3-0.7-0.8c0-0.4,0.3-0.8,0.8-0.8
		C176.7,713.8,177,714.1,177,714.5z M175.6,723.2v-6.8h1.2v6.8H175.6z"/>
	<path class="st1" d="M178.7,722c0.4,0.2,1,0.5,1.6,0.5c0.9,0,1.3-0.4,1.3-1c0-0.6-0.3-0.9-1.3-1.2c-1.2-0.4-1.8-1.1-1.8-1.9
		c0-1.1,0.9-2,2.3-2c0.7,0,1.3,0.2,1.7,0.4l-0.3,0.9c-0.3-0.2-0.8-0.4-1.4-0.4c-0.7,0-1.1,0.4-1.1,0.9c0,0.6,0.4,0.8,1.3,1.1
		c1.2,0.4,1.8,1,1.8,2c0,1.2-0.9,2-2.5,2c-0.7,0-1.4-0.2-1.9-0.5L178.7,722z"/>
	<path class="st1" d="M185.9,714.5v1.9h1.8v0.9h-1.8v3.7c0,0.8,0.2,1.3,0.9,1.3c0.3,0,0.6,0,0.7-0.1l0.1,0.9
		c-0.2,0.1-0.6,0.2-1.1,0.2c-0.6,0-1-0.2-1.3-0.5c-0.4-0.4-0.5-1-0.5-1.8v-3.7h-1.1v-0.9h1.1v-1.6L185.9,714.5z"/>
	<path class="st1" d="M191.9,723.2c0-0.5,0.1-1.1,0.1-1.8v-8.2h1.2v4.3h0c0.4-0.8,1.2-1.2,2.3-1.2c1.7,0,2.9,1.4,2.9,3.5
		c0,2.4-1.5,3.6-3,3.6c-1,0-1.8-0.4-2.3-1.3h0l-0.1,1.1H191.9z M193.2,720.5c0,0.2,0,0.3,0.1,0.4c0.2,0.9,1,1.4,1.8,1.4
		c1.3,0,2.1-1.1,2.1-2.6c0-1.4-0.7-2.5-2-2.5c-0.8,0-1.6,0.6-1.9,1.5c0,0.1-0.1,0.3-0.1,0.5V720.5z"/>
	<path class="st1" d="M203.7,723.2l-0.1-0.9h0c-0.4,0.5-1.1,1-2.1,1c-1.4,0-2.1-1-2.1-1.9c0-1.6,1.5-2.5,4.1-2.5v-0.1
		c0-0.6-0.2-1.6-1.5-1.6c-0.6,0-1.3,0.2-1.8,0.5l-0.3-0.8c0.6-0.4,1.4-0.6,2.2-0.6c2.1,0,2.6,1.4,2.6,2.8v2.5c0,0.6,0,1.2,0.1,1.6
		H203.7z M203.5,719.8c-1.3,0-2.9,0.2-2.9,1.5c0,0.8,0.5,1.2,1.2,1.2c0.9,0,1.4-0.6,1.6-1.1c0-0.1,0.1-0.3,0.1-0.4V719.8z"/>
	<path class="st1" d="M206.5,722c0.4,0.2,1,0.5,1.6,0.5c0.9,0,1.3-0.4,1.3-1c0-0.6-0.3-0.9-1.3-1.2c-1.2-0.4-1.8-1.1-1.8-1.9
		c0-1.1,0.9-2,2.3-2c0.7,0,1.3,0.2,1.7,0.4l-0.3,0.9c-0.3-0.2-0.8-0.4-1.4-0.4c-0.7,0-1.1,0.4-1.1,0.9c0,0.6,0.4,0.8,1.3,1.1
		c1.2,0.4,1.8,1,1.8,2c0,1.2-0.9,2-2.5,2c-0.7,0-1.4-0.2-1.9-0.5L206.5,722z"/>
	<path class="st1" d="M212.9,720.1c0,1.7,1.1,2.4,2.3,2.4c0.9,0,1.4-0.2,1.9-0.3l0.2,0.9c-0.4,0.2-1.2,0.4-2.3,0.4
		c-2.1,0-3.3-1.4-3.3-3.4s1.2-3.7,3.2-3.7c2.2,0,2.8,1.9,2.8,3.2c0,0.3,0,0.4,0,0.6H212.9z M216.6,719.2c0-0.8-0.3-2-1.7-2
		c-1.2,0-1.8,1.1-1.9,2H216.6z"/>
	<path class="st1" d="M225.1,713.3v8.2c0,0.6,0,1.3,0.1,1.8h-1.1l-0.1-1.2h0c-0.4,0.8-1.2,1.3-2.3,1.3c-1.6,0-2.9-1.4-2.9-3.4
		c0-2.3,1.4-3.6,3-3.6c1,0,1.7,0.5,2,1h0v-4H225.1z M223.9,719.2c0-0.2,0-0.4-0.1-0.5c-0.2-0.8-0.9-1.4-1.8-1.4c-1.3,0-2,1.1-2,2.6
		c0,1.4,0.7,2.5,2,2.5c0.8,0,1.6-0.5,1.8-1.5c0-0.2,0.1-0.3,0.1-0.5V719.2z"/>
	<path class="st1" d="M231.5,714.5c0,0.4-0.3,0.8-0.8,0.8c-0.4,0-0.7-0.3-0.7-0.8c0-0.4,0.3-0.8,0.8-0.8
		C231.2,713.8,231.5,714.1,231.5,714.5z M230.1,723.2v-6.8h1.2v6.8H230.1z"/>
	<path class="st1" d="M233.4,718.3c0-0.7,0-1.3-0.1-1.8h1.1l0.1,1.1h0c0.3-0.6,1.1-1.3,2.2-1.3c0.9,0,2.4,0.6,2.4,2.9v4H238v-3.9
		c0-1.1-0.4-2-1.6-2c-0.8,0-1.4,0.6-1.7,1.3c-0.1,0.2-0.1,0.4-0.1,0.6v4.1h-1.2V718.3z"/>
	<path class="st1" d="M244,721.7c0.5,0.3,1.3,0.6,2.2,0.6c1.2,0,2-0.7,2-1.6c0-0.9-0.5-1.4-1.8-1.9c-1.5-0.5-2.5-1.3-2.5-2.7
		c0-1.5,1.2-2.6,3.1-2.6c1,0,1.7,0.2,2.1,0.5l-0.3,1c-0.3-0.2-0.9-0.4-1.8-0.4c-1.3,0-1.8,0.8-1.8,1.4c0,0.9,0.6,1.3,1.9,1.8
		c1.6,0.6,2.4,1.4,2.4,2.8c0,1.5-1.1,2.7-3.3,2.7c-0.9,0-1.9-0.3-2.4-0.6L244,721.7z"/>
	<path class="st1" d="M254.8,723.2l-0.1-0.9h0c-0.4,0.5-1.1,1-2.1,1c-1.4,0-2.1-1-2.1-1.9c0-1.6,1.5-2.5,4.1-2.5v-0.1
		c0-0.6-0.2-1.6-1.5-1.6c-0.6,0-1.3,0.2-1.8,0.5l-0.3-0.8c0.6-0.4,1.4-0.6,2.2-0.6c2.1,0,2.6,1.4,2.6,2.8v2.5c0,0.6,0,1.2,0.1,1.6
		H254.8z M254.7,719.8c-1.3,0-2.9,0.2-2.9,1.5c0,0.8,0.5,1.2,1.2,1.2c0.9,0,1.4-0.6,1.6-1.1c0-0.1,0.1-0.3,0.1-0.4V719.8z"/>
	<path class="st1" d="M257.8,713.3h1.2v9.9h-1.2V713.3z"/>
	<path class="st1" d="M262.6,714.5v1.9h1.8v0.9h-1.8v3.7c0,0.8,0.2,1.3,0.9,1.3c0.3,0,0.6,0,0.7-0.1l0.1,0.9
		c-0.2,0.1-0.6,0.2-1.1,0.2c-0.6,0-1-0.2-1.3-0.5c-0.4-0.4-0.5-1-0.5-1.8v-3.7h-1.1v-0.9h1.1v-1.6L262.6,714.5z"/>
	<path class="st1" d="M268.7,713.3h1.2v9.9h-1.2V713.3z"/>
	<path class="st1" d="M275.8,723.2l-0.1-0.9h0c-0.4,0.5-1.1,1-2.1,1c-1.4,0-2.1-1-2.1-1.9c0-1.6,1.5-2.5,4.1-2.5v-0.1
		c0-0.6-0.2-1.6-1.5-1.6c-0.6,0-1.3,0.2-1.8,0.5l-0.3-0.8c0.6-0.4,1.4-0.6,2.2-0.6c2.1,0,2.6,1.4,2.6,2.8v2.5c0,0.6,0,1.2,0.1,1.6
		H275.8z M275.6,719.8c-1.3,0-2.9,0.2-2.9,1.5c0,0.8,0.5,1.2,1.2,1.2c0.9,0,1.4-0.6,1.6-1.1c0-0.1,0.1-0.3,0.1-0.4V719.8z"/>
	<path class="st1" d="M280,719.6L280,719.6c0.2-0.2,0.4-0.5,0.6-0.8l2-2.3h1.5l-2.6,2.8l3,4H283l-2.3-3.2l-0.6,0.7v2.5h-1.2v-9.9
		h1.2V719.6z"/>
	<path class="st1" d="M286.1,720.1c0,1.7,1.1,2.4,2.3,2.4c0.9,0,1.4-0.2,1.9-0.3l0.2,0.9c-0.4,0.2-1.2,0.4-2.3,0.4
		c-2.1,0-3.3-1.4-3.3-3.4s1.2-3.7,3.2-3.7c2.2,0,2.8,1.9,2.8,3.2c0,0.3,0,0.4,0,0.6H286.1z M289.7,719.2c0-0.8-0.3-2-1.7-2
		c-1.2,0-1.8,1.1-1.9,2H289.7z"/>
	<path class="st1" d="M302,722.9c-0.4,0.2-1.3,0.4-2.5,0.4c-2.7,0-4.7-1.7-4.7-4.8c0-3,2-5,4.9-5c1.2,0,1.9,0.3,2.2,0.4l-0.3,1
		c-0.5-0.2-1.1-0.4-1.9-0.4c-2.2,0-3.7,1.4-3.7,3.9c0,2.3,1.3,3.8,3.6,3.8c0.7,0,1.5-0.2,2-0.4L302,722.9z"/>
	<path class="st1" d="M304.8,714.5c0,0.4-0.3,0.8-0.8,0.8c-0.4,0-0.7-0.3-0.7-0.8c0-0.4,0.3-0.8,0.8-0.8
		C304.5,713.8,304.8,714.1,304.8,714.5z M303.4,723.2v-6.8h1.2v6.8H303.4z"/>
	<path class="st1" d="M308.2,714.5v1.9h1.8v0.9h-1.8v3.7c0,0.8,0.2,1.3,0.9,1.3c0.3,0,0.6,0,0.7-0.1l0.1,0.9
		c-0.2,0.1-0.6,0.2-1.1,0.2c-0.6,0-1-0.2-1.3-0.5c-0.4-0.4-0.5-1-0.5-1.8v-3.7h-1.1v-0.9h1.1v-1.6L308.2,714.5z"/>
	<path class="st1" d="M311.9,716.4l1.5,4c0.2,0.4,0.3,1,0.4,1.4h0c0.1-0.4,0.3-0.9,0.4-1.4l1.3-4h1.3l-1.8,4.8
		c-0.9,2.3-1.5,3.5-2.3,4.2c-0.6,0.5-1.2,0.7-1.5,0.8l-0.3-1c0.3-0.1,0.7-0.3,1.1-0.6c0.3-0.3,0.8-0.7,1-1.4
		c0.1-0.1,0.1-0.2,0.1-0.3c0-0.1,0-0.2-0.1-0.3l-2.5-6.2H311.9z"/>
	<path class="st1" d="M317.2,722.5c0-0.5,0.3-0.9,0.8-0.9c0.5,0,0.8,0.4,0.8,0.9c0,0.5-0.3,0.9-0.8,0.9
		C317.6,723.4,317.2,723,317.2,722.5z"/>
	<path class="st1" d="M324.6,714.8h-2.9v-1h7v1h-2.9v8.4h-1.2V714.8z"/>
	<path class="st1" d="M329.7,713.3h1.2v4.2h0c0.2-0.3,0.5-0.7,0.9-0.9c0.4-0.2,0.8-0.4,1.3-0.4c0.9,0,2.4,0.6,2.4,2.9v4h-1.2v-3.9
		c0-1.1-0.4-2-1.6-2c-0.8,0-1.4,0.6-1.7,1.2c-0.1,0.2-0.1,0.3-0.1,0.6v4.1h-1.2V713.3z"/>
	<path class="st1" d="M338.1,720.1c0,1.7,1.1,2.4,2.3,2.4c0.9,0,1.4-0.2,1.9-0.3l0.2,0.9c-0.4,0.2-1.2,0.4-2.3,0.4
		c-2.1,0-3.3-1.4-3.3-3.4s1.2-3.7,3.2-3.7c2.2,0,2.8,1.9,2.8,3.2c0,0.3,0,0.4,0,0.6H338.1z M341.7,719.2c0-0.8-0.3-2-1.7-2
		c-1.2,0-1.8,1.1-1.9,2H341.7z"/>
	<path class="st1" d="M344.9,716.4l1.5,4c0.2,0.4,0.3,1,0.4,1.4h0c0.1-0.4,0.3-0.9,0.4-1.4l1.3-4h1.3l-1.8,4.8
		c-0.9,2.3-1.5,3.5-2.3,4.2c-0.6,0.5-1.2,0.7-1.5,0.8l-0.3-1c0.3-0.1,0.7-0.3,1.1-0.6c0.3-0.3,0.8-0.7,1-1.4
		c0.1-0.1,0.1-0.2,0.1-0.3c0-0.1,0-0.2-0.1-0.3l-2.5-6.2H344.9z"/>
	<path class="st1" d="M354,718.6c0-0.8,0-1.5-0.1-2.1h1.1l0,1.3h0.1c0.3-0.9,1-1.5,1.9-1.5c0.1,0,0.2,0,0.3,0v1.2
		c-0.1,0-0.3,0-0.4,0c-0.9,0-1.5,0.7-1.7,1.6c0,0.2-0.1,0.4-0.1,0.6v3.6H354V718.6z"/>
	<path class="st1" d="M359.1,720.1c0,1.7,1.1,2.4,2.3,2.4c0.9,0,1.4-0.2,1.9-0.3l0.2,0.9c-0.4,0.2-1.2,0.4-2.3,0.4
		c-2.1,0-3.3-1.4-3.3-3.4s1.2-3.7,3.2-3.7c2.2,0,2.8,1.9,2.8,3.2c0,0.3,0,0.4,0,0.6H359.1z M362.7,719.2c0-0.8-0.3-2-1.7-2
		c-1.2,0-1.8,1.1-1.9,2H362.7z"/>
	<path class="st1" d="M365.5,713.3h1.2v9.9h-1.2V713.3z"/>
	<path class="st1" d="M370.1,714.5c0,0.4-0.3,0.8-0.8,0.8c-0.4,0-0.7-0.3-0.7-0.8c0-0.4,0.3-0.8,0.8-0.8
		C369.8,713.8,370.1,714.1,370.1,714.5z M368.8,723.2v-6.8h1.2v6.8H368.8z"/>
	<path class="st1" d="M371.9,722c0.4,0.2,1,0.5,1.6,0.5c0.9,0,1.3-0.4,1.3-1c0-0.6-0.3-0.9-1.3-1.2c-1.2-0.4-1.8-1.1-1.8-1.9
		c0-1.1,0.9-2,2.3-2c0.7,0,1.3,0.2,1.7,0.4l-0.3,0.9c-0.3-0.2-0.8-0.4-1.4-0.4c-0.7,0-1.1,0.4-1.1,0.9c0,0.6,0.4,0.8,1.3,1.1
		c1.2,0.4,1.8,1,1.8,2c0,1.2-0.9,2-2.5,2c-0.7,0-1.4-0.2-1.9-0.5L371.9,722z"/>
	<path class="st1" d="M377.6,713.3h1.2v4.2h0c0.2-0.3,0.5-0.7,0.9-0.9c0.4-0.2,0.8-0.4,1.3-0.4c0.9,0,2.4,0.6,2.4,2.9v4h-1.2v-3.9
		c0-1.1-0.4-2-1.6-2c-0.8,0-1.4,0.6-1.7,1.2c-0.1,0.2-0.1,0.3-0.1,0.6v4.1h-1.2V713.3z"/>
	<path class="st1" d="M389.7,714.5c0,0.4-0.3,0.8-0.8,0.8c-0.4,0-0.7-0.3-0.7-0.8c0-0.4,0.3-0.8,0.8-0.8
		C389.4,713.8,389.7,714.1,389.7,714.5z M388.3,723.2v-6.8h1.2v6.8H388.3z"/>
	<path class="st1" d="M391.6,718.3c0-0.7,0-1.3-0.1-1.8h1.1l0.1,1.1h0c0.3-0.6,1.1-1.3,2.2-1.3c0.9,0,2.4,0.6,2.4,2.9v4h-1.2v-3.9
		c0-1.1-0.4-2-1.6-2c-0.8,0-1.4,0.6-1.7,1.3c-0.1,0.2-0.1,0.4-0.1,0.6v4.1h-1.2V718.3z"/>
	<path class="st1" d="M402.3,723.2c0-0.5,0.1-1.1,0.1-1.8v-8.2h1.2v4.3h0c0.4-0.8,1.2-1.2,2.3-1.2c1.7,0,2.9,1.4,2.9,3.5
		c0,2.4-1.5,3.6-3,3.6c-1,0-1.8-0.4-2.3-1.3h0l-0.1,1.1H402.3z M403.6,720.5c0,0.2,0,0.3,0.1,0.4c0.2,0.9,1,1.4,1.8,1.4
		c1.3,0,2.1-1.1,2.1-2.6c0-1.4-0.7-2.5-2-2.5c-0.8,0-1.6,0.6-1.9,1.5c0,0.1-0.1,0.3-0.1,0.5V720.5z"/>
	<path class="st1" d="M410.3,713.3h1.2v9.9h-1.2V713.3z"/>
	<path class="st1" d="M419.3,721.4c0,0.7,0,1.3,0.1,1.8h-1.1l-0.1-1.1h0c-0.3,0.5-1,1.3-2.2,1.3c-1.1,0-2.3-0.6-2.3-3v-4h1.2v3.8
		c0,1.3,0.4,2.2,1.5,2.2c0.8,0,1.4-0.6,1.6-1.1c0.1-0.2,0.1-0.4,0.1-0.6v-4.2h1.2V721.4z"/>
	<path class="st1" d="M421.3,718.6c0-0.8,0-1.5-0.1-2.1h1.1l0,1.3h0.1c0.3-0.9,1-1.5,1.9-1.5c0.1,0,0.2,0,0.3,0v1.2
		c-0.1,0-0.3,0-0.4,0c-0.9,0-1.5,0.7-1.7,1.6c0,0.2-0.1,0.4-0.1,0.6v3.6h-1.2V718.6z"/>
	<path class="st1" d="M425.9,718.6c0-0.8,0-1.5-0.1-2.1h1.1l0,1.3h0.1c0.3-0.9,1-1.5,1.9-1.5c0.1,0,0.2,0,0.3,0v1.2
		c-0.1,0-0.3,0-0.4,0c-0.9,0-1.5,0.7-1.7,1.6c0,0.2-0.1,0.4-0.1,0.6v3.6h-1.2V718.6z"/>
	<path class="st1" d="M432,714.5c0,0.4-0.3,0.8-0.8,0.8c-0.4,0-0.7-0.3-0.7-0.8c0-0.4,0.3-0.8,0.8-0.8
		C431.7,713.8,432,714.1,432,714.5z M430.6,723.2v-6.8h1.2v6.8H430.6z"/>
	<path class="st1" d="M433.9,718.3c0-0.7,0-1.3-0.1-1.8h1.1l0.1,1.1h0c0.3-0.6,1.1-1.3,2.2-1.3c0.9,0,2.4,0.6,2.4,2.9v4h-1.2v-3.9
		c0-1.1-0.4-2-1.6-2c-0.8,0-1.4,0.6-1.7,1.3c-0.1,0.2-0.1,0.4-0.1,0.6v4.1h-1.2V718.3z"/>
	<path class="st1" d="M447.5,716.4c0,0.5-0.1,1-0.1,1.9v3.9c0,1.6-0.3,2.5-1,3.1c-0.7,0.6-1.6,0.8-2.5,0.8c-0.8,0-1.7-0.2-2.3-0.6
		l0.3-0.9c0.4,0.3,1.1,0.5,2,0.5c1.3,0,2.2-0.7,2.2-2.4v-0.8h0c-0.4,0.6-1.1,1.1-2.2,1.1c-1.7,0-2.9-1.4-2.9-3.3
		c0-2.3,1.5-3.6,3.1-3.6c1.2,0,1.8,0.6,2.1,1.2h0l0.1-1H447.5z M446.2,719.1c0-0.2,0-0.4-0.1-0.6c-0.2-0.7-0.8-1.3-1.7-1.3
		c-1.2,0-2,1-2,2.6c0,1.3,0.7,2.4,2,2.4c0.8,0,1.4-0.5,1.7-1.3c0.1-0.2,0.1-0.4,0.1-0.7V719.1z"/>
	<path class="st1" d="M453.9,714.5v1.9h1.8v0.9h-1.8v3.7c0,0.8,0.2,1.3,0.9,1.3c0.3,0,0.6,0,0.7-0.1l0.1,0.9
		c-0.2,0.1-0.6,0.2-1.1,0.2c-0.6,0-1-0.2-1.3-0.5c-0.4-0.4-0.5-1-0.5-1.8v-3.7h-1.1v-0.9h1.1v-1.6L453.9,714.5z"/>
	<path class="st1" d="M457.1,713.3h1.2v4.2h0c0.2-0.3,0.5-0.7,0.9-0.9c0.4-0.2,0.8-0.4,1.3-0.4c0.9,0,2.4,0.6,2.4,2.9v4h-1.2v-3.9
		c0-1.1-0.4-2-1.6-2c-0.8,0-1.4,0.6-1.7,1.2c-0.1,0.2-0.1,0.3-0.1,0.6v4.1h-1.2V713.3z"/>
	<path class="st1" d="M465.5,720.1c0,1.7,1.1,2.4,2.3,2.4c0.9,0,1.4-0.2,1.9-0.3l0.2,0.9c-0.4,0.2-1.2,0.4-2.3,0.4
		c-2.1,0-3.3-1.4-3.3-3.4s1.2-3.7,3.2-3.7c2.2,0,2.8,1.9,2.8,3.2c0,0.3,0,0.4,0,0.6H465.5z M469.1,719.2c0-0.8-0.3-2-1.7-2
		c-1.2,0-1.8,1.1-1.9,2H469.1z"/>
	<path class="st1" d="M474.8,713.3h1.2v9.9h-1.2V713.3z"/>
	<path class="st1" d="M479.5,714.5c0,0.4-0.3,0.8-0.8,0.8c-0.4,0-0.7-0.3-0.7-0.8c0-0.4,0.3-0.8,0.8-0.8
		C479.2,713.8,479.5,714.1,479.5,714.5z M478.1,723.2v-6.8h1.2v6.8H478.1z"/>
	<path class="st1" d="M481.4,718.3c0-0.7,0-1.3-0.1-1.8h1.1l0.1,1.1h0c0.3-0.6,1.1-1.3,2.2-1.3c0.9,0,2.4,0.6,2.4,2.9v4h-1.2v-3.9
		c0-1.1-0.4-2-1.6-2c-0.8,0-1.4,0.6-1.7,1.3c-0.1,0.2-0.1,0.4-0.1,0.6v4.1h-1.2V718.3z"/>
	<path class="st1" d="M489.8,720.1c0,1.7,1.1,2.4,2.3,2.4c0.9,0,1.4-0.2,1.9-0.3l0.2,0.9c-0.4,0.2-1.2,0.4-2.3,0.4
		c-2.1,0-3.3-1.4-3.3-3.4s1.2-3.7,3.2-3.7c2.2,0,2.8,1.9,2.8,3.2c0,0.3,0,0.4,0,0.6H489.8z M493.5,719.2c0-0.8-0.3-2-1.7-2
		c-1.2,0-1.8,1.1-1.9,2H493.5z"/>
	<path class="st1" d="M499.1,723.2c0-0.5,0.1-1.1,0.1-1.8v-8.2h1.2v4.3h0c0.4-0.8,1.2-1.2,2.3-1.2c1.7,0,2.9,1.4,2.9,3.5
		c0,2.4-1.5,3.6-3,3.6c-1,0-1.8-0.4-2.3-1.3h0l-0.1,1.1H499.1z M500.4,720.5c0,0.2,0,0.3,0.1,0.4c0.2,0.9,1,1.4,1.8,1.4
		c1.3,0,2.1-1.1,2.1-2.6c0-1.4-0.7-2.5-2-2.5c-0.8,0-1.6,0.6-1.9,1.5c0,0.1-0.1,0.3-0.1,0.5V720.5z"/>
	<path class="st1" d="M507.8,720.1c0,1.7,1.1,2.4,2.3,2.4c0.9,0,1.4-0.2,1.9-0.3l0.2,0.9c-0.4,0.2-1.2,0.4-2.3,0.4
		c-2.1,0-3.3-1.4-3.3-3.4s1.2-3.7,3.2-3.7c2.2,0,2.8,1.9,2.8,3.2c0,0.3,0,0.4,0,0.6H507.8z M511.4,719.2c0-0.8-0.3-2-1.7-2
		c-1.2,0-1.8,1.1-1.9,2H511.4z"/>
	<path class="st1" d="M515.6,714.5v1.9h1.8v0.9h-1.8v3.7c0,0.8,0.2,1.3,0.9,1.3c0.3,0,0.6,0,0.7-0.1l0.1,0.9
		c-0.2,0.1-0.6,0.2-1.1,0.2c-0.6,0-1-0.2-1.3-0.5c-0.4-0.4-0.5-1-0.5-1.8v-3.7h-1.1v-0.9h1.1v-1.6L515.6,714.5z"/>
	<path class="st1" d="M519.4,716.4l0.9,3.4c0.2,0.8,0.4,1.5,0.5,2.2h0c0.2-0.7,0.4-1.4,0.6-2.1l1.1-3.5h1l1.1,3.4
		c0.3,0.8,0.4,1.5,0.6,2.2h0c0.1-0.7,0.3-1.4,0.5-2.2l1-3.4h1.2l-2.2,6.8h-1.1l-1-3.2c-0.2-0.8-0.4-1.4-0.6-2.2h0
		c-0.2,0.8-0.4,1.5-0.6,2.2l-1.1,3.2h-1.1l-2-6.8H519.4z"/>
	<path class="st1" d="M529.7,720.1c0,1.7,1.1,2.4,2.3,2.4c0.9,0,1.4-0.2,1.9-0.3l0.2,0.9c-0.4,0.2-1.2,0.4-2.3,0.4
		c-2.1,0-3.3-1.4-3.3-3.4s1.2-3.7,3.2-3.7c2.2,0,2.8,1.9,2.8,3.2c0,0.3,0,0.4,0,0.6H529.7z M533.3,719.2c0-0.8-0.3-2-1.7-2
		c-1.2,0-1.8,1.1-1.9,2H533.3z"/>
	<path class="st1" d="M536.7,720.1c0,1.7,1.1,2.4,2.3,2.4c0.9,0,1.4-0.2,1.9-0.3l0.2,0.9c-0.4,0.2-1.2,0.4-2.3,0.4
		c-2.1,0-3.3-1.4-3.3-3.4s1.2-3.7,3.2-3.7c2.2,0,2.8,1.9,2.8,3.2c0,0.3,0,0.4,0,0.6H536.7z M540.4,719.2c0-0.8-0.3-2-1.7-2
		c-1.2,0-1.8,1.1-1.9,2H540.4z"/>
	<path class="st1" d="M543.1,718.3c0-0.7,0-1.3-0.1-1.8h1.1l0.1,1.1h0c0.3-0.6,1.1-1.3,2.2-1.3c0.9,0,2.4,0.6,2.4,2.9v4h-1.2v-3.9
		c0-1.1-0.4-2-1.6-2c-0.8,0-1.4,0.6-1.7,1.3c-0.1,0.2-0.1,0.4-0.1,0.6v4.1h-1.2V718.3z"/>
	<path class="st1" d="M61.9,735.1c0-0.7,0-1.3-0.1-1.8h1.1l0.1,1.1h0c0.4-0.6,1-1.2,2.1-1.2c0.9,0,1.6,0.6,1.9,1.4h0
		c0.2-0.4,0.5-0.7,0.8-0.9c0.4-0.3,0.9-0.5,1.5-0.5c0.9,0,2.2,0.6,2.2,2.9v4h-1.2v-3.8c0-1.3-0.5-2.1-1.5-2.1
		c-0.7,0-1.2,0.5-1.5,1.1c-0.1,0.2-0.1,0.4-0.1,0.6v4.2h-1.2V736c0-1.1-0.5-1.9-1.4-1.9c-0.8,0-1.3,0.6-1.5,1.2
		c-0.1,0.2-0.1,0.4-0.1,0.6v4.1h-1.2V735.1z"/>
	<path class="st1" d="M77.3,740l-0.1-0.9h0c-0.4,0.5-1.1,1-2.1,1c-1.4,0-2.1-1-2.1-1.9c0-1.6,1.5-2.5,4.1-2.5v-0.1
		c0-0.6-0.2-1.6-1.5-1.6c-0.6,0-1.3,0.2-1.8,0.5l-0.3-0.8c0.6-0.4,1.4-0.6,2.2-0.6c2.1,0,2.6,1.4,2.6,2.8v2.5c0,0.6,0,1.2,0.1,1.6
		H77.3z M77.1,736.6c-1.3,0-2.9,0.2-2.9,1.5c0,0.8,0.5,1.2,1.2,1.2c0.9,0,1.4-0.6,1.6-1.1c0-0.1,0.1-0.3,0.1-0.4V736.6z"/>
	<path class="st1" d="M80.2,738.8c0.4,0.2,1,0.5,1.6,0.5c0.9,0,1.3-0.4,1.3-1c0-0.6-0.3-0.9-1.3-1.2c-1.2-0.4-1.8-1.1-1.8-1.9
		c0-1.1,0.9-2,2.3-2c0.7,0,1.3,0.2,1.7,0.4l-0.3,0.9c-0.3-0.2-0.8-0.4-1.4-0.4c-0.7,0-1.1,0.4-1.1,0.9c0,0.6,0.4,0.8,1.3,1.1
		c1.2,0.4,1.8,1,1.8,2c0,1.2-0.9,2-2.5,2c-0.7,0-1.4-0.2-1.9-0.5L80.2,738.8z"/>
	<path class="st1" d="M90.7,739.8c-0.3,0.2-1,0.4-1.9,0.4c-2,0-3.4-1.4-3.4-3.5c0-2.1,1.4-3.6,3.6-3.6c0.7,0,1.4,0.2,1.7,0.4l-0.3,1
		c-0.3-0.2-0.8-0.3-1.4-0.3c-1.6,0-2.4,1.1-2.4,2.6c0,1.6,1,2.5,2.4,2.5c0.7,0,1.2-0.2,1.5-0.3L90.7,739.8z"/>
	<path class="st1" d="M97.8,738.2c0,0.7,0,1.3,0.1,1.8h-1.1l-0.1-1.1h0c-0.3,0.5-1,1.3-2.2,1.3c-1.1,0-2.3-0.6-2.3-3v-4h1.2v3.8
		c0,1.3,0.4,2.2,1.5,2.2c0.8,0,1.4-0.6,1.6-1.1c0.1-0.2,0.1-0.4,0.1-0.6v-4.2h1.2V738.2z"/>
	<path class="st1" d="M99.9,730.1h1.2v9.9h-1.2V730.1z"/>
	<path class="st1" d="M104.5,731.3c0,0.4-0.3,0.8-0.8,0.8c-0.4,0-0.7-0.3-0.7-0.8c0-0.4,0.3-0.8,0.8-0.8
		C104.2,730.6,104.5,730.9,104.5,731.3z M103.2,740v-6.8h1.2v6.8H103.2z"/>
	<path class="st1" d="M106.4,735.1c0-0.7,0-1.3-0.1-1.8h1.1l0.1,1.1h0c0.3-0.6,1.1-1.3,2.2-1.3c0.9,0,2.4,0.6,2.4,2.9v4H111v-3.9
		c0-1.1-0.4-2-1.6-2c-0.8,0-1.4,0.6-1.7,1.3c-0.1,0.2-0.1,0.4-0.1,0.6v4.1h-1.2V735.1z"/>
	<path class="st1" d="M114.9,736.9c0,1.7,1.1,2.4,2.3,2.4c0.9,0,1.4-0.2,1.9-0.3l0.2,0.9c-0.4,0.2-1.2,0.4-2.3,0.4
		c-2.1,0-3.3-1.4-3.3-3.4s1.2-3.7,3.2-3.7c2.2,0,2.8,1.9,2.8,3.2c0,0.3,0,0.4,0,0.6H114.9z M118.5,736c0-0.8-0.3-2-1.7-2
		c-1.2,0-1.8,1.1-1.9,2H118.5z"/>
	<path class="st1" d="M127.9,740l-0.1-0.9h0c-0.4,0.5-1.1,1-2.1,1c-1.4,0-2.1-1-2.1-1.9c0-1.6,1.5-2.5,4.1-2.5v-0.1
		c0-0.6-0.2-1.6-1.5-1.6c-0.6,0-1.3,0.2-1.8,0.5l-0.3-0.8c0.6-0.4,1.4-0.6,2.2-0.6c2.1,0,2.6,1.4,2.6,2.8v2.5c0,0.6,0,1.2,0.1,1.6
		H127.9z M127.8,736.6c-1.3,0-2.9,0.2-2.9,1.5c0,0.8,0.5,1.2,1.2,1.2c0.9,0,1.4-0.6,1.6-1.1c0-0.1,0.1-0.3,0.1-0.4V736.6z"/>
	<path class="st1" d="M130.9,735.1c0-0.7,0-1.3-0.1-1.8h1.1l0.1,1.1h0c0.3-0.6,1.1-1.3,2.2-1.3c0.9,0,2.4,0.6,2.4,2.9v4h-1.2v-3.9
		c0-1.1-0.4-2-1.6-2c-0.8,0-1.4,0.6-1.7,1.3c-0.1,0.2-0.1,0.4-0.1,0.6v4.1h-1.2V735.1z"/>
	<path class="st1" d="M144.6,730.1v8.2c0,0.6,0,1.3,0.1,1.8h-1.1l-0.1-1.2h0c-0.4,0.8-1.2,1.3-2.3,1.3c-1.6,0-2.9-1.4-2.9-3.4
		c0-2.3,1.4-3.6,3-3.6c1,0,1.7,0.5,2,1h0v-4H144.6z M143.3,736c0-0.2,0-0.4-0.1-0.5c-0.2-0.8-0.9-1.4-1.8-1.4c-1.3,0-2,1.1-2,2.6
		c0,1.4,0.7,2.5,2,2.5c0.8,0,1.6-0.5,1.8-1.5c0-0.2,0.1-0.3,0.1-0.5V736z"/>
	<path class="st1" d="M149.7,740v-5.8h-1v-0.9h1v-0.3c0-1,0.2-1.8,0.8-2.4c0.5-0.4,1.1-0.6,1.7-0.6c0.4,0,0.8,0.1,1.1,0.2l-0.2,1
		c-0.2-0.1-0.4-0.2-0.8-0.2c-1,0-1.3,0.9-1.3,2v0.4h1.6v0.9h-1.6v5.8H149.7z"/>
	<path class="st1" d="M154.2,736.9c0,1.7,1.1,2.4,2.3,2.4c0.9,0,1.4-0.2,1.9-0.3l0.2,0.9c-0.4,0.2-1.2,0.4-2.3,0.4
		c-2.1,0-3.3-1.4-3.3-3.4s1.2-3.7,3.2-3.7c2.2,0,2.8,1.9,2.8,3.2c0,0.3,0,0.4,0,0.6H154.2z M157.8,736c0-0.8-0.3-2-1.7-2
		c-1.2,0-1.8,1.1-1.9,2H157.8z"/>
	<path class="st1" d="M160.5,735.1c0-0.7,0-1.3-0.1-1.8h1.1l0.1,1.1h0c0.4-0.6,1-1.2,2.1-1.2c0.9,0,1.6,0.6,1.9,1.4h0
		c0.2-0.4,0.5-0.7,0.8-0.9c0.4-0.3,0.9-0.5,1.5-0.5c0.9,0,2.2,0.6,2.2,2.9v4H169v-3.8c0-1.3-0.5-2.1-1.5-2.1c-0.7,0-1.2,0.5-1.5,1.1
		c-0.1,0.2-0.1,0.4-0.1,0.6v4.2h-1.2V736c0-1.1-0.5-1.9-1.4-1.9c-0.8,0-1.3,0.6-1.5,1.2c-0.1,0.2-0.1,0.4-0.1,0.6v4.1h-1.2V735.1z"
		/>
	<path class="st1" d="M173.5,731.3c0,0.4-0.3,0.8-0.8,0.8c-0.4,0-0.7-0.3-0.7-0.8c0-0.4,0.3-0.8,0.8-0.8
		C173.2,730.6,173.5,730.9,173.5,731.3z M172.2,740v-6.8h1.2v6.8H172.2z"/>
	<path class="st1" d="M175.4,735.1c0-0.7,0-1.3-0.1-1.8h1.1l0.1,1.1h0c0.3-0.6,1.1-1.3,2.2-1.3c0.9,0,2.4,0.6,2.4,2.9v4H180v-3.9
		c0-1.1-0.4-2-1.6-2c-0.8,0-1.4,0.6-1.7,1.3c-0.1,0.2-0.1,0.4-0.1,0.6v4.1h-1.2V735.1z"/>
	<path class="st1" d="M184.6,731.3c0,0.4-0.3,0.8-0.8,0.8c-0.4,0-0.7-0.3-0.7-0.8c0-0.4,0.3-0.8,0.8-0.8
		C184.3,730.6,184.6,730.9,184.6,731.3z M183.2,740v-6.8h1.2v6.8H183.2z"/>
	<path class="st1" d="M186.5,735.1c0-0.7,0-1.3-0.1-1.8h1.1l0.1,1.1h0c0.3-0.6,1.1-1.3,2.2-1.3c0.9,0,2.4,0.6,2.4,2.9v4H191v-3.9
		c0-1.1-0.4-2-1.6-2c-0.8,0-1.4,0.6-1.7,1.3c-0.1,0.2-0.1,0.4-0.1,0.6v4.1h-1.2V735.1z"/>
	<path class="st1" d="M194.9,736.9c0,1.7,1.1,2.4,2.3,2.4c0.9,0,1.4-0.2,1.9-0.3l0.2,0.9c-0.4,0.2-1.2,0.4-2.3,0.4
		c-2.1,0-3.3-1.4-3.3-3.4s1.2-3.7,3.2-3.7c2.2,0,2.8,1.9,2.8,3.2c0,0.3,0,0.4,0,0.6H194.9z M198.6,736c0-0.8-0.3-2-1.7-2
		c-1.2,0-1.8,1.1-1.9,2H198.6z"/>
	<path class="st1" d="M207.1,735.8v0.9h-3.5v-0.9H207.1z"/>
	<path class="st1" d="M212,733.2l0.9,3.4c0.2,0.8,0.4,1.5,0.5,2.2h0c0.2-0.7,0.4-1.4,0.6-2.1l1.1-3.5h1l1.1,3.4
		c0.3,0.8,0.4,1.5,0.6,2.2h0c0.1-0.7,0.3-1.4,0.5-2.2l1-3.4h1.2l-2.2,6.8h-1.1l-1-3.2c-0.2-0.8-0.4-1.4-0.6-2.2h0
		c-0.2,0.8-0.4,1.5-0.6,2.2l-1.1,3.2h-1.1l-2-6.8H212z"/>
	<path class="st1" d="M221.8,730.1h1.2v4.2h0c0.2-0.4,0.5-0.7,0.9-0.9c0.4-0.2,0.8-0.3,1.3-0.3c0.9,0,2.4,0.6,2.4,2.9v4h-1.2v-3.9
		c0-1.1-0.4-2-1.6-2c-0.8,0-1.4,0.6-1.7,1.2c-0.1,0.2-0.1,0.4-0.1,0.6v4.1h-1.2V730.1z"/>
	<path class="st1" d="M230.3,736.9c0,1.7,1.1,2.4,2.3,2.4c0.9,0,1.4-0.2,1.9-0.3l0.2,0.9c-0.4,0.2-1.2,0.4-2.3,0.4
		c-2.1,0-3.3-1.4-3.3-3.4s1.2-3.7,3.2-3.7c2.2,0,2.8,1.9,2.8,3.2c0,0.3,0,0.4,0,0.6H230.3z M233.9,736c0-0.8-0.3-2-1.7-2
		c-1.2,0-1.8,1.1-1.9,2H233.9z"/>
	<path class="st1" d="M238.1,731.3v1.9h1.8v0.9h-1.8v3.7c0,0.8,0.2,1.3,0.9,1.3c0.3,0,0.6,0,0.7-0.1l0.1,0.9
		c-0.2,0.1-0.6,0.2-1.1,0.2c-0.6,0-1-0.2-1.3-0.5c-0.4-0.4-0.5-1-0.5-1.8v-3.7h-1.1v-0.9h1.1v-1.6L238.1,731.3z"/>
	<path class="st1" d="M241.2,730.1h1.2v4.2h0c0.2-0.4,0.5-0.7,0.9-0.9c0.4-0.2,0.8-0.3,1.3-0.3c0.9,0,2.4,0.6,2.4,2.9v4h-1.2v-3.9
		c0-1.1-0.4-2-1.6-2c-0.8,0-1.4,0.6-1.7,1.2c-0.1,0.2-0.1,0.4-0.1,0.6v4.1h-1.2V730.1z"/>
	<path class="st1" d="M249.7,736.9c0,1.7,1.1,2.4,2.3,2.4c0.9,0,1.4-0.2,1.9-0.3l0.2,0.9c-0.4,0.2-1.2,0.4-2.3,0.4
		c-2.1,0-3.3-1.4-3.3-3.4s1.2-3.7,3.2-3.7c2.2,0,2.8,1.9,2.8,3.2c0,0.3,0,0.4,0,0.6H249.7z M253.3,736c0-0.8-0.3-2-1.7-2
		c-1.2,0-1.8,1.1-1.9,2H253.3z"/>
	<path class="st1" d="M256,735.4c0-0.8,0-1.5-0.1-2.1h1.1l0,1.3h0.1c0.3-0.9,1-1.5,1.9-1.5c0.1,0,0.2,0,0.3,0v1.2
		c-0.1,0-0.3,0-0.4,0c-0.9,0-1.5,0.7-1.7,1.6c0,0.2-0.1,0.4-0.1,0.6v3.6H256V735.4z"/>
	<path class="st1" d="M265,731.3v1.9h1.8v0.9H265v3.7c0,0.8,0.2,1.3,0.9,1.3c0.3,0,0.6,0,0.7-0.1l0.1,0.9c-0.2,0.1-0.6,0.2-1.1,0.2
		c-0.6,0-1-0.2-1.3-0.5c-0.4-0.4-0.5-1-0.5-1.8v-3.7h-1.1v-0.9h1.1v-1.6L265,731.3z"/>
	<path class="st1" d="M268.2,730.1h1.2v4.2h0c0.2-0.4,0.5-0.7,0.9-0.9c0.4-0.2,0.8-0.3,1.3-0.3c0.9,0,2.4,0.6,2.4,2.9v4h-1.2v-3.9
		c0-1.1-0.4-2-1.6-2c-0.8,0-1.4,0.6-1.7,1.2c-0.1,0.2-0.1,0.4-0.1,0.6v4.1h-1.2V730.1z"/>
	<path class="st1" d="M276.6,736.9c0,1.7,1.1,2.4,2.3,2.4c0.9,0,1.4-0.2,1.9-0.3l0.2,0.9c-0.4,0.2-1.2,0.4-2.3,0.4
		c-2.1,0-3.3-1.4-3.3-3.4s1.2-3.7,3.2-3.7c2.2,0,2.8,1.9,2.8,3.2c0,0.3,0,0.4,0,0.6H276.6z M280.3,736c0-0.8-0.3-2-1.7-2
		c-1.2,0-1.8,1.1-1.9,2H280.3z"/>
	<path class="st1" d="M283.4,733.2l1.5,4c0.2,0.4,0.3,1,0.4,1.4h0c0.1-0.4,0.3-0.9,0.4-1.4l1.3-4h1.3l-1.8,4.8
		c-0.9,2.3-1.5,3.5-2.3,4.2c-0.6,0.5-1.2,0.7-1.5,0.8l-0.3-1c0.3-0.1,0.7-0.3,1.1-0.6c0.3-0.3,0.8-0.7,1-1.4
		c0.1-0.1,0.1-0.2,0.1-0.3c0-0.1,0-0.2-0.1-0.3l-2.5-6.2H283.4z"/>
	<path class="st1" d="M290.5,730.4l-0.2,3.4h-0.8l-0.2-3.4H290.5z"/>
	<path class="st1" d="M292.2,735.4c0-0.8,0-1.5-0.1-2.1h1.1l0,1.3h0.1c0.3-0.9,1-1.5,1.9-1.5c0.1,0,0.2,0,0.3,0v1.2
		c-0.1,0-0.3,0-0.4,0c-0.9,0-1.5,0.7-1.7,1.6c0,0.2-0.1,0.4-0.1,0.6v3.6h-1.2V735.4z"/>
	<path class="st1" d="M297.3,736.9c0,1.7,1.1,2.4,2.3,2.4c0.9,0,1.4-0.2,1.9-0.3l0.2,0.9c-0.4,0.2-1.2,0.4-2.3,0.4
		c-2.1,0-3.3-1.4-3.3-3.4s1.2-3.7,3.2-3.7c2.2,0,2.8,1.9,2.8,3.2c0,0.3,0,0.4,0,0.6H297.3z M300.9,736c0-0.8-0.3-2-1.7-2
		c-1.2,0-1.8,1.1-1.9,2H300.9z"/>
	<path class="st1" d="M312.5,730.1v8.2c0,0.6,0,1.3,0.1,1.8h-1.1l-0.1-1.2h0c-0.4,0.8-1.2,1.3-2.3,1.3c-1.6,0-2.9-1.4-2.9-3.4
		c0-2.3,1.4-3.6,3-3.6c1,0,1.7,0.5,2,1h0v-4H312.5z M311.2,736c0-0.2,0-0.4-0.1-0.5c-0.2-0.8-0.9-1.4-1.8-1.4c-1.3,0-2,1.1-2,2.6
		c0,1.4,0.7,2.5,2,2.5c0.8,0,1.6-0.5,1.8-1.5c0-0.2,0.1-0.3,0.1-0.5V736z"/>
	<path class="st1" d="M318.3,740l-0.1-0.9h0c-0.4,0.5-1.1,1-2.1,1c-1.4,0-2.1-1-2.1-1.9c0-1.6,1.5-2.5,4.1-2.5v-0.1
		c0-0.6-0.2-1.6-1.5-1.6c-0.6,0-1.3,0.2-1.8,0.5l-0.3-0.8c0.6-0.4,1.4-0.6,2.2-0.6c2.1,0,2.6,1.4,2.6,2.8v2.5c0,0.6,0,1.2,0.1,1.6
		H318.3z M318.1,736.6c-1.3,0-2.9,0.2-2.9,1.5c0,0.8,0.5,1.2,1.2,1.2c0.9,0,1.4-0.6,1.6-1.1c0-0.1,0.1-0.3,0.1-0.4V736.6z"/>
	<path class="st1" d="M321.3,735.1c0-0.7,0-1.3-0.1-1.8h1.1l0.1,1.1h0c0.3-0.6,1.1-1.3,2.2-1.3c0.9,0,2.4,0.6,2.4,2.9v4h-1.2v-3.9
		c0-1.1-0.4-2-1.6-2c-0.8,0-1.4,0.6-1.7,1.3c-0.1,0.2-0.1,0.4-0.1,0.6v4.1h-1.2V735.1z"/>
	<path class="st1" d="M333.9,739.8c-0.3,0.2-1,0.4-1.9,0.4c-2,0-3.4-1.4-3.4-3.5c0-2.1,1.4-3.6,3.6-3.6c0.7,0,1.4,0.2,1.7,0.4
		l-0.3,1c-0.3-0.2-0.8-0.3-1.4-0.3c-1.6,0-2.4,1.1-2.4,2.6c0,1.6,1,2.5,2.4,2.5c0.7,0,1.2-0.2,1.5-0.3L333.9,739.8z"/>
	<path class="st1" d="M336.7,731.3c0,0.4-0.3,0.8-0.8,0.8c-0.4,0-0.7-0.3-0.7-0.8c0-0.4,0.3-0.8,0.8-0.8
		C336.4,730.6,336.7,730.9,336.7,731.3z M335.3,740v-6.8h1.2v6.8H335.3z"/>
	<path class="st1" d="M338.6,735.1c0-0.7,0-1.3-0.1-1.8h1.1l0.1,1.1h0c0.3-0.6,1.1-1.3,2.2-1.3c0.9,0,2.4,0.6,2.4,2.9v4h-1.2v-3.9
		c0-1.1-0.4-2-1.6-2c-0.8,0-1.4,0.6-1.7,1.3c-0.1,0.2-0.1,0.4-0.1,0.6v4.1h-1.2V735.1z"/>
	<path class="st1" d="M352.2,733.2c0,0.5-0.1,1-0.1,1.9v3.9c0,1.6-0.3,2.5-1,3.1c-0.7,0.6-1.6,0.8-2.5,0.8c-0.8,0-1.7-0.2-2.3-0.6
		l0.3-0.9c0.4,0.3,1.1,0.5,2,0.5c1.3,0,2.2-0.7,2.2-2.4v-0.8h0c-0.4,0.6-1.1,1.1-2.2,1.1c-1.7,0-2.9-1.4-2.9-3.3
		c0-2.3,1.5-3.6,3.1-3.6c1.2,0,1.8,0.6,2.1,1.2h0l0.1-1H352.2z M350.9,735.9c0-0.2,0-0.4-0.1-0.6c-0.2-0.7-0.8-1.3-1.7-1.3
		c-1.2,0-2,1-2,2.6c0,1.3,0.7,2.4,2,2.4c0.8,0,1.4-0.5,1.7-1.3c0.1-0.2,0.1-0.4,0.1-0.7V735.9z"/>
	<path class="st1" d="M357.6,733.2l0.9,3.4c0.2,0.8,0.4,1.5,0.5,2.2h0c0.2-0.7,0.4-1.4,0.6-2.1l1.1-3.5h1l1.1,3.4
		c0.3,0.8,0.4,1.5,0.6,2.2h0c0.1-0.7,0.3-1.4,0.5-2.2l1-3.4h1.2L364,740h-1.1l-1-3.2c-0.2-0.8-0.4-1.4-0.6-2.2h0
		c-0.2,0.8-0.4,1.5-0.6,2.2l-1.1,3.2h-1.1l-2-6.8H357.6z"/>
	<path class="st1" d="M368.8,731.3c0,0.4-0.3,0.8-0.8,0.8c-0.4,0-0.7-0.3-0.7-0.8c0-0.4,0.3-0.8,0.8-0.8
		C368.5,730.6,368.8,730.9,368.8,731.3z M367.4,740v-6.8h1.2v6.8H367.4z"/>
	<path class="st1" d="M372.2,731.3v1.9h1.8v0.9h-1.8v3.7c0,0.8,0.2,1.3,0.9,1.3c0.3,0,0.6,0,0.7-0.1l0.1,0.9
		c-0.2,0.1-0.6,0.2-1.1,0.2c-0.6,0-1-0.2-1.3-0.5c-0.4-0.4-0.5-1-0.5-1.8v-3.7h-1.1v-0.9h1.1v-1.6L372.2,731.3z"/>
	<path class="st1" d="M375.4,730.1h1.2v4.2h0c0.2-0.4,0.5-0.7,0.9-0.9c0.4-0.2,0.8-0.3,1.3-0.3c0.9,0,2.4,0.6,2.4,2.9v4h-1.2v-3.9
		c0-1.1-0.4-2-1.6-2c-0.8,0-1.4,0.6-1.7,1.2c-0.1,0.2-0.1,0.4-0.1,0.6v4.1h-1.2V730.1z"/>
	<path class="st1" d="M386.2,740v-5.8h-1v-0.9h1v-0.4c0-1.8,1.1-3,3-3c0.6,0,1.4,0.2,1.7,0.4l-0.4,0.9c-0.3-0.2-0.8-0.4-1.4-0.4
		c-1.3,0-1.7,0.9-1.7,2v0.3h3.9v6.8h-1.2v-5.8h-2.7v5.8H386.2z"/>
	<path class="st1" d="M393.4,735.4c0-0.8,0-1.5-0.1-2.1h1.1l0,1.3h0.1c0.3-0.9,1-1.5,1.9-1.5c0.1,0,0.2,0,0.3,0v1.2
		c-0.1,0-0.3,0-0.4,0c-0.9,0-1.5,0.7-1.7,1.6c0,0.2-0.1,0.4-0.1,0.6v3.6h-1.2V735.4z"/>
	<path class="st1" d="M398.5,736.9c0,1.7,1.1,2.4,2.3,2.4c0.9,0,1.4-0.2,1.9-0.3l0.2,0.9c-0.4,0.2-1.2,0.4-2.3,0.4
		c-2.1,0-3.3-1.4-3.3-3.4s1.2-3.7,3.2-3.7c2.2,0,2.8,1.9,2.8,3.2c0,0.3,0,0.4,0,0.6H398.5z M402.1,736c0-0.8-0.3-2-1.7-2
		c-1.2,0-1.8,1.1-1.9,2H402.1z"/>
	<path class="st1" d="M403.9,741.8c0.3-0.8,0.7-2.3,0.8-3.3l1.4-0.1c-0.3,1.2-0.9,2.7-1.3,3.4L403.9,741.8z"/>
	<path class="st1" d="M411.9,731.3c0,0.4-0.3,0.8-0.8,0.8c-0.4,0-0.7-0.3-0.7-0.8c0-0.4,0.3-0.8,0.8-0.8
		C411.6,730.6,411.9,730.9,411.9,731.3z M410.6,740v-6.8h1.2v6.8H410.6z"/>
	<path class="st1" d="M413.8,735.1c0-0.7,0-1.3-0.1-1.8h1.1l0.1,1.1h0c0.3-0.6,1.1-1.3,2.2-1.3c0.9,0,2.4,0.6,2.4,2.9v4h-1.2v-3.9
		c0-1.1-0.4-2-1.6-2c-0.8,0-1.4,0.6-1.7,1.3c-0.1,0.2-0.1,0.4-0.1,0.6v4.1h-1.2V735.1z"/>
	<path class="st1" d="M426.1,731.3v1.9h1.8v0.9h-1.8v3.7c0,0.8,0.2,1.3,0.9,1.3c0.3,0,0.6,0,0.7-0.1l0.1,0.9
		c-0.2,0.1-0.6,0.2-1.1,0.2c-0.6,0-1-0.2-1.3-0.5c-0.4-0.4-0.5-1-0.5-1.8v-3.7h-1.1v-0.9h1.1v-1.6L426.1,731.3z"/>
	<path class="st1" d="M429.2,730.1h1.2v4.2h0c0.2-0.4,0.5-0.7,0.9-0.9c0.4-0.2,0.8-0.3,1.3-0.3c0.9,0,2.4,0.6,2.4,2.9v4h-1.2v-3.9
		c0-1.1-0.4-2-1.6-2c-0.8,0-1.4,0.6-1.7,1.2c-0.1,0.2-0.1,0.4-0.1,0.6v4.1h-1.2V730.1z"/>
	<path class="st1" d="M437.7,736.9c0,1.7,1.1,2.4,2.3,2.4c0.9,0,1.4-0.2,1.9-0.3l0.2,0.9c-0.4,0.2-1.2,0.4-2.3,0.4
		c-2.1,0-3.3-1.4-3.3-3.4s1.2-3.7,3.2-3.7c2.2,0,2.8,1.9,2.8,3.2c0,0.3,0,0.4,0,0.6H437.7z M441.3,736c0-0.8-0.3-2-1.7-2
		c-1.2,0-1.8,1.1-1.9,2H441.3z"/>
	<path class="st1" d="M450.7,740l-0.1-0.9h0c-0.4,0.5-1.1,1-2.1,1c-1.4,0-2.1-1-2.1-1.9c0-1.6,1.5-2.5,4.1-2.5v-0.1
		c0-0.6-0.2-1.6-1.5-1.6c-0.6,0-1.3,0.2-1.8,0.5l-0.3-0.8c0.6-0.4,1.4-0.6,2.2-0.6c2.1,0,2.6,1.4,2.6,2.8v2.5c0,0.6,0,1.2,0.1,1.6
		H450.7z M450.5,736.6c-1.3,0-2.9,0.2-2.9,1.5c0,0.8,0.5,1.2,1.2,1.2c0.9,0,1.4-0.6,1.6-1.1c0-0.1,0.1-0.3,0.1-0.4V736.6z"/>
	<path class="st1" d="M455.1,731.3c0,0.4-0.3,0.8-0.8,0.8c-0.4,0-0.7-0.3-0.7-0.8c0-0.4,0.3-0.8,0.8-0.8
		C454.8,730.6,455.1,730.9,455.1,731.3z M453.7,740v-6.8h1.2v6.8H453.7z"/>
	<path class="st1" d="M457,735.4c0-0.8,0-1.5-0.1-2.1h1.1l0,1.3h0.1c0.3-0.9,1-1.5,1.9-1.5c0.1,0,0.2,0,0.3,0v1.2
		c-0.1,0-0.3,0-0.4,0c-0.9,0-1.5,0.7-1.7,1.6c0,0.2-0.1,0.4-0.1,0.6v3.6H457V735.4z"/>
	<path class="st1" d="M460,741.8c0.3-0.8,0.7-2.3,0.8-3.3l1.4-0.1c-0.3,1.2-0.9,2.7-1.3,3.4L460,741.8z"/>
	<path class="st1" d="M472.8,736.6c0,2.5-1.7,3.6-3.4,3.6c-1.8,0-3.2-1.3-3.2-3.5c0-2.3,1.5-3.6,3.4-3.6
		C471.5,733.1,472.8,734.5,472.8,736.6z M467.4,736.7c0,1.5,0.9,2.6,2.1,2.6c1.2,0,2.1-1.1,2.1-2.6c0-1.1-0.6-2.6-2-2.6
		S467.4,735.4,467.4,736.7z"/>
	<path class="st1" d="M474.4,735.4c0-0.8,0-1.5-0.1-2.1h1.1l0,1.3h0.1c0.3-0.9,1-1.5,1.9-1.5c0.1,0,0.2,0,0.3,0v1.2
		c-0.1,0-0.3,0-0.4,0c-0.9,0-1.5,0.7-1.7,1.6c0,0.2-0.1,0.4-0.1,0.6v3.6h-1.2V735.4z"/>
	<path class="st1" d="M482.4,733.2l0.9,3.4c0.2,0.8,0.4,1.5,0.5,2.2h0c0.2-0.7,0.4-1.4,0.6-2.1l1.1-3.5h1l1.1,3.4
		c0.3,0.8,0.4,1.5,0.6,2.2h0c0.1-0.7,0.3-1.4,0.5-2.2l1-3.4h1.2l-2.2,6.8h-1.1l-1-3.2c-0.2-0.8-0.4-1.4-0.6-2.2h0
		c-0.2,0.8-0.4,1.5-0.6,2.2l-1.1,3.2h-1.1l-2-6.8H482.4z"/>
	<path class="st1" d="M493.6,731.3c0,0.4-0.3,0.8-0.8,0.8c-0.4,0-0.7-0.3-0.7-0.8c0-0.4,0.3-0.8,0.8-0.8
		C493.3,730.6,493.6,730.9,493.6,731.3z M492.2,740v-6.8h1.2v6.8H492.2z"/>
	<path class="st1" d="M497,731.3v1.9h1.8v0.9H497v3.7c0,0.8,0.2,1.3,0.9,1.3c0.3,0,0.6,0,0.7-0.1l0.1,0.9c-0.2,0.1-0.6,0.2-1.1,0.2
		c-0.6,0-1-0.2-1.3-0.5c-0.4-0.4-0.5-1-0.5-1.8v-3.7h-1.1v-0.9h1.1v-1.6L497,731.3z"/>
	<path class="st1" d="M500.1,730.1h1.2v4.2h0c0.2-0.4,0.5-0.7,0.9-0.9c0.4-0.2,0.8-0.3,1.3-0.3c0.9,0,2.4,0.6,2.4,2.9v4h-1.2v-3.9
		c0-1.1-0.4-2-1.6-2c-0.8,0-1.4,0.6-1.7,1.2c-0.1,0.2-0.1,0.4-0.1,0.6v4.1h-1.2V730.1z"/>
	<path class="st1" d="M512.4,731.3v1.9h1.8v0.9h-1.8v3.7c0,0.8,0.2,1.3,0.9,1.3c0.3,0,0.6,0,0.7-0.1l0.1,0.9
		c-0.2,0.1-0.6,0.2-1.1,0.2c-0.6,0-1-0.2-1.3-0.5c-0.4-0.4-0.5-1-0.5-1.8v-3.7h-1.1v-0.9h1.1v-1.6L512.4,731.3z"/>
	<path class="st1" d="M515.5,730.1h1.2v4.2h0c0.2-0.4,0.5-0.7,0.9-0.9c0.4-0.2,0.8-0.3,1.3-0.3c0.9,0,2.4,0.6,2.4,2.9v4H520v-3.9
		c0-1.1-0.4-2-1.6-2c-0.8,0-1.4,0.6-1.7,1.2c-0.1,0.2-0.1,0.4-0.1,0.6v4.1h-1.2V730.1z"/>
	<path class="st1" d="M524,736.9c0,1.7,1.1,2.4,2.3,2.4c0.9,0,1.4-0.2,1.9-0.3l0.2,0.9c-0.4,0.2-1.2,0.4-2.3,0.4
		c-2.1,0-3.3-1.4-3.3-3.4s1.2-3.7,3.2-3.7c2.2,0,2.8,1.9,2.8,3.2c0,0.3,0,0.4,0,0.6H524z M527.6,736c0-0.8-0.3-2-1.7-2
		c-1.2,0-1.8,1.1-1.9,2H527.6z"/>
	<path class="st1" d="M530.3,735.1c0-0.7,0-1.3-0.1-1.8h1.1l0.1,1.1h0c0.4-0.6,1-1.2,2.1-1.2c0.9,0,1.6,0.6,1.9,1.4h0
		c0.2-0.4,0.5-0.7,0.8-0.9c0.4-0.3,0.9-0.5,1.5-0.5c0.9,0,2.2,0.6,2.2,2.9v4h-1.2v-3.8c0-1.3-0.5-2.1-1.5-2.1
		c-0.7,0-1.2,0.5-1.5,1.1c-0.1,0.2-0.1,0.4-0.1,0.6v4.2h-1.2V736c0-1.1-0.5-1.9-1.4-1.9c-0.8,0-1.3,0.6-1.5,1.2
		c-0.1,0.2-0.1,0.4-0.1,0.6v4.1h-1.2V735.1z"/>
	<path class="st1" d="M541.8,738.8c0.4,0.2,1,0.5,1.6,0.5c0.9,0,1.3-0.4,1.3-1c0-0.6-0.3-0.9-1.3-1.2c-1.2-0.4-1.8-1.1-1.8-1.9
		c0-1.1,0.9-2,2.3-2c0.7,0,1.3,0.2,1.7,0.4l-0.3,0.9c-0.3-0.2-0.8-0.4-1.4-0.4c-0.7,0-1.1,0.4-1.1,0.9c0,0.6,0.4,0.8,1.3,1.1
		c1.2,0.4,1.8,1,1.8,2c0,1.2-0.9,2-2.5,2c-0.7,0-1.4-0.2-1.9-0.5L541.8,738.8z"/>
	<path class="st1" d="M548.2,736.9c0,1.7,1.1,2.4,2.3,2.4c0.9,0,1.4-0.2,1.9-0.3l0.2,0.9c-0.4,0.2-1.2,0.4-2.3,0.4
		c-2.1,0-3.3-1.4-3.3-3.4s1.2-3.7,3.2-3.7c2.2,0,2.8,1.9,2.8,3.2c0,0.3,0,0.4,0,0.6H548.2z M551.8,736c0-0.8-0.3-2-1.7-2
		c-1.2,0-1.8,1.1-1.9,2H551.8z"/>
	<path class="st1" d="M554.5,730.1h1.2v9.9h-1.2V730.1z"/>
	<path class="st1" d="M557.9,740v-5.8h-1v-0.9h1v-0.3c0-1,0.2-1.8,0.8-2.4c0.5-0.4,1.1-0.6,1.7-0.6c0.4,0,0.8,0.1,1.1,0.2l-0.2,1
		c-0.2-0.1-0.4-0.2-0.8-0.2c-1,0-1.3,0.9-1.3,2v0.4h1.6v0.9h-1.6v5.8H557.9z"/>
	<path class="st1" d="M561.2,739.3c0-0.5,0.3-0.9,0.8-0.9c0.5,0,0.8,0.4,0.8,0.9c0,0.5-0.3,0.9-0.8,0.9
		C561.5,740.2,561.2,739.8,561.2,739.3z"/>
	<path class="st1" d="M121.5,756.8l-2.4-9.4h1.3l1.1,4.8c0.3,1.2,0.5,2.4,0.7,3.3h0c0.2-0.9,0.4-2.1,0.8-3.3l1.3-4.8h1.3l1.1,4.8
		c0.3,1.1,0.5,2.2,0.7,3.2h0c0.2-1,0.5-2.1,0.8-3.3l1.2-4.8h1.2l-2.7,9.4h-1.3l-1.2-4.9c-0.3-1.2-0.5-2.1-0.6-3.1h0
		c-0.2,0.9-0.4,1.9-0.7,3.1l-1.3,4.9H121.5z"/>
	<path class="st1" d="M135,756.8l-0.1-0.9h0c-0.4,0.5-1.1,1-2.1,1c-1.4,0-2.1-1-2.1-1.9c0-1.6,1.5-2.5,4.1-2.5v-0.1
		c0-0.6-0.2-1.6-1.5-1.6c-0.6,0-1.3,0.2-1.8,0.5l-0.3-0.8c0.6-0.4,1.4-0.6,2.2-0.6c2.1,0,2.6,1.4,2.6,2.8v2.5c0,0.6,0,1.2,0.1,1.6
		H135z M134.8,753.4c-1.3,0-2.9,0.2-2.9,1.5c0,0.8,0.5,1.2,1.2,1.2c0.9,0,1.4-0.6,1.6-1.1c0-0.1,0.1-0.3,0.1-0.4V753.4z"/>
	<path class="st1" d="M139.4,748.1v1.9h1.8v0.9h-1.8v3.7c0,0.8,0.2,1.3,0.9,1.3c0.3,0,0.6,0,0.7-0.1l0.1,0.9
		c-0.2,0.1-0.6,0.2-1.1,0.2c-0.6,0-1-0.2-1.3-0.5c-0.4-0.4-0.5-1-0.5-1.8V751h-1.1V750h1.1v-1.6L139.4,748.1z"/>
	<path class="st1" d="M147.3,756.6c-0.3,0.2-1,0.4-1.9,0.4c-2,0-3.4-1.4-3.4-3.5c0-2.1,1.4-3.6,3.6-3.6c0.7,0,1.4,0.2,1.7,0.4
		l-0.3,1c-0.3-0.2-0.8-0.3-1.4-0.3c-1.6,0-2.4,1.1-2.4,2.6c0,1.6,1,2.5,2.4,2.5c0.7,0,1.2-0.2,1.5-0.3L147.3,756.6z"/>
	<path class="st1" d="M148.8,746.9h1.2v4.2h0c0.2-0.4,0.5-0.7,0.9-0.9c0.4-0.2,0.8-0.4,1.3-0.4c0.9,0,2.4,0.6,2.4,2.9v4h-1.2v-3.9
		c0-1.1-0.4-2-1.6-2c-0.8,0-1.4,0.6-1.7,1.2c-0.1,0.2-0.1,0.4-0.1,0.6v4.1h-1.2V746.9z"/>
	<path class="st1" d="M163.3,756.8l-0.1-0.9h0c-0.4,0.5-1.1,1-2.1,1c-1.4,0-2.1-1-2.1-1.9c0-1.6,1.5-2.5,4.1-2.5v-0.1
		c0-0.6-0.2-1.6-1.5-1.6c-0.6,0-1.3,0.2-1.8,0.5l-0.3-0.8c0.6-0.4,1.4-0.6,2.2-0.6c2.1,0,2.6,1.4,2.6,2.8v2.5c0,0.6,0,1.2,0.1,1.6
		H163.3z M163.1,753.4c-1.3,0-2.9,0.2-2.9,1.5c0,0.8,0.5,1.2,1.2,1.2c0.9,0,1.4-0.6,1.6-1.1c0-0.1,0.1-0.3,0.1-0.4V753.4z"/>
	<path class="st1" d="M166.1,755.6c0.4,0.2,1,0.5,1.6,0.5c0.9,0,1.3-0.4,1.3-1c0-0.6-0.3-0.9-1.3-1.2c-1.2-0.4-1.8-1.1-1.8-1.9
		c0-1.1,0.9-2,2.3-2c0.7,0,1.3,0.2,1.7,0.4l-0.3,0.9c-0.3-0.2-0.8-0.4-1.4-0.4c-0.7,0-1.1,0.4-1.1,0.9c0,0.6,0.4,0.8,1.3,1.1
		c1.2,0.4,1.8,1,1.8,2c0,1.2-0.9,2-2.5,2c-0.7,0-1.4-0.2-1.9-0.5L166.1,755.6z"/>
	<path class="st1" d="M174.8,746.9h1.2v4.2h0c0.2-0.4,0.5-0.7,0.9-0.9c0.4-0.2,0.8-0.4,1.3-0.4c0.9,0,2.4,0.6,2.4,2.9v4h-1.2v-3.9
		c0-1.1-0.4-2-1.6-2c-0.8,0-1.4,0.6-1.7,1.2c-0.1,0.2-0.1,0.4-0.1,0.6v4.1h-1.2V746.9z"/>
	<path class="st1" d="M183.2,753.7c0,1.7,1.1,2.4,2.3,2.4c0.9,0,1.4-0.2,1.9-0.4l0.2,0.9c-0.4,0.2-1.2,0.4-2.3,0.4
		c-2.1,0-3.3-1.4-3.3-3.4c0-2,1.2-3.7,3.2-3.7c2.2,0,2.8,1.9,2.8,3.2c0,0.3,0,0.4,0,0.6H183.2z M186.8,752.8c0-0.8-0.3-2-1.7-2
		c-1.2,0-1.8,1.1-1.9,2H186.8z"/>
	<path class="st1" d="M192.6,756.8V751h-1V750h1v-0.3c0-1,0.2-1.8,0.8-2.4c0.5-0.4,1.1-0.6,1.7-0.6c0.4,0,0.8,0.1,1.1,0.2l-0.2,1
		c-0.2-0.1-0.4-0.2-0.8-0.2c-1,0-1.3,0.9-1.3,2v0.4h1.6v0.9h-1.6v5.8H192.6z"/>
	<path class="st1" d="M200.4,756.8l-0.1-0.9h0c-0.4,0.5-1.1,1-2.1,1c-1.4,0-2.1-1-2.1-1.9c0-1.6,1.5-2.5,4.1-2.5v-0.1
		c0-0.6-0.2-1.6-1.5-1.6c-0.6,0-1.3,0.2-1.8,0.5l-0.3-0.8c0.6-0.4,1.4-0.6,2.2-0.6c2.1,0,2.6,1.4,2.6,2.8v2.5c0,0.6,0,1.2,0.1,1.6
		H200.4z M200.2,753.4c-1.3,0-2.9,0.2-2.9,1.5c0,0.8,0.5,1.2,1.2,1.2c0.9,0,1.4-0.6,1.6-1.1c0-0.1,0.1-0.3,0.1-0.4V753.4z"/>
	<path class="st1" d="M203.4,751.9c0-0.7,0-1.3-0.1-1.8h1.1l0.1,1.1h0c0.3-0.6,1.1-1.3,2.2-1.3c0.9,0,2.4,0.6,2.4,2.9v4h-1.2v-3.9
		c0-1.1-0.4-2-1.6-2c-0.8,0-1.4,0.6-1.7,1.3c-0.1,0.2-0.1,0.4-0.1,0.6v4.1h-1.2V751.9z"/>
	<path class="st1" d="M211,755.6c0.4,0.2,1,0.5,1.6,0.5c0.9,0,1.3-0.4,1.3-1c0-0.6-0.3-0.9-1.3-1.2c-1.2-0.4-1.8-1.1-1.8-1.9
		c0-1.1,0.9-2,2.3-2c0.7,0,1.3,0.2,1.7,0.4l-0.3,0.9c-0.3-0.2-0.8-0.4-1.4-0.4c-0.7,0-1.1,0.4-1.1,0.9c0,0.6,0.4,0.8,1.3,1.1
		c1.2,0.4,1.8,1,1.8,2c0,1.2-0.9,2-2.5,2c-0.7,0-1.4-0.2-1.9-0.5L211,755.6z"/>
	<path class="st1" d="M219.6,746.9h1.2v4.2h0c0.2-0.4,0.5-0.7,0.9-0.9c0.4-0.2,0.8-0.4,1.3-0.4c0.9,0,2.4,0.6,2.4,2.9v4h-1.2v-3.9
		c0-1.1-0.4-2-1.6-2c-0.8,0-1.4,0.6-1.7,1.2c-0.1,0.2-0.1,0.4-0.1,0.6v4.1h-1.2V746.9z"/>
	<path class="st1" d="M228.8,748.1c0,0.4-0.3,0.8-0.8,0.8c-0.4,0-0.7-0.3-0.7-0.8c0-0.4,0.3-0.8,0.8-0.8
		C228.5,747.4,228.8,747.7,228.8,748.1z M227.4,756.8V750h1.2v6.8H227.4z"/>
	<path class="st1" d="M230.5,755.6c0.4,0.2,1,0.5,1.6,0.5c0.9,0,1.3-0.4,1.3-1c0-0.6-0.3-0.9-1.3-1.2c-1.2-0.4-1.8-1.1-1.8-1.9
		c0-1.1,0.9-2,2.3-2c0.7,0,1.3,0.2,1.7,0.4l-0.3,0.9c-0.3-0.2-0.8-0.4-1.4-0.4c-0.7,0-1.1,0.4-1.1,0.9c0,0.6,0.4,0.8,1.3,1.1
		c1.2,0.4,1.8,1,1.8,2c0,1.2-0.9,2-2.5,2c-0.7,0-1.4-0.2-1.9-0.5L230.5,755.6z"/>
	<path class="st1" d="M239.3,756.8V751h-1V750h1v-0.3c0-0.9,0.3-1.8,1-2.3c0.5-0.4,1.2-0.7,2.2-0.7c0.8,0,1.5,0.2,2,0.4v9.7h-1.2v-9
		c-0.2-0.1-0.5-0.2-1-0.2c-1.3,0-1.7,0.9-1.7,2v0.3h1.6v0.9h-1.6v5.8H239.3z"/>
	<path class="st1" d="M250.3,756.8l-0.1-0.9h0c-0.4,0.5-1.1,1-2.1,1c-1.4,0-2.1-1-2.1-1.9c0-1.6,1.5-2.5,4.1-2.5v-0.1
		c0-0.6-0.2-1.6-1.5-1.6c-0.6,0-1.3,0.2-1.8,0.5l-0.3-0.8c0.6-0.4,1.4-0.6,2.2-0.6c2.1,0,2.6,1.4,2.6,2.8v2.5c0,0.6,0,1.2,0.1,1.6
		H250.3z M250.1,753.4c-1.3,0-2.9,0.2-2.9,1.5c0,0.8,0.5,1.2,1.2,1.2c0.9,0,1.4-0.6,1.6-1.1c0-0.1,0.1-0.3,0.1-0.4V753.4z"/>
	<path class="st1" d="M253.3,751.9c0-0.7,0-1.3-0.1-1.8h1.1l0.1,1.1h0c0.4-0.6,1-1.2,2.1-1.2c0.9,0,1.6,0.6,1.9,1.4h0
		c0.2-0.4,0.5-0.7,0.8-0.9c0.4-0.3,0.9-0.5,1.5-0.5c0.9,0,2.2,0.6,2.2,2.9v4h-1.2V753c0-1.3-0.5-2.1-1.5-2.1c-0.7,0-1.2,0.5-1.5,1.1
		c-0.1,0.2-0.1,0.4-0.1,0.6v4.2h-1.2v-4.1c0-1.1-0.5-1.9-1.4-1.9c-0.8,0-1.3,0.6-1.5,1.2c-0.1,0.2-0.1,0.4-0.1,0.6v4.1h-1.2V751.9z"
		/>
	<path class="st1" d="M265.6,753.7c0,1.7,1.1,2.4,2.3,2.4c0.9,0,1.4-0.2,1.9-0.4l0.2,0.9c-0.4,0.2-1.2,0.4-2.3,0.4
		c-2.1,0-3.3-1.4-3.3-3.4c0-2,1.2-3.7,3.2-3.7c2.2,0,2.8,1.9,2.8,3.2c0,0.3,0,0.4,0,0.6H265.6z M269.2,752.8c0-0.8-0.3-2-1.7-2
		c-1.2,0-1.8,1.1-1.9,2H269.2z"/>
	<path class="st1" d="M271.8,755.6c0.4,0.2,1,0.5,1.6,0.5c0.9,0,1.3-0.4,1.3-1c0-0.6-0.3-0.9-1.3-1.2c-1.2-0.4-1.8-1.1-1.8-1.9
		c0-1.1,0.9-2,2.3-2c0.7,0,1.3,0.2,1.7,0.4l-0.3,0.9c-0.3-0.2-0.8-0.4-1.4-0.4c-0.7,0-1.1,0.4-1.1,0.9c0,0.6,0.4,0.8,1.3,1.1
		c1.2,0.4,1.8,1,1.8,2c0,1.2-0.9,2-2.5,2c-0.7,0-1.4-0.2-1.9-0.5L271.8,755.6z"/>
	<path class="st1" d="M281.8,748.1c0,0.4-0.3,0.8-0.8,0.8c-0.4,0-0.7-0.3-0.7-0.8c0-0.4,0.3-0.8,0.8-0.8
		C281.5,747.4,281.8,747.7,281.8,748.1z M280.5,756.8V750h1.2v6.8H280.5z"/>
	<path class="st1" d="M283.7,751.9c0-0.7,0-1.3-0.1-1.8h1.1l0.1,1.1h0c0.3-0.6,1.1-1.3,2.2-1.3c0.9,0,2.4,0.6,2.4,2.9v4h-1.2v-3.9
		c0-1.1-0.4-2-1.6-2c-0.8,0-1.4,0.6-1.7,1.3c-0.1,0.2-0.1,0.4-0.1,0.6v4.1h-1.2V751.9z"/>
	<path class="st1" d="M292.9,748.1v1.9h1.8v0.9h-1.8v3.7c0,0.8,0.2,1.3,0.9,1.3c0.3,0,0.6,0,0.7-0.1l0.1,0.9
		c-0.2,0.1-0.6,0.2-1.1,0.2c-0.6,0-1-0.2-1.3-0.5c-0.4-0.4-0.5-1-0.5-1.8V751h-1.1V750h1.1v-1.6L292.9,748.1z"/>
	<path class="st1" d="M302.1,753.4c0,2.5-1.7,3.6-3.4,3.6c-1.8,0-3.2-1.3-3.2-3.5c0-2.3,1.5-3.6,3.4-3.6
		C300.8,749.9,302.1,751.3,302.1,753.4z M296.8,753.5c0,1.5,0.9,2.6,2.1,2.6c1.2,0,2.1-1.1,2.1-2.6c0-1.1-0.6-2.6-2-2.6
		S296.8,752.2,296.8,753.5z"/>
	<path class="st1" d="M310.4,756.8l-0.1-0.9h0c-0.4,0.5-1.1,1-2.1,1c-1.4,0-2.1-1-2.1-1.9c0-1.6,1.5-2.5,4.1-2.5v-0.1
		c0-0.6-0.2-1.6-1.5-1.6c-0.6,0-1.3,0.2-1.8,0.5l-0.3-0.8c0.6-0.4,1.4-0.6,2.2-0.6c2.1,0,2.6,1.4,2.6,2.8v2.5c0,0.6,0,1.2,0.1,1.6
		H310.4z M310.2,753.4c-1.3,0-2.9,0.2-2.9,1.5c0,0.8,0.5,1.2,1.2,1.2c0.9,0,1.4-0.6,1.6-1.1c0-0.1,0.1-0.3,0.1-0.4V753.4z"/>
	<path class="st1" d="M313.4,751.9c0-0.7,0-1.3-0.1-1.8h1.1l0.1,1.1h0c0.3-0.6,1.1-1.3,2.2-1.3c0.9,0,2.4,0.6,2.4,2.9v4h-1.2v-3.9
		c0-1.1-0.4-2-1.6-2c-0.8,0-1.4,0.6-1.7,1.3c-0.1,0.2-0.1,0.4-0.1,0.6v4.1h-1.2V751.9z"/>
	<path class="st1" d="M325.5,748.1c0,0.4-0.3,0.8-0.8,0.8c-0.4,0-0.7-0.3-0.7-0.8c0-0.4,0.3-0.8,0.8-0.8
		C325.2,747.4,325.5,747.7,325.5,748.1z M324.1,756.8V750h1.2v6.8H324.1z"/>
	<path class="st1" d="M327.4,751.9c0-0.7,0-1.3-0.1-1.8h1.1l0.1,1.1h0c0.3-0.6,1.1-1.3,2.2-1.3c0.9,0,2.4,0.6,2.4,2.9v4H332v-3.9
		c0-1.1-0.4-2-1.6-2c-0.8,0-1.4,0.6-1.7,1.3c-0.1,0.2-0.1,0.4-0.1,0.6v4.1h-1.2V751.9z"/>
	<path class="st1" d="M335.3,756.8V751h-1V750h1v-0.3c0-1,0.2-1.8,0.8-2.4c0.5-0.4,1.1-0.6,1.7-0.6c0.4,0,0.8,0.1,1.1,0.2l-0.2,1
		c-0.2-0.1-0.4-0.2-0.8-0.2c-1,0-1.3,0.9-1.3,2v0.4h1.6v0.9h-1.6v5.8H335.3z"/>
	<path class="st1" d="M339.8,753.7c0,1.7,1.1,2.4,2.3,2.4c0.9,0,1.4-0.2,1.9-0.4l0.2,0.9c-0.4,0.2-1.2,0.4-2.3,0.4
		c-2.1,0-3.3-1.4-3.3-3.4c0-2,1.2-3.7,3.2-3.7c2.2,0,2.8,1.9,2.8,3.2c0,0.3,0,0.4,0,0.6H339.8z M343.4,752.8c0-0.8-0.3-2-1.7-2
		c-1.2,0-1.8,1.1-1.9,2H343.4z"/>
	<path class="st1" d="M346.1,752.2c0-0.8,0-1.5-0.1-2.1h1.1l0,1.3h0.1c0.3-0.9,1-1.5,1.9-1.5c0.1,0,0.2,0,0.3,0v1.2
		c-0.1,0-0.3,0-0.4,0c-0.9,0-1.5,0.7-1.7,1.6c0,0.2-0.1,0.4-0.1,0.6v3.6h-1.2V752.2z"/>
	<path class="st1" d="M350.7,751.9c0-0.7,0-1.3-0.1-1.8h1.1l0.1,1.1h0c0.3-0.6,1.1-1.3,2.2-1.3c0.9,0,2.4,0.6,2.4,2.9v4h-1.2v-3.9
		c0-1.1-0.4-2-1.6-2c-0.8,0-1.4,0.6-1.7,1.3c-0.1,0.2-0.1,0.4-0.1,0.6v4.1h-1.2V751.9z"/>
	<path class="st1" d="M364.6,753.4c0,2.5-1.7,3.6-3.4,3.6c-1.8,0-3.2-1.3-3.2-3.5c0-2.3,1.5-3.6,3.4-3.6
		C363.3,749.9,364.6,751.3,364.6,753.4z M359.3,753.5c0,1.5,0.9,2.6,2.1,2.6c1.2,0,2.1-1.1,2.1-2.6c0-1.1-0.6-2.6-2-2.6
		S359.3,752.2,359.3,753.5z"/>
	<path class="st1" d="M369.6,750l1.5,4c0.2,0.4,0.3,1,0.4,1.4h0c0.1-0.4,0.3-0.9,0.4-1.4l1.3-4h1.3l-1.8,4.8
		c-0.9,2.3-1.5,3.5-2.3,4.2c-0.6,0.5-1.2,0.7-1.5,0.8l-0.3-1c0.3-0.1,0.7-0.3,1.1-0.6c0.3-0.3,0.8-0.7,1-1.4
		c0.1-0.1,0.1-0.2,0.1-0.3s0-0.2-0.1-0.3l-2.5-6.2H369.6z"/>
	<path class="st1" d="M381.8,753.4c0,2.5-1.7,3.6-3.4,3.6c-1.8,0-3.2-1.3-3.2-3.5c0-2.3,1.5-3.6,3.4-3.6
		C380.4,749.9,381.8,751.3,381.8,753.4z M376.4,753.5c0,1.5,0.9,2.6,2.1,2.6c1.2,0,2.1-1.1,2.1-2.6c0-1.1-0.6-2.6-2-2.6
		S376.4,752.2,376.4,753.5z"/>
	<path class="st1" d="M389,755c0,0.7,0,1.3,0.1,1.8h-1.1l-0.1-1.1h0c-0.3,0.5-1,1.3-2.2,1.3c-1.1,0-2.3-0.6-2.3-3v-4h1.2v3.8
		c0,1.3,0.4,2.2,1.5,2.2c0.8,0,1.4-0.6,1.6-1.1c0.1-0.2,0.1-0.4,0.1-0.6V750h1.2V755z"/>
	<path class="st1" d="M394.5,750l0.9,3.4c0.2,0.8,0.4,1.5,0.5,2.2h0c0.2-0.7,0.4-1.4,0.6-2.1l1.1-3.5h1l1.1,3.4
		c0.3,0.8,0.4,1.5,0.6,2.2h0c0.1-0.7,0.3-1.4,0.5-2.2l1-3.4h1.2l-2.2,6.8h-1.1l-1-3.2c-0.2-0.8-0.4-1.4-0.6-2.2h0
		c-0.2,0.8-0.4,1.5-0.6,2.2l-1.1,3.2h-1.1l-2-6.8H394.5z"/>
	<path class="st1" d="M410.3,753.4c0,2.5-1.7,3.6-3.4,3.6c-1.8,0-3.2-1.3-3.2-3.5c0-2.3,1.5-3.6,3.4-3.6
		C409,749.9,410.3,751.3,410.3,753.4z M404.9,753.5c0,1.5,0.9,2.6,2.1,2.6c1.2,0,2.1-1.1,2.1-2.6c0-1.1-0.6-2.6-2-2.6
		S404.9,752.2,404.9,753.5z"/>
	<path class="st1" d="M411.8,751.9c0-0.7,0-1.3-0.1-1.8h1.1l0.1,1.1h0c0.3-0.6,1.1-1.3,2.2-1.3c0.9,0,2.4,0.6,2.4,2.9v4h-1.2v-3.9
		c0-1.1-0.4-2-1.6-2c-0.8,0-1.4,0.6-1.7,1.3c-0.1,0.2-0.1,0.4-0.1,0.6v4.1h-1.2V751.9z"/>
	<path class="st1" d="M420.4,747.2l-0.2,3.4h-0.8l-0.2-3.4H420.4z"/>
	<path class="st1" d="M424,748.1v1.9h1.8v0.9H424v3.7c0,0.8,0.2,1.3,0.9,1.3c0.3,0,0.6,0,0.7-0.1l0.1,0.9c-0.2,0.1-0.6,0.2-1.1,0.2
		c-0.6,0-1-0.2-1.3-0.5c-0.4-0.4-0.5-1-0.5-1.8V751h-1.1V750h1.1v-1.6L424,748.1z"/>
	<path class="st1" d="M430.6,750l0.9,3.4c0.2,0.8,0.4,1.5,0.5,2.2h0c0.2-0.7,0.4-1.4,0.6-2.1l1.1-3.5h1l1.1,3.4
		c0.3,0.8,0.4,1.5,0.6,2.2h0c0.1-0.7,0.3-1.4,0.5-2.2l1-3.4h1.2l-2.2,6.8h-1.1l-1-3.2c-0.2-0.8-0.4-1.4-0.6-2.2h0
		c-0.2,0.8-0.4,1.5-0.6,2.2l-1.1,3.2h-1.1l-2-6.8H430.6z"/>
	<path class="st1" d="M444.1,756.8L444,756h0c-0.4,0.5-1.1,1-2.1,1c-1.4,0-2.1-1-2.1-1.9c0-1.6,1.5-2.5,4.1-2.5v-0.1
		c0-0.6-0.2-1.6-1.5-1.6c-0.6,0-1.3,0.2-1.8,0.5l-0.3-0.8c0.6-0.4,1.4-0.6,2.2-0.6c2.1,0,2.6,1.4,2.6,2.8v2.5c0,0.6,0,1.2,0.1,1.6
		H444.1z M443.9,753.4c-1.3,0-2.9,0.2-2.9,1.5c0,0.8,0.5,1.2,1.2,1.2c0.9,0,1.4-0.6,1.6-1.1c0-0.1,0.1-0.3,0.1-0.4V753.4z"/>
	<path class="st1" d="M447.1,751.9c0-0.7,0-1.3-0.1-1.8h1.1l0.1,1.1h0c0.3-0.6,1.1-1.3,2.2-1.3c0.9,0,2.4,0.6,2.4,2.9v4h-1.2v-3.9
		c0-1.1-0.4-2-1.6-2c-0.8,0-1.4,0.6-1.7,1.3c-0.1,0.2-0.1,0.4-0.1,0.6v4.1h-1.2V751.9z"/>
	<path class="st1" d="M456.3,748.1v1.9h1.8v0.9h-1.8v3.7c0,0.8,0.2,1.3,0.9,1.3c0.3,0,0.6,0,0.7-0.1l0.1,0.9
		c-0.2,0.1-0.6,0.2-1.1,0.2c-0.6,0-1-0.2-1.3-0.5c-0.4-0.4-0.5-1-0.5-1.8V751H454V750h1.1v-1.6L456.3,748.1z"/>
	<path class="st1" d="M463.9,748.1v1.9h1.8v0.9h-1.8v3.7c0,0.8,0.2,1.3,0.9,1.3c0.3,0,0.6,0,0.7-0.1l0.1,0.9
		c-0.2,0.1-0.6,0.2-1.1,0.2c-0.6,0-1-0.2-1.3-0.5c-0.4-0.4-0.5-1-0.5-1.8V751h-1.1V750h1.1v-1.6L463.9,748.1z"/>
	<path class="st1" d="M473.1,753.4c0,2.5-1.7,3.6-3.4,3.6c-1.8,0-3.2-1.3-3.2-3.5c0-2.3,1.5-3.6,3.4-3.6
		C471.8,749.9,473.1,751.3,473.1,753.4z M467.7,753.5c0,1.5,0.9,2.6,2.1,2.6c1.2,0,2.1-1.1,2.1-2.6c0-1.1-0.6-2.6-2-2.6
		S467.7,752.2,467.7,753.5z"/>
	<path class="st1" d="M477.6,751.9c0-0.7,0-1.3-0.1-1.8h1.1l0.1,1.1h0c0.4-0.6,1-1.2,2.1-1.2c0.9,0,1.6,0.6,1.9,1.4h0
		c0.2-0.4,0.5-0.7,0.8-0.9c0.4-0.3,0.9-0.5,1.5-0.5c0.9,0,2.2,0.6,2.2,2.9v4h-1.2V753c0-1.3-0.5-2.1-1.5-2.1c-0.7,0-1.2,0.5-1.5,1.1
		c-0.1,0.2-0.1,0.4-0.1,0.6v4.2h-1.2v-4.1c0-1.1-0.5-1.9-1.4-1.9c-0.8,0-1.3,0.6-1.5,1.2c-0.1,0.2-0.1,0.4-0.1,0.6v4.1h-1.2V751.9z"
		/>
	<path class="st1" d="M490.6,748.1c0,0.4-0.3,0.8-0.8,0.8c-0.4,0-0.7-0.3-0.7-0.8c0-0.4,0.3-0.8,0.8-0.8
		C490.3,747.4,490.6,747.7,490.6,748.1z M489.3,756.8V750h1.2v6.8H489.3z"/>
	<path class="st1" d="M492.4,755.6c0.4,0.2,1,0.5,1.6,0.5c0.9,0,1.3-0.4,1.3-1c0-0.6-0.3-0.9-1.3-1.2c-1.2-0.4-1.8-1.1-1.8-1.9
		c0-1.1,0.9-2,2.3-2c0.7,0,1.3,0.2,1.7,0.4l-0.3,0.9c-0.3-0.2-0.8-0.4-1.4-0.4c-0.7,0-1.1,0.4-1.1,0.9c0,0.6,0.4,0.8,1.3,1.1
		c1.2,0.4,1.8,1,1.8,2c0,1.2-0.9,2-2.5,2c-0.7,0-1.4-0.2-1.9-0.5L492.4,755.6z"/>
	<path class="st1" d="M497.9,755.6c0.4,0.2,1,0.5,1.6,0.5c0.9,0,1.3-0.4,1.3-1c0-0.6-0.3-0.9-1.3-1.2c-1.2-0.4-1.8-1.1-1.8-1.9
		c0-1.1,0.9-2,2.3-2c0.7,0,1.3,0.2,1.7,0.4l-0.3,0.9c-0.3-0.2-0.8-0.4-1.4-0.4c-0.7,0-1.1,0.4-1.1,0.9c0,0.6,0.4,0.8,1.3,1.1
		c1.2,0.4,1.8,1,1.8,2c0,1.2-0.9,2-2.5,2c-0.7,0-1.4-0.2-1.9-0.5L497.9,755.6z"/>
	<path class="st1" d="M503.2,756.1c0-0.5,0.3-0.9,0.8-0.9c0.5,0,0.8,0.4,0.8,0.9c0,0.5-0.3,0.9-0.8,0.9
		C503.5,757,503.2,756.6,503.2,756.1z"/>
</g>
<g>
	<path class="st6" d="M37.7,758.2v-0.7l0.9-0.9c2.2-2.1,3.1-3.1,3.1-4.4c0-0.9-0.4-1.7-1.7-1.7c-0.8,0-1.4,0.4-1.8,0.7l-0.4-0.8
		c0.6-0.5,1.4-0.9,2.4-0.9c1.8,0,2.6,1.2,2.6,2.5c0,1.6-1.1,2.8-2.9,4.5l-0.7,0.6v0h3.8v0.9H37.7z"/>
	<path class="st6" d="M44.7,756.9c0.3,0.2,1.1,0.5,1.9,0.5c1.5,0,1.9-0.9,1.9-1.6c0-1.2-1.1-1.7-2.2-1.7h-0.6v-0.9h0.6
		c0.8,0,1.9-0.4,1.9-1.4c0-0.7-0.4-1.3-1.5-1.3c-0.7,0-1.3,0.3-1.7,0.6l-0.3-0.8c0.4-0.3,1.3-0.7,2.2-0.7c1.7,0,2.4,1,2.4,2
		c0,0.9-0.5,1.6-1.6,2v0c1,0.2,1.9,1,1.9,2.2c0,1.4-1.1,2.5-3.1,2.5c-0.9,0-1.8-0.3-2.2-0.6L44.7,756.9z"/>
</g>
</svg>
