<?xml version="1.0" encoding="utf-8"?>
<!-- Generator: Adobe Illustrator 21.1.0, SVG Export Plug-In . SVG Version: 6.00 Build 0)  -->
<svg version="1.1" id="Layer_1" xmlns="http://www.w3.org/2000/svg" xmlns:xlink="http://www.w3.org/1999/xlink" x="0px" y="0px"
	 viewBox="0 0 621.4 801.4" style="enable-background:new 0 0 621.4 801.4;" xml:space="preserve">
<style type="text/css">
	.st0{fill:#FFFFFF;}
	.st1{fill:#FFFFFF;stroke:#FFFFFF;stroke-width:0.25;stroke-miterlimit:10;}
	.st2{stroke:#000000;stroke-width:0.25;stroke-miterlimit:10;}
	.st3{fill:#1F8AC9;}
	.st4{fill:#000101;stroke:#000101;stroke-width:0.25;stroke-miterlimit:10;}
	.st5{opacity:0.75;fill:#FFFFFF;}
	.st6{fill:#9A453E;}
	.st7{fill:#5D2318;}
	.st8{fill:#5D2318;stroke:#5D2318;stroke-width:0.25;stroke-miterlimit:10;}
	.st9{fill:#9A453E;stroke:#9A453E;stroke-width:0.25;stroke-miterlimit:10;}
	.st10{fill:#933A28;}
	.st11{fill:none;}
	.st12{font-family:'MyriadPro-Regular';}
	.st13{font-size:13px;}
	.st14{fill:#29326B;stroke:#29326B;stroke-width:0.25;stroke-miterlimit:10;}
	.st15{fill:#FFFFFF;fill-opacity:0.27;}
	.st16{fill:#5D2217;}
	.st17{fill:#99443E;}
	.st18{stroke:#000000;stroke-width:0.5;stroke-miterlimit:10;}
	.st19{fill:#473181;stroke:#473181;stroke-width:0.5;stroke-miterlimit:10;}
	.st20{fill:#090E31;}
	.st21{fill:#442033;}
	.st22{fill:#473181;}
	.st23{fill:#BDA677;}
	.st24{fill:#FFFFFF;stroke:#FFFFFF;stroke-miterlimit:10;}
	.st25{fill:#2C3471;}
	.st26{fill:#2C3471;stroke:#2C3471;stroke-width:0.25;stroke-miterlimit:10;}
	.st27{fill:#00B4EC;}
	.st28{opacity:0.15;}
	.st29{fill:#21283A;stroke:#21283A;stroke-width:0.25;stroke-miterlimit:10;}
	.st30{clip-path:url(#SVGID_2_);}
	.st31{opacity:0.12;}
	.st32{fill:#0C2537;}
	.st33{opacity:0.8;}
	.st34{fill:#737273;}
	.st35{opacity:0.85;fill:#FFFFFF;}
	.st36{fill:#B9DCE8;}
</style>
<rect x="564.2" y="755" class="st11" width="28" height="15"/>
<text transform="matrix(1 0 0 1 574.8654 764.2062)" class="st0 st12 st13">4</text>
<g>
	<path class="st6" d="M578.9,764.5v-2.3H575v-0.8l3.8-5.4h1.2v5.3h1.2v0.9H580v2.3H578.9z M578.9,761.3v-2.8c0-0.4,0-0.9,0-1.3h0
		c-0.3,0.5-0.5,0.9-0.7,1.2l-2.1,2.9v0H578.9z"/>
</g>
<rect x="465.2" y="703" class="st0" width="83" height="86"/>
<g>
	<g>
		<path d="M312.3,166.4c0.6,0,0.6-1,0-1C311.7,165.4,311.7,166.4,312.3,166.4L312.3,166.4z"/>
	</g>
</g>
<g>
	<g>
		<path d="M312.3,167c0.6,0,0.6-1,0-1C311.7,166,311.7,167,312.3,167L312.3,167z"/>
	</g>
</g>
<g>
	<g>
		<path d="M317.6,167.6c0.6,0,0.6-1,0-1C316.9,166.6,316.9,167.6,317.6,167.6L317.6,167.6z"/>
	</g>
</g>
<g>
	<g>
		<path d="M314.6,285.4c0.6,0,0.6-1,0-1C313.9,284.4,313.9,285.4,314.6,285.4L314.6,285.4z"/>
	</g>
</g>
<g>
	<g>
		<path d="M340.5,289.2c0.6,0,0.6-1,0-1C339.8,288.2,339.8,289.2,340.5,289.2L340.5,289.2z"/>
	</g>
</g>
<g>
	<g>
		<path d="M347.1,291.4c0.6,0,0.6-1,0-1C346.4,290.4,346.4,291.4,347.1,291.4L347.1,291.4z"/>
	</g>
</g>
<g>
	<g>
		<path d="M352.3,291.2c0.6,0,0.6-1,0-1C351.7,290.2,351.7,291.2,352.3,291.2L352.3,291.2z"/>
	</g>
</g>
<rect x="469.2" y="712" class="st0" width="89" height="92"/>
</svg>
